M48
; DRILL file {KiCad 5.1.6} date Sun Apr  4 19:37:45 2021
; FORMAT={-:-/ absolute / inch / decimal}
; #@! TF.CreationDate,2021-04-04T19:37:45+02:00
; #@! TF.GenerationSoftware,Kicad,Pcbnew,5.1.6
; #@! TF.FileFunction,Plated,1,4,PTH
FMAT,2
INCH
T1C0.0118
T2C0.0157
T3C0.0197
T4C0.0236
T5C0.0256
T6C0.0315
T7C0.0394
T8C0.0787
T9C0.1378
%
G90
G05
T1
X3.9047Y-4.3445
X4.0453Y-4.3197
X4.3Y-4.6736
X4.3913Y-4.6272
X4.4791Y-4.6268
X4.9961Y-3.7283
X5.0228Y-3.7291
X5.1055Y-4.7102
X5.2843Y-4.5079
X5.5702Y-4.0013
X5.578Y-3.958
X5.6713Y-3.956
X5.672Y-3.891
X5.672Y-3.915
T2
X5.4188Y-3.813
X5.421Y-3.902
X5.503Y-3.8139
X5.555Y-3.977
X5.664Y-3.808
X5.664Y-3.808
X5.664Y-3.808
X5.664Y-3.808
X5.664Y-3.808
X5.672Y-4.0
X5.6732Y-3.8386
T3
X3.9781Y-4.4842
X4.0354Y-4.0886
X4.0394Y-4.0512
X4.0748Y-4.0374
X4.1107Y-4.3371
X4.142Y-4.4015
X4.1453Y-4.311
X4.1461Y-4.0382
X4.1751Y-4.1012
X4.1761Y-4.0632
X4.2501Y-4.4842
X4.2791Y-4.4472
X4.2841Y-4.3612
X4.2841Y-4.3992
X4.352Y-4.9326
X4.436Y-4.9326
X4.4791Y-4.2422
X4.4801Y-4.2792
X4.5213Y-4.9348
X4.5709Y-3.6969
X4.5709Y-3.7913
X4.6161Y-4.0551
X4.624Y-4.533
X4.624Y-4.572
X4.659Y-4.507
X4.659Y-4.552
X4.66Y-4.59
X4.6866Y-3.8713
X4.766Y-4.51
X4.767Y-4.552
X4.767Y-4.591
X4.801Y-4.532
X4.802Y-4.571
X4.924Y-3.566
X4.924Y-3.603
X4.9567Y-3.502
X4.961Y-3.566
X4.961Y-3.603
X4.9749Y-4.8338
X4.9882Y-3.4807
X4.9909Y-4.7228
X5.021Y-3.864
X5.021Y-3.9
X5.023Y-4.348
X5.0259Y-4.6858
X5.0315Y-3.4748
X5.051Y-4.321
X5.053Y-3.882
X5.089Y-4.321
X5.098Y-4.018
X5.1083Y-3.4756
X5.126Y-4.2205
X5.126Y-4.321
X5.1417Y-4.0394
X5.143Y-3.735
X5.1878Y-3.4756
X5.199Y-4.823
X5.202Y-4.554
X5.21Y-3.734
X5.235Y-4.823
X5.2677Y-3.4803
X5.272Y-4.824
X5.2823Y-3.5217
X5.309Y-4.824
X5.346Y-4.824
X5.383Y-4.824
X5.42Y-4.823
X5.4213Y-4.0906
X5.444Y-4.671
X5.481Y-4.669
X5.508Y-4.644
X5.588Y-4.31
X5.669Y-4.31
X5.4872Y-3.5315
X5.5175Y-3.4584
X5.5175Y-3.6046
X5.5906Y-3.4281
X5.5906Y-3.6348
X5.6636Y-3.4584
X5.6636Y-3.6046
X5.6939Y-3.5315
X3.5187Y-3.5315
X3.549Y-3.4584
X3.549Y-3.6046
X3.622Y-3.4281
X3.622Y-3.6348
X3.6951Y-3.4584
X3.6951Y-3.6046
X3.7254Y-3.5315
X3.5187Y-4.9094
X3.549Y-4.8364
X3.549Y-4.9825
X3.622Y-4.8061
X3.622Y-5.0128
X3.6951Y-4.8364
X3.6951Y-4.9825
X3.7254Y-4.9094
X5.4872Y-4.9094
X5.5175Y-4.8364
X5.5175Y-4.9825
X5.5906Y-4.8061
X5.5906Y-5.0128
X5.6636Y-4.8364
X5.6636Y-4.9825
X5.6939Y-4.9094
T6
X5.25Y-4.34
X5.3878Y-4.34
X4.7717Y-4.2205
X4.9094Y-4.2205
T7
X3.622Y-3.7693
X3.622Y-3.8693
X3.622Y-3.9693
X3.622Y-4.0693
X3.622Y-4.1693
X3.622Y-4.2693
X3.622Y-4.3693
X3.622Y-4.4693
X3.622Y-4.5693
X3.622Y-4.6693
X3.8746Y-3.5315
X3.9746Y-3.5315
X4.0746Y-3.5315
X4.1746Y-3.5315
X4.0669Y-4.9094
X4.1669Y-4.9094
X4.3748Y-3.5307
X4.4748Y-3.5307
T8
X5.6457Y-4.6339
X4.7512Y-4.9091
T9
X5.5906Y-3.5315
X3.622Y-3.5315
X3.622Y-4.9094
X5.5906Y-4.9094
T4
G00X5.7165Y-3.7628
M15
G01X5.7441Y-3.7628
M16
G05
G00X5.7165Y-4.0915
M15
G01X5.7441Y-4.0915
M16
G05
T5
G00X5.6083Y-3.8396
M15
G01X5.6161Y-3.8396
M16
G05
G00X5.6083Y-4.0148
M15
G01X5.6161Y-4.0148
M16
G05
T0
M30
