%TF.GenerationSoftware,KiCad,Pcbnew,5.1.6*%
%TF.CreationDate,2021-04-06T07:59:24+02:00*%
%TF.ProjectId,teriyaki,74657269-7961-46b6-992e-6b696361645f,rev?*%
%TF.SameCoordinates,Original*%
%TF.FileFunction,Paste,Top*%
%TF.FilePolarity,Positive*%
%FSLAX46Y46*%
G04 Gerber Fmt 4.6, Leading zero omitted, Abs format (unit mm)*
G04 Created by KiCad (PCBNEW 5.1.6) date 2021-04-06 07:59:24*
%MOMM*%
%LPD*%
G01*
G04 APERTURE LIST*
%ADD10R,1.800000X2.500000*%
%ADD11R,1.350000X0.400000*%
%ADD12R,1.900000X2.900000*%
%ADD13R,0.850000X0.300000*%
%ADD14R,1.500000X2.200000*%
%ADD15R,0.450000X1.750000*%
%ADD16R,1.060000X0.650000*%
%ADD17R,1.400000X1.200000*%
G04 APERTURE END LIST*
%TO.C,R15*%
G36*
G01*
X95873750Y-94992500D02*
X96386250Y-94992500D01*
G75*
G02*
X96605000Y-95211250I0J-218750D01*
G01*
X96605000Y-95648750D01*
G75*
G02*
X96386250Y-95867500I-218750J0D01*
G01*
X95873750Y-95867500D01*
G75*
G02*
X95655000Y-95648750I0J218750D01*
G01*
X95655000Y-95211250D01*
G75*
G02*
X95873750Y-94992500I218750J0D01*
G01*
G37*
G36*
G01*
X95873750Y-93417500D02*
X96386250Y-93417500D01*
G75*
G02*
X96605000Y-93636250I0J-218750D01*
G01*
X96605000Y-94073750D01*
G75*
G02*
X96386250Y-94292500I-218750J0D01*
G01*
X95873750Y-94292500D01*
G75*
G02*
X95655000Y-94073750I0J218750D01*
G01*
X95655000Y-93636250D01*
G75*
G02*
X95873750Y-93417500I218750J0D01*
G01*
G37*
%TD*%
%TO.C,R14*%
G36*
G01*
X96290250Y-98391500D02*
X95777750Y-98391500D01*
G75*
G02*
X95559000Y-98172750I0J218750D01*
G01*
X95559000Y-97735250D01*
G75*
G02*
X95777750Y-97516500I218750J0D01*
G01*
X96290250Y-97516500D01*
G75*
G02*
X96509000Y-97735250I0J-218750D01*
G01*
X96509000Y-98172750D01*
G75*
G02*
X96290250Y-98391500I-218750J0D01*
G01*
G37*
G36*
G01*
X96290250Y-99966500D02*
X95777750Y-99966500D01*
G75*
G02*
X95559000Y-99747750I0J218750D01*
G01*
X95559000Y-99310250D01*
G75*
G02*
X95777750Y-99091500I218750J0D01*
G01*
X96290250Y-99091500D01*
G75*
G02*
X96509000Y-99310250I0J-218750D01*
G01*
X96509000Y-99747750D01*
G75*
G02*
X96290250Y-99966500I-218750J0D01*
G01*
G37*
%TD*%
%TO.C,U2*%
G36*
G01*
X98075000Y-107520000D02*
X96825000Y-107520000D01*
G75*
G02*
X96700000Y-107395000I0J125000D01*
G01*
X96700000Y-107145000D01*
G75*
G02*
X96825000Y-107020000I125000J0D01*
G01*
X98075000Y-107020000D01*
G75*
G02*
X98200000Y-107145000I0J-125000D01*
G01*
X98200000Y-107395000D01*
G75*
G02*
X98075000Y-107520000I-125000J0D01*
G01*
G37*
G36*
G01*
X98075000Y-106720000D02*
X96825000Y-106720000D01*
G75*
G02*
X96700000Y-106595000I0J125000D01*
G01*
X96700000Y-106345000D01*
G75*
G02*
X96825000Y-106220000I125000J0D01*
G01*
X98075000Y-106220000D01*
G75*
G02*
X98200000Y-106345000I0J-125000D01*
G01*
X98200000Y-106595000D01*
G75*
G02*
X98075000Y-106720000I-125000J0D01*
G01*
G37*
G36*
G01*
X98075000Y-105920000D02*
X96825000Y-105920000D01*
G75*
G02*
X96700000Y-105795000I0J125000D01*
G01*
X96700000Y-105545000D01*
G75*
G02*
X96825000Y-105420000I125000J0D01*
G01*
X98075000Y-105420000D01*
G75*
G02*
X98200000Y-105545000I0J-125000D01*
G01*
X98200000Y-105795000D01*
G75*
G02*
X98075000Y-105920000I-125000J0D01*
G01*
G37*
G36*
G01*
X98075000Y-105120000D02*
X96825000Y-105120000D01*
G75*
G02*
X96700000Y-104995000I0J125000D01*
G01*
X96700000Y-104745000D01*
G75*
G02*
X96825000Y-104620000I125000J0D01*
G01*
X98075000Y-104620000D01*
G75*
G02*
X98200000Y-104745000I0J-125000D01*
G01*
X98200000Y-104995000D01*
G75*
G02*
X98075000Y-105120000I-125000J0D01*
G01*
G37*
G36*
G01*
X98075000Y-104320000D02*
X96825000Y-104320000D01*
G75*
G02*
X96700000Y-104195000I0J125000D01*
G01*
X96700000Y-103945000D01*
G75*
G02*
X96825000Y-103820000I125000J0D01*
G01*
X98075000Y-103820000D01*
G75*
G02*
X98200000Y-103945000I0J-125000D01*
G01*
X98200000Y-104195000D01*
G75*
G02*
X98075000Y-104320000I-125000J0D01*
G01*
G37*
G36*
G01*
X98075000Y-103520000D02*
X96825000Y-103520000D01*
G75*
G02*
X96700000Y-103395000I0J125000D01*
G01*
X96700000Y-103145000D01*
G75*
G02*
X96825000Y-103020000I125000J0D01*
G01*
X98075000Y-103020000D01*
G75*
G02*
X98200000Y-103145000I0J-125000D01*
G01*
X98200000Y-103395000D01*
G75*
G02*
X98075000Y-103520000I-125000J0D01*
G01*
G37*
G36*
G01*
X98075000Y-102720000D02*
X96825000Y-102720000D01*
G75*
G02*
X96700000Y-102595000I0J125000D01*
G01*
X96700000Y-102345000D01*
G75*
G02*
X96825000Y-102220000I125000J0D01*
G01*
X98075000Y-102220000D01*
G75*
G02*
X98200000Y-102345000I0J-125000D01*
G01*
X98200000Y-102595000D01*
G75*
G02*
X98075000Y-102720000I-125000J0D01*
G01*
G37*
G36*
G01*
X98075000Y-101920000D02*
X96825000Y-101920000D01*
G75*
G02*
X96700000Y-101795000I0J125000D01*
G01*
X96700000Y-101545000D01*
G75*
G02*
X96825000Y-101420000I125000J0D01*
G01*
X98075000Y-101420000D01*
G75*
G02*
X98200000Y-101545000I0J-125000D01*
G01*
X98200000Y-101795000D01*
G75*
G02*
X98075000Y-101920000I-125000J0D01*
G01*
G37*
G36*
G01*
X98950000Y-101045000D02*
X98700000Y-101045000D01*
G75*
G02*
X98575000Y-100920000I0J125000D01*
G01*
X98575000Y-99670000D01*
G75*
G02*
X98700000Y-99545000I125000J0D01*
G01*
X98950000Y-99545000D01*
G75*
G02*
X99075000Y-99670000I0J-125000D01*
G01*
X99075000Y-100920000D01*
G75*
G02*
X98950000Y-101045000I-125000J0D01*
G01*
G37*
G36*
G01*
X99750000Y-101045000D02*
X99500000Y-101045000D01*
G75*
G02*
X99375000Y-100920000I0J125000D01*
G01*
X99375000Y-99670000D01*
G75*
G02*
X99500000Y-99545000I125000J0D01*
G01*
X99750000Y-99545000D01*
G75*
G02*
X99875000Y-99670000I0J-125000D01*
G01*
X99875000Y-100920000D01*
G75*
G02*
X99750000Y-101045000I-125000J0D01*
G01*
G37*
G36*
G01*
X100550000Y-101045000D02*
X100300000Y-101045000D01*
G75*
G02*
X100175000Y-100920000I0J125000D01*
G01*
X100175000Y-99670000D01*
G75*
G02*
X100300000Y-99545000I125000J0D01*
G01*
X100550000Y-99545000D01*
G75*
G02*
X100675000Y-99670000I0J-125000D01*
G01*
X100675000Y-100920000D01*
G75*
G02*
X100550000Y-101045000I-125000J0D01*
G01*
G37*
G36*
G01*
X101350000Y-101045000D02*
X101100000Y-101045000D01*
G75*
G02*
X100975000Y-100920000I0J125000D01*
G01*
X100975000Y-99670000D01*
G75*
G02*
X101100000Y-99545000I125000J0D01*
G01*
X101350000Y-99545000D01*
G75*
G02*
X101475000Y-99670000I0J-125000D01*
G01*
X101475000Y-100920000D01*
G75*
G02*
X101350000Y-101045000I-125000J0D01*
G01*
G37*
G36*
G01*
X102150000Y-101045000D02*
X101900000Y-101045000D01*
G75*
G02*
X101775000Y-100920000I0J125000D01*
G01*
X101775000Y-99670000D01*
G75*
G02*
X101900000Y-99545000I125000J0D01*
G01*
X102150000Y-99545000D01*
G75*
G02*
X102275000Y-99670000I0J-125000D01*
G01*
X102275000Y-100920000D01*
G75*
G02*
X102150000Y-101045000I-125000J0D01*
G01*
G37*
G36*
G01*
X102950000Y-101045000D02*
X102700000Y-101045000D01*
G75*
G02*
X102575000Y-100920000I0J125000D01*
G01*
X102575000Y-99670000D01*
G75*
G02*
X102700000Y-99545000I125000J0D01*
G01*
X102950000Y-99545000D01*
G75*
G02*
X103075000Y-99670000I0J-125000D01*
G01*
X103075000Y-100920000D01*
G75*
G02*
X102950000Y-101045000I-125000J0D01*
G01*
G37*
G36*
G01*
X103750000Y-101045000D02*
X103500000Y-101045000D01*
G75*
G02*
X103375000Y-100920000I0J125000D01*
G01*
X103375000Y-99670000D01*
G75*
G02*
X103500000Y-99545000I125000J0D01*
G01*
X103750000Y-99545000D01*
G75*
G02*
X103875000Y-99670000I0J-125000D01*
G01*
X103875000Y-100920000D01*
G75*
G02*
X103750000Y-101045000I-125000J0D01*
G01*
G37*
G36*
G01*
X104550000Y-101045000D02*
X104300000Y-101045000D01*
G75*
G02*
X104175000Y-100920000I0J125000D01*
G01*
X104175000Y-99670000D01*
G75*
G02*
X104300000Y-99545000I125000J0D01*
G01*
X104550000Y-99545000D01*
G75*
G02*
X104675000Y-99670000I0J-125000D01*
G01*
X104675000Y-100920000D01*
G75*
G02*
X104550000Y-101045000I-125000J0D01*
G01*
G37*
G36*
G01*
X106425000Y-101920000D02*
X105175000Y-101920000D01*
G75*
G02*
X105050000Y-101795000I0J125000D01*
G01*
X105050000Y-101545000D01*
G75*
G02*
X105175000Y-101420000I125000J0D01*
G01*
X106425000Y-101420000D01*
G75*
G02*
X106550000Y-101545000I0J-125000D01*
G01*
X106550000Y-101795000D01*
G75*
G02*
X106425000Y-101920000I-125000J0D01*
G01*
G37*
G36*
G01*
X106425000Y-102720000D02*
X105175000Y-102720000D01*
G75*
G02*
X105050000Y-102595000I0J125000D01*
G01*
X105050000Y-102345000D01*
G75*
G02*
X105175000Y-102220000I125000J0D01*
G01*
X106425000Y-102220000D01*
G75*
G02*
X106550000Y-102345000I0J-125000D01*
G01*
X106550000Y-102595000D01*
G75*
G02*
X106425000Y-102720000I-125000J0D01*
G01*
G37*
G36*
G01*
X106425000Y-103520000D02*
X105175000Y-103520000D01*
G75*
G02*
X105050000Y-103395000I0J125000D01*
G01*
X105050000Y-103145000D01*
G75*
G02*
X105175000Y-103020000I125000J0D01*
G01*
X106425000Y-103020000D01*
G75*
G02*
X106550000Y-103145000I0J-125000D01*
G01*
X106550000Y-103395000D01*
G75*
G02*
X106425000Y-103520000I-125000J0D01*
G01*
G37*
G36*
G01*
X106425000Y-104320000D02*
X105175000Y-104320000D01*
G75*
G02*
X105050000Y-104195000I0J125000D01*
G01*
X105050000Y-103945000D01*
G75*
G02*
X105175000Y-103820000I125000J0D01*
G01*
X106425000Y-103820000D01*
G75*
G02*
X106550000Y-103945000I0J-125000D01*
G01*
X106550000Y-104195000D01*
G75*
G02*
X106425000Y-104320000I-125000J0D01*
G01*
G37*
G36*
G01*
X106425000Y-105120000D02*
X105175000Y-105120000D01*
G75*
G02*
X105050000Y-104995000I0J125000D01*
G01*
X105050000Y-104745000D01*
G75*
G02*
X105175000Y-104620000I125000J0D01*
G01*
X106425000Y-104620000D01*
G75*
G02*
X106550000Y-104745000I0J-125000D01*
G01*
X106550000Y-104995000D01*
G75*
G02*
X106425000Y-105120000I-125000J0D01*
G01*
G37*
G36*
G01*
X106425000Y-105920000D02*
X105175000Y-105920000D01*
G75*
G02*
X105050000Y-105795000I0J125000D01*
G01*
X105050000Y-105545000D01*
G75*
G02*
X105175000Y-105420000I125000J0D01*
G01*
X106425000Y-105420000D01*
G75*
G02*
X106550000Y-105545000I0J-125000D01*
G01*
X106550000Y-105795000D01*
G75*
G02*
X106425000Y-105920000I-125000J0D01*
G01*
G37*
G36*
G01*
X106425000Y-106720000D02*
X105175000Y-106720000D01*
G75*
G02*
X105050000Y-106595000I0J125000D01*
G01*
X105050000Y-106345000D01*
G75*
G02*
X105175000Y-106220000I125000J0D01*
G01*
X106425000Y-106220000D01*
G75*
G02*
X106550000Y-106345000I0J-125000D01*
G01*
X106550000Y-106595000D01*
G75*
G02*
X106425000Y-106720000I-125000J0D01*
G01*
G37*
G36*
G01*
X106425000Y-107520000D02*
X105175000Y-107520000D01*
G75*
G02*
X105050000Y-107395000I0J125000D01*
G01*
X105050000Y-107145000D01*
G75*
G02*
X105175000Y-107020000I125000J0D01*
G01*
X106425000Y-107020000D01*
G75*
G02*
X106550000Y-107145000I0J-125000D01*
G01*
X106550000Y-107395000D01*
G75*
G02*
X106425000Y-107520000I-125000J0D01*
G01*
G37*
G36*
G01*
X104550000Y-109395000D02*
X104300000Y-109395000D01*
G75*
G02*
X104175000Y-109270000I0J125000D01*
G01*
X104175000Y-108020000D01*
G75*
G02*
X104300000Y-107895000I125000J0D01*
G01*
X104550000Y-107895000D01*
G75*
G02*
X104675000Y-108020000I0J-125000D01*
G01*
X104675000Y-109270000D01*
G75*
G02*
X104550000Y-109395000I-125000J0D01*
G01*
G37*
G36*
G01*
X103750000Y-109395000D02*
X103500000Y-109395000D01*
G75*
G02*
X103375000Y-109270000I0J125000D01*
G01*
X103375000Y-108020000D01*
G75*
G02*
X103500000Y-107895000I125000J0D01*
G01*
X103750000Y-107895000D01*
G75*
G02*
X103875000Y-108020000I0J-125000D01*
G01*
X103875000Y-109270000D01*
G75*
G02*
X103750000Y-109395000I-125000J0D01*
G01*
G37*
G36*
G01*
X102950000Y-109395000D02*
X102700000Y-109395000D01*
G75*
G02*
X102575000Y-109270000I0J125000D01*
G01*
X102575000Y-108020000D01*
G75*
G02*
X102700000Y-107895000I125000J0D01*
G01*
X102950000Y-107895000D01*
G75*
G02*
X103075000Y-108020000I0J-125000D01*
G01*
X103075000Y-109270000D01*
G75*
G02*
X102950000Y-109395000I-125000J0D01*
G01*
G37*
G36*
G01*
X102150000Y-109395000D02*
X101900000Y-109395000D01*
G75*
G02*
X101775000Y-109270000I0J125000D01*
G01*
X101775000Y-108020000D01*
G75*
G02*
X101900000Y-107895000I125000J0D01*
G01*
X102150000Y-107895000D01*
G75*
G02*
X102275000Y-108020000I0J-125000D01*
G01*
X102275000Y-109270000D01*
G75*
G02*
X102150000Y-109395000I-125000J0D01*
G01*
G37*
G36*
G01*
X101350000Y-109395000D02*
X101100000Y-109395000D01*
G75*
G02*
X100975000Y-109270000I0J125000D01*
G01*
X100975000Y-108020000D01*
G75*
G02*
X101100000Y-107895000I125000J0D01*
G01*
X101350000Y-107895000D01*
G75*
G02*
X101475000Y-108020000I0J-125000D01*
G01*
X101475000Y-109270000D01*
G75*
G02*
X101350000Y-109395000I-125000J0D01*
G01*
G37*
G36*
G01*
X100550000Y-109395000D02*
X100300000Y-109395000D01*
G75*
G02*
X100175000Y-109270000I0J125000D01*
G01*
X100175000Y-108020000D01*
G75*
G02*
X100300000Y-107895000I125000J0D01*
G01*
X100550000Y-107895000D01*
G75*
G02*
X100675000Y-108020000I0J-125000D01*
G01*
X100675000Y-109270000D01*
G75*
G02*
X100550000Y-109395000I-125000J0D01*
G01*
G37*
G36*
G01*
X99750000Y-109395000D02*
X99500000Y-109395000D01*
G75*
G02*
X99375000Y-109270000I0J125000D01*
G01*
X99375000Y-108020000D01*
G75*
G02*
X99500000Y-107895000I125000J0D01*
G01*
X99750000Y-107895000D01*
G75*
G02*
X99875000Y-108020000I0J-125000D01*
G01*
X99875000Y-109270000D01*
G75*
G02*
X99750000Y-109395000I-125000J0D01*
G01*
G37*
G36*
G01*
X98950000Y-109395000D02*
X98700000Y-109395000D01*
G75*
G02*
X98575000Y-109270000I0J125000D01*
G01*
X98575000Y-108020000D01*
G75*
G02*
X98700000Y-107895000I125000J0D01*
G01*
X98950000Y-107895000D01*
G75*
G02*
X99075000Y-108020000I0J-125000D01*
G01*
X99075000Y-109270000D01*
G75*
G02*
X98950000Y-109395000I-125000J0D01*
G01*
G37*
%TD*%
%TO.C,C13*%
G36*
G01*
X102833750Y-111997500D02*
X103346250Y-111997500D01*
G75*
G02*
X103565000Y-112216250I0J-218750D01*
G01*
X103565000Y-112653750D01*
G75*
G02*
X103346250Y-112872500I-218750J0D01*
G01*
X102833750Y-112872500D01*
G75*
G02*
X102615000Y-112653750I0J218750D01*
G01*
X102615000Y-112216250D01*
G75*
G02*
X102833750Y-111997500I218750J0D01*
G01*
G37*
G36*
G01*
X102833750Y-110422500D02*
X103346250Y-110422500D01*
G75*
G02*
X103565000Y-110641250I0J-218750D01*
G01*
X103565000Y-111078750D01*
G75*
G02*
X103346250Y-111297500I-218750J0D01*
G01*
X102833750Y-111297500D01*
G75*
G02*
X102615000Y-111078750I0J218750D01*
G01*
X102615000Y-110641250D01*
G75*
G02*
X102833750Y-110422500I218750J0D01*
G01*
G37*
%TD*%
%TO.C,C1*%
G36*
G01*
X131256250Y-89912500D02*
X130343750Y-89912500D01*
G75*
G02*
X130100000Y-89668750I0J243750D01*
G01*
X130100000Y-89181250D01*
G75*
G02*
X130343750Y-88937500I243750J0D01*
G01*
X131256250Y-88937500D01*
G75*
G02*
X131500000Y-89181250I0J-243750D01*
G01*
X131500000Y-89668750D01*
G75*
G02*
X131256250Y-89912500I-243750J0D01*
G01*
G37*
G36*
G01*
X131256250Y-91787500D02*
X130343750Y-91787500D01*
G75*
G02*
X130100000Y-91543750I0J243750D01*
G01*
X130100000Y-91056250D01*
G75*
G02*
X130343750Y-90812500I243750J0D01*
G01*
X131256250Y-90812500D01*
G75*
G02*
X131500000Y-91056250I0J-243750D01*
G01*
X131500000Y-91543750D01*
G75*
G02*
X131256250Y-91787500I-243750J0D01*
G01*
G37*
%TD*%
%TO.C,C3*%
G36*
G01*
X129256250Y-89912500D02*
X128343750Y-89912500D01*
G75*
G02*
X128100000Y-89668750I0J243750D01*
G01*
X128100000Y-89181250D01*
G75*
G02*
X128343750Y-88937500I243750J0D01*
G01*
X129256250Y-88937500D01*
G75*
G02*
X129500000Y-89181250I0J-243750D01*
G01*
X129500000Y-89668750D01*
G75*
G02*
X129256250Y-89912500I-243750J0D01*
G01*
G37*
G36*
G01*
X129256250Y-91787500D02*
X128343750Y-91787500D01*
G75*
G02*
X128100000Y-91543750I0J243750D01*
G01*
X128100000Y-91056250D01*
G75*
G02*
X128343750Y-90812500I243750J0D01*
G01*
X129256250Y-90812500D01*
G75*
G02*
X129500000Y-91056250I0J-243750D01*
G01*
X129500000Y-91543750D01*
G75*
G02*
X129256250Y-91787500I-243750J0D01*
G01*
G37*
%TD*%
%TO.C,C4*%
G36*
G01*
X138164250Y-117084500D02*
X139076750Y-117084500D01*
G75*
G02*
X139320500Y-117328250I0J-243750D01*
G01*
X139320500Y-117815750D01*
G75*
G02*
X139076750Y-118059500I-243750J0D01*
G01*
X138164250Y-118059500D01*
G75*
G02*
X137920500Y-117815750I0J243750D01*
G01*
X137920500Y-117328250D01*
G75*
G02*
X138164250Y-117084500I243750J0D01*
G01*
G37*
G36*
G01*
X138164250Y-115209500D02*
X139076750Y-115209500D01*
G75*
G02*
X139320500Y-115453250I0J-243750D01*
G01*
X139320500Y-115940750D01*
G75*
G02*
X139076750Y-116184500I-243750J0D01*
G01*
X138164250Y-116184500D01*
G75*
G02*
X137920500Y-115940750I0J243750D01*
G01*
X137920500Y-115453250D01*
G75*
G02*
X138164250Y-115209500I243750J0D01*
G01*
G37*
%TD*%
%TO.C,C5*%
G36*
G01*
X127256250Y-90062500D02*
X126743750Y-90062500D01*
G75*
G02*
X126525000Y-89843750I0J218750D01*
G01*
X126525000Y-89406250D01*
G75*
G02*
X126743750Y-89187500I218750J0D01*
G01*
X127256250Y-89187500D01*
G75*
G02*
X127475000Y-89406250I0J-218750D01*
G01*
X127475000Y-89843750D01*
G75*
G02*
X127256250Y-90062500I-218750J0D01*
G01*
G37*
G36*
G01*
X127256250Y-91637500D02*
X126743750Y-91637500D01*
G75*
G02*
X126525000Y-91418750I0J218750D01*
G01*
X126525000Y-90981250D01*
G75*
G02*
X126743750Y-90762500I218750J0D01*
G01*
X127256250Y-90762500D01*
G75*
G02*
X127475000Y-90981250I0J-218750D01*
G01*
X127475000Y-91418750D01*
G75*
G02*
X127256250Y-91637500I-218750J0D01*
G01*
G37*
%TD*%
%TO.C,C6*%
G36*
G01*
X133256250Y-89912500D02*
X132343750Y-89912500D01*
G75*
G02*
X132100000Y-89668750I0J243750D01*
G01*
X132100000Y-89181250D01*
G75*
G02*
X132343750Y-88937500I243750J0D01*
G01*
X133256250Y-88937500D01*
G75*
G02*
X133500000Y-89181250I0J-243750D01*
G01*
X133500000Y-89668750D01*
G75*
G02*
X133256250Y-89912500I-243750J0D01*
G01*
G37*
G36*
G01*
X133256250Y-91787500D02*
X132343750Y-91787500D01*
G75*
G02*
X132100000Y-91543750I0J243750D01*
G01*
X132100000Y-91056250D01*
G75*
G02*
X132343750Y-90812500I243750J0D01*
G01*
X133256250Y-90812500D01*
G75*
G02*
X133500000Y-91056250I0J-243750D01*
G01*
X133500000Y-91543750D01*
G75*
G02*
X133256250Y-91787500I-243750J0D01*
G01*
G37*
%TD*%
%TO.C,C8*%
G36*
G01*
X96697500Y-112655000D02*
X96352500Y-112655000D01*
G75*
G02*
X96205000Y-112507500I0J147500D01*
G01*
X96205000Y-112212500D01*
G75*
G02*
X96352500Y-112065000I147500J0D01*
G01*
X96697500Y-112065000D01*
G75*
G02*
X96845000Y-112212500I0J-147500D01*
G01*
X96845000Y-112507500D01*
G75*
G02*
X96697500Y-112655000I-147500J0D01*
G01*
G37*
G36*
G01*
X96697500Y-113625000D02*
X96352500Y-113625000D01*
G75*
G02*
X96205000Y-113477500I0J147500D01*
G01*
X96205000Y-113182500D01*
G75*
G02*
X96352500Y-113035000I147500J0D01*
G01*
X96697500Y-113035000D01*
G75*
G02*
X96845000Y-113182500I0J-147500D01*
G01*
X96845000Y-113477500D01*
G75*
G02*
X96697500Y-113625000I-147500J0D01*
G01*
G37*
%TD*%
%TO.C,C9*%
G36*
G01*
X101652500Y-113035000D02*
X101997500Y-113035000D01*
G75*
G02*
X102145000Y-113182500I0J-147500D01*
G01*
X102145000Y-113477500D01*
G75*
G02*
X101997500Y-113625000I-147500J0D01*
G01*
X101652500Y-113625000D01*
G75*
G02*
X101505000Y-113477500I0J147500D01*
G01*
X101505000Y-113182500D01*
G75*
G02*
X101652500Y-113035000I147500J0D01*
G01*
G37*
G36*
G01*
X101652500Y-112065000D02*
X101997500Y-112065000D01*
G75*
G02*
X102145000Y-112212500I0J-147500D01*
G01*
X102145000Y-112507500D01*
G75*
G02*
X101997500Y-112655000I-147500J0D01*
G01*
X101652500Y-112655000D01*
G75*
G02*
X101505000Y-112507500I0J147500D01*
G01*
X101505000Y-112212500D01*
G75*
G02*
X101652500Y-112065000I147500J0D01*
G01*
G37*
%TD*%
%TO.C,C10*%
G36*
G01*
X127635650Y-121666100D02*
X127123150Y-121666100D01*
G75*
G02*
X126904400Y-121447350I0J218750D01*
G01*
X126904400Y-121009850D01*
G75*
G02*
X127123150Y-120791100I218750J0D01*
G01*
X127635650Y-120791100D01*
G75*
G02*
X127854400Y-121009850I0J-218750D01*
G01*
X127854400Y-121447350D01*
G75*
G02*
X127635650Y-121666100I-218750J0D01*
G01*
G37*
G36*
G01*
X127635650Y-123241100D02*
X127123150Y-123241100D01*
G75*
G02*
X126904400Y-123022350I0J218750D01*
G01*
X126904400Y-122584850D01*
G75*
G02*
X127123150Y-122366100I218750J0D01*
G01*
X127635650Y-122366100D01*
G75*
G02*
X127854400Y-122584850I0J-218750D01*
G01*
X127854400Y-123022350D01*
G75*
G02*
X127635650Y-123241100I-218750J0D01*
G01*
G37*
%TD*%
%TO.C,C11*%
G36*
G01*
X105712500Y-110723250D02*
X105712500Y-110210750D01*
G75*
G02*
X105931250Y-109992000I218750J0D01*
G01*
X106368750Y-109992000D01*
G75*
G02*
X106587500Y-110210750I0J-218750D01*
G01*
X106587500Y-110723250D01*
G75*
G02*
X106368750Y-110942000I-218750J0D01*
G01*
X105931250Y-110942000D01*
G75*
G02*
X105712500Y-110723250I0J218750D01*
G01*
G37*
G36*
G01*
X104137500Y-110723250D02*
X104137500Y-110210750D01*
G75*
G02*
X104356250Y-109992000I218750J0D01*
G01*
X104793750Y-109992000D01*
G75*
G02*
X105012500Y-110210750I0J-218750D01*
G01*
X105012500Y-110723250D01*
G75*
G02*
X104793750Y-110942000I-218750J0D01*
G01*
X104356250Y-110942000D01*
G75*
G02*
X104137500Y-110723250I0J218750D01*
G01*
G37*
%TD*%
%TO.C,C12*%
G36*
G01*
X105712500Y-112251250D02*
X105712500Y-111738750D01*
G75*
G02*
X105931250Y-111520000I218750J0D01*
G01*
X106368750Y-111520000D01*
G75*
G02*
X106587500Y-111738750I0J-218750D01*
G01*
X106587500Y-112251250D01*
G75*
G02*
X106368750Y-112470000I-218750J0D01*
G01*
X105931250Y-112470000D01*
G75*
G02*
X105712500Y-112251250I0J218750D01*
G01*
G37*
G36*
G01*
X104137500Y-112251250D02*
X104137500Y-111738750D01*
G75*
G02*
X104356250Y-111520000I218750J0D01*
G01*
X104793750Y-111520000D01*
G75*
G02*
X105012500Y-111738750I0J-218750D01*
G01*
X105012500Y-112251250D01*
G75*
G02*
X104793750Y-112470000I-218750J0D01*
G01*
X104356250Y-112470000D01*
G75*
G02*
X104137500Y-112251250I0J218750D01*
G01*
G37*
%TD*%
D10*
%TO.C,D1*%
X129032000Y-111570000D03*
X129032000Y-115570000D03*
%TD*%
D11*
%TO.C,J1*%
X142875000Y-101050000D03*
X142875000Y-100400000D03*
X142875000Y-99750000D03*
X142875000Y-98450000D03*
X142875000Y-99100000D03*
D12*
X145550000Y-99750000D03*
D13*
X145550000Y-96250000D03*
X145550000Y-103250000D03*
%TD*%
D14*
%TO.C,L1*%
X119711000Y-115570000D03*
X126111000Y-115570000D03*
%TD*%
%TO.C,LED1*%
G36*
G01*
X112157500Y-105956750D02*
X112157500Y-106869250D01*
G75*
G02*
X111913750Y-107113000I-243750J0D01*
G01*
X111426250Y-107113000D01*
G75*
G02*
X111182500Y-106869250I0J243750D01*
G01*
X111182500Y-105956750D01*
G75*
G02*
X111426250Y-105713000I243750J0D01*
G01*
X111913750Y-105713000D01*
G75*
G02*
X112157500Y-105956750I0J-243750D01*
G01*
G37*
G36*
G01*
X114032500Y-105956750D02*
X114032500Y-106869250D01*
G75*
G02*
X113788750Y-107113000I-243750J0D01*
G01*
X113301250Y-107113000D01*
G75*
G02*
X113057500Y-106869250I0J243750D01*
G01*
X113057500Y-105956750D01*
G75*
G02*
X113301250Y-105713000I243750J0D01*
G01*
X113788750Y-105713000D01*
G75*
G02*
X114032500Y-105956750I0J-243750D01*
G01*
G37*
%TD*%
%TO.C,LED2*%
G36*
G01*
X112127500Y-103896750D02*
X112127500Y-104809250D01*
G75*
G02*
X111883750Y-105053000I-243750J0D01*
G01*
X111396250Y-105053000D01*
G75*
G02*
X111152500Y-104809250I0J243750D01*
G01*
X111152500Y-103896750D01*
G75*
G02*
X111396250Y-103653000I243750J0D01*
G01*
X111883750Y-103653000D01*
G75*
G02*
X112127500Y-103896750I0J-243750D01*
G01*
G37*
G36*
G01*
X114002500Y-103896750D02*
X114002500Y-104809250D01*
G75*
G02*
X113758750Y-105053000I-243750J0D01*
G01*
X113271250Y-105053000D01*
G75*
G02*
X113027500Y-104809250I0J243750D01*
G01*
X113027500Y-103896750D01*
G75*
G02*
X113271250Y-103653000I243750J0D01*
G01*
X113758750Y-103653000D01*
G75*
G02*
X114002500Y-103896750I0J-243750D01*
G01*
G37*
%TD*%
%TO.C,LED3*%
G36*
G01*
X112127500Y-101756750D02*
X112127500Y-102669250D01*
G75*
G02*
X111883750Y-102913000I-243750J0D01*
G01*
X111396250Y-102913000D01*
G75*
G02*
X111152500Y-102669250I0J243750D01*
G01*
X111152500Y-101756750D01*
G75*
G02*
X111396250Y-101513000I243750J0D01*
G01*
X111883750Y-101513000D01*
G75*
G02*
X112127500Y-101756750I0J-243750D01*
G01*
G37*
G36*
G01*
X114002500Y-101756750D02*
X114002500Y-102669250D01*
G75*
G02*
X113758750Y-102913000I-243750J0D01*
G01*
X113271250Y-102913000D01*
G75*
G02*
X113027500Y-102669250I0J243750D01*
G01*
X113027500Y-101756750D01*
G75*
G02*
X113271250Y-101513000I243750J0D01*
G01*
X113758750Y-101513000D01*
G75*
G02*
X114002500Y-101756750I0J-243750D01*
G01*
G37*
%TD*%
%TO.C,LED_3V31*%
G36*
G01*
X114025700Y-111363750D02*
X114025700Y-112276250D01*
G75*
G02*
X113781950Y-112520000I-243750J0D01*
G01*
X113294450Y-112520000D01*
G75*
G02*
X113050700Y-112276250I0J243750D01*
G01*
X113050700Y-111363750D01*
G75*
G02*
X113294450Y-111120000I243750J0D01*
G01*
X113781950Y-111120000D01*
G75*
G02*
X114025700Y-111363750I0J-243750D01*
G01*
G37*
G36*
G01*
X115900700Y-111363750D02*
X115900700Y-112276250D01*
G75*
G02*
X115656950Y-112520000I-243750J0D01*
G01*
X115169450Y-112520000D01*
G75*
G02*
X114925700Y-112276250I0J243750D01*
G01*
X114925700Y-111363750D01*
G75*
G02*
X115169450Y-111120000I243750J0D01*
G01*
X115656950Y-111120000D01*
G75*
G02*
X115900700Y-111363750I0J-243750D01*
G01*
G37*
%TD*%
%TO.C,LED_5V1*%
G36*
G01*
X142421150Y-108664300D02*
X143333650Y-108664300D01*
G75*
G02*
X143577400Y-108908050I0J-243750D01*
G01*
X143577400Y-109395550D01*
G75*
G02*
X143333650Y-109639300I-243750J0D01*
G01*
X142421150Y-109639300D01*
G75*
G02*
X142177400Y-109395550I0J243750D01*
G01*
X142177400Y-108908050D01*
G75*
G02*
X142421150Y-108664300I243750J0D01*
G01*
G37*
G36*
G01*
X142421150Y-106789300D02*
X143333650Y-106789300D01*
G75*
G02*
X143577400Y-107033050I0J-243750D01*
G01*
X143577400Y-107520550D01*
G75*
G02*
X143333650Y-107764300I-243750J0D01*
G01*
X142421150Y-107764300D01*
G75*
G02*
X142177400Y-107520550I0J243750D01*
G01*
X142177400Y-107033050D01*
G75*
G02*
X142421150Y-106789300I243750J0D01*
G01*
G37*
%TD*%
%TO.C,LED_RX1*%
G36*
G01*
X113072700Y-100311850D02*
X113072700Y-99399350D01*
G75*
G02*
X113316450Y-99155600I243750J0D01*
G01*
X113803950Y-99155600D01*
G75*
G02*
X114047700Y-99399350I0J-243750D01*
G01*
X114047700Y-100311850D01*
G75*
G02*
X113803950Y-100555600I-243750J0D01*
G01*
X113316450Y-100555600D01*
G75*
G02*
X113072700Y-100311850I0J243750D01*
G01*
G37*
G36*
G01*
X111197700Y-100311850D02*
X111197700Y-99399350D01*
G75*
G02*
X111441450Y-99155600I243750J0D01*
G01*
X111928950Y-99155600D01*
G75*
G02*
X112172700Y-99399350I0J-243750D01*
G01*
X112172700Y-100311850D01*
G75*
G02*
X111928950Y-100555600I-243750J0D01*
G01*
X111441450Y-100555600D01*
G75*
G02*
X111197700Y-100311850I0J243750D01*
G01*
G37*
%TD*%
%TO.C,LED_TX1*%
G36*
G01*
X113097700Y-97911850D02*
X113097700Y-96999350D01*
G75*
G02*
X113341450Y-96755600I243750J0D01*
G01*
X113828950Y-96755600D01*
G75*
G02*
X114072700Y-96999350I0J-243750D01*
G01*
X114072700Y-97911850D01*
G75*
G02*
X113828950Y-98155600I-243750J0D01*
G01*
X113341450Y-98155600D01*
G75*
G02*
X113097700Y-97911850I0J243750D01*
G01*
G37*
G36*
G01*
X111222700Y-97911850D02*
X111222700Y-96999350D01*
G75*
G02*
X111466450Y-96755600I243750J0D01*
G01*
X111953950Y-96755600D01*
G75*
G02*
X112197700Y-96999350I0J-243750D01*
G01*
X112197700Y-97911850D01*
G75*
G02*
X111953950Y-98155600I-243750J0D01*
G01*
X111466450Y-98155600D01*
G75*
G02*
X111222700Y-97911850I0J243750D01*
G01*
G37*
%TD*%
%TO.C,R1*%
G36*
G01*
X137867300Y-100355400D02*
X137522300Y-100355400D01*
G75*
G02*
X137374800Y-100207900I0J147500D01*
G01*
X137374800Y-99912900D01*
G75*
G02*
X137522300Y-99765400I147500J0D01*
G01*
X137867300Y-99765400D01*
G75*
G02*
X138014800Y-99912900I0J-147500D01*
G01*
X138014800Y-100207900D01*
G75*
G02*
X137867300Y-100355400I-147500J0D01*
G01*
G37*
G36*
G01*
X137867300Y-101325400D02*
X137522300Y-101325400D01*
G75*
G02*
X137374800Y-101177900I0J147500D01*
G01*
X137374800Y-100882900D01*
G75*
G02*
X137522300Y-100735400I147500J0D01*
G01*
X137867300Y-100735400D01*
G75*
G02*
X138014800Y-100882900I0J-147500D01*
G01*
X138014800Y-101177900D01*
G75*
G02*
X137867300Y-101325400I-147500J0D01*
G01*
G37*
%TD*%
%TO.C,R2*%
G36*
G01*
X137867300Y-102340400D02*
X137522300Y-102340400D01*
G75*
G02*
X137374800Y-102192900I0J147500D01*
G01*
X137374800Y-101897900D01*
G75*
G02*
X137522300Y-101750400I147500J0D01*
G01*
X137867300Y-101750400D01*
G75*
G02*
X138014800Y-101897900I0J-147500D01*
G01*
X138014800Y-102192900D01*
G75*
G02*
X137867300Y-102340400I-147500J0D01*
G01*
G37*
G36*
G01*
X137867300Y-103310400D02*
X137522300Y-103310400D01*
G75*
G02*
X137374800Y-103162900I0J147500D01*
G01*
X137374800Y-102867900D01*
G75*
G02*
X137522300Y-102720400I147500J0D01*
G01*
X137867300Y-102720400D01*
G75*
G02*
X138014800Y-102867900I0J-147500D01*
G01*
X138014800Y-103162900D01*
G75*
G02*
X137867300Y-103310400I-147500J0D01*
G01*
G37*
%TD*%
%TO.C,R3*%
G36*
G01*
X125737500Y-103456250D02*
X125737500Y-102543750D01*
G75*
G02*
X125981250Y-102300000I243750J0D01*
G01*
X126468750Y-102300000D01*
G75*
G02*
X126712500Y-102543750I0J-243750D01*
G01*
X126712500Y-103456250D01*
G75*
G02*
X126468750Y-103700000I-243750J0D01*
G01*
X125981250Y-103700000D01*
G75*
G02*
X125737500Y-103456250I0J243750D01*
G01*
G37*
G36*
G01*
X123862500Y-103456250D02*
X123862500Y-102543750D01*
G75*
G02*
X124106250Y-102300000I243750J0D01*
G01*
X124593750Y-102300000D01*
G75*
G02*
X124837500Y-102543750I0J-243750D01*
G01*
X124837500Y-103456250D01*
G75*
G02*
X124593750Y-103700000I-243750J0D01*
G01*
X124106250Y-103700000D01*
G75*
G02*
X123862500Y-103456250I0J243750D01*
G01*
G37*
%TD*%
%TO.C,R4*%
G36*
G01*
X125737500Y-106056250D02*
X125737500Y-105143750D01*
G75*
G02*
X125981250Y-104900000I243750J0D01*
G01*
X126468750Y-104900000D01*
G75*
G02*
X126712500Y-105143750I0J-243750D01*
G01*
X126712500Y-106056250D01*
G75*
G02*
X126468750Y-106300000I-243750J0D01*
G01*
X125981250Y-106300000D01*
G75*
G02*
X125737500Y-106056250I0J243750D01*
G01*
G37*
G36*
G01*
X123862500Y-106056250D02*
X123862500Y-105143750D01*
G75*
G02*
X124106250Y-104900000I243750J0D01*
G01*
X124593750Y-104900000D01*
G75*
G02*
X124837500Y-105143750I0J-243750D01*
G01*
X124837500Y-106056250D01*
G75*
G02*
X124593750Y-106300000I-243750J0D01*
G01*
X124106250Y-106300000D01*
G75*
G02*
X123862500Y-106056250I0J243750D01*
G01*
G37*
%TD*%
%TO.C,R5*%
G36*
G01*
X115697700Y-96999350D02*
X115697700Y-97911850D01*
G75*
G02*
X115453950Y-98155600I-243750J0D01*
G01*
X114966450Y-98155600D01*
G75*
G02*
X114722700Y-97911850I0J243750D01*
G01*
X114722700Y-96999350D01*
G75*
G02*
X114966450Y-96755600I243750J0D01*
G01*
X115453950Y-96755600D01*
G75*
G02*
X115697700Y-96999350I0J-243750D01*
G01*
G37*
G36*
G01*
X117572700Y-96999350D02*
X117572700Y-97911850D01*
G75*
G02*
X117328950Y-98155600I-243750J0D01*
G01*
X116841450Y-98155600D01*
G75*
G02*
X116597700Y-97911850I0J243750D01*
G01*
X116597700Y-96999350D01*
G75*
G02*
X116841450Y-96755600I243750J0D01*
G01*
X117328950Y-96755600D01*
G75*
G02*
X117572700Y-96999350I0J-243750D01*
G01*
G37*
%TD*%
%TO.C,R6*%
G36*
G01*
X115672700Y-99399350D02*
X115672700Y-100311850D01*
G75*
G02*
X115428950Y-100555600I-243750J0D01*
G01*
X114941450Y-100555600D01*
G75*
G02*
X114697700Y-100311850I0J243750D01*
G01*
X114697700Y-99399350D01*
G75*
G02*
X114941450Y-99155600I243750J0D01*
G01*
X115428950Y-99155600D01*
G75*
G02*
X115672700Y-99399350I0J-243750D01*
G01*
G37*
G36*
G01*
X117547700Y-99399350D02*
X117547700Y-100311850D01*
G75*
G02*
X117303950Y-100555600I-243750J0D01*
G01*
X116816450Y-100555600D01*
G75*
G02*
X116572700Y-100311850I0J243750D01*
G01*
X116572700Y-99399350D01*
G75*
G02*
X116816450Y-99155600I243750J0D01*
G01*
X117303950Y-99155600D01*
G75*
G02*
X117547700Y-99399350I0J-243750D01*
G01*
G37*
%TD*%
%TO.C,R7*%
G36*
G01*
X116532500Y-106869250D02*
X116532500Y-105956750D01*
G75*
G02*
X116776250Y-105713000I243750J0D01*
G01*
X117263750Y-105713000D01*
G75*
G02*
X117507500Y-105956750I0J-243750D01*
G01*
X117507500Y-106869250D01*
G75*
G02*
X117263750Y-107113000I-243750J0D01*
G01*
X116776250Y-107113000D01*
G75*
G02*
X116532500Y-106869250I0J243750D01*
G01*
G37*
G36*
G01*
X114657500Y-106869250D02*
X114657500Y-105956750D01*
G75*
G02*
X114901250Y-105713000I243750J0D01*
G01*
X115388750Y-105713000D01*
G75*
G02*
X115632500Y-105956750I0J-243750D01*
G01*
X115632500Y-106869250D01*
G75*
G02*
X115388750Y-107113000I-243750J0D01*
G01*
X114901250Y-107113000D01*
G75*
G02*
X114657500Y-106869250I0J243750D01*
G01*
G37*
%TD*%
%TO.C,R8*%
G36*
G01*
X129451400Y-122722100D02*
X129451400Y-122377100D01*
G75*
G02*
X129598900Y-122229600I147500J0D01*
G01*
X129893900Y-122229600D01*
G75*
G02*
X130041400Y-122377100I0J-147500D01*
G01*
X130041400Y-122722100D01*
G75*
G02*
X129893900Y-122869600I-147500J0D01*
G01*
X129598900Y-122869600D01*
G75*
G02*
X129451400Y-122722100I0J147500D01*
G01*
G37*
G36*
G01*
X128481400Y-122722100D02*
X128481400Y-122377100D01*
G75*
G02*
X128628900Y-122229600I147500J0D01*
G01*
X128923900Y-122229600D01*
G75*
G02*
X129071400Y-122377100I0J-147500D01*
G01*
X129071400Y-122722100D01*
G75*
G02*
X128923900Y-122869600I-147500J0D01*
G01*
X128628900Y-122869600D01*
G75*
G02*
X128481400Y-122722100I0J147500D01*
G01*
G37*
%TD*%
%TO.C,R9*%
G36*
G01*
X129071400Y-121234100D02*
X129071400Y-121579100D01*
G75*
G02*
X128923900Y-121726600I-147500J0D01*
G01*
X128628900Y-121726600D01*
G75*
G02*
X128481400Y-121579100I0J147500D01*
G01*
X128481400Y-121234100D01*
G75*
G02*
X128628900Y-121086600I147500J0D01*
G01*
X128923900Y-121086600D01*
G75*
G02*
X129071400Y-121234100I0J-147500D01*
G01*
G37*
G36*
G01*
X130041400Y-121234100D02*
X130041400Y-121579100D01*
G75*
G02*
X129893900Y-121726600I-147500J0D01*
G01*
X129598900Y-121726600D01*
G75*
G02*
X129451400Y-121579100I0J147500D01*
G01*
X129451400Y-121234100D01*
G75*
G02*
X129598900Y-121086600I147500J0D01*
G01*
X129893900Y-121086600D01*
G75*
G02*
X130041400Y-121234100I0J-147500D01*
G01*
G37*
%TD*%
%TO.C,R10*%
G36*
G01*
X127949000Y-119760900D02*
X127949000Y-120105900D01*
G75*
G02*
X127801500Y-120253400I-147500J0D01*
G01*
X127506500Y-120253400D01*
G75*
G02*
X127359000Y-120105900I0J147500D01*
G01*
X127359000Y-119760900D01*
G75*
G02*
X127506500Y-119613400I147500J0D01*
G01*
X127801500Y-119613400D01*
G75*
G02*
X127949000Y-119760900I0J-147500D01*
G01*
G37*
G36*
G01*
X128919000Y-119760900D02*
X128919000Y-120105900D01*
G75*
G02*
X128771500Y-120253400I-147500J0D01*
G01*
X128476500Y-120253400D01*
G75*
G02*
X128329000Y-120105900I0J147500D01*
G01*
X128329000Y-119760900D01*
G75*
G02*
X128476500Y-119613400I147500J0D01*
G01*
X128771500Y-119613400D01*
G75*
G02*
X128919000Y-119760900I0J-147500D01*
G01*
G37*
%TD*%
%TO.C,R11*%
G36*
G01*
X116502500Y-104809250D02*
X116502500Y-103896750D01*
G75*
G02*
X116746250Y-103653000I243750J0D01*
G01*
X117233750Y-103653000D01*
G75*
G02*
X117477500Y-103896750I0J-243750D01*
G01*
X117477500Y-104809250D01*
G75*
G02*
X117233750Y-105053000I-243750J0D01*
G01*
X116746250Y-105053000D01*
G75*
G02*
X116502500Y-104809250I0J243750D01*
G01*
G37*
G36*
G01*
X114627500Y-104809250D02*
X114627500Y-103896750D01*
G75*
G02*
X114871250Y-103653000I243750J0D01*
G01*
X115358750Y-103653000D01*
G75*
G02*
X115602500Y-103896750I0J-243750D01*
G01*
X115602500Y-104809250D01*
G75*
G02*
X115358750Y-105053000I-243750J0D01*
G01*
X114871250Y-105053000D01*
G75*
G02*
X114627500Y-104809250I0J243750D01*
G01*
G37*
%TD*%
%TO.C,R12*%
G36*
G01*
X100650000Y-110567500D02*
X100650000Y-110222500D01*
G75*
G02*
X100797500Y-110075000I147500J0D01*
G01*
X101092500Y-110075000D01*
G75*
G02*
X101240000Y-110222500I0J-147500D01*
G01*
X101240000Y-110567500D01*
G75*
G02*
X101092500Y-110715000I-147500J0D01*
G01*
X100797500Y-110715000D01*
G75*
G02*
X100650000Y-110567500I0J147500D01*
G01*
G37*
G36*
G01*
X99680000Y-110567500D02*
X99680000Y-110222500D01*
G75*
G02*
X99827500Y-110075000I147500J0D01*
G01*
X100122500Y-110075000D01*
G75*
G02*
X100270000Y-110222500I0J-147500D01*
G01*
X100270000Y-110567500D01*
G75*
G02*
X100122500Y-110715000I-147500J0D01*
G01*
X99827500Y-110715000D01*
G75*
G02*
X99680000Y-110567500I0J147500D01*
G01*
G37*
%TD*%
%TO.C,R13*%
G36*
G01*
X116502500Y-102669250D02*
X116502500Y-101756750D01*
G75*
G02*
X116746250Y-101513000I243750J0D01*
G01*
X117233750Y-101513000D01*
G75*
G02*
X117477500Y-101756750I0J-243750D01*
G01*
X117477500Y-102669250D01*
G75*
G02*
X117233750Y-102913000I-243750J0D01*
G01*
X116746250Y-102913000D01*
G75*
G02*
X116502500Y-102669250I0J243750D01*
G01*
G37*
G36*
G01*
X114627500Y-102669250D02*
X114627500Y-101756750D01*
G75*
G02*
X114871250Y-101513000I243750J0D01*
G01*
X115358750Y-101513000D01*
G75*
G02*
X115602500Y-101756750I0J-243750D01*
G01*
X115602500Y-102669250D01*
G75*
G02*
X115358750Y-102913000I-243750J0D01*
G01*
X114871250Y-102913000D01*
G75*
G02*
X114627500Y-102669250I0J243750D01*
G01*
G37*
%TD*%
%TO.C,R16*%
G36*
G01*
X113999500Y-109332350D02*
X113999500Y-110244850D01*
G75*
G02*
X113755750Y-110488600I-243750J0D01*
G01*
X113268250Y-110488600D01*
G75*
G02*
X113024500Y-110244850I0J243750D01*
G01*
X113024500Y-109332350D01*
G75*
G02*
X113268250Y-109088600I243750J0D01*
G01*
X113755750Y-109088600D01*
G75*
G02*
X113999500Y-109332350I0J-243750D01*
G01*
G37*
G36*
G01*
X115874500Y-109332350D02*
X115874500Y-110244850D01*
G75*
G02*
X115630750Y-110488600I-243750J0D01*
G01*
X115143250Y-110488600D01*
G75*
G02*
X114899500Y-110244850I0J243750D01*
G01*
X114899500Y-109332350D01*
G75*
G02*
X115143250Y-109088600I243750J0D01*
G01*
X115630750Y-109088600D01*
G75*
G02*
X115874500Y-109332350I0J-243750D01*
G01*
G37*
%TD*%
%TO.C,R17*%
G36*
G01*
X144521150Y-108664300D02*
X145433650Y-108664300D01*
G75*
G02*
X145677400Y-108908050I0J-243750D01*
G01*
X145677400Y-109395550D01*
G75*
G02*
X145433650Y-109639300I-243750J0D01*
G01*
X144521150Y-109639300D01*
G75*
G02*
X144277400Y-109395550I0J243750D01*
G01*
X144277400Y-108908050D01*
G75*
G02*
X144521150Y-108664300I243750J0D01*
G01*
G37*
G36*
G01*
X144521150Y-106789300D02*
X145433650Y-106789300D01*
G75*
G02*
X145677400Y-107033050I0J-243750D01*
G01*
X145677400Y-107520550D01*
G75*
G02*
X145433650Y-107764300I-243750J0D01*
G01*
X144521150Y-107764300D01*
G75*
G02*
X144277400Y-107520550I0J243750D01*
G01*
X144277400Y-107033050D01*
G75*
G02*
X144521150Y-106789300I243750J0D01*
G01*
G37*
%TD*%
%TO.C,U1*%
G36*
G01*
X136629000Y-114914000D02*
X136929000Y-114914000D01*
G75*
G02*
X137079000Y-115064000I0J-150000D01*
G01*
X137079000Y-116364000D01*
G75*
G02*
X136929000Y-116514000I-150000J0D01*
G01*
X136629000Y-116514000D01*
G75*
G02*
X136479000Y-116364000I0J150000D01*
G01*
X136479000Y-115064000D01*
G75*
G02*
X136629000Y-114914000I150000J0D01*
G01*
G37*
G36*
G01*
X135359000Y-114914000D02*
X135659000Y-114914000D01*
G75*
G02*
X135809000Y-115064000I0J-150000D01*
G01*
X135809000Y-116364000D01*
G75*
G02*
X135659000Y-116514000I-150000J0D01*
G01*
X135359000Y-116514000D01*
G75*
G02*
X135209000Y-116364000I0J150000D01*
G01*
X135209000Y-115064000D01*
G75*
G02*
X135359000Y-114914000I150000J0D01*
G01*
G37*
G36*
G01*
X134089000Y-114914000D02*
X134389000Y-114914000D01*
G75*
G02*
X134539000Y-115064000I0J-150000D01*
G01*
X134539000Y-116364000D01*
G75*
G02*
X134389000Y-116514000I-150000J0D01*
G01*
X134089000Y-116514000D01*
G75*
G02*
X133939000Y-116364000I0J150000D01*
G01*
X133939000Y-115064000D01*
G75*
G02*
X134089000Y-114914000I150000J0D01*
G01*
G37*
G36*
G01*
X132819000Y-114914000D02*
X133119000Y-114914000D01*
G75*
G02*
X133269000Y-115064000I0J-150000D01*
G01*
X133269000Y-116364000D01*
G75*
G02*
X133119000Y-116514000I-150000J0D01*
G01*
X132819000Y-116514000D01*
G75*
G02*
X132669000Y-116364000I0J150000D01*
G01*
X132669000Y-115064000D01*
G75*
G02*
X132819000Y-114914000I150000J0D01*
G01*
G37*
G36*
G01*
X132819000Y-120214000D02*
X133119000Y-120214000D01*
G75*
G02*
X133269000Y-120364000I0J-150000D01*
G01*
X133269000Y-121664000D01*
G75*
G02*
X133119000Y-121814000I-150000J0D01*
G01*
X132819000Y-121814000D01*
G75*
G02*
X132669000Y-121664000I0J150000D01*
G01*
X132669000Y-120364000D01*
G75*
G02*
X132819000Y-120214000I150000J0D01*
G01*
G37*
G36*
G01*
X134089000Y-120214000D02*
X134389000Y-120214000D01*
G75*
G02*
X134539000Y-120364000I0J-150000D01*
G01*
X134539000Y-121664000D01*
G75*
G02*
X134389000Y-121814000I-150000J0D01*
G01*
X134089000Y-121814000D01*
G75*
G02*
X133939000Y-121664000I0J150000D01*
G01*
X133939000Y-120364000D01*
G75*
G02*
X134089000Y-120214000I150000J0D01*
G01*
G37*
G36*
G01*
X135359000Y-120214000D02*
X135659000Y-120214000D01*
G75*
G02*
X135809000Y-120364000I0J-150000D01*
G01*
X135809000Y-121664000D01*
G75*
G02*
X135659000Y-121814000I-150000J0D01*
G01*
X135359000Y-121814000D01*
G75*
G02*
X135209000Y-121664000I0J150000D01*
G01*
X135209000Y-120364000D01*
G75*
G02*
X135359000Y-120214000I150000J0D01*
G01*
G37*
G36*
G01*
X136629000Y-120214000D02*
X136929000Y-120214000D01*
G75*
G02*
X137079000Y-120364000I0J-150000D01*
G01*
X137079000Y-121664000D01*
G75*
G02*
X136929000Y-121814000I-150000J0D01*
G01*
X136629000Y-121814000D01*
G75*
G02*
X136479000Y-121664000I0J150000D01*
G01*
X136479000Y-120364000D01*
G75*
G02*
X136629000Y-120214000I150000J0D01*
G01*
G37*
G36*
G01*
X135266500Y-117279000D02*
X136031500Y-117279000D01*
G75*
G02*
X136274000Y-117521500I0J-242500D01*
G01*
X136274000Y-118006500D01*
G75*
G02*
X136031500Y-118249000I-242500J0D01*
G01*
X135266500Y-118249000D01*
G75*
G02*
X135024000Y-118006500I0J242500D01*
G01*
X135024000Y-117521500D01*
G75*
G02*
X135266500Y-117279000I242500J0D01*
G01*
G37*
G36*
G01*
X133716500Y-117279000D02*
X134481500Y-117279000D01*
G75*
G02*
X134724000Y-117521500I0J-242500D01*
G01*
X134724000Y-118006500D01*
G75*
G02*
X134481500Y-118249000I-242500J0D01*
G01*
X133716500Y-118249000D01*
G75*
G02*
X133474000Y-118006500I0J242500D01*
G01*
X133474000Y-117521500D01*
G75*
G02*
X133716500Y-117279000I242500J0D01*
G01*
G37*
G36*
G01*
X135266500Y-118479000D02*
X136031500Y-118479000D01*
G75*
G02*
X136274000Y-118721500I0J-242500D01*
G01*
X136274000Y-119206500D01*
G75*
G02*
X136031500Y-119449000I-242500J0D01*
G01*
X135266500Y-119449000D01*
G75*
G02*
X135024000Y-119206500I0J242500D01*
G01*
X135024000Y-118721500D01*
G75*
G02*
X135266500Y-118479000I242500J0D01*
G01*
G37*
G36*
G01*
X133716500Y-118479000D02*
X134481500Y-118479000D01*
G75*
G02*
X134724000Y-118721500I0J-242500D01*
G01*
X134724000Y-119206500D01*
G75*
G02*
X134481500Y-119449000I-242500J0D01*
G01*
X133716500Y-119449000D01*
G75*
G02*
X133474000Y-119206500I0J242500D01*
G01*
X133474000Y-118721500D01*
G75*
G02*
X133716500Y-118479000I242500J0D01*
G01*
G37*
%TD*%
D15*
%TO.C,U3*%
X125600000Y-100500000D03*
X126250000Y-100500000D03*
X126900000Y-100500000D03*
X127550000Y-100500000D03*
X128200000Y-100500000D03*
X128850000Y-100500000D03*
X129500000Y-100500000D03*
X130150000Y-100500000D03*
X130800000Y-100500000D03*
X131450000Y-100500000D03*
X132100000Y-100500000D03*
X132750000Y-100500000D03*
X133400000Y-100500000D03*
X134050000Y-100500000D03*
X134050000Y-93300000D03*
X133400000Y-93300000D03*
X132750000Y-93300000D03*
X132100000Y-93300000D03*
X131450000Y-93300000D03*
X130800000Y-93300000D03*
X130150000Y-93300000D03*
X129500000Y-93300000D03*
X128850000Y-93300000D03*
X128200000Y-93300000D03*
X127550000Y-93300000D03*
X126900000Y-93300000D03*
X126250000Y-93300000D03*
X125600000Y-93300000D03*
%TD*%
D16*
%TO.C,U4*%
X136567820Y-96857860D03*
X136567820Y-97807860D03*
X136567820Y-95907860D03*
X138767820Y-95907860D03*
X138767820Y-96857860D03*
X138767820Y-97807860D03*
%TD*%
D17*
%TO.C,Y1*%
X98075000Y-111995000D03*
X100275000Y-111995000D03*
X100275000Y-113695000D03*
X98075000Y-113695000D03*
%TD*%
M02*
