M48
; DRILL file {KiCad 5.1.6} date Tue Apr  6 07:59:17 2021
; FORMAT={-:-/ absolute / inch / decimal}
; #@! TF.CreationDate,2021-04-06T07:59:17+02:00
; #@! TF.GenerationSoftware,Kicad,Pcbnew,5.1.6
; #@! TF.FileFunction,Plated,1,4,PTH
FMAT,2
INCH
T1C0.0118
T2C0.0157
T3C0.0197
T4C0.0236
T5C0.0256
T6C0.0315
T7C0.0394
T8C0.0787
T9C0.1378
%
G90
G05
T1
X4.9961Y-3.7283
X5.0228Y-3.7291
X5.1055Y-4.7102
X5.2843Y-4.5079
X5.5702Y-4.0013
X5.578Y-3.958
X5.6713Y-3.956
X5.672Y-3.891
X5.672Y-3.915
T2
X3.7846Y-3.6583
X3.8256Y-3.7579
X3.8256Y-3.8559
X3.89Y-4.16
X3.9083Y-4.0043
X3.95Y-4.22
X3.9575Y-4.0043
X3.97Y-4.12
X3.9854Y-4.2268
X4.02Y-4.22
X4.0587Y-4.463
X4.0722Y-4.061
X4.0984Y-4.0217
X4.1157Y-4.1925
X4.1756Y-4.2539
X4.187Y-4.3108
X4.2136Y-4.4319
X4.2146Y-4.3315
X4.2146Y-4.365
X4.2146Y-4.3984
X5.4188Y-3.813
X5.421Y-3.902
X5.503Y-3.8139
X5.555Y-3.977
X5.664Y-3.808
X5.664Y-3.808
X5.664Y-3.808
X5.664Y-3.808
X5.664Y-3.808
X5.672Y-4.0
X5.6732Y-3.8386
T3
X3.7809Y-3.9569
X3.8281Y-4.3469
X3.8661Y-4.3469
X3.9481Y-4.5429
X3.9851Y-4.5419
X4.1053Y-4.4545
X4.126Y-4.485
X4.1417Y-4.4516
X4.352Y-3.8358
X4.352Y-3.9303
X4.4533Y-4.453
X4.469Y-4.2719
X4.624Y-4.533
X4.624Y-4.572
X4.6533Y-4.0248
X4.6533Y-4.1088
X4.6554Y-4.1894
X4.659Y-4.507
X4.659Y-4.552
X4.66Y-4.59
X4.766Y-4.51
X4.767Y-4.552
X4.767Y-4.591
X4.801Y-4.532
X4.802Y-4.571
X4.924Y-3.566
X4.924Y-3.603
X4.9567Y-3.502
X4.961Y-3.566
X4.961Y-3.603
X4.9749Y-4.8338
X4.9882Y-3.4807
X4.9909Y-4.7228
X5.021Y-3.864
X5.021Y-3.9
X5.023Y-4.348
X5.0259Y-4.6858
X5.0315Y-3.4748
X5.051Y-4.321
X5.053Y-3.882
X5.089Y-4.321
X5.098Y-4.018
X5.1083Y-3.4756
X5.126Y-4.321
X5.143Y-3.735
X5.1878Y-3.4756
X5.199Y-4.823
X5.202Y-4.554
X5.21Y-3.734
X5.235Y-4.823
X5.2677Y-3.4803
X5.272Y-4.824
X5.2823Y-3.5217
X5.309Y-4.824
X5.346Y-4.824
X5.383Y-4.824
X5.42Y-4.823
X5.4213Y-4.0906
X5.444Y-4.671
X5.481Y-4.669
X5.508Y-4.644
X5.6258Y-4.3372
X5.7068Y-4.3372
X5.4872Y-4.9094
X5.5175Y-4.8364
X5.5175Y-4.9825
X5.5906Y-4.8061
X5.5906Y-5.0128
X5.6636Y-4.8364
X5.6636Y-4.9825
X5.6939Y-4.9094
X3.5187Y-4.9094
X3.549Y-4.8364
X3.549Y-4.9825
X3.622Y-4.8061
X3.622Y-5.0128
X3.6951Y-4.8364
X3.6951Y-4.9825
X3.7254Y-4.9094
X5.4872Y-3.5315
X5.5175Y-3.4584
X5.5175Y-3.6046
X5.5906Y-3.4281
X5.5906Y-3.6348
X5.6636Y-3.4584
X5.6636Y-3.6046
X5.6939Y-3.5315
X3.5187Y-3.5315
X3.549Y-3.4584
X3.549Y-3.6046
X3.622Y-3.4281
X3.622Y-3.6348
X3.6951Y-3.4584
X3.6951Y-3.6046
X3.7254Y-3.5315
T6
X5.25Y-4.34
X5.3878Y-4.34
X4.501Y-4.687
X4.501Y-4.8248
T7
X4.7913Y-4.0571
X4.7913Y-4.1571
X3.8909Y-3.5307
X3.9909Y-3.5307
X4.0909Y-3.5307
X4.1909Y-3.5307
X4.2909Y-3.5307
X4.3909Y-3.5307
X4.4909Y-3.5307
X4.5909Y-3.5307
X4.6909Y-3.5307
X4.7909Y-3.5307
X3.6705Y-4.0571
X3.6705Y-4.1571
X3.6705Y-4.2571
X3.6705Y-4.3571
X3.6705Y-3.7571
X3.6705Y-3.8571
T8
X4.7512Y-4.9091
X5.6457Y-4.6339
T9
X5.5906Y-4.9094
X3.622Y-4.9094
X5.5906Y-3.5315
X3.622Y-3.5315
T4
G00X5.7165Y-3.7628
M15
G01X5.7441Y-3.7628
M16
G05
G00X5.7165Y-4.0915
M15
G01X5.7441Y-4.0915
M16
G05
T5
G00X5.6083Y-3.8396
M15
G01X5.6161Y-3.8396
M16
G05
G00X5.6083Y-4.0148
M15
G01X5.6161Y-4.0148
M16
G05
T0
M30
