%TF.GenerationSoftware,KiCad,Pcbnew,5.1.6*%
%TF.CreationDate,2021-04-06T07:59:24+02:00*%
%TF.ProjectId,teriyaki,74657269-7961-46b6-992e-6b696361645f,rev?*%
%TF.SameCoordinates,Original*%
%TF.FileFunction,Copper,L2,Inr*%
%TF.FilePolarity,Positive*%
%FSLAX46Y46*%
G04 Gerber Fmt 4.6, Leading zero omitted, Abs format (unit mm)*
G04 Created by KiCad (PCBNEW 5.1.6) date 2021-04-06 07:59:24*
%MOMM*%
%LPD*%
G01*
G04 APERTURE LIST*
%TA.AperFunction,ViaPad*%
%ADD10O,1.700000X1.700000*%
%TD*%
%TA.AperFunction,ViaPad*%
%ADD11R,1.700000X1.700000*%
%TD*%
%TA.AperFunction,ViaPad*%
%ADD12C,0.800000*%
%TD*%
%TA.AperFunction,ViaPad*%
%ADD13C,7.000000*%
%TD*%
%TA.AperFunction,ViaPad*%
%ADD14C,1.600000*%
%TD*%
%TA.AperFunction,ViaPad*%
%ADD15R,1.600000X1.600000*%
%TD*%
%TA.AperFunction,ViaPad*%
%ADD16O,1.250000X1.050000*%
%TD*%
%TA.AperFunction,ViaPad*%
%ADD17O,1.900000X1.000000*%
%TD*%
%TA.AperFunction,ViaPad*%
%ADD18C,3.600000*%
%TD*%
%TA.AperFunction,ViaPad*%
%ADD19C,0.900000*%
%TD*%
%TA.AperFunction,ViaPad*%
%ADD20C,0.600000*%
%TD*%
%TA.AperFunction,Conductor*%
%ADD21C,0.254000*%
%TD*%
G04 APERTURE END LIST*
D10*
%TO.N,GPIO_C7*%
%TO.C,J3*%
X98830000Y-89680000D03*
%TO.N,GPIO_C6*%
X101370000Y-89680000D03*
%TO.N,GPIO_C5*%
X103910000Y-89680000D03*
%TO.N,GPIO_C4*%
X106450000Y-89680000D03*
%TO.N,GPIO_C3*%
X108990000Y-89680000D03*
%TO.N,GPIO_C2*%
X111530000Y-89680000D03*
%TO.N,GPIO_C1*%
X114070000Y-89680000D03*
%TO.N,GPIO_B0*%
X116610000Y-89680000D03*
%TO.N,GPIO_B1*%
X119150000Y-89680000D03*
D11*
%TO.N,GPIO_B2*%
X121690000Y-89680000D03*
%TD*%
D10*
%TO.N,I2C_SCL*%
%TO.C,J4*%
X93230000Y-95430000D03*
D11*
%TO.N,I2C_SDA*%
X93230000Y-97970000D03*
%TD*%
D12*
%TO.N,GND*%
%TO.C,H3*%
X93856155Y-122843845D03*
X92000000Y-122075000D03*
X90143845Y-122843845D03*
X89375000Y-124700000D03*
X90143845Y-126556155D03*
X92000000Y-127325000D03*
X93856155Y-126556155D03*
X94625000Y-124700000D03*
D13*
X92000000Y-124700000D03*
%TD*%
D12*
%TO.N,GND*%
%TO.C,H4*%
X143856155Y-87843845D03*
X142000000Y-87075000D03*
X140143845Y-87843845D03*
X139375000Y-89700000D03*
X140143845Y-91556155D03*
X142000000Y-92325000D03*
X143856155Y-91556155D03*
X144625000Y-89700000D03*
D13*
X142000000Y-89700000D03*
%TD*%
D12*
%TO.N,GND*%
%TO.C,H2*%
X93856155Y-87843845D03*
X92000000Y-87075000D03*
X90143845Y-87843845D03*
X89375000Y-89700000D03*
X90143845Y-91556155D03*
X92000000Y-92325000D03*
X93856155Y-91556155D03*
X94625000Y-89700000D03*
D13*
X92000000Y-89700000D03*
%TD*%
D12*
%TO.N,GND*%
%TO.C,H1*%
X143856155Y-122843845D03*
X142000000Y-122075000D03*
X140143845Y-122843845D03*
X139375000Y-124700000D03*
X140143845Y-126556155D03*
X142000000Y-127325000D03*
X143856155Y-126556155D03*
X144625000Y-124700000D03*
D13*
X142000000Y-124700000D03*
%TD*%
D14*
%TO.N,GND*%
%TO.C,C2*%
X133350000Y-110236000D03*
D15*
%TO.N,REG_VIN*%
X136850000Y-110236000D03*
%TD*%
D14*
%TO.N,GND*%
%TO.C,C7*%
X114325400Y-122549800D03*
D15*
%TO.N,+3V3*%
X114325400Y-119049800D03*
%TD*%
D16*
%TO.N,Net-(J1-Pad6)*%
%TO.C,J1*%
X142550000Y-101975000D03*
X142550000Y-97525000D03*
D17*
X145550000Y-103925000D03*
X145550000Y-95575000D03*
%TD*%
D10*
%TO.N,STM8_TX*%
%TO.C,J2*%
X121700000Y-105590000D03*
D11*
%TO.N,STM8_RX*%
X121700000Y-103050000D03*
%TD*%
D10*
%TO.N,STM8_NRST*%
%TO.C,J_SWIM1*%
X93230000Y-110670000D03*
%TO.N,GND*%
X93230000Y-108130000D03*
%TO.N,STM8_SWIM*%
X93230000Y-105590000D03*
D11*
%TO.N,+3V3*%
X93230000Y-103050000D03*
%TD*%
D18*
%TO.N,+3V3*%
%TO.C,TP1*%
X120680000Y-124690000D03*
%TD*%
%TO.N,REG_VIN*%
%TO.C,TP2*%
X143400000Y-117700000D03*
%TD*%
D19*
%TO.N,GND*%
X144952600Y-110164000D03*
D12*
X139776200Y-96873060D03*
X144068800Y-101600000D03*
D20*
X144050002Y-100482400D03*
X141681200Y-100533200D03*
X141483637Y-101633285D03*
D12*
X141097000Y-101015800D03*
D19*
X128295400Y-109753400D03*
X129260600Y-109753400D03*
X130200400Y-109753400D03*
X127584200Y-110439200D03*
X132969000Y-122504200D03*
X133908800Y-122529600D03*
X134848600Y-122529600D03*
X135788400Y-122529600D03*
X136728200Y-122529600D03*
X137668000Y-122504200D03*
X132054600Y-122504200D03*
X139903200Y-117957600D03*
X139217400Y-118592600D03*
X138277600Y-118643400D03*
X132130800Y-115671600D03*
X126769800Y-119958800D03*
X127658800Y-119019000D03*
X97234800Y-110411000D03*
X98200000Y-110411000D03*
X100282800Y-115389400D03*
X101222600Y-115364000D03*
X129489200Y-102057200D03*
X132334000Y-94843600D03*
X130632200Y-94869000D03*
X118192600Y-104363000D03*
X118192600Y-102229600D03*
X118248000Y-106411600D03*
X113513200Y-108506000D03*
X137700000Y-103900000D03*
X110540000Y-97430000D03*
X110540000Y-99830000D03*
X125900000Y-88950000D03*
X126700000Y-88410000D03*
X134170000Y-89450000D03*
X133800000Y-88400000D03*
X131770000Y-88280000D03*
X129750000Y-88280000D03*
X127800000Y-88260000D03*
D20*
X126900000Y-94700000D03*
X127580000Y-94720000D03*
D12*
X107025000Y-112570000D03*
X107050000Y-111720000D03*
X107050000Y-110870000D03*
X107050000Y-110020000D03*
X106350000Y-109495000D03*
X103090000Y-113360000D03*
X101230000Y-107360000D03*
X104540000Y-106490000D03*
X102108000Y-107188000D03*
X100330000Y-107188000D03*
D19*
%TO.N,+3V3*%
X96034800Y-100506400D03*
X113113200Y-113106000D03*
X118338600Y-115620800D03*
X118364000Y-116586000D03*
X121081800Y-115620800D03*
X121081800Y-116611400D03*
X117449600Y-115138200D03*
X117449600Y-116128800D03*
X121970800Y-116103400D03*
X121945400Y-115112800D03*
X121056400Y-114554000D03*
X118338600Y-114477800D03*
X126363400Y-122778200D03*
X105200000Y-113070000D03*
X104275000Y-113145000D03*
X104800000Y-113920000D03*
X127533400Y-98145600D03*
X127533400Y-99060000D03*
X128346200Y-98602800D03*
X126009400Y-90576400D03*
X126009400Y-91516200D03*
X125069600Y-90576400D03*
X125069600Y-91516200D03*
D12*
X106060000Y-108050000D03*
X96130000Y-92920000D03*
D19*
%TO.N,REG_VIN*%
X142895200Y-110164000D03*
D12*
X137693400Y-99110800D03*
X144100000Y-97500000D03*
X143865600Y-96723200D03*
X143865600Y-96723200D03*
X143865600Y-96723200D03*
X143865600Y-96723200D03*
X143865600Y-96723200D03*
X137637818Y-96850200D03*
D20*
X144068800Y-98831400D03*
X144068800Y-99441000D03*
%TO.N,REG_FEEDBACK*%
X129680000Y-119640000D03*
X134220000Y-114500000D03*
D12*
%TO.N,STM8_RX*%
X100838000Y-104648000D03*
%TO.N,STM8_TX*%
X98806000Y-105664000D03*
%TO.N,I2C_SDA*%
X99270000Y-101710000D03*
X97170000Y-97940000D03*
%TO.N,I2C_SCL*%
X100520000Y-101710000D03*
X97170000Y-95450000D03*
%TO.N,GPIO_B1*%
X104100000Y-102150000D03*
%TO.N,GPIO_B2*%
X103433092Y-103150000D03*
%TD*%
D21*
%TO.N,GND*%
G36*
X142768083Y-85431173D02*
G01*
X143511891Y-85634656D01*
X144207905Y-85966638D01*
X144834130Y-86416626D01*
X145370777Y-86970403D01*
X145800871Y-87610451D01*
X146110829Y-88316553D01*
X146292065Y-89071457D01*
X146340001Y-89724220D01*
X146340000Y-94492067D01*
X146222499Y-94456423D01*
X146055752Y-94440000D01*
X145044248Y-94440000D01*
X144877501Y-94456423D01*
X144663553Y-94521324D01*
X144466377Y-94626716D01*
X144293551Y-94768551D01*
X144151716Y-94941377D01*
X144046324Y-95138553D01*
X143981423Y-95352501D01*
X143959509Y-95575000D01*
X143970720Y-95688833D01*
X143967539Y-95688200D01*
X143763661Y-95688200D01*
X143563702Y-95727974D01*
X143375344Y-95805995D01*
X143205826Y-95919263D01*
X143061663Y-96063426D01*
X142948395Y-96232944D01*
X142885700Y-96384303D01*
X142877400Y-96381785D01*
X142706979Y-96365000D01*
X142393021Y-96365000D01*
X142222600Y-96381785D01*
X142003940Y-96448115D01*
X141802421Y-96555829D01*
X141625788Y-96700788D01*
X141480829Y-96877421D01*
X141373115Y-97078940D01*
X141306785Y-97297600D01*
X141284388Y-97525000D01*
X141306785Y-97752400D01*
X141373115Y-97971060D01*
X141480829Y-98172579D01*
X141625788Y-98349212D01*
X141802421Y-98494171D01*
X142003940Y-98601885D01*
X142222600Y-98668215D01*
X142393021Y-98685000D01*
X142706979Y-98685000D01*
X142877400Y-98668215D01*
X143096060Y-98601885D01*
X143168878Y-98562963D01*
X143133800Y-98739311D01*
X143133800Y-98923489D01*
X143169732Y-99104129D01*
X143183016Y-99136200D01*
X143169732Y-99168271D01*
X143133800Y-99348911D01*
X143133800Y-99533089D01*
X143169732Y-99713729D01*
X143240214Y-99883889D01*
X143342538Y-100037028D01*
X143472772Y-100167262D01*
X143625911Y-100269586D01*
X143796071Y-100340068D01*
X143976711Y-100376000D01*
X144160889Y-100376000D01*
X144341529Y-100340068D01*
X144511689Y-100269586D01*
X144664828Y-100167262D01*
X144795062Y-100037028D01*
X144897386Y-99883889D01*
X144967868Y-99713729D01*
X145003800Y-99533089D01*
X145003800Y-99348911D01*
X144967868Y-99168271D01*
X144954584Y-99136200D01*
X144967868Y-99104129D01*
X145003800Y-98923489D01*
X145003800Y-98739311D01*
X144967868Y-98558671D01*
X144897386Y-98388511D01*
X144856101Y-98326723D01*
X144859810Y-98329263D01*
X144868223Y-98333812D01*
X144941459Y-98372752D01*
X144998866Y-98396413D01*
X145055920Y-98420867D01*
X145065054Y-98423694D01*
X145065061Y-98423697D01*
X145065069Y-98423699D01*
X145144461Y-98447669D01*
X145205337Y-98459723D01*
X145266095Y-98472637D01*
X145275607Y-98473637D01*
X145358157Y-98481731D01*
X145358163Y-98481731D01*
X145391353Y-98485000D01*
X146315001Y-98485000D01*
X146315000Y-101015000D01*
X145391353Y-101015000D01*
X145357737Y-101018311D01*
X145352220Y-101018311D01*
X145342708Y-101019310D01*
X145307523Y-101023257D01*
X145290717Y-101024912D01*
X145289515Y-101025277D01*
X145260280Y-101028556D01*
X145199514Y-101041472D01*
X145138654Y-101053523D01*
X145129518Y-101056351D01*
X145129512Y-101056352D01*
X145129507Y-101056354D01*
X145050454Y-101081431D01*
X144993382Y-101105892D01*
X144935984Y-101129550D01*
X144927578Y-101134095D01*
X144927575Y-101134096D01*
X144927573Y-101134097D01*
X144927570Y-101134099D01*
X144854884Y-101174059D01*
X144803653Y-101209138D01*
X144751951Y-101243489D01*
X144744581Y-101249585D01*
X144681041Y-101302901D01*
X144637602Y-101347259D01*
X144593546Y-101391009D01*
X144587501Y-101398421D01*
X144535527Y-101463064D01*
X144501542Y-101514999D01*
X144466816Y-101566483D01*
X144462326Y-101574928D01*
X144423898Y-101648434D01*
X144400640Y-101705999D01*
X144376582Y-101763232D01*
X144373817Y-101772388D01*
X144350398Y-101851959D01*
X144338760Y-101912969D01*
X144326281Y-101973758D01*
X144325347Y-101983276D01*
X144317830Y-102065880D01*
X144318263Y-102127968D01*
X144317830Y-102190057D01*
X144318763Y-102199576D01*
X144327434Y-102282066D01*
X144339920Y-102342891D01*
X144351550Y-102403857D01*
X144354314Y-102413013D01*
X144378841Y-102492249D01*
X144402894Y-102549469D01*
X144426159Y-102607052D01*
X144430649Y-102615497D01*
X144470100Y-102688460D01*
X144504821Y-102739936D01*
X144538810Y-102791877D01*
X144544854Y-102799289D01*
X144597726Y-102863200D01*
X144626078Y-102891355D01*
X144466377Y-102976716D01*
X144293551Y-103118551D01*
X144151716Y-103291377D01*
X144046324Y-103488553D01*
X143981423Y-103702501D01*
X143959509Y-103925000D01*
X143981423Y-104147499D01*
X144046324Y-104361447D01*
X144151716Y-104558623D01*
X144293551Y-104731449D01*
X144466377Y-104873284D01*
X144663553Y-104978676D01*
X144877501Y-105043577D01*
X145044248Y-105060000D01*
X146055752Y-105060000D01*
X146222499Y-105043577D01*
X146340001Y-105007933D01*
X146340000Y-124670608D01*
X146268827Y-125468083D01*
X146065344Y-126211890D01*
X145733363Y-126907904D01*
X145283374Y-127534130D01*
X144729597Y-128070777D01*
X144089549Y-128500871D01*
X143383447Y-128810829D01*
X142628543Y-128992065D01*
X141975793Y-129040000D01*
X92029392Y-129040000D01*
X91231917Y-128968827D01*
X90488110Y-128765344D01*
X89792096Y-128433363D01*
X89165870Y-127983374D01*
X88808073Y-127614155D01*
X89265450Y-127614155D01*
X89661634Y-128134550D01*
X90376612Y-128524748D01*
X91153976Y-128767964D01*
X91963853Y-128854851D01*
X92775118Y-128782069D01*
X93556597Y-128552415D01*
X94278256Y-128174715D01*
X94338366Y-128134550D01*
X94734550Y-127614155D01*
X139265450Y-127614155D01*
X139661634Y-128134550D01*
X140376612Y-128524748D01*
X141153976Y-128767964D01*
X141963853Y-128854851D01*
X142775118Y-128782069D01*
X143556597Y-128552415D01*
X144278256Y-128174715D01*
X144338366Y-128134550D01*
X144734550Y-127614155D01*
X142000000Y-124879605D01*
X139265450Y-127614155D01*
X94734550Y-127614155D01*
X92000000Y-124879605D01*
X89265450Y-127614155D01*
X88808073Y-127614155D01*
X88629223Y-127429597D01*
X88199129Y-126789549D01*
X87889171Y-126083447D01*
X87707935Y-125328543D01*
X87660000Y-124675793D01*
X87660000Y-124663853D01*
X87845149Y-124663853D01*
X87917931Y-125475118D01*
X88147585Y-126256597D01*
X88525285Y-126978256D01*
X88565450Y-127038366D01*
X89085845Y-127434550D01*
X91820395Y-124700000D01*
X92179605Y-124700000D01*
X94914155Y-127434550D01*
X95434550Y-127038366D01*
X95824748Y-126323388D01*
X96067964Y-125546024D01*
X96154851Y-124736147D01*
X96129196Y-124450173D01*
X118245000Y-124450173D01*
X118245000Y-124929827D01*
X118338576Y-125400263D01*
X118522131Y-125843405D01*
X118788612Y-126242222D01*
X119127778Y-126581388D01*
X119526595Y-126847869D01*
X119969737Y-127031424D01*
X120440173Y-127125000D01*
X120919827Y-127125000D01*
X121390263Y-127031424D01*
X121833405Y-126847869D01*
X122232222Y-126581388D01*
X122571388Y-126242222D01*
X122837869Y-125843405D01*
X123021424Y-125400263D01*
X123115000Y-124929827D01*
X123115000Y-124663853D01*
X137845149Y-124663853D01*
X137917931Y-125475118D01*
X138147585Y-126256597D01*
X138525285Y-126978256D01*
X138565450Y-127038366D01*
X139085845Y-127434550D01*
X141820395Y-124700000D01*
X142179605Y-124700000D01*
X144914155Y-127434550D01*
X145434550Y-127038366D01*
X145824748Y-126323388D01*
X146067964Y-125546024D01*
X146154851Y-124736147D01*
X146082069Y-123924882D01*
X145852415Y-123143403D01*
X145474715Y-122421744D01*
X145434550Y-122361634D01*
X144914155Y-121965450D01*
X142179605Y-124700000D01*
X141820395Y-124700000D01*
X139085845Y-121965450D01*
X138565450Y-122361634D01*
X138175252Y-123076612D01*
X137932036Y-123853976D01*
X137845149Y-124663853D01*
X123115000Y-124663853D01*
X123115000Y-124450173D01*
X123021424Y-123979737D01*
X122837869Y-123536595D01*
X122571388Y-123137778D01*
X122232222Y-122798612D01*
X122041742Y-122671337D01*
X125278400Y-122671337D01*
X125278400Y-122885063D01*
X125320096Y-123094683D01*
X125401885Y-123292140D01*
X125520625Y-123469847D01*
X125671753Y-123620975D01*
X125849460Y-123739715D01*
X126046917Y-123821504D01*
X126256537Y-123863200D01*
X126470263Y-123863200D01*
X126679883Y-123821504D01*
X126877340Y-123739715D01*
X127055047Y-123620975D01*
X127206175Y-123469847D01*
X127324915Y-123292140D01*
X127406704Y-123094683D01*
X127448400Y-122885063D01*
X127448400Y-122671337D01*
X127406704Y-122461717D01*
X127324915Y-122264260D01*
X127206175Y-122086553D01*
X127055047Y-121935425D01*
X126877340Y-121816685D01*
X126802886Y-121785845D01*
X139265450Y-121785845D01*
X142000000Y-124520395D01*
X144734550Y-121785845D01*
X144338366Y-121265450D01*
X143623388Y-120875252D01*
X142846024Y-120632036D01*
X142036147Y-120545149D01*
X141224882Y-120617931D01*
X140443403Y-120847585D01*
X139721744Y-121225285D01*
X139661634Y-121265450D01*
X139265450Y-121785845D01*
X126802886Y-121785845D01*
X126679883Y-121734896D01*
X126470263Y-121693200D01*
X126256537Y-121693200D01*
X126046917Y-121734896D01*
X125849460Y-121816685D01*
X125671753Y-121935425D01*
X125520625Y-122086553D01*
X125401885Y-122264260D01*
X125320096Y-122461717D01*
X125278400Y-122671337D01*
X122041742Y-122671337D01*
X121833405Y-122532131D01*
X121390263Y-122348576D01*
X120919827Y-122255000D01*
X120440173Y-122255000D01*
X119969737Y-122348576D01*
X119526595Y-122532131D01*
X119127778Y-122798612D01*
X118788612Y-123137778D01*
X118522131Y-123536595D01*
X118338576Y-123979737D01*
X118245000Y-124450173D01*
X96129196Y-124450173D01*
X96082069Y-123924882D01*
X95969699Y-123542502D01*
X113512303Y-123542502D01*
X113583886Y-123786471D01*
X113839396Y-123907371D01*
X114113584Y-123976100D01*
X114395912Y-123990017D01*
X114675530Y-123948587D01*
X114941692Y-123853403D01*
X115066914Y-123786471D01*
X115138497Y-123542502D01*
X114325400Y-122729405D01*
X113512303Y-123542502D01*
X95969699Y-123542502D01*
X95852415Y-123143403D01*
X95578642Y-122620312D01*
X112885183Y-122620312D01*
X112926613Y-122899930D01*
X113021797Y-123166092D01*
X113088729Y-123291314D01*
X113332698Y-123362897D01*
X114145795Y-122549800D01*
X114505005Y-122549800D01*
X115318102Y-123362897D01*
X115562071Y-123291314D01*
X115682971Y-123035804D01*
X115751700Y-122761616D01*
X115765617Y-122479288D01*
X115724187Y-122199670D01*
X115629003Y-121933508D01*
X115562071Y-121808286D01*
X115318102Y-121736703D01*
X114505005Y-122549800D01*
X114145795Y-122549800D01*
X113332698Y-121736703D01*
X113088729Y-121808286D01*
X112967829Y-122063796D01*
X112899100Y-122337984D01*
X112885183Y-122620312D01*
X95578642Y-122620312D01*
X95474715Y-122421744D01*
X95434550Y-122361634D01*
X94914155Y-121965450D01*
X92179605Y-124700000D01*
X91820395Y-124700000D01*
X89085845Y-121965450D01*
X88565450Y-122361634D01*
X88175252Y-123076612D01*
X87932036Y-123853976D01*
X87845149Y-124663853D01*
X87660000Y-124663853D01*
X87660000Y-121785845D01*
X89265450Y-121785845D01*
X92000000Y-124520395D01*
X94734550Y-121785845D01*
X94560402Y-121557098D01*
X113512303Y-121557098D01*
X114325400Y-122370195D01*
X115138497Y-121557098D01*
X115066914Y-121313129D01*
X114811404Y-121192229D01*
X114537216Y-121123500D01*
X114254888Y-121109583D01*
X113975270Y-121151013D01*
X113709108Y-121246197D01*
X113583886Y-121313129D01*
X113512303Y-121557098D01*
X94560402Y-121557098D01*
X94338366Y-121265450D01*
X93623388Y-120875252D01*
X92846024Y-120632036D01*
X92036147Y-120545149D01*
X91224882Y-120617931D01*
X90443403Y-120847585D01*
X89721744Y-121225285D01*
X89661634Y-121265450D01*
X89265450Y-121785845D01*
X87660000Y-121785845D01*
X87660000Y-118249800D01*
X112887328Y-118249800D01*
X112887328Y-119849800D01*
X112899588Y-119974282D01*
X112935898Y-120093980D01*
X112994863Y-120204294D01*
X113074215Y-120300985D01*
X113170906Y-120380337D01*
X113281220Y-120439302D01*
X113400918Y-120475612D01*
X113525400Y-120487872D01*
X115125400Y-120487872D01*
X115249882Y-120475612D01*
X115369580Y-120439302D01*
X115479894Y-120380337D01*
X115576585Y-120300985D01*
X115655937Y-120204294D01*
X115714902Y-120093980D01*
X115751212Y-119974282D01*
X115763472Y-119849800D01*
X115763472Y-119547911D01*
X128745000Y-119547911D01*
X128745000Y-119732089D01*
X128780932Y-119912729D01*
X128851414Y-120082889D01*
X128953738Y-120236028D01*
X129083972Y-120366262D01*
X129237111Y-120468586D01*
X129407271Y-120539068D01*
X129587911Y-120575000D01*
X129772089Y-120575000D01*
X129952729Y-120539068D01*
X130122889Y-120468586D01*
X130276028Y-120366262D01*
X130406262Y-120236028D01*
X130508586Y-120082889D01*
X130579068Y-119912729D01*
X130615000Y-119732089D01*
X130615000Y-119547911D01*
X130579068Y-119367271D01*
X130508586Y-119197111D01*
X130406262Y-119043972D01*
X130276028Y-118913738D01*
X130122889Y-118811414D01*
X129952729Y-118740932D01*
X129772089Y-118705000D01*
X129587911Y-118705000D01*
X129407271Y-118740932D01*
X129237111Y-118811414D01*
X129083972Y-118913738D01*
X128953738Y-119043972D01*
X128851414Y-119197111D01*
X128780932Y-119367271D01*
X128745000Y-119547911D01*
X115763472Y-119547911D01*
X115763472Y-118249800D01*
X115751212Y-118125318D01*
X115714902Y-118005620D01*
X115655937Y-117895306D01*
X115576585Y-117798615D01*
X115479894Y-117719263D01*
X115369580Y-117660298D01*
X115249882Y-117623988D01*
X115125400Y-117611728D01*
X113525400Y-117611728D01*
X113400918Y-117623988D01*
X113281220Y-117660298D01*
X113170906Y-117719263D01*
X113074215Y-117798615D01*
X112994863Y-117895306D01*
X112935898Y-118005620D01*
X112899588Y-118125318D01*
X112887328Y-118249800D01*
X87660000Y-118249800D01*
X87660000Y-110523740D01*
X91745000Y-110523740D01*
X91745000Y-110816260D01*
X91802068Y-111103158D01*
X91914010Y-111373411D01*
X92076525Y-111616632D01*
X92283368Y-111823475D01*
X92526589Y-111985990D01*
X92796842Y-112097932D01*
X93083740Y-112155000D01*
X93376260Y-112155000D01*
X93663158Y-112097932D01*
X93933411Y-111985990D01*
X94176632Y-111823475D01*
X94383475Y-111616632D01*
X94545990Y-111373411D01*
X94657932Y-111103158D01*
X94704310Y-110870000D01*
X95873000Y-110870000D01*
X95873000Y-114920000D01*
X95875440Y-114944776D01*
X95882667Y-114968601D01*
X95894403Y-114990557D01*
X95910197Y-115009803D01*
X95929443Y-115025597D01*
X95951399Y-115037333D01*
X95975224Y-115044560D01*
X96000000Y-115047000D01*
X102300000Y-115047000D01*
X102324776Y-115044560D01*
X102348601Y-115037333D01*
X102359818Y-115031337D01*
X116364600Y-115031337D01*
X116364600Y-115245063D01*
X116406296Y-115454683D01*
X116480364Y-115633500D01*
X116406296Y-115812317D01*
X116364600Y-116021937D01*
X116364600Y-116235663D01*
X116406296Y-116445283D01*
X116488085Y-116642740D01*
X116606825Y-116820447D01*
X116757953Y-116971575D01*
X116935660Y-117090315D01*
X117133117Y-117172104D01*
X117342737Y-117213800D01*
X117478564Y-117213800D01*
X117521225Y-117277647D01*
X117672353Y-117428775D01*
X117850060Y-117547515D01*
X118047517Y-117629304D01*
X118257137Y-117671000D01*
X118470863Y-117671000D01*
X118680483Y-117629304D01*
X118877940Y-117547515D01*
X119055647Y-117428775D01*
X119206775Y-117277647D01*
X119325515Y-117099940D01*
X119407304Y-116902483D01*
X119449000Y-116692863D01*
X119449000Y-116479137D01*
X119407304Y-116269517D01*
X119325796Y-116072739D01*
X119381904Y-115937283D01*
X119423600Y-115727663D01*
X119423600Y-115513937D01*
X119381904Y-115304317D01*
X119300115Y-115106860D01*
X119261655Y-115049300D01*
X119300115Y-114991740D01*
X119381904Y-114794283D01*
X119423600Y-114584663D01*
X119423600Y-114447137D01*
X119971400Y-114447137D01*
X119971400Y-114660863D01*
X120013096Y-114870483D01*
X120094885Y-115067940D01*
X120120588Y-115106407D01*
X120120285Y-115106860D01*
X120038496Y-115304317D01*
X119996800Y-115513937D01*
X119996800Y-115727663D01*
X120038496Y-115937283D01*
X120112564Y-116116100D01*
X120038496Y-116294917D01*
X119996800Y-116504537D01*
X119996800Y-116718263D01*
X120038496Y-116927883D01*
X120120285Y-117125340D01*
X120239025Y-117303047D01*
X120390153Y-117454175D01*
X120567860Y-117572915D01*
X120765317Y-117654704D01*
X120974937Y-117696400D01*
X121188663Y-117696400D01*
X121398283Y-117654704D01*
X121595740Y-117572915D01*
X121764470Y-117460173D01*
X140965000Y-117460173D01*
X140965000Y-117939827D01*
X141058576Y-118410263D01*
X141242131Y-118853405D01*
X141508612Y-119252222D01*
X141847778Y-119591388D01*
X142246595Y-119857869D01*
X142689737Y-120041424D01*
X143160173Y-120135000D01*
X143639827Y-120135000D01*
X144110263Y-120041424D01*
X144553405Y-119857869D01*
X144952222Y-119591388D01*
X145291388Y-119252222D01*
X145557869Y-118853405D01*
X145741424Y-118410263D01*
X145835000Y-117939827D01*
X145835000Y-117460173D01*
X145741424Y-116989737D01*
X145557869Y-116546595D01*
X145291388Y-116147778D01*
X144952222Y-115808612D01*
X144553405Y-115542131D01*
X144110263Y-115358576D01*
X143639827Y-115265000D01*
X143160173Y-115265000D01*
X142689737Y-115358576D01*
X142246595Y-115542131D01*
X141847778Y-115808612D01*
X141508612Y-116147778D01*
X141242131Y-116546595D01*
X141058576Y-116989737D01*
X140965000Y-117460173D01*
X121764470Y-117460173D01*
X121773447Y-117454175D01*
X121924575Y-117303047D01*
X122001180Y-117188400D01*
X122077663Y-117188400D01*
X122287283Y-117146704D01*
X122484740Y-117064915D01*
X122662447Y-116946175D01*
X122813575Y-116795047D01*
X122932315Y-116617340D01*
X123014104Y-116419883D01*
X123055800Y-116210263D01*
X123055800Y-115996537D01*
X123014104Y-115786917D01*
X122932315Y-115589460D01*
X122926168Y-115580260D01*
X122988704Y-115429283D01*
X123030400Y-115219663D01*
X123030400Y-115005937D01*
X122988704Y-114796317D01*
X122906915Y-114598860D01*
X122788175Y-114421153D01*
X122774933Y-114407911D01*
X133285000Y-114407911D01*
X133285000Y-114592089D01*
X133320932Y-114772729D01*
X133391414Y-114942889D01*
X133493738Y-115096028D01*
X133623972Y-115226262D01*
X133777111Y-115328586D01*
X133947271Y-115399068D01*
X134127911Y-115435000D01*
X134312089Y-115435000D01*
X134492729Y-115399068D01*
X134662889Y-115328586D01*
X134816028Y-115226262D01*
X134946262Y-115096028D01*
X135048586Y-114942889D01*
X135119068Y-114772729D01*
X135155000Y-114592089D01*
X135155000Y-114407911D01*
X135119068Y-114227271D01*
X135048586Y-114057111D01*
X134946262Y-113903972D01*
X134816028Y-113773738D01*
X134662889Y-113671414D01*
X134492729Y-113600932D01*
X134312089Y-113565000D01*
X134127911Y-113565000D01*
X133947271Y-113600932D01*
X133777111Y-113671414D01*
X133623972Y-113773738D01*
X133493738Y-113903972D01*
X133391414Y-114057111D01*
X133320932Y-114227271D01*
X133285000Y-114407911D01*
X122774933Y-114407911D01*
X122637047Y-114270025D01*
X122459340Y-114151285D01*
X122261883Y-114069496D01*
X122052263Y-114027800D01*
X122009723Y-114027800D01*
X121899175Y-113862353D01*
X121748047Y-113711225D01*
X121570340Y-113592485D01*
X121372883Y-113510696D01*
X121163263Y-113469000D01*
X120949537Y-113469000D01*
X120739917Y-113510696D01*
X120542460Y-113592485D01*
X120364753Y-113711225D01*
X120213625Y-113862353D01*
X120094885Y-114040060D01*
X120013096Y-114237517D01*
X119971400Y-114447137D01*
X119423600Y-114447137D01*
X119423600Y-114370937D01*
X119381904Y-114161317D01*
X119300115Y-113963860D01*
X119181375Y-113786153D01*
X119030247Y-113635025D01*
X118852540Y-113516285D01*
X118655083Y-113434496D01*
X118445463Y-113392800D01*
X118231737Y-113392800D01*
X118022117Y-113434496D01*
X117824660Y-113516285D01*
X117646953Y-113635025D01*
X117495825Y-113786153D01*
X117377085Y-113963860D01*
X117339841Y-114053776D01*
X117133117Y-114094896D01*
X116935660Y-114176685D01*
X116757953Y-114295425D01*
X116606825Y-114446553D01*
X116488085Y-114624260D01*
X116406296Y-114821717D01*
X116364600Y-115031337D01*
X102359818Y-115031337D01*
X102370557Y-115025597D01*
X102389803Y-115009803D01*
X102405597Y-114990557D01*
X102417333Y-114968601D01*
X102424560Y-114944776D01*
X102427000Y-114920000D01*
X102427000Y-113038137D01*
X103190000Y-113038137D01*
X103190000Y-113251863D01*
X103231696Y-113461483D01*
X103313485Y-113658940D01*
X103432225Y-113836647D01*
X103583353Y-113987775D01*
X103726212Y-114083230D01*
X103756696Y-114236483D01*
X103838485Y-114433940D01*
X103957225Y-114611647D01*
X104108353Y-114762775D01*
X104286060Y-114881515D01*
X104483517Y-114963304D01*
X104693137Y-115005000D01*
X104906863Y-115005000D01*
X105116483Y-114963304D01*
X105313940Y-114881515D01*
X105491647Y-114762775D01*
X105642775Y-114611647D01*
X105761515Y-114433940D01*
X105843304Y-114236483D01*
X105885000Y-114026863D01*
X105885000Y-113917216D01*
X105891647Y-113912775D01*
X106042775Y-113761647D01*
X106161515Y-113583940D01*
X106243304Y-113386483D01*
X106285000Y-113176863D01*
X106285000Y-112999137D01*
X112028200Y-112999137D01*
X112028200Y-113212863D01*
X112069896Y-113422483D01*
X112151685Y-113619940D01*
X112270425Y-113797647D01*
X112421553Y-113948775D01*
X112599260Y-114067515D01*
X112796717Y-114149304D01*
X113006337Y-114191000D01*
X113220063Y-114191000D01*
X113429683Y-114149304D01*
X113627140Y-114067515D01*
X113804847Y-113948775D01*
X113955975Y-113797647D01*
X114074715Y-113619940D01*
X114156504Y-113422483D01*
X114198200Y-113212863D01*
X114198200Y-112999137D01*
X114156504Y-112789517D01*
X114074715Y-112592060D01*
X113955975Y-112414353D01*
X113804847Y-112263225D01*
X113627140Y-112144485D01*
X113429683Y-112062696D01*
X113220063Y-112021000D01*
X113006337Y-112021000D01*
X112796717Y-112062696D01*
X112599260Y-112144485D01*
X112421553Y-112263225D01*
X112270425Y-112414353D01*
X112151685Y-112592060D01*
X112069896Y-112789517D01*
X112028200Y-112999137D01*
X106285000Y-112999137D01*
X106285000Y-112963137D01*
X106243304Y-112753517D01*
X106161515Y-112556060D01*
X106042775Y-112378353D01*
X105891647Y-112227225D01*
X105713940Y-112108485D01*
X105516483Y-112026696D01*
X105306863Y-111985000D01*
X105093137Y-111985000D01*
X104883517Y-112026696D01*
X104686060Y-112108485D01*
X104656139Y-112128477D01*
X104591483Y-112101696D01*
X104381863Y-112060000D01*
X104168137Y-112060000D01*
X103958517Y-112101696D01*
X103761060Y-112183485D01*
X103583353Y-112302225D01*
X103432225Y-112453353D01*
X103313485Y-112631060D01*
X103231696Y-112828517D01*
X103190000Y-113038137D01*
X102427000Y-113038137D01*
X102427000Y-111228702D01*
X132536903Y-111228702D01*
X132608486Y-111472671D01*
X132863996Y-111593571D01*
X133138184Y-111662300D01*
X133420512Y-111676217D01*
X133700130Y-111634787D01*
X133966292Y-111539603D01*
X134091514Y-111472671D01*
X134163097Y-111228702D01*
X133350000Y-110415605D01*
X132536903Y-111228702D01*
X102427000Y-111228702D01*
X102427000Y-110870000D01*
X102424560Y-110845224D01*
X102417333Y-110821399D01*
X102405597Y-110799443D01*
X102389803Y-110780197D01*
X102370557Y-110764403D01*
X102348601Y-110752667D01*
X102324776Y-110745440D01*
X102300000Y-110743000D01*
X96000000Y-110743000D01*
X95975224Y-110745440D01*
X95951399Y-110752667D01*
X95929443Y-110764403D01*
X95910197Y-110780197D01*
X95894403Y-110799443D01*
X95882667Y-110821399D01*
X95875440Y-110845224D01*
X95873000Y-110870000D01*
X94704310Y-110870000D01*
X94715000Y-110816260D01*
X94715000Y-110523740D01*
X94671791Y-110306512D01*
X131909783Y-110306512D01*
X131951213Y-110586130D01*
X132046397Y-110852292D01*
X132113329Y-110977514D01*
X132357298Y-111049097D01*
X133170395Y-110236000D01*
X133529605Y-110236000D01*
X134342702Y-111049097D01*
X134586671Y-110977514D01*
X134707571Y-110722004D01*
X134776300Y-110447816D01*
X134790217Y-110165488D01*
X134748787Y-109885870D01*
X134653603Y-109619708D01*
X134586671Y-109494486D01*
X134387340Y-109436000D01*
X135411928Y-109436000D01*
X135411928Y-111036000D01*
X135424188Y-111160482D01*
X135460498Y-111280180D01*
X135519463Y-111390494D01*
X135598815Y-111487185D01*
X135695506Y-111566537D01*
X135805820Y-111625502D01*
X135925518Y-111661812D01*
X136050000Y-111674072D01*
X137650000Y-111674072D01*
X137774482Y-111661812D01*
X137894180Y-111625502D01*
X138004494Y-111566537D01*
X138101185Y-111487185D01*
X138180537Y-111390494D01*
X138239502Y-111280180D01*
X138275812Y-111160482D01*
X138288072Y-111036000D01*
X138288072Y-110057137D01*
X141810200Y-110057137D01*
X141810200Y-110270863D01*
X141851896Y-110480483D01*
X141933685Y-110677940D01*
X142052425Y-110855647D01*
X142203553Y-111006775D01*
X142381260Y-111125515D01*
X142578717Y-111207304D01*
X142788337Y-111249000D01*
X143002063Y-111249000D01*
X143211683Y-111207304D01*
X143409140Y-111125515D01*
X143586847Y-111006775D01*
X143737975Y-110855647D01*
X143856715Y-110677940D01*
X143938504Y-110480483D01*
X143980200Y-110270863D01*
X143980200Y-110057137D01*
X143938504Y-109847517D01*
X143856715Y-109650060D01*
X143737975Y-109472353D01*
X143586847Y-109321225D01*
X143409140Y-109202485D01*
X143211683Y-109120696D01*
X143002063Y-109079000D01*
X142788337Y-109079000D01*
X142578717Y-109120696D01*
X142381260Y-109202485D01*
X142203553Y-109321225D01*
X142052425Y-109472353D01*
X141933685Y-109650060D01*
X141851896Y-109847517D01*
X141810200Y-110057137D01*
X138288072Y-110057137D01*
X138288072Y-109436000D01*
X138275812Y-109311518D01*
X138239502Y-109191820D01*
X138180537Y-109081506D01*
X138101185Y-108984815D01*
X138004494Y-108905463D01*
X137894180Y-108846498D01*
X137774482Y-108810188D01*
X137650000Y-108797928D01*
X136050000Y-108797928D01*
X135925518Y-108810188D01*
X135805820Y-108846498D01*
X135695506Y-108905463D01*
X135598815Y-108984815D01*
X135519463Y-109081506D01*
X135460498Y-109191820D01*
X135424188Y-109311518D01*
X135411928Y-109436000D01*
X134387340Y-109436000D01*
X134342702Y-109422903D01*
X133529605Y-110236000D01*
X133170395Y-110236000D01*
X132357298Y-109422903D01*
X132113329Y-109494486D01*
X131992429Y-109749996D01*
X131923700Y-110024184D01*
X131909783Y-110306512D01*
X94671791Y-110306512D01*
X94657932Y-110236842D01*
X94545990Y-109966589D01*
X94383475Y-109723368D01*
X94176632Y-109516525D01*
X93994466Y-109394805D01*
X94111355Y-109325178D01*
X94202193Y-109243298D01*
X132536903Y-109243298D01*
X133350000Y-110056395D01*
X134163097Y-109243298D01*
X134091514Y-108999329D01*
X133836004Y-108878429D01*
X133561816Y-108809700D01*
X133279488Y-108795783D01*
X132999870Y-108837213D01*
X132733708Y-108932397D01*
X132608486Y-108999329D01*
X132536903Y-109243298D01*
X94202193Y-109243298D01*
X94327588Y-109130269D01*
X94501641Y-108896920D01*
X94626825Y-108634099D01*
X94671476Y-108486890D01*
X94550155Y-108257000D01*
X93357000Y-108257000D01*
X93357000Y-108277000D01*
X93103000Y-108277000D01*
X93103000Y-108257000D01*
X91909845Y-108257000D01*
X91788524Y-108486890D01*
X91833175Y-108634099D01*
X91958359Y-108896920D01*
X92132412Y-109130269D01*
X92348645Y-109325178D01*
X92465534Y-109394805D01*
X92283368Y-109516525D01*
X92076525Y-109723368D01*
X91914010Y-109966589D01*
X91802068Y-110236842D01*
X91745000Y-110523740D01*
X87660000Y-110523740D01*
X87660000Y-102200000D01*
X91741928Y-102200000D01*
X91741928Y-103900000D01*
X91754188Y-104024482D01*
X91790498Y-104144180D01*
X91849463Y-104254494D01*
X91928815Y-104351185D01*
X92025506Y-104430537D01*
X92135820Y-104489502D01*
X92208380Y-104511513D01*
X92076525Y-104643368D01*
X91914010Y-104886589D01*
X91802068Y-105156842D01*
X91745000Y-105443740D01*
X91745000Y-105736260D01*
X91802068Y-106023158D01*
X91914010Y-106293411D01*
X92076525Y-106536632D01*
X92283368Y-106743475D01*
X92465534Y-106865195D01*
X92348645Y-106934822D01*
X92132412Y-107129731D01*
X91958359Y-107363080D01*
X91833175Y-107625901D01*
X91788524Y-107773110D01*
X91909845Y-108003000D01*
X93103000Y-108003000D01*
X93103000Y-107983000D01*
X93357000Y-107983000D01*
X93357000Y-108003000D01*
X94550155Y-108003000D01*
X94579148Y-107948061D01*
X105025000Y-107948061D01*
X105025000Y-108151939D01*
X105064774Y-108351898D01*
X105142795Y-108540256D01*
X105256063Y-108709774D01*
X105400226Y-108853937D01*
X105569744Y-108967205D01*
X105758102Y-109045226D01*
X105958061Y-109085000D01*
X106161939Y-109085000D01*
X106361898Y-109045226D01*
X106550256Y-108967205D01*
X106719774Y-108853937D01*
X106863937Y-108709774D01*
X106977205Y-108540256D01*
X107055226Y-108351898D01*
X107095000Y-108151939D01*
X107095000Y-107948061D01*
X107055226Y-107748102D01*
X106977205Y-107559744D01*
X106863937Y-107390226D01*
X106719774Y-107246063D01*
X106550256Y-107132795D01*
X106361898Y-107054774D01*
X106161939Y-107015000D01*
X105958061Y-107015000D01*
X105758102Y-107054774D01*
X105569744Y-107132795D01*
X105400226Y-107246063D01*
X105256063Y-107390226D01*
X105142795Y-107559744D01*
X105064774Y-107748102D01*
X105025000Y-107948061D01*
X94579148Y-107948061D01*
X94671476Y-107773110D01*
X94626825Y-107625901D01*
X94501641Y-107363080D01*
X94327588Y-107129731D01*
X94111355Y-106934822D01*
X93994466Y-106865195D01*
X94176632Y-106743475D01*
X94383475Y-106536632D01*
X94545990Y-106293411D01*
X94657932Y-106023158D01*
X94715000Y-105736260D01*
X94715000Y-105562061D01*
X97771000Y-105562061D01*
X97771000Y-105765939D01*
X97810774Y-105965898D01*
X97888795Y-106154256D01*
X98002063Y-106323774D01*
X98146226Y-106467937D01*
X98315744Y-106581205D01*
X98504102Y-106659226D01*
X98704061Y-106699000D01*
X98907939Y-106699000D01*
X99107898Y-106659226D01*
X99296256Y-106581205D01*
X99465774Y-106467937D01*
X99609937Y-106323774D01*
X99723205Y-106154256D01*
X99801226Y-105965898D01*
X99841000Y-105765939D01*
X99841000Y-105562061D01*
X99801226Y-105362102D01*
X99723205Y-105173744D01*
X99609937Y-105004226D01*
X99465774Y-104860063D01*
X99296256Y-104746795D01*
X99107898Y-104668774D01*
X98907939Y-104629000D01*
X98704061Y-104629000D01*
X98504102Y-104668774D01*
X98315744Y-104746795D01*
X98146226Y-104860063D01*
X98002063Y-105004226D01*
X97888795Y-105173744D01*
X97810774Y-105362102D01*
X97771000Y-105562061D01*
X94715000Y-105562061D01*
X94715000Y-105443740D01*
X94657932Y-105156842D01*
X94545990Y-104886589D01*
X94383475Y-104643368D01*
X94286168Y-104546061D01*
X99803000Y-104546061D01*
X99803000Y-104749939D01*
X99842774Y-104949898D01*
X99920795Y-105138256D01*
X100034063Y-105307774D01*
X100178226Y-105451937D01*
X100347744Y-105565205D01*
X100536102Y-105643226D01*
X100736061Y-105683000D01*
X100939939Y-105683000D01*
X101139898Y-105643226D01*
X101328256Y-105565205D01*
X101497774Y-105451937D01*
X101641937Y-105307774D01*
X101755205Y-105138256D01*
X101833226Y-104949898D01*
X101873000Y-104749939D01*
X101873000Y-104546061D01*
X101833226Y-104346102D01*
X101755205Y-104157744D01*
X101641937Y-103988226D01*
X101497774Y-103844063D01*
X101328256Y-103730795D01*
X101139898Y-103652774D01*
X100939939Y-103613000D01*
X100736061Y-103613000D01*
X100536102Y-103652774D01*
X100347744Y-103730795D01*
X100178226Y-103844063D01*
X100034063Y-103988226D01*
X99920795Y-104157744D01*
X99842774Y-104346102D01*
X99803000Y-104546061D01*
X94286168Y-104546061D01*
X94251620Y-104511513D01*
X94324180Y-104489502D01*
X94434494Y-104430537D01*
X94531185Y-104351185D01*
X94610537Y-104254494D01*
X94669502Y-104144180D01*
X94705812Y-104024482D01*
X94718072Y-103900000D01*
X94718072Y-103048061D01*
X102398092Y-103048061D01*
X102398092Y-103251939D01*
X102437866Y-103451898D01*
X102515887Y-103640256D01*
X102629155Y-103809774D01*
X102773318Y-103953937D01*
X102942836Y-104067205D01*
X103131194Y-104145226D01*
X103331153Y-104185000D01*
X103535031Y-104185000D01*
X103734990Y-104145226D01*
X103923348Y-104067205D01*
X104092866Y-103953937D01*
X104237029Y-103809774D01*
X104350297Y-103640256D01*
X104428318Y-103451898D01*
X104468092Y-103251939D01*
X104468092Y-103117807D01*
X104590256Y-103067205D01*
X104759774Y-102953937D01*
X104903937Y-102809774D01*
X105017205Y-102640256D01*
X105095226Y-102451898D01*
X105135000Y-102251939D01*
X105135000Y-102200000D01*
X120211928Y-102200000D01*
X120211928Y-103900000D01*
X120224188Y-104024482D01*
X120260498Y-104144180D01*
X120319463Y-104254494D01*
X120398815Y-104351185D01*
X120495506Y-104430537D01*
X120605820Y-104489502D01*
X120678380Y-104511513D01*
X120546525Y-104643368D01*
X120384010Y-104886589D01*
X120272068Y-105156842D01*
X120215000Y-105443740D01*
X120215000Y-105736260D01*
X120272068Y-106023158D01*
X120384010Y-106293411D01*
X120546525Y-106536632D01*
X120753368Y-106743475D01*
X120996589Y-106905990D01*
X121266842Y-107017932D01*
X121553740Y-107075000D01*
X121846260Y-107075000D01*
X122133158Y-107017932D01*
X122403411Y-106905990D01*
X122646632Y-106743475D01*
X122853475Y-106536632D01*
X123015990Y-106293411D01*
X123127932Y-106023158D01*
X123185000Y-105736260D01*
X123185000Y-105443740D01*
X123127932Y-105156842D01*
X123015990Y-104886589D01*
X122853475Y-104643368D01*
X122721620Y-104511513D01*
X122794180Y-104489502D01*
X122904494Y-104430537D01*
X123001185Y-104351185D01*
X123080537Y-104254494D01*
X123139502Y-104144180D01*
X123175812Y-104024482D01*
X123188072Y-103900000D01*
X123188072Y-102200000D01*
X123175812Y-102075518D01*
X123145321Y-101975000D01*
X141284388Y-101975000D01*
X141306785Y-102202400D01*
X141373115Y-102421060D01*
X141480829Y-102622579D01*
X141625788Y-102799212D01*
X141802421Y-102944171D01*
X142003940Y-103051885D01*
X142222600Y-103118215D01*
X142393021Y-103135000D01*
X142706979Y-103135000D01*
X142877400Y-103118215D01*
X143096060Y-103051885D01*
X143297579Y-102944171D01*
X143474212Y-102799212D01*
X143619171Y-102622579D01*
X143726885Y-102421060D01*
X143793215Y-102202400D01*
X143815612Y-101975000D01*
X143793215Y-101747600D01*
X143726885Y-101528940D01*
X143619171Y-101327421D01*
X143474212Y-101150788D01*
X143297579Y-101005829D01*
X143096060Y-100898115D01*
X142877400Y-100831785D01*
X142706979Y-100815000D01*
X142393021Y-100815000D01*
X142222600Y-100831785D01*
X142003940Y-100898115D01*
X141802421Y-101005829D01*
X141625788Y-101150788D01*
X141480829Y-101327421D01*
X141373115Y-101528940D01*
X141306785Y-101747600D01*
X141284388Y-101975000D01*
X123145321Y-101975000D01*
X123139502Y-101955820D01*
X123080537Y-101845506D01*
X123001185Y-101748815D01*
X122904494Y-101669463D01*
X122794180Y-101610498D01*
X122674482Y-101574188D01*
X122550000Y-101561928D01*
X120850000Y-101561928D01*
X120725518Y-101574188D01*
X120605820Y-101610498D01*
X120495506Y-101669463D01*
X120398815Y-101748815D01*
X120319463Y-101845506D01*
X120260498Y-101955820D01*
X120224188Y-102075518D01*
X120211928Y-102200000D01*
X105135000Y-102200000D01*
X105135000Y-102048061D01*
X105095226Y-101848102D01*
X105017205Y-101659744D01*
X104903937Y-101490226D01*
X104759774Y-101346063D01*
X104590256Y-101232795D01*
X104401898Y-101154774D01*
X104201939Y-101115000D01*
X103998061Y-101115000D01*
X103798102Y-101154774D01*
X103609744Y-101232795D01*
X103440226Y-101346063D01*
X103296063Y-101490226D01*
X103182795Y-101659744D01*
X103104774Y-101848102D01*
X103065000Y-102048061D01*
X103065000Y-102182193D01*
X102942836Y-102232795D01*
X102773318Y-102346063D01*
X102629155Y-102490226D01*
X102515887Y-102659744D01*
X102437866Y-102848102D01*
X102398092Y-103048061D01*
X94718072Y-103048061D01*
X94718072Y-102200000D01*
X94705812Y-102075518D01*
X94669502Y-101955820D01*
X94610537Y-101845506D01*
X94531185Y-101748815D01*
X94434494Y-101669463D01*
X94324180Y-101610498D01*
X94316147Y-101608061D01*
X98235000Y-101608061D01*
X98235000Y-101811939D01*
X98274774Y-102011898D01*
X98352795Y-102200256D01*
X98466063Y-102369774D01*
X98610226Y-102513937D01*
X98779744Y-102627205D01*
X98968102Y-102705226D01*
X99168061Y-102745000D01*
X99371939Y-102745000D01*
X99571898Y-102705226D01*
X99760256Y-102627205D01*
X99895000Y-102537172D01*
X100029744Y-102627205D01*
X100218102Y-102705226D01*
X100418061Y-102745000D01*
X100621939Y-102745000D01*
X100821898Y-102705226D01*
X101010256Y-102627205D01*
X101179774Y-102513937D01*
X101323937Y-102369774D01*
X101437205Y-102200256D01*
X101515226Y-102011898D01*
X101555000Y-101811939D01*
X101555000Y-101608061D01*
X101515226Y-101408102D01*
X101437205Y-101219744D01*
X101323937Y-101050226D01*
X101179774Y-100906063D01*
X101010256Y-100792795D01*
X100821898Y-100714774D01*
X100621939Y-100675000D01*
X100418061Y-100675000D01*
X100218102Y-100714774D01*
X100029744Y-100792795D01*
X99895000Y-100882828D01*
X99760256Y-100792795D01*
X99571898Y-100714774D01*
X99371939Y-100675000D01*
X99168061Y-100675000D01*
X98968102Y-100714774D01*
X98779744Y-100792795D01*
X98610226Y-100906063D01*
X98466063Y-101050226D01*
X98352795Y-101219744D01*
X98274774Y-101408102D01*
X98235000Y-101608061D01*
X94316147Y-101608061D01*
X94204482Y-101574188D01*
X94080000Y-101561928D01*
X92380000Y-101561928D01*
X92255518Y-101574188D01*
X92135820Y-101610498D01*
X92025506Y-101669463D01*
X91928815Y-101748815D01*
X91849463Y-101845506D01*
X91790498Y-101955820D01*
X91754188Y-102075518D01*
X91741928Y-102200000D01*
X87660000Y-102200000D01*
X87660000Y-100399537D01*
X94949800Y-100399537D01*
X94949800Y-100613263D01*
X94991496Y-100822883D01*
X95073285Y-101020340D01*
X95192025Y-101198047D01*
X95343153Y-101349175D01*
X95520860Y-101467915D01*
X95718317Y-101549704D01*
X95927937Y-101591400D01*
X96141663Y-101591400D01*
X96351283Y-101549704D01*
X96548740Y-101467915D01*
X96726447Y-101349175D01*
X96877575Y-101198047D01*
X96996315Y-101020340D01*
X97078104Y-100822883D01*
X97119800Y-100613263D01*
X97119800Y-100399537D01*
X97078104Y-100189917D01*
X96996315Y-99992460D01*
X96877575Y-99814753D01*
X96726447Y-99663625D01*
X96548740Y-99544885D01*
X96351283Y-99463096D01*
X96141663Y-99421400D01*
X95927937Y-99421400D01*
X95718317Y-99463096D01*
X95520860Y-99544885D01*
X95343153Y-99663625D01*
X95192025Y-99814753D01*
X95073285Y-99992460D01*
X94991496Y-100189917D01*
X94949800Y-100399537D01*
X87660000Y-100399537D01*
X87660000Y-97120000D01*
X91741928Y-97120000D01*
X91741928Y-98820000D01*
X91754188Y-98944482D01*
X91790498Y-99064180D01*
X91849463Y-99174494D01*
X91928815Y-99271185D01*
X92025506Y-99350537D01*
X92135820Y-99409502D01*
X92255518Y-99445812D01*
X92380000Y-99458072D01*
X94080000Y-99458072D01*
X94204482Y-99445812D01*
X94324180Y-99409502D01*
X94434494Y-99350537D01*
X94531185Y-99271185D01*
X94610537Y-99174494D01*
X94669502Y-99064180D01*
X94705812Y-98944482D01*
X94718072Y-98820000D01*
X94718072Y-97838061D01*
X96135000Y-97838061D01*
X96135000Y-98041939D01*
X96174774Y-98241898D01*
X96252795Y-98430256D01*
X96366063Y-98599774D01*
X96510226Y-98743937D01*
X96679744Y-98857205D01*
X96868102Y-98935226D01*
X97068061Y-98975000D01*
X97271939Y-98975000D01*
X97471898Y-98935226D01*
X97660256Y-98857205D01*
X97829774Y-98743937D01*
X97973937Y-98599774D01*
X98087205Y-98430256D01*
X98165226Y-98241898D01*
X98205000Y-98041939D01*
X98205000Y-98038737D01*
X126448400Y-98038737D01*
X126448400Y-98252463D01*
X126490096Y-98462083D01*
X126548383Y-98602800D01*
X126490096Y-98743517D01*
X126448400Y-98953137D01*
X126448400Y-99166863D01*
X126490096Y-99376483D01*
X126571885Y-99573940D01*
X126690625Y-99751647D01*
X126841753Y-99902775D01*
X127019460Y-100021515D01*
X127216917Y-100103304D01*
X127426537Y-100145000D01*
X127640263Y-100145000D01*
X127849883Y-100103304D01*
X128047340Y-100021515D01*
X128225047Y-99902775D01*
X128376175Y-99751647D01*
X128418836Y-99687800D01*
X128453063Y-99687800D01*
X128662683Y-99646104D01*
X128860140Y-99564315D01*
X129037847Y-99445575D01*
X129188975Y-99294447D01*
X129307715Y-99116740D01*
X129352399Y-99008861D01*
X136658400Y-99008861D01*
X136658400Y-99212739D01*
X136698174Y-99412698D01*
X136776195Y-99601056D01*
X136889463Y-99770574D01*
X137033626Y-99914737D01*
X137203144Y-100028005D01*
X137391502Y-100106026D01*
X137591461Y-100145800D01*
X137795339Y-100145800D01*
X137995298Y-100106026D01*
X138183656Y-100028005D01*
X138353174Y-99914737D01*
X138497337Y-99770574D01*
X138610605Y-99601056D01*
X138688626Y-99412698D01*
X138728400Y-99212739D01*
X138728400Y-99008861D01*
X138688626Y-98808902D01*
X138610605Y-98620544D01*
X138497337Y-98451026D01*
X138353174Y-98306863D01*
X138183656Y-98193595D01*
X137995298Y-98115574D01*
X137795339Y-98075800D01*
X137591461Y-98075800D01*
X137391502Y-98115574D01*
X137203144Y-98193595D01*
X137033626Y-98306863D01*
X136889463Y-98451026D01*
X136776195Y-98620544D01*
X136698174Y-98808902D01*
X136658400Y-99008861D01*
X129352399Y-99008861D01*
X129389504Y-98919283D01*
X129431200Y-98709663D01*
X129431200Y-98495937D01*
X129389504Y-98286317D01*
X129307715Y-98088860D01*
X129188975Y-97911153D01*
X129037847Y-97760025D01*
X128860140Y-97641285D01*
X128662683Y-97559496D01*
X128453063Y-97517800D01*
X128418836Y-97517800D01*
X128376175Y-97453953D01*
X128225047Y-97302825D01*
X128047340Y-97184085D01*
X127849883Y-97102296D01*
X127640263Y-97060600D01*
X127426537Y-97060600D01*
X127216917Y-97102296D01*
X127019460Y-97184085D01*
X126841753Y-97302825D01*
X126690625Y-97453953D01*
X126571885Y-97631660D01*
X126490096Y-97829117D01*
X126448400Y-98038737D01*
X98205000Y-98038737D01*
X98205000Y-97838061D01*
X98165226Y-97638102D01*
X98087205Y-97449744D01*
X97973937Y-97280226D01*
X97829774Y-97136063D01*
X97660256Y-97022795D01*
X97471898Y-96944774D01*
X97271939Y-96905000D01*
X97068061Y-96905000D01*
X96868102Y-96944774D01*
X96679744Y-97022795D01*
X96510226Y-97136063D01*
X96366063Y-97280226D01*
X96252795Y-97449744D01*
X96174774Y-97638102D01*
X96135000Y-97838061D01*
X94718072Y-97838061D01*
X94718072Y-97120000D01*
X94705812Y-96995518D01*
X94669502Y-96875820D01*
X94610537Y-96765506D01*
X94596385Y-96748261D01*
X136602818Y-96748261D01*
X136602818Y-96952139D01*
X136642592Y-97152098D01*
X136720613Y-97340456D01*
X136833881Y-97509974D01*
X136978044Y-97654137D01*
X137147562Y-97767405D01*
X137335920Y-97845426D01*
X137535879Y-97885200D01*
X137739757Y-97885200D01*
X137939716Y-97845426D01*
X138128074Y-97767405D01*
X138297592Y-97654137D01*
X138441755Y-97509974D01*
X138555023Y-97340456D01*
X138633044Y-97152098D01*
X138672818Y-96952139D01*
X138672818Y-96748261D01*
X138633044Y-96548302D01*
X138555023Y-96359944D01*
X138441755Y-96190426D01*
X138297592Y-96046263D01*
X138128074Y-95932995D01*
X137939716Y-95854974D01*
X137739757Y-95815200D01*
X137535879Y-95815200D01*
X137335920Y-95854974D01*
X137147562Y-95932995D01*
X136978044Y-96046263D01*
X136833881Y-96190426D01*
X136720613Y-96359944D01*
X136642592Y-96548302D01*
X136602818Y-96748261D01*
X94596385Y-96748261D01*
X94531185Y-96668815D01*
X94434494Y-96589463D01*
X94324180Y-96530498D01*
X94251620Y-96508487D01*
X94383475Y-96376632D01*
X94545990Y-96133411D01*
X94657932Y-95863158D01*
X94715000Y-95576260D01*
X94715000Y-95348061D01*
X96135000Y-95348061D01*
X96135000Y-95551939D01*
X96174774Y-95751898D01*
X96252795Y-95940256D01*
X96366063Y-96109774D01*
X96510226Y-96253937D01*
X96679744Y-96367205D01*
X96868102Y-96445226D01*
X97068061Y-96485000D01*
X97271939Y-96485000D01*
X97471898Y-96445226D01*
X97660256Y-96367205D01*
X97829774Y-96253937D01*
X97973937Y-96109774D01*
X98087205Y-95940256D01*
X98165226Y-95751898D01*
X98205000Y-95551939D01*
X98205000Y-95348061D01*
X98165226Y-95148102D01*
X98087205Y-94959744D01*
X97973937Y-94790226D01*
X97829774Y-94646063D01*
X97660256Y-94532795D01*
X97471898Y-94454774D01*
X97271939Y-94415000D01*
X97068061Y-94415000D01*
X96868102Y-94454774D01*
X96679744Y-94532795D01*
X96510226Y-94646063D01*
X96366063Y-94790226D01*
X96252795Y-94959744D01*
X96174774Y-95148102D01*
X96135000Y-95348061D01*
X94715000Y-95348061D01*
X94715000Y-95283740D01*
X94657932Y-94996842D01*
X94545990Y-94726589D01*
X94383475Y-94483368D01*
X94176632Y-94276525D01*
X93933411Y-94114010D01*
X93663158Y-94002068D01*
X93376260Y-93945000D01*
X93083740Y-93945000D01*
X92796842Y-94002068D01*
X92526589Y-94114010D01*
X92283368Y-94276525D01*
X92076525Y-94483368D01*
X91914010Y-94726589D01*
X91802068Y-94996842D01*
X91745000Y-95283740D01*
X91745000Y-95576260D01*
X91802068Y-95863158D01*
X91914010Y-96133411D01*
X92076525Y-96376632D01*
X92208380Y-96508487D01*
X92135820Y-96530498D01*
X92025506Y-96589463D01*
X91928815Y-96668815D01*
X91849463Y-96765506D01*
X91790498Y-96875820D01*
X91754188Y-96995518D01*
X91741928Y-97120000D01*
X87660000Y-97120000D01*
X87660000Y-92614155D01*
X89265450Y-92614155D01*
X89661634Y-93134550D01*
X90376612Y-93524748D01*
X91153976Y-93767964D01*
X91963853Y-93854851D01*
X92775118Y-93782069D01*
X93556597Y-93552415D01*
X94278256Y-93174715D01*
X94338366Y-93134550D01*
X94579313Y-92818061D01*
X95095000Y-92818061D01*
X95095000Y-93021939D01*
X95134774Y-93221898D01*
X95212795Y-93410256D01*
X95326063Y-93579774D01*
X95470226Y-93723937D01*
X95639744Y-93837205D01*
X95828102Y-93915226D01*
X96028061Y-93955000D01*
X96231939Y-93955000D01*
X96431898Y-93915226D01*
X96620256Y-93837205D01*
X96789774Y-93723937D01*
X96933937Y-93579774D01*
X97047205Y-93410256D01*
X97125226Y-93221898D01*
X97165000Y-93021939D01*
X97165000Y-92818061D01*
X97125226Y-92618102D01*
X97123592Y-92614155D01*
X139265450Y-92614155D01*
X139661634Y-93134550D01*
X140376612Y-93524748D01*
X141153976Y-93767964D01*
X141963853Y-93854851D01*
X142775118Y-93782069D01*
X143556597Y-93552415D01*
X144278256Y-93174715D01*
X144338366Y-93134550D01*
X144734550Y-92614155D01*
X142000000Y-89879605D01*
X139265450Y-92614155D01*
X97123592Y-92614155D01*
X97047205Y-92429744D01*
X96933937Y-92260226D01*
X96789774Y-92116063D01*
X96620256Y-92002795D01*
X96431898Y-91924774D01*
X96231939Y-91885000D01*
X96028061Y-91885000D01*
X95828102Y-91924774D01*
X95639744Y-92002795D01*
X95470226Y-92116063D01*
X95326063Y-92260226D01*
X95212795Y-92429744D01*
X95134774Y-92618102D01*
X95095000Y-92818061D01*
X94579313Y-92818061D01*
X94734550Y-92614155D01*
X92000000Y-89879605D01*
X89265450Y-92614155D01*
X87660000Y-92614155D01*
X87660000Y-89729392D01*
X87665849Y-89663853D01*
X87845149Y-89663853D01*
X87917931Y-90475118D01*
X88147585Y-91256597D01*
X88525285Y-91978256D01*
X88565450Y-92038366D01*
X89085845Y-92434550D01*
X91820395Y-89700000D01*
X92179605Y-89700000D01*
X94914155Y-92434550D01*
X95434550Y-92038366D01*
X95824748Y-91323388D01*
X96067964Y-90546024D01*
X96154851Y-89736147D01*
X96136693Y-89533740D01*
X97345000Y-89533740D01*
X97345000Y-89826260D01*
X97402068Y-90113158D01*
X97514010Y-90383411D01*
X97676525Y-90626632D01*
X97883368Y-90833475D01*
X98126589Y-90995990D01*
X98396842Y-91107932D01*
X98683740Y-91165000D01*
X98976260Y-91165000D01*
X99263158Y-91107932D01*
X99533411Y-90995990D01*
X99776632Y-90833475D01*
X99983475Y-90626632D01*
X100100000Y-90452240D01*
X100216525Y-90626632D01*
X100423368Y-90833475D01*
X100666589Y-90995990D01*
X100936842Y-91107932D01*
X101223740Y-91165000D01*
X101516260Y-91165000D01*
X101803158Y-91107932D01*
X102073411Y-90995990D01*
X102316632Y-90833475D01*
X102523475Y-90626632D01*
X102640000Y-90452240D01*
X102756525Y-90626632D01*
X102963368Y-90833475D01*
X103206589Y-90995990D01*
X103476842Y-91107932D01*
X103763740Y-91165000D01*
X104056260Y-91165000D01*
X104343158Y-91107932D01*
X104613411Y-90995990D01*
X104856632Y-90833475D01*
X105063475Y-90626632D01*
X105180000Y-90452240D01*
X105296525Y-90626632D01*
X105503368Y-90833475D01*
X105746589Y-90995990D01*
X106016842Y-91107932D01*
X106303740Y-91165000D01*
X106596260Y-91165000D01*
X106883158Y-91107932D01*
X107153411Y-90995990D01*
X107396632Y-90833475D01*
X107603475Y-90626632D01*
X107720000Y-90452240D01*
X107836525Y-90626632D01*
X108043368Y-90833475D01*
X108286589Y-90995990D01*
X108556842Y-91107932D01*
X108843740Y-91165000D01*
X109136260Y-91165000D01*
X109423158Y-91107932D01*
X109693411Y-90995990D01*
X109936632Y-90833475D01*
X110143475Y-90626632D01*
X110260000Y-90452240D01*
X110376525Y-90626632D01*
X110583368Y-90833475D01*
X110826589Y-90995990D01*
X111096842Y-91107932D01*
X111383740Y-91165000D01*
X111676260Y-91165000D01*
X111963158Y-91107932D01*
X112233411Y-90995990D01*
X112476632Y-90833475D01*
X112683475Y-90626632D01*
X112800000Y-90452240D01*
X112916525Y-90626632D01*
X113123368Y-90833475D01*
X113366589Y-90995990D01*
X113636842Y-91107932D01*
X113923740Y-91165000D01*
X114216260Y-91165000D01*
X114503158Y-91107932D01*
X114773411Y-90995990D01*
X115016632Y-90833475D01*
X115223475Y-90626632D01*
X115340000Y-90452240D01*
X115456525Y-90626632D01*
X115663368Y-90833475D01*
X115906589Y-90995990D01*
X116176842Y-91107932D01*
X116463740Y-91165000D01*
X116756260Y-91165000D01*
X117043158Y-91107932D01*
X117313411Y-90995990D01*
X117556632Y-90833475D01*
X117763475Y-90626632D01*
X117880000Y-90452240D01*
X117996525Y-90626632D01*
X118203368Y-90833475D01*
X118446589Y-90995990D01*
X118716842Y-91107932D01*
X119003740Y-91165000D01*
X119296260Y-91165000D01*
X119583158Y-91107932D01*
X119853411Y-90995990D01*
X120096632Y-90833475D01*
X120228487Y-90701620D01*
X120250498Y-90774180D01*
X120309463Y-90884494D01*
X120388815Y-90981185D01*
X120485506Y-91060537D01*
X120595820Y-91119502D01*
X120715518Y-91155812D01*
X120840000Y-91168072D01*
X122540000Y-91168072D01*
X122664482Y-91155812D01*
X122784180Y-91119502D01*
X122894494Y-91060537D01*
X122991185Y-90981185D01*
X123070537Y-90884494D01*
X123129502Y-90774180D01*
X123165812Y-90654482D01*
X123178072Y-90530000D01*
X123178072Y-90469537D01*
X123984600Y-90469537D01*
X123984600Y-90683263D01*
X124026296Y-90892883D01*
X124089843Y-91046300D01*
X124026296Y-91199717D01*
X123984600Y-91409337D01*
X123984600Y-91623063D01*
X124026296Y-91832683D01*
X124108085Y-92030140D01*
X124226825Y-92207847D01*
X124377953Y-92358975D01*
X124555660Y-92477715D01*
X124753117Y-92559504D01*
X124962737Y-92601200D01*
X125176463Y-92601200D01*
X125386083Y-92559504D01*
X125539500Y-92495957D01*
X125692917Y-92559504D01*
X125902537Y-92601200D01*
X126116263Y-92601200D01*
X126325883Y-92559504D01*
X126523340Y-92477715D01*
X126701047Y-92358975D01*
X126852175Y-92207847D01*
X126970915Y-92030140D01*
X127052704Y-91832683D01*
X127094400Y-91623063D01*
X127094400Y-91409337D01*
X127052704Y-91199717D01*
X126989157Y-91046300D01*
X127052704Y-90892883D01*
X127094400Y-90683263D01*
X127094400Y-90469537D01*
X127052704Y-90259917D01*
X126970915Y-90062460D01*
X126852175Y-89884753D01*
X126701047Y-89733625D01*
X126596626Y-89663853D01*
X137845149Y-89663853D01*
X137917931Y-90475118D01*
X138147585Y-91256597D01*
X138525285Y-91978256D01*
X138565450Y-92038366D01*
X139085845Y-92434550D01*
X141820395Y-89700000D01*
X142179605Y-89700000D01*
X144914155Y-92434550D01*
X145434550Y-92038366D01*
X145824748Y-91323388D01*
X146067964Y-90546024D01*
X146154851Y-89736147D01*
X146082069Y-88924882D01*
X145852415Y-88143403D01*
X145474715Y-87421744D01*
X145434550Y-87361634D01*
X144914155Y-86965450D01*
X142179605Y-89700000D01*
X141820395Y-89700000D01*
X139085845Y-86965450D01*
X138565450Y-87361634D01*
X138175252Y-88076612D01*
X137932036Y-88853976D01*
X137845149Y-89663853D01*
X126596626Y-89663853D01*
X126523340Y-89614885D01*
X126325883Y-89533096D01*
X126116263Y-89491400D01*
X125902537Y-89491400D01*
X125692917Y-89533096D01*
X125539500Y-89596643D01*
X125386083Y-89533096D01*
X125176463Y-89491400D01*
X124962737Y-89491400D01*
X124753117Y-89533096D01*
X124555660Y-89614885D01*
X124377953Y-89733625D01*
X124226825Y-89884753D01*
X124108085Y-90062460D01*
X124026296Y-90259917D01*
X123984600Y-90469537D01*
X123178072Y-90469537D01*
X123178072Y-88830000D01*
X123165812Y-88705518D01*
X123129502Y-88585820D01*
X123070537Y-88475506D01*
X122991185Y-88378815D01*
X122894494Y-88299463D01*
X122784180Y-88240498D01*
X122664482Y-88204188D01*
X122540000Y-88191928D01*
X120840000Y-88191928D01*
X120715518Y-88204188D01*
X120595820Y-88240498D01*
X120485506Y-88299463D01*
X120388815Y-88378815D01*
X120309463Y-88475506D01*
X120250498Y-88585820D01*
X120228487Y-88658380D01*
X120096632Y-88526525D01*
X119853411Y-88364010D01*
X119583158Y-88252068D01*
X119296260Y-88195000D01*
X119003740Y-88195000D01*
X118716842Y-88252068D01*
X118446589Y-88364010D01*
X118203368Y-88526525D01*
X117996525Y-88733368D01*
X117880000Y-88907760D01*
X117763475Y-88733368D01*
X117556632Y-88526525D01*
X117313411Y-88364010D01*
X117043158Y-88252068D01*
X116756260Y-88195000D01*
X116463740Y-88195000D01*
X116176842Y-88252068D01*
X115906589Y-88364010D01*
X115663368Y-88526525D01*
X115456525Y-88733368D01*
X115340000Y-88907760D01*
X115223475Y-88733368D01*
X115016632Y-88526525D01*
X114773411Y-88364010D01*
X114503158Y-88252068D01*
X114216260Y-88195000D01*
X113923740Y-88195000D01*
X113636842Y-88252068D01*
X113366589Y-88364010D01*
X113123368Y-88526525D01*
X112916525Y-88733368D01*
X112800000Y-88907760D01*
X112683475Y-88733368D01*
X112476632Y-88526525D01*
X112233411Y-88364010D01*
X111963158Y-88252068D01*
X111676260Y-88195000D01*
X111383740Y-88195000D01*
X111096842Y-88252068D01*
X110826589Y-88364010D01*
X110583368Y-88526525D01*
X110376525Y-88733368D01*
X110260000Y-88907760D01*
X110143475Y-88733368D01*
X109936632Y-88526525D01*
X109693411Y-88364010D01*
X109423158Y-88252068D01*
X109136260Y-88195000D01*
X108843740Y-88195000D01*
X108556842Y-88252068D01*
X108286589Y-88364010D01*
X108043368Y-88526525D01*
X107836525Y-88733368D01*
X107720000Y-88907760D01*
X107603475Y-88733368D01*
X107396632Y-88526525D01*
X107153411Y-88364010D01*
X106883158Y-88252068D01*
X106596260Y-88195000D01*
X106303740Y-88195000D01*
X106016842Y-88252068D01*
X105746589Y-88364010D01*
X105503368Y-88526525D01*
X105296525Y-88733368D01*
X105180000Y-88907760D01*
X105063475Y-88733368D01*
X104856632Y-88526525D01*
X104613411Y-88364010D01*
X104343158Y-88252068D01*
X104056260Y-88195000D01*
X103763740Y-88195000D01*
X103476842Y-88252068D01*
X103206589Y-88364010D01*
X102963368Y-88526525D01*
X102756525Y-88733368D01*
X102640000Y-88907760D01*
X102523475Y-88733368D01*
X102316632Y-88526525D01*
X102073411Y-88364010D01*
X101803158Y-88252068D01*
X101516260Y-88195000D01*
X101223740Y-88195000D01*
X100936842Y-88252068D01*
X100666589Y-88364010D01*
X100423368Y-88526525D01*
X100216525Y-88733368D01*
X100100000Y-88907760D01*
X99983475Y-88733368D01*
X99776632Y-88526525D01*
X99533411Y-88364010D01*
X99263158Y-88252068D01*
X98976260Y-88195000D01*
X98683740Y-88195000D01*
X98396842Y-88252068D01*
X98126589Y-88364010D01*
X97883368Y-88526525D01*
X97676525Y-88733368D01*
X97514010Y-88976589D01*
X97402068Y-89246842D01*
X97345000Y-89533740D01*
X96136693Y-89533740D01*
X96082069Y-88924882D01*
X95852415Y-88143403D01*
X95474715Y-87421744D01*
X95434550Y-87361634D01*
X94914155Y-86965450D01*
X92179605Y-89700000D01*
X91820395Y-89700000D01*
X89085845Y-86965450D01*
X88565450Y-87361634D01*
X88175252Y-88076612D01*
X87932036Y-88853976D01*
X87845149Y-89663853D01*
X87665849Y-89663853D01*
X87731173Y-88931917D01*
X87934656Y-88188109D01*
X88266638Y-87492095D01*
X88716626Y-86865870D01*
X88799205Y-86785845D01*
X89265450Y-86785845D01*
X92000000Y-89520395D01*
X94734550Y-86785845D01*
X139265450Y-86785845D01*
X142000000Y-89520395D01*
X144734550Y-86785845D01*
X144338366Y-86265450D01*
X143623388Y-85875252D01*
X142846024Y-85632036D01*
X142036147Y-85545149D01*
X141224882Y-85617931D01*
X140443403Y-85847585D01*
X139721744Y-86225285D01*
X139661634Y-86265450D01*
X139265450Y-86785845D01*
X94734550Y-86785845D01*
X94338366Y-86265450D01*
X93623388Y-85875252D01*
X92846024Y-85632036D01*
X92036147Y-85545149D01*
X91224882Y-85617931D01*
X90443403Y-85847585D01*
X89721744Y-86225285D01*
X89661634Y-86265450D01*
X89265450Y-86785845D01*
X88799205Y-86785845D01*
X89270403Y-86329223D01*
X89910451Y-85899129D01*
X90616553Y-85589171D01*
X91371457Y-85407935D01*
X92024207Y-85360000D01*
X141970608Y-85360000D01*
X142768083Y-85431173D01*
G37*
X142768083Y-85431173D02*
X143511891Y-85634656D01*
X144207905Y-85966638D01*
X144834130Y-86416626D01*
X145370777Y-86970403D01*
X145800871Y-87610451D01*
X146110829Y-88316553D01*
X146292065Y-89071457D01*
X146340001Y-89724220D01*
X146340000Y-94492067D01*
X146222499Y-94456423D01*
X146055752Y-94440000D01*
X145044248Y-94440000D01*
X144877501Y-94456423D01*
X144663553Y-94521324D01*
X144466377Y-94626716D01*
X144293551Y-94768551D01*
X144151716Y-94941377D01*
X144046324Y-95138553D01*
X143981423Y-95352501D01*
X143959509Y-95575000D01*
X143970720Y-95688833D01*
X143967539Y-95688200D01*
X143763661Y-95688200D01*
X143563702Y-95727974D01*
X143375344Y-95805995D01*
X143205826Y-95919263D01*
X143061663Y-96063426D01*
X142948395Y-96232944D01*
X142885700Y-96384303D01*
X142877400Y-96381785D01*
X142706979Y-96365000D01*
X142393021Y-96365000D01*
X142222600Y-96381785D01*
X142003940Y-96448115D01*
X141802421Y-96555829D01*
X141625788Y-96700788D01*
X141480829Y-96877421D01*
X141373115Y-97078940D01*
X141306785Y-97297600D01*
X141284388Y-97525000D01*
X141306785Y-97752400D01*
X141373115Y-97971060D01*
X141480829Y-98172579D01*
X141625788Y-98349212D01*
X141802421Y-98494171D01*
X142003940Y-98601885D01*
X142222600Y-98668215D01*
X142393021Y-98685000D01*
X142706979Y-98685000D01*
X142877400Y-98668215D01*
X143096060Y-98601885D01*
X143168878Y-98562963D01*
X143133800Y-98739311D01*
X143133800Y-98923489D01*
X143169732Y-99104129D01*
X143183016Y-99136200D01*
X143169732Y-99168271D01*
X143133800Y-99348911D01*
X143133800Y-99533089D01*
X143169732Y-99713729D01*
X143240214Y-99883889D01*
X143342538Y-100037028D01*
X143472772Y-100167262D01*
X143625911Y-100269586D01*
X143796071Y-100340068D01*
X143976711Y-100376000D01*
X144160889Y-100376000D01*
X144341529Y-100340068D01*
X144511689Y-100269586D01*
X144664828Y-100167262D01*
X144795062Y-100037028D01*
X144897386Y-99883889D01*
X144967868Y-99713729D01*
X145003800Y-99533089D01*
X145003800Y-99348911D01*
X144967868Y-99168271D01*
X144954584Y-99136200D01*
X144967868Y-99104129D01*
X145003800Y-98923489D01*
X145003800Y-98739311D01*
X144967868Y-98558671D01*
X144897386Y-98388511D01*
X144856101Y-98326723D01*
X144859810Y-98329263D01*
X144868223Y-98333812D01*
X144941459Y-98372752D01*
X144998866Y-98396413D01*
X145055920Y-98420867D01*
X145065054Y-98423694D01*
X145065061Y-98423697D01*
X145065069Y-98423699D01*
X145144461Y-98447669D01*
X145205337Y-98459723D01*
X145266095Y-98472637D01*
X145275607Y-98473637D01*
X145358157Y-98481731D01*
X145358163Y-98481731D01*
X145391353Y-98485000D01*
X146315001Y-98485000D01*
X146315000Y-101015000D01*
X145391353Y-101015000D01*
X145357737Y-101018311D01*
X145352220Y-101018311D01*
X145342708Y-101019310D01*
X145307523Y-101023257D01*
X145290717Y-101024912D01*
X145289515Y-101025277D01*
X145260280Y-101028556D01*
X145199514Y-101041472D01*
X145138654Y-101053523D01*
X145129518Y-101056351D01*
X145129512Y-101056352D01*
X145129507Y-101056354D01*
X145050454Y-101081431D01*
X144993382Y-101105892D01*
X144935984Y-101129550D01*
X144927578Y-101134095D01*
X144927575Y-101134096D01*
X144927573Y-101134097D01*
X144927570Y-101134099D01*
X144854884Y-101174059D01*
X144803653Y-101209138D01*
X144751951Y-101243489D01*
X144744581Y-101249585D01*
X144681041Y-101302901D01*
X144637602Y-101347259D01*
X144593546Y-101391009D01*
X144587501Y-101398421D01*
X144535527Y-101463064D01*
X144501542Y-101514999D01*
X144466816Y-101566483D01*
X144462326Y-101574928D01*
X144423898Y-101648434D01*
X144400640Y-101705999D01*
X144376582Y-101763232D01*
X144373817Y-101772388D01*
X144350398Y-101851959D01*
X144338760Y-101912969D01*
X144326281Y-101973758D01*
X144325347Y-101983276D01*
X144317830Y-102065880D01*
X144318263Y-102127968D01*
X144317830Y-102190057D01*
X144318763Y-102199576D01*
X144327434Y-102282066D01*
X144339920Y-102342891D01*
X144351550Y-102403857D01*
X144354314Y-102413013D01*
X144378841Y-102492249D01*
X144402894Y-102549469D01*
X144426159Y-102607052D01*
X144430649Y-102615497D01*
X144470100Y-102688460D01*
X144504821Y-102739936D01*
X144538810Y-102791877D01*
X144544854Y-102799289D01*
X144597726Y-102863200D01*
X144626078Y-102891355D01*
X144466377Y-102976716D01*
X144293551Y-103118551D01*
X144151716Y-103291377D01*
X144046324Y-103488553D01*
X143981423Y-103702501D01*
X143959509Y-103925000D01*
X143981423Y-104147499D01*
X144046324Y-104361447D01*
X144151716Y-104558623D01*
X144293551Y-104731449D01*
X144466377Y-104873284D01*
X144663553Y-104978676D01*
X144877501Y-105043577D01*
X145044248Y-105060000D01*
X146055752Y-105060000D01*
X146222499Y-105043577D01*
X146340001Y-105007933D01*
X146340000Y-124670608D01*
X146268827Y-125468083D01*
X146065344Y-126211890D01*
X145733363Y-126907904D01*
X145283374Y-127534130D01*
X144729597Y-128070777D01*
X144089549Y-128500871D01*
X143383447Y-128810829D01*
X142628543Y-128992065D01*
X141975793Y-129040000D01*
X92029392Y-129040000D01*
X91231917Y-128968827D01*
X90488110Y-128765344D01*
X89792096Y-128433363D01*
X89165870Y-127983374D01*
X88808073Y-127614155D01*
X89265450Y-127614155D01*
X89661634Y-128134550D01*
X90376612Y-128524748D01*
X91153976Y-128767964D01*
X91963853Y-128854851D01*
X92775118Y-128782069D01*
X93556597Y-128552415D01*
X94278256Y-128174715D01*
X94338366Y-128134550D01*
X94734550Y-127614155D01*
X139265450Y-127614155D01*
X139661634Y-128134550D01*
X140376612Y-128524748D01*
X141153976Y-128767964D01*
X141963853Y-128854851D01*
X142775118Y-128782069D01*
X143556597Y-128552415D01*
X144278256Y-128174715D01*
X144338366Y-128134550D01*
X144734550Y-127614155D01*
X142000000Y-124879605D01*
X139265450Y-127614155D01*
X94734550Y-127614155D01*
X92000000Y-124879605D01*
X89265450Y-127614155D01*
X88808073Y-127614155D01*
X88629223Y-127429597D01*
X88199129Y-126789549D01*
X87889171Y-126083447D01*
X87707935Y-125328543D01*
X87660000Y-124675793D01*
X87660000Y-124663853D01*
X87845149Y-124663853D01*
X87917931Y-125475118D01*
X88147585Y-126256597D01*
X88525285Y-126978256D01*
X88565450Y-127038366D01*
X89085845Y-127434550D01*
X91820395Y-124700000D01*
X92179605Y-124700000D01*
X94914155Y-127434550D01*
X95434550Y-127038366D01*
X95824748Y-126323388D01*
X96067964Y-125546024D01*
X96154851Y-124736147D01*
X96129196Y-124450173D01*
X118245000Y-124450173D01*
X118245000Y-124929827D01*
X118338576Y-125400263D01*
X118522131Y-125843405D01*
X118788612Y-126242222D01*
X119127778Y-126581388D01*
X119526595Y-126847869D01*
X119969737Y-127031424D01*
X120440173Y-127125000D01*
X120919827Y-127125000D01*
X121390263Y-127031424D01*
X121833405Y-126847869D01*
X122232222Y-126581388D01*
X122571388Y-126242222D01*
X122837869Y-125843405D01*
X123021424Y-125400263D01*
X123115000Y-124929827D01*
X123115000Y-124663853D01*
X137845149Y-124663853D01*
X137917931Y-125475118D01*
X138147585Y-126256597D01*
X138525285Y-126978256D01*
X138565450Y-127038366D01*
X139085845Y-127434550D01*
X141820395Y-124700000D01*
X142179605Y-124700000D01*
X144914155Y-127434550D01*
X145434550Y-127038366D01*
X145824748Y-126323388D01*
X146067964Y-125546024D01*
X146154851Y-124736147D01*
X146082069Y-123924882D01*
X145852415Y-123143403D01*
X145474715Y-122421744D01*
X145434550Y-122361634D01*
X144914155Y-121965450D01*
X142179605Y-124700000D01*
X141820395Y-124700000D01*
X139085845Y-121965450D01*
X138565450Y-122361634D01*
X138175252Y-123076612D01*
X137932036Y-123853976D01*
X137845149Y-124663853D01*
X123115000Y-124663853D01*
X123115000Y-124450173D01*
X123021424Y-123979737D01*
X122837869Y-123536595D01*
X122571388Y-123137778D01*
X122232222Y-122798612D01*
X122041742Y-122671337D01*
X125278400Y-122671337D01*
X125278400Y-122885063D01*
X125320096Y-123094683D01*
X125401885Y-123292140D01*
X125520625Y-123469847D01*
X125671753Y-123620975D01*
X125849460Y-123739715D01*
X126046917Y-123821504D01*
X126256537Y-123863200D01*
X126470263Y-123863200D01*
X126679883Y-123821504D01*
X126877340Y-123739715D01*
X127055047Y-123620975D01*
X127206175Y-123469847D01*
X127324915Y-123292140D01*
X127406704Y-123094683D01*
X127448400Y-122885063D01*
X127448400Y-122671337D01*
X127406704Y-122461717D01*
X127324915Y-122264260D01*
X127206175Y-122086553D01*
X127055047Y-121935425D01*
X126877340Y-121816685D01*
X126802886Y-121785845D01*
X139265450Y-121785845D01*
X142000000Y-124520395D01*
X144734550Y-121785845D01*
X144338366Y-121265450D01*
X143623388Y-120875252D01*
X142846024Y-120632036D01*
X142036147Y-120545149D01*
X141224882Y-120617931D01*
X140443403Y-120847585D01*
X139721744Y-121225285D01*
X139661634Y-121265450D01*
X139265450Y-121785845D01*
X126802886Y-121785845D01*
X126679883Y-121734896D01*
X126470263Y-121693200D01*
X126256537Y-121693200D01*
X126046917Y-121734896D01*
X125849460Y-121816685D01*
X125671753Y-121935425D01*
X125520625Y-122086553D01*
X125401885Y-122264260D01*
X125320096Y-122461717D01*
X125278400Y-122671337D01*
X122041742Y-122671337D01*
X121833405Y-122532131D01*
X121390263Y-122348576D01*
X120919827Y-122255000D01*
X120440173Y-122255000D01*
X119969737Y-122348576D01*
X119526595Y-122532131D01*
X119127778Y-122798612D01*
X118788612Y-123137778D01*
X118522131Y-123536595D01*
X118338576Y-123979737D01*
X118245000Y-124450173D01*
X96129196Y-124450173D01*
X96082069Y-123924882D01*
X95969699Y-123542502D01*
X113512303Y-123542502D01*
X113583886Y-123786471D01*
X113839396Y-123907371D01*
X114113584Y-123976100D01*
X114395912Y-123990017D01*
X114675530Y-123948587D01*
X114941692Y-123853403D01*
X115066914Y-123786471D01*
X115138497Y-123542502D01*
X114325400Y-122729405D01*
X113512303Y-123542502D01*
X95969699Y-123542502D01*
X95852415Y-123143403D01*
X95578642Y-122620312D01*
X112885183Y-122620312D01*
X112926613Y-122899930D01*
X113021797Y-123166092D01*
X113088729Y-123291314D01*
X113332698Y-123362897D01*
X114145795Y-122549800D01*
X114505005Y-122549800D01*
X115318102Y-123362897D01*
X115562071Y-123291314D01*
X115682971Y-123035804D01*
X115751700Y-122761616D01*
X115765617Y-122479288D01*
X115724187Y-122199670D01*
X115629003Y-121933508D01*
X115562071Y-121808286D01*
X115318102Y-121736703D01*
X114505005Y-122549800D01*
X114145795Y-122549800D01*
X113332698Y-121736703D01*
X113088729Y-121808286D01*
X112967829Y-122063796D01*
X112899100Y-122337984D01*
X112885183Y-122620312D01*
X95578642Y-122620312D01*
X95474715Y-122421744D01*
X95434550Y-122361634D01*
X94914155Y-121965450D01*
X92179605Y-124700000D01*
X91820395Y-124700000D01*
X89085845Y-121965450D01*
X88565450Y-122361634D01*
X88175252Y-123076612D01*
X87932036Y-123853976D01*
X87845149Y-124663853D01*
X87660000Y-124663853D01*
X87660000Y-121785845D01*
X89265450Y-121785845D01*
X92000000Y-124520395D01*
X94734550Y-121785845D01*
X94560402Y-121557098D01*
X113512303Y-121557098D01*
X114325400Y-122370195D01*
X115138497Y-121557098D01*
X115066914Y-121313129D01*
X114811404Y-121192229D01*
X114537216Y-121123500D01*
X114254888Y-121109583D01*
X113975270Y-121151013D01*
X113709108Y-121246197D01*
X113583886Y-121313129D01*
X113512303Y-121557098D01*
X94560402Y-121557098D01*
X94338366Y-121265450D01*
X93623388Y-120875252D01*
X92846024Y-120632036D01*
X92036147Y-120545149D01*
X91224882Y-120617931D01*
X90443403Y-120847585D01*
X89721744Y-121225285D01*
X89661634Y-121265450D01*
X89265450Y-121785845D01*
X87660000Y-121785845D01*
X87660000Y-118249800D01*
X112887328Y-118249800D01*
X112887328Y-119849800D01*
X112899588Y-119974282D01*
X112935898Y-120093980D01*
X112994863Y-120204294D01*
X113074215Y-120300985D01*
X113170906Y-120380337D01*
X113281220Y-120439302D01*
X113400918Y-120475612D01*
X113525400Y-120487872D01*
X115125400Y-120487872D01*
X115249882Y-120475612D01*
X115369580Y-120439302D01*
X115479894Y-120380337D01*
X115576585Y-120300985D01*
X115655937Y-120204294D01*
X115714902Y-120093980D01*
X115751212Y-119974282D01*
X115763472Y-119849800D01*
X115763472Y-119547911D01*
X128745000Y-119547911D01*
X128745000Y-119732089D01*
X128780932Y-119912729D01*
X128851414Y-120082889D01*
X128953738Y-120236028D01*
X129083972Y-120366262D01*
X129237111Y-120468586D01*
X129407271Y-120539068D01*
X129587911Y-120575000D01*
X129772089Y-120575000D01*
X129952729Y-120539068D01*
X130122889Y-120468586D01*
X130276028Y-120366262D01*
X130406262Y-120236028D01*
X130508586Y-120082889D01*
X130579068Y-119912729D01*
X130615000Y-119732089D01*
X130615000Y-119547911D01*
X130579068Y-119367271D01*
X130508586Y-119197111D01*
X130406262Y-119043972D01*
X130276028Y-118913738D01*
X130122889Y-118811414D01*
X129952729Y-118740932D01*
X129772089Y-118705000D01*
X129587911Y-118705000D01*
X129407271Y-118740932D01*
X129237111Y-118811414D01*
X129083972Y-118913738D01*
X128953738Y-119043972D01*
X128851414Y-119197111D01*
X128780932Y-119367271D01*
X128745000Y-119547911D01*
X115763472Y-119547911D01*
X115763472Y-118249800D01*
X115751212Y-118125318D01*
X115714902Y-118005620D01*
X115655937Y-117895306D01*
X115576585Y-117798615D01*
X115479894Y-117719263D01*
X115369580Y-117660298D01*
X115249882Y-117623988D01*
X115125400Y-117611728D01*
X113525400Y-117611728D01*
X113400918Y-117623988D01*
X113281220Y-117660298D01*
X113170906Y-117719263D01*
X113074215Y-117798615D01*
X112994863Y-117895306D01*
X112935898Y-118005620D01*
X112899588Y-118125318D01*
X112887328Y-118249800D01*
X87660000Y-118249800D01*
X87660000Y-110523740D01*
X91745000Y-110523740D01*
X91745000Y-110816260D01*
X91802068Y-111103158D01*
X91914010Y-111373411D01*
X92076525Y-111616632D01*
X92283368Y-111823475D01*
X92526589Y-111985990D01*
X92796842Y-112097932D01*
X93083740Y-112155000D01*
X93376260Y-112155000D01*
X93663158Y-112097932D01*
X93933411Y-111985990D01*
X94176632Y-111823475D01*
X94383475Y-111616632D01*
X94545990Y-111373411D01*
X94657932Y-111103158D01*
X94704310Y-110870000D01*
X95873000Y-110870000D01*
X95873000Y-114920000D01*
X95875440Y-114944776D01*
X95882667Y-114968601D01*
X95894403Y-114990557D01*
X95910197Y-115009803D01*
X95929443Y-115025597D01*
X95951399Y-115037333D01*
X95975224Y-115044560D01*
X96000000Y-115047000D01*
X102300000Y-115047000D01*
X102324776Y-115044560D01*
X102348601Y-115037333D01*
X102359818Y-115031337D01*
X116364600Y-115031337D01*
X116364600Y-115245063D01*
X116406296Y-115454683D01*
X116480364Y-115633500D01*
X116406296Y-115812317D01*
X116364600Y-116021937D01*
X116364600Y-116235663D01*
X116406296Y-116445283D01*
X116488085Y-116642740D01*
X116606825Y-116820447D01*
X116757953Y-116971575D01*
X116935660Y-117090315D01*
X117133117Y-117172104D01*
X117342737Y-117213800D01*
X117478564Y-117213800D01*
X117521225Y-117277647D01*
X117672353Y-117428775D01*
X117850060Y-117547515D01*
X118047517Y-117629304D01*
X118257137Y-117671000D01*
X118470863Y-117671000D01*
X118680483Y-117629304D01*
X118877940Y-117547515D01*
X119055647Y-117428775D01*
X119206775Y-117277647D01*
X119325515Y-117099940D01*
X119407304Y-116902483D01*
X119449000Y-116692863D01*
X119449000Y-116479137D01*
X119407304Y-116269517D01*
X119325796Y-116072739D01*
X119381904Y-115937283D01*
X119423600Y-115727663D01*
X119423600Y-115513937D01*
X119381904Y-115304317D01*
X119300115Y-115106860D01*
X119261655Y-115049300D01*
X119300115Y-114991740D01*
X119381904Y-114794283D01*
X119423600Y-114584663D01*
X119423600Y-114447137D01*
X119971400Y-114447137D01*
X119971400Y-114660863D01*
X120013096Y-114870483D01*
X120094885Y-115067940D01*
X120120588Y-115106407D01*
X120120285Y-115106860D01*
X120038496Y-115304317D01*
X119996800Y-115513937D01*
X119996800Y-115727663D01*
X120038496Y-115937283D01*
X120112564Y-116116100D01*
X120038496Y-116294917D01*
X119996800Y-116504537D01*
X119996800Y-116718263D01*
X120038496Y-116927883D01*
X120120285Y-117125340D01*
X120239025Y-117303047D01*
X120390153Y-117454175D01*
X120567860Y-117572915D01*
X120765317Y-117654704D01*
X120974937Y-117696400D01*
X121188663Y-117696400D01*
X121398283Y-117654704D01*
X121595740Y-117572915D01*
X121764470Y-117460173D01*
X140965000Y-117460173D01*
X140965000Y-117939827D01*
X141058576Y-118410263D01*
X141242131Y-118853405D01*
X141508612Y-119252222D01*
X141847778Y-119591388D01*
X142246595Y-119857869D01*
X142689737Y-120041424D01*
X143160173Y-120135000D01*
X143639827Y-120135000D01*
X144110263Y-120041424D01*
X144553405Y-119857869D01*
X144952222Y-119591388D01*
X145291388Y-119252222D01*
X145557869Y-118853405D01*
X145741424Y-118410263D01*
X145835000Y-117939827D01*
X145835000Y-117460173D01*
X145741424Y-116989737D01*
X145557869Y-116546595D01*
X145291388Y-116147778D01*
X144952222Y-115808612D01*
X144553405Y-115542131D01*
X144110263Y-115358576D01*
X143639827Y-115265000D01*
X143160173Y-115265000D01*
X142689737Y-115358576D01*
X142246595Y-115542131D01*
X141847778Y-115808612D01*
X141508612Y-116147778D01*
X141242131Y-116546595D01*
X141058576Y-116989737D01*
X140965000Y-117460173D01*
X121764470Y-117460173D01*
X121773447Y-117454175D01*
X121924575Y-117303047D01*
X122001180Y-117188400D01*
X122077663Y-117188400D01*
X122287283Y-117146704D01*
X122484740Y-117064915D01*
X122662447Y-116946175D01*
X122813575Y-116795047D01*
X122932315Y-116617340D01*
X123014104Y-116419883D01*
X123055800Y-116210263D01*
X123055800Y-115996537D01*
X123014104Y-115786917D01*
X122932315Y-115589460D01*
X122926168Y-115580260D01*
X122988704Y-115429283D01*
X123030400Y-115219663D01*
X123030400Y-115005937D01*
X122988704Y-114796317D01*
X122906915Y-114598860D01*
X122788175Y-114421153D01*
X122774933Y-114407911D01*
X133285000Y-114407911D01*
X133285000Y-114592089D01*
X133320932Y-114772729D01*
X133391414Y-114942889D01*
X133493738Y-115096028D01*
X133623972Y-115226262D01*
X133777111Y-115328586D01*
X133947271Y-115399068D01*
X134127911Y-115435000D01*
X134312089Y-115435000D01*
X134492729Y-115399068D01*
X134662889Y-115328586D01*
X134816028Y-115226262D01*
X134946262Y-115096028D01*
X135048586Y-114942889D01*
X135119068Y-114772729D01*
X135155000Y-114592089D01*
X135155000Y-114407911D01*
X135119068Y-114227271D01*
X135048586Y-114057111D01*
X134946262Y-113903972D01*
X134816028Y-113773738D01*
X134662889Y-113671414D01*
X134492729Y-113600932D01*
X134312089Y-113565000D01*
X134127911Y-113565000D01*
X133947271Y-113600932D01*
X133777111Y-113671414D01*
X133623972Y-113773738D01*
X133493738Y-113903972D01*
X133391414Y-114057111D01*
X133320932Y-114227271D01*
X133285000Y-114407911D01*
X122774933Y-114407911D01*
X122637047Y-114270025D01*
X122459340Y-114151285D01*
X122261883Y-114069496D01*
X122052263Y-114027800D01*
X122009723Y-114027800D01*
X121899175Y-113862353D01*
X121748047Y-113711225D01*
X121570340Y-113592485D01*
X121372883Y-113510696D01*
X121163263Y-113469000D01*
X120949537Y-113469000D01*
X120739917Y-113510696D01*
X120542460Y-113592485D01*
X120364753Y-113711225D01*
X120213625Y-113862353D01*
X120094885Y-114040060D01*
X120013096Y-114237517D01*
X119971400Y-114447137D01*
X119423600Y-114447137D01*
X119423600Y-114370937D01*
X119381904Y-114161317D01*
X119300115Y-113963860D01*
X119181375Y-113786153D01*
X119030247Y-113635025D01*
X118852540Y-113516285D01*
X118655083Y-113434496D01*
X118445463Y-113392800D01*
X118231737Y-113392800D01*
X118022117Y-113434496D01*
X117824660Y-113516285D01*
X117646953Y-113635025D01*
X117495825Y-113786153D01*
X117377085Y-113963860D01*
X117339841Y-114053776D01*
X117133117Y-114094896D01*
X116935660Y-114176685D01*
X116757953Y-114295425D01*
X116606825Y-114446553D01*
X116488085Y-114624260D01*
X116406296Y-114821717D01*
X116364600Y-115031337D01*
X102359818Y-115031337D01*
X102370557Y-115025597D01*
X102389803Y-115009803D01*
X102405597Y-114990557D01*
X102417333Y-114968601D01*
X102424560Y-114944776D01*
X102427000Y-114920000D01*
X102427000Y-113038137D01*
X103190000Y-113038137D01*
X103190000Y-113251863D01*
X103231696Y-113461483D01*
X103313485Y-113658940D01*
X103432225Y-113836647D01*
X103583353Y-113987775D01*
X103726212Y-114083230D01*
X103756696Y-114236483D01*
X103838485Y-114433940D01*
X103957225Y-114611647D01*
X104108353Y-114762775D01*
X104286060Y-114881515D01*
X104483517Y-114963304D01*
X104693137Y-115005000D01*
X104906863Y-115005000D01*
X105116483Y-114963304D01*
X105313940Y-114881515D01*
X105491647Y-114762775D01*
X105642775Y-114611647D01*
X105761515Y-114433940D01*
X105843304Y-114236483D01*
X105885000Y-114026863D01*
X105885000Y-113917216D01*
X105891647Y-113912775D01*
X106042775Y-113761647D01*
X106161515Y-113583940D01*
X106243304Y-113386483D01*
X106285000Y-113176863D01*
X106285000Y-112999137D01*
X112028200Y-112999137D01*
X112028200Y-113212863D01*
X112069896Y-113422483D01*
X112151685Y-113619940D01*
X112270425Y-113797647D01*
X112421553Y-113948775D01*
X112599260Y-114067515D01*
X112796717Y-114149304D01*
X113006337Y-114191000D01*
X113220063Y-114191000D01*
X113429683Y-114149304D01*
X113627140Y-114067515D01*
X113804847Y-113948775D01*
X113955975Y-113797647D01*
X114074715Y-113619940D01*
X114156504Y-113422483D01*
X114198200Y-113212863D01*
X114198200Y-112999137D01*
X114156504Y-112789517D01*
X114074715Y-112592060D01*
X113955975Y-112414353D01*
X113804847Y-112263225D01*
X113627140Y-112144485D01*
X113429683Y-112062696D01*
X113220063Y-112021000D01*
X113006337Y-112021000D01*
X112796717Y-112062696D01*
X112599260Y-112144485D01*
X112421553Y-112263225D01*
X112270425Y-112414353D01*
X112151685Y-112592060D01*
X112069896Y-112789517D01*
X112028200Y-112999137D01*
X106285000Y-112999137D01*
X106285000Y-112963137D01*
X106243304Y-112753517D01*
X106161515Y-112556060D01*
X106042775Y-112378353D01*
X105891647Y-112227225D01*
X105713940Y-112108485D01*
X105516483Y-112026696D01*
X105306863Y-111985000D01*
X105093137Y-111985000D01*
X104883517Y-112026696D01*
X104686060Y-112108485D01*
X104656139Y-112128477D01*
X104591483Y-112101696D01*
X104381863Y-112060000D01*
X104168137Y-112060000D01*
X103958517Y-112101696D01*
X103761060Y-112183485D01*
X103583353Y-112302225D01*
X103432225Y-112453353D01*
X103313485Y-112631060D01*
X103231696Y-112828517D01*
X103190000Y-113038137D01*
X102427000Y-113038137D01*
X102427000Y-111228702D01*
X132536903Y-111228702D01*
X132608486Y-111472671D01*
X132863996Y-111593571D01*
X133138184Y-111662300D01*
X133420512Y-111676217D01*
X133700130Y-111634787D01*
X133966292Y-111539603D01*
X134091514Y-111472671D01*
X134163097Y-111228702D01*
X133350000Y-110415605D01*
X132536903Y-111228702D01*
X102427000Y-111228702D01*
X102427000Y-110870000D01*
X102424560Y-110845224D01*
X102417333Y-110821399D01*
X102405597Y-110799443D01*
X102389803Y-110780197D01*
X102370557Y-110764403D01*
X102348601Y-110752667D01*
X102324776Y-110745440D01*
X102300000Y-110743000D01*
X96000000Y-110743000D01*
X95975224Y-110745440D01*
X95951399Y-110752667D01*
X95929443Y-110764403D01*
X95910197Y-110780197D01*
X95894403Y-110799443D01*
X95882667Y-110821399D01*
X95875440Y-110845224D01*
X95873000Y-110870000D01*
X94704310Y-110870000D01*
X94715000Y-110816260D01*
X94715000Y-110523740D01*
X94671791Y-110306512D01*
X131909783Y-110306512D01*
X131951213Y-110586130D01*
X132046397Y-110852292D01*
X132113329Y-110977514D01*
X132357298Y-111049097D01*
X133170395Y-110236000D01*
X133529605Y-110236000D01*
X134342702Y-111049097D01*
X134586671Y-110977514D01*
X134707571Y-110722004D01*
X134776300Y-110447816D01*
X134790217Y-110165488D01*
X134748787Y-109885870D01*
X134653603Y-109619708D01*
X134586671Y-109494486D01*
X134387340Y-109436000D01*
X135411928Y-109436000D01*
X135411928Y-111036000D01*
X135424188Y-111160482D01*
X135460498Y-111280180D01*
X135519463Y-111390494D01*
X135598815Y-111487185D01*
X135695506Y-111566537D01*
X135805820Y-111625502D01*
X135925518Y-111661812D01*
X136050000Y-111674072D01*
X137650000Y-111674072D01*
X137774482Y-111661812D01*
X137894180Y-111625502D01*
X138004494Y-111566537D01*
X138101185Y-111487185D01*
X138180537Y-111390494D01*
X138239502Y-111280180D01*
X138275812Y-111160482D01*
X138288072Y-111036000D01*
X138288072Y-110057137D01*
X141810200Y-110057137D01*
X141810200Y-110270863D01*
X141851896Y-110480483D01*
X141933685Y-110677940D01*
X142052425Y-110855647D01*
X142203553Y-111006775D01*
X142381260Y-111125515D01*
X142578717Y-111207304D01*
X142788337Y-111249000D01*
X143002063Y-111249000D01*
X143211683Y-111207304D01*
X143409140Y-111125515D01*
X143586847Y-111006775D01*
X143737975Y-110855647D01*
X143856715Y-110677940D01*
X143938504Y-110480483D01*
X143980200Y-110270863D01*
X143980200Y-110057137D01*
X143938504Y-109847517D01*
X143856715Y-109650060D01*
X143737975Y-109472353D01*
X143586847Y-109321225D01*
X143409140Y-109202485D01*
X143211683Y-109120696D01*
X143002063Y-109079000D01*
X142788337Y-109079000D01*
X142578717Y-109120696D01*
X142381260Y-109202485D01*
X142203553Y-109321225D01*
X142052425Y-109472353D01*
X141933685Y-109650060D01*
X141851896Y-109847517D01*
X141810200Y-110057137D01*
X138288072Y-110057137D01*
X138288072Y-109436000D01*
X138275812Y-109311518D01*
X138239502Y-109191820D01*
X138180537Y-109081506D01*
X138101185Y-108984815D01*
X138004494Y-108905463D01*
X137894180Y-108846498D01*
X137774482Y-108810188D01*
X137650000Y-108797928D01*
X136050000Y-108797928D01*
X135925518Y-108810188D01*
X135805820Y-108846498D01*
X135695506Y-108905463D01*
X135598815Y-108984815D01*
X135519463Y-109081506D01*
X135460498Y-109191820D01*
X135424188Y-109311518D01*
X135411928Y-109436000D01*
X134387340Y-109436000D01*
X134342702Y-109422903D01*
X133529605Y-110236000D01*
X133170395Y-110236000D01*
X132357298Y-109422903D01*
X132113329Y-109494486D01*
X131992429Y-109749996D01*
X131923700Y-110024184D01*
X131909783Y-110306512D01*
X94671791Y-110306512D01*
X94657932Y-110236842D01*
X94545990Y-109966589D01*
X94383475Y-109723368D01*
X94176632Y-109516525D01*
X93994466Y-109394805D01*
X94111355Y-109325178D01*
X94202193Y-109243298D01*
X132536903Y-109243298D01*
X133350000Y-110056395D01*
X134163097Y-109243298D01*
X134091514Y-108999329D01*
X133836004Y-108878429D01*
X133561816Y-108809700D01*
X133279488Y-108795783D01*
X132999870Y-108837213D01*
X132733708Y-108932397D01*
X132608486Y-108999329D01*
X132536903Y-109243298D01*
X94202193Y-109243298D01*
X94327588Y-109130269D01*
X94501641Y-108896920D01*
X94626825Y-108634099D01*
X94671476Y-108486890D01*
X94550155Y-108257000D01*
X93357000Y-108257000D01*
X93357000Y-108277000D01*
X93103000Y-108277000D01*
X93103000Y-108257000D01*
X91909845Y-108257000D01*
X91788524Y-108486890D01*
X91833175Y-108634099D01*
X91958359Y-108896920D01*
X92132412Y-109130269D01*
X92348645Y-109325178D01*
X92465534Y-109394805D01*
X92283368Y-109516525D01*
X92076525Y-109723368D01*
X91914010Y-109966589D01*
X91802068Y-110236842D01*
X91745000Y-110523740D01*
X87660000Y-110523740D01*
X87660000Y-102200000D01*
X91741928Y-102200000D01*
X91741928Y-103900000D01*
X91754188Y-104024482D01*
X91790498Y-104144180D01*
X91849463Y-104254494D01*
X91928815Y-104351185D01*
X92025506Y-104430537D01*
X92135820Y-104489502D01*
X92208380Y-104511513D01*
X92076525Y-104643368D01*
X91914010Y-104886589D01*
X91802068Y-105156842D01*
X91745000Y-105443740D01*
X91745000Y-105736260D01*
X91802068Y-106023158D01*
X91914010Y-106293411D01*
X92076525Y-106536632D01*
X92283368Y-106743475D01*
X92465534Y-106865195D01*
X92348645Y-106934822D01*
X92132412Y-107129731D01*
X91958359Y-107363080D01*
X91833175Y-107625901D01*
X91788524Y-107773110D01*
X91909845Y-108003000D01*
X93103000Y-108003000D01*
X93103000Y-107983000D01*
X93357000Y-107983000D01*
X93357000Y-108003000D01*
X94550155Y-108003000D01*
X94579148Y-107948061D01*
X105025000Y-107948061D01*
X105025000Y-108151939D01*
X105064774Y-108351898D01*
X105142795Y-108540256D01*
X105256063Y-108709774D01*
X105400226Y-108853937D01*
X105569744Y-108967205D01*
X105758102Y-109045226D01*
X105958061Y-109085000D01*
X106161939Y-109085000D01*
X106361898Y-109045226D01*
X106550256Y-108967205D01*
X106719774Y-108853937D01*
X106863937Y-108709774D01*
X106977205Y-108540256D01*
X107055226Y-108351898D01*
X107095000Y-108151939D01*
X107095000Y-107948061D01*
X107055226Y-107748102D01*
X106977205Y-107559744D01*
X106863937Y-107390226D01*
X106719774Y-107246063D01*
X106550256Y-107132795D01*
X106361898Y-107054774D01*
X106161939Y-107015000D01*
X105958061Y-107015000D01*
X105758102Y-107054774D01*
X105569744Y-107132795D01*
X105400226Y-107246063D01*
X105256063Y-107390226D01*
X105142795Y-107559744D01*
X105064774Y-107748102D01*
X105025000Y-107948061D01*
X94579148Y-107948061D01*
X94671476Y-107773110D01*
X94626825Y-107625901D01*
X94501641Y-107363080D01*
X94327588Y-107129731D01*
X94111355Y-106934822D01*
X93994466Y-106865195D01*
X94176632Y-106743475D01*
X94383475Y-106536632D01*
X94545990Y-106293411D01*
X94657932Y-106023158D01*
X94715000Y-105736260D01*
X94715000Y-105562061D01*
X97771000Y-105562061D01*
X97771000Y-105765939D01*
X97810774Y-105965898D01*
X97888795Y-106154256D01*
X98002063Y-106323774D01*
X98146226Y-106467937D01*
X98315744Y-106581205D01*
X98504102Y-106659226D01*
X98704061Y-106699000D01*
X98907939Y-106699000D01*
X99107898Y-106659226D01*
X99296256Y-106581205D01*
X99465774Y-106467937D01*
X99609937Y-106323774D01*
X99723205Y-106154256D01*
X99801226Y-105965898D01*
X99841000Y-105765939D01*
X99841000Y-105562061D01*
X99801226Y-105362102D01*
X99723205Y-105173744D01*
X99609937Y-105004226D01*
X99465774Y-104860063D01*
X99296256Y-104746795D01*
X99107898Y-104668774D01*
X98907939Y-104629000D01*
X98704061Y-104629000D01*
X98504102Y-104668774D01*
X98315744Y-104746795D01*
X98146226Y-104860063D01*
X98002063Y-105004226D01*
X97888795Y-105173744D01*
X97810774Y-105362102D01*
X97771000Y-105562061D01*
X94715000Y-105562061D01*
X94715000Y-105443740D01*
X94657932Y-105156842D01*
X94545990Y-104886589D01*
X94383475Y-104643368D01*
X94286168Y-104546061D01*
X99803000Y-104546061D01*
X99803000Y-104749939D01*
X99842774Y-104949898D01*
X99920795Y-105138256D01*
X100034063Y-105307774D01*
X100178226Y-105451937D01*
X100347744Y-105565205D01*
X100536102Y-105643226D01*
X100736061Y-105683000D01*
X100939939Y-105683000D01*
X101139898Y-105643226D01*
X101328256Y-105565205D01*
X101497774Y-105451937D01*
X101641937Y-105307774D01*
X101755205Y-105138256D01*
X101833226Y-104949898D01*
X101873000Y-104749939D01*
X101873000Y-104546061D01*
X101833226Y-104346102D01*
X101755205Y-104157744D01*
X101641937Y-103988226D01*
X101497774Y-103844063D01*
X101328256Y-103730795D01*
X101139898Y-103652774D01*
X100939939Y-103613000D01*
X100736061Y-103613000D01*
X100536102Y-103652774D01*
X100347744Y-103730795D01*
X100178226Y-103844063D01*
X100034063Y-103988226D01*
X99920795Y-104157744D01*
X99842774Y-104346102D01*
X99803000Y-104546061D01*
X94286168Y-104546061D01*
X94251620Y-104511513D01*
X94324180Y-104489502D01*
X94434494Y-104430537D01*
X94531185Y-104351185D01*
X94610537Y-104254494D01*
X94669502Y-104144180D01*
X94705812Y-104024482D01*
X94718072Y-103900000D01*
X94718072Y-103048061D01*
X102398092Y-103048061D01*
X102398092Y-103251939D01*
X102437866Y-103451898D01*
X102515887Y-103640256D01*
X102629155Y-103809774D01*
X102773318Y-103953937D01*
X102942836Y-104067205D01*
X103131194Y-104145226D01*
X103331153Y-104185000D01*
X103535031Y-104185000D01*
X103734990Y-104145226D01*
X103923348Y-104067205D01*
X104092866Y-103953937D01*
X104237029Y-103809774D01*
X104350297Y-103640256D01*
X104428318Y-103451898D01*
X104468092Y-103251939D01*
X104468092Y-103117807D01*
X104590256Y-103067205D01*
X104759774Y-102953937D01*
X104903937Y-102809774D01*
X105017205Y-102640256D01*
X105095226Y-102451898D01*
X105135000Y-102251939D01*
X105135000Y-102200000D01*
X120211928Y-102200000D01*
X120211928Y-103900000D01*
X120224188Y-104024482D01*
X120260498Y-104144180D01*
X120319463Y-104254494D01*
X120398815Y-104351185D01*
X120495506Y-104430537D01*
X120605820Y-104489502D01*
X120678380Y-104511513D01*
X120546525Y-104643368D01*
X120384010Y-104886589D01*
X120272068Y-105156842D01*
X120215000Y-105443740D01*
X120215000Y-105736260D01*
X120272068Y-106023158D01*
X120384010Y-106293411D01*
X120546525Y-106536632D01*
X120753368Y-106743475D01*
X120996589Y-106905990D01*
X121266842Y-107017932D01*
X121553740Y-107075000D01*
X121846260Y-107075000D01*
X122133158Y-107017932D01*
X122403411Y-106905990D01*
X122646632Y-106743475D01*
X122853475Y-106536632D01*
X123015990Y-106293411D01*
X123127932Y-106023158D01*
X123185000Y-105736260D01*
X123185000Y-105443740D01*
X123127932Y-105156842D01*
X123015990Y-104886589D01*
X122853475Y-104643368D01*
X122721620Y-104511513D01*
X122794180Y-104489502D01*
X122904494Y-104430537D01*
X123001185Y-104351185D01*
X123080537Y-104254494D01*
X123139502Y-104144180D01*
X123175812Y-104024482D01*
X123188072Y-103900000D01*
X123188072Y-102200000D01*
X123175812Y-102075518D01*
X123145321Y-101975000D01*
X141284388Y-101975000D01*
X141306785Y-102202400D01*
X141373115Y-102421060D01*
X141480829Y-102622579D01*
X141625788Y-102799212D01*
X141802421Y-102944171D01*
X142003940Y-103051885D01*
X142222600Y-103118215D01*
X142393021Y-103135000D01*
X142706979Y-103135000D01*
X142877400Y-103118215D01*
X143096060Y-103051885D01*
X143297579Y-102944171D01*
X143474212Y-102799212D01*
X143619171Y-102622579D01*
X143726885Y-102421060D01*
X143793215Y-102202400D01*
X143815612Y-101975000D01*
X143793215Y-101747600D01*
X143726885Y-101528940D01*
X143619171Y-101327421D01*
X143474212Y-101150788D01*
X143297579Y-101005829D01*
X143096060Y-100898115D01*
X142877400Y-100831785D01*
X142706979Y-100815000D01*
X142393021Y-100815000D01*
X142222600Y-100831785D01*
X142003940Y-100898115D01*
X141802421Y-101005829D01*
X141625788Y-101150788D01*
X141480829Y-101327421D01*
X141373115Y-101528940D01*
X141306785Y-101747600D01*
X141284388Y-101975000D01*
X123145321Y-101975000D01*
X123139502Y-101955820D01*
X123080537Y-101845506D01*
X123001185Y-101748815D01*
X122904494Y-101669463D01*
X122794180Y-101610498D01*
X122674482Y-101574188D01*
X122550000Y-101561928D01*
X120850000Y-101561928D01*
X120725518Y-101574188D01*
X120605820Y-101610498D01*
X120495506Y-101669463D01*
X120398815Y-101748815D01*
X120319463Y-101845506D01*
X120260498Y-101955820D01*
X120224188Y-102075518D01*
X120211928Y-102200000D01*
X105135000Y-102200000D01*
X105135000Y-102048061D01*
X105095226Y-101848102D01*
X105017205Y-101659744D01*
X104903937Y-101490226D01*
X104759774Y-101346063D01*
X104590256Y-101232795D01*
X104401898Y-101154774D01*
X104201939Y-101115000D01*
X103998061Y-101115000D01*
X103798102Y-101154774D01*
X103609744Y-101232795D01*
X103440226Y-101346063D01*
X103296063Y-101490226D01*
X103182795Y-101659744D01*
X103104774Y-101848102D01*
X103065000Y-102048061D01*
X103065000Y-102182193D01*
X102942836Y-102232795D01*
X102773318Y-102346063D01*
X102629155Y-102490226D01*
X102515887Y-102659744D01*
X102437866Y-102848102D01*
X102398092Y-103048061D01*
X94718072Y-103048061D01*
X94718072Y-102200000D01*
X94705812Y-102075518D01*
X94669502Y-101955820D01*
X94610537Y-101845506D01*
X94531185Y-101748815D01*
X94434494Y-101669463D01*
X94324180Y-101610498D01*
X94316147Y-101608061D01*
X98235000Y-101608061D01*
X98235000Y-101811939D01*
X98274774Y-102011898D01*
X98352795Y-102200256D01*
X98466063Y-102369774D01*
X98610226Y-102513937D01*
X98779744Y-102627205D01*
X98968102Y-102705226D01*
X99168061Y-102745000D01*
X99371939Y-102745000D01*
X99571898Y-102705226D01*
X99760256Y-102627205D01*
X99895000Y-102537172D01*
X100029744Y-102627205D01*
X100218102Y-102705226D01*
X100418061Y-102745000D01*
X100621939Y-102745000D01*
X100821898Y-102705226D01*
X101010256Y-102627205D01*
X101179774Y-102513937D01*
X101323937Y-102369774D01*
X101437205Y-102200256D01*
X101515226Y-102011898D01*
X101555000Y-101811939D01*
X101555000Y-101608061D01*
X101515226Y-101408102D01*
X101437205Y-101219744D01*
X101323937Y-101050226D01*
X101179774Y-100906063D01*
X101010256Y-100792795D01*
X100821898Y-100714774D01*
X100621939Y-100675000D01*
X100418061Y-100675000D01*
X100218102Y-100714774D01*
X100029744Y-100792795D01*
X99895000Y-100882828D01*
X99760256Y-100792795D01*
X99571898Y-100714774D01*
X99371939Y-100675000D01*
X99168061Y-100675000D01*
X98968102Y-100714774D01*
X98779744Y-100792795D01*
X98610226Y-100906063D01*
X98466063Y-101050226D01*
X98352795Y-101219744D01*
X98274774Y-101408102D01*
X98235000Y-101608061D01*
X94316147Y-101608061D01*
X94204482Y-101574188D01*
X94080000Y-101561928D01*
X92380000Y-101561928D01*
X92255518Y-101574188D01*
X92135820Y-101610498D01*
X92025506Y-101669463D01*
X91928815Y-101748815D01*
X91849463Y-101845506D01*
X91790498Y-101955820D01*
X91754188Y-102075518D01*
X91741928Y-102200000D01*
X87660000Y-102200000D01*
X87660000Y-100399537D01*
X94949800Y-100399537D01*
X94949800Y-100613263D01*
X94991496Y-100822883D01*
X95073285Y-101020340D01*
X95192025Y-101198047D01*
X95343153Y-101349175D01*
X95520860Y-101467915D01*
X95718317Y-101549704D01*
X95927937Y-101591400D01*
X96141663Y-101591400D01*
X96351283Y-101549704D01*
X96548740Y-101467915D01*
X96726447Y-101349175D01*
X96877575Y-101198047D01*
X96996315Y-101020340D01*
X97078104Y-100822883D01*
X97119800Y-100613263D01*
X97119800Y-100399537D01*
X97078104Y-100189917D01*
X96996315Y-99992460D01*
X96877575Y-99814753D01*
X96726447Y-99663625D01*
X96548740Y-99544885D01*
X96351283Y-99463096D01*
X96141663Y-99421400D01*
X95927937Y-99421400D01*
X95718317Y-99463096D01*
X95520860Y-99544885D01*
X95343153Y-99663625D01*
X95192025Y-99814753D01*
X95073285Y-99992460D01*
X94991496Y-100189917D01*
X94949800Y-100399537D01*
X87660000Y-100399537D01*
X87660000Y-97120000D01*
X91741928Y-97120000D01*
X91741928Y-98820000D01*
X91754188Y-98944482D01*
X91790498Y-99064180D01*
X91849463Y-99174494D01*
X91928815Y-99271185D01*
X92025506Y-99350537D01*
X92135820Y-99409502D01*
X92255518Y-99445812D01*
X92380000Y-99458072D01*
X94080000Y-99458072D01*
X94204482Y-99445812D01*
X94324180Y-99409502D01*
X94434494Y-99350537D01*
X94531185Y-99271185D01*
X94610537Y-99174494D01*
X94669502Y-99064180D01*
X94705812Y-98944482D01*
X94718072Y-98820000D01*
X94718072Y-97838061D01*
X96135000Y-97838061D01*
X96135000Y-98041939D01*
X96174774Y-98241898D01*
X96252795Y-98430256D01*
X96366063Y-98599774D01*
X96510226Y-98743937D01*
X96679744Y-98857205D01*
X96868102Y-98935226D01*
X97068061Y-98975000D01*
X97271939Y-98975000D01*
X97471898Y-98935226D01*
X97660256Y-98857205D01*
X97829774Y-98743937D01*
X97973937Y-98599774D01*
X98087205Y-98430256D01*
X98165226Y-98241898D01*
X98205000Y-98041939D01*
X98205000Y-98038737D01*
X126448400Y-98038737D01*
X126448400Y-98252463D01*
X126490096Y-98462083D01*
X126548383Y-98602800D01*
X126490096Y-98743517D01*
X126448400Y-98953137D01*
X126448400Y-99166863D01*
X126490096Y-99376483D01*
X126571885Y-99573940D01*
X126690625Y-99751647D01*
X126841753Y-99902775D01*
X127019460Y-100021515D01*
X127216917Y-100103304D01*
X127426537Y-100145000D01*
X127640263Y-100145000D01*
X127849883Y-100103304D01*
X128047340Y-100021515D01*
X128225047Y-99902775D01*
X128376175Y-99751647D01*
X128418836Y-99687800D01*
X128453063Y-99687800D01*
X128662683Y-99646104D01*
X128860140Y-99564315D01*
X129037847Y-99445575D01*
X129188975Y-99294447D01*
X129307715Y-99116740D01*
X129352399Y-99008861D01*
X136658400Y-99008861D01*
X136658400Y-99212739D01*
X136698174Y-99412698D01*
X136776195Y-99601056D01*
X136889463Y-99770574D01*
X137033626Y-99914737D01*
X137203144Y-100028005D01*
X137391502Y-100106026D01*
X137591461Y-100145800D01*
X137795339Y-100145800D01*
X137995298Y-100106026D01*
X138183656Y-100028005D01*
X138353174Y-99914737D01*
X138497337Y-99770574D01*
X138610605Y-99601056D01*
X138688626Y-99412698D01*
X138728400Y-99212739D01*
X138728400Y-99008861D01*
X138688626Y-98808902D01*
X138610605Y-98620544D01*
X138497337Y-98451026D01*
X138353174Y-98306863D01*
X138183656Y-98193595D01*
X137995298Y-98115574D01*
X137795339Y-98075800D01*
X137591461Y-98075800D01*
X137391502Y-98115574D01*
X137203144Y-98193595D01*
X137033626Y-98306863D01*
X136889463Y-98451026D01*
X136776195Y-98620544D01*
X136698174Y-98808902D01*
X136658400Y-99008861D01*
X129352399Y-99008861D01*
X129389504Y-98919283D01*
X129431200Y-98709663D01*
X129431200Y-98495937D01*
X129389504Y-98286317D01*
X129307715Y-98088860D01*
X129188975Y-97911153D01*
X129037847Y-97760025D01*
X128860140Y-97641285D01*
X128662683Y-97559496D01*
X128453063Y-97517800D01*
X128418836Y-97517800D01*
X128376175Y-97453953D01*
X128225047Y-97302825D01*
X128047340Y-97184085D01*
X127849883Y-97102296D01*
X127640263Y-97060600D01*
X127426537Y-97060600D01*
X127216917Y-97102296D01*
X127019460Y-97184085D01*
X126841753Y-97302825D01*
X126690625Y-97453953D01*
X126571885Y-97631660D01*
X126490096Y-97829117D01*
X126448400Y-98038737D01*
X98205000Y-98038737D01*
X98205000Y-97838061D01*
X98165226Y-97638102D01*
X98087205Y-97449744D01*
X97973937Y-97280226D01*
X97829774Y-97136063D01*
X97660256Y-97022795D01*
X97471898Y-96944774D01*
X97271939Y-96905000D01*
X97068061Y-96905000D01*
X96868102Y-96944774D01*
X96679744Y-97022795D01*
X96510226Y-97136063D01*
X96366063Y-97280226D01*
X96252795Y-97449744D01*
X96174774Y-97638102D01*
X96135000Y-97838061D01*
X94718072Y-97838061D01*
X94718072Y-97120000D01*
X94705812Y-96995518D01*
X94669502Y-96875820D01*
X94610537Y-96765506D01*
X94596385Y-96748261D01*
X136602818Y-96748261D01*
X136602818Y-96952139D01*
X136642592Y-97152098D01*
X136720613Y-97340456D01*
X136833881Y-97509974D01*
X136978044Y-97654137D01*
X137147562Y-97767405D01*
X137335920Y-97845426D01*
X137535879Y-97885200D01*
X137739757Y-97885200D01*
X137939716Y-97845426D01*
X138128074Y-97767405D01*
X138297592Y-97654137D01*
X138441755Y-97509974D01*
X138555023Y-97340456D01*
X138633044Y-97152098D01*
X138672818Y-96952139D01*
X138672818Y-96748261D01*
X138633044Y-96548302D01*
X138555023Y-96359944D01*
X138441755Y-96190426D01*
X138297592Y-96046263D01*
X138128074Y-95932995D01*
X137939716Y-95854974D01*
X137739757Y-95815200D01*
X137535879Y-95815200D01*
X137335920Y-95854974D01*
X137147562Y-95932995D01*
X136978044Y-96046263D01*
X136833881Y-96190426D01*
X136720613Y-96359944D01*
X136642592Y-96548302D01*
X136602818Y-96748261D01*
X94596385Y-96748261D01*
X94531185Y-96668815D01*
X94434494Y-96589463D01*
X94324180Y-96530498D01*
X94251620Y-96508487D01*
X94383475Y-96376632D01*
X94545990Y-96133411D01*
X94657932Y-95863158D01*
X94715000Y-95576260D01*
X94715000Y-95348061D01*
X96135000Y-95348061D01*
X96135000Y-95551939D01*
X96174774Y-95751898D01*
X96252795Y-95940256D01*
X96366063Y-96109774D01*
X96510226Y-96253937D01*
X96679744Y-96367205D01*
X96868102Y-96445226D01*
X97068061Y-96485000D01*
X97271939Y-96485000D01*
X97471898Y-96445226D01*
X97660256Y-96367205D01*
X97829774Y-96253937D01*
X97973937Y-96109774D01*
X98087205Y-95940256D01*
X98165226Y-95751898D01*
X98205000Y-95551939D01*
X98205000Y-95348061D01*
X98165226Y-95148102D01*
X98087205Y-94959744D01*
X97973937Y-94790226D01*
X97829774Y-94646063D01*
X97660256Y-94532795D01*
X97471898Y-94454774D01*
X97271939Y-94415000D01*
X97068061Y-94415000D01*
X96868102Y-94454774D01*
X96679744Y-94532795D01*
X96510226Y-94646063D01*
X96366063Y-94790226D01*
X96252795Y-94959744D01*
X96174774Y-95148102D01*
X96135000Y-95348061D01*
X94715000Y-95348061D01*
X94715000Y-95283740D01*
X94657932Y-94996842D01*
X94545990Y-94726589D01*
X94383475Y-94483368D01*
X94176632Y-94276525D01*
X93933411Y-94114010D01*
X93663158Y-94002068D01*
X93376260Y-93945000D01*
X93083740Y-93945000D01*
X92796842Y-94002068D01*
X92526589Y-94114010D01*
X92283368Y-94276525D01*
X92076525Y-94483368D01*
X91914010Y-94726589D01*
X91802068Y-94996842D01*
X91745000Y-95283740D01*
X91745000Y-95576260D01*
X91802068Y-95863158D01*
X91914010Y-96133411D01*
X92076525Y-96376632D01*
X92208380Y-96508487D01*
X92135820Y-96530498D01*
X92025506Y-96589463D01*
X91928815Y-96668815D01*
X91849463Y-96765506D01*
X91790498Y-96875820D01*
X91754188Y-96995518D01*
X91741928Y-97120000D01*
X87660000Y-97120000D01*
X87660000Y-92614155D01*
X89265450Y-92614155D01*
X89661634Y-93134550D01*
X90376612Y-93524748D01*
X91153976Y-93767964D01*
X91963853Y-93854851D01*
X92775118Y-93782069D01*
X93556597Y-93552415D01*
X94278256Y-93174715D01*
X94338366Y-93134550D01*
X94579313Y-92818061D01*
X95095000Y-92818061D01*
X95095000Y-93021939D01*
X95134774Y-93221898D01*
X95212795Y-93410256D01*
X95326063Y-93579774D01*
X95470226Y-93723937D01*
X95639744Y-93837205D01*
X95828102Y-93915226D01*
X96028061Y-93955000D01*
X96231939Y-93955000D01*
X96431898Y-93915226D01*
X96620256Y-93837205D01*
X96789774Y-93723937D01*
X96933937Y-93579774D01*
X97047205Y-93410256D01*
X97125226Y-93221898D01*
X97165000Y-93021939D01*
X97165000Y-92818061D01*
X97125226Y-92618102D01*
X97123592Y-92614155D01*
X139265450Y-92614155D01*
X139661634Y-93134550D01*
X140376612Y-93524748D01*
X141153976Y-93767964D01*
X141963853Y-93854851D01*
X142775118Y-93782069D01*
X143556597Y-93552415D01*
X144278256Y-93174715D01*
X144338366Y-93134550D01*
X144734550Y-92614155D01*
X142000000Y-89879605D01*
X139265450Y-92614155D01*
X97123592Y-92614155D01*
X97047205Y-92429744D01*
X96933937Y-92260226D01*
X96789774Y-92116063D01*
X96620256Y-92002795D01*
X96431898Y-91924774D01*
X96231939Y-91885000D01*
X96028061Y-91885000D01*
X95828102Y-91924774D01*
X95639744Y-92002795D01*
X95470226Y-92116063D01*
X95326063Y-92260226D01*
X95212795Y-92429744D01*
X95134774Y-92618102D01*
X95095000Y-92818061D01*
X94579313Y-92818061D01*
X94734550Y-92614155D01*
X92000000Y-89879605D01*
X89265450Y-92614155D01*
X87660000Y-92614155D01*
X87660000Y-89729392D01*
X87665849Y-89663853D01*
X87845149Y-89663853D01*
X87917931Y-90475118D01*
X88147585Y-91256597D01*
X88525285Y-91978256D01*
X88565450Y-92038366D01*
X89085845Y-92434550D01*
X91820395Y-89700000D01*
X92179605Y-89700000D01*
X94914155Y-92434550D01*
X95434550Y-92038366D01*
X95824748Y-91323388D01*
X96067964Y-90546024D01*
X96154851Y-89736147D01*
X96136693Y-89533740D01*
X97345000Y-89533740D01*
X97345000Y-89826260D01*
X97402068Y-90113158D01*
X97514010Y-90383411D01*
X97676525Y-90626632D01*
X97883368Y-90833475D01*
X98126589Y-90995990D01*
X98396842Y-91107932D01*
X98683740Y-91165000D01*
X98976260Y-91165000D01*
X99263158Y-91107932D01*
X99533411Y-90995990D01*
X99776632Y-90833475D01*
X99983475Y-90626632D01*
X100100000Y-90452240D01*
X100216525Y-90626632D01*
X100423368Y-90833475D01*
X100666589Y-90995990D01*
X100936842Y-91107932D01*
X101223740Y-91165000D01*
X101516260Y-91165000D01*
X101803158Y-91107932D01*
X102073411Y-90995990D01*
X102316632Y-90833475D01*
X102523475Y-90626632D01*
X102640000Y-90452240D01*
X102756525Y-90626632D01*
X102963368Y-90833475D01*
X103206589Y-90995990D01*
X103476842Y-91107932D01*
X103763740Y-91165000D01*
X104056260Y-91165000D01*
X104343158Y-91107932D01*
X104613411Y-90995990D01*
X104856632Y-90833475D01*
X105063475Y-90626632D01*
X105180000Y-90452240D01*
X105296525Y-90626632D01*
X105503368Y-90833475D01*
X105746589Y-90995990D01*
X106016842Y-91107932D01*
X106303740Y-91165000D01*
X106596260Y-91165000D01*
X106883158Y-91107932D01*
X107153411Y-90995990D01*
X107396632Y-90833475D01*
X107603475Y-90626632D01*
X107720000Y-90452240D01*
X107836525Y-90626632D01*
X108043368Y-90833475D01*
X108286589Y-90995990D01*
X108556842Y-91107932D01*
X108843740Y-91165000D01*
X109136260Y-91165000D01*
X109423158Y-91107932D01*
X109693411Y-90995990D01*
X109936632Y-90833475D01*
X110143475Y-90626632D01*
X110260000Y-90452240D01*
X110376525Y-90626632D01*
X110583368Y-90833475D01*
X110826589Y-90995990D01*
X111096842Y-91107932D01*
X111383740Y-91165000D01*
X111676260Y-91165000D01*
X111963158Y-91107932D01*
X112233411Y-90995990D01*
X112476632Y-90833475D01*
X112683475Y-90626632D01*
X112800000Y-90452240D01*
X112916525Y-90626632D01*
X113123368Y-90833475D01*
X113366589Y-90995990D01*
X113636842Y-91107932D01*
X113923740Y-91165000D01*
X114216260Y-91165000D01*
X114503158Y-91107932D01*
X114773411Y-90995990D01*
X115016632Y-90833475D01*
X115223475Y-90626632D01*
X115340000Y-90452240D01*
X115456525Y-90626632D01*
X115663368Y-90833475D01*
X115906589Y-90995990D01*
X116176842Y-91107932D01*
X116463740Y-91165000D01*
X116756260Y-91165000D01*
X117043158Y-91107932D01*
X117313411Y-90995990D01*
X117556632Y-90833475D01*
X117763475Y-90626632D01*
X117880000Y-90452240D01*
X117996525Y-90626632D01*
X118203368Y-90833475D01*
X118446589Y-90995990D01*
X118716842Y-91107932D01*
X119003740Y-91165000D01*
X119296260Y-91165000D01*
X119583158Y-91107932D01*
X119853411Y-90995990D01*
X120096632Y-90833475D01*
X120228487Y-90701620D01*
X120250498Y-90774180D01*
X120309463Y-90884494D01*
X120388815Y-90981185D01*
X120485506Y-91060537D01*
X120595820Y-91119502D01*
X120715518Y-91155812D01*
X120840000Y-91168072D01*
X122540000Y-91168072D01*
X122664482Y-91155812D01*
X122784180Y-91119502D01*
X122894494Y-91060537D01*
X122991185Y-90981185D01*
X123070537Y-90884494D01*
X123129502Y-90774180D01*
X123165812Y-90654482D01*
X123178072Y-90530000D01*
X123178072Y-90469537D01*
X123984600Y-90469537D01*
X123984600Y-90683263D01*
X124026296Y-90892883D01*
X124089843Y-91046300D01*
X124026296Y-91199717D01*
X123984600Y-91409337D01*
X123984600Y-91623063D01*
X124026296Y-91832683D01*
X124108085Y-92030140D01*
X124226825Y-92207847D01*
X124377953Y-92358975D01*
X124555660Y-92477715D01*
X124753117Y-92559504D01*
X124962737Y-92601200D01*
X125176463Y-92601200D01*
X125386083Y-92559504D01*
X125539500Y-92495957D01*
X125692917Y-92559504D01*
X125902537Y-92601200D01*
X126116263Y-92601200D01*
X126325883Y-92559504D01*
X126523340Y-92477715D01*
X126701047Y-92358975D01*
X126852175Y-92207847D01*
X126970915Y-92030140D01*
X127052704Y-91832683D01*
X127094400Y-91623063D01*
X127094400Y-91409337D01*
X127052704Y-91199717D01*
X126989157Y-91046300D01*
X127052704Y-90892883D01*
X127094400Y-90683263D01*
X127094400Y-90469537D01*
X127052704Y-90259917D01*
X126970915Y-90062460D01*
X126852175Y-89884753D01*
X126701047Y-89733625D01*
X126596626Y-89663853D01*
X137845149Y-89663853D01*
X137917931Y-90475118D01*
X138147585Y-91256597D01*
X138525285Y-91978256D01*
X138565450Y-92038366D01*
X139085845Y-92434550D01*
X141820395Y-89700000D01*
X142179605Y-89700000D01*
X144914155Y-92434550D01*
X145434550Y-92038366D01*
X145824748Y-91323388D01*
X146067964Y-90546024D01*
X146154851Y-89736147D01*
X146082069Y-88924882D01*
X145852415Y-88143403D01*
X145474715Y-87421744D01*
X145434550Y-87361634D01*
X144914155Y-86965450D01*
X142179605Y-89700000D01*
X141820395Y-89700000D01*
X139085845Y-86965450D01*
X138565450Y-87361634D01*
X138175252Y-88076612D01*
X137932036Y-88853976D01*
X137845149Y-89663853D01*
X126596626Y-89663853D01*
X126523340Y-89614885D01*
X126325883Y-89533096D01*
X126116263Y-89491400D01*
X125902537Y-89491400D01*
X125692917Y-89533096D01*
X125539500Y-89596643D01*
X125386083Y-89533096D01*
X125176463Y-89491400D01*
X124962737Y-89491400D01*
X124753117Y-89533096D01*
X124555660Y-89614885D01*
X124377953Y-89733625D01*
X124226825Y-89884753D01*
X124108085Y-90062460D01*
X124026296Y-90259917D01*
X123984600Y-90469537D01*
X123178072Y-90469537D01*
X123178072Y-88830000D01*
X123165812Y-88705518D01*
X123129502Y-88585820D01*
X123070537Y-88475506D01*
X122991185Y-88378815D01*
X122894494Y-88299463D01*
X122784180Y-88240498D01*
X122664482Y-88204188D01*
X122540000Y-88191928D01*
X120840000Y-88191928D01*
X120715518Y-88204188D01*
X120595820Y-88240498D01*
X120485506Y-88299463D01*
X120388815Y-88378815D01*
X120309463Y-88475506D01*
X120250498Y-88585820D01*
X120228487Y-88658380D01*
X120096632Y-88526525D01*
X119853411Y-88364010D01*
X119583158Y-88252068D01*
X119296260Y-88195000D01*
X119003740Y-88195000D01*
X118716842Y-88252068D01*
X118446589Y-88364010D01*
X118203368Y-88526525D01*
X117996525Y-88733368D01*
X117880000Y-88907760D01*
X117763475Y-88733368D01*
X117556632Y-88526525D01*
X117313411Y-88364010D01*
X117043158Y-88252068D01*
X116756260Y-88195000D01*
X116463740Y-88195000D01*
X116176842Y-88252068D01*
X115906589Y-88364010D01*
X115663368Y-88526525D01*
X115456525Y-88733368D01*
X115340000Y-88907760D01*
X115223475Y-88733368D01*
X115016632Y-88526525D01*
X114773411Y-88364010D01*
X114503158Y-88252068D01*
X114216260Y-88195000D01*
X113923740Y-88195000D01*
X113636842Y-88252068D01*
X113366589Y-88364010D01*
X113123368Y-88526525D01*
X112916525Y-88733368D01*
X112800000Y-88907760D01*
X112683475Y-88733368D01*
X112476632Y-88526525D01*
X112233411Y-88364010D01*
X111963158Y-88252068D01*
X111676260Y-88195000D01*
X111383740Y-88195000D01*
X111096842Y-88252068D01*
X110826589Y-88364010D01*
X110583368Y-88526525D01*
X110376525Y-88733368D01*
X110260000Y-88907760D01*
X110143475Y-88733368D01*
X109936632Y-88526525D01*
X109693411Y-88364010D01*
X109423158Y-88252068D01*
X109136260Y-88195000D01*
X108843740Y-88195000D01*
X108556842Y-88252068D01*
X108286589Y-88364010D01*
X108043368Y-88526525D01*
X107836525Y-88733368D01*
X107720000Y-88907760D01*
X107603475Y-88733368D01*
X107396632Y-88526525D01*
X107153411Y-88364010D01*
X106883158Y-88252068D01*
X106596260Y-88195000D01*
X106303740Y-88195000D01*
X106016842Y-88252068D01*
X105746589Y-88364010D01*
X105503368Y-88526525D01*
X105296525Y-88733368D01*
X105180000Y-88907760D01*
X105063475Y-88733368D01*
X104856632Y-88526525D01*
X104613411Y-88364010D01*
X104343158Y-88252068D01*
X104056260Y-88195000D01*
X103763740Y-88195000D01*
X103476842Y-88252068D01*
X103206589Y-88364010D01*
X102963368Y-88526525D01*
X102756525Y-88733368D01*
X102640000Y-88907760D01*
X102523475Y-88733368D01*
X102316632Y-88526525D01*
X102073411Y-88364010D01*
X101803158Y-88252068D01*
X101516260Y-88195000D01*
X101223740Y-88195000D01*
X100936842Y-88252068D01*
X100666589Y-88364010D01*
X100423368Y-88526525D01*
X100216525Y-88733368D01*
X100100000Y-88907760D01*
X99983475Y-88733368D01*
X99776632Y-88526525D01*
X99533411Y-88364010D01*
X99263158Y-88252068D01*
X98976260Y-88195000D01*
X98683740Y-88195000D01*
X98396842Y-88252068D01*
X98126589Y-88364010D01*
X97883368Y-88526525D01*
X97676525Y-88733368D01*
X97514010Y-88976589D01*
X97402068Y-89246842D01*
X97345000Y-89533740D01*
X96136693Y-89533740D01*
X96082069Y-88924882D01*
X95852415Y-88143403D01*
X95474715Y-87421744D01*
X95434550Y-87361634D01*
X94914155Y-86965450D01*
X92179605Y-89700000D01*
X91820395Y-89700000D01*
X89085845Y-86965450D01*
X88565450Y-87361634D01*
X88175252Y-88076612D01*
X87932036Y-88853976D01*
X87845149Y-89663853D01*
X87665849Y-89663853D01*
X87731173Y-88931917D01*
X87934656Y-88188109D01*
X88266638Y-87492095D01*
X88716626Y-86865870D01*
X88799205Y-86785845D01*
X89265450Y-86785845D01*
X92000000Y-89520395D01*
X94734550Y-86785845D01*
X139265450Y-86785845D01*
X142000000Y-89520395D01*
X144734550Y-86785845D01*
X144338366Y-86265450D01*
X143623388Y-85875252D01*
X142846024Y-85632036D01*
X142036147Y-85545149D01*
X141224882Y-85617931D01*
X140443403Y-85847585D01*
X139721744Y-86225285D01*
X139661634Y-86265450D01*
X139265450Y-86785845D01*
X94734550Y-86785845D01*
X94338366Y-86265450D01*
X93623388Y-85875252D01*
X92846024Y-85632036D01*
X92036147Y-85545149D01*
X91224882Y-85617931D01*
X90443403Y-85847585D01*
X89721744Y-86225285D01*
X89661634Y-86265450D01*
X89265450Y-86785845D01*
X88799205Y-86785845D01*
X89270403Y-86329223D01*
X89910451Y-85899129D01*
X90616553Y-85589171D01*
X91371457Y-85407935D01*
X92024207Y-85360000D01*
X141970608Y-85360000D01*
X142768083Y-85431173D01*
%TD*%
M02*
