%TF.GenerationSoftware,KiCad,Pcbnew,5.1.6*%
%TF.CreationDate,2021-04-06T07:59:24+02:00*%
%TF.ProjectId,teriyaki,74657269-7961-46b6-992e-6b696361645f,rev?*%
%TF.SameCoordinates,Original*%
%TF.FileFunction,Legend,Top*%
%TF.FilePolarity,Positive*%
%FSLAX46Y46*%
G04 Gerber Fmt 4.6, Leading zero omitted, Abs format (unit mm)*
G04 Created by KiCad (PCBNEW 5.1.6) date 2021-04-06 07:59:24*
%MOMM*%
%LPD*%
G01*
G04 APERTURE LIST*
%ADD10C,0.150000*%
%ADD11C,0.120000*%
%ADD12C,0.010000*%
G04 APERTURE END LIST*
D10*
X121018095Y-107572380D02*
X121589523Y-107572380D01*
X121303809Y-108572380D02*
X121303809Y-107572380D01*
X121827619Y-107572380D02*
X122494285Y-108572380D01*
X122494285Y-107572380D02*
X121827619Y-108572380D01*
X121593333Y-101072380D02*
X121260000Y-100596190D01*
X121021904Y-101072380D02*
X121021904Y-100072380D01*
X121402857Y-100072380D01*
X121498095Y-100120000D01*
X121545714Y-100167619D01*
X121593333Y-100262857D01*
X121593333Y-100405714D01*
X121545714Y-100500952D01*
X121498095Y-100548571D01*
X121402857Y-100596190D01*
X121021904Y-100596190D01*
X121926666Y-100072380D02*
X122593333Y-101072380D01*
X122593333Y-100072380D02*
X121926666Y-101072380D01*
D11*
X125650000Y-101830000D02*
G75*
G03*
X125650000Y-101830000I-50000J0D01*
G01*
D10*
X109069238Y-104373371D02*
X109212095Y-104420990D01*
X109259714Y-104468609D01*
X109307333Y-104563847D01*
X109307333Y-104706704D01*
X109259714Y-104801942D01*
X109212095Y-104849561D01*
X109116857Y-104897180D01*
X108735904Y-104897180D01*
X108735904Y-103897180D01*
X109069238Y-103897180D01*
X109164476Y-103944800D01*
X109212095Y-103992419D01*
X109259714Y-104087657D01*
X109259714Y-104182895D01*
X109212095Y-104278133D01*
X109164476Y-104325752D01*
X109069238Y-104373371D01*
X108735904Y-104373371D01*
X110259714Y-104897180D02*
X109688285Y-104897180D01*
X109974000Y-104897180D02*
X109974000Y-103897180D01*
X109878761Y-104040038D01*
X109783523Y-104135276D01*
X109688285Y-104182895D01*
X121678571Y-87224761D02*
X121726190Y-87081904D01*
X121773809Y-87034285D01*
X121869047Y-86986666D01*
X122011904Y-86986666D01*
X122107142Y-87034285D01*
X122154761Y-87081904D01*
X122202380Y-87177142D01*
X122202380Y-87558095D01*
X121202380Y-87558095D01*
X121202380Y-87224761D01*
X121250000Y-87129523D01*
X121297619Y-87081904D01*
X121392857Y-87034285D01*
X121488095Y-87034285D01*
X121583333Y-87081904D01*
X121630952Y-87129523D01*
X121678571Y-87224761D01*
X121678571Y-87558095D01*
X121297619Y-86605714D02*
X121250000Y-86558095D01*
X121202380Y-86462857D01*
X121202380Y-86224761D01*
X121250000Y-86129523D01*
X121297619Y-86081904D01*
X121392857Y-86034285D01*
X121488095Y-86034285D01*
X121630952Y-86081904D01*
X122202380Y-86653333D01*
X122202380Y-86034285D01*
X119088571Y-87254761D02*
X119136190Y-87111904D01*
X119183809Y-87064285D01*
X119279047Y-87016666D01*
X119421904Y-87016666D01*
X119517142Y-87064285D01*
X119564761Y-87111904D01*
X119612380Y-87207142D01*
X119612380Y-87588095D01*
X118612380Y-87588095D01*
X118612380Y-87254761D01*
X118660000Y-87159523D01*
X118707619Y-87111904D01*
X118802857Y-87064285D01*
X118898095Y-87064285D01*
X118993333Y-87111904D01*
X119040952Y-87159523D01*
X119088571Y-87254761D01*
X119088571Y-87588095D01*
X119612380Y-86064285D02*
X119612380Y-86635714D01*
X119612380Y-86350000D02*
X118612380Y-86350000D01*
X118755238Y-86445238D01*
X118850476Y-86540476D01*
X118898095Y-86635714D01*
X116538571Y-87284761D02*
X116586190Y-87141904D01*
X116633809Y-87094285D01*
X116729047Y-87046666D01*
X116871904Y-87046666D01*
X116967142Y-87094285D01*
X117014761Y-87141904D01*
X117062380Y-87237142D01*
X117062380Y-87618095D01*
X116062380Y-87618095D01*
X116062380Y-87284761D01*
X116110000Y-87189523D01*
X116157619Y-87141904D01*
X116252857Y-87094285D01*
X116348095Y-87094285D01*
X116443333Y-87141904D01*
X116490952Y-87189523D01*
X116538571Y-87284761D01*
X116538571Y-87618095D01*
X116062380Y-86427619D02*
X116062380Y-86332380D01*
X116110000Y-86237142D01*
X116157619Y-86189523D01*
X116252857Y-86141904D01*
X116443333Y-86094285D01*
X116681428Y-86094285D01*
X116871904Y-86141904D01*
X116967142Y-86189523D01*
X117014761Y-86237142D01*
X117062380Y-86332380D01*
X117062380Y-86427619D01*
X117014761Y-86522857D01*
X116967142Y-86570476D01*
X116871904Y-86618095D01*
X116681428Y-86665714D01*
X116443333Y-86665714D01*
X116252857Y-86618095D01*
X116157619Y-86570476D01*
X116110000Y-86522857D01*
X116062380Y-86427619D01*
X114417142Y-87076666D02*
X114464761Y-87124285D01*
X114512380Y-87267142D01*
X114512380Y-87362380D01*
X114464761Y-87505238D01*
X114369523Y-87600476D01*
X114274285Y-87648095D01*
X114083809Y-87695714D01*
X113940952Y-87695714D01*
X113750476Y-87648095D01*
X113655238Y-87600476D01*
X113560000Y-87505238D01*
X113512380Y-87362380D01*
X113512380Y-87267142D01*
X113560000Y-87124285D01*
X113607619Y-87076666D01*
X114512380Y-86124285D02*
X114512380Y-86695714D01*
X114512380Y-86410000D02*
X113512380Y-86410000D01*
X113655238Y-86505238D01*
X113750476Y-86600476D01*
X113798095Y-86695714D01*
X111867142Y-87106666D02*
X111914761Y-87154285D01*
X111962380Y-87297142D01*
X111962380Y-87392380D01*
X111914761Y-87535238D01*
X111819523Y-87630476D01*
X111724285Y-87678095D01*
X111533809Y-87725714D01*
X111390952Y-87725714D01*
X111200476Y-87678095D01*
X111105238Y-87630476D01*
X111010000Y-87535238D01*
X110962380Y-87392380D01*
X110962380Y-87297142D01*
X111010000Y-87154285D01*
X111057619Y-87106666D01*
X111057619Y-86725714D02*
X111010000Y-86678095D01*
X110962380Y-86582857D01*
X110962380Y-86344761D01*
X111010000Y-86249523D01*
X111057619Y-86201904D01*
X111152857Y-86154285D01*
X111248095Y-86154285D01*
X111390952Y-86201904D01*
X111962380Y-86773333D01*
X111962380Y-86154285D01*
X109377142Y-87106666D02*
X109424761Y-87154285D01*
X109472380Y-87297142D01*
X109472380Y-87392380D01*
X109424761Y-87535238D01*
X109329523Y-87630476D01*
X109234285Y-87678095D01*
X109043809Y-87725714D01*
X108900952Y-87725714D01*
X108710476Y-87678095D01*
X108615238Y-87630476D01*
X108520000Y-87535238D01*
X108472380Y-87392380D01*
X108472380Y-87297142D01*
X108520000Y-87154285D01*
X108567619Y-87106666D01*
X108472380Y-86773333D02*
X108472380Y-86154285D01*
X108853333Y-86487619D01*
X108853333Y-86344761D01*
X108900952Y-86249523D01*
X108948571Y-86201904D01*
X109043809Y-86154285D01*
X109281904Y-86154285D01*
X109377142Y-86201904D01*
X109424761Y-86249523D01*
X109472380Y-86344761D01*
X109472380Y-86630476D01*
X109424761Y-86725714D01*
X109377142Y-86773333D01*
X106797142Y-87136666D02*
X106844761Y-87184285D01*
X106892380Y-87327142D01*
X106892380Y-87422380D01*
X106844761Y-87565238D01*
X106749523Y-87660476D01*
X106654285Y-87708095D01*
X106463809Y-87755714D01*
X106320952Y-87755714D01*
X106130476Y-87708095D01*
X106035238Y-87660476D01*
X105940000Y-87565238D01*
X105892380Y-87422380D01*
X105892380Y-87327142D01*
X105940000Y-87184285D01*
X105987619Y-87136666D01*
X106225714Y-86279523D02*
X106892380Y-86279523D01*
X105844761Y-86517619D02*
X106559047Y-86755714D01*
X106559047Y-86136666D01*
X104267142Y-87196666D02*
X104314761Y-87244285D01*
X104362380Y-87387142D01*
X104362380Y-87482380D01*
X104314761Y-87625238D01*
X104219523Y-87720476D01*
X104124285Y-87768095D01*
X103933809Y-87815714D01*
X103790952Y-87815714D01*
X103600476Y-87768095D01*
X103505238Y-87720476D01*
X103410000Y-87625238D01*
X103362380Y-87482380D01*
X103362380Y-87387142D01*
X103410000Y-87244285D01*
X103457619Y-87196666D01*
X103362380Y-86291904D02*
X103362380Y-86768095D01*
X103838571Y-86815714D01*
X103790952Y-86768095D01*
X103743333Y-86672857D01*
X103743333Y-86434761D01*
X103790952Y-86339523D01*
X103838571Y-86291904D01*
X103933809Y-86244285D01*
X104171904Y-86244285D01*
X104267142Y-86291904D01*
X104314761Y-86339523D01*
X104362380Y-86434761D01*
X104362380Y-86672857D01*
X104314761Y-86768095D01*
X104267142Y-86815714D01*
X101747142Y-87226666D02*
X101794761Y-87274285D01*
X101842380Y-87417142D01*
X101842380Y-87512380D01*
X101794761Y-87655238D01*
X101699523Y-87750476D01*
X101604285Y-87798095D01*
X101413809Y-87845714D01*
X101270952Y-87845714D01*
X101080476Y-87798095D01*
X100985238Y-87750476D01*
X100890000Y-87655238D01*
X100842380Y-87512380D01*
X100842380Y-87417142D01*
X100890000Y-87274285D01*
X100937619Y-87226666D01*
X100842380Y-86369523D02*
X100842380Y-86560000D01*
X100890000Y-86655238D01*
X100937619Y-86702857D01*
X101080476Y-86798095D01*
X101270952Y-86845714D01*
X101651904Y-86845714D01*
X101747142Y-86798095D01*
X101794761Y-86750476D01*
X101842380Y-86655238D01*
X101842380Y-86464761D01*
X101794761Y-86369523D01*
X101747142Y-86321904D01*
X101651904Y-86274285D01*
X101413809Y-86274285D01*
X101318571Y-86321904D01*
X101270952Y-86369523D01*
X101223333Y-86464761D01*
X101223333Y-86655238D01*
X101270952Y-86750476D01*
X101318571Y-86798095D01*
X101413809Y-86845714D01*
X99197142Y-87276666D02*
X99244761Y-87324285D01*
X99292380Y-87467142D01*
X99292380Y-87562380D01*
X99244761Y-87705238D01*
X99149523Y-87800476D01*
X99054285Y-87848095D01*
X98863809Y-87895714D01*
X98720952Y-87895714D01*
X98530476Y-87848095D01*
X98435238Y-87800476D01*
X98340000Y-87705238D01*
X98292380Y-87562380D01*
X98292380Y-87467142D01*
X98340000Y-87324285D01*
X98387619Y-87276666D01*
X98292380Y-86943333D02*
X98292380Y-86276666D01*
X99292380Y-86705238D01*
X131793809Y-128282380D02*
X131460476Y-127806190D01*
X131222380Y-128282380D02*
X131222380Y-127282380D01*
X131603333Y-127282380D01*
X131698571Y-127330000D01*
X131746190Y-127377619D01*
X131793809Y-127472857D01*
X131793809Y-127615714D01*
X131746190Y-127710952D01*
X131698571Y-127758571D01*
X131603333Y-127806190D01*
X131222380Y-127806190D01*
X132746190Y-127330000D02*
X132650952Y-127282380D01*
X132508095Y-127282380D01*
X132365238Y-127330000D01*
X132270000Y-127425238D01*
X132222380Y-127520476D01*
X132174761Y-127710952D01*
X132174761Y-127853809D01*
X132222380Y-128044285D01*
X132270000Y-128139523D01*
X132365238Y-128234761D01*
X132508095Y-128282380D01*
X132603333Y-128282380D01*
X132746190Y-128234761D01*
X132793809Y-128187142D01*
X132793809Y-127853809D01*
X132603333Y-127853809D01*
X133936666Y-127377619D02*
X133984285Y-127330000D01*
X134079523Y-127282380D01*
X134317619Y-127282380D01*
X134412857Y-127330000D01*
X134460476Y-127377619D01*
X134508095Y-127472857D01*
X134508095Y-127568095D01*
X134460476Y-127710952D01*
X133889047Y-128282380D01*
X134508095Y-128282380D01*
X135127142Y-127282380D02*
X135222380Y-127282380D01*
X135317619Y-127330000D01*
X135365238Y-127377619D01*
X135412857Y-127472857D01*
X135460476Y-127663333D01*
X135460476Y-127901428D01*
X135412857Y-128091904D01*
X135365238Y-128187142D01*
X135317619Y-128234761D01*
X135222380Y-128282380D01*
X135127142Y-128282380D01*
X135031904Y-128234761D01*
X134984285Y-128187142D01*
X134936666Y-128091904D01*
X134889047Y-127901428D01*
X134889047Y-127663333D01*
X134936666Y-127472857D01*
X134984285Y-127377619D01*
X135031904Y-127330000D01*
X135127142Y-127282380D01*
X135841428Y-127377619D02*
X135889047Y-127330000D01*
X135984285Y-127282380D01*
X136222380Y-127282380D01*
X136317619Y-127330000D01*
X136365238Y-127377619D01*
X136412857Y-127472857D01*
X136412857Y-127568095D01*
X136365238Y-127710952D01*
X135793809Y-128282380D01*
X136412857Y-128282380D01*
X137365238Y-128282380D02*
X136793809Y-128282380D01*
X137079523Y-128282380D02*
X137079523Y-127282380D01*
X136984285Y-127425238D01*
X136889047Y-127520476D01*
X136793809Y-127568095D01*
X109018438Y-106329171D02*
X109161295Y-106376790D01*
X109208914Y-106424409D01*
X109256533Y-106519647D01*
X109256533Y-106662504D01*
X109208914Y-106757742D01*
X109161295Y-106805361D01*
X109066057Y-106852980D01*
X108685104Y-106852980D01*
X108685104Y-105852980D01*
X109018438Y-105852980D01*
X109113676Y-105900600D01*
X109161295Y-105948219D01*
X109208914Y-106043457D01*
X109208914Y-106138695D01*
X109161295Y-106233933D01*
X109113676Y-106281552D01*
X109018438Y-106329171D01*
X108685104Y-106329171D01*
X109637485Y-105948219D02*
X109685104Y-105900600D01*
X109780342Y-105852980D01*
X110018438Y-105852980D01*
X110113676Y-105900600D01*
X110161295Y-105948219D01*
X110208914Y-106043457D01*
X110208914Y-106138695D01*
X110161295Y-106281552D01*
X109589866Y-106852980D01*
X110208914Y-106852980D01*
X108916838Y-102341371D02*
X109059695Y-102388990D01*
X109107314Y-102436609D01*
X109154933Y-102531847D01*
X109154933Y-102674704D01*
X109107314Y-102769942D01*
X109059695Y-102817561D01*
X108964457Y-102865180D01*
X108583504Y-102865180D01*
X108583504Y-101865180D01*
X108916838Y-101865180D01*
X109012076Y-101912800D01*
X109059695Y-101960419D01*
X109107314Y-102055657D01*
X109107314Y-102150895D01*
X109059695Y-102246133D01*
X109012076Y-102293752D01*
X108916838Y-102341371D01*
X108583504Y-102341371D01*
X109773980Y-101865180D02*
X109869219Y-101865180D01*
X109964457Y-101912800D01*
X110012076Y-101960419D01*
X110059695Y-102055657D01*
X110107314Y-102246133D01*
X110107314Y-102484228D01*
X110059695Y-102674704D01*
X110012076Y-102769942D01*
X109964457Y-102817561D01*
X109869219Y-102865180D01*
X109773980Y-102865180D01*
X109678742Y-102817561D01*
X109631123Y-102769942D01*
X109583504Y-102674704D01*
X109535885Y-102484228D01*
X109535885Y-102246133D01*
X109583504Y-102055657D01*
X109631123Y-101960419D01*
X109678742Y-101912800D01*
X109773980Y-101865180D01*
D11*
X139650000Y-98400000D02*
G75*
G03*
X139650000Y-98400000I-50000J0D01*
G01*
D10*
X125717571Y-95971928D02*
X125717571Y-96595500D01*
X125676000Y-96720214D01*
X125592857Y-96803357D01*
X125468142Y-96844928D01*
X125385000Y-96844928D01*
X126549000Y-96844928D02*
X126133285Y-96844928D01*
X126133285Y-95971928D01*
X127338857Y-96761785D02*
X127297285Y-96803357D01*
X127172571Y-96844928D01*
X127089428Y-96844928D01*
X126964714Y-96803357D01*
X126881571Y-96720214D01*
X126840000Y-96637071D01*
X126798428Y-96470785D01*
X126798428Y-96346071D01*
X126840000Y-96179785D01*
X126881571Y-96096642D01*
X126964714Y-96013500D01*
X127089428Y-95971928D01*
X127172571Y-95971928D01*
X127297285Y-96013500D01*
X127338857Y-96055071D01*
X127962428Y-95971928D02*
X127962428Y-96595500D01*
X127920857Y-96720214D01*
X127837714Y-96803357D01*
X127713000Y-96844928D01*
X127629857Y-96844928D01*
X128793857Y-96844928D02*
X128378142Y-96844928D01*
X128378142Y-95971928D01*
X129583714Y-96761785D02*
X129542142Y-96803357D01*
X129417428Y-96844928D01*
X129334285Y-96844928D01*
X129209571Y-96803357D01*
X129126428Y-96720214D01*
X129084857Y-96637071D01*
X129043285Y-96470785D01*
X129043285Y-96346071D01*
X129084857Y-96179785D01*
X129126428Y-96096642D01*
X129209571Y-96013500D01*
X129334285Y-95971928D01*
X129417428Y-95971928D01*
X129542142Y-96013500D01*
X129583714Y-96055071D01*
X130207285Y-95971928D02*
X130207285Y-96595500D01*
X130165714Y-96720214D01*
X130082571Y-96803357D01*
X129957857Y-96844928D01*
X129874714Y-96844928D01*
X131038714Y-96844928D02*
X130623000Y-96844928D01*
X130623000Y-95971928D01*
X131828571Y-96761785D02*
X131787000Y-96803357D01*
X131662285Y-96844928D01*
X131579142Y-96844928D01*
X131454428Y-96803357D01*
X131371285Y-96720214D01*
X131329714Y-96637071D01*
X131288142Y-96470785D01*
X131288142Y-96346071D01*
X131329714Y-96179785D01*
X131371285Y-96096642D01*
X131454428Y-96013500D01*
X131579142Y-95971928D01*
X131662285Y-95971928D01*
X131787000Y-96013500D01*
X131828571Y-96055071D01*
X132452142Y-95971928D02*
X132452142Y-96595500D01*
X132410571Y-96720214D01*
X132327428Y-96803357D01*
X132202714Y-96844928D01*
X132119571Y-96844928D01*
X133283571Y-96844928D02*
X132867857Y-96844928D01*
X132867857Y-95971928D01*
X134073428Y-96761785D02*
X134031857Y-96803357D01*
X133907142Y-96844928D01*
X133824000Y-96844928D01*
X133699285Y-96803357D01*
X133616142Y-96720214D01*
X133574571Y-96637071D01*
X133533000Y-96470785D01*
X133533000Y-96346071D01*
X133574571Y-96179785D01*
X133616142Y-96096642D01*
X133699285Y-96013500D01*
X133824000Y-95971928D01*
X133907142Y-95971928D01*
X134031857Y-96013500D01*
X134073428Y-96055071D01*
D11*
X98120000Y-109110000D02*
G75*
G03*
X98120000Y-109110000I-50000J0D01*
G01*
X136900000Y-114500000D02*
G75*
G03*
X136900000Y-114500000I-50000J0D01*
G01*
D10*
X89195714Y-98284761D02*
X89338571Y-98332380D01*
X89576666Y-98332380D01*
X89671904Y-98284761D01*
X89719523Y-98237142D01*
X89767142Y-98141904D01*
X89767142Y-98046666D01*
X89719523Y-97951428D01*
X89671904Y-97903809D01*
X89576666Y-97856190D01*
X89386190Y-97808571D01*
X89290952Y-97760952D01*
X89243333Y-97713333D01*
X89195714Y-97618095D01*
X89195714Y-97522857D01*
X89243333Y-97427619D01*
X89290952Y-97380000D01*
X89386190Y-97332380D01*
X89624285Y-97332380D01*
X89767142Y-97380000D01*
X90195714Y-98332380D02*
X90195714Y-97332380D01*
X90433809Y-97332380D01*
X90576666Y-97380000D01*
X90671904Y-97475238D01*
X90719523Y-97570476D01*
X90767142Y-97760952D01*
X90767142Y-97903809D01*
X90719523Y-98094285D01*
X90671904Y-98189523D01*
X90576666Y-98284761D01*
X90433809Y-98332380D01*
X90195714Y-98332380D01*
X91148095Y-98046666D02*
X91624285Y-98046666D01*
X91052857Y-98332380D02*
X91386190Y-97332380D01*
X91719523Y-98332380D01*
X89129523Y-95884761D02*
X89272380Y-95932380D01*
X89510476Y-95932380D01*
X89605714Y-95884761D01*
X89653333Y-95837142D01*
X89700952Y-95741904D01*
X89700952Y-95646666D01*
X89653333Y-95551428D01*
X89605714Y-95503809D01*
X89510476Y-95456190D01*
X89320000Y-95408571D01*
X89224761Y-95360952D01*
X89177142Y-95313333D01*
X89129523Y-95218095D01*
X89129523Y-95122857D01*
X89177142Y-95027619D01*
X89224761Y-94980000D01*
X89320000Y-94932380D01*
X89558095Y-94932380D01*
X89700952Y-94980000D01*
X90700952Y-95837142D02*
X90653333Y-95884761D01*
X90510476Y-95932380D01*
X90415238Y-95932380D01*
X90272380Y-95884761D01*
X90177142Y-95789523D01*
X90129523Y-95694285D01*
X90081904Y-95503809D01*
X90081904Y-95360952D01*
X90129523Y-95170476D01*
X90177142Y-95075238D01*
X90272380Y-94980000D01*
X90415238Y-94932380D01*
X90510476Y-94932380D01*
X90653333Y-94980000D01*
X90700952Y-95027619D01*
X91605714Y-95932380D02*
X91129523Y-95932380D01*
X91129523Y-94932380D01*
X88257142Y-111212380D02*
X88257142Y-110212380D01*
X88828571Y-111212380D01*
X88828571Y-110212380D01*
X89876190Y-111212380D02*
X89542857Y-110736190D01*
X89304761Y-111212380D02*
X89304761Y-110212380D01*
X89685714Y-110212380D01*
X89780952Y-110260000D01*
X89828571Y-110307619D01*
X89876190Y-110402857D01*
X89876190Y-110545714D01*
X89828571Y-110640952D01*
X89780952Y-110688571D01*
X89685714Y-110736190D01*
X89304761Y-110736190D01*
X90257142Y-111164761D02*
X90400000Y-111212380D01*
X90638095Y-111212380D01*
X90733333Y-111164761D01*
X90780952Y-111117142D01*
X90828571Y-111021904D01*
X90828571Y-110926666D01*
X90780952Y-110831428D01*
X90733333Y-110783809D01*
X90638095Y-110736190D01*
X90447619Y-110688571D01*
X90352380Y-110640952D01*
X90304761Y-110593333D01*
X90257142Y-110498095D01*
X90257142Y-110402857D01*
X90304761Y-110307619D01*
X90352380Y-110260000D01*
X90447619Y-110212380D01*
X90685714Y-110212380D01*
X90828571Y-110260000D01*
X91114285Y-110212380D02*
X91685714Y-110212380D01*
X91400000Y-111212380D02*
X91400000Y-110212380D01*
X89478095Y-107750000D02*
X89382857Y-107702380D01*
X89240000Y-107702380D01*
X89097142Y-107750000D01*
X89001904Y-107845238D01*
X88954285Y-107940476D01*
X88906666Y-108130952D01*
X88906666Y-108273809D01*
X88954285Y-108464285D01*
X89001904Y-108559523D01*
X89097142Y-108654761D01*
X89240000Y-108702380D01*
X89335238Y-108702380D01*
X89478095Y-108654761D01*
X89525714Y-108607142D01*
X89525714Y-108273809D01*
X89335238Y-108273809D01*
X89954285Y-108702380D02*
X89954285Y-107702380D01*
X90525714Y-108702380D01*
X90525714Y-107702380D01*
X91001904Y-108702380D02*
X91001904Y-107702380D01*
X91240000Y-107702380D01*
X91382857Y-107750000D01*
X91478095Y-107845238D01*
X91525714Y-107940476D01*
X91573333Y-108130952D01*
X91573333Y-108273809D01*
X91525714Y-108464285D01*
X91478095Y-108559523D01*
X91382857Y-108654761D01*
X91240000Y-108702380D01*
X91001904Y-108702380D01*
X88293333Y-106084761D02*
X88436190Y-106132380D01*
X88674285Y-106132380D01*
X88769523Y-106084761D01*
X88817142Y-106037142D01*
X88864761Y-105941904D01*
X88864761Y-105846666D01*
X88817142Y-105751428D01*
X88769523Y-105703809D01*
X88674285Y-105656190D01*
X88483809Y-105608571D01*
X88388571Y-105560952D01*
X88340952Y-105513333D01*
X88293333Y-105418095D01*
X88293333Y-105322857D01*
X88340952Y-105227619D01*
X88388571Y-105180000D01*
X88483809Y-105132380D01*
X88721904Y-105132380D01*
X88864761Y-105180000D01*
X89198095Y-105132380D02*
X89436190Y-106132380D01*
X89626666Y-105418095D01*
X89817142Y-106132380D01*
X90055238Y-105132380D01*
X90436190Y-106132380D02*
X90436190Y-105132380D01*
X90912380Y-106132380D02*
X90912380Y-105132380D01*
X91245714Y-105846666D01*
X91579047Y-105132380D01*
X91579047Y-106132380D01*
X88733809Y-102442380D02*
X89352857Y-102442380D01*
X89019523Y-102823333D01*
X89162380Y-102823333D01*
X89257619Y-102870952D01*
X89305238Y-102918571D01*
X89352857Y-103013809D01*
X89352857Y-103251904D01*
X89305238Y-103347142D01*
X89257619Y-103394761D01*
X89162380Y-103442380D01*
X88876666Y-103442380D01*
X88781428Y-103394761D01*
X88733809Y-103347142D01*
X89781428Y-103347142D02*
X89829047Y-103394761D01*
X89781428Y-103442380D01*
X89733809Y-103394761D01*
X89781428Y-103347142D01*
X89781428Y-103442380D01*
X90162380Y-102442380D02*
X90781428Y-102442380D01*
X90448095Y-102823333D01*
X90590952Y-102823333D01*
X90686190Y-102870952D01*
X90733809Y-102918571D01*
X90781428Y-103013809D01*
X90781428Y-103251904D01*
X90733809Y-103347142D01*
X90686190Y-103394761D01*
X90590952Y-103442380D01*
X90305238Y-103442380D01*
X90210000Y-103394761D01*
X90162380Y-103347142D01*
X91067142Y-102442380D02*
X91400476Y-103442380D01*
X91733809Y-102442380D01*
X141419047Y-110151428D02*
X142180952Y-110151428D01*
X141800000Y-110532380D02*
X141800000Y-109770476D01*
X112834152Y-111674571D02*
X112072247Y-111674571D01*
X112453200Y-111293619D02*
X112453200Y-112055523D01*
X114019047Y-96371428D02*
X114780952Y-96371428D01*
X114400000Y-96752380D02*
X114400000Y-95990476D01*
X113969047Y-98721428D02*
X114730952Y-98721428D01*
X114350000Y-99102380D02*
X114350000Y-98340476D01*
X126529047Y-111401428D02*
X127290952Y-111401428D01*
X126910000Y-111782380D02*
X126910000Y-111020476D01*
X110571428Y-105870952D02*
X110571428Y-105109047D01*
X110952380Y-105490000D02*
X110190476Y-105490000D01*
X110611428Y-103870952D02*
X110611428Y-103109047D01*
X110992380Y-103490000D02*
X110230476Y-103490000D01*
X110541428Y-101530952D02*
X110541428Y-100769047D01*
X110922380Y-101150000D02*
X110160476Y-101150000D01*
X108483495Y-99299780D02*
X109054923Y-99299780D01*
X108769209Y-100299780D02*
X108769209Y-99299780D01*
X109293019Y-99299780D02*
X109959685Y-100299780D01*
X109959685Y-99299780D02*
X109293019Y-100299780D01*
X108799333Y-97861380D02*
X108466000Y-97385190D01*
X108227904Y-97861380D02*
X108227904Y-96861380D01*
X108608857Y-96861380D01*
X108704095Y-96909000D01*
X108751714Y-96956619D01*
X108799333Y-97051857D01*
X108799333Y-97194714D01*
X108751714Y-97289952D01*
X108704095Y-97337571D01*
X108608857Y-97385190D01*
X108227904Y-97385190D01*
X109132666Y-96861380D02*
X109799333Y-97861380D01*
X109799333Y-96861380D02*
X109132666Y-97861380D01*
X140712380Y-108280476D02*
X140712380Y-108756666D01*
X141188571Y-108804285D01*
X141140952Y-108756666D01*
X141093333Y-108661428D01*
X141093333Y-108423333D01*
X141140952Y-108328095D01*
X141188571Y-108280476D01*
X141283809Y-108232857D01*
X141521904Y-108232857D01*
X141617142Y-108280476D01*
X141664761Y-108328095D01*
X141712380Y-108423333D01*
X141712380Y-108661428D01*
X141664761Y-108756666D01*
X141617142Y-108804285D01*
X140712380Y-107947142D02*
X141712380Y-107613809D01*
X140712380Y-107280476D01*
X143309523Y-114252380D02*
X142833333Y-114252380D01*
X142785714Y-114728571D01*
X142833333Y-114680952D01*
X142928571Y-114633333D01*
X143166666Y-114633333D01*
X143261904Y-114680952D01*
X143309523Y-114728571D01*
X143357142Y-114823809D01*
X143357142Y-115061904D01*
X143309523Y-115157142D01*
X143261904Y-115204761D01*
X143166666Y-115252380D01*
X142928571Y-115252380D01*
X142833333Y-115204761D01*
X142785714Y-115157142D01*
X143642857Y-114252380D02*
X143976190Y-115252380D01*
X144309523Y-114252380D01*
X121713809Y-126882380D02*
X122332857Y-126882380D01*
X121999523Y-127263333D01*
X122142380Y-127263333D01*
X122237619Y-127310952D01*
X122285238Y-127358571D01*
X122332857Y-127453809D01*
X122332857Y-127691904D01*
X122285238Y-127787142D01*
X122237619Y-127834761D01*
X122142380Y-127882380D01*
X121856666Y-127882380D01*
X121761428Y-127834761D01*
X121713809Y-127787142D01*
X122761428Y-127787142D02*
X122809047Y-127834761D01*
X122761428Y-127882380D01*
X122713809Y-127834761D01*
X122761428Y-127787142D01*
X122761428Y-127882380D01*
X123142380Y-126882380D02*
X123761428Y-126882380D01*
X123428095Y-127263333D01*
X123570952Y-127263333D01*
X123666190Y-127310952D01*
X123713809Y-127358571D01*
X123761428Y-127453809D01*
X123761428Y-127691904D01*
X123713809Y-127787142D01*
X123666190Y-127834761D01*
X123570952Y-127882380D01*
X123285238Y-127882380D01*
X123190000Y-127834761D01*
X123142380Y-127787142D01*
X124047142Y-126882380D02*
X124380476Y-127882380D01*
X124713809Y-126882380D01*
X116505580Y-112422190D02*
X116505580Y-111803142D01*
X116886533Y-112136476D01*
X116886533Y-111993619D01*
X116934152Y-111898380D01*
X116981771Y-111850761D01*
X117077009Y-111803142D01*
X117315104Y-111803142D01*
X117410342Y-111850761D01*
X117457961Y-111898380D01*
X117505580Y-111993619D01*
X117505580Y-112279333D01*
X117457961Y-112374571D01*
X117410342Y-112422190D01*
X117410342Y-111374571D02*
X117457961Y-111326952D01*
X117505580Y-111374571D01*
X117457961Y-111422190D01*
X117410342Y-111374571D01*
X117505580Y-111374571D01*
X116505580Y-110993619D02*
X116505580Y-110374571D01*
X116886533Y-110707904D01*
X116886533Y-110565047D01*
X116934152Y-110469809D01*
X116981771Y-110422190D01*
X117077009Y-110374571D01*
X117315104Y-110374571D01*
X117410342Y-110422190D01*
X117457961Y-110469809D01*
X117505580Y-110565047D01*
X117505580Y-110850761D01*
X117457961Y-110946000D01*
X117410342Y-110993619D01*
X116505580Y-110088857D02*
X117505580Y-109755523D01*
X116505580Y-109422190D01*
D11*
%TO.C,R15*%
X96640000Y-94479721D02*
X96640000Y-94805279D01*
X95620000Y-94479721D02*
X95620000Y-94805279D01*
%TO.C,R14*%
X95524000Y-98904279D02*
X95524000Y-98578721D01*
X96544000Y-98904279D02*
X96544000Y-98578721D01*
%TO.C,U2*%
X98315000Y-108080000D02*
X98315000Y-109395000D01*
X98015000Y-108080000D02*
X98315000Y-108080000D01*
X98015000Y-107780000D02*
X98015000Y-108080000D01*
X98015000Y-100860000D02*
X98315000Y-100860000D01*
X98015000Y-101160000D02*
X98015000Y-100860000D01*
X105235000Y-108080000D02*
X104935000Y-108080000D01*
X105235000Y-107780000D02*
X105235000Y-108080000D01*
X105235000Y-100860000D02*
X104935000Y-100860000D01*
X105235000Y-101160000D02*
X105235000Y-100860000D01*
%TO.C,C13*%
X102580000Y-111484721D02*
X102580000Y-111810279D01*
X103600000Y-111484721D02*
X103600000Y-111810279D01*
D12*
%TO.C,G\u002A\u002A\u002A*%
G36*
X105467109Y-120974358D02*
G01*
X105466793Y-120988055D01*
X105465893Y-121008858D01*
X105464496Y-121035432D01*
X105462690Y-121066443D01*
X105460564Y-121100558D01*
X105458205Y-121136441D01*
X105455702Y-121172759D01*
X105453143Y-121208178D01*
X105450615Y-121241363D01*
X105448207Y-121270980D01*
X105446007Y-121295694D01*
X105445664Y-121299267D01*
X105425033Y-121468496D01*
X105396261Y-121635448D01*
X105359388Y-121800022D01*
X105314455Y-121962122D01*
X105261501Y-122121649D01*
X105200568Y-122278506D01*
X105131695Y-122432593D01*
X105054922Y-122583814D01*
X104970290Y-122732069D01*
X104877839Y-122877261D01*
X104777609Y-123019292D01*
X104697735Y-123123205D01*
X104591033Y-123250502D01*
X104478437Y-123371824D01*
X104359874Y-123487231D01*
X104235272Y-123596784D01*
X104104558Y-123700544D01*
X103967662Y-123798573D01*
X103824509Y-123890932D01*
X103712383Y-123956862D01*
X103693552Y-123967265D01*
X103668515Y-123980745D01*
X103638634Y-123996588D01*
X103605272Y-124014077D01*
X103569793Y-124032499D01*
X103533560Y-124051138D01*
X103502833Y-124066797D01*
X103459374Y-124088857D01*
X103422825Y-124107464D01*
X103392533Y-124122975D01*
X103367844Y-124135745D01*
X103348107Y-124146129D01*
X103332669Y-124154483D01*
X103320876Y-124161161D01*
X103312075Y-124166519D01*
X103305615Y-124170913D01*
X103300843Y-124174698D01*
X103297105Y-124178228D01*
X103296004Y-124179380D01*
X103291595Y-124184391D01*
X103288932Y-124189279D01*
X103287854Y-124195905D01*
X103288199Y-124206131D01*
X103289806Y-124221818D01*
X103291260Y-124234204D01*
X103293537Y-124261670D01*
X103294727Y-124295309D01*
X103294772Y-124332891D01*
X103294361Y-124351981D01*
X103293051Y-124385458D01*
X103290918Y-124412753D01*
X103287411Y-124436147D01*
X103281979Y-124457922D01*
X103274071Y-124480357D01*
X103263135Y-124505734D01*
X103251002Y-124531416D01*
X103229137Y-124573747D01*
X103206981Y-124610093D01*
X103182877Y-124642825D01*
X103155172Y-124674315D01*
X103141414Y-124688387D01*
X103117560Y-124711139D01*
X103094299Y-124730963D01*
X103070018Y-124748946D01*
X103043102Y-124766172D01*
X103011939Y-124783725D01*
X102974914Y-124802690D01*
X102961922Y-124809061D01*
X102893027Y-124842566D01*
X102007305Y-124842362D01*
X101121583Y-124842157D01*
X101047500Y-124805225D01*
X101001623Y-124781412D01*
X100962632Y-124758966D01*
X100929257Y-124736980D01*
X100900229Y-124714549D01*
X100874277Y-124690766D01*
X100850131Y-124664725D01*
X100849415Y-124663893D01*
X100824751Y-124632021D01*
X100799782Y-124594039D01*
X100775777Y-124552155D01*
X100754001Y-124508580D01*
X100735828Y-124465800D01*
X100723650Y-124434050D01*
X100723650Y-124184283D01*
X100694017Y-124164263D01*
X100682223Y-124156948D01*
X100664199Y-124146609D01*
X100641298Y-124133984D01*
X100614877Y-124119808D01*
X100586290Y-124104819D01*
X100558550Y-124090593D01*
X100479402Y-124050119D01*
X100407262Y-124012453D01*
X100352666Y-123983200D01*
X101144867Y-123983200D01*
X101144867Y-124419233D01*
X102872067Y-124419233D01*
X102872067Y-123983200D01*
X101144867Y-123983200D01*
X100352666Y-123983200D01*
X100341331Y-123977127D01*
X100280811Y-123943672D01*
X100224902Y-123911620D01*
X100172806Y-123880501D01*
X100123724Y-123849847D01*
X100076857Y-123819189D01*
X100031406Y-123788060D01*
X99986573Y-123755989D01*
X99979799Y-123751029D01*
X99897276Y-123688857D01*
X99819872Y-123627118D01*
X99745513Y-123564032D01*
X99672128Y-123497815D01*
X99597644Y-123426688D01*
X99565545Y-123394932D01*
X99520171Y-123349145D01*
X99479693Y-123307195D01*
X99442590Y-123267397D01*
X99407343Y-123228062D01*
X99372433Y-123187504D01*
X99336338Y-123144035D01*
X99307984Y-123109017D01*
X99205247Y-122974297D01*
X99109635Y-122835099D01*
X99021247Y-122691669D01*
X98940181Y-122544251D01*
X98866537Y-122393093D01*
X98800413Y-122238440D01*
X98741908Y-122080538D01*
X98691122Y-121919632D01*
X98648153Y-121755969D01*
X98613100Y-121589796D01*
X98586079Y-121421451D01*
X99027910Y-121421451D01*
X99028191Y-121435784D01*
X99030466Y-121456632D01*
X99034550Y-121483186D01*
X99040259Y-121514639D01*
X99047411Y-121550183D01*
X99055820Y-121589009D01*
X99065303Y-121630309D01*
X99075676Y-121673275D01*
X99086756Y-121717100D01*
X99098358Y-121760974D01*
X99110299Y-121804091D01*
X99122395Y-121845641D01*
X99134462Y-121884817D01*
X99142284Y-121908867D01*
X99195471Y-122055187D01*
X99256494Y-122198612D01*
X99325122Y-122338826D01*
X99401128Y-122475513D01*
X99484282Y-122608358D01*
X99574355Y-122737045D01*
X99671117Y-122861259D01*
X99774342Y-122980686D01*
X99883798Y-123095008D01*
X99999257Y-123203911D01*
X100120491Y-123307079D01*
X100205012Y-123372970D01*
X100227534Y-123389557D01*
X100255222Y-123409390D01*
X100286136Y-123431114D01*
X100318335Y-123453371D01*
X100349879Y-123474805D01*
X100367888Y-123486842D01*
X100465203Y-123551400D01*
X103552246Y-123551400D01*
X103647131Y-123487212D01*
X103728951Y-123430764D01*
X103804203Y-123376448D01*
X103874171Y-123323219D01*
X103940137Y-123270035D01*
X104003385Y-123215853D01*
X104065196Y-123159631D01*
X104126853Y-123100327D01*
X104143929Y-123083362D01*
X104252396Y-122969152D01*
X104354561Y-122849866D01*
X104450207Y-122725883D01*
X104539116Y-122597580D01*
X104621072Y-122465334D01*
X104695859Y-122329525D01*
X104763259Y-122190529D01*
X104823056Y-122048724D01*
X104875033Y-121904488D01*
X104918974Y-121758199D01*
X104931306Y-121710999D01*
X104942027Y-121667389D01*
X104952259Y-121623772D01*
X104961798Y-121581171D01*
X104970439Y-121540609D01*
X104977975Y-121503110D01*
X104984201Y-121469697D01*
X104988912Y-121441393D01*
X104991902Y-121419220D01*
X104992965Y-121404202D01*
X104992966Y-121404042D01*
X104992967Y-121392400D01*
X102633942Y-121392669D01*
X102399673Y-121392709D01*
X102173823Y-121392772D01*
X101956347Y-121392861D01*
X101747196Y-121392974D01*
X101546325Y-121393113D01*
X101353685Y-121393276D01*
X101169231Y-121393465D01*
X100992915Y-121393679D01*
X100824690Y-121393919D01*
X100664510Y-121394184D01*
X100512327Y-121394475D01*
X100368095Y-121394793D01*
X100231767Y-121395137D01*
X100103295Y-121395507D01*
X99982634Y-121395903D01*
X99869735Y-121396327D01*
X99764553Y-121396777D01*
X99667039Y-121397254D01*
X99577148Y-121397759D01*
X99494832Y-121398290D01*
X99420045Y-121398850D01*
X99352739Y-121399437D01*
X99292868Y-121400052D01*
X99240385Y-121400694D01*
X99195242Y-121401365D01*
X99157393Y-121402065D01*
X99126792Y-121402792D01*
X99103390Y-121403549D01*
X99087142Y-121404334D01*
X99081452Y-121404758D01*
X99060624Y-121407104D01*
X99043905Y-121409871D01*
X99032956Y-121412749D01*
X99029806Y-121414440D01*
X99027910Y-121421451D01*
X98586079Y-121421451D01*
X98586063Y-121421356D01*
X98569005Y-121271750D01*
X98567426Y-121253232D01*
X98565561Y-121229025D01*
X98563495Y-121200464D01*
X98561315Y-121168886D01*
X98559103Y-121135627D01*
X98556945Y-121102022D01*
X98554927Y-121069407D01*
X98553133Y-121039119D01*
X98551647Y-121012492D01*
X98550555Y-120990863D01*
X98549942Y-120975568D01*
X98549839Y-120970125D01*
X98549833Y-120960600D01*
X105467100Y-120960600D01*
X105467109Y-120974358D01*
G37*
X105467109Y-120974358D02*
X105466793Y-120988055D01*
X105465893Y-121008858D01*
X105464496Y-121035432D01*
X105462690Y-121066443D01*
X105460564Y-121100558D01*
X105458205Y-121136441D01*
X105455702Y-121172759D01*
X105453143Y-121208178D01*
X105450615Y-121241363D01*
X105448207Y-121270980D01*
X105446007Y-121295694D01*
X105445664Y-121299267D01*
X105425033Y-121468496D01*
X105396261Y-121635448D01*
X105359388Y-121800022D01*
X105314455Y-121962122D01*
X105261501Y-122121649D01*
X105200568Y-122278506D01*
X105131695Y-122432593D01*
X105054922Y-122583814D01*
X104970290Y-122732069D01*
X104877839Y-122877261D01*
X104777609Y-123019292D01*
X104697735Y-123123205D01*
X104591033Y-123250502D01*
X104478437Y-123371824D01*
X104359874Y-123487231D01*
X104235272Y-123596784D01*
X104104558Y-123700544D01*
X103967662Y-123798573D01*
X103824509Y-123890932D01*
X103712383Y-123956862D01*
X103693552Y-123967265D01*
X103668515Y-123980745D01*
X103638634Y-123996588D01*
X103605272Y-124014077D01*
X103569793Y-124032499D01*
X103533560Y-124051138D01*
X103502833Y-124066797D01*
X103459374Y-124088857D01*
X103422825Y-124107464D01*
X103392533Y-124122975D01*
X103367844Y-124135745D01*
X103348107Y-124146129D01*
X103332669Y-124154483D01*
X103320876Y-124161161D01*
X103312075Y-124166519D01*
X103305615Y-124170913D01*
X103300843Y-124174698D01*
X103297105Y-124178228D01*
X103296004Y-124179380D01*
X103291595Y-124184391D01*
X103288932Y-124189279D01*
X103287854Y-124195905D01*
X103288199Y-124206131D01*
X103289806Y-124221818D01*
X103291260Y-124234204D01*
X103293537Y-124261670D01*
X103294727Y-124295309D01*
X103294772Y-124332891D01*
X103294361Y-124351981D01*
X103293051Y-124385458D01*
X103290918Y-124412753D01*
X103287411Y-124436147D01*
X103281979Y-124457922D01*
X103274071Y-124480357D01*
X103263135Y-124505734D01*
X103251002Y-124531416D01*
X103229137Y-124573747D01*
X103206981Y-124610093D01*
X103182877Y-124642825D01*
X103155172Y-124674315D01*
X103141414Y-124688387D01*
X103117560Y-124711139D01*
X103094299Y-124730963D01*
X103070018Y-124748946D01*
X103043102Y-124766172D01*
X103011939Y-124783725D01*
X102974914Y-124802690D01*
X102961922Y-124809061D01*
X102893027Y-124842566D01*
X102007305Y-124842362D01*
X101121583Y-124842157D01*
X101047500Y-124805225D01*
X101001623Y-124781412D01*
X100962632Y-124758966D01*
X100929257Y-124736980D01*
X100900229Y-124714549D01*
X100874277Y-124690766D01*
X100850131Y-124664725D01*
X100849415Y-124663893D01*
X100824751Y-124632021D01*
X100799782Y-124594039D01*
X100775777Y-124552155D01*
X100754001Y-124508580D01*
X100735828Y-124465800D01*
X100723650Y-124434050D01*
X100723650Y-124184283D01*
X100694017Y-124164263D01*
X100682223Y-124156948D01*
X100664199Y-124146609D01*
X100641298Y-124133984D01*
X100614877Y-124119808D01*
X100586290Y-124104819D01*
X100558550Y-124090593D01*
X100479402Y-124050119D01*
X100407262Y-124012453D01*
X100352666Y-123983200D01*
X101144867Y-123983200D01*
X101144867Y-124419233D01*
X102872067Y-124419233D01*
X102872067Y-123983200D01*
X101144867Y-123983200D01*
X100352666Y-123983200D01*
X100341331Y-123977127D01*
X100280811Y-123943672D01*
X100224902Y-123911620D01*
X100172806Y-123880501D01*
X100123724Y-123849847D01*
X100076857Y-123819189D01*
X100031406Y-123788060D01*
X99986573Y-123755989D01*
X99979799Y-123751029D01*
X99897276Y-123688857D01*
X99819872Y-123627118D01*
X99745513Y-123564032D01*
X99672128Y-123497815D01*
X99597644Y-123426688D01*
X99565545Y-123394932D01*
X99520171Y-123349145D01*
X99479693Y-123307195D01*
X99442590Y-123267397D01*
X99407343Y-123228062D01*
X99372433Y-123187504D01*
X99336338Y-123144035D01*
X99307984Y-123109017D01*
X99205247Y-122974297D01*
X99109635Y-122835099D01*
X99021247Y-122691669D01*
X98940181Y-122544251D01*
X98866537Y-122393093D01*
X98800413Y-122238440D01*
X98741908Y-122080538D01*
X98691122Y-121919632D01*
X98648153Y-121755969D01*
X98613100Y-121589796D01*
X98586079Y-121421451D01*
X99027910Y-121421451D01*
X99028191Y-121435784D01*
X99030466Y-121456632D01*
X99034550Y-121483186D01*
X99040259Y-121514639D01*
X99047411Y-121550183D01*
X99055820Y-121589009D01*
X99065303Y-121630309D01*
X99075676Y-121673275D01*
X99086756Y-121717100D01*
X99098358Y-121760974D01*
X99110299Y-121804091D01*
X99122395Y-121845641D01*
X99134462Y-121884817D01*
X99142284Y-121908867D01*
X99195471Y-122055187D01*
X99256494Y-122198612D01*
X99325122Y-122338826D01*
X99401128Y-122475513D01*
X99484282Y-122608358D01*
X99574355Y-122737045D01*
X99671117Y-122861259D01*
X99774342Y-122980686D01*
X99883798Y-123095008D01*
X99999257Y-123203911D01*
X100120491Y-123307079D01*
X100205012Y-123372970D01*
X100227534Y-123389557D01*
X100255222Y-123409390D01*
X100286136Y-123431114D01*
X100318335Y-123453371D01*
X100349879Y-123474805D01*
X100367888Y-123486842D01*
X100465203Y-123551400D01*
X103552246Y-123551400D01*
X103647131Y-123487212D01*
X103728951Y-123430764D01*
X103804203Y-123376448D01*
X103874171Y-123323219D01*
X103940137Y-123270035D01*
X104003385Y-123215853D01*
X104065196Y-123159631D01*
X104126853Y-123100327D01*
X104143929Y-123083362D01*
X104252396Y-122969152D01*
X104354561Y-122849866D01*
X104450207Y-122725883D01*
X104539116Y-122597580D01*
X104621072Y-122465334D01*
X104695859Y-122329525D01*
X104763259Y-122190529D01*
X104823056Y-122048724D01*
X104875033Y-121904488D01*
X104918974Y-121758199D01*
X104931306Y-121710999D01*
X104942027Y-121667389D01*
X104952259Y-121623772D01*
X104961798Y-121581171D01*
X104970439Y-121540609D01*
X104977975Y-121503110D01*
X104984201Y-121469697D01*
X104988912Y-121441393D01*
X104991902Y-121419220D01*
X104992965Y-121404202D01*
X104992966Y-121404042D01*
X104992967Y-121392400D01*
X102633942Y-121392669D01*
X102399673Y-121392709D01*
X102173823Y-121392772D01*
X101956347Y-121392861D01*
X101747196Y-121392974D01*
X101546325Y-121393113D01*
X101353685Y-121393276D01*
X101169231Y-121393465D01*
X100992915Y-121393679D01*
X100824690Y-121393919D01*
X100664510Y-121394184D01*
X100512327Y-121394475D01*
X100368095Y-121394793D01*
X100231767Y-121395137D01*
X100103295Y-121395507D01*
X99982634Y-121395903D01*
X99869735Y-121396327D01*
X99764553Y-121396777D01*
X99667039Y-121397254D01*
X99577148Y-121397759D01*
X99494832Y-121398290D01*
X99420045Y-121398850D01*
X99352739Y-121399437D01*
X99292868Y-121400052D01*
X99240385Y-121400694D01*
X99195242Y-121401365D01*
X99157393Y-121402065D01*
X99126792Y-121402792D01*
X99103390Y-121403549D01*
X99087142Y-121404334D01*
X99081452Y-121404758D01*
X99060624Y-121407104D01*
X99043905Y-121409871D01*
X99032956Y-121412749D01*
X99029806Y-121414440D01*
X99027910Y-121421451D01*
X98586079Y-121421451D01*
X98586063Y-121421356D01*
X98569005Y-121271750D01*
X98567426Y-121253232D01*
X98565561Y-121229025D01*
X98563495Y-121200464D01*
X98561315Y-121168886D01*
X98559103Y-121135627D01*
X98556945Y-121102022D01*
X98554927Y-121069407D01*
X98553133Y-121039119D01*
X98551647Y-121012492D01*
X98550555Y-120990863D01*
X98549942Y-120975568D01*
X98549839Y-120970125D01*
X98549833Y-120960600D01*
X105467100Y-120960600D01*
X105467109Y-120974358D01*
G36*
X103540473Y-117943897D02*
G01*
X103575512Y-117949192D01*
X103607627Y-117958756D01*
X103634101Y-117971889D01*
X103664580Y-117995566D01*
X103690274Y-118023822D01*
X103710594Y-118055395D01*
X103724951Y-118089024D01*
X103732753Y-118123446D01*
X103733411Y-118157400D01*
X103730088Y-118177202D01*
X103727903Y-118185089D01*
X103724917Y-118194102D01*
X103721014Y-118204445D01*
X103716076Y-118216323D01*
X103709987Y-118229939D01*
X103702630Y-118245498D01*
X103693887Y-118263204D01*
X103683642Y-118283260D01*
X103671778Y-118305872D01*
X103658177Y-118331243D01*
X103642723Y-118359578D01*
X103625298Y-118391080D01*
X103605786Y-118425953D01*
X103584069Y-118464403D01*
X103560031Y-118506632D01*
X103533555Y-118552846D01*
X103504523Y-118603248D01*
X103472819Y-118658042D01*
X103438325Y-118717433D01*
X103400925Y-118781624D01*
X103360501Y-118850820D01*
X103316937Y-118925226D01*
X103270116Y-119005044D01*
X103219920Y-119090480D01*
X103166233Y-119181737D01*
X103108937Y-119279019D01*
X103047916Y-119382532D01*
X102983052Y-119492478D01*
X102914229Y-119609062D01*
X102841330Y-119732488D01*
X102764236Y-119862960D01*
X102753516Y-119881100D01*
X102706236Y-119961098D01*
X102663071Y-120034125D01*
X102623831Y-120100501D01*
X102588323Y-120160544D01*
X102556358Y-120214574D01*
X102527743Y-120262909D01*
X102502287Y-120305869D01*
X102479800Y-120343773D01*
X102460090Y-120376940D01*
X102442966Y-120405688D01*
X102428236Y-120430338D01*
X102415710Y-120451207D01*
X102405196Y-120468614D01*
X102396504Y-120482880D01*
X102389441Y-120494323D01*
X102383817Y-120503261D01*
X102379440Y-120510015D01*
X102376120Y-120514903D01*
X102373664Y-120518243D01*
X102371883Y-120520356D01*
X102370584Y-120521560D01*
X102369577Y-120522174D01*
X102369232Y-120522319D01*
X102363278Y-120523026D01*
X102349829Y-120523696D01*
X102329860Y-120524319D01*
X102304342Y-120524887D01*
X102274248Y-120525390D01*
X102240551Y-120525819D01*
X102204224Y-120526165D01*
X102166239Y-120526418D01*
X102127569Y-120526570D01*
X102089187Y-120526612D01*
X102052064Y-120526533D01*
X102017175Y-120526325D01*
X101985492Y-120525979D01*
X101984125Y-120525959D01*
X101955046Y-120525486D01*
X101928976Y-120524957D01*
X101907043Y-120524405D01*
X101890375Y-120523859D01*
X101880099Y-120523352D01*
X101877233Y-120522979D01*
X101879356Y-120519070D01*
X101885594Y-120508201D01*
X101895755Y-120490702D01*
X101909644Y-120466899D01*
X101927068Y-120437121D01*
X101947833Y-120401698D01*
X101971745Y-120360956D01*
X101998610Y-120315224D01*
X102028236Y-120264831D01*
X102060428Y-120210104D01*
X102094992Y-120151373D01*
X102131735Y-120088965D01*
X102170463Y-120023209D01*
X102210982Y-119954432D01*
X102253099Y-119882964D01*
X102296619Y-119809132D01*
X102341350Y-119733265D01*
X102387097Y-119655690D01*
X102433667Y-119576737D01*
X102480865Y-119496734D01*
X102528499Y-119416009D01*
X102576374Y-119334889D01*
X102624298Y-119253705D01*
X102672075Y-119172782D01*
X102719512Y-119092451D01*
X102766417Y-119013039D01*
X102812594Y-118934875D01*
X102857850Y-118858286D01*
X102901992Y-118783602D01*
X102944825Y-118711150D01*
X102986157Y-118641259D01*
X103025792Y-118574256D01*
X103063539Y-118510471D01*
X103099202Y-118450231D01*
X103132588Y-118393866D01*
X103163504Y-118341702D01*
X103191756Y-118294068D01*
X103217149Y-118251294D01*
X103239491Y-118213706D01*
X103258587Y-118181633D01*
X103274244Y-118155404D01*
X103281477Y-118143326D01*
X103302935Y-118107596D01*
X103320604Y-118078366D01*
X103335021Y-118054854D01*
X103346725Y-118036283D01*
X103356252Y-118021872D01*
X103364140Y-118010843D01*
X103370926Y-118002416D01*
X103377148Y-117995813D01*
X103383343Y-117990252D01*
X103390049Y-117984957D01*
X103391394Y-117983939D01*
X103420645Y-117965039D01*
X103450707Y-117952491D01*
X103484195Y-117945363D01*
X103504982Y-117943417D01*
X103540473Y-117943897D01*
G37*
X103540473Y-117943897D02*
X103575512Y-117949192D01*
X103607627Y-117958756D01*
X103634101Y-117971889D01*
X103664580Y-117995566D01*
X103690274Y-118023822D01*
X103710594Y-118055395D01*
X103724951Y-118089024D01*
X103732753Y-118123446D01*
X103733411Y-118157400D01*
X103730088Y-118177202D01*
X103727903Y-118185089D01*
X103724917Y-118194102D01*
X103721014Y-118204445D01*
X103716076Y-118216323D01*
X103709987Y-118229939D01*
X103702630Y-118245498D01*
X103693887Y-118263204D01*
X103683642Y-118283260D01*
X103671778Y-118305872D01*
X103658177Y-118331243D01*
X103642723Y-118359578D01*
X103625298Y-118391080D01*
X103605786Y-118425953D01*
X103584069Y-118464403D01*
X103560031Y-118506632D01*
X103533555Y-118552846D01*
X103504523Y-118603248D01*
X103472819Y-118658042D01*
X103438325Y-118717433D01*
X103400925Y-118781624D01*
X103360501Y-118850820D01*
X103316937Y-118925226D01*
X103270116Y-119005044D01*
X103219920Y-119090480D01*
X103166233Y-119181737D01*
X103108937Y-119279019D01*
X103047916Y-119382532D01*
X102983052Y-119492478D01*
X102914229Y-119609062D01*
X102841330Y-119732488D01*
X102764236Y-119862960D01*
X102753516Y-119881100D01*
X102706236Y-119961098D01*
X102663071Y-120034125D01*
X102623831Y-120100501D01*
X102588323Y-120160544D01*
X102556358Y-120214574D01*
X102527743Y-120262909D01*
X102502287Y-120305869D01*
X102479800Y-120343773D01*
X102460090Y-120376940D01*
X102442966Y-120405688D01*
X102428236Y-120430338D01*
X102415710Y-120451207D01*
X102405196Y-120468614D01*
X102396504Y-120482880D01*
X102389441Y-120494323D01*
X102383817Y-120503261D01*
X102379440Y-120510015D01*
X102376120Y-120514903D01*
X102373664Y-120518243D01*
X102371883Y-120520356D01*
X102370584Y-120521560D01*
X102369577Y-120522174D01*
X102369232Y-120522319D01*
X102363278Y-120523026D01*
X102349829Y-120523696D01*
X102329860Y-120524319D01*
X102304342Y-120524887D01*
X102274248Y-120525390D01*
X102240551Y-120525819D01*
X102204224Y-120526165D01*
X102166239Y-120526418D01*
X102127569Y-120526570D01*
X102089187Y-120526612D01*
X102052064Y-120526533D01*
X102017175Y-120526325D01*
X101985492Y-120525979D01*
X101984125Y-120525959D01*
X101955046Y-120525486D01*
X101928976Y-120524957D01*
X101907043Y-120524405D01*
X101890375Y-120523859D01*
X101880099Y-120523352D01*
X101877233Y-120522979D01*
X101879356Y-120519070D01*
X101885594Y-120508201D01*
X101895755Y-120490702D01*
X101909644Y-120466899D01*
X101927068Y-120437121D01*
X101947833Y-120401698D01*
X101971745Y-120360956D01*
X101998610Y-120315224D01*
X102028236Y-120264831D01*
X102060428Y-120210104D01*
X102094992Y-120151373D01*
X102131735Y-120088965D01*
X102170463Y-120023209D01*
X102210982Y-119954432D01*
X102253099Y-119882964D01*
X102296619Y-119809132D01*
X102341350Y-119733265D01*
X102387097Y-119655690D01*
X102433667Y-119576737D01*
X102480865Y-119496734D01*
X102528499Y-119416009D01*
X102576374Y-119334889D01*
X102624298Y-119253705D01*
X102672075Y-119172782D01*
X102719512Y-119092451D01*
X102766417Y-119013039D01*
X102812594Y-118934875D01*
X102857850Y-118858286D01*
X102901992Y-118783602D01*
X102944825Y-118711150D01*
X102986157Y-118641259D01*
X103025792Y-118574256D01*
X103063539Y-118510471D01*
X103099202Y-118450231D01*
X103132588Y-118393866D01*
X103163504Y-118341702D01*
X103191756Y-118294068D01*
X103217149Y-118251294D01*
X103239491Y-118213706D01*
X103258587Y-118181633D01*
X103274244Y-118155404D01*
X103281477Y-118143326D01*
X103302935Y-118107596D01*
X103320604Y-118078366D01*
X103335021Y-118054854D01*
X103346725Y-118036283D01*
X103356252Y-118021872D01*
X103364140Y-118010843D01*
X103370926Y-118002416D01*
X103377148Y-117995813D01*
X103383343Y-117990252D01*
X103390049Y-117984957D01*
X103391394Y-117983939D01*
X103420645Y-117965039D01*
X103450707Y-117952491D01*
X103484195Y-117945363D01*
X103504982Y-117943417D01*
X103540473Y-117943897D01*
G36*
X104722558Y-118668439D02*
G01*
X104760612Y-118676153D01*
X104796697Y-118689701D01*
X104829412Y-118708388D01*
X104857357Y-118731518D01*
X104879134Y-118758395D01*
X104884068Y-118766742D01*
X104896725Y-118796958D01*
X104905274Y-118832148D01*
X104909462Y-118869751D01*
X104909036Y-118907202D01*
X104903744Y-118941939D01*
X104902006Y-118948595D01*
X104900122Y-118955035D01*
X104898034Y-118960961D01*
X104895251Y-118966879D01*
X104891285Y-118973300D01*
X104885647Y-118980730D01*
X104877848Y-118989680D01*
X104867399Y-119000657D01*
X104853811Y-119014170D01*
X104836595Y-119030728D01*
X104815262Y-119050838D01*
X104789323Y-119075011D01*
X104758289Y-119103753D01*
X104721671Y-119137574D01*
X104709333Y-119148962D01*
X104676569Y-119179176D01*
X104644273Y-119208895D01*
X104612110Y-119238422D01*
X104579744Y-119268058D01*
X104546839Y-119298105D01*
X104513061Y-119328865D01*
X104478074Y-119360640D01*
X104441541Y-119393731D01*
X104403129Y-119428441D01*
X104362501Y-119465070D01*
X104319321Y-119503921D01*
X104273255Y-119545296D01*
X104223967Y-119589495D01*
X104171122Y-119636822D01*
X104114384Y-119687577D01*
X104053417Y-119742063D01*
X103987886Y-119800582D01*
X103917456Y-119863434D01*
X103841791Y-119930922D01*
X103760556Y-120003347D01*
X103673415Y-120081012D01*
X103649069Y-120102707D01*
X103170889Y-120528800D01*
X102990786Y-120527827D01*
X102945126Y-120527541D01*
X102895794Y-120527163D01*
X102844851Y-120526712D01*
X102794359Y-120526209D01*
X102746379Y-120525675D01*
X102702971Y-120525130D01*
X102669892Y-120524652D01*
X102529100Y-120522450D01*
X102908730Y-120183783D01*
X103051005Y-120056885D01*
X103186989Y-119935650D01*
X103316685Y-119820076D01*
X103440094Y-119710162D01*
X103557218Y-119605904D01*
X103668060Y-119507303D01*
X103772621Y-119414356D01*
X103870902Y-119327061D01*
X103962907Y-119245416D01*
X104048637Y-119169420D01*
X104128094Y-119099072D01*
X104201281Y-119034369D01*
X104268198Y-118975309D01*
X104328848Y-118921891D01*
X104383233Y-118874113D01*
X104431355Y-118831974D01*
X104473216Y-118795471D01*
X104508818Y-118764602D01*
X104538162Y-118739367D01*
X104555551Y-118724572D01*
X104581278Y-118703922D01*
X104603640Y-118688877D01*
X104624677Y-118678525D01*
X104646429Y-118671956D01*
X104670936Y-118668258D01*
X104683933Y-118667256D01*
X104722558Y-118668439D01*
G37*
X104722558Y-118668439D02*
X104760612Y-118676153D01*
X104796697Y-118689701D01*
X104829412Y-118708388D01*
X104857357Y-118731518D01*
X104879134Y-118758395D01*
X104884068Y-118766742D01*
X104896725Y-118796958D01*
X104905274Y-118832148D01*
X104909462Y-118869751D01*
X104909036Y-118907202D01*
X104903744Y-118941939D01*
X104902006Y-118948595D01*
X104900122Y-118955035D01*
X104898034Y-118960961D01*
X104895251Y-118966879D01*
X104891285Y-118973300D01*
X104885647Y-118980730D01*
X104877848Y-118989680D01*
X104867399Y-119000657D01*
X104853811Y-119014170D01*
X104836595Y-119030728D01*
X104815262Y-119050838D01*
X104789323Y-119075011D01*
X104758289Y-119103753D01*
X104721671Y-119137574D01*
X104709333Y-119148962D01*
X104676569Y-119179176D01*
X104644273Y-119208895D01*
X104612110Y-119238422D01*
X104579744Y-119268058D01*
X104546839Y-119298105D01*
X104513061Y-119328865D01*
X104478074Y-119360640D01*
X104441541Y-119393731D01*
X104403129Y-119428441D01*
X104362501Y-119465070D01*
X104319321Y-119503921D01*
X104273255Y-119545296D01*
X104223967Y-119589495D01*
X104171122Y-119636822D01*
X104114384Y-119687577D01*
X104053417Y-119742063D01*
X103987886Y-119800582D01*
X103917456Y-119863434D01*
X103841791Y-119930922D01*
X103760556Y-120003347D01*
X103673415Y-120081012D01*
X103649069Y-120102707D01*
X103170889Y-120528800D01*
X102990786Y-120527827D01*
X102945126Y-120527541D01*
X102895794Y-120527163D01*
X102844851Y-120526712D01*
X102794359Y-120526209D01*
X102746379Y-120525675D01*
X102702971Y-120525130D01*
X102669892Y-120524652D01*
X102529100Y-120522450D01*
X102908730Y-120183783D01*
X103051005Y-120056885D01*
X103186989Y-119935650D01*
X103316685Y-119820076D01*
X103440094Y-119710162D01*
X103557218Y-119605904D01*
X103668060Y-119507303D01*
X103772621Y-119414356D01*
X103870902Y-119327061D01*
X103962907Y-119245416D01*
X104048637Y-119169420D01*
X104128094Y-119099072D01*
X104201281Y-119034369D01*
X104268198Y-118975309D01*
X104328848Y-118921891D01*
X104383233Y-118874113D01*
X104431355Y-118831974D01*
X104473216Y-118795471D01*
X104508818Y-118764602D01*
X104538162Y-118739367D01*
X104555551Y-118724572D01*
X104581278Y-118703922D01*
X104603640Y-118688877D01*
X104624677Y-118678525D01*
X104646429Y-118671956D01*
X104670936Y-118668258D01*
X104683933Y-118667256D01*
X104722558Y-118668439D01*
D11*
%TO.C,J3*%
X97500000Y-88350000D02*
X97500000Y-91010000D01*
X120420000Y-88350000D02*
X97500000Y-88350000D01*
X120420000Y-91010000D02*
X97500000Y-91010000D01*
X120420000Y-88350000D02*
X120420000Y-91010000D01*
X121690000Y-88350000D02*
X123020000Y-88350000D01*
X123020000Y-88350000D02*
X123020000Y-89680000D01*
%TO.C,J4*%
X94560000Y-94100000D02*
X91900000Y-94100000D01*
X94560000Y-96700000D02*
X94560000Y-94100000D01*
X91900000Y-96700000D02*
X91900000Y-94100000D01*
X94560000Y-96700000D02*
X91900000Y-96700000D01*
X94560000Y-97970000D02*
X94560000Y-99300000D01*
X94560000Y-99300000D02*
X93230000Y-99300000D01*
%TO.C,C1*%
X130090000Y-90621078D02*
X130090000Y-90103922D01*
X131510000Y-90621078D02*
X131510000Y-90103922D01*
%TO.C,C2*%
X139220000Y-110236000D02*
G75*
G03*
X139220000Y-110236000I-4120000J0D01*
G01*
X135100000Y-114316000D02*
X135100000Y-106156000D01*
X135060000Y-114316000D02*
X135060000Y-106156000D01*
X135020000Y-114316000D02*
X135020000Y-106156000D01*
X134980000Y-114315000D02*
X134980000Y-106157000D01*
X134940000Y-114313000D02*
X134940000Y-106159000D01*
X134900000Y-114312000D02*
X134900000Y-106160000D01*
X134860000Y-114310000D02*
X134860000Y-106162000D01*
X134820000Y-114307000D02*
X134820000Y-106165000D01*
X134780000Y-114304000D02*
X134780000Y-106168000D01*
X134740000Y-114301000D02*
X134740000Y-106171000D01*
X134700000Y-114297000D02*
X134700000Y-106175000D01*
X134660000Y-114293000D02*
X134660000Y-106179000D01*
X134620000Y-114288000D02*
X134620000Y-106184000D01*
X134580000Y-114284000D02*
X134580000Y-106188000D01*
X134540000Y-114278000D02*
X134540000Y-106194000D01*
X134500000Y-114273000D02*
X134500000Y-106199000D01*
X134460000Y-114266000D02*
X134460000Y-106206000D01*
X134420000Y-114260000D02*
X134420000Y-106212000D01*
X134379000Y-114253000D02*
X134379000Y-111276000D01*
X134379000Y-109196000D02*
X134379000Y-106219000D01*
X134339000Y-114246000D02*
X134339000Y-111276000D01*
X134339000Y-109196000D02*
X134339000Y-106226000D01*
X134299000Y-114238000D02*
X134299000Y-111276000D01*
X134299000Y-109196000D02*
X134299000Y-106234000D01*
X134259000Y-114230000D02*
X134259000Y-111276000D01*
X134259000Y-109196000D02*
X134259000Y-106242000D01*
X134219000Y-114221000D02*
X134219000Y-111276000D01*
X134219000Y-109196000D02*
X134219000Y-106251000D01*
X134179000Y-114212000D02*
X134179000Y-111276000D01*
X134179000Y-109196000D02*
X134179000Y-106260000D01*
X134139000Y-114203000D02*
X134139000Y-111276000D01*
X134139000Y-109196000D02*
X134139000Y-106269000D01*
X134099000Y-114193000D02*
X134099000Y-111276000D01*
X134099000Y-109196000D02*
X134099000Y-106279000D01*
X134059000Y-114183000D02*
X134059000Y-111276000D01*
X134059000Y-109196000D02*
X134059000Y-106289000D01*
X134019000Y-114172000D02*
X134019000Y-111276000D01*
X134019000Y-109196000D02*
X134019000Y-106300000D01*
X133979000Y-114161000D02*
X133979000Y-111276000D01*
X133979000Y-109196000D02*
X133979000Y-106311000D01*
X133939000Y-114150000D02*
X133939000Y-111276000D01*
X133939000Y-109196000D02*
X133939000Y-106322000D01*
X133899000Y-114138000D02*
X133899000Y-111276000D01*
X133899000Y-109196000D02*
X133899000Y-106334000D01*
X133859000Y-114125000D02*
X133859000Y-111276000D01*
X133859000Y-109196000D02*
X133859000Y-106347000D01*
X133819000Y-114113000D02*
X133819000Y-111276000D01*
X133819000Y-109196000D02*
X133819000Y-106359000D01*
X133779000Y-114099000D02*
X133779000Y-111276000D01*
X133779000Y-109196000D02*
X133779000Y-106373000D01*
X133739000Y-114086000D02*
X133739000Y-111276000D01*
X133739000Y-109196000D02*
X133739000Y-106386000D01*
X133699000Y-114071000D02*
X133699000Y-111276000D01*
X133699000Y-109196000D02*
X133699000Y-106401000D01*
X133659000Y-114057000D02*
X133659000Y-111276000D01*
X133659000Y-109196000D02*
X133659000Y-106415000D01*
X133619000Y-114041000D02*
X133619000Y-111276000D01*
X133619000Y-109196000D02*
X133619000Y-106431000D01*
X133579000Y-114026000D02*
X133579000Y-111276000D01*
X133579000Y-109196000D02*
X133579000Y-106446000D01*
X133539000Y-114010000D02*
X133539000Y-111276000D01*
X133539000Y-109196000D02*
X133539000Y-106462000D01*
X133499000Y-113993000D02*
X133499000Y-111276000D01*
X133499000Y-109196000D02*
X133499000Y-106479000D01*
X133459000Y-113976000D02*
X133459000Y-111276000D01*
X133459000Y-109196000D02*
X133459000Y-106496000D01*
X133419000Y-113958000D02*
X133419000Y-111276000D01*
X133419000Y-109196000D02*
X133419000Y-106514000D01*
X133379000Y-113940000D02*
X133379000Y-111276000D01*
X133379000Y-109196000D02*
X133379000Y-106532000D01*
X133339000Y-113922000D02*
X133339000Y-111276000D01*
X133339000Y-109196000D02*
X133339000Y-106550000D01*
X133299000Y-113902000D02*
X133299000Y-111276000D01*
X133299000Y-109196000D02*
X133299000Y-106570000D01*
X133259000Y-113883000D02*
X133259000Y-111276000D01*
X133259000Y-109196000D02*
X133259000Y-106589000D01*
X133219000Y-113863000D02*
X133219000Y-111276000D01*
X133219000Y-109196000D02*
X133219000Y-106609000D01*
X133179000Y-113842000D02*
X133179000Y-111276000D01*
X133179000Y-109196000D02*
X133179000Y-106630000D01*
X133139000Y-113820000D02*
X133139000Y-111276000D01*
X133139000Y-109196000D02*
X133139000Y-106652000D01*
X133099000Y-113798000D02*
X133099000Y-111276000D01*
X133099000Y-109196000D02*
X133099000Y-106674000D01*
X133059000Y-113776000D02*
X133059000Y-111276000D01*
X133059000Y-109196000D02*
X133059000Y-106696000D01*
X133019000Y-113753000D02*
X133019000Y-111276000D01*
X133019000Y-109196000D02*
X133019000Y-106719000D01*
X132979000Y-113729000D02*
X132979000Y-111276000D01*
X132979000Y-109196000D02*
X132979000Y-106743000D01*
X132939000Y-113705000D02*
X132939000Y-111276000D01*
X132939000Y-109196000D02*
X132939000Y-106767000D01*
X132899000Y-113680000D02*
X132899000Y-111276000D01*
X132899000Y-109196000D02*
X132899000Y-106792000D01*
X132859000Y-113654000D02*
X132859000Y-111276000D01*
X132859000Y-109196000D02*
X132859000Y-106818000D01*
X132819000Y-113628000D02*
X132819000Y-111276000D01*
X132819000Y-109196000D02*
X132819000Y-106844000D01*
X132779000Y-113601000D02*
X132779000Y-111276000D01*
X132779000Y-109196000D02*
X132779000Y-106871000D01*
X132739000Y-113574000D02*
X132739000Y-111276000D01*
X132739000Y-109196000D02*
X132739000Y-106898000D01*
X132699000Y-113545000D02*
X132699000Y-111276000D01*
X132699000Y-109196000D02*
X132699000Y-106927000D01*
X132659000Y-113516000D02*
X132659000Y-111276000D01*
X132659000Y-109196000D02*
X132659000Y-106956000D01*
X132619000Y-113486000D02*
X132619000Y-111276000D01*
X132619000Y-109196000D02*
X132619000Y-106986000D01*
X132579000Y-113456000D02*
X132579000Y-111276000D01*
X132579000Y-109196000D02*
X132579000Y-107016000D01*
X132539000Y-113425000D02*
X132539000Y-111276000D01*
X132539000Y-109196000D02*
X132539000Y-107047000D01*
X132499000Y-113392000D02*
X132499000Y-111276000D01*
X132499000Y-109196000D02*
X132499000Y-107080000D01*
X132459000Y-113360000D02*
X132459000Y-111276000D01*
X132459000Y-109196000D02*
X132459000Y-107112000D01*
X132419000Y-113326000D02*
X132419000Y-111276000D01*
X132419000Y-109196000D02*
X132419000Y-107146000D01*
X132379000Y-113291000D02*
X132379000Y-111276000D01*
X132379000Y-109196000D02*
X132379000Y-107181000D01*
X132339000Y-113255000D02*
X132339000Y-111276000D01*
X132339000Y-109196000D02*
X132339000Y-107217000D01*
X132299000Y-113219000D02*
X132299000Y-107253000D01*
X132259000Y-113181000D02*
X132259000Y-107291000D01*
X132219000Y-113143000D02*
X132219000Y-107329000D01*
X132179000Y-113103000D02*
X132179000Y-107369000D01*
X132139000Y-113062000D02*
X132139000Y-107410000D01*
X132099000Y-113020000D02*
X132099000Y-107452000D01*
X132059000Y-112977000D02*
X132059000Y-107495000D01*
X132019000Y-112933000D02*
X132019000Y-107539000D01*
X131979000Y-112887000D02*
X131979000Y-107585000D01*
X131939000Y-112840000D02*
X131939000Y-107632000D01*
X131899000Y-112792000D02*
X131899000Y-107680000D01*
X131859000Y-112741000D02*
X131859000Y-107731000D01*
X131819000Y-112690000D02*
X131819000Y-107782000D01*
X131779000Y-112636000D02*
X131779000Y-107836000D01*
X131739000Y-112581000D02*
X131739000Y-107891000D01*
X131699000Y-112523000D02*
X131699000Y-107949000D01*
X131659000Y-112464000D02*
X131659000Y-108008000D01*
X131619000Y-112402000D02*
X131619000Y-108070000D01*
X131579000Y-112338000D02*
X131579000Y-108134000D01*
X131539000Y-112270000D02*
X131539000Y-108202000D01*
X131499000Y-112200000D02*
X131499000Y-108272000D01*
X131459000Y-112126000D02*
X131459000Y-108346000D01*
X131419000Y-112049000D02*
X131419000Y-108423000D01*
X131379000Y-111967000D02*
X131379000Y-108505000D01*
X131339000Y-111881000D02*
X131339000Y-108591000D01*
X131299000Y-111788000D02*
X131299000Y-108684000D01*
X131259000Y-111689000D02*
X131259000Y-108783000D01*
X131219000Y-111582000D02*
X131219000Y-108890000D01*
X131179000Y-111465000D02*
X131179000Y-109007000D01*
X131139000Y-111334000D02*
X131139000Y-109138000D01*
X131099000Y-111184000D02*
X131099000Y-109288000D01*
X131059000Y-111004000D02*
X131059000Y-109468000D01*
X131019000Y-110769000D02*
X131019000Y-109703000D01*
X139509698Y-112551000D02*
X138709698Y-112551000D01*
X139109698Y-112951000D02*
X139109698Y-112151000D01*
%TO.C,C3*%
X128090000Y-90621078D02*
X128090000Y-90103922D01*
X129510000Y-90621078D02*
X129510000Y-90103922D01*
%TO.C,C4*%
X139330500Y-116375922D02*
X139330500Y-116893078D01*
X137910500Y-116375922D02*
X137910500Y-116893078D01*
%TO.C,C5*%
X126490000Y-90575279D02*
X126490000Y-90249721D01*
X127510000Y-90575279D02*
X127510000Y-90249721D01*
%TO.C,C6*%
X132090000Y-90621078D02*
X132090000Y-90103922D01*
X133510000Y-90621078D02*
X133510000Y-90103922D01*
%TO.C,C7*%
X118445400Y-120799800D02*
G75*
G03*
X118445400Y-120799800I-4120000J0D01*
G01*
X118405400Y-120799800D02*
X110245400Y-120799800D01*
X118405400Y-120839800D02*
X110245400Y-120839800D01*
X118405400Y-120879800D02*
X110245400Y-120879800D01*
X118404400Y-120919800D02*
X110246400Y-120919800D01*
X118402400Y-120959800D02*
X110248400Y-120959800D01*
X118401400Y-120999800D02*
X110249400Y-120999800D01*
X118399400Y-121039800D02*
X110251400Y-121039800D01*
X118396400Y-121079800D02*
X110254400Y-121079800D01*
X118393400Y-121119800D02*
X110257400Y-121119800D01*
X118390400Y-121159800D02*
X110260400Y-121159800D01*
X118386400Y-121199800D02*
X110264400Y-121199800D01*
X118382400Y-121239800D02*
X110268400Y-121239800D01*
X118377400Y-121279800D02*
X110273400Y-121279800D01*
X118373400Y-121319800D02*
X110277400Y-121319800D01*
X118367400Y-121359800D02*
X110283400Y-121359800D01*
X118362400Y-121399800D02*
X110288400Y-121399800D01*
X118355400Y-121439800D02*
X110295400Y-121439800D01*
X118349400Y-121479800D02*
X110301400Y-121479800D01*
X118342400Y-121520800D02*
X115365400Y-121520800D01*
X113285400Y-121520800D02*
X110308400Y-121520800D01*
X118335400Y-121560800D02*
X115365400Y-121560800D01*
X113285400Y-121560800D02*
X110315400Y-121560800D01*
X118327400Y-121600800D02*
X115365400Y-121600800D01*
X113285400Y-121600800D02*
X110323400Y-121600800D01*
X118319400Y-121640800D02*
X115365400Y-121640800D01*
X113285400Y-121640800D02*
X110331400Y-121640800D01*
X118310400Y-121680800D02*
X115365400Y-121680800D01*
X113285400Y-121680800D02*
X110340400Y-121680800D01*
X118301400Y-121720800D02*
X115365400Y-121720800D01*
X113285400Y-121720800D02*
X110349400Y-121720800D01*
X118292400Y-121760800D02*
X115365400Y-121760800D01*
X113285400Y-121760800D02*
X110358400Y-121760800D01*
X118282400Y-121800800D02*
X115365400Y-121800800D01*
X113285400Y-121800800D02*
X110368400Y-121800800D01*
X118272400Y-121840800D02*
X115365400Y-121840800D01*
X113285400Y-121840800D02*
X110378400Y-121840800D01*
X118261400Y-121880800D02*
X115365400Y-121880800D01*
X113285400Y-121880800D02*
X110389400Y-121880800D01*
X118250400Y-121920800D02*
X115365400Y-121920800D01*
X113285400Y-121920800D02*
X110400400Y-121920800D01*
X118239400Y-121960800D02*
X115365400Y-121960800D01*
X113285400Y-121960800D02*
X110411400Y-121960800D01*
X118227400Y-122000800D02*
X115365400Y-122000800D01*
X113285400Y-122000800D02*
X110423400Y-122000800D01*
X118214400Y-122040800D02*
X115365400Y-122040800D01*
X113285400Y-122040800D02*
X110436400Y-122040800D01*
X118202400Y-122080800D02*
X115365400Y-122080800D01*
X113285400Y-122080800D02*
X110448400Y-122080800D01*
X118188400Y-122120800D02*
X115365400Y-122120800D01*
X113285400Y-122120800D02*
X110462400Y-122120800D01*
X118175400Y-122160800D02*
X115365400Y-122160800D01*
X113285400Y-122160800D02*
X110475400Y-122160800D01*
X118160400Y-122200800D02*
X115365400Y-122200800D01*
X113285400Y-122200800D02*
X110490400Y-122200800D01*
X118146400Y-122240800D02*
X115365400Y-122240800D01*
X113285400Y-122240800D02*
X110504400Y-122240800D01*
X118130400Y-122280800D02*
X115365400Y-122280800D01*
X113285400Y-122280800D02*
X110520400Y-122280800D01*
X118115400Y-122320800D02*
X115365400Y-122320800D01*
X113285400Y-122320800D02*
X110535400Y-122320800D01*
X118099400Y-122360800D02*
X115365400Y-122360800D01*
X113285400Y-122360800D02*
X110551400Y-122360800D01*
X118082400Y-122400800D02*
X115365400Y-122400800D01*
X113285400Y-122400800D02*
X110568400Y-122400800D01*
X118065400Y-122440800D02*
X115365400Y-122440800D01*
X113285400Y-122440800D02*
X110585400Y-122440800D01*
X118047400Y-122480800D02*
X115365400Y-122480800D01*
X113285400Y-122480800D02*
X110603400Y-122480800D01*
X118029400Y-122520800D02*
X115365400Y-122520800D01*
X113285400Y-122520800D02*
X110621400Y-122520800D01*
X118011400Y-122560800D02*
X115365400Y-122560800D01*
X113285400Y-122560800D02*
X110639400Y-122560800D01*
X117991400Y-122600800D02*
X115365400Y-122600800D01*
X113285400Y-122600800D02*
X110659400Y-122600800D01*
X117972400Y-122640800D02*
X115365400Y-122640800D01*
X113285400Y-122640800D02*
X110678400Y-122640800D01*
X117952400Y-122680800D02*
X115365400Y-122680800D01*
X113285400Y-122680800D02*
X110698400Y-122680800D01*
X117931400Y-122720800D02*
X115365400Y-122720800D01*
X113285400Y-122720800D02*
X110719400Y-122720800D01*
X117909400Y-122760800D02*
X115365400Y-122760800D01*
X113285400Y-122760800D02*
X110741400Y-122760800D01*
X117887400Y-122800800D02*
X115365400Y-122800800D01*
X113285400Y-122800800D02*
X110763400Y-122800800D01*
X117865400Y-122840800D02*
X115365400Y-122840800D01*
X113285400Y-122840800D02*
X110785400Y-122840800D01*
X117842400Y-122880800D02*
X115365400Y-122880800D01*
X113285400Y-122880800D02*
X110808400Y-122880800D01*
X117818400Y-122920800D02*
X115365400Y-122920800D01*
X113285400Y-122920800D02*
X110832400Y-122920800D01*
X117794400Y-122960800D02*
X115365400Y-122960800D01*
X113285400Y-122960800D02*
X110856400Y-122960800D01*
X117769400Y-123000800D02*
X115365400Y-123000800D01*
X113285400Y-123000800D02*
X110881400Y-123000800D01*
X117743400Y-123040800D02*
X115365400Y-123040800D01*
X113285400Y-123040800D02*
X110907400Y-123040800D01*
X117717400Y-123080800D02*
X115365400Y-123080800D01*
X113285400Y-123080800D02*
X110933400Y-123080800D01*
X117690400Y-123120800D02*
X115365400Y-123120800D01*
X113285400Y-123120800D02*
X110960400Y-123120800D01*
X117663400Y-123160800D02*
X115365400Y-123160800D01*
X113285400Y-123160800D02*
X110987400Y-123160800D01*
X117634400Y-123200800D02*
X115365400Y-123200800D01*
X113285400Y-123200800D02*
X111016400Y-123200800D01*
X117605400Y-123240800D02*
X115365400Y-123240800D01*
X113285400Y-123240800D02*
X111045400Y-123240800D01*
X117575400Y-123280800D02*
X115365400Y-123280800D01*
X113285400Y-123280800D02*
X111075400Y-123280800D01*
X117545400Y-123320800D02*
X115365400Y-123320800D01*
X113285400Y-123320800D02*
X111105400Y-123320800D01*
X117514400Y-123360800D02*
X115365400Y-123360800D01*
X113285400Y-123360800D02*
X111136400Y-123360800D01*
X117481400Y-123400800D02*
X115365400Y-123400800D01*
X113285400Y-123400800D02*
X111169400Y-123400800D01*
X117449400Y-123440800D02*
X115365400Y-123440800D01*
X113285400Y-123440800D02*
X111201400Y-123440800D01*
X117415400Y-123480800D02*
X115365400Y-123480800D01*
X113285400Y-123480800D02*
X111235400Y-123480800D01*
X117380400Y-123520800D02*
X115365400Y-123520800D01*
X113285400Y-123520800D02*
X111270400Y-123520800D01*
X117344400Y-123560800D02*
X115365400Y-123560800D01*
X113285400Y-123560800D02*
X111306400Y-123560800D01*
X117308400Y-123600800D02*
X111342400Y-123600800D01*
X117270400Y-123640800D02*
X111380400Y-123640800D01*
X117232400Y-123680800D02*
X111418400Y-123680800D01*
X117192400Y-123720800D02*
X111458400Y-123720800D01*
X117151400Y-123760800D02*
X111499400Y-123760800D01*
X117109400Y-123800800D02*
X111541400Y-123800800D01*
X117066400Y-123840800D02*
X111584400Y-123840800D01*
X117022400Y-123880800D02*
X111628400Y-123880800D01*
X116976400Y-123920800D02*
X111674400Y-123920800D01*
X116929400Y-123960800D02*
X111721400Y-123960800D01*
X116881400Y-124000800D02*
X111769400Y-124000800D01*
X116830400Y-124040800D02*
X111820400Y-124040800D01*
X116779400Y-124080800D02*
X111871400Y-124080800D01*
X116725400Y-124120800D02*
X111925400Y-124120800D01*
X116670400Y-124160800D02*
X111980400Y-124160800D01*
X116612400Y-124200800D02*
X112038400Y-124200800D01*
X116553400Y-124240800D02*
X112097400Y-124240800D01*
X116491400Y-124280800D02*
X112159400Y-124280800D01*
X116427400Y-124320800D02*
X112223400Y-124320800D01*
X116359400Y-124360800D02*
X112291400Y-124360800D01*
X116289400Y-124400800D02*
X112361400Y-124400800D01*
X116215400Y-124440800D02*
X112435400Y-124440800D01*
X116138400Y-124480800D02*
X112512400Y-124480800D01*
X116056400Y-124520800D02*
X112594400Y-124520800D01*
X115970400Y-124560800D02*
X112680400Y-124560800D01*
X115877400Y-124600800D02*
X112773400Y-124600800D01*
X115778400Y-124640800D02*
X112872400Y-124640800D01*
X115671400Y-124680800D02*
X112979400Y-124680800D01*
X115554400Y-124720800D02*
X113096400Y-124720800D01*
X115423400Y-124760800D02*
X113227400Y-124760800D01*
X115273400Y-124800800D02*
X113377400Y-124800800D01*
X115093400Y-124840800D02*
X113557400Y-124840800D01*
X114858400Y-124880800D02*
X113792400Y-124880800D01*
X116640400Y-116390102D02*
X116640400Y-117190102D01*
X117040400Y-116790102D02*
X116240400Y-116790102D01*
%TO.C,C10*%
X126869400Y-122178879D02*
X126869400Y-121853321D01*
X127889400Y-122178879D02*
X127889400Y-121853321D01*
%TO.C,C11*%
X105199721Y-109957000D02*
X105525279Y-109957000D01*
X105199721Y-110977000D02*
X105525279Y-110977000D01*
%TO.C,C12*%
X105199721Y-111485000D02*
X105525279Y-111485000D01*
X105199721Y-112505000D02*
X105525279Y-112505000D01*
%TO.C,D1*%
X127382000Y-116970000D02*
X130682000Y-116970000D01*
X130682000Y-116970000D02*
X130682000Y-111570000D01*
X127382000Y-116970000D02*
X127382000Y-111570000D01*
%TO.C,J1*%
X146750000Y-103620000D02*
X147000000Y-103620000D01*
X146750000Y-95880000D02*
X147000000Y-95880000D01*
X142280000Y-96750000D02*
X142280000Y-95880000D01*
X142280000Y-103620000D02*
X144350000Y-103620000D01*
X142280000Y-95880000D02*
X144350000Y-95880000D01*
X142280000Y-103620000D02*
X142280000Y-102750000D01*
X142050000Y-98450000D02*
X141750000Y-98750000D01*
X142050000Y-98450000D02*
X141750000Y-98150000D01*
X141750000Y-98750000D02*
X141750000Y-98150000D01*
%TO.C,J2*%
X120370000Y-106920000D02*
X123030000Y-106920000D01*
X120370000Y-104320000D02*
X120370000Y-106920000D01*
X123030000Y-104320000D02*
X123030000Y-106920000D01*
X120370000Y-104320000D02*
X123030000Y-104320000D01*
X120370000Y-103050000D02*
X120370000Y-101720000D01*
X120370000Y-101720000D02*
X121700000Y-101720000D01*
%TO.C,J_SWIM1*%
X91900000Y-112000000D02*
X94560000Y-112000000D01*
X91900000Y-104320000D02*
X91900000Y-112000000D01*
X94560000Y-104320000D02*
X94560000Y-112000000D01*
X91900000Y-104320000D02*
X94560000Y-104320000D01*
X91900000Y-103050000D02*
X91900000Y-101720000D01*
X91900000Y-101720000D02*
X93230000Y-101720000D01*
%TO.C,L1*%
X119211000Y-114170000D02*
X119211000Y-111870000D01*
X119211000Y-111870000D02*
X126611000Y-111870000D01*
X126611000Y-111870000D02*
X126611000Y-114170000D01*
X126611000Y-116970000D02*
X126611000Y-119270000D01*
X126611000Y-119270000D02*
X119211000Y-119270000D01*
X119211000Y-119270000D02*
X119211000Y-116970000D01*
%TO.C,LED1*%
X111607500Y-107373000D02*
X114292500Y-107373000D01*
X114292500Y-107373000D02*
X114292500Y-105453000D01*
X114292500Y-105453000D02*
X111607500Y-105453000D01*
%TO.C,LED2*%
X111577500Y-105313000D02*
X114262500Y-105313000D01*
X114262500Y-105313000D02*
X114262500Y-103393000D01*
X114262500Y-103393000D02*
X111577500Y-103393000D01*
%TO.C,LED3*%
X111577500Y-103173000D02*
X114262500Y-103173000D01*
X114262500Y-103173000D02*
X114262500Y-101253000D01*
X114262500Y-101253000D02*
X111577500Y-101253000D01*
%TO.C,LED_3V31*%
X113475700Y-112780000D02*
X116160700Y-112780000D01*
X116160700Y-112780000D02*
X116160700Y-110860000D01*
X116160700Y-110860000D02*
X113475700Y-110860000D01*
%TO.C,LED_5V1*%
X143837400Y-109214300D02*
X143837400Y-106529300D01*
X143837400Y-106529300D02*
X141917400Y-106529300D01*
X141917400Y-106529300D02*
X141917400Y-109214300D01*
%TO.C,LED_RX1*%
X113622700Y-98895600D02*
X110937700Y-98895600D01*
X110937700Y-98895600D02*
X110937700Y-100815600D01*
X110937700Y-100815600D02*
X113622700Y-100815600D01*
%TO.C,LED_TX1*%
X113647700Y-96495600D02*
X110962700Y-96495600D01*
X110962700Y-96495600D02*
X110962700Y-98415600D01*
X110962700Y-98415600D02*
X113647700Y-98415600D01*
%TO.C,R3*%
X125028922Y-102290000D02*
X125546078Y-102290000D01*
X125028922Y-103710000D02*
X125546078Y-103710000D01*
%TO.C,R4*%
X125028922Y-104890000D02*
X125546078Y-104890000D01*
X125028922Y-106310000D02*
X125546078Y-106310000D01*
%TO.C,R5*%
X116406278Y-98165600D02*
X115889122Y-98165600D01*
X116406278Y-96745600D02*
X115889122Y-96745600D01*
%TO.C,R6*%
X116381278Y-100565600D02*
X115864122Y-100565600D01*
X116381278Y-99145600D02*
X115864122Y-99145600D01*
%TO.C,R7*%
X115823922Y-105703000D02*
X116341078Y-105703000D01*
X115823922Y-107123000D02*
X116341078Y-107123000D01*
%TO.C,R11*%
X115793922Y-103643000D02*
X116311078Y-103643000D01*
X115793922Y-105063000D02*
X116311078Y-105063000D01*
%TO.C,R13*%
X115793922Y-101503000D02*
X116311078Y-101503000D01*
X115793922Y-102923000D02*
X116311078Y-102923000D01*
%TO.C,R16*%
X114708078Y-110498600D02*
X114190922Y-110498600D01*
X114708078Y-109078600D02*
X114190922Y-109078600D01*
%TO.C,R17*%
X145687400Y-107955722D02*
X145687400Y-108472878D01*
X144267400Y-107955722D02*
X144267400Y-108472878D01*
%TO.C,TP1*%
X122780000Y-124690000D02*
G75*
G03*
X122780000Y-124690000I-2100000J0D01*
G01*
%TO.C,TP2*%
X145500000Y-117700000D02*
G75*
G03*
X145500000Y-117700000I-2100000J0D01*
G01*
%TO.C,U1*%
X137434000Y-118364000D02*
X137434000Y-114914000D01*
X137434000Y-118364000D02*
X137434000Y-120314000D01*
X132314000Y-118364000D02*
X132314000Y-116414000D01*
X132314000Y-118364000D02*
X132314000Y-120314000D01*
D10*
%TO.C,U3*%
X125075000Y-99775000D02*
X125075000Y-101375000D01*
X135150000Y-99775000D02*
X135150000Y-94025000D01*
X124500000Y-99775000D02*
X124500000Y-94025000D01*
X135150000Y-99775000D02*
X134500000Y-99775000D01*
X135150000Y-94025000D02*
X134500000Y-94025000D01*
X124500000Y-94025000D02*
X125150000Y-94025000D01*
X124500000Y-99775000D02*
X125075000Y-99775000D01*
D11*
%TO.C,U4*%
X138567820Y-95247860D02*
X136767820Y-95247860D01*
X136767820Y-98467860D02*
X139217820Y-98467860D01*
%TO.C,Y1*%
X97175000Y-111195000D02*
X97175000Y-114495000D01*
X97175000Y-114495000D02*
X101175000Y-114495000D01*
%TO.C,R15*%
D10*
X97637142Y-95062380D02*
X97303809Y-94586190D01*
X97065714Y-95062380D02*
X97065714Y-94062380D01*
X97446666Y-94062380D01*
X97541904Y-94110000D01*
X97589523Y-94157619D01*
X97637142Y-94252857D01*
X97637142Y-94395714D01*
X97589523Y-94490952D01*
X97541904Y-94538571D01*
X97446666Y-94586190D01*
X97065714Y-94586190D01*
X98589523Y-95062380D02*
X98018095Y-95062380D01*
X98303809Y-95062380D02*
X98303809Y-94062380D01*
X98208571Y-94205238D01*
X98113333Y-94300476D01*
X98018095Y-94348095D01*
X99494285Y-94062380D02*
X99018095Y-94062380D01*
X98970476Y-94538571D01*
X99018095Y-94490952D01*
X99113333Y-94443333D01*
X99351428Y-94443333D01*
X99446666Y-94490952D01*
X99494285Y-94538571D01*
X99541904Y-94633809D01*
X99541904Y-94871904D01*
X99494285Y-94967142D01*
X99446666Y-95014761D01*
X99351428Y-95062380D01*
X99113333Y-95062380D01*
X99018095Y-95014761D01*
X98970476Y-94967142D01*
%TO.C,R14*%
X97467142Y-97382380D02*
X97133809Y-96906190D01*
X96895714Y-97382380D02*
X96895714Y-96382380D01*
X97276666Y-96382380D01*
X97371904Y-96430000D01*
X97419523Y-96477619D01*
X97467142Y-96572857D01*
X97467142Y-96715714D01*
X97419523Y-96810952D01*
X97371904Y-96858571D01*
X97276666Y-96906190D01*
X96895714Y-96906190D01*
X98419523Y-97382380D02*
X97848095Y-97382380D01*
X98133809Y-97382380D02*
X98133809Y-96382380D01*
X98038571Y-96525238D01*
X97943333Y-96620476D01*
X97848095Y-96668095D01*
X99276666Y-96715714D02*
X99276666Y-97382380D01*
X99038571Y-96334761D02*
X98800476Y-97049047D01*
X99419523Y-97049047D01*
%TO.C,U2*%
X95197380Y-105231904D02*
X96006904Y-105231904D01*
X96102142Y-105184285D01*
X96149761Y-105136666D01*
X96197380Y-105041428D01*
X96197380Y-104850952D01*
X96149761Y-104755714D01*
X96102142Y-104708095D01*
X96006904Y-104660476D01*
X95197380Y-104660476D01*
X95292619Y-104231904D02*
X95245000Y-104184285D01*
X95197380Y-104089047D01*
X95197380Y-103850952D01*
X95245000Y-103755714D01*
X95292619Y-103708095D01*
X95387857Y-103660476D01*
X95483095Y-103660476D01*
X95625952Y-103708095D01*
X96197380Y-104279523D01*
X96197380Y-103660476D01*
%TO.C,C13*%
X104087142Y-115802857D02*
X104134761Y-115850476D01*
X104182380Y-115993333D01*
X104182380Y-116088571D01*
X104134761Y-116231428D01*
X104039523Y-116326666D01*
X103944285Y-116374285D01*
X103753809Y-116421904D01*
X103610952Y-116421904D01*
X103420476Y-116374285D01*
X103325238Y-116326666D01*
X103230000Y-116231428D01*
X103182380Y-116088571D01*
X103182380Y-115993333D01*
X103230000Y-115850476D01*
X103277619Y-115802857D01*
X104182380Y-114850476D02*
X104182380Y-115421904D01*
X104182380Y-115136190D02*
X103182380Y-115136190D01*
X103325238Y-115231428D01*
X103420476Y-115326666D01*
X103468095Y-115421904D01*
X103182380Y-114517142D02*
X103182380Y-113898095D01*
X103563333Y-114231428D01*
X103563333Y-114088571D01*
X103610952Y-113993333D01*
X103658571Y-113945714D01*
X103753809Y-113898095D01*
X103991904Y-113898095D01*
X104087142Y-113945714D01*
X104134761Y-113993333D01*
X104182380Y-114088571D01*
X104182380Y-114374285D01*
X104134761Y-114469523D01*
X104087142Y-114517142D01*
%TO.C,C1*%
X131177142Y-87156666D02*
X131224761Y-87204285D01*
X131272380Y-87347142D01*
X131272380Y-87442380D01*
X131224761Y-87585238D01*
X131129523Y-87680476D01*
X131034285Y-87728095D01*
X130843809Y-87775714D01*
X130700952Y-87775714D01*
X130510476Y-87728095D01*
X130415238Y-87680476D01*
X130320000Y-87585238D01*
X130272380Y-87442380D01*
X130272380Y-87347142D01*
X130320000Y-87204285D01*
X130367619Y-87156666D01*
X131272380Y-86204285D02*
X131272380Y-86775714D01*
X131272380Y-86490000D02*
X130272380Y-86490000D01*
X130415238Y-86585238D01*
X130510476Y-86680476D01*
X130558095Y-86775714D01*
%TO.C,C2*%
X130623333Y-107577142D02*
X130575714Y-107624761D01*
X130432857Y-107672380D01*
X130337619Y-107672380D01*
X130194761Y-107624761D01*
X130099523Y-107529523D01*
X130051904Y-107434285D01*
X130004285Y-107243809D01*
X130004285Y-107100952D01*
X130051904Y-106910476D01*
X130099523Y-106815238D01*
X130194761Y-106720000D01*
X130337619Y-106672380D01*
X130432857Y-106672380D01*
X130575714Y-106720000D01*
X130623333Y-106767619D01*
X131004285Y-106767619D02*
X131051904Y-106720000D01*
X131147142Y-106672380D01*
X131385238Y-106672380D01*
X131480476Y-106720000D01*
X131528095Y-106767619D01*
X131575714Y-106862857D01*
X131575714Y-106958095D01*
X131528095Y-107100952D01*
X130956666Y-107672380D01*
X131575714Y-107672380D01*
%TO.C,C3*%
X129197142Y-87176666D02*
X129244761Y-87224285D01*
X129292380Y-87367142D01*
X129292380Y-87462380D01*
X129244761Y-87605238D01*
X129149523Y-87700476D01*
X129054285Y-87748095D01*
X128863809Y-87795714D01*
X128720952Y-87795714D01*
X128530476Y-87748095D01*
X128435238Y-87700476D01*
X128340000Y-87605238D01*
X128292380Y-87462380D01*
X128292380Y-87367142D01*
X128340000Y-87224285D01*
X128387619Y-87176666D01*
X128292380Y-86843333D02*
X128292380Y-86224285D01*
X128673333Y-86557619D01*
X128673333Y-86414761D01*
X128720952Y-86319523D01*
X128768571Y-86271904D01*
X128863809Y-86224285D01*
X129101904Y-86224285D01*
X129197142Y-86271904D01*
X129244761Y-86319523D01*
X129292380Y-86414761D01*
X129292380Y-86700476D01*
X129244761Y-86795714D01*
X129197142Y-86843333D01*
%TO.C,C4*%
X140657142Y-115966666D02*
X140704761Y-116014285D01*
X140752380Y-116157142D01*
X140752380Y-116252380D01*
X140704761Y-116395238D01*
X140609523Y-116490476D01*
X140514285Y-116538095D01*
X140323809Y-116585714D01*
X140180952Y-116585714D01*
X139990476Y-116538095D01*
X139895238Y-116490476D01*
X139800000Y-116395238D01*
X139752380Y-116252380D01*
X139752380Y-116157142D01*
X139800000Y-116014285D01*
X139847619Y-115966666D01*
X140085714Y-115109523D02*
X140752380Y-115109523D01*
X139704761Y-115347619D02*
X140419047Y-115585714D01*
X140419047Y-114966666D01*
%TO.C,C5*%
X127457142Y-87176666D02*
X127504761Y-87224285D01*
X127552380Y-87367142D01*
X127552380Y-87462380D01*
X127504761Y-87605238D01*
X127409523Y-87700476D01*
X127314285Y-87748095D01*
X127123809Y-87795714D01*
X126980952Y-87795714D01*
X126790476Y-87748095D01*
X126695238Y-87700476D01*
X126600000Y-87605238D01*
X126552380Y-87462380D01*
X126552380Y-87367142D01*
X126600000Y-87224285D01*
X126647619Y-87176666D01*
X126552380Y-86271904D02*
X126552380Y-86748095D01*
X127028571Y-86795714D01*
X126980952Y-86748095D01*
X126933333Y-86652857D01*
X126933333Y-86414761D01*
X126980952Y-86319523D01*
X127028571Y-86271904D01*
X127123809Y-86224285D01*
X127361904Y-86224285D01*
X127457142Y-86271904D01*
X127504761Y-86319523D01*
X127552380Y-86414761D01*
X127552380Y-86652857D01*
X127504761Y-86748095D01*
X127457142Y-86795714D01*
%TO.C,C6*%
X133122942Y-87206666D02*
X133170561Y-87254285D01*
X133218180Y-87397142D01*
X133218180Y-87492380D01*
X133170561Y-87635238D01*
X133075323Y-87730476D01*
X132980085Y-87778095D01*
X132789609Y-87825714D01*
X132646752Y-87825714D01*
X132456276Y-87778095D01*
X132361038Y-87730476D01*
X132265800Y-87635238D01*
X132218180Y-87492380D01*
X132218180Y-87397142D01*
X132265800Y-87254285D01*
X132313419Y-87206666D01*
X132218180Y-86349523D02*
X132218180Y-86540000D01*
X132265800Y-86635238D01*
X132313419Y-86682857D01*
X132456276Y-86778095D01*
X132646752Y-86825714D01*
X133027704Y-86825714D01*
X133122942Y-86778095D01*
X133170561Y-86730476D01*
X133218180Y-86635238D01*
X133218180Y-86444761D01*
X133170561Y-86349523D01*
X133122942Y-86301904D01*
X133027704Y-86254285D01*
X132789609Y-86254285D01*
X132694371Y-86301904D01*
X132646752Y-86349523D01*
X132599133Y-86444761D01*
X132599133Y-86635238D01*
X132646752Y-86730476D01*
X132694371Y-86778095D01*
X132789609Y-86825714D01*
%TO.C,C7*%
X110272533Y-124918742D02*
X110224914Y-124966361D01*
X110082057Y-125013980D01*
X109986819Y-125013980D01*
X109843961Y-124966361D01*
X109748723Y-124871123D01*
X109701104Y-124775885D01*
X109653485Y-124585409D01*
X109653485Y-124442552D01*
X109701104Y-124252076D01*
X109748723Y-124156838D01*
X109843961Y-124061600D01*
X109986819Y-124013980D01*
X110082057Y-124013980D01*
X110224914Y-124061600D01*
X110272533Y-124109219D01*
X110605866Y-124013980D02*
X111272533Y-124013980D01*
X110843961Y-125013980D01*
%TO.C,C8*%
X96502142Y-115021666D02*
X96549761Y-115069285D01*
X96597380Y-115212142D01*
X96597380Y-115307380D01*
X96549761Y-115450238D01*
X96454523Y-115545476D01*
X96359285Y-115593095D01*
X96168809Y-115640714D01*
X96025952Y-115640714D01*
X95835476Y-115593095D01*
X95740238Y-115545476D01*
X95645000Y-115450238D01*
X95597380Y-115307380D01*
X95597380Y-115212142D01*
X95645000Y-115069285D01*
X95692619Y-115021666D01*
X96025952Y-114450238D02*
X95978333Y-114545476D01*
X95930714Y-114593095D01*
X95835476Y-114640714D01*
X95787857Y-114640714D01*
X95692619Y-114593095D01*
X95645000Y-114545476D01*
X95597380Y-114450238D01*
X95597380Y-114259761D01*
X95645000Y-114164523D01*
X95692619Y-114116904D01*
X95787857Y-114069285D01*
X95835476Y-114069285D01*
X95930714Y-114116904D01*
X95978333Y-114164523D01*
X96025952Y-114259761D01*
X96025952Y-114450238D01*
X96073571Y-114545476D01*
X96121190Y-114593095D01*
X96216428Y-114640714D01*
X96406904Y-114640714D01*
X96502142Y-114593095D01*
X96549761Y-114545476D01*
X96597380Y-114450238D01*
X96597380Y-114259761D01*
X96549761Y-114164523D01*
X96502142Y-114116904D01*
X96406904Y-114069285D01*
X96216428Y-114069285D01*
X96121190Y-114116904D01*
X96073571Y-114164523D01*
X96025952Y-114259761D01*
%TO.C,C9*%
X102692142Y-114971666D02*
X102739761Y-115019285D01*
X102787380Y-115162142D01*
X102787380Y-115257380D01*
X102739761Y-115400238D01*
X102644523Y-115495476D01*
X102549285Y-115543095D01*
X102358809Y-115590714D01*
X102215952Y-115590714D01*
X102025476Y-115543095D01*
X101930238Y-115495476D01*
X101835000Y-115400238D01*
X101787380Y-115257380D01*
X101787380Y-115162142D01*
X101835000Y-115019285D01*
X101882619Y-114971666D01*
X102787380Y-114495476D02*
X102787380Y-114305000D01*
X102739761Y-114209761D01*
X102692142Y-114162142D01*
X102549285Y-114066904D01*
X102358809Y-114019285D01*
X101977857Y-114019285D01*
X101882619Y-114066904D01*
X101835000Y-114114523D01*
X101787380Y-114209761D01*
X101787380Y-114400238D01*
X101835000Y-114495476D01*
X101882619Y-114543095D01*
X101977857Y-114590714D01*
X102215952Y-114590714D01*
X102311190Y-114543095D01*
X102358809Y-114495476D01*
X102406428Y-114400238D01*
X102406428Y-114209761D01*
X102358809Y-114114523D01*
X102311190Y-114066904D01*
X102215952Y-114019285D01*
%TO.C,C10*%
X127157142Y-125662857D02*
X127204761Y-125710476D01*
X127252380Y-125853333D01*
X127252380Y-125948571D01*
X127204761Y-126091428D01*
X127109523Y-126186666D01*
X127014285Y-126234285D01*
X126823809Y-126281904D01*
X126680952Y-126281904D01*
X126490476Y-126234285D01*
X126395238Y-126186666D01*
X126300000Y-126091428D01*
X126252380Y-125948571D01*
X126252380Y-125853333D01*
X126300000Y-125710476D01*
X126347619Y-125662857D01*
X127252380Y-124710476D02*
X127252380Y-125281904D01*
X127252380Y-124996190D02*
X126252380Y-124996190D01*
X126395238Y-125091428D01*
X126490476Y-125186666D01*
X126538095Y-125281904D01*
X126252380Y-124091428D02*
X126252380Y-123996190D01*
X126300000Y-123900952D01*
X126347619Y-123853333D01*
X126442857Y-123805714D01*
X126633333Y-123758095D01*
X126871428Y-123758095D01*
X127061904Y-123805714D01*
X127157142Y-123853333D01*
X127204761Y-123900952D01*
X127252380Y-123996190D01*
X127252380Y-124091428D01*
X127204761Y-124186666D01*
X127157142Y-124234285D01*
X127061904Y-124281904D01*
X126871428Y-124329523D01*
X126633333Y-124329523D01*
X126442857Y-124281904D01*
X126347619Y-124234285D01*
X126300000Y-124186666D01*
X126252380Y-124091428D01*
%TO.C,C11*%
X108117142Y-110872142D02*
X108069523Y-110919761D01*
X107926666Y-110967380D01*
X107831428Y-110967380D01*
X107688571Y-110919761D01*
X107593333Y-110824523D01*
X107545714Y-110729285D01*
X107498095Y-110538809D01*
X107498095Y-110395952D01*
X107545714Y-110205476D01*
X107593333Y-110110238D01*
X107688571Y-110015000D01*
X107831428Y-109967380D01*
X107926666Y-109967380D01*
X108069523Y-110015000D01*
X108117142Y-110062619D01*
X109069523Y-110967380D02*
X108498095Y-110967380D01*
X108783809Y-110967380D02*
X108783809Y-109967380D01*
X108688571Y-110110238D01*
X108593333Y-110205476D01*
X108498095Y-110253095D01*
X110021904Y-110967380D02*
X109450476Y-110967380D01*
X109736190Y-110967380D02*
X109736190Y-109967380D01*
X109640952Y-110110238D01*
X109545714Y-110205476D01*
X109450476Y-110253095D01*
%TO.C,C12*%
X108307142Y-112562142D02*
X108259523Y-112609761D01*
X108116666Y-112657380D01*
X108021428Y-112657380D01*
X107878571Y-112609761D01*
X107783333Y-112514523D01*
X107735714Y-112419285D01*
X107688095Y-112228809D01*
X107688095Y-112085952D01*
X107735714Y-111895476D01*
X107783333Y-111800238D01*
X107878571Y-111705000D01*
X108021428Y-111657380D01*
X108116666Y-111657380D01*
X108259523Y-111705000D01*
X108307142Y-111752619D01*
X109259523Y-112657380D02*
X108688095Y-112657380D01*
X108973809Y-112657380D02*
X108973809Y-111657380D01*
X108878571Y-111800238D01*
X108783333Y-111895476D01*
X108688095Y-111943095D01*
X109640476Y-111752619D02*
X109688095Y-111705000D01*
X109783333Y-111657380D01*
X110021428Y-111657380D01*
X110116666Y-111705000D01*
X110164285Y-111752619D01*
X110211904Y-111847857D01*
X110211904Y-111943095D01*
X110164285Y-112085952D01*
X109592857Y-112657380D01*
X110211904Y-112657380D01*
%TO.C,D1*%
X131952380Y-114938095D02*
X130952380Y-114938095D01*
X130952380Y-114700000D01*
X131000000Y-114557142D01*
X131095238Y-114461904D01*
X131190476Y-114414285D01*
X131380952Y-114366666D01*
X131523809Y-114366666D01*
X131714285Y-114414285D01*
X131809523Y-114461904D01*
X131904761Y-114557142D01*
X131952380Y-114700000D01*
X131952380Y-114938095D01*
X131952380Y-113414285D02*
X131952380Y-113985714D01*
X131952380Y-113700000D02*
X130952380Y-113700000D01*
X131095238Y-113795238D01*
X131190476Y-113890476D01*
X131238095Y-113985714D01*
%TO.C,J1*%
X142770266Y-94626180D02*
X142770266Y-95340466D01*
X142722647Y-95483323D01*
X142627409Y-95578561D01*
X142484552Y-95626180D01*
X142389314Y-95626180D01*
X143770266Y-95626180D02*
X143198838Y-95626180D01*
X143484552Y-95626180D02*
X143484552Y-94626180D01*
X143389314Y-94769038D01*
X143294076Y-94864276D01*
X143198838Y-94911895D01*
%TO.C,J2*%
X118682380Y-114923333D02*
X119396666Y-114923333D01*
X119539523Y-114970952D01*
X119634761Y-115066190D01*
X119682380Y-115209047D01*
X119682380Y-115304285D01*
X118777619Y-114494761D02*
X118730000Y-114447142D01*
X118682380Y-114351904D01*
X118682380Y-114113809D01*
X118730000Y-114018571D01*
X118777619Y-113970952D01*
X118872857Y-113923333D01*
X118968095Y-113923333D01*
X119110952Y-113970952D01*
X119682380Y-114542380D01*
X119682380Y-113923333D01*
%TO.C,L1*%
X122744333Y-120472380D02*
X122268142Y-120472380D01*
X122268142Y-119472380D01*
X123601476Y-120472380D02*
X123030047Y-120472380D01*
X123315761Y-120472380D02*
X123315761Y-119472380D01*
X123220523Y-119615238D01*
X123125285Y-119710476D01*
X123030047Y-119758095D01*
%TO.C,R1*%
X139647180Y-100597066D02*
X139170990Y-100930400D01*
X139647180Y-101168495D02*
X138647180Y-101168495D01*
X138647180Y-100787542D01*
X138694800Y-100692304D01*
X138742419Y-100644685D01*
X138837657Y-100597066D01*
X138980514Y-100597066D01*
X139075752Y-100644685D01*
X139123371Y-100692304D01*
X139170990Y-100787542D01*
X139170990Y-101168495D01*
X139647180Y-99644685D02*
X139647180Y-100216114D01*
X139647180Y-99930400D02*
X138647180Y-99930400D01*
X138790038Y-100025638D01*
X138885276Y-100120876D01*
X138932895Y-100216114D01*
%TO.C,R2*%
X139547180Y-102697066D02*
X139070990Y-103030400D01*
X139547180Y-103268495D02*
X138547180Y-103268495D01*
X138547180Y-102887542D01*
X138594800Y-102792304D01*
X138642419Y-102744685D01*
X138737657Y-102697066D01*
X138880514Y-102697066D01*
X138975752Y-102744685D01*
X139023371Y-102792304D01*
X139070990Y-102887542D01*
X139070990Y-103268495D01*
X138642419Y-102316114D02*
X138594800Y-102268495D01*
X138547180Y-102173257D01*
X138547180Y-101935161D01*
X138594800Y-101839923D01*
X138642419Y-101792304D01*
X138737657Y-101744685D01*
X138832895Y-101744685D01*
X138975752Y-101792304D01*
X139547180Y-102363733D01*
X139547180Y-101744685D01*
%TO.C,R3*%
X127753333Y-103472380D02*
X127420000Y-102996190D01*
X127181904Y-103472380D02*
X127181904Y-102472380D01*
X127562857Y-102472380D01*
X127658095Y-102520000D01*
X127705714Y-102567619D01*
X127753333Y-102662857D01*
X127753333Y-102805714D01*
X127705714Y-102900952D01*
X127658095Y-102948571D01*
X127562857Y-102996190D01*
X127181904Y-102996190D01*
X128086666Y-102472380D02*
X128705714Y-102472380D01*
X128372380Y-102853333D01*
X128515238Y-102853333D01*
X128610476Y-102900952D01*
X128658095Y-102948571D01*
X128705714Y-103043809D01*
X128705714Y-103281904D01*
X128658095Y-103377142D01*
X128610476Y-103424761D01*
X128515238Y-103472380D01*
X128229523Y-103472380D01*
X128134285Y-103424761D01*
X128086666Y-103377142D01*
%TO.C,R4*%
X127753333Y-106142380D02*
X127420000Y-105666190D01*
X127181904Y-106142380D02*
X127181904Y-105142380D01*
X127562857Y-105142380D01*
X127658095Y-105190000D01*
X127705714Y-105237619D01*
X127753333Y-105332857D01*
X127753333Y-105475714D01*
X127705714Y-105570952D01*
X127658095Y-105618571D01*
X127562857Y-105666190D01*
X127181904Y-105666190D01*
X128610476Y-105475714D02*
X128610476Y-106142380D01*
X128372380Y-105094761D02*
X128134285Y-105809047D01*
X128753333Y-105809047D01*
%TO.C,R8*%
X131352380Y-122086666D02*
X130876190Y-122420000D01*
X131352380Y-122658095D02*
X130352380Y-122658095D01*
X130352380Y-122277142D01*
X130400000Y-122181904D01*
X130447619Y-122134285D01*
X130542857Y-122086666D01*
X130685714Y-122086666D01*
X130780952Y-122134285D01*
X130828571Y-122181904D01*
X130876190Y-122277142D01*
X130876190Y-122658095D01*
X130780952Y-121515238D02*
X130733333Y-121610476D01*
X130685714Y-121658095D01*
X130590476Y-121705714D01*
X130542857Y-121705714D01*
X130447619Y-121658095D01*
X130400000Y-121610476D01*
X130352380Y-121515238D01*
X130352380Y-121324761D01*
X130400000Y-121229523D01*
X130447619Y-121181904D01*
X130542857Y-121134285D01*
X130590476Y-121134285D01*
X130685714Y-121181904D01*
X130733333Y-121229523D01*
X130780952Y-121324761D01*
X130780952Y-121515238D01*
X130828571Y-121610476D01*
X130876190Y-121658095D01*
X130971428Y-121705714D01*
X131161904Y-121705714D01*
X131257142Y-121658095D01*
X131304761Y-121610476D01*
X131352380Y-121515238D01*
X131352380Y-121324761D01*
X131304761Y-121229523D01*
X131257142Y-121181904D01*
X131161904Y-121134285D01*
X130971428Y-121134285D01*
X130876190Y-121181904D01*
X130828571Y-121229523D01*
X130780952Y-121324761D01*
%TO.C,R9*%
X129094733Y-124172380D02*
X128761400Y-123696190D01*
X128523304Y-124172380D02*
X128523304Y-123172380D01*
X128904257Y-123172380D01*
X128999495Y-123220000D01*
X129047114Y-123267619D01*
X129094733Y-123362857D01*
X129094733Y-123505714D01*
X129047114Y-123600952D01*
X128999495Y-123648571D01*
X128904257Y-123696190D01*
X128523304Y-123696190D01*
X129570923Y-124172380D02*
X129761400Y-124172380D01*
X129856638Y-124124761D01*
X129904257Y-124077142D01*
X129999495Y-123934285D01*
X130047114Y-123743809D01*
X130047114Y-123362857D01*
X129999495Y-123267619D01*
X129951876Y-123220000D01*
X129856638Y-123172380D01*
X129666161Y-123172380D01*
X129570923Y-123220000D01*
X129523304Y-123267619D01*
X129475685Y-123362857D01*
X129475685Y-123600952D01*
X129523304Y-123696190D01*
X129570923Y-123743809D01*
X129666161Y-123791428D01*
X129856638Y-123791428D01*
X129951876Y-123743809D01*
X129999495Y-123696190D01*
X130047114Y-123600952D01*
%TO.C,R10*%
X128867142Y-119002380D02*
X128533809Y-118526190D01*
X128295714Y-119002380D02*
X128295714Y-118002380D01*
X128676666Y-118002380D01*
X128771904Y-118050000D01*
X128819523Y-118097619D01*
X128867142Y-118192857D01*
X128867142Y-118335714D01*
X128819523Y-118430952D01*
X128771904Y-118478571D01*
X128676666Y-118526190D01*
X128295714Y-118526190D01*
X129819523Y-119002380D02*
X129248095Y-119002380D01*
X129533809Y-119002380D02*
X129533809Y-118002380D01*
X129438571Y-118145238D01*
X129343333Y-118240476D01*
X129248095Y-118288095D01*
X130438571Y-118002380D02*
X130533809Y-118002380D01*
X130629047Y-118050000D01*
X130676666Y-118097619D01*
X130724285Y-118192857D01*
X130771904Y-118383333D01*
X130771904Y-118621428D01*
X130724285Y-118811904D01*
X130676666Y-118907142D01*
X130629047Y-118954761D01*
X130533809Y-119002380D01*
X130438571Y-119002380D01*
X130343333Y-118954761D01*
X130295714Y-118907142D01*
X130248095Y-118811904D01*
X130200476Y-118621428D01*
X130200476Y-118383333D01*
X130248095Y-118192857D01*
X130295714Y-118097619D01*
X130343333Y-118050000D01*
X130438571Y-118002380D01*
%TO.C,U1*%
X131049780Y-118973504D02*
X131859304Y-118973504D01*
X131954542Y-118925885D01*
X132002161Y-118878266D01*
X132049780Y-118783028D01*
X132049780Y-118592552D01*
X132002161Y-118497314D01*
X131954542Y-118449695D01*
X131859304Y-118402076D01*
X131049780Y-118402076D01*
X132049780Y-117402076D02*
X132049780Y-117973504D01*
X132049780Y-117687790D02*
X131049780Y-117687790D01*
X131192638Y-117783028D01*
X131287876Y-117878266D01*
X131335495Y-117973504D01*
%TO.C,U3*%
X135418580Y-94513304D02*
X136228104Y-94513304D01*
X136323342Y-94465685D01*
X136370961Y-94418066D01*
X136418580Y-94322828D01*
X136418580Y-94132352D01*
X136370961Y-94037114D01*
X136323342Y-93989495D01*
X136228104Y-93941876D01*
X135418580Y-93941876D01*
X135418580Y-93560923D02*
X135418580Y-92941876D01*
X135799533Y-93275209D01*
X135799533Y-93132352D01*
X135847152Y-93037114D01*
X135894771Y-92989495D01*
X135990009Y-92941876D01*
X136228104Y-92941876D01*
X136323342Y-92989495D01*
X136370961Y-93037114D01*
X136418580Y-93132352D01*
X136418580Y-93418066D01*
X136370961Y-93513304D01*
X136323342Y-93560923D01*
%TO.C,U4*%
X136906095Y-93914980D02*
X136906095Y-94724504D01*
X136953714Y-94819742D01*
X137001333Y-94867361D01*
X137096571Y-94914980D01*
X137287047Y-94914980D01*
X137382285Y-94867361D01*
X137429904Y-94819742D01*
X137477523Y-94724504D01*
X137477523Y-93914980D01*
X138382285Y-94248314D02*
X138382285Y-94914980D01*
X138144190Y-93867361D02*
X137906095Y-94581647D01*
X138525142Y-94581647D01*
%TO.C,Y1*%
X98698809Y-115307690D02*
X98698809Y-115783880D01*
X98365476Y-114783880D02*
X98698809Y-115307690D01*
X99032142Y-114783880D01*
X99889285Y-115783880D02*
X99317857Y-115783880D01*
X99603571Y-115783880D02*
X99603571Y-114783880D01*
X99508333Y-114926738D01*
X99413095Y-115021976D01*
X99317857Y-115069595D01*
%TD*%
M02*
