%TF.GenerationSoftware,KiCad,Pcbnew,5.1.6*%
%TF.CreationDate,2021-04-06T07:59:24+02:00*%
%TF.ProjectId,teriyaki,74657269-7961-46b6-992e-6b696361645f,rev?*%
%TF.SameCoordinates,Original*%
%TF.FileFunction,Legend,Bot*%
%TF.FilePolarity,Positive*%
%FSLAX46Y46*%
G04 Gerber Fmt 4.6, Leading zero omitted, Abs format (unit mm)*
G04 Created by KiCad (PCBNEW 5.1.6) date 2021-04-06 07:59:24*
%MOMM*%
%LPD*%
G01*
G04 APERTURE LIST*
%ADD10C,0.150000*%
G04 APERTURE END LIST*
D10*
X134226190Y-127152380D02*
X134559523Y-126676190D01*
X134797619Y-127152380D02*
X134797619Y-126152380D01*
X134416666Y-126152380D01*
X134321428Y-126200000D01*
X134273809Y-126247619D01*
X134226190Y-126342857D01*
X134226190Y-126485714D01*
X134273809Y-126580952D01*
X134321428Y-126628571D01*
X134416666Y-126676190D01*
X134797619Y-126676190D01*
X133273809Y-126200000D02*
X133369047Y-126152380D01*
X133511904Y-126152380D01*
X133654761Y-126200000D01*
X133750000Y-126295238D01*
X133797619Y-126390476D01*
X133845238Y-126580952D01*
X133845238Y-126723809D01*
X133797619Y-126914285D01*
X133750000Y-127009523D01*
X133654761Y-127104761D01*
X133511904Y-127152380D01*
X133416666Y-127152380D01*
X133273809Y-127104761D01*
X133226190Y-127057142D01*
X133226190Y-126723809D01*
X133416666Y-126723809D01*
X132083333Y-126247619D02*
X132035714Y-126200000D01*
X131940476Y-126152380D01*
X131702380Y-126152380D01*
X131607142Y-126200000D01*
X131559523Y-126247619D01*
X131511904Y-126342857D01*
X131511904Y-126438095D01*
X131559523Y-126580952D01*
X132130952Y-127152380D01*
X131511904Y-127152380D01*
X130892857Y-126152380D02*
X130797619Y-126152380D01*
X130702380Y-126200000D01*
X130654761Y-126247619D01*
X130607142Y-126342857D01*
X130559523Y-126533333D01*
X130559523Y-126771428D01*
X130607142Y-126961904D01*
X130654761Y-127057142D01*
X130702380Y-127104761D01*
X130797619Y-127152380D01*
X130892857Y-127152380D01*
X130988095Y-127104761D01*
X131035714Y-127057142D01*
X131083333Y-126961904D01*
X131130952Y-126771428D01*
X131130952Y-126533333D01*
X131083333Y-126342857D01*
X131035714Y-126247619D01*
X130988095Y-126200000D01*
X130892857Y-126152380D01*
X130178571Y-126247619D02*
X130130952Y-126200000D01*
X130035714Y-126152380D01*
X129797619Y-126152380D01*
X129702380Y-126200000D01*
X129654761Y-126247619D01*
X129607142Y-126342857D01*
X129607142Y-126438095D01*
X129654761Y-126580952D01*
X130226190Y-127152380D01*
X129607142Y-127152380D01*
X128654761Y-127152380D02*
X129226190Y-127152380D01*
X128940476Y-127152380D02*
X128940476Y-126152380D01*
X129035714Y-126295238D01*
X129130952Y-126390476D01*
X129226190Y-126438095D01*
X134890476Y-124502380D02*
X134319047Y-124502380D01*
X134604761Y-125502380D02*
X134604761Y-124502380D01*
X133604761Y-125454761D02*
X133700000Y-125502380D01*
X133890476Y-125502380D01*
X133985714Y-125454761D01*
X134033333Y-125359523D01*
X134033333Y-124978571D01*
X133985714Y-124883333D01*
X133890476Y-124835714D01*
X133700000Y-124835714D01*
X133604761Y-124883333D01*
X133557142Y-124978571D01*
X133557142Y-125073809D01*
X134033333Y-125169047D01*
X133128571Y-125502380D02*
X133128571Y-124835714D01*
X133128571Y-125026190D02*
X133080952Y-124930952D01*
X133033333Y-124883333D01*
X132938095Y-124835714D01*
X132842857Y-124835714D01*
X132509523Y-125502380D02*
X132509523Y-124835714D01*
X132509523Y-124502380D02*
X132557142Y-124550000D01*
X132509523Y-124597619D01*
X132461904Y-124550000D01*
X132509523Y-124502380D01*
X132509523Y-124597619D01*
X132128571Y-124835714D02*
X131890476Y-125502380D01*
X131652380Y-124835714D02*
X131890476Y-125502380D01*
X131985714Y-125740476D01*
X132033333Y-125788095D01*
X132128571Y-125835714D01*
X130842857Y-125502380D02*
X130842857Y-124978571D01*
X130890476Y-124883333D01*
X130985714Y-124835714D01*
X131176190Y-124835714D01*
X131271428Y-124883333D01*
X130842857Y-125454761D02*
X130938095Y-125502380D01*
X131176190Y-125502380D01*
X131271428Y-125454761D01*
X131319047Y-125359523D01*
X131319047Y-125264285D01*
X131271428Y-125169047D01*
X131176190Y-125121428D01*
X130938095Y-125121428D01*
X130842857Y-125073809D01*
X130366666Y-125502380D02*
X130366666Y-124502380D01*
X130271428Y-125121428D02*
X129985714Y-125502380D01*
X129985714Y-124835714D02*
X130366666Y-125216666D01*
X129557142Y-125502380D02*
X129557142Y-124835714D01*
X129557142Y-124502380D02*
X129604761Y-124550000D01*
X129557142Y-124597619D01*
X129509523Y-124550000D01*
X129557142Y-124502380D01*
X129557142Y-124597619D01*
X128414285Y-124835714D02*
X128176190Y-125502380D01*
X127938095Y-124835714D01*
X127366666Y-124502380D02*
X127271428Y-124502380D01*
X127176190Y-124550000D01*
X127128571Y-124597619D01*
X127080952Y-124692857D01*
X127033333Y-124883333D01*
X127033333Y-125121428D01*
X127080952Y-125311904D01*
X127128571Y-125407142D01*
X127176190Y-125454761D01*
X127271428Y-125502380D01*
X127366666Y-125502380D01*
X127461904Y-125454761D01*
X127509523Y-125407142D01*
X127557142Y-125311904D01*
X127604761Y-125121428D01*
X127604761Y-124883333D01*
X127557142Y-124692857D01*
X127509523Y-124597619D01*
X127461904Y-124550000D01*
X127366666Y-124502380D01*
X126604761Y-125407142D02*
X126557142Y-125454761D01*
X126604761Y-125502380D01*
X126652380Y-125454761D01*
X126604761Y-125407142D01*
X126604761Y-125502380D01*
X125938095Y-124502380D02*
X125842857Y-124502380D01*
X125747619Y-124550000D01*
X125700000Y-124597619D01*
X125652380Y-124692857D01*
X125604761Y-124883333D01*
X125604761Y-125121428D01*
X125652380Y-125311904D01*
X125700000Y-125407142D01*
X125747619Y-125454761D01*
X125842857Y-125502380D01*
X125938095Y-125502380D01*
X126033333Y-125454761D01*
X126080952Y-125407142D01*
X126128571Y-125311904D01*
X126176190Y-125121428D01*
X126176190Y-124883333D01*
X126128571Y-124692857D01*
X126080952Y-124597619D01*
X126033333Y-124550000D01*
X125938095Y-124502380D01*
M02*
