%TF.GenerationSoftware,KiCad,Pcbnew,5.1.6*%
%TF.CreationDate,2021-04-06T07:59:24+02:00*%
%TF.ProjectId,teriyaki,74657269-7961-46b6-992e-6b696361645f,rev?*%
%TF.SameCoordinates,Original*%
%TF.FileFunction,Copper,L3,Inr*%
%TF.FilePolarity,Positive*%
%FSLAX46Y46*%
G04 Gerber Fmt 4.6, Leading zero omitted, Abs format (unit mm)*
G04 Created by KiCad (PCBNEW 5.1.6) date 2021-04-06 07:59:24*
%MOMM*%
%LPD*%
G01*
G04 APERTURE LIST*
%TA.AperFunction,ViaPad*%
%ADD10O,1.700000X1.700000*%
%TD*%
%TA.AperFunction,ViaPad*%
%ADD11R,1.700000X1.700000*%
%TD*%
%TA.AperFunction,ViaPad*%
%ADD12C,0.800000*%
%TD*%
%TA.AperFunction,ViaPad*%
%ADD13C,7.000000*%
%TD*%
%TA.AperFunction,ViaPad*%
%ADD14C,1.600000*%
%TD*%
%TA.AperFunction,ViaPad*%
%ADD15R,1.600000X1.600000*%
%TD*%
%TA.AperFunction,ViaPad*%
%ADD16O,1.250000X1.050000*%
%TD*%
%TA.AperFunction,ViaPad*%
%ADD17O,1.900000X1.000000*%
%TD*%
%TA.AperFunction,ViaPad*%
%ADD18C,3.600000*%
%TD*%
%TA.AperFunction,ViaPad*%
%ADD19C,0.900000*%
%TD*%
%TA.AperFunction,ViaPad*%
%ADD20C,0.600000*%
%TD*%
%TA.AperFunction,Conductor*%
%ADD21C,0.254000*%
%TD*%
G04 APERTURE END LIST*
D10*
%TO.N,GPIO_C7*%
%TO.C,J3*%
X98830000Y-89680000D03*
%TO.N,GPIO_C6*%
X101370000Y-89680000D03*
%TO.N,GPIO_C5*%
X103910000Y-89680000D03*
%TO.N,GPIO_C4*%
X106450000Y-89680000D03*
%TO.N,GPIO_C3*%
X108990000Y-89680000D03*
%TO.N,GPIO_C2*%
X111530000Y-89680000D03*
%TO.N,GPIO_C1*%
X114070000Y-89680000D03*
%TO.N,GPIO_B0*%
X116610000Y-89680000D03*
%TO.N,GPIO_B1*%
X119150000Y-89680000D03*
D11*
%TO.N,GPIO_B2*%
X121690000Y-89680000D03*
%TD*%
D10*
%TO.N,I2C_SCL*%
%TO.C,J4*%
X93230000Y-95430000D03*
D11*
%TO.N,I2C_SDA*%
X93230000Y-97970000D03*
%TD*%
D12*
%TO.N,GND*%
%TO.C,H3*%
X93856155Y-122843845D03*
X92000000Y-122075000D03*
X90143845Y-122843845D03*
X89375000Y-124700000D03*
X90143845Y-126556155D03*
X92000000Y-127325000D03*
X93856155Y-126556155D03*
X94625000Y-124700000D03*
D13*
X92000000Y-124700000D03*
%TD*%
D12*
%TO.N,GND*%
%TO.C,H4*%
X143856155Y-87843845D03*
X142000000Y-87075000D03*
X140143845Y-87843845D03*
X139375000Y-89700000D03*
X140143845Y-91556155D03*
X142000000Y-92325000D03*
X143856155Y-91556155D03*
X144625000Y-89700000D03*
D13*
X142000000Y-89700000D03*
%TD*%
D12*
%TO.N,GND*%
%TO.C,H2*%
X93856155Y-87843845D03*
X92000000Y-87075000D03*
X90143845Y-87843845D03*
X89375000Y-89700000D03*
X90143845Y-91556155D03*
X92000000Y-92325000D03*
X93856155Y-91556155D03*
X94625000Y-89700000D03*
D13*
X92000000Y-89700000D03*
%TD*%
D12*
%TO.N,GND*%
%TO.C,H1*%
X143856155Y-122843845D03*
X142000000Y-122075000D03*
X140143845Y-122843845D03*
X139375000Y-124700000D03*
X140143845Y-126556155D03*
X142000000Y-127325000D03*
X143856155Y-126556155D03*
X144625000Y-124700000D03*
D13*
X142000000Y-124700000D03*
%TD*%
D14*
%TO.N,GND*%
%TO.C,C2*%
X133350000Y-110236000D03*
D15*
%TO.N,REG_VIN*%
X136850000Y-110236000D03*
%TD*%
D14*
%TO.N,GND*%
%TO.C,C7*%
X114325400Y-122549800D03*
D15*
%TO.N,+3V3*%
X114325400Y-119049800D03*
%TD*%
D16*
%TO.N,Net-(J1-Pad6)*%
%TO.C,J1*%
X142550000Y-101975000D03*
X142550000Y-97525000D03*
D17*
X145550000Y-103925000D03*
X145550000Y-95575000D03*
%TD*%
D10*
%TO.N,STM8_TX*%
%TO.C,J2*%
X121700000Y-105590000D03*
D11*
%TO.N,STM8_RX*%
X121700000Y-103050000D03*
%TD*%
D10*
%TO.N,STM8_NRST*%
%TO.C,J_SWIM1*%
X93230000Y-110670000D03*
%TO.N,GND*%
X93230000Y-108130000D03*
%TO.N,STM8_SWIM*%
X93230000Y-105590000D03*
D11*
%TO.N,+3V3*%
X93230000Y-103050000D03*
%TD*%
D18*
%TO.N,+3V3*%
%TO.C,TP1*%
X120680000Y-124690000D03*
%TD*%
%TO.N,REG_VIN*%
%TO.C,TP2*%
X143400000Y-117700000D03*
%TD*%
D19*
%TO.N,GND*%
X144952600Y-110164000D03*
D12*
X139776200Y-96873060D03*
X144068800Y-101600000D03*
D20*
X144050002Y-100482400D03*
X141681200Y-100533200D03*
X141483637Y-101633285D03*
D12*
X141097000Y-101015800D03*
D19*
X128295400Y-109753400D03*
X129260600Y-109753400D03*
X130200400Y-109753400D03*
X127584200Y-110439200D03*
X132969000Y-122504200D03*
X133908800Y-122529600D03*
X134848600Y-122529600D03*
X135788400Y-122529600D03*
X136728200Y-122529600D03*
X137668000Y-122504200D03*
X132054600Y-122504200D03*
X139903200Y-117957600D03*
X139217400Y-118592600D03*
X138277600Y-118643400D03*
X132130800Y-115671600D03*
X126769800Y-119958800D03*
X127658800Y-119019000D03*
X97234800Y-110411000D03*
X98200000Y-110411000D03*
X100282800Y-115389400D03*
X101222600Y-115364000D03*
X129489200Y-102057200D03*
X132334000Y-94843600D03*
X130632200Y-94869000D03*
X118192600Y-104363000D03*
X118192600Y-102229600D03*
X118248000Y-106411600D03*
X113513200Y-108506000D03*
X137700000Y-103900000D03*
X110540000Y-97430000D03*
X110540000Y-99830000D03*
X125900000Y-88950000D03*
X126700000Y-88410000D03*
X134170000Y-89450000D03*
X133800000Y-88400000D03*
X131770000Y-88280000D03*
X129750000Y-88280000D03*
X127800000Y-88260000D03*
D20*
X126900000Y-94700000D03*
X127580000Y-94720000D03*
D12*
X107025000Y-112570000D03*
X107050000Y-111720000D03*
X107050000Y-110870000D03*
X107050000Y-110020000D03*
X106350000Y-109495000D03*
X103090000Y-113360000D03*
X101230000Y-107360000D03*
X104540000Y-106490000D03*
X102108000Y-107188000D03*
X100330000Y-107188000D03*
D19*
%TO.N,+3V3*%
X96034800Y-100506400D03*
X113113200Y-113106000D03*
X118338600Y-115620800D03*
X118364000Y-116586000D03*
X121081800Y-115620800D03*
X121081800Y-116611400D03*
X117449600Y-115138200D03*
X117449600Y-116128800D03*
X121970800Y-116103400D03*
X121945400Y-115112800D03*
X121056400Y-114554000D03*
X118338600Y-114477800D03*
X126363400Y-122778200D03*
X105200000Y-113070000D03*
X104275000Y-113145000D03*
X104800000Y-113920000D03*
X127533400Y-98145600D03*
X127533400Y-99060000D03*
X128346200Y-98602800D03*
X126009400Y-90576400D03*
X126009400Y-91516200D03*
X125069600Y-90576400D03*
X125069600Y-91516200D03*
D12*
X106060000Y-108050000D03*
X96130000Y-92920000D03*
D19*
%TO.N,REG_VIN*%
X142895200Y-110164000D03*
D12*
X137693400Y-99110800D03*
X144100000Y-97500000D03*
X143865600Y-96723200D03*
X143865600Y-96723200D03*
X143865600Y-96723200D03*
X143865600Y-96723200D03*
X143865600Y-96723200D03*
X137637818Y-96850200D03*
D20*
X144068800Y-98831400D03*
X144068800Y-99441000D03*
%TO.N,REG_FEEDBACK*%
X129680000Y-119640000D03*
X134220000Y-114500000D03*
D12*
%TO.N,STM8_RX*%
X100838000Y-104648000D03*
%TO.N,STM8_TX*%
X98806000Y-105664000D03*
%TO.N,I2C_SDA*%
X99270000Y-101710000D03*
X97170000Y-97940000D03*
%TO.N,I2C_SCL*%
X100520000Y-101710000D03*
X97170000Y-95450000D03*
%TO.N,GPIO_B1*%
X104100000Y-102150000D03*
%TO.N,GPIO_B2*%
X103433092Y-103150000D03*
%TD*%
D21*
%TO.N,+3V3*%
G36*
X133783000Y-87315000D02*
G01*
X133693137Y-87315000D01*
X133483517Y-87356696D01*
X133286060Y-87438485D01*
X133108353Y-87557225D01*
X132957225Y-87708353D01*
X132838485Y-87886060D01*
X132809853Y-87955185D01*
X132731515Y-87766060D01*
X132612775Y-87588353D01*
X132461647Y-87437225D01*
X132283940Y-87318485D01*
X132086483Y-87236696D01*
X131876863Y-87195000D01*
X131663137Y-87195000D01*
X131453517Y-87236696D01*
X131256060Y-87318485D01*
X131078353Y-87437225D01*
X130927225Y-87588353D01*
X130808485Y-87766060D01*
X130760000Y-87883114D01*
X130711515Y-87766060D01*
X130592775Y-87588353D01*
X130441647Y-87437225D01*
X130263940Y-87318485D01*
X130066483Y-87236696D01*
X129856863Y-87195000D01*
X129643137Y-87195000D01*
X129433517Y-87236696D01*
X129236060Y-87318485D01*
X129058353Y-87437225D01*
X128907225Y-87588353D01*
X128788485Y-87766060D01*
X128779142Y-87788616D01*
X128761515Y-87746060D01*
X128642775Y-87568353D01*
X128491647Y-87417225D01*
X128313940Y-87298485D01*
X128116483Y-87216696D01*
X127906863Y-87175000D01*
X127693137Y-87175000D01*
X127483517Y-87216696D01*
X127286060Y-87298485D01*
X127119879Y-87409524D01*
X127016483Y-87366696D01*
X126806863Y-87325000D01*
X126593137Y-87325000D01*
X126383517Y-87366696D01*
X126186060Y-87448485D01*
X126008353Y-87567225D01*
X125857225Y-87718353D01*
X125754043Y-87872776D01*
X125583517Y-87906696D01*
X125386060Y-87988485D01*
X125208353Y-88107225D01*
X125057225Y-88258353D01*
X124938485Y-88436060D01*
X124856696Y-88633517D01*
X124815000Y-88843137D01*
X124815000Y-89056863D01*
X124856696Y-89266483D01*
X124938485Y-89463940D01*
X125057225Y-89641647D01*
X125208353Y-89792775D01*
X125386060Y-89911515D01*
X125583517Y-89993304D01*
X125793137Y-90035000D01*
X126006863Y-90035000D01*
X126216483Y-89993304D01*
X126413940Y-89911515D01*
X126591647Y-89792775D01*
X126742775Y-89641647D01*
X126845957Y-89487224D01*
X127016483Y-89453304D01*
X127213940Y-89371515D01*
X127380121Y-89260476D01*
X127483517Y-89303304D01*
X127693137Y-89345000D01*
X127906863Y-89345000D01*
X128116483Y-89303304D01*
X128313940Y-89221515D01*
X128491647Y-89102775D01*
X128642775Y-88951647D01*
X128761515Y-88773940D01*
X128770858Y-88751384D01*
X128788485Y-88793940D01*
X128907225Y-88971647D01*
X129058353Y-89122775D01*
X129236060Y-89241515D01*
X129433517Y-89323304D01*
X129643137Y-89365000D01*
X129856863Y-89365000D01*
X130066483Y-89323304D01*
X130263940Y-89241515D01*
X130441647Y-89122775D01*
X130592775Y-88971647D01*
X130711515Y-88793940D01*
X130760000Y-88676886D01*
X130808485Y-88793940D01*
X130927225Y-88971647D01*
X131078353Y-89122775D01*
X131256060Y-89241515D01*
X131453517Y-89323304D01*
X131663137Y-89365000D01*
X131876863Y-89365000D01*
X132086483Y-89323304D01*
X132283940Y-89241515D01*
X132461647Y-89122775D01*
X132612775Y-88971647D01*
X132731515Y-88793940D01*
X132760147Y-88724815D01*
X132838485Y-88913940D01*
X132957225Y-89091647D01*
X133105526Y-89239948D01*
X133085000Y-89343137D01*
X133085000Y-89556863D01*
X133126696Y-89766483D01*
X133208485Y-89963940D01*
X133327225Y-90141647D01*
X133478353Y-90292775D01*
X133656060Y-90411515D01*
X133783000Y-90464095D01*
X133783000Y-108862122D01*
X133768574Y-108856147D01*
X133491335Y-108801000D01*
X133208665Y-108801000D01*
X132931426Y-108856147D01*
X132670273Y-108964320D01*
X132435241Y-109121363D01*
X132235363Y-109321241D01*
X132078320Y-109556273D01*
X131970147Y-109817426D01*
X131915000Y-110094665D01*
X131915000Y-110377335D01*
X131970147Y-110654574D01*
X132078320Y-110915727D01*
X132235363Y-111150759D01*
X132435241Y-111350637D01*
X132670273Y-111507680D01*
X132931426Y-111615853D01*
X133208665Y-111671000D01*
X133491335Y-111671000D01*
X133768574Y-111615853D01*
X133783000Y-111609878D01*
X133783000Y-113668975D01*
X133777111Y-113671414D01*
X133623972Y-113773738D01*
X133493738Y-113903972D01*
X133391414Y-114057111D01*
X133320932Y-114227271D01*
X133285000Y-114407911D01*
X133285000Y-114592089D01*
X133320932Y-114772729D01*
X133391414Y-114942889D01*
X133493738Y-115096028D01*
X133623972Y-115226262D01*
X133777111Y-115328586D01*
X133783000Y-115331025D01*
X133783000Y-121448367D01*
X133592317Y-121486296D01*
X133469561Y-121537143D01*
X133285483Y-121460896D01*
X133075863Y-121419200D01*
X132862137Y-121419200D01*
X132652517Y-121460896D01*
X132511800Y-121519183D01*
X132371083Y-121460896D01*
X132161463Y-121419200D01*
X131947737Y-121419200D01*
X131738117Y-121460896D01*
X131540660Y-121542685D01*
X131362953Y-121661425D01*
X131211825Y-121812553D01*
X131093085Y-121990260D01*
X131011296Y-122187717D01*
X130969600Y-122397337D01*
X130969600Y-122611063D01*
X131011296Y-122820683D01*
X131093085Y-123018140D01*
X131211825Y-123195847D01*
X131362953Y-123346975D01*
X131540660Y-123465715D01*
X131738117Y-123547504D01*
X131947737Y-123589200D01*
X132161463Y-123589200D01*
X132371083Y-123547504D01*
X132511800Y-123489217D01*
X132652517Y-123547504D01*
X132862137Y-123589200D01*
X133075863Y-123589200D01*
X133285483Y-123547504D01*
X133408239Y-123496657D01*
X133592317Y-123572904D01*
X133783000Y-123610833D01*
X133783000Y-129040000D01*
X92029392Y-129040000D01*
X91231917Y-128968827D01*
X90488110Y-128765344D01*
X89792096Y-128433363D01*
X89165870Y-127983374D01*
X88629223Y-127429597D01*
X88199129Y-126789549D01*
X87889171Y-126083447D01*
X87707935Y-125328543D01*
X87660000Y-124675793D01*
X87660000Y-124292738D01*
X87865000Y-124292738D01*
X87865000Y-125107262D01*
X88023906Y-125906135D01*
X88335611Y-126658657D01*
X88788136Y-127335909D01*
X89364091Y-127911864D01*
X90041343Y-128364389D01*
X90793865Y-128676094D01*
X91592738Y-128835000D01*
X92407262Y-128835000D01*
X93206135Y-128676094D01*
X93958657Y-128364389D01*
X94635909Y-127911864D01*
X95211864Y-127335909D01*
X95664389Y-126658657D01*
X95773519Y-126395192D01*
X119154414Y-126395192D01*
X119346502Y-126741469D01*
X119772346Y-126962203D01*
X120233071Y-127095618D01*
X120710971Y-127136585D01*
X121187681Y-127083532D01*
X121644881Y-126938498D01*
X122013498Y-126741469D01*
X122205586Y-126395192D01*
X120680000Y-124869605D01*
X119154414Y-126395192D01*
X95773519Y-126395192D01*
X95976094Y-125906135D01*
X96135000Y-125107262D01*
X96135000Y-124720971D01*
X118233415Y-124720971D01*
X118286468Y-125197681D01*
X118431502Y-125654881D01*
X118628531Y-126023498D01*
X118974808Y-126215586D01*
X120500395Y-124690000D01*
X120859605Y-124690000D01*
X122385192Y-126215586D01*
X122731469Y-126023498D01*
X122952203Y-125597654D01*
X123085618Y-125136929D01*
X123126585Y-124659029D01*
X123073532Y-124182319D01*
X122928498Y-123725119D01*
X122731469Y-123356502D01*
X122385192Y-123164414D01*
X120859605Y-124690000D01*
X120500395Y-124690000D01*
X118974808Y-123164414D01*
X118628531Y-123356502D01*
X118407797Y-123782346D01*
X118274382Y-124243071D01*
X118233415Y-124720971D01*
X96135000Y-124720971D01*
X96135000Y-124292738D01*
X95976094Y-123493865D01*
X95664389Y-122741343D01*
X95441968Y-122408465D01*
X112890400Y-122408465D01*
X112890400Y-122691135D01*
X112945547Y-122968374D01*
X113053720Y-123229527D01*
X113210763Y-123464559D01*
X113410641Y-123664437D01*
X113645673Y-123821480D01*
X113906826Y-123929653D01*
X114184065Y-123984800D01*
X114466735Y-123984800D01*
X114743974Y-123929653D01*
X115005127Y-123821480D01*
X115240159Y-123664437D01*
X115440037Y-123464559D01*
X115597080Y-123229527D01*
X115698445Y-122984808D01*
X119154414Y-122984808D01*
X120680000Y-124510395D01*
X122205586Y-122984808D01*
X122013498Y-122638531D01*
X121587654Y-122417797D01*
X121126929Y-122284382D01*
X120649029Y-122243415D01*
X120172319Y-122296468D01*
X119715119Y-122441502D01*
X119346502Y-122638531D01*
X119154414Y-122984808D01*
X115698445Y-122984808D01*
X115705253Y-122968374D01*
X115760400Y-122691135D01*
X115760400Y-122408465D01*
X115705253Y-122131226D01*
X115597080Y-121870073D01*
X115440037Y-121635041D01*
X115240159Y-121435163D01*
X115005127Y-121278120D01*
X114743974Y-121169947D01*
X114466735Y-121114800D01*
X114184065Y-121114800D01*
X113906826Y-121169947D01*
X113645673Y-121278120D01*
X113410641Y-121435163D01*
X113210763Y-121635041D01*
X113053720Y-121870073D01*
X112945547Y-122131226D01*
X112890400Y-122408465D01*
X95441968Y-122408465D01*
X95211864Y-122064091D01*
X94635909Y-121488136D01*
X93958657Y-121035611D01*
X93206135Y-120723906D01*
X92407262Y-120565000D01*
X91592738Y-120565000D01*
X90793865Y-120723906D01*
X90041343Y-121035611D01*
X89364091Y-121488136D01*
X88788136Y-122064091D01*
X88335611Y-122741343D01*
X88023906Y-123493865D01*
X87865000Y-124292738D01*
X87660000Y-124292738D01*
X87660000Y-119849800D01*
X112887328Y-119849800D01*
X112899588Y-119974282D01*
X112935898Y-120093980D01*
X112994863Y-120204294D01*
X113074215Y-120300985D01*
X113170906Y-120380337D01*
X113281220Y-120439302D01*
X113400918Y-120475612D01*
X113525400Y-120487872D01*
X114039650Y-120484800D01*
X114198400Y-120326050D01*
X114198400Y-119176800D01*
X114452400Y-119176800D01*
X114452400Y-120326050D01*
X114611150Y-120484800D01*
X115125400Y-120487872D01*
X115249882Y-120475612D01*
X115369580Y-120439302D01*
X115479894Y-120380337D01*
X115576585Y-120300985D01*
X115655937Y-120204294D01*
X115714902Y-120093980D01*
X115751212Y-119974282D01*
X115763261Y-119851937D01*
X125684800Y-119851937D01*
X125684800Y-120065663D01*
X125726496Y-120275283D01*
X125808285Y-120472740D01*
X125927025Y-120650447D01*
X126078153Y-120801575D01*
X126255860Y-120920315D01*
X126453317Y-121002104D01*
X126662937Y-121043800D01*
X126876663Y-121043800D01*
X127086283Y-121002104D01*
X127283740Y-120920315D01*
X127461447Y-120801575D01*
X127612575Y-120650447D01*
X127731315Y-120472740D01*
X127813104Y-120275283D01*
X127850532Y-120087118D01*
X127975283Y-120062304D01*
X128172740Y-119980515D01*
X128350447Y-119861775D01*
X128501575Y-119710647D01*
X128610311Y-119547911D01*
X128745000Y-119547911D01*
X128745000Y-119732089D01*
X128780932Y-119912729D01*
X128851414Y-120082889D01*
X128953738Y-120236028D01*
X129083972Y-120366262D01*
X129237111Y-120468586D01*
X129407271Y-120539068D01*
X129587911Y-120575000D01*
X129772089Y-120575000D01*
X129952729Y-120539068D01*
X130122889Y-120468586D01*
X130276028Y-120366262D01*
X130406262Y-120236028D01*
X130508586Y-120082889D01*
X130579068Y-119912729D01*
X130615000Y-119732089D01*
X130615000Y-119547911D01*
X130579068Y-119367271D01*
X130508586Y-119197111D01*
X130406262Y-119043972D01*
X130276028Y-118913738D01*
X130122889Y-118811414D01*
X129952729Y-118740932D01*
X129772089Y-118705000D01*
X129587911Y-118705000D01*
X129407271Y-118740932D01*
X129237111Y-118811414D01*
X129083972Y-118913738D01*
X128953738Y-119043972D01*
X128851414Y-119197111D01*
X128780932Y-119367271D01*
X128745000Y-119547911D01*
X128610311Y-119547911D01*
X128620315Y-119532940D01*
X128702104Y-119335483D01*
X128743800Y-119125863D01*
X128743800Y-118912137D01*
X128702104Y-118702517D01*
X128620315Y-118505060D01*
X128501575Y-118327353D01*
X128350447Y-118176225D01*
X128172740Y-118057485D01*
X127975283Y-117975696D01*
X127765663Y-117934000D01*
X127551937Y-117934000D01*
X127342317Y-117975696D01*
X127144860Y-118057485D01*
X126967153Y-118176225D01*
X126816025Y-118327353D01*
X126697285Y-118505060D01*
X126615496Y-118702517D01*
X126578068Y-118890682D01*
X126453317Y-118915496D01*
X126255860Y-118997285D01*
X126078153Y-119116025D01*
X125927025Y-119267153D01*
X125808285Y-119444860D01*
X125726496Y-119642317D01*
X125684800Y-119851937D01*
X115763261Y-119851937D01*
X115763472Y-119849800D01*
X115760400Y-119335550D01*
X115601650Y-119176800D01*
X114452400Y-119176800D01*
X114198400Y-119176800D01*
X113049150Y-119176800D01*
X112890400Y-119335550D01*
X112887328Y-119849800D01*
X87660000Y-119849800D01*
X87660000Y-118249800D01*
X112887328Y-118249800D01*
X112890400Y-118764050D01*
X113049150Y-118922800D01*
X114198400Y-118922800D01*
X114198400Y-117773550D01*
X114452400Y-117773550D01*
X114452400Y-118922800D01*
X115601650Y-118922800D01*
X115760400Y-118764050D01*
X115763472Y-118249800D01*
X115751212Y-118125318D01*
X115714902Y-118005620D01*
X115655937Y-117895306D01*
X115576585Y-117798615D01*
X115479894Y-117719263D01*
X115369580Y-117660298D01*
X115249882Y-117623988D01*
X115125400Y-117611728D01*
X114611150Y-117614800D01*
X114452400Y-117773550D01*
X114198400Y-117773550D01*
X114039650Y-117614800D01*
X113525400Y-117611728D01*
X113400918Y-117623988D01*
X113281220Y-117660298D01*
X113170906Y-117719263D01*
X113074215Y-117798615D01*
X112994863Y-117895306D01*
X112935898Y-118005620D01*
X112899588Y-118125318D01*
X112887328Y-118249800D01*
X87660000Y-118249800D01*
X87660000Y-103900000D01*
X91741928Y-103900000D01*
X91754188Y-104024482D01*
X91790498Y-104144180D01*
X91849463Y-104254494D01*
X91928815Y-104351185D01*
X92025506Y-104430537D01*
X92135820Y-104489502D01*
X92208380Y-104511513D01*
X92076525Y-104643368D01*
X91914010Y-104886589D01*
X91802068Y-105156842D01*
X91745000Y-105443740D01*
X91745000Y-105736260D01*
X91802068Y-106023158D01*
X91914010Y-106293411D01*
X92076525Y-106536632D01*
X92283368Y-106743475D01*
X92457760Y-106860000D01*
X92283368Y-106976525D01*
X92076525Y-107183368D01*
X91914010Y-107426589D01*
X91802068Y-107696842D01*
X91745000Y-107983740D01*
X91745000Y-108276260D01*
X91802068Y-108563158D01*
X91914010Y-108833411D01*
X92076525Y-109076632D01*
X92283368Y-109283475D01*
X92457760Y-109400000D01*
X92283368Y-109516525D01*
X92076525Y-109723368D01*
X91914010Y-109966589D01*
X91802068Y-110236842D01*
X91745000Y-110523740D01*
X91745000Y-110816260D01*
X91802068Y-111103158D01*
X91914010Y-111373411D01*
X92076525Y-111616632D01*
X92283368Y-111823475D01*
X92526589Y-111985990D01*
X92796842Y-112097932D01*
X93083740Y-112155000D01*
X93376260Y-112155000D01*
X93663158Y-112097932D01*
X93933411Y-111985990D01*
X94176632Y-111823475D01*
X94383475Y-111616632D01*
X94545990Y-111373411D01*
X94657932Y-111103158D01*
X94704310Y-110870000D01*
X95873000Y-110870000D01*
X95873000Y-114920000D01*
X95875440Y-114944776D01*
X95882667Y-114968601D01*
X95894403Y-114990557D01*
X95910197Y-115009803D01*
X95929443Y-115025597D01*
X95951399Y-115037333D01*
X95975224Y-115044560D01*
X96000000Y-115047000D01*
X99250231Y-115047000D01*
X99239496Y-115072917D01*
X99197800Y-115282537D01*
X99197800Y-115496263D01*
X99239496Y-115705883D01*
X99321285Y-115903340D01*
X99440025Y-116081047D01*
X99591153Y-116232175D01*
X99768860Y-116350915D01*
X99966317Y-116432704D01*
X100175937Y-116474400D01*
X100389663Y-116474400D01*
X100599283Y-116432704D01*
X100783361Y-116356457D01*
X100906117Y-116407304D01*
X101115737Y-116449000D01*
X101329463Y-116449000D01*
X101539083Y-116407304D01*
X101736540Y-116325515D01*
X101914247Y-116206775D01*
X102065375Y-116055647D01*
X102184115Y-115877940D01*
X102265904Y-115680483D01*
X102288927Y-115564737D01*
X131045800Y-115564737D01*
X131045800Y-115778463D01*
X131087496Y-115988083D01*
X131169285Y-116185540D01*
X131288025Y-116363247D01*
X131439153Y-116514375D01*
X131616860Y-116633115D01*
X131814317Y-116714904D01*
X132023937Y-116756600D01*
X132237663Y-116756600D01*
X132447283Y-116714904D01*
X132644740Y-116633115D01*
X132822447Y-116514375D01*
X132973575Y-116363247D01*
X133092315Y-116185540D01*
X133174104Y-115988083D01*
X133215800Y-115778463D01*
X133215800Y-115564737D01*
X133174104Y-115355117D01*
X133092315Y-115157660D01*
X132973575Y-114979953D01*
X132822447Y-114828825D01*
X132644740Y-114710085D01*
X132447283Y-114628296D01*
X132237663Y-114586600D01*
X132023937Y-114586600D01*
X131814317Y-114628296D01*
X131616860Y-114710085D01*
X131439153Y-114828825D01*
X131288025Y-114979953D01*
X131169285Y-115157660D01*
X131087496Y-115355117D01*
X131045800Y-115564737D01*
X102288927Y-115564737D01*
X102307600Y-115470863D01*
X102307600Y-115257137D01*
X102265904Y-115047517D01*
X102265690Y-115047000D01*
X102300000Y-115047000D01*
X102324776Y-115044560D01*
X102348601Y-115037333D01*
X102370557Y-115025597D01*
X102389803Y-115009803D01*
X102405597Y-114990557D01*
X102417333Y-114968601D01*
X102424560Y-114944776D01*
X102427000Y-114920000D01*
X102427000Y-114160711D01*
X102430226Y-114163937D01*
X102599744Y-114277205D01*
X102788102Y-114355226D01*
X102988061Y-114395000D01*
X103191939Y-114395000D01*
X103391898Y-114355226D01*
X103580256Y-114277205D01*
X103749774Y-114163937D01*
X103893937Y-114019774D01*
X104007205Y-113850256D01*
X104085226Y-113661898D01*
X104125000Y-113461939D01*
X104125000Y-113258061D01*
X104085226Y-113058102D01*
X104007205Y-112869744D01*
X103893937Y-112700226D01*
X103749774Y-112556063D01*
X103580256Y-112442795D01*
X103391898Y-112364774D01*
X103191939Y-112325000D01*
X102988061Y-112325000D01*
X102788102Y-112364774D01*
X102599744Y-112442795D01*
X102430226Y-112556063D01*
X102427000Y-112559289D01*
X102427000Y-110870000D01*
X102424560Y-110845224D01*
X102417333Y-110821399D01*
X102405597Y-110799443D01*
X102389803Y-110780197D01*
X102370557Y-110764403D01*
X102348601Y-110752667D01*
X102324776Y-110745440D01*
X102300000Y-110743000D01*
X99236877Y-110743000D01*
X99243304Y-110727483D01*
X99285000Y-110517863D01*
X99285000Y-110304137D01*
X99243304Y-110094517D01*
X99161515Y-109897060D01*
X99042775Y-109719353D01*
X98891647Y-109568225D01*
X98713940Y-109449485D01*
X98577720Y-109393061D01*
X105315000Y-109393061D01*
X105315000Y-109596939D01*
X105354774Y-109796898D01*
X105432795Y-109985256D01*
X105546063Y-110154774D01*
X105690226Y-110298937D01*
X105859744Y-110412205D01*
X106048102Y-110490226D01*
X106084068Y-110497380D01*
X106054774Y-110568102D01*
X106015000Y-110768061D01*
X106015000Y-110971939D01*
X106054774Y-111171898D01*
X106105765Y-111295000D01*
X106054774Y-111418102D01*
X106015000Y-111618061D01*
X106015000Y-111821939D01*
X106054774Y-112021898D01*
X106093265Y-112114823D01*
X106029774Y-112268102D01*
X105990000Y-112468061D01*
X105990000Y-112671939D01*
X106029774Y-112871898D01*
X106107795Y-113060256D01*
X106221063Y-113229774D01*
X106365226Y-113373937D01*
X106534744Y-113487205D01*
X106723102Y-113565226D01*
X106923061Y-113605000D01*
X107126939Y-113605000D01*
X107326898Y-113565226D01*
X107515256Y-113487205D01*
X107684774Y-113373937D01*
X107828937Y-113229774D01*
X107942205Y-113060256D01*
X108020226Y-112871898D01*
X108060000Y-112671939D01*
X108060000Y-112468061D01*
X108020226Y-112268102D01*
X107981735Y-112175177D01*
X108045226Y-112021898D01*
X108085000Y-111821939D01*
X108085000Y-111618061D01*
X108045226Y-111418102D01*
X107994235Y-111295000D01*
X108045226Y-111171898D01*
X108085000Y-110971939D01*
X108085000Y-110768061D01*
X108045226Y-110568102D01*
X107994235Y-110445000D01*
X108040901Y-110332337D01*
X126499200Y-110332337D01*
X126499200Y-110546063D01*
X126540896Y-110755683D01*
X126622685Y-110953140D01*
X126741425Y-111130847D01*
X126892553Y-111281975D01*
X127070260Y-111400715D01*
X127267717Y-111482504D01*
X127477337Y-111524200D01*
X127691063Y-111524200D01*
X127900683Y-111482504D01*
X128098140Y-111400715D01*
X128275847Y-111281975D01*
X128426975Y-111130847D01*
X128545715Y-110953140D01*
X128610390Y-110797001D01*
X128611883Y-110796704D01*
X128778000Y-110727896D01*
X128944117Y-110796704D01*
X129153737Y-110838400D01*
X129367463Y-110838400D01*
X129577083Y-110796704D01*
X129730500Y-110733157D01*
X129883917Y-110796704D01*
X130093537Y-110838400D01*
X130307263Y-110838400D01*
X130516883Y-110796704D01*
X130714340Y-110714915D01*
X130892047Y-110596175D01*
X131043175Y-110445047D01*
X131161915Y-110267340D01*
X131243704Y-110069883D01*
X131285400Y-109860263D01*
X131285400Y-109646537D01*
X131243704Y-109436917D01*
X131161915Y-109239460D01*
X131043175Y-109061753D01*
X130892047Y-108910625D01*
X130714340Y-108791885D01*
X130516883Y-108710096D01*
X130307263Y-108668400D01*
X130093537Y-108668400D01*
X129883917Y-108710096D01*
X129730500Y-108773643D01*
X129577083Y-108710096D01*
X129367463Y-108668400D01*
X129153737Y-108668400D01*
X128944117Y-108710096D01*
X128778000Y-108778904D01*
X128611883Y-108710096D01*
X128402263Y-108668400D01*
X128188537Y-108668400D01*
X127978917Y-108710096D01*
X127781460Y-108791885D01*
X127603753Y-108910625D01*
X127452625Y-109061753D01*
X127333885Y-109239460D01*
X127269210Y-109395599D01*
X127267717Y-109395896D01*
X127070260Y-109477685D01*
X126892553Y-109596425D01*
X126741425Y-109747553D01*
X126622685Y-109925260D01*
X126540896Y-110122717D01*
X126499200Y-110332337D01*
X108040901Y-110332337D01*
X108045226Y-110321898D01*
X108085000Y-110121939D01*
X108085000Y-109918061D01*
X108045226Y-109718102D01*
X107967205Y-109529744D01*
X107853937Y-109360226D01*
X107709774Y-109216063D01*
X107540256Y-109102795D01*
X107351898Y-109024774D01*
X107268642Y-109008214D01*
X107267205Y-109004744D01*
X107153937Y-108835226D01*
X107009774Y-108691063D01*
X106840256Y-108577795D01*
X106651898Y-108499774D01*
X106451939Y-108460000D01*
X106248061Y-108460000D01*
X106048102Y-108499774D01*
X105859744Y-108577795D01*
X105690226Y-108691063D01*
X105546063Y-108835226D01*
X105432795Y-109004744D01*
X105354774Y-109193102D01*
X105315000Y-109393061D01*
X98577720Y-109393061D01*
X98516483Y-109367696D01*
X98306863Y-109326000D01*
X98093137Y-109326000D01*
X97883517Y-109367696D01*
X97717400Y-109436504D01*
X97551283Y-109367696D01*
X97341663Y-109326000D01*
X97127937Y-109326000D01*
X96918317Y-109367696D01*
X96720860Y-109449485D01*
X96543153Y-109568225D01*
X96392025Y-109719353D01*
X96273285Y-109897060D01*
X96191496Y-110094517D01*
X96149800Y-110304137D01*
X96149800Y-110517863D01*
X96191496Y-110727483D01*
X96197923Y-110743000D01*
X96000000Y-110743000D01*
X95975224Y-110745440D01*
X95951399Y-110752667D01*
X95929443Y-110764403D01*
X95910197Y-110780197D01*
X95894403Y-110799443D01*
X95882667Y-110821399D01*
X95875440Y-110845224D01*
X95873000Y-110870000D01*
X94704310Y-110870000D01*
X94715000Y-110816260D01*
X94715000Y-110523740D01*
X94657932Y-110236842D01*
X94545990Y-109966589D01*
X94383475Y-109723368D01*
X94176632Y-109516525D01*
X94002240Y-109400000D01*
X94176632Y-109283475D01*
X94383475Y-109076632D01*
X94545990Y-108833411D01*
X94657932Y-108563158D01*
X94690558Y-108399137D01*
X112428200Y-108399137D01*
X112428200Y-108612863D01*
X112469896Y-108822483D01*
X112551685Y-109019940D01*
X112670425Y-109197647D01*
X112821553Y-109348775D01*
X112999260Y-109467515D01*
X113196717Y-109549304D01*
X113406337Y-109591000D01*
X113620063Y-109591000D01*
X113829683Y-109549304D01*
X114027140Y-109467515D01*
X114204847Y-109348775D01*
X114355975Y-109197647D01*
X114474715Y-109019940D01*
X114556504Y-108822483D01*
X114598200Y-108612863D01*
X114598200Y-108399137D01*
X114556504Y-108189517D01*
X114474715Y-107992060D01*
X114355975Y-107814353D01*
X114204847Y-107663225D01*
X114027140Y-107544485D01*
X113829683Y-107462696D01*
X113620063Y-107421000D01*
X113406337Y-107421000D01*
X113196717Y-107462696D01*
X112999260Y-107544485D01*
X112821553Y-107663225D01*
X112670425Y-107814353D01*
X112551685Y-107992060D01*
X112469896Y-108189517D01*
X112428200Y-108399137D01*
X94690558Y-108399137D01*
X94715000Y-108276260D01*
X94715000Y-107983740D01*
X94657932Y-107696842D01*
X94545990Y-107426589D01*
X94383475Y-107183368D01*
X94286168Y-107086061D01*
X99295000Y-107086061D01*
X99295000Y-107289939D01*
X99334774Y-107489898D01*
X99412795Y-107678256D01*
X99526063Y-107847774D01*
X99670226Y-107991937D01*
X99839744Y-108105205D01*
X100028102Y-108183226D01*
X100228061Y-108223000D01*
X100431939Y-108223000D01*
X100606619Y-108188254D01*
X100739744Y-108277205D01*
X100928102Y-108355226D01*
X101128061Y-108395000D01*
X101331939Y-108395000D01*
X101531898Y-108355226D01*
X101720256Y-108277205D01*
X101848334Y-108191626D01*
X102006061Y-108223000D01*
X102209939Y-108223000D01*
X102409898Y-108183226D01*
X102598256Y-108105205D01*
X102767774Y-107991937D01*
X102911937Y-107847774D01*
X103025205Y-107678256D01*
X103103226Y-107489898D01*
X103143000Y-107289939D01*
X103143000Y-107086061D01*
X103103226Y-106886102D01*
X103025205Y-106697744D01*
X102911937Y-106528226D01*
X102771772Y-106388061D01*
X103505000Y-106388061D01*
X103505000Y-106591939D01*
X103544774Y-106791898D01*
X103622795Y-106980256D01*
X103736063Y-107149774D01*
X103880226Y-107293937D01*
X104049744Y-107407205D01*
X104238102Y-107485226D01*
X104438061Y-107525000D01*
X104641939Y-107525000D01*
X104841898Y-107485226D01*
X105030256Y-107407205D01*
X105199774Y-107293937D01*
X105343937Y-107149774D01*
X105457205Y-106980256D01*
X105535226Y-106791898D01*
X105575000Y-106591939D01*
X105575000Y-106388061D01*
X105535226Y-106188102D01*
X105457205Y-105999744D01*
X105343937Y-105830226D01*
X105199774Y-105686063D01*
X105030256Y-105572795D01*
X104841898Y-105494774D01*
X104641939Y-105455000D01*
X104438061Y-105455000D01*
X104238102Y-105494774D01*
X104049744Y-105572795D01*
X103880226Y-105686063D01*
X103736063Y-105830226D01*
X103622795Y-105999744D01*
X103544774Y-106188102D01*
X103505000Y-106388061D01*
X102771772Y-106388061D01*
X102767774Y-106384063D01*
X102598256Y-106270795D01*
X102409898Y-106192774D01*
X102209939Y-106153000D01*
X102006061Y-106153000D01*
X101806102Y-106192774D01*
X101617744Y-106270795D01*
X101489666Y-106356374D01*
X101331939Y-106325000D01*
X101128061Y-106325000D01*
X100953381Y-106359746D01*
X100820256Y-106270795D01*
X100631898Y-106192774D01*
X100431939Y-106153000D01*
X100228061Y-106153000D01*
X100028102Y-106192774D01*
X99839744Y-106270795D01*
X99670226Y-106384063D01*
X99526063Y-106528226D01*
X99412795Y-106697744D01*
X99334774Y-106886102D01*
X99295000Y-107086061D01*
X94286168Y-107086061D01*
X94176632Y-106976525D01*
X94002240Y-106860000D01*
X94176632Y-106743475D01*
X94383475Y-106536632D01*
X94545990Y-106293411D01*
X94657932Y-106023158D01*
X94715000Y-105736260D01*
X94715000Y-105562061D01*
X97771000Y-105562061D01*
X97771000Y-105765939D01*
X97810774Y-105965898D01*
X97888795Y-106154256D01*
X98002063Y-106323774D01*
X98146226Y-106467937D01*
X98315744Y-106581205D01*
X98504102Y-106659226D01*
X98704061Y-106699000D01*
X98907939Y-106699000D01*
X99107898Y-106659226D01*
X99296256Y-106581205D01*
X99465774Y-106467937D01*
X99609937Y-106323774D01*
X99723205Y-106154256D01*
X99801226Y-105965898D01*
X99841000Y-105765939D01*
X99841000Y-105562061D01*
X99801226Y-105362102D01*
X99723205Y-105173744D01*
X99609937Y-105004226D01*
X99465774Y-104860063D01*
X99296256Y-104746795D01*
X99107898Y-104668774D01*
X98907939Y-104629000D01*
X98704061Y-104629000D01*
X98504102Y-104668774D01*
X98315744Y-104746795D01*
X98146226Y-104860063D01*
X98002063Y-105004226D01*
X97888795Y-105173744D01*
X97810774Y-105362102D01*
X97771000Y-105562061D01*
X94715000Y-105562061D01*
X94715000Y-105443740D01*
X94657932Y-105156842D01*
X94545990Y-104886589D01*
X94383475Y-104643368D01*
X94286168Y-104546061D01*
X99803000Y-104546061D01*
X99803000Y-104749939D01*
X99842774Y-104949898D01*
X99920795Y-105138256D01*
X100034063Y-105307774D01*
X100178226Y-105451937D01*
X100347744Y-105565205D01*
X100536102Y-105643226D01*
X100736061Y-105683000D01*
X100939939Y-105683000D01*
X101139898Y-105643226D01*
X101328256Y-105565205D01*
X101497774Y-105451937D01*
X101641937Y-105307774D01*
X101755205Y-105138256D01*
X101833226Y-104949898D01*
X101873000Y-104749939D01*
X101873000Y-104546061D01*
X101833226Y-104346102D01*
X101755205Y-104157744D01*
X101641937Y-103988226D01*
X101497774Y-103844063D01*
X101328256Y-103730795D01*
X101139898Y-103652774D01*
X100939939Y-103613000D01*
X100736061Y-103613000D01*
X100536102Y-103652774D01*
X100347744Y-103730795D01*
X100178226Y-103844063D01*
X100034063Y-103988226D01*
X99920795Y-104157744D01*
X99842774Y-104346102D01*
X99803000Y-104546061D01*
X94286168Y-104546061D01*
X94251620Y-104511513D01*
X94324180Y-104489502D01*
X94434494Y-104430537D01*
X94531185Y-104351185D01*
X94610537Y-104254494D01*
X94669502Y-104144180D01*
X94705812Y-104024482D01*
X94718072Y-103900000D01*
X94715000Y-103335750D01*
X94556250Y-103177000D01*
X93357000Y-103177000D01*
X93357000Y-103197000D01*
X93103000Y-103197000D01*
X93103000Y-103177000D01*
X91903750Y-103177000D01*
X91745000Y-103335750D01*
X91741928Y-103900000D01*
X87660000Y-103900000D01*
X87660000Y-103048061D01*
X102398092Y-103048061D01*
X102398092Y-103251939D01*
X102437866Y-103451898D01*
X102515887Y-103640256D01*
X102629155Y-103809774D01*
X102773318Y-103953937D01*
X102942836Y-104067205D01*
X103131194Y-104145226D01*
X103331153Y-104185000D01*
X103535031Y-104185000D01*
X103734990Y-104145226D01*
X103923348Y-104067205D01*
X104092866Y-103953937D01*
X104237029Y-103809774D01*
X104350297Y-103640256D01*
X104428318Y-103451898D01*
X104468092Y-103251939D01*
X104468092Y-103117807D01*
X104590256Y-103067205D01*
X104759774Y-102953937D01*
X104903937Y-102809774D01*
X105017205Y-102640256D01*
X105095226Y-102451898D01*
X105135000Y-102251939D01*
X105135000Y-102122737D01*
X117107600Y-102122737D01*
X117107600Y-102336463D01*
X117149296Y-102546083D01*
X117231085Y-102743540D01*
X117349825Y-102921247D01*
X117500953Y-103072375D01*
X117678660Y-103191115D01*
X117876117Y-103272904D01*
X117993737Y-103296300D01*
X117876117Y-103319696D01*
X117678660Y-103401485D01*
X117500953Y-103520225D01*
X117349825Y-103671353D01*
X117231085Y-103849060D01*
X117149296Y-104046517D01*
X117107600Y-104256137D01*
X117107600Y-104469863D01*
X117149296Y-104679483D01*
X117231085Y-104876940D01*
X117349825Y-105054647D01*
X117500953Y-105205775D01*
X117678660Y-105324515D01*
X117857937Y-105398774D01*
X117734060Y-105450085D01*
X117556353Y-105568825D01*
X117405225Y-105719953D01*
X117286485Y-105897660D01*
X117204696Y-106095117D01*
X117163000Y-106304737D01*
X117163000Y-106518463D01*
X117204696Y-106728083D01*
X117286485Y-106925540D01*
X117405225Y-107103247D01*
X117556353Y-107254375D01*
X117734060Y-107373115D01*
X117931517Y-107454904D01*
X118141137Y-107496600D01*
X118354863Y-107496600D01*
X118564483Y-107454904D01*
X118761940Y-107373115D01*
X118939647Y-107254375D01*
X119090775Y-107103247D01*
X119209515Y-106925540D01*
X119291304Y-106728083D01*
X119333000Y-106518463D01*
X119333000Y-106304737D01*
X119291304Y-106095117D01*
X119209515Y-105897660D01*
X119090775Y-105719953D01*
X118939647Y-105568825D01*
X118761940Y-105450085D01*
X118582663Y-105375826D01*
X118706540Y-105324515D01*
X118884247Y-105205775D01*
X119035375Y-105054647D01*
X119154115Y-104876940D01*
X119235904Y-104679483D01*
X119277600Y-104469863D01*
X119277600Y-104256137D01*
X119235904Y-104046517D01*
X119154115Y-103849060D01*
X119035375Y-103671353D01*
X118884247Y-103520225D01*
X118706540Y-103401485D01*
X118509083Y-103319696D01*
X118391463Y-103296300D01*
X118509083Y-103272904D01*
X118706540Y-103191115D01*
X118884247Y-103072375D01*
X119035375Y-102921247D01*
X119154115Y-102743540D01*
X119235904Y-102546083D01*
X119277600Y-102336463D01*
X119277600Y-102200000D01*
X120211928Y-102200000D01*
X120211928Y-103900000D01*
X120224188Y-104024482D01*
X120260498Y-104144180D01*
X120319463Y-104254494D01*
X120398815Y-104351185D01*
X120495506Y-104430537D01*
X120605820Y-104489502D01*
X120678380Y-104511513D01*
X120546525Y-104643368D01*
X120384010Y-104886589D01*
X120272068Y-105156842D01*
X120215000Y-105443740D01*
X120215000Y-105736260D01*
X120272068Y-106023158D01*
X120384010Y-106293411D01*
X120546525Y-106536632D01*
X120753368Y-106743475D01*
X120996589Y-106905990D01*
X121266842Y-107017932D01*
X121553740Y-107075000D01*
X121846260Y-107075000D01*
X122133158Y-107017932D01*
X122403411Y-106905990D01*
X122646632Y-106743475D01*
X122853475Y-106536632D01*
X123015990Y-106293411D01*
X123127932Y-106023158D01*
X123185000Y-105736260D01*
X123185000Y-105443740D01*
X123127932Y-105156842D01*
X123015990Y-104886589D01*
X122853475Y-104643368D01*
X122721620Y-104511513D01*
X122794180Y-104489502D01*
X122904494Y-104430537D01*
X123001185Y-104351185D01*
X123080537Y-104254494D01*
X123139502Y-104144180D01*
X123175812Y-104024482D01*
X123188072Y-103900000D01*
X123188072Y-102200000D01*
X123175812Y-102075518D01*
X123139502Y-101955820D01*
X123136572Y-101950337D01*
X128404200Y-101950337D01*
X128404200Y-102164063D01*
X128445896Y-102373683D01*
X128527685Y-102571140D01*
X128646425Y-102748847D01*
X128797553Y-102899975D01*
X128975260Y-103018715D01*
X129172717Y-103100504D01*
X129382337Y-103142200D01*
X129596063Y-103142200D01*
X129805683Y-103100504D01*
X130003140Y-103018715D01*
X130180847Y-102899975D01*
X130331975Y-102748847D01*
X130450715Y-102571140D01*
X130532504Y-102373683D01*
X130574200Y-102164063D01*
X130574200Y-101950337D01*
X130532504Y-101740717D01*
X130450715Y-101543260D01*
X130331975Y-101365553D01*
X130180847Y-101214425D01*
X130003140Y-101095685D01*
X129805683Y-101013896D01*
X129596063Y-100972200D01*
X129382337Y-100972200D01*
X129172717Y-101013896D01*
X128975260Y-101095685D01*
X128797553Y-101214425D01*
X128646425Y-101365553D01*
X128527685Y-101543260D01*
X128445896Y-101740717D01*
X128404200Y-101950337D01*
X123136572Y-101950337D01*
X123080537Y-101845506D01*
X123001185Y-101748815D01*
X122904494Y-101669463D01*
X122794180Y-101610498D01*
X122674482Y-101574188D01*
X122550000Y-101561928D01*
X120850000Y-101561928D01*
X120725518Y-101574188D01*
X120605820Y-101610498D01*
X120495506Y-101669463D01*
X120398815Y-101748815D01*
X120319463Y-101845506D01*
X120260498Y-101955820D01*
X120224188Y-102075518D01*
X120211928Y-102200000D01*
X119277600Y-102200000D01*
X119277600Y-102122737D01*
X119235904Y-101913117D01*
X119154115Y-101715660D01*
X119035375Y-101537953D01*
X118884247Y-101386825D01*
X118706540Y-101268085D01*
X118509083Y-101186296D01*
X118299463Y-101144600D01*
X118085737Y-101144600D01*
X117876117Y-101186296D01*
X117678660Y-101268085D01*
X117500953Y-101386825D01*
X117349825Y-101537953D01*
X117231085Y-101715660D01*
X117149296Y-101913117D01*
X117107600Y-102122737D01*
X105135000Y-102122737D01*
X105135000Y-102048061D01*
X105095226Y-101848102D01*
X105017205Y-101659744D01*
X104903937Y-101490226D01*
X104759774Y-101346063D01*
X104590256Y-101232795D01*
X104401898Y-101154774D01*
X104201939Y-101115000D01*
X103998061Y-101115000D01*
X103798102Y-101154774D01*
X103609744Y-101232795D01*
X103440226Y-101346063D01*
X103296063Y-101490226D01*
X103182795Y-101659744D01*
X103104774Y-101848102D01*
X103065000Y-102048061D01*
X103065000Y-102182193D01*
X102942836Y-102232795D01*
X102773318Y-102346063D01*
X102629155Y-102490226D01*
X102515887Y-102659744D01*
X102437866Y-102848102D01*
X102398092Y-103048061D01*
X87660000Y-103048061D01*
X87660000Y-102200000D01*
X91741928Y-102200000D01*
X91745000Y-102764250D01*
X91903750Y-102923000D01*
X93103000Y-102923000D01*
X93103000Y-101723750D01*
X93357000Y-101723750D01*
X93357000Y-102923000D01*
X94556250Y-102923000D01*
X94715000Y-102764250D01*
X94718072Y-102200000D01*
X94705812Y-102075518D01*
X94669502Y-101955820D01*
X94610537Y-101845506D01*
X94531185Y-101748815D01*
X94434494Y-101669463D01*
X94324180Y-101610498D01*
X94316147Y-101608061D01*
X98235000Y-101608061D01*
X98235000Y-101811939D01*
X98274774Y-102011898D01*
X98352795Y-102200256D01*
X98466063Y-102369774D01*
X98610226Y-102513937D01*
X98779744Y-102627205D01*
X98968102Y-102705226D01*
X99168061Y-102745000D01*
X99371939Y-102745000D01*
X99571898Y-102705226D01*
X99760256Y-102627205D01*
X99895000Y-102537172D01*
X100029744Y-102627205D01*
X100218102Y-102705226D01*
X100418061Y-102745000D01*
X100621939Y-102745000D01*
X100821898Y-102705226D01*
X101010256Y-102627205D01*
X101179774Y-102513937D01*
X101323937Y-102369774D01*
X101437205Y-102200256D01*
X101515226Y-102011898D01*
X101555000Y-101811939D01*
X101555000Y-101608061D01*
X101515226Y-101408102D01*
X101437205Y-101219744D01*
X101323937Y-101050226D01*
X101179774Y-100906063D01*
X101010256Y-100792795D01*
X100821898Y-100714774D01*
X100621939Y-100675000D01*
X100418061Y-100675000D01*
X100218102Y-100714774D01*
X100029744Y-100792795D01*
X99895000Y-100882828D01*
X99760256Y-100792795D01*
X99571898Y-100714774D01*
X99371939Y-100675000D01*
X99168061Y-100675000D01*
X98968102Y-100714774D01*
X98779744Y-100792795D01*
X98610226Y-100906063D01*
X98466063Y-101050226D01*
X98352795Y-101219744D01*
X98274774Y-101408102D01*
X98235000Y-101608061D01*
X94316147Y-101608061D01*
X94204482Y-101574188D01*
X94080000Y-101561928D01*
X93515750Y-101565000D01*
X93357000Y-101723750D01*
X93103000Y-101723750D01*
X92944250Y-101565000D01*
X92380000Y-101561928D01*
X92255518Y-101574188D01*
X92135820Y-101610498D01*
X92025506Y-101669463D01*
X91928815Y-101748815D01*
X91849463Y-101845506D01*
X91790498Y-101955820D01*
X91754188Y-102075518D01*
X91741928Y-102200000D01*
X87660000Y-102200000D01*
X87660000Y-99723137D01*
X109455000Y-99723137D01*
X109455000Y-99936863D01*
X109496696Y-100146483D01*
X109578485Y-100343940D01*
X109697225Y-100521647D01*
X109848353Y-100672775D01*
X110026060Y-100791515D01*
X110223517Y-100873304D01*
X110433137Y-100915000D01*
X110646863Y-100915000D01*
X110856483Y-100873304D01*
X111053940Y-100791515D01*
X111231647Y-100672775D01*
X111382775Y-100521647D01*
X111501515Y-100343940D01*
X111583304Y-100146483D01*
X111625000Y-99936863D01*
X111625000Y-99723137D01*
X111583304Y-99513517D01*
X111501515Y-99316060D01*
X111382775Y-99138353D01*
X111231647Y-98987225D01*
X111053940Y-98868485D01*
X110856483Y-98786696D01*
X110646863Y-98745000D01*
X110433137Y-98745000D01*
X110223517Y-98786696D01*
X110026060Y-98868485D01*
X109848353Y-98987225D01*
X109697225Y-99138353D01*
X109578485Y-99316060D01*
X109496696Y-99513517D01*
X109455000Y-99723137D01*
X87660000Y-99723137D01*
X87660000Y-97120000D01*
X91741928Y-97120000D01*
X91741928Y-98820000D01*
X91754188Y-98944482D01*
X91790498Y-99064180D01*
X91849463Y-99174494D01*
X91928815Y-99271185D01*
X92025506Y-99350537D01*
X92135820Y-99409502D01*
X92255518Y-99445812D01*
X92380000Y-99458072D01*
X94080000Y-99458072D01*
X94204482Y-99445812D01*
X94324180Y-99409502D01*
X94434494Y-99350537D01*
X94531185Y-99271185D01*
X94610537Y-99174494D01*
X94669502Y-99064180D01*
X94705812Y-98944482D01*
X94718072Y-98820000D01*
X94718072Y-97838061D01*
X96135000Y-97838061D01*
X96135000Y-98041939D01*
X96174774Y-98241898D01*
X96252795Y-98430256D01*
X96366063Y-98599774D01*
X96510226Y-98743937D01*
X96679744Y-98857205D01*
X96868102Y-98935226D01*
X97068061Y-98975000D01*
X97271939Y-98975000D01*
X97471898Y-98935226D01*
X97660256Y-98857205D01*
X97829774Y-98743937D01*
X97973937Y-98599774D01*
X98087205Y-98430256D01*
X98165226Y-98241898D01*
X98205000Y-98041939D01*
X98205000Y-97838061D01*
X98165226Y-97638102D01*
X98087205Y-97449744D01*
X98002610Y-97323137D01*
X109455000Y-97323137D01*
X109455000Y-97536863D01*
X109496696Y-97746483D01*
X109578485Y-97943940D01*
X109697225Y-98121647D01*
X109848353Y-98272775D01*
X110026060Y-98391515D01*
X110223517Y-98473304D01*
X110433137Y-98515000D01*
X110646863Y-98515000D01*
X110856483Y-98473304D01*
X111053940Y-98391515D01*
X111231647Y-98272775D01*
X111382775Y-98121647D01*
X111501515Y-97943940D01*
X111583304Y-97746483D01*
X111625000Y-97536863D01*
X111625000Y-97323137D01*
X111583304Y-97113517D01*
X111501515Y-96916060D01*
X111382775Y-96738353D01*
X111231647Y-96587225D01*
X111053940Y-96468485D01*
X110856483Y-96386696D01*
X110646863Y-96345000D01*
X110433137Y-96345000D01*
X110223517Y-96386696D01*
X110026060Y-96468485D01*
X109848353Y-96587225D01*
X109697225Y-96738353D01*
X109578485Y-96916060D01*
X109496696Y-97113517D01*
X109455000Y-97323137D01*
X98002610Y-97323137D01*
X97973937Y-97280226D01*
X97829774Y-97136063D01*
X97660256Y-97022795D01*
X97471898Y-96944774D01*
X97271939Y-96905000D01*
X97068061Y-96905000D01*
X96868102Y-96944774D01*
X96679744Y-97022795D01*
X96510226Y-97136063D01*
X96366063Y-97280226D01*
X96252795Y-97449744D01*
X96174774Y-97638102D01*
X96135000Y-97838061D01*
X94718072Y-97838061D01*
X94718072Y-97120000D01*
X94705812Y-96995518D01*
X94669502Y-96875820D01*
X94610537Y-96765506D01*
X94531185Y-96668815D01*
X94434494Y-96589463D01*
X94324180Y-96530498D01*
X94251620Y-96508487D01*
X94383475Y-96376632D01*
X94545990Y-96133411D01*
X94657932Y-95863158D01*
X94715000Y-95576260D01*
X94715000Y-95348061D01*
X96135000Y-95348061D01*
X96135000Y-95551939D01*
X96174774Y-95751898D01*
X96252795Y-95940256D01*
X96366063Y-96109774D01*
X96510226Y-96253937D01*
X96679744Y-96367205D01*
X96868102Y-96445226D01*
X97068061Y-96485000D01*
X97271939Y-96485000D01*
X97471898Y-96445226D01*
X97660256Y-96367205D01*
X97829774Y-96253937D01*
X97973937Y-96109774D01*
X98087205Y-95940256D01*
X98165226Y-95751898D01*
X98205000Y-95551939D01*
X98205000Y-95348061D01*
X98165226Y-95148102D01*
X98087205Y-94959744D01*
X97973937Y-94790226D01*
X97829774Y-94646063D01*
X97772676Y-94607911D01*
X125965000Y-94607911D01*
X125965000Y-94792089D01*
X126000932Y-94972729D01*
X126071414Y-95142889D01*
X126173738Y-95296028D01*
X126303972Y-95426262D01*
X126457111Y-95528586D01*
X126627271Y-95599068D01*
X126807911Y-95635000D01*
X126992089Y-95635000D01*
X127172729Y-95599068D01*
X127215858Y-95581204D01*
X127307271Y-95619068D01*
X127487911Y-95655000D01*
X127672089Y-95655000D01*
X127852729Y-95619068D01*
X128022889Y-95548586D01*
X128176028Y-95446262D01*
X128306262Y-95316028D01*
X128408586Y-95162889D01*
X128479068Y-94992729D01*
X128515000Y-94812089D01*
X128515000Y-94762137D01*
X129547200Y-94762137D01*
X129547200Y-94975863D01*
X129588896Y-95185483D01*
X129670685Y-95382940D01*
X129789425Y-95560647D01*
X129940553Y-95711775D01*
X130118260Y-95830515D01*
X130315717Y-95912304D01*
X130525337Y-95954000D01*
X130739063Y-95954000D01*
X130948683Y-95912304D01*
X131146140Y-95830515D01*
X131323847Y-95711775D01*
X131474975Y-95560647D01*
X131491658Y-95535680D01*
X131642353Y-95686375D01*
X131820060Y-95805115D01*
X132017517Y-95886904D01*
X132227137Y-95928600D01*
X132440863Y-95928600D01*
X132650483Y-95886904D01*
X132847940Y-95805115D01*
X133025647Y-95686375D01*
X133176775Y-95535247D01*
X133295515Y-95357540D01*
X133377304Y-95160083D01*
X133419000Y-94950463D01*
X133419000Y-94736737D01*
X133377304Y-94527117D01*
X133295515Y-94329660D01*
X133176775Y-94151953D01*
X133025647Y-94000825D01*
X132847940Y-93882085D01*
X132650483Y-93800296D01*
X132440863Y-93758600D01*
X132227137Y-93758600D01*
X132017517Y-93800296D01*
X131820060Y-93882085D01*
X131642353Y-94000825D01*
X131491225Y-94151953D01*
X131474542Y-94176920D01*
X131323847Y-94026225D01*
X131146140Y-93907485D01*
X130948683Y-93825696D01*
X130739063Y-93784000D01*
X130525337Y-93784000D01*
X130315717Y-93825696D01*
X130118260Y-93907485D01*
X129940553Y-94026225D01*
X129789425Y-94177353D01*
X129670685Y-94355060D01*
X129588896Y-94552517D01*
X129547200Y-94762137D01*
X128515000Y-94762137D01*
X128515000Y-94627911D01*
X128479068Y-94447271D01*
X128408586Y-94277111D01*
X128306262Y-94123972D01*
X128176028Y-93993738D01*
X128022889Y-93891414D01*
X127852729Y-93820932D01*
X127672089Y-93785000D01*
X127487911Y-93785000D01*
X127307271Y-93820932D01*
X127264142Y-93838796D01*
X127172729Y-93800932D01*
X126992089Y-93765000D01*
X126807911Y-93765000D01*
X126627271Y-93800932D01*
X126457111Y-93871414D01*
X126303972Y-93973738D01*
X126173738Y-94103972D01*
X126071414Y-94257111D01*
X126000932Y-94427271D01*
X125965000Y-94607911D01*
X97772676Y-94607911D01*
X97660256Y-94532795D01*
X97471898Y-94454774D01*
X97271939Y-94415000D01*
X97068061Y-94415000D01*
X96868102Y-94454774D01*
X96679744Y-94532795D01*
X96510226Y-94646063D01*
X96366063Y-94790226D01*
X96252795Y-94959744D01*
X96174774Y-95148102D01*
X96135000Y-95348061D01*
X94715000Y-95348061D01*
X94715000Y-95283740D01*
X94657932Y-94996842D01*
X94545990Y-94726589D01*
X94383475Y-94483368D01*
X94176632Y-94276525D01*
X93933411Y-94114010D01*
X93663158Y-94002068D01*
X93376260Y-93945000D01*
X93083740Y-93945000D01*
X92796842Y-94002068D01*
X92526589Y-94114010D01*
X92283368Y-94276525D01*
X92076525Y-94483368D01*
X91914010Y-94726589D01*
X91802068Y-94996842D01*
X91745000Y-95283740D01*
X91745000Y-95576260D01*
X91802068Y-95863158D01*
X91914010Y-96133411D01*
X92076525Y-96376632D01*
X92208380Y-96508487D01*
X92135820Y-96530498D01*
X92025506Y-96589463D01*
X91928815Y-96668815D01*
X91849463Y-96765506D01*
X91790498Y-96875820D01*
X91754188Y-96995518D01*
X91741928Y-97120000D01*
X87660000Y-97120000D01*
X87660000Y-89729392D01*
X87698970Y-89292738D01*
X87865000Y-89292738D01*
X87865000Y-90107262D01*
X88023906Y-90906135D01*
X88335611Y-91658657D01*
X88788136Y-92335909D01*
X89364091Y-92911864D01*
X90041343Y-93364389D01*
X90793865Y-93676094D01*
X91592738Y-93835000D01*
X92407262Y-93835000D01*
X93206135Y-93676094D01*
X93958657Y-93364389D01*
X94635909Y-92911864D01*
X95211864Y-92335909D01*
X95664389Y-91658657D01*
X95976094Y-90906135D01*
X96135000Y-90107262D01*
X96135000Y-89533740D01*
X97345000Y-89533740D01*
X97345000Y-89826260D01*
X97402068Y-90113158D01*
X97514010Y-90383411D01*
X97676525Y-90626632D01*
X97883368Y-90833475D01*
X98126589Y-90995990D01*
X98396842Y-91107932D01*
X98683740Y-91165000D01*
X98976260Y-91165000D01*
X99263158Y-91107932D01*
X99533411Y-90995990D01*
X99776632Y-90833475D01*
X99983475Y-90626632D01*
X100100000Y-90452240D01*
X100216525Y-90626632D01*
X100423368Y-90833475D01*
X100666589Y-90995990D01*
X100936842Y-91107932D01*
X101223740Y-91165000D01*
X101516260Y-91165000D01*
X101803158Y-91107932D01*
X102073411Y-90995990D01*
X102316632Y-90833475D01*
X102523475Y-90626632D01*
X102640000Y-90452240D01*
X102756525Y-90626632D01*
X102963368Y-90833475D01*
X103206589Y-90995990D01*
X103476842Y-91107932D01*
X103763740Y-91165000D01*
X104056260Y-91165000D01*
X104343158Y-91107932D01*
X104613411Y-90995990D01*
X104856632Y-90833475D01*
X105063475Y-90626632D01*
X105180000Y-90452240D01*
X105296525Y-90626632D01*
X105503368Y-90833475D01*
X105746589Y-90995990D01*
X106016842Y-91107932D01*
X106303740Y-91165000D01*
X106596260Y-91165000D01*
X106883158Y-91107932D01*
X107153411Y-90995990D01*
X107396632Y-90833475D01*
X107603475Y-90626632D01*
X107720000Y-90452240D01*
X107836525Y-90626632D01*
X108043368Y-90833475D01*
X108286589Y-90995990D01*
X108556842Y-91107932D01*
X108843740Y-91165000D01*
X109136260Y-91165000D01*
X109423158Y-91107932D01*
X109693411Y-90995990D01*
X109936632Y-90833475D01*
X110143475Y-90626632D01*
X110260000Y-90452240D01*
X110376525Y-90626632D01*
X110583368Y-90833475D01*
X110826589Y-90995990D01*
X111096842Y-91107932D01*
X111383740Y-91165000D01*
X111676260Y-91165000D01*
X111963158Y-91107932D01*
X112233411Y-90995990D01*
X112476632Y-90833475D01*
X112683475Y-90626632D01*
X112800000Y-90452240D01*
X112916525Y-90626632D01*
X113123368Y-90833475D01*
X113366589Y-90995990D01*
X113636842Y-91107932D01*
X113923740Y-91165000D01*
X114216260Y-91165000D01*
X114503158Y-91107932D01*
X114773411Y-90995990D01*
X115016632Y-90833475D01*
X115223475Y-90626632D01*
X115340000Y-90452240D01*
X115456525Y-90626632D01*
X115663368Y-90833475D01*
X115906589Y-90995990D01*
X116176842Y-91107932D01*
X116463740Y-91165000D01*
X116756260Y-91165000D01*
X117043158Y-91107932D01*
X117313411Y-90995990D01*
X117556632Y-90833475D01*
X117763475Y-90626632D01*
X117880000Y-90452240D01*
X117996525Y-90626632D01*
X118203368Y-90833475D01*
X118446589Y-90995990D01*
X118716842Y-91107932D01*
X119003740Y-91165000D01*
X119296260Y-91165000D01*
X119583158Y-91107932D01*
X119853411Y-90995990D01*
X120096632Y-90833475D01*
X120228487Y-90701620D01*
X120250498Y-90774180D01*
X120309463Y-90884494D01*
X120388815Y-90981185D01*
X120485506Y-91060537D01*
X120595820Y-91119502D01*
X120715518Y-91155812D01*
X120840000Y-91168072D01*
X122540000Y-91168072D01*
X122664482Y-91155812D01*
X122784180Y-91119502D01*
X122894494Y-91060537D01*
X122991185Y-90981185D01*
X123070537Y-90884494D01*
X123129502Y-90774180D01*
X123165812Y-90654482D01*
X123178072Y-90530000D01*
X123178072Y-88830000D01*
X123165812Y-88705518D01*
X123129502Y-88585820D01*
X123070537Y-88475506D01*
X122991185Y-88378815D01*
X122894494Y-88299463D01*
X122784180Y-88240498D01*
X122664482Y-88204188D01*
X122540000Y-88191928D01*
X120840000Y-88191928D01*
X120715518Y-88204188D01*
X120595820Y-88240498D01*
X120485506Y-88299463D01*
X120388815Y-88378815D01*
X120309463Y-88475506D01*
X120250498Y-88585820D01*
X120228487Y-88658380D01*
X120096632Y-88526525D01*
X119853411Y-88364010D01*
X119583158Y-88252068D01*
X119296260Y-88195000D01*
X119003740Y-88195000D01*
X118716842Y-88252068D01*
X118446589Y-88364010D01*
X118203368Y-88526525D01*
X117996525Y-88733368D01*
X117880000Y-88907760D01*
X117763475Y-88733368D01*
X117556632Y-88526525D01*
X117313411Y-88364010D01*
X117043158Y-88252068D01*
X116756260Y-88195000D01*
X116463740Y-88195000D01*
X116176842Y-88252068D01*
X115906589Y-88364010D01*
X115663368Y-88526525D01*
X115456525Y-88733368D01*
X115340000Y-88907760D01*
X115223475Y-88733368D01*
X115016632Y-88526525D01*
X114773411Y-88364010D01*
X114503158Y-88252068D01*
X114216260Y-88195000D01*
X113923740Y-88195000D01*
X113636842Y-88252068D01*
X113366589Y-88364010D01*
X113123368Y-88526525D01*
X112916525Y-88733368D01*
X112800000Y-88907760D01*
X112683475Y-88733368D01*
X112476632Y-88526525D01*
X112233411Y-88364010D01*
X111963158Y-88252068D01*
X111676260Y-88195000D01*
X111383740Y-88195000D01*
X111096842Y-88252068D01*
X110826589Y-88364010D01*
X110583368Y-88526525D01*
X110376525Y-88733368D01*
X110260000Y-88907760D01*
X110143475Y-88733368D01*
X109936632Y-88526525D01*
X109693411Y-88364010D01*
X109423158Y-88252068D01*
X109136260Y-88195000D01*
X108843740Y-88195000D01*
X108556842Y-88252068D01*
X108286589Y-88364010D01*
X108043368Y-88526525D01*
X107836525Y-88733368D01*
X107720000Y-88907760D01*
X107603475Y-88733368D01*
X107396632Y-88526525D01*
X107153411Y-88364010D01*
X106883158Y-88252068D01*
X106596260Y-88195000D01*
X106303740Y-88195000D01*
X106016842Y-88252068D01*
X105746589Y-88364010D01*
X105503368Y-88526525D01*
X105296525Y-88733368D01*
X105180000Y-88907760D01*
X105063475Y-88733368D01*
X104856632Y-88526525D01*
X104613411Y-88364010D01*
X104343158Y-88252068D01*
X104056260Y-88195000D01*
X103763740Y-88195000D01*
X103476842Y-88252068D01*
X103206589Y-88364010D01*
X102963368Y-88526525D01*
X102756525Y-88733368D01*
X102640000Y-88907760D01*
X102523475Y-88733368D01*
X102316632Y-88526525D01*
X102073411Y-88364010D01*
X101803158Y-88252068D01*
X101516260Y-88195000D01*
X101223740Y-88195000D01*
X100936842Y-88252068D01*
X100666589Y-88364010D01*
X100423368Y-88526525D01*
X100216525Y-88733368D01*
X100100000Y-88907760D01*
X99983475Y-88733368D01*
X99776632Y-88526525D01*
X99533411Y-88364010D01*
X99263158Y-88252068D01*
X98976260Y-88195000D01*
X98683740Y-88195000D01*
X98396842Y-88252068D01*
X98126589Y-88364010D01*
X97883368Y-88526525D01*
X97676525Y-88733368D01*
X97514010Y-88976589D01*
X97402068Y-89246842D01*
X97345000Y-89533740D01*
X96135000Y-89533740D01*
X96135000Y-89292738D01*
X95976094Y-88493865D01*
X95664389Y-87741343D01*
X95211864Y-87064091D01*
X94635909Y-86488136D01*
X93958657Y-86035611D01*
X93206135Y-85723906D01*
X92407262Y-85565000D01*
X91592738Y-85565000D01*
X90793865Y-85723906D01*
X90041343Y-86035611D01*
X89364091Y-86488136D01*
X88788136Y-87064091D01*
X88335611Y-87741343D01*
X88023906Y-88493865D01*
X87865000Y-89292738D01*
X87698970Y-89292738D01*
X87731173Y-88931917D01*
X87934656Y-88188109D01*
X88266638Y-87492095D01*
X88716626Y-86865870D01*
X89270403Y-86329223D01*
X89910451Y-85899129D01*
X90616553Y-85589171D01*
X91371457Y-85407935D01*
X92024207Y-85360000D01*
X133783000Y-85360000D01*
X133783000Y-87315000D01*
G37*
X133783000Y-87315000D02*
X133693137Y-87315000D01*
X133483517Y-87356696D01*
X133286060Y-87438485D01*
X133108353Y-87557225D01*
X132957225Y-87708353D01*
X132838485Y-87886060D01*
X132809853Y-87955185D01*
X132731515Y-87766060D01*
X132612775Y-87588353D01*
X132461647Y-87437225D01*
X132283940Y-87318485D01*
X132086483Y-87236696D01*
X131876863Y-87195000D01*
X131663137Y-87195000D01*
X131453517Y-87236696D01*
X131256060Y-87318485D01*
X131078353Y-87437225D01*
X130927225Y-87588353D01*
X130808485Y-87766060D01*
X130760000Y-87883114D01*
X130711515Y-87766060D01*
X130592775Y-87588353D01*
X130441647Y-87437225D01*
X130263940Y-87318485D01*
X130066483Y-87236696D01*
X129856863Y-87195000D01*
X129643137Y-87195000D01*
X129433517Y-87236696D01*
X129236060Y-87318485D01*
X129058353Y-87437225D01*
X128907225Y-87588353D01*
X128788485Y-87766060D01*
X128779142Y-87788616D01*
X128761515Y-87746060D01*
X128642775Y-87568353D01*
X128491647Y-87417225D01*
X128313940Y-87298485D01*
X128116483Y-87216696D01*
X127906863Y-87175000D01*
X127693137Y-87175000D01*
X127483517Y-87216696D01*
X127286060Y-87298485D01*
X127119879Y-87409524D01*
X127016483Y-87366696D01*
X126806863Y-87325000D01*
X126593137Y-87325000D01*
X126383517Y-87366696D01*
X126186060Y-87448485D01*
X126008353Y-87567225D01*
X125857225Y-87718353D01*
X125754043Y-87872776D01*
X125583517Y-87906696D01*
X125386060Y-87988485D01*
X125208353Y-88107225D01*
X125057225Y-88258353D01*
X124938485Y-88436060D01*
X124856696Y-88633517D01*
X124815000Y-88843137D01*
X124815000Y-89056863D01*
X124856696Y-89266483D01*
X124938485Y-89463940D01*
X125057225Y-89641647D01*
X125208353Y-89792775D01*
X125386060Y-89911515D01*
X125583517Y-89993304D01*
X125793137Y-90035000D01*
X126006863Y-90035000D01*
X126216483Y-89993304D01*
X126413940Y-89911515D01*
X126591647Y-89792775D01*
X126742775Y-89641647D01*
X126845957Y-89487224D01*
X127016483Y-89453304D01*
X127213940Y-89371515D01*
X127380121Y-89260476D01*
X127483517Y-89303304D01*
X127693137Y-89345000D01*
X127906863Y-89345000D01*
X128116483Y-89303304D01*
X128313940Y-89221515D01*
X128491647Y-89102775D01*
X128642775Y-88951647D01*
X128761515Y-88773940D01*
X128770858Y-88751384D01*
X128788485Y-88793940D01*
X128907225Y-88971647D01*
X129058353Y-89122775D01*
X129236060Y-89241515D01*
X129433517Y-89323304D01*
X129643137Y-89365000D01*
X129856863Y-89365000D01*
X130066483Y-89323304D01*
X130263940Y-89241515D01*
X130441647Y-89122775D01*
X130592775Y-88971647D01*
X130711515Y-88793940D01*
X130760000Y-88676886D01*
X130808485Y-88793940D01*
X130927225Y-88971647D01*
X131078353Y-89122775D01*
X131256060Y-89241515D01*
X131453517Y-89323304D01*
X131663137Y-89365000D01*
X131876863Y-89365000D01*
X132086483Y-89323304D01*
X132283940Y-89241515D01*
X132461647Y-89122775D01*
X132612775Y-88971647D01*
X132731515Y-88793940D01*
X132760147Y-88724815D01*
X132838485Y-88913940D01*
X132957225Y-89091647D01*
X133105526Y-89239948D01*
X133085000Y-89343137D01*
X133085000Y-89556863D01*
X133126696Y-89766483D01*
X133208485Y-89963940D01*
X133327225Y-90141647D01*
X133478353Y-90292775D01*
X133656060Y-90411515D01*
X133783000Y-90464095D01*
X133783000Y-108862122D01*
X133768574Y-108856147D01*
X133491335Y-108801000D01*
X133208665Y-108801000D01*
X132931426Y-108856147D01*
X132670273Y-108964320D01*
X132435241Y-109121363D01*
X132235363Y-109321241D01*
X132078320Y-109556273D01*
X131970147Y-109817426D01*
X131915000Y-110094665D01*
X131915000Y-110377335D01*
X131970147Y-110654574D01*
X132078320Y-110915727D01*
X132235363Y-111150759D01*
X132435241Y-111350637D01*
X132670273Y-111507680D01*
X132931426Y-111615853D01*
X133208665Y-111671000D01*
X133491335Y-111671000D01*
X133768574Y-111615853D01*
X133783000Y-111609878D01*
X133783000Y-113668975D01*
X133777111Y-113671414D01*
X133623972Y-113773738D01*
X133493738Y-113903972D01*
X133391414Y-114057111D01*
X133320932Y-114227271D01*
X133285000Y-114407911D01*
X133285000Y-114592089D01*
X133320932Y-114772729D01*
X133391414Y-114942889D01*
X133493738Y-115096028D01*
X133623972Y-115226262D01*
X133777111Y-115328586D01*
X133783000Y-115331025D01*
X133783000Y-121448367D01*
X133592317Y-121486296D01*
X133469561Y-121537143D01*
X133285483Y-121460896D01*
X133075863Y-121419200D01*
X132862137Y-121419200D01*
X132652517Y-121460896D01*
X132511800Y-121519183D01*
X132371083Y-121460896D01*
X132161463Y-121419200D01*
X131947737Y-121419200D01*
X131738117Y-121460896D01*
X131540660Y-121542685D01*
X131362953Y-121661425D01*
X131211825Y-121812553D01*
X131093085Y-121990260D01*
X131011296Y-122187717D01*
X130969600Y-122397337D01*
X130969600Y-122611063D01*
X131011296Y-122820683D01*
X131093085Y-123018140D01*
X131211825Y-123195847D01*
X131362953Y-123346975D01*
X131540660Y-123465715D01*
X131738117Y-123547504D01*
X131947737Y-123589200D01*
X132161463Y-123589200D01*
X132371083Y-123547504D01*
X132511800Y-123489217D01*
X132652517Y-123547504D01*
X132862137Y-123589200D01*
X133075863Y-123589200D01*
X133285483Y-123547504D01*
X133408239Y-123496657D01*
X133592317Y-123572904D01*
X133783000Y-123610833D01*
X133783000Y-129040000D01*
X92029392Y-129040000D01*
X91231917Y-128968827D01*
X90488110Y-128765344D01*
X89792096Y-128433363D01*
X89165870Y-127983374D01*
X88629223Y-127429597D01*
X88199129Y-126789549D01*
X87889171Y-126083447D01*
X87707935Y-125328543D01*
X87660000Y-124675793D01*
X87660000Y-124292738D01*
X87865000Y-124292738D01*
X87865000Y-125107262D01*
X88023906Y-125906135D01*
X88335611Y-126658657D01*
X88788136Y-127335909D01*
X89364091Y-127911864D01*
X90041343Y-128364389D01*
X90793865Y-128676094D01*
X91592738Y-128835000D01*
X92407262Y-128835000D01*
X93206135Y-128676094D01*
X93958657Y-128364389D01*
X94635909Y-127911864D01*
X95211864Y-127335909D01*
X95664389Y-126658657D01*
X95773519Y-126395192D01*
X119154414Y-126395192D01*
X119346502Y-126741469D01*
X119772346Y-126962203D01*
X120233071Y-127095618D01*
X120710971Y-127136585D01*
X121187681Y-127083532D01*
X121644881Y-126938498D01*
X122013498Y-126741469D01*
X122205586Y-126395192D01*
X120680000Y-124869605D01*
X119154414Y-126395192D01*
X95773519Y-126395192D01*
X95976094Y-125906135D01*
X96135000Y-125107262D01*
X96135000Y-124720971D01*
X118233415Y-124720971D01*
X118286468Y-125197681D01*
X118431502Y-125654881D01*
X118628531Y-126023498D01*
X118974808Y-126215586D01*
X120500395Y-124690000D01*
X120859605Y-124690000D01*
X122385192Y-126215586D01*
X122731469Y-126023498D01*
X122952203Y-125597654D01*
X123085618Y-125136929D01*
X123126585Y-124659029D01*
X123073532Y-124182319D01*
X122928498Y-123725119D01*
X122731469Y-123356502D01*
X122385192Y-123164414D01*
X120859605Y-124690000D01*
X120500395Y-124690000D01*
X118974808Y-123164414D01*
X118628531Y-123356502D01*
X118407797Y-123782346D01*
X118274382Y-124243071D01*
X118233415Y-124720971D01*
X96135000Y-124720971D01*
X96135000Y-124292738D01*
X95976094Y-123493865D01*
X95664389Y-122741343D01*
X95441968Y-122408465D01*
X112890400Y-122408465D01*
X112890400Y-122691135D01*
X112945547Y-122968374D01*
X113053720Y-123229527D01*
X113210763Y-123464559D01*
X113410641Y-123664437D01*
X113645673Y-123821480D01*
X113906826Y-123929653D01*
X114184065Y-123984800D01*
X114466735Y-123984800D01*
X114743974Y-123929653D01*
X115005127Y-123821480D01*
X115240159Y-123664437D01*
X115440037Y-123464559D01*
X115597080Y-123229527D01*
X115698445Y-122984808D01*
X119154414Y-122984808D01*
X120680000Y-124510395D01*
X122205586Y-122984808D01*
X122013498Y-122638531D01*
X121587654Y-122417797D01*
X121126929Y-122284382D01*
X120649029Y-122243415D01*
X120172319Y-122296468D01*
X119715119Y-122441502D01*
X119346502Y-122638531D01*
X119154414Y-122984808D01*
X115698445Y-122984808D01*
X115705253Y-122968374D01*
X115760400Y-122691135D01*
X115760400Y-122408465D01*
X115705253Y-122131226D01*
X115597080Y-121870073D01*
X115440037Y-121635041D01*
X115240159Y-121435163D01*
X115005127Y-121278120D01*
X114743974Y-121169947D01*
X114466735Y-121114800D01*
X114184065Y-121114800D01*
X113906826Y-121169947D01*
X113645673Y-121278120D01*
X113410641Y-121435163D01*
X113210763Y-121635041D01*
X113053720Y-121870073D01*
X112945547Y-122131226D01*
X112890400Y-122408465D01*
X95441968Y-122408465D01*
X95211864Y-122064091D01*
X94635909Y-121488136D01*
X93958657Y-121035611D01*
X93206135Y-120723906D01*
X92407262Y-120565000D01*
X91592738Y-120565000D01*
X90793865Y-120723906D01*
X90041343Y-121035611D01*
X89364091Y-121488136D01*
X88788136Y-122064091D01*
X88335611Y-122741343D01*
X88023906Y-123493865D01*
X87865000Y-124292738D01*
X87660000Y-124292738D01*
X87660000Y-119849800D01*
X112887328Y-119849800D01*
X112899588Y-119974282D01*
X112935898Y-120093980D01*
X112994863Y-120204294D01*
X113074215Y-120300985D01*
X113170906Y-120380337D01*
X113281220Y-120439302D01*
X113400918Y-120475612D01*
X113525400Y-120487872D01*
X114039650Y-120484800D01*
X114198400Y-120326050D01*
X114198400Y-119176800D01*
X114452400Y-119176800D01*
X114452400Y-120326050D01*
X114611150Y-120484800D01*
X115125400Y-120487872D01*
X115249882Y-120475612D01*
X115369580Y-120439302D01*
X115479894Y-120380337D01*
X115576585Y-120300985D01*
X115655937Y-120204294D01*
X115714902Y-120093980D01*
X115751212Y-119974282D01*
X115763261Y-119851937D01*
X125684800Y-119851937D01*
X125684800Y-120065663D01*
X125726496Y-120275283D01*
X125808285Y-120472740D01*
X125927025Y-120650447D01*
X126078153Y-120801575D01*
X126255860Y-120920315D01*
X126453317Y-121002104D01*
X126662937Y-121043800D01*
X126876663Y-121043800D01*
X127086283Y-121002104D01*
X127283740Y-120920315D01*
X127461447Y-120801575D01*
X127612575Y-120650447D01*
X127731315Y-120472740D01*
X127813104Y-120275283D01*
X127850532Y-120087118D01*
X127975283Y-120062304D01*
X128172740Y-119980515D01*
X128350447Y-119861775D01*
X128501575Y-119710647D01*
X128610311Y-119547911D01*
X128745000Y-119547911D01*
X128745000Y-119732089D01*
X128780932Y-119912729D01*
X128851414Y-120082889D01*
X128953738Y-120236028D01*
X129083972Y-120366262D01*
X129237111Y-120468586D01*
X129407271Y-120539068D01*
X129587911Y-120575000D01*
X129772089Y-120575000D01*
X129952729Y-120539068D01*
X130122889Y-120468586D01*
X130276028Y-120366262D01*
X130406262Y-120236028D01*
X130508586Y-120082889D01*
X130579068Y-119912729D01*
X130615000Y-119732089D01*
X130615000Y-119547911D01*
X130579068Y-119367271D01*
X130508586Y-119197111D01*
X130406262Y-119043972D01*
X130276028Y-118913738D01*
X130122889Y-118811414D01*
X129952729Y-118740932D01*
X129772089Y-118705000D01*
X129587911Y-118705000D01*
X129407271Y-118740932D01*
X129237111Y-118811414D01*
X129083972Y-118913738D01*
X128953738Y-119043972D01*
X128851414Y-119197111D01*
X128780932Y-119367271D01*
X128745000Y-119547911D01*
X128610311Y-119547911D01*
X128620315Y-119532940D01*
X128702104Y-119335483D01*
X128743800Y-119125863D01*
X128743800Y-118912137D01*
X128702104Y-118702517D01*
X128620315Y-118505060D01*
X128501575Y-118327353D01*
X128350447Y-118176225D01*
X128172740Y-118057485D01*
X127975283Y-117975696D01*
X127765663Y-117934000D01*
X127551937Y-117934000D01*
X127342317Y-117975696D01*
X127144860Y-118057485D01*
X126967153Y-118176225D01*
X126816025Y-118327353D01*
X126697285Y-118505060D01*
X126615496Y-118702517D01*
X126578068Y-118890682D01*
X126453317Y-118915496D01*
X126255860Y-118997285D01*
X126078153Y-119116025D01*
X125927025Y-119267153D01*
X125808285Y-119444860D01*
X125726496Y-119642317D01*
X125684800Y-119851937D01*
X115763261Y-119851937D01*
X115763472Y-119849800D01*
X115760400Y-119335550D01*
X115601650Y-119176800D01*
X114452400Y-119176800D01*
X114198400Y-119176800D01*
X113049150Y-119176800D01*
X112890400Y-119335550D01*
X112887328Y-119849800D01*
X87660000Y-119849800D01*
X87660000Y-118249800D01*
X112887328Y-118249800D01*
X112890400Y-118764050D01*
X113049150Y-118922800D01*
X114198400Y-118922800D01*
X114198400Y-117773550D01*
X114452400Y-117773550D01*
X114452400Y-118922800D01*
X115601650Y-118922800D01*
X115760400Y-118764050D01*
X115763472Y-118249800D01*
X115751212Y-118125318D01*
X115714902Y-118005620D01*
X115655937Y-117895306D01*
X115576585Y-117798615D01*
X115479894Y-117719263D01*
X115369580Y-117660298D01*
X115249882Y-117623988D01*
X115125400Y-117611728D01*
X114611150Y-117614800D01*
X114452400Y-117773550D01*
X114198400Y-117773550D01*
X114039650Y-117614800D01*
X113525400Y-117611728D01*
X113400918Y-117623988D01*
X113281220Y-117660298D01*
X113170906Y-117719263D01*
X113074215Y-117798615D01*
X112994863Y-117895306D01*
X112935898Y-118005620D01*
X112899588Y-118125318D01*
X112887328Y-118249800D01*
X87660000Y-118249800D01*
X87660000Y-103900000D01*
X91741928Y-103900000D01*
X91754188Y-104024482D01*
X91790498Y-104144180D01*
X91849463Y-104254494D01*
X91928815Y-104351185D01*
X92025506Y-104430537D01*
X92135820Y-104489502D01*
X92208380Y-104511513D01*
X92076525Y-104643368D01*
X91914010Y-104886589D01*
X91802068Y-105156842D01*
X91745000Y-105443740D01*
X91745000Y-105736260D01*
X91802068Y-106023158D01*
X91914010Y-106293411D01*
X92076525Y-106536632D01*
X92283368Y-106743475D01*
X92457760Y-106860000D01*
X92283368Y-106976525D01*
X92076525Y-107183368D01*
X91914010Y-107426589D01*
X91802068Y-107696842D01*
X91745000Y-107983740D01*
X91745000Y-108276260D01*
X91802068Y-108563158D01*
X91914010Y-108833411D01*
X92076525Y-109076632D01*
X92283368Y-109283475D01*
X92457760Y-109400000D01*
X92283368Y-109516525D01*
X92076525Y-109723368D01*
X91914010Y-109966589D01*
X91802068Y-110236842D01*
X91745000Y-110523740D01*
X91745000Y-110816260D01*
X91802068Y-111103158D01*
X91914010Y-111373411D01*
X92076525Y-111616632D01*
X92283368Y-111823475D01*
X92526589Y-111985990D01*
X92796842Y-112097932D01*
X93083740Y-112155000D01*
X93376260Y-112155000D01*
X93663158Y-112097932D01*
X93933411Y-111985990D01*
X94176632Y-111823475D01*
X94383475Y-111616632D01*
X94545990Y-111373411D01*
X94657932Y-111103158D01*
X94704310Y-110870000D01*
X95873000Y-110870000D01*
X95873000Y-114920000D01*
X95875440Y-114944776D01*
X95882667Y-114968601D01*
X95894403Y-114990557D01*
X95910197Y-115009803D01*
X95929443Y-115025597D01*
X95951399Y-115037333D01*
X95975224Y-115044560D01*
X96000000Y-115047000D01*
X99250231Y-115047000D01*
X99239496Y-115072917D01*
X99197800Y-115282537D01*
X99197800Y-115496263D01*
X99239496Y-115705883D01*
X99321285Y-115903340D01*
X99440025Y-116081047D01*
X99591153Y-116232175D01*
X99768860Y-116350915D01*
X99966317Y-116432704D01*
X100175937Y-116474400D01*
X100389663Y-116474400D01*
X100599283Y-116432704D01*
X100783361Y-116356457D01*
X100906117Y-116407304D01*
X101115737Y-116449000D01*
X101329463Y-116449000D01*
X101539083Y-116407304D01*
X101736540Y-116325515D01*
X101914247Y-116206775D01*
X102065375Y-116055647D01*
X102184115Y-115877940D01*
X102265904Y-115680483D01*
X102288927Y-115564737D01*
X131045800Y-115564737D01*
X131045800Y-115778463D01*
X131087496Y-115988083D01*
X131169285Y-116185540D01*
X131288025Y-116363247D01*
X131439153Y-116514375D01*
X131616860Y-116633115D01*
X131814317Y-116714904D01*
X132023937Y-116756600D01*
X132237663Y-116756600D01*
X132447283Y-116714904D01*
X132644740Y-116633115D01*
X132822447Y-116514375D01*
X132973575Y-116363247D01*
X133092315Y-116185540D01*
X133174104Y-115988083D01*
X133215800Y-115778463D01*
X133215800Y-115564737D01*
X133174104Y-115355117D01*
X133092315Y-115157660D01*
X132973575Y-114979953D01*
X132822447Y-114828825D01*
X132644740Y-114710085D01*
X132447283Y-114628296D01*
X132237663Y-114586600D01*
X132023937Y-114586600D01*
X131814317Y-114628296D01*
X131616860Y-114710085D01*
X131439153Y-114828825D01*
X131288025Y-114979953D01*
X131169285Y-115157660D01*
X131087496Y-115355117D01*
X131045800Y-115564737D01*
X102288927Y-115564737D01*
X102307600Y-115470863D01*
X102307600Y-115257137D01*
X102265904Y-115047517D01*
X102265690Y-115047000D01*
X102300000Y-115047000D01*
X102324776Y-115044560D01*
X102348601Y-115037333D01*
X102370557Y-115025597D01*
X102389803Y-115009803D01*
X102405597Y-114990557D01*
X102417333Y-114968601D01*
X102424560Y-114944776D01*
X102427000Y-114920000D01*
X102427000Y-114160711D01*
X102430226Y-114163937D01*
X102599744Y-114277205D01*
X102788102Y-114355226D01*
X102988061Y-114395000D01*
X103191939Y-114395000D01*
X103391898Y-114355226D01*
X103580256Y-114277205D01*
X103749774Y-114163937D01*
X103893937Y-114019774D01*
X104007205Y-113850256D01*
X104085226Y-113661898D01*
X104125000Y-113461939D01*
X104125000Y-113258061D01*
X104085226Y-113058102D01*
X104007205Y-112869744D01*
X103893937Y-112700226D01*
X103749774Y-112556063D01*
X103580256Y-112442795D01*
X103391898Y-112364774D01*
X103191939Y-112325000D01*
X102988061Y-112325000D01*
X102788102Y-112364774D01*
X102599744Y-112442795D01*
X102430226Y-112556063D01*
X102427000Y-112559289D01*
X102427000Y-110870000D01*
X102424560Y-110845224D01*
X102417333Y-110821399D01*
X102405597Y-110799443D01*
X102389803Y-110780197D01*
X102370557Y-110764403D01*
X102348601Y-110752667D01*
X102324776Y-110745440D01*
X102300000Y-110743000D01*
X99236877Y-110743000D01*
X99243304Y-110727483D01*
X99285000Y-110517863D01*
X99285000Y-110304137D01*
X99243304Y-110094517D01*
X99161515Y-109897060D01*
X99042775Y-109719353D01*
X98891647Y-109568225D01*
X98713940Y-109449485D01*
X98577720Y-109393061D01*
X105315000Y-109393061D01*
X105315000Y-109596939D01*
X105354774Y-109796898D01*
X105432795Y-109985256D01*
X105546063Y-110154774D01*
X105690226Y-110298937D01*
X105859744Y-110412205D01*
X106048102Y-110490226D01*
X106084068Y-110497380D01*
X106054774Y-110568102D01*
X106015000Y-110768061D01*
X106015000Y-110971939D01*
X106054774Y-111171898D01*
X106105765Y-111295000D01*
X106054774Y-111418102D01*
X106015000Y-111618061D01*
X106015000Y-111821939D01*
X106054774Y-112021898D01*
X106093265Y-112114823D01*
X106029774Y-112268102D01*
X105990000Y-112468061D01*
X105990000Y-112671939D01*
X106029774Y-112871898D01*
X106107795Y-113060256D01*
X106221063Y-113229774D01*
X106365226Y-113373937D01*
X106534744Y-113487205D01*
X106723102Y-113565226D01*
X106923061Y-113605000D01*
X107126939Y-113605000D01*
X107326898Y-113565226D01*
X107515256Y-113487205D01*
X107684774Y-113373937D01*
X107828937Y-113229774D01*
X107942205Y-113060256D01*
X108020226Y-112871898D01*
X108060000Y-112671939D01*
X108060000Y-112468061D01*
X108020226Y-112268102D01*
X107981735Y-112175177D01*
X108045226Y-112021898D01*
X108085000Y-111821939D01*
X108085000Y-111618061D01*
X108045226Y-111418102D01*
X107994235Y-111295000D01*
X108045226Y-111171898D01*
X108085000Y-110971939D01*
X108085000Y-110768061D01*
X108045226Y-110568102D01*
X107994235Y-110445000D01*
X108040901Y-110332337D01*
X126499200Y-110332337D01*
X126499200Y-110546063D01*
X126540896Y-110755683D01*
X126622685Y-110953140D01*
X126741425Y-111130847D01*
X126892553Y-111281975D01*
X127070260Y-111400715D01*
X127267717Y-111482504D01*
X127477337Y-111524200D01*
X127691063Y-111524200D01*
X127900683Y-111482504D01*
X128098140Y-111400715D01*
X128275847Y-111281975D01*
X128426975Y-111130847D01*
X128545715Y-110953140D01*
X128610390Y-110797001D01*
X128611883Y-110796704D01*
X128778000Y-110727896D01*
X128944117Y-110796704D01*
X129153737Y-110838400D01*
X129367463Y-110838400D01*
X129577083Y-110796704D01*
X129730500Y-110733157D01*
X129883917Y-110796704D01*
X130093537Y-110838400D01*
X130307263Y-110838400D01*
X130516883Y-110796704D01*
X130714340Y-110714915D01*
X130892047Y-110596175D01*
X131043175Y-110445047D01*
X131161915Y-110267340D01*
X131243704Y-110069883D01*
X131285400Y-109860263D01*
X131285400Y-109646537D01*
X131243704Y-109436917D01*
X131161915Y-109239460D01*
X131043175Y-109061753D01*
X130892047Y-108910625D01*
X130714340Y-108791885D01*
X130516883Y-108710096D01*
X130307263Y-108668400D01*
X130093537Y-108668400D01*
X129883917Y-108710096D01*
X129730500Y-108773643D01*
X129577083Y-108710096D01*
X129367463Y-108668400D01*
X129153737Y-108668400D01*
X128944117Y-108710096D01*
X128778000Y-108778904D01*
X128611883Y-108710096D01*
X128402263Y-108668400D01*
X128188537Y-108668400D01*
X127978917Y-108710096D01*
X127781460Y-108791885D01*
X127603753Y-108910625D01*
X127452625Y-109061753D01*
X127333885Y-109239460D01*
X127269210Y-109395599D01*
X127267717Y-109395896D01*
X127070260Y-109477685D01*
X126892553Y-109596425D01*
X126741425Y-109747553D01*
X126622685Y-109925260D01*
X126540896Y-110122717D01*
X126499200Y-110332337D01*
X108040901Y-110332337D01*
X108045226Y-110321898D01*
X108085000Y-110121939D01*
X108085000Y-109918061D01*
X108045226Y-109718102D01*
X107967205Y-109529744D01*
X107853937Y-109360226D01*
X107709774Y-109216063D01*
X107540256Y-109102795D01*
X107351898Y-109024774D01*
X107268642Y-109008214D01*
X107267205Y-109004744D01*
X107153937Y-108835226D01*
X107009774Y-108691063D01*
X106840256Y-108577795D01*
X106651898Y-108499774D01*
X106451939Y-108460000D01*
X106248061Y-108460000D01*
X106048102Y-108499774D01*
X105859744Y-108577795D01*
X105690226Y-108691063D01*
X105546063Y-108835226D01*
X105432795Y-109004744D01*
X105354774Y-109193102D01*
X105315000Y-109393061D01*
X98577720Y-109393061D01*
X98516483Y-109367696D01*
X98306863Y-109326000D01*
X98093137Y-109326000D01*
X97883517Y-109367696D01*
X97717400Y-109436504D01*
X97551283Y-109367696D01*
X97341663Y-109326000D01*
X97127937Y-109326000D01*
X96918317Y-109367696D01*
X96720860Y-109449485D01*
X96543153Y-109568225D01*
X96392025Y-109719353D01*
X96273285Y-109897060D01*
X96191496Y-110094517D01*
X96149800Y-110304137D01*
X96149800Y-110517863D01*
X96191496Y-110727483D01*
X96197923Y-110743000D01*
X96000000Y-110743000D01*
X95975224Y-110745440D01*
X95951399Y-110752667D01*
X95929443Y-110764403D01*
X95910197Y-110780197D01*
X95894403Y-110799443D01*
X95882667Y-110821399D01*
X95875440Y-110845224D01*
X95873000Y-110870000D01*
X94704310Y-110870000D01*
X94715000Y-110816260D01*
X94715000Y-110523740D01*
X94657932Y-110236842D01*
X94545990Y-109966589D01*
X94383475Y-109723368D01*
X94176632Y-109516525D01*
X94002240Y-109400000D01*
X94176632Y-109283475D01*
X94383475Y-109076632D01*
X94545990Y-108833411D01*
X94657932Y-108563158D01*
X94690558Y-108399137D01*
X112428200Y-108399137D01*
X112428200Y-108612863D01*
X112469896Y-108822483D01*
X112551685Y-109019940D01*
X112670425Y-109197647D01*
X112821553Y-109348775D01*
X112999260Y-109467515D01*
X113196717Y-109549304D01*
X113406337Y-109591000D01*
X113620063Y-109591000D01*
X113829683Y-109549304D01*
X114027140Y-109467515D01*
X114204847Y-109348775D01*
X114355975Y-109197647D01*
X114474715Y-109019940D01*
X114556504Y-108822483D01*
X114598200Y-108612863D01*
X114598200Y-108399137D01*
X114556504Y-108189517D01*
X114474715Y-107992060D01*
X114355975Y-107814353D01*
X114204847Y-107663225D01*
X114027140Y-107544485D01*
X113829683Y-107462696D01*
X113620063Y-107421000D01*
X113406337Y-107421000D01*
X113196717Y-107462696D01*
X112999260Y-107544485D01*
X112821553Y-107663225D01*
X112670425Y-107814353D01*
X112551685Y-107992060D01*
X112469896Y-108189517D01*
X112428200Y-108399137D01*
X94690558Y-108399137D01*
X94715000Y-108276260D01*
X94715000Y-107983740D01*
X94657932Y-107696842D01*
X94545990Y-107426589D01*
X94383475Y-107183368D01*
X94286168Y-107086061D01*
X99295000Y-107086061D01*
X99295000Y-107289939D01*
X99334774Y-107489898D01*
X99412795Y-107678256D01*
X99526063Y-107847774D01*
X99670226Y-107991937D01*
X99839744Y-108105205D01*
X100028102Y-108183226D01*
X100228061Y-108223000D01*
X100431939Y-108223000D01*
X100606619Y-108188254D01*
X100739744Y-108277205D01*
X100928102Y-108355226D01*
X101128061Y-108395000D01*
X101331939Y-108395000D01*
X101531898Y-108355226D01*
X101720256Y-108277205D01*
X101848334Y-108191626D01*
X102006061Y-108223000D01*
X102209939Y-108223000D01*
X102409898Y-108183226D01*
X102598256Y-108105205D01*
X102767774Y-107991937D01*
X102911937Y-107847774D01*
X103025205Y-107678256D01*
X103103226Y-107489898D01*
X103143000Y-107289939D01*
X103143000Y-107086061D01*
X103103226Y-106886102D01*
X103025205Y-106697744D01*
X102911937Y-106528226D01*
X102771772Y-106388061D01*
X103505000Y-106388061D01*
X103505000Y-106591939D01*
X103544774Y-106791898D01*
X103622795Y-106980256D01*
X103736063Y-107149774D01*
X103880226Y-107293937D01*
X104049744Y-107407205D01*
X104238102Y-107485226D01*
X104438061Y-107525000D01*
X104641939Y-107525000D01*
X104841898Y-107485226D01*
X105030256Y-107407205D01*
X105199774Y-107293937D01*
X105343937Y-107149774D01*
X105457205Y-106980256D01*
X105535226Y-106791898D01*
X105575000Y-106591939D01*
X105575000Y-106388061D01*
X105535226Y-106188102D01*
X105457205Y-105999744D01*
X105343937Y-105830226D01*
X105199774Y-105686063D01*
X105030256Y-105572795D01*
X104841898Y-105494774D01*
X104641939Y-105455000D01*
X104438061Y-105455000D01*
X104238102Y-105494774D01*
X104049744Y-105572795D01*
X103880226Y-105686063D01*
X103736063Y-105830226D01*
X103622795Y-105999744D01*
X103544774Y-106188102D01*
X103505000Y-106388061D01*
X102771772Y-106388061D01*
X102767774Y-106384063D01*
X102598256Y-106270795D01*
X102409898Y-106192774D01*
X102209939Y-106153000D01*
X102006061Y-106153000D01*
X101806102Y-106192774D01*
X101617744Y-106270795D01*
X101489666Y-106356374D01*
X101331939Y-106325000D01*
X101128061Y-106325000D01*
X100953381Y-106359746D01*
X100820256Y-106270795D01*
X100631898Y-106192774D01*
X100431939Y-106153000D01*
X100228061Y-106153000D01*
X100028102Y-106192774D01*
X99839744Y-106270795D01*
X99670226Y-106384063D01*
X99526063Y-106528226D01*
X99412795Y-106697744D01*
X99334774Y-106886102D01*
X99295000Y-107086061D01*
X94286168Y-107086061D01*
X94176632Y-106976525D01*
X94002240Y-106860000D01*
X94176632Y-106743475D01*
X94383475Y-106536632D01*
X94545990Y-106293411D01*
X94657932Y-106023158D01*
X94715000Y-105736260D01*
X94715000Y-105562061D01*
X97771000Y-105562061D01*
X97771000Y-105765939D01*
X97810774Y-105965898D01*
X97888795Y-106154256D01*
X98002063Y-106323774D01*
X98146226Y-106467937D01*
X98315744Y-106581205D01*
X98504102Y-106659226D01*
X98704061Y-106699000D01*
X98907939Y-106699000D01*
X99107898Y-106659226D01*
X99296256Y-106581205D01*
X99465774Y-106467937D01*
X99609937Y-106323774D01*
X99723205Y-106154256D01*
X99801226Y-105965898D01*
X99841000Y-105765939D01*
X99841000Y-105562061D01*
X99801226Y-105362102D01*
X99723205Y-105173744D01*
X99609937Y-105004226D01*
X99465774Y-104860063D01*
X99296256Y-104746795D01*
X99107898Y-104668774D01*
X98907939Y-104629000D01*
X98704061Y-104629000D01*
X98504102Y-104668774D01*
X98315744Y-104746795D01*
X98146226Y-104860063D01*
X98002063Y-105004226D01*
X97888795Y-105173744D01*
X97810774Y-105362102D01*
X97771000Y-105562061D01*
X94715000Y-105562061D01*
X94715000Y-105443740D01*
X94657932Y-105156842D01*
X94545990Y-104886589D01*
X94383475Y-104643368D01*
X94286168Y-104546061D01*
X99803000Y-104546061D01*
X99803000Y-104749939D01*
X99842774Y-104949898D01*
X99920795Y-105138256D01*
X100034063Y-105307774D01*
X100178226Y-105451937D01*
X100347744Y-105565205D01*
X100536102Y-105643226D01*
X100736061Y-105683000D01*
X100939939Y-105683000D01*
X101139898Y-105643226D01*
X101328256Y-105565205D01*
X101497774Y-105451937D01*
X101641937Y-105307774D01*
X101755205Y-105138256D01*
X101833226Y-104949898D01*
X101873000Y-104749939D01*
X101873000Y-104546061D01*
X101833226Y-104346102D01*
X101755205Y-104157744D01*
X101641937Y-103988226D01*
X101497774Y-103844063D01*
X101328256Y-103730795D01*
X101139898Y-103652774D01*
X100939939Y-103613000D01*
X100736061Y-103613000D01*
X100536102Y-103652774D01*
X100347744Y-103730795D01*
X100178226Y-103844063D01*
X100034063Y-103988226D01*
X99920795Y-104157744D01*
X99842774Y-104346102D01*
X99803000Y-104546061D01*
X94286168Y-104546061D01*
X94251620Y-104511513D01*
X94324180Y-104489502D01*
X94434494Y-104430537D01*
X94531185Y-104351185D01*
X94610537Y-104254494D01*
X94669502Y-104144180D01*
X94705812Y-104024482D01*
X94718072Y-103900000D01*
X94715000Y-103335750D01*
X94556250Y-103177000D01*
X93357000Y-103177000D01*
X93357000Y-103197000D01*
X93103000Y-103197000D01*
X93103000Y-103177000D01*
X91903750Y-103177000D01*
X91745000Y-103335750D01*
X91741928Y-103900000D01*
X87660000Y-103900000D01*
X87660000Y-103048061D01*
X102398092Y-103048061D01*
X102398092Y-103251939D01*
X102437866Y-103451898D01*
X102515887Y-103640256D01*
X102629155Y-103809774D01*
X102773318Y-103953937D01*
X102942836Y-104067205D01*
X103131194Y-104145226D01*
X103331153Y-104185000D01*
X103535031Y-104185000D01*
X103734990Y-104145226D01*
X103923348Y-104067205D01*
X104092866Y-103953937D01*
X104237029Y-103809774D01*
X104350297Y-103640256D01*
X104428318Y-103451898D01*
X104468092Y-103251939D01*
X104468092Y-103117807D01*
X104590256Y-103067205D01*
X104759774Y-102953937D01*
X104903937Y-102809774D01*
X105017205Y-102640256D01*
X105095226Y-102451898D01*
X105135000Y-102251939D01*
X105135000Y-102122737D01*
X117107600Y-102122737D01*
X117107600Y-102336463D01*
X117149296Y-102546083D01*
X117231085Y-102743540D01*
X117349825Y-102921247D01*
X117500953Y-103072375D01*
X117678660Y-103191115D01*
X117876117Y-103272904D01*
X117993737Y-103296300D01*
X117876117Y-103319696D01*
X117678660Y-103401485D01*
X117500953Y-103520225D01*
X117349825Y-103671353D01*
X117231085Y-103849060D01*
X117149296Y-104046517D01*
X117107600Y-104256137D01*
X117107600Y-104469863D01*
X117149296Y-104679483D01*
X117231085Y-104876940D01*
X117349825Y-105054647D01*
X117500953Y-105205775D01*
X117678660Y-105324515D01*
X117857937Y-105398774D01*
X117734060Y-105450085D01*
X117556353Y-105568825D01*
X117405225Y-105719953D01*
X117286485Y-105897660D01*
X117204696Y-106095117D01*
X117163000Y-106304737D01*
X117163000Y-106518463D01*
X117204696Y-106728083D01*
X117286485Y-106925540D01*
X117405225Y-107103247D01*
X117556353Y-107254375D01*
X117734060Y-107373115D01*
X117931517Y-107454904D01*
X118141137Y-107496600D01*
X118354863Y-107496600D01*
X118564483Y-107454904D01*
X118761940Y-107373115D01*
X118939647Y-107254375D01*
X119090775Y-107103247D01*
X119209515Y-106925540D01*
X119291304Y-106728083D01*
X119333000Y-106518463D01*
X119333000Y-106304737D01*
X119291304Y-106095117D01*
X119209515Y-105897660D01*
X119090775Y-105719953D01*
X118939647Y-105568825D01*
X118761940Y-105450085D01*
X118582663Y-105375826D01*
X118706540Y-105324515D01*
X118884247Y-105205775D01*
X119035375Y-105054647D01*
X119154115Y-104876940D01*
X119235904Y-104679483D01*
X119277600Y-104469863D01*
X119277600Y-104256137D01*
X119235904Y-104046517D01*
X119154115Y-103849060D01*
X119035375Y-103671353D01*
X118884247Y-103520225D01*
X118706540Y-103401485D01*
X118509083Y-103319696D01*
X118391463Y-103296300D01*
X118509083Y-103272904D01*
X118706540Y-103191115D01*
X118884247Y-103072375D01*
X119035375Y-102921247D01*
X119154115Y-102743540D01*
X119235904Y-102546083D01*
X119277600Y-102336463D01*
X119277600Y-102200000D01*
X120211928Y-102200000D01*
X120211928Y-103900000D01*
X120224188Y-104024482D01*
X120260498Y-104144180D01*
X120319463Y-104254494D01*
X120398815Y-104351185D01*
X120495506Y-104430537D01*
X120605820Y-104489502D01*
X120678380Y-104511513D01*
X120546525Y-104643368D01*
X120384010Y-104886589D01*
X120272068Y-105156842D01*
X120215000Y-105443740D01*
X120215000Y-105736260D01*
X120272068Y-106023158D01*
X120384010Y-106293411D01*
X120546525Y-106536632D01*
X120753368Y-106743475D01*
X120996589Y-106905990D01*
X121266842Y-107017932D01*
X121553740Y-107075000D01*
X121846260Y-107075000D01*
X122133158Y-107017932D01*
X122403411Y-106905990D01*
X122646632Y-106743475D01*
X122853475Y-106536632D01*
X123015990Y-106293411D01*
X123127932Y-106023158D01*
X123185000Y-105736260D01*
X123185000Y-105443740D01*
X123127932Y-105156842D01*
X123015990Y-104886589D01*
X122853475Y-104643368D01*
X122721620Y-104511513D01*
X122794180Y-104489502D01*
X122904494Y-104430537D01*
X123001185Y-104351185D01*
X123080537Y-104254494D01*
X123139502Y-104144180D01*
X123175812Y-104024482D01*
X123188072Y-103900000D01*
X123188072Y-102200000D01*
X123175812Y-102075518D01*
X123139502Y-101955820D01*
X123136572Y-101950337D01*
X128404200Y-101950337D01*
X128404200Y-102164063D01*
X128445896Y-102373683D01*
X128527685Y-102571140D01*
X128646425Y-102748847D01*
X128797553Y-102899975D01*
X128975260Y-103018715D01*
X129172717Y-103100504D01*
X129382337Y-103142200D01*
X129596063Y-103142200D01*
X129805683Y-103100504D01*
X130003140Y-103018715D01*
X130180847Y-102899975D01*
X130331975Y-102748847D01*
X130450715Y-102571140D01*
X130532504Y-102373683D01*
X130574200Y-102164063D01*
X130574200Y-101950337D01*
X130532504Y-101740717D01*
X130450715Y-101543260D01*
X130331975Y-101365553D01*
X130180847Y-101214425D01*
X130003140Y-101095685D01*
X129805683Y-101013896D01*
X129596063Y-100972200D01*
X129382337Y-100972200D01*
X129172717Y-101013896D01*
X128975260Y-101095685D01*
X128797553Y-101214425D01*
X128646425Y-101365553D01*
X128527685Y-101543260D01*
X128445896Y-101740717D01*
X128404200Y-101950337D01*
X123136572Y-101950337D01*
X123080537Y-101845506D01*
X123001185Y-101748815D01*
X122904494Y-101669463D01*
X122794180Y-101610498D01*
X122674482Y-101574188D01*
X122550000Y-101561928D01*
X120850000Y-101561928D01*
X120725518Y-101574188D01*
X120605820Y-101610498D01*
X120495506Y-101669463D01*
X120398815Y-101748815D01*
X120319463Y-101845506D01*
X120260498Y-101955820D01*
X120224188Y-102075518D01*
X120211928Y-102200000D01*
X119277600Y-102200000D01*
X119277600Y-102122737D01*
X119235904Y-101913117D01*
X119154115Y-101715660D01*
X119035375Y-101537953D01*
X118884247Y-101386825D01*
X118706540Y-101268085D01*
X118509083Y-101186296D01*
X118299463Y-101144600D01*
X118085737Y-101144600D01*
X117876117Y-101186296D01*
X117678660Y-101268085D01*
X117500953Y-101386825D01*
X117349825Y-101537953D01*
X117231085Y-101715660D01*
X117149296Y-101913117D01*
X117107600Y-102122737D01*
X105135000Y-102122737D01*
X105135000Y-102048061D01*
X105095226Y-101848102D01*
X105017205Y-101659744D01*
X104903937Y-101490226D01*
X104759774Y-101346063D01*
X104590256Y-101232795D01*
X104401898Y-101154774D01*
X104201939Y-101115000D01*
X103998061Y-101115000D01*
X103798102Y-101154774D01*
X103609744Y-101232795D01*
X103440226Y-101346063D01*
X103296063Y-101490226D01*
X103182795Y-101659744D01*
X103104774Y-101848102D01*
X103065000Y-102048061D01*
X103065000Y-102182193D01*
X102942836Y-102232795D01*
X102773318Y-102346063D01*
X102629155Y-102490226D01*
X102515887Y-102659744D01*
X102437866Y-102848102D01*
X102398092Y-103048061D01*
X87660000Y-103048061D01*
X87660000Y-102200000D01*
X91741928Y-102200000D01*
X91745000Y-102764250D01*
X91903750Y-102923000D01*
X93103000Y-102923000D01*
X93103000Y-101723750D01*
X93357000Y-101723750D01*
X93357000Y-102923000D01*
X94556250Y-102923000D01*
X94715000Y-102764250D01*
X94718072Y-102200000D01*
X94705812Y-102075518D01*
X94669502Y-101955820D01*
X94610537Y-101845506D01*
X94531185Y-101748815D01*
X94434494Y-101669463D01*
X94324180Y-101610498D01*
X94316147Y-101608061D01*
X98235000Y-101608061D01*
X98235000Y-101811939D01*
X98274774Y-102011898D01*
X98352795Y-102200256D01*
X98466063Y-102369774D01*
X98610226Y-102513937D01*
X98779744Y-102627205D01*
X98968102Y-102705226D01*
X99168061Y-102745000D01*
X99371939Y-102745000D01*
X99571898Y-102705226D01*
X99760256Y-102627205D01*
X99895000Y-102537172D01*
X100029744Y-102627205D01*
X100218102Y-102705226D01*
X100418061Y-102745000D01*
X100621939Y-102745000D01*
X100821898Y-102705226D01*
X101010256Y-102627205D01*
X101179774Y-102513937D01*
X101323937Y-102369774D01*
X101437205Y-102200256D01*
X101515226Y-102011898D01*
X101555000Y-101811939D01*
X101555000Y-101608061D01*
X101515226Y-101408102D01*
X101437205Y-101219744D01*
X101323937Y-101050226D01*
X101179774Y-100906063D01*
X101010256Y-100792795D01*
X100821898Y-100714774D01*
X100621939Y-100675000D01*
X100418061Y-100675000D01*
X100218102Y-100714774D01*
X100029744Y-100792795D01*
X99895000Y-100882828D01*
X99760256Y-100792795D01*
X99571898Y-100714774D01*
X99371939Y-100675000D01*
X99168061Y-100675000D01*
X98968102Y-100714774D01*
X98779744Y-100792795D01*
X98610226Y-100906063D01*
X98466063Y-101050226D01*
X98352795Y-101219744D01*
X98274774Y-101408102D01*
X98235000Y-101608061D01*
X94316147Y-101608061D01*
X94204482Y-101574188D01*
X94080000Y-101561928D01*
X93515750Y-101565000D01*
X93357000Y-101723750D01*
X93103000Y-101723750D01*
X92944250Y-101565000D01*
X92380000Y-101561928D01*
X92255518Y-101574188D01*
X92135820Y-101610498D01*
X92025506Y-101669463D01*
X91928815Y-101748815D01*
X91849463Y-101845506D01*
X91790498Y-101955820D01*
X91754188Y-102075518D01*
X91741928Y-102200000D01*
X87660000Y-102200000D01*
X87660000Y-99723137D01*
X109455000Y-99723137D01*
X109455000Y-99936863D01*
X109496696Y-100146483D01*
X109578485Y-100343940D01*
X109697225Y-100521647D01*
X109848353Y-100672775D01*
X110026060Y-100791515D01*
X110223517Y-100873304D01*
X110433137Y-100915000D01*
X110646863Y-100915000D01*
X110856483Y-100873304D01*
X111053940Y-100791515D01*
X111231647Y-100672775D01*
X111382775Y-100521647D01*
X111501515Y-100343940D01*
X111583304Y-100146483D01*
X111625000Y-99936863D01*
X111625000Y-99723137D01*
X111583304Y-99513517D01*
X111501515Y-99316060D01*
X111382775Y-99138353D01*
X111231647Y-98987225D01*
X111053940Y-98868485D01*
X110856483Y-98786696D01*
X110646863Y-98745000D01*
X110433137Y-98745000D01*
X110223517Y-98786696D01*
X110026060Y-98868485D01*
X109848353Y-98987225D01*
X109697225Y-99138353D01*
X109578485Y-99316060D01*
X109496696Y-99513517D01*
X109455000Y-99723137D01*
X87660000Y-99723137D01*
X87660000Y-97120000D01*
X91741928Y-97120000D01*
X91741928Y-98820000D01*
X91754188Y-98944482D01*
X91790498Y-99064180D01*
X91849463Y-99174494D01*
X91928815Y-99271185D01*
X92025506Y-99350537D01*
X92135820Y-99409502D01*
X92255518Y-99445812D01*
X92380000Y-99458072D01*
X94080000Y-99458072D01*
X94204482Y-99445812D01*
X94324180Y-99409502D01*
X94434494Y-99350537D01*
X94531185Y-99271185D01*
X94610537Y-99174494D01*
X94669502Y-99064180D01*
X94705812Y-98944482D01*
X94718072Y-98820000D01*
X94718072Y-97838061D01*
X96135000Y-97838061D01*
X96135000Y-98041939D01*
X96174774Y-98241898D01*
X96252795Y-98430256D01*
X96366063Y-98599774D01*
X96510226Y-98743937D01*
X96679744Y-98857205D01*
X96868102Y-98935226D01*
X97068061Y-98975000D01*
X97271939Y-98975000D01*
X97471898Y-98935226D01*
X97660256Y-98857205D01*
X97829774Y-98743937D01*
X97973937Y-98599774D01*
X98087205Y-98430256D01*
X98165226Y-98241898D01*
X98205000Y-98041939D01*
X98205000Y-97838061D01*
X98165226Y-97638102D01*
X98087205Y-97449744D01*
X98002610Y-97323137D01*
X109455000Y-97323137D01*
X109455000Y-97536863D01*
X109496696Y-97746483D01*
X109578485Y-97943940D01*
X109697225Y-98121647D01*
X109848353Y-98272775D01*
X110026060Y-98391515D01*
X110223517Y-98473304D01*
X110433137Y-98515000D01*
X110646863Y-98515000D01*
X110856483Y-98473304D01*
X111053940Y-98391515D01*
X111231647Y-98272775D01*
X111382775Y-98121647D01*
X111501515Y-97943940D01*
X111583304Y-97746483D01*
X111625000Y-97536863D01*
X111625000Y-97323137D01*
X111583304Y-97113517D01*
X111501515Y-96916060D01*
X111382775Y-96738353D01*
X111231647Y-96587225D01*
X111053940Y-96468485D01*
X110856483Y-96386696D01*
X110646863Y-96345000D01*
X110433137Y-96345000D01*
X110223517Y-96386696D01*
X110026060Y-96468485D01*
X109848353Y-96587225D01*
X109697225Y-96738353D01*
X109578485Y-96916060D01*
X109496696Y-97113517D01*
X109455000Y-97323137D01*
X98002610Y-97323137D01*
X97973937Y-97280226D01*
X97829774Y-97136063D01*
X97660256Y-97022795D01*
X97471898Y-96944774D01*
X97271939Y-96905000D01*
X97068061Y-96905000D01*
X96868102Y-96944774D01*
X96679744Y-97022795D01*
X96510226Y-97136063D01*
X96366063Y-97280226D01*
X96252795Y-97449744D01*
X96174774Y-97638102D01*
X96135000Y-97838061D01*
X94718072Y-97838061D01*
X94718072Y-97120000D01*
X94705812Y-96995518D01*
X94669502Y-96875820D01*
X94610537Y-96765506D01*
X94531185Y-96668815D01*
X94434494Y-96589463D01*
X94324180Y-96530498D01*
X94251620Y-96508487D01*
X94383475Y-96376632D01*
X94545990Y-96133411D01*
X94657932Y-95863158D01*
X94715000Y-95576260D01*
X94715000Y-95348061D01*
X96135000Y-95348061D01*
X96135000Y-95551939D01*
X96174774Y-95751898D01*
X96252795Y-95940256D01*
X96366063Y-96109774D01*
X96510226Y-96253937D01*
X96679744Y-96367205D01*
X96868102Y-96445226D01*
X97068061Y-96485000D01*
X97271939Y-96485000D01*
X97471898Y-96445226D01*
X97660256Y-96367205D01*
X97829774Y-96253937D01*
X97973937Y-96109774D01*
X98087205Y-95940256D01*
X98165226Y-95751898D01*
X98205000Y-95551939D01*
X98205000Y-95348061D01*
X98165226Y-95148102D01*
X98087205Y-94959744D01*
X97973937Y-94790226D01*
X97829774Y-94646063D01*
X97772676Y-94607911D01*
X125965000Y-94607911D01*
X125965000Y-94792089D01*
X126000932Y-94972729D01*
X126071414Y-95142889D01*
X126173738Y-95296028D01*
X126303972Y-95426262D01*
X126457111Y-95528586D01*
X126627271Y-95599068D01*
X126807911Y-95635000D01*
X126992089Y-95635000D01*
X127172729Y-95599068D01*
X127215858Y-95581204D01*
X127307271Y-95619068D01*
X127487911Y-95655000D01*
X127672089Y-95655000D01*
X127852729Y-95619068D01*
X128022889Y-95548586D01*
X128176028Y-95446262D01*
X128306262Y-95316028D01*
X128408586Y-95162889D01*
X128479068Y-94992729D01*
X128515000Y-94812089D01*
X128515000Y-94762137D01*
X129547200Y-94762137D01*
X129547200Y-94975863D01*
X129588896Y-95185483D01*
X129670685Y-95382940D01*
X129789425Y-95560647D01*
X129940553Y-95711775D01*
X130118260Y-95830515D01*
X130315717Y-95912304D01*
X130525337Y-95954000D01*
X130739063Y-95954000D01*
X130948683Y-95912304D01*
X131146140Y-95830515D01*
X131323847Y-95711775D01*
X131474975Y-95560647D01*
X131491658Y-95535680D01*
X131642353Y-95686375D01*
X131820060Y-95805115D01*
X132017517Y-95886904D01*
X132227137Y-95928600D01*
X132440863Y-95928600D01*
X132650483Y-95886904D01*
X132847940Y-95805115D01*
X133025647Y-95686375D01*
X133176775Y-95535247D01*
X133295515Y-95357540D01*
X133377304Y-95160083D01*
X133419000Y-94950463D01*
X133419000Y-94736737D01*
X133377304Y-94527117D01*
X133295515Y-94329660D01*
X133176775Y-94151953D01*
X133025647Y-94000825D01*
X132847940Y-93882085D01*
X132650483Y-93800296D01*
X132440863Y-93758600D01*
X132227137Y-93758600D01*
X132017517Y-93800296D01*
X131820060Y-93882085D01*
X131642353Y-94000825D01*
X131491225Y-94151953D01*
X131474542Y-94176920D01*
X131323847Y-94026225D01*
X131146140Y-93907485D01*
X130948683Y-93825696D01*
X130739063Y-93784000D01*
X130525337Y-93784000D01*
X130315717Y-93825696D01*
X130118260Y-93907485D01*
X129940553Y-94026225D01*
X129789425Y-94177353D01*
X129670685Y-94355060D01*
X129588896Y-94552517D01*
X129547200Y-94762137D01*
X128515000Y-94762137D01*
X128515000Y-94627911D01*
X128479068Y-94447271D01*
X128408586Y-94277111D01*
X128306262Y-94123972D01*
X128176028Y-93993738D01*
X128022889Y-93891414D01*
X127852729Y-93820932D01*
X127672089Y-93785000D01*
X127487911Y-93785000D01*
X127307271Y-93820932D01*
X127264142Y-93838796D01*
X127172729Y-93800932D01*
X126992089Y-93765000D01*
X126807911Y-93765000D01*
X126627271Y-93800932D01*
X126457111Y-93871414D01*
X126303972Y-93973738D01*
X126173738Y-94103972D01*
X126071414Y-94257111D01*
X126000932Y-94427271D01*
X125965000Y-94607911D01*
X97772676Y-94607911D01*
X97660256Y-94532795D01*
X97471898Y-94454774D01*
X97271939Y-94415000D01*
X97068061Y-94415000D01*
X96868102Y-94454774D01*
X96679744Y-94532795D01*
X96510226Y-94646063D01*
X96366063Y-94790226D01*
X96252795Y-94959744D01*
X96174774Y-95148102D01*
X96135000Y-95348061D01*
X94715000Y-95348061D01*
X94715000Y-95283740D01*
X94657932Y-94996842D01*
X94545990Y-94726589D01*
X94383475Y-94483368D01*
X94176632Y-94276525D01*
X93933411Y-94114010D01*
X93663158Y-94002068D01*
X93376260Y-93945000D01*
X93083740Y-93945000D01*
X92796842Y-94002068D01*
X92526589Y-94114010D01*
X92283368Y-94276525D01*
X92076525Y-94483368D01*
X91914010Y-94726589D01*
X91802068Y-94996842D01*
X91745000Y-95283740D01*
X91745000Y-95576260D01*
X91802068Y-95863158D01*
X91914010Y-96133411D01*
X92076525Y-96376632D01*
X92208380Y-96508487D01*
X92135820Y-96530498D01*
X92025506Y-96589463D01*
X91928815Y-96668815D01*
X91849463Y-96765506D01*
X91790498Y-96875820D01*
X91754188Y-96995518D01*
X91741928Y-97120000D01*
X87660000Y-97120000D01*
X87660000Y-89729392D01*
X87698970Y-89292738D01*
X87865000Y-89292738D01*
X87865000Y-90107262D01*
X88023906Y-90906135D01*
X88335611Y-91658657D01*
X88788136Y-92335909D01*
X89364091Y-92911864D01*
X90041343Y-93364389D01*
X90793865Y-93676094D01*
X91592738Y-93835000D01*
X92407262Y-93835000D01*
X93206135Y-93676094D01*
X93958657Y-93364389D01*
X94635909Y-92911864D01*
X95211864Y-92335909D01*
X95664389Y-91658657D01*
X95976094Y-90906135D01*
X96135000Y-90107262D01*
X96135000Y-89533740D01*
X97345000Y-89533740D01*
X97345000Y-89826260D01*
X97402068Y-90113158D01*
X97514010Y-90383411D01*
X97676525Y-90626632D01*
X97883368Y-90833475D01*
X98126589Y-90995990D01*
X98396842Y-91107932D01*
X98683740Y-91165000D01*
X98976260Y-91165000D01*
X99263158Y-91107932D01*
X99533411Y-90995990D01*
X99776632Y-90833475D01*
X99983475Y-90626632D01*
X100100000Y-90452240D01*
X100216525Y-90626632D01*
X100423368Y-90833475D01*
X100666589Y-90995990D01*
X100936842Y-91107932D01*
X101223740Y-91165000D01*
X101516260Y-91165000D01*
X101803158Y-91107932D01*
X102073411Y-90995990D01*
X102316632Y-90833475D01*
X102523475Y-90626632D01*
X102640000Y-90452240D01*
X102756525Y-90626632D01*
X102963368Y-90833475D01*
X103206589Y-90995990D01*
X103476842Y-91107932D01*
X103763740Y-91165000D01*
X104056260Y-91165000D01*
X104343158Y-91107932D01*
X104613411Y-90995990D01*
X104856632Y-90833475D01*
X105063475Y-90626632D01*
X105180000Y-90452240D01*
X105296525Y-90626632D01*
X105503368Y-90833475D01*
X105746589Y-90995990D01*
X106016842Y-91107932D01*
X106303740Y-91165000D01*
X106596260Y-91165000D01*
X106883158Y-91107932D01*
X107153411Y-90995990D01*
X107396632Y-90833475D01*
X107603475Y-90626632D01*
X107720000Y-90452240D01*
X107836525Y-90626632D01*
X108043368Y-90833475D01*
X108286589Y-90995990D01*
X108556842Y-91107932D01*
X108843740Y-91165000D01*
X109136260Y-91165000D01*
X109423158Y-91107932D01*
X109693411Y-90995990D01*
X109936632Y-90833475D01*
X110143475Y-90626632D01*
X110260000Y-90452240D01*
X110376525Y-90626632D01*
X110583368Y-90833475D01*
X110826589Y-90995990D01*
X111096842Y-91107932D01*
X111383740Y-91165000D01*
X111676260Y-91165000D01*
X111963158Y-91107932D01*
X112233411Y-90995990D01*
X112476632Y-90833475D01*
X112683475Y-90626632D01*
X112800000Y-90452240D01*
X112916525Y-90626632D01*
X113123368Y-90833475D01*
X113366589Y-90995990D01*
X113636842Y-91107932D01*
X113923740Y-91165000D01*
X114216260Y-91165000D01*
X114503158Y-91107932D01*
X114773411Y-90995990D01*
X115016632Y-90833475D01*
X115223475Y-90626632D01*
X115340000Y-90452240D01*
X115456525Y-90626632D01*
X115663368Y-90833475D01*
X115906589Y-90995990D01*
X116176842Y-91107932D01*
X116463740Y-91165000D01*
X116756260Y-91165000D01*
X117043158Y-91107932D01*
X117313411Y-90995990D01*
X117556632Y-90833475D01*
X117763475Y-90626632D01*
X117880000Y-90452240D01*
X117996525Y-90626632D01*
X118203368Y-90833475D01*
X118446589Y-90995990D01*
X118716842Y-91107932D01*
X119003740Y-91165000D01*
X119296260Y-91165000D01*
X119583158Y-91107932D01*
X119853411Y-90995990D01*
X120096632Y-90833475D01*
X120228487Y-90701620D01*
X120250498Y-90774180D01*
X120309463Y-90884494D01*
X120388815Y-90981185D01*
X120485506Y-91060537D01*
X120595820Y-91119502D01*
X120715518Y-91155812D01*
X120840000Y-91168072D01*
X122540000Y-91168072D01*
X122664482Y-91155812D01*
X122784180Y-91119502D01*
X122894494Y-91060537D01*
X122991185Y-90981185D01*
X123070537Y-90884494D01*
X123129502Y-90774180D01*
X123165812Y-90654482D01*
X123178072Y-90530000D01*
X123178072Y-88830000D01*
X123165812Y-88705518D01*
X123129502Y-88585820D01*
X123070537Y-88475506D01*
X122991185Y-88378815D01*
X122894494Y-88299463D01*
X122784180Y-88240498D01*
X122664482Y-88204188D01*
X122540000Y-88191928D01*
X120840000Y-88191928D01*
X120715518Y-88204188D01*
X120595820Y-88240498D01*
X120485506Y-88299463D01*
X120388815Y-88378815D01*
X120309463Y-88475506D01*
X120250498Y-88585820D01*
X120228487Y-88658380D01*
X120096632Y-88526525D01*
X119853411Y-88364010D01*
X119583158Y-88252068D01*
X119296260Y-88195000D01*
X119003740Y-88195000D01*
X118716842Y-88252068D01*
X118446589Y-88364010D01*
X118203368Y-88526525D01*
X117996525Y-88733368D01*
X117880000Y-88907760D01*
X117763475Y-88733368D01*
X117556632Y-88526525D01*
X117313411Y-88364010D01*
X117043158Y-88252068D01*
X116756260Y-88195000D01*
X116463740Y-88195000D01*
X116176842Y-88252068D01*
X115906589Y-88364010D01*
X115663368Y-88526525D01*
X115456525Y-88733368D01*
X115340000Y-88907760D01*
X115223475Y-88733368D01*
X115016632Y-88526525D01*
X114773411Y-88364010D01*
X114503158Y-88252068D01*
X114216260Y-88195000D01*
X113923740Y-88195000D01*
X113636842Y-88252068D01*
X113366589Y-88364010D01*
X113123368Y-88526525D01*
X112916525Y-88733368D01*
X112800000Y-88907760D01*
X112683475Y-88733368D01*
X112476632Y-88526525D01*
X112233411Y-88364010D01*
X111963158Y-88252068D01*
X111676260Y-88195000D01*
X111383740Y-88195000D01*
X111096842Y-88252068D01*
X110826589Y-88364010D01*
X110583368Y-88526525D01*
X110376525Y-88733368D01*
X110260000Y-88907760D01*
X110143475Y-88733368D01*
X109936632Y-88526525D01*
X109693411Y-88364010D01*
X109423158Y-88252068D01*
X109136260Y-88195000D01*
X108843740Y-88195000D01*
X108556842Y-88252068D01*
X108286589Y-88364010D01*
X108043368Y-88526525D01*
X107836525Y-88733368D01*
X107720000Y-88907760D01*
X107603475Y-88733368D01*
X107396632Y-88526525D01*
X107153411Y-88364010D01*
X106883158Y-88252068D01*
X106596260Y-88195000D01*
X106303740Y-88195000D01*
X106016842Y-88252068D01*
X105746589Y-88364010D01*
X105503368Y-88526525D01*
X105296525Y-88733368D01*
X105180000Y-88907760D01*
X105063475Y-88733368D01*
X104856632Y-88526525D01*
X104613411Y-88364010D01*
X104343158Y-88252068D01*
X104056260Y-88195000D01*
X103763740Y-88195000D01*
X103476842Y-88252068D01*
X103206589Y-88364010D01*
X102963368Y-88526525D01*
X102756525Y-88733368D01*
X102640000Y-88907760D01*
X102523475Y-88733368D01*
X102316632Y-88526525D01*
X102073411Y-88364010D01*
X101803158Y-88252068D01*
X101516260Y-88195000D01*
X101223740Y-88195000D01*
X100936842Y-88252068D01*
X100666589Y-88364010D01*
X100423368Y-88526525D01*
X100216525Y-88733368D01*
X100100000Y-88907760D01*
X99983475Y-88733368D01*
X99776632Y-88526525D01*
X99533411Y-88364010D01*
X99263158Y-88252068D01*
X98976260Y-88195000D01*
X98683740Y-88195000D01*
X98396842Y-88252068D01*
X98126589Y-88364010D01*
X97883368Y-88526525D01*
X97676525Y-88733368D01*
X97514010Y-88976589D01*
X97402068Y-89246842D01*
X97345000Y-89533740D01*
X96135000Y-89533740D01*
X96135000Y-89292738D01*
X95976094Y-88493865D01*
X95664389Y-87741343D01*
X95211864Y-87064091D01*
X94635909Y-86488136D01*
X93958657Y-86035611D01*
X93206135Y-85723906D01*
X92407262Y-85565000D01*
X91592738Y-85565000D01*
X90793865Y-85723906D01*
X90041343Y-86035611D01*
X89364091Y-86488136D01*
X88788136Y-87064091D01*
X88335611Y-87741343D01*
X88023906Y-88493865D01*
X87865000Y-89292738D01*
X87698970Y-89292738D01*
X87731173Y-88931917D01*
X87934656Y-88188109D01*
X88266638Y-87492095D01*
X88716626Y-86865870D01*
X89270403Y-86329223D01*
X89910451Y-85899129D01*
X90616553Y-85589171D01*
X91371457Y-85407935D01*
X92024207Y-85360000D01*
X133783000Y-85360000D01*
X133783000Y-87315000D01*
%TO.N,REG_VIN*%
G36*
X139116426Y-96069123D02*
G01*
X138972263Y-96213286D01*
X138858995Y-96382804D01*
X138780974Y-96571162D01*
X138741200Y-96771121D01*
X138741200Y-96974999D01*
X138780974Y-97174958D01*
X138858995Y-97363316D01*
X138972263Y-97532834D01*
X139116426Y-97676997D01*
X139285944Y-97790265D01*
X139474302Y-97868286D01*
X139674261Y-97908060D01*
X139878139Y-97908060D01*
X140078098Y-97868286D01*
X140266456Y-97790265D01*
X140435974Y-97676997D01*
X140580137Y-97532834D01*
X140585371Y-97525000D01*
X141284388Y-97525000D01*
X141306785Y-97752400D01*
X141373115Y-97971060D01*
X141480829Y-98172579D01*
X141625788Y-98349212D01*
X141802421Y-98494171D01*
X142003940Y-98601885D01*
X142222600Y-98668215D01*
X142393021Y-98685000D01*
X142706979Y-98685000D01*
X142877400Y-98668215D01*
X143096060Y-98601885D01*
X143297579Y-98494171D01*
X143474212Y-98349212D01*
X143619171Y-98172579D01*
X143726885Y-97971060D01*
X143793215Y-97752400D01*
X143815612Y-97525000D01*
X143793215Y-97297600D01*
X143726885Y-97078940D01*
X143619171Y-96877421D01*
X143474212Y-96700788D01*
X143297579Y-96555829D01*
X143096060Y-96448115D01*
X142877400Y-96381785D01*
X142706979Y-96365000D01*
X142393021Y-96365000D01*
X142222600Y-96381785D01*
X142003940Y-96448115D01*
X141802421Y-96555829D01*
X141625788Y-96700788D01*
X141480829Y-96877421D01*
X141373115Y-97078940D01*
X141306785Y-97297600D01*
X141284388Y-97525000D01*
X140585371Y-97525000D01*
X140693405Y-97363316D01*
X140771426Y-97174958D01*
X140811200Y-96974999D01*
X140811200Y-96771121D01*
X140771426Y-96571162D01*
X140693405Y-96382804D01*
X140580137Y-96213286D01*
X140435974Y-96069123D01*
X140335517Y-96002000D01*
X144043458Y-96002000D01*
X144046324Y-96011447D01*
X144151716Y-96208623D01*
X144293551Y-96381449D01*
X144466377Y-96523284D01*
X144626116Y-96608666D01*
X144593546Y-96641009D01*
X144587501Y-96648421D01*
X144535527Y-96713064D01*
X144501542Y-96764999D01*
X144466816Y-96816483D01*
X144462326Y-96824928D01*
X144423898Y-96898434D01*
X144400640Y-96955999D01*
X144376582Y-97013232D01*
X144373817Y-97022388D01*
X144350398Y-97101959D01*
X144338760Y-97162969D01*
X144326281Y-97223758D01*
X144325347Y-97233276D01*
X144317830Y-97315880D01*
X144318263Y-97377968D01*
X144317830Y-97440057D01*
X144318763Y-97449576D01*
X144327434Y-97532066D01*
X144339920Y-97592891D01*
X144351550Y-97653857D01*
X144354314Y-97663013D01*
X144378841Y-97742249D01*
X144402894Y-97799469D01*
X144426159Y-97857052D01*
X144430649Y-97865497D01*
X144470100Y-97938460D01*
X144504821Y-97989936D01*
X144538810Y-98041877D01*
X144544854Y-98049289D01*
X144597726Y-98113200D01*
X144641767Y-98156935D01*
X144685224Y-98201311D01*
X144692593Y-98207408D01*
X144756872Y-98259832D01*
X144808616Y-98294210D01*
X144859810Y-98329263D01*
X144868223Y-98333812D01*
X144941459Y-98372752D01*
X144998866Y-98396413D01*
X145055920Y-98420867D01*
X145065054Y-98423694D01*
X145065061Y-98423697D01*
X145065069Y-98423699D01*
X145144461Y-98447669D01*
X145205337Y-98459723D01*
X145266095Y-98472637D01*
X145275607Y-98473637D01*
X145358157Y-98481731D01*
X145358163Y-98481731D01*
X145391353Y-98485000D01*
X146315001Y-98485000D01*
X146315000Y-101015000D01*
X145391353Y-101015000D01*
X145357737Y-101018311D01*
X145352220Y-101018311D01*
X145342708Y-101019310D01*
X145307523Y-101023257D01*
X145290717Y-101024912D01*
X145289515Y-101025277D01*
X145260280Y-101028556D01*
X145199514Y-101041472D01*
X145138654Y-101053523D01*
X145129518Y-101056351D01*
X145129512Y-101056352D01*
X145129507Y-101056354D01*
X145050454Y-101081431D01*
X144993382Y-101105892D01*
X144985580Y-101109108D01*
X144872737Y-100940226D01*
X144870262Y-100937751D01*
X144878588Y-100925289D01*
X144949070Y-100755129D01*
X144985002Y-100574489D01*
X144985002Y-100390311D01*
X144949070Y-100209671D01*
X144878588Y-100039511D01*
X144776264Y-99886372D01*
X144646030Y-99756138D01*
X144492891Y-99653814D01*
X144322731Y-99583332D01*
X144142091Y-99547400D01*
X143957913Y-99547400D01*
X143777273Y-99583332D01*
X143607113Y-99653814D01*
X143453974Y-99756138D01*
X143323740Y-99886372D01*
X143221416Y-100039511D01*
X143150934Y-100209671D01*
X143115002Y-100390311D01*
X143115002Y-100574489D01*
X143150934Y-100755129D01*
X143221416Y-100925289D01*
X143248130Y-100965269D01*
X143241174Y-100975680D01*
X143096060Y-100898115D01*
X142877400Y-100831785D01*
X142706979Y-100815000D01*
X142576511Y-100815000D01*
X142580268Y-100805929D01*
X142616200Y-100625289D01*
X142616200Y-100441111D01*
X142580268Y-100260471D01*
X142509786Y-100090311D01*
X142407462Y-99937172D01*
X142277228Y-99806938D01*
X142124089Y-99704614D01*
X141953929Y-99634132D01*
X141773289Y-99598200D01*
X141589111Y-99598200D01*
X141408471Y-99634132D01*
X141238311Y-99704614D01*
X141085172Y-99806938D01*
X140954938Y-99937172D01*
X140915168Y-99996691D01*
X140795102Y-100020574D01*
X140606744Y-100098595D01*
X140437226Y-100211863D01*
X140293063Y-100356026D01*
X140179795Y-100525544D01*
X140101774Y-100713902D01*
X140062000Y-100913861D01*
X140062000Y-101117739D01*
X140101774Y-101317698D01*
X140179795Y-101506056D01*
X140293063Y-101675574D01*
X140437226Y-101819737D01*
X140591541Y-101922847D01*
X140655051Y-102076174D01*
X140757375Y-102229313D01*
X140887609Y-102359547D01*
X141040748Y-102461871D01*
X141210908Y-102532353D01*
X141391548Y-102568285D01*
X141451808Y-102568285D01*
X141480829Y-102622579D01*
X141625788Y-102799212D01*
X141802421Y-102944171D01*
X142003940Y-103051885D01*
X142222600Y-103118215D01*
X142393021Y-103135000D01*
X142706979Y-103135000D01*
X142877400Y-103118215D01*
X143096060Y-103051885D01*
X143297579Y-102944171D01*
X143474212Y-102799212D01*
X143619171Y-102622579D01*
X143657920Y-102550084D01*
X143766902Y-102595226D01*
X143966861Y-102635000D01*
X144170739Y-102635000D01*
X144370698Y-102595226D01*
X144414115Y-102577242D01*
X144426159Y-102607052D01*
X144430649Y-102615497D01*
X144470100Y-102688460D01*
X144504821Y-102739936D01*
X144538810Y-102791877D01*
X144544854Y-102799289D01*
X144597726Y-102863200D01*
X144626078Y-102891355D01*
X144466377Y-102976716D01*
X144293551Y-103118551D01*
X144151716Y-103291377D01*
X144046324Y-103488553D01*
X143981423Y-103702501D01*
X143959509Y-103925000D01*
X143981423Y-104147499D01*
X144046324Y-104361447D01*
X144151716Y-104558623D01*
X144293551Y-104731449D01*
X144466377Y-104873284D01*
X144663553Y-104978676D01*
X144877501Y-105043577D01*
X145044248Y-105060000D01*
X146055752Y-105060000D01*
X146222499Y-105043577D01*
X146340001Y-105007933D01*
X146340000Y-120253000D01*
X135608328Y-120253000D01*
X135503743Y-120239231D01*
X135414045Y-120202077D01*
X135337024Y-120142976D01*
X135277923Y-120065955D01*
X135240769Y-119976257D01*
X135227000Y-119871672D01*
X135227000Y-118536537D01*
X137192600Y-118536537D01*
X137192600Y-118750263D01*
X137234296Y-118959883D01*
X137316085Y-119157340D01*
X137434825Y-119335047D01*
X137585953Y-119486175D01*
X137763660Y-119604915D01*
X137961117Y-119686704D01*
X138170737Y-119728400D01*
X138384463Y-119728400D01*
X138594083Y-119686704D01*
X138791540Y-119604915D01*
X138804766Y-119596077D01*
X138900917Y-119635904D01*
X139110537Y-119677600D01*
X139324263Y-119677600D01*
X139533883Y-119635904D01*
X139731340Y-119554115D01*
X139909047Y-119435375D01*
X139939230Y-119405192D01*
X141874414Y-119405192D01*
X142066502Y-119751469D01*
X142492346Y-119972203D01*
X142953071Y-120105618D01*
X143430971Y-120146585D01*
X143907681Y-120093532D01*
X144364881Y-119948498D01*
X144733498Y-119751469D01*
X144925586Y-119405192D01*
X143400000Y-117879605D01*
X141874414Y-119405192D01*
X139939230Y-119405192D01*
X140060175Y-119284247D01*
X140178915Y-119106540D01*
X140223289Y-118999410D01*
X140417140Y-118919115D01*
X140594847Y-118800375D01*
X140745975Y-118649247D01*
X140864715Y-118471540D01*
X140946504Y-118274083D01*
X140988200Y-118064463D01*
X140988200Y-118043533D01*
X141006468Y-118207681D01*
X141151502Y-118664881D01*
X141348531Y-119033498D01*
X141694808Y-119225586D01*
X143220395Y-117700000D01*
X143579605Y-117700000D01*
X145105192Y-119225586D01*
X145451469Y-119033498D01*
X145672203Y-118607654D01*
X145805618Y-118146929D01*
X145846585Y-117669029D01*
X145793532Y-117192319D01*
X145648498Y-116735119D01*
X145451469Y-116366502D01*
X145105192Y-116174414D01*
X143579605Y-117700000D01*
X143220395Y-117700000D01*
X141694808Y-116174414D01*
X141348531Y-116366502D01*
X141127797Y-116792346D01*
X140994382Y-117253071D01*
X140956716Y-117692458D01*
X140946504Y-117641117D01*
X140864715Y-117443660D01*
X140745975Y-117265953D01*
X140594847Y-117114825D01*
X140417140Y-116996085D01*
X140219683Y-116914296D01*
X140010063Y-116872600D01*
X139796337Y-116872600D01*
X139586717Y-116914296D01*
X139389260Y-116996085D01*
X139211553Y-117114825D01*
X139060425Y-117265953D01*
X138941685Y-117443660D01*
X138897311Y-117550790D01*
X138703460Y-117631085D01*
X138690234Y-117639923D01*
X138594083Y-117600096D01*
X138384463Y-117558400D01*
X138170737Y-117558400D01*
X137961117Y-117600096D01*
X137763660Y-117681885D01*
X137585953Y-117800625D01*
X137434825Y-117951753D01*
X137316085Y-118129460D01*
X137234296Y-118326917D01*
X137192600Y-118536537D01*
X135227000Y-118536537D01*
X135227000Y-115994808D01*
X141874414Y-115994808D01*
X143400000Y-117520395D01*
X144925586Y-115994808D01*
X144733498Y-115648531D01*
X144307654Y-115427797D01*
X143846929Y-115294382D01*
X143369029Y-115253415D01*
X142892319Y-115306468D01*
X142435119Y-115451502D01*
X142066502Y-115648531D01*
X141874414Y-115994808D01*
X135227000Y-115994808D01*
X135227000Y-111036000D01*
X135411928Y-111036000D01*
X135424188Y-111160482D01*
X135460498Y-111280180D01*
X135519463Y-111390494D01*
X135598815Y-111487185D01*
X135695506Y-111566537D01*
X135805820Y-111625502D01*
X135925518Y-111661812D01*
X136050000Y-111674072D01*
X136564250Y-111671000D01*
X136723000Y-111512250D01*
X136723000Y-110363000D01*
X136977000Y-110363000D01*
X136977000Y-111512250D01*
X137135750Y-111671000D01*
X137650000Y-111674072D01*
X137774482Y-111661812D01*
X137894180Y-111625502D01*
X138004494Y-111566537D01*
X138101185Y-111487185D01*
X138180537Y-111390494D01*
X138239502Y-111280180D01*
X138275812Y-111160482D01*
X138288072Y-111036000D01*
X138285000Y-110521750D01*
X138126250Y-110363000D01*
X136977000Y-110363000D01*
X136723000Y-110363000D01*
X135573750Y-110363000D01*
X135415000Y-110521750D01*
X135411928Y-111036000D01*
X135227000Y-111036000D01*
X135227000Y-109436000D01*
X135411928Y-109436000D01*
X135415000Y-109950250D01*
X135573750Y-110109000D01*
X136723000Y-110109000D01*
X136723000Y-108959750D01*
X136977000Y-108959750D01*
X136977000Y-110109000D01*
X138126250Y-110109000D01*
X138178113Y-110057137D01*
X143867600Y-110057137D01*
X143867600Y-110270863D01*
X143909296Y-110480483D01*
X143991085Y-110677940D01*
X144109825Y-110855647D01*
X144260953Y-111006775D01*
X144438660Y-111125515D01*
X144636117Y-111207304D01*
X144845737Y-111249000D01*
X145059463Y-111249000D01*
X145269083Y-111207304D01*
X145466540Y-111125515D01*
X145644247Y-111006775D01*
X145795375Y-110855647D01*
X145914115Y-110677940D01*
X145995904Y-110480483D01*
X146037600Y-110270863D01*
X146037600Y-110057137D01*
X145995904Y-109847517D01*
X145914115Y-109650060D01*
X145795375Y-109472353D01*
X145644247Y-109321225D01*
X145466540Y-109202485D01*
X145269083Y-109120696D01*
X145059463Y-109079000D01*
X144845737Y-109079000D01*
X144636117Y-109120696D01*
X144438660Y-109202485D01*
X144260953Y-109321225D01*
X144109825Y-109472353D01*
X143991085Y-109650060D01*
X143909296Y-109847517D01*
X143867600Y-110057137D01*
X138178113Y-110057137D01*
X138285000Y-109950250D01*
X138288072Y-109436000D01*
X138275812Y-109311518D01*
X138239502Y-109191820D01*
X138180537Y-109081506D01*
X138101185Y-108984815D01*
X138004494Y-108905463D01*
X137894180Y-108846498D01*
X137774482Y-108810188D01*
X137650000Y-108797928D01*
X137135750Y-108801000D01*
X136977000Y-108959750D01*
X136723000Y-108959750D01*
X136564250Y-108801000D01*
X136050000Y-108797928D01*
X135925518Y-108810188D01*
X135805820Y-108846498D01*
X135695506Y-108905463D01*
X135598815Y-108984815D01*
X135519463Y-109081506D01*
X135460498Y-109191820D01*
X135424188Y-109311518D01*
X135411928Y-109436000D01*
X135227000Y-109436000D01*
X135227000Y-103793137D01*
X136615000Y-103793137D01*
X136615000Y-104006863D01*
X136656696Y-104216483D01*
X136738485Y-104413940D01*
X136857225Y-104591647D01*
X137008353Y-104742775D01*
X137186060Y-104861515D01*
X137383517Y-104943304D01*
X137593137Y-104985000D01*
X137806863Y-104985000D01*
X138016483Y-104943304D01*
X138213940Y-104861515D01*
X138391647Y-104742775D01*
X138542775Y-104591647D01*
X138661515Y-104413940D01*
X138743304Y-104216483D01*
X138785000Y-104006863D01*
X138785000Y-103793137D01*
X138743304Y-103583517D01*
X138661515Y-103386060D01*
X138542775Y-103208353D01*
X138391647Y-103057225D01*
X138213940Y-102938485D01*
X138016483Y-102856696D01*
X137806863Y-102815000D01*
X137593137Y-102815000D01*
X137383517Y-102856696D01*
X137186060Y-102938485D01*
X137008353Y-103057225D01*
X136857225Y-103208353D01*
X136738485Y-103386060D01*
X136656696Y-103583517D01*
X136615000Y-103793137D01*
X135227000Y-103793137D01*
X135227000Y-96383328D01*
X135240769Y-96278743D01*
X135277923Y-96189045D01*
X135337024Y-96112024D01*
X135414045Y-96052923D01*
X135503743Y-96015769D01*
X135608328Y-96002000D01*
X139216883Y-96002000D01*
X139116426Y-96069123D01*
G37*
X139116426Y-96069123D02*
X138972263Y-96213286D01*
X138858995Y-96382804D01*
X138780974Y-96571162D01*
X138741200Y-96771121D01*
X138741200Y-96974999D01*
X138780974Y-97174958D01*
X138858995Y-97363316D01*
X138972263Y-97532834D01*
X139116426Y-97676997D01*
X139285944Y-97790265D01*
X139474302Y-97868286D01*
X139674261Y-97908060D01*
X139878139Y-97908060D01*
X140078098Y-97868286D01*
X140266456Y-97790265D01*
X140435974Y-97676997D01*
X140580137Y-97532834D01*
X140585371Y-97525000D01*
X141284388Y-97525000D01*
X141306785Y-97752400D01*
X141373115Y-97971060D01*
X141480829Y-98172579D01*
X141625788Y-98349212D01*
X141802421Y-98494171D01*
X142003940Y-98601885D01*
X142222600Y-98668215D01*
X142393021Y-98685000D01*
X142706979Y-98685000D01*
X142877400Y-98668215D01*
X143096060Y-98601885D01*
X143297579Y-98494171D01*
X143474212Y-98349212D01*
X143619171Y-98172579D01*
X143726885Y-97971060D01*
X143793215Y-97752400D01*
X143815612Y-97525000D01*
X143793215Y-97297600D01*
X143726885Y-97078940D01*
X143619171Y-96877421D01*
X143474212Y-96700788D01*
X143297579Y-96555829D01*
X143096060Y-96448115D01*
X142877400Y-96381785D01*
X142706979Y-96365000D01*
X142393021Y-96365000D01*
X142222600Y-96381785D01*
X142003940Y-96448115D01*
X141802421Y-96555829D01*
X141625788Y-96700788D01*
X141480829Y-96877421D01*
X141373115Y-97078940D01*
X141306785Y-97297600D01*
X141284388Y-97525000D01*
X140585371Y-97525000D01*
X140693405Y-97363316D01*
X140771426Y-97174958D01*
X140811200Y-96974999D01*
X140811200Y-96771121D01*
X140771426Y-96571162D01*
X140693405Y-96382804D01*
X140580137Y-96213286D01*
X140435974Y-96069123D01*
X140335517Y-96002000D01*
X144043458Y-96002000D01*
X144046324Y-96011447D01*
X144151716Y-96208623D01*
X144293551Y-96381449D01*
X144466377Y-96523284D01*
X144626116Y-96608666D01*
X144593546Y-96641009D01*
X144587501Y-96648421D01*
X144535527Y-96713064D01*
X144501542Y-96764999D01*
X144466816Y-96816483D01*
X144462326Y-96824928D01*
X144423898Y-96898434D01*
X144400640Y-96955999D01*
X144376582Y-97013232D01*
X144373817Y-97022388D01*
X144350398Y-97101959D01*
X144338760Y-97162969D01*
X144326281Y-97223758D01*
X144325347Y-97233276D01*
X144317830Y-97315880D01*
X144318263Y-97377968D01*
X144317830Y-97440057D01*
X144318763Y-97449576D01*
X144327434Y-97532066D01*
X144339920Y-97592891D01*
X144351550Y-97653857D01*
X144354314Y-97663013D01*
X144378841Y-97742249D01*
X144402894Y-97799469D01*
X144426159Y-97857052D01*
X144430649Y-97865497D01*
X144470100Y-97938460D01*
X144504821Y-97989936D01*
X144538810Y-98041877D01*
X144544854Y-98049289D01*
X144597726Y-98113200D01*
X144641767Y-98156935D01*
X144685224Y-98201311D01*
X144692593Y-98207408D01*
X144756872Y-98259832D01*
X144808616Y-98294210D01*
X144859810Y-98329263D01*
X144868223Y-98333812D01*
X144941459Y-98372752D01*
X144998866Y-98396413D01*
X145055920Y-98420867D01*
X145065054Y-98423694D01*
X145065061Y-98423697D01*
X145065069Y-98423699D01*
X145144461Y-98447669D01*
X145205337Y-98459723D01*
X145266095Y-98472637D01*
X145275607Y-98473637D01*
X145358157Y-98481731D01*
X145358163Y-98481731D01*
X145391353Y-98485000D01*
X146315001Y-98485000D01*
X146315000Y-101015000D01*
X145391353Y-101015000D01*
X145357737Y-101018311D01*
X145352220Y-101018311D01*
X145342708Y-101019310D01*
X145307523Y-101023257D01*
X145290717Y-101024912D01*
X145289515Y-101025277D01*
X145260280Y-101028556D01*
X145199514Y-101041472D01*
X145138654Y-101053523D01*
X145129518Y-101056351D01*
X145129512Y-101056352D01*
X145129507Y-101056354D01*
X145050454Y-101081431D01*
X144993382Y-101105892D01*
X144985580Y-101109108D01*
X144872737Y-100940226D01*
X144870262Y-100937751D01*
X144878588Y-100925289D01*
X144949070Y-100755129D01*
X144985002Y-100574489D01*
X144985002Y-100390311D01*
X144949070Y-100209671D01*
X144878588Y-100039511D01*
X144776264Y-99886372D01*
X144646030Y-99756138D01*
X144492891Y-99653814D01*
X144322731Y-99583332D01*
X144142091Y-99547400D01*
X143957913Y-99547400D01*
X143777273Y-99583332D01*
X143607113Y-99653814D01*
X143453974Y-99756138D01*
X143323740Y-99886372D01*
X143221416Y-100039511D01*
X143150934Y-100209671D01*
X143115002Y-100390311D01*
X143115002Y-100574489D01*
X143150934Y-100755129D01*
X143221416Y-100925289D01*
X143248130Y-100965269D01*
X143241174Y-100975680D01*
X143096060Y-100898115D01*
X142877400Y-100831785D01*
X142706979Y-100815000D01*
X142576511Y-100815000D01*
X142580268Y-100805929D01*
X142616200Y-100625289D01*
X142616200Y-100441111D01*
X142580268Y-100260471D01*
X142509786Y-100090311D01*
X142407462Y-99937172D01*
X142277228Y-99806938D01*
X142124089Y-99704614D01*
X141953929Y-99634132D01*
X141773289Y-99598200D01*
X141589111Y-99598200D01*
X141408471Y-99634132D01*
X141238311Y-99704614D01*
X141085172Y-99806938D01*
X140954938Y-99937172D01*
X140915168Y-99996691D01*
X140795102Y-100020574D01*
X140606744Y-100098595D01*
X140437226Y-100211863D01*
X140293063Y-100356026D01*
X140179795Y-100525544D01*
X140101774Y-100713902D01*
X140062000Y-100913861D01*
X140062000Y-101117739D01*
X140101774Y-101317698D01*
X140179795Y-101506056D01*
X140293063Y-101675574D01*
X140437226Y-101819737D01*
X140591541Y-101922847D01*
X140655051Y-102076174D01*
X140757375Y-102229313D01*
X140887609Y-102359547D01*
X141040748Y-102461871D01*
X141210908Y-102532353D01*
X141391548Y-102568285D01*
X141451808Y-102568285D01*
X141480829Y-102622579D01*
X141625788Y-102799212D01*
X141802421Y-102944171D01*
X142003940Y-103051885D01*
X142222600Y-103118215D01*
X142393021Y-103135000D01*
X142706979Y-103135000D01*
X142877400Y-103118215D01*
X143096060Y-103051885D01*
X143297579Y-102944171D01*
X143474212Y-102799212D01*
X143619171Y-102622579D01*
X143657920Y-102550084D01*
X143766902Y-102595226D01*
X143966861Y-102635000D01*
X144170739Y-102635000D01*
X144370698Y-102595226D01*
X144414115Y-102577242D01*
X144426159Y-102607052D01*
X144430649Y-102615497D01*
X144470100Y-102688460D01*
X144504821Y-102739936D01*
X144538810Y-102791877D01*
X144544854Y-102799289D01*
X144597726Y-102863200D01*
X144626078Y-102891355D01*
X144466377Y-102976716D01*
X144293551Y-103118551D01*
X144151716Y-103291377D01*
X144046324Y-103488553D01*
X143981423Y-103702501D01*
X143959509Y-103925000D01*
X143981423Y-104147499D01*
X144046324Y-104361447D01*
X144151716Y-104558623D01*
X144293551Y-104731449D01*
X144466377Y-104873284D01*
X144663553Y-104978676D01*
X144877501Y-105043577D01*
X145044248Y-105060000D01*
X146055752Y-105060000D01*
X146222499Y-105043577D01*
X146340001Y-105007933D01*
X146340000Y-120253000D01*
X135608328Y-120253000D01*
X135503743Y-120239231D01*
X135414045Y-120202077D01*
X135337024Y-120142976D01*
X135277923Y-120065955D01*
X135240769Y-119976257D01*
X135227000Y-119871672D01*
X135227000Y-118536537D01*
X137192600Y-118536537D01*
X137192600Y-118750263D01*
X137234296Y-118959883D01*
X137316085Y-119157340D01*
X137434825Y-119335047D01*
X137585953Y-119486175D01*
X137763660Y-119604915D01*
X137961117Y-119686704D01*
X138170737Y-119728400D01*
X138384463Y-119728400D01*
X138594083Y-119686704D01*
X138791540Y-119604915D01*
X138804766Y-119596077D01*
X138900917Y-119635904D01*
X139110537Y-119677600D01*
X139324263Y-119677600D01*
X139533883Y-119635904D01*
X139731340Y-119554115D01*
X139909047Y-119435375D01*
X139939230Y-119405192D01*
X141874414Y-119405192D01*
X142066502Y-119751469D01*
X142492346Y-119972203D01*
X142953071Y-120105618D01*
X143430971Y-120146585D01*
X143907681Y-120093532D01*
X144364881Y-119948498D01*
X144733498Y-119751469D01*
X144925586Y-119405192D01*
X143400000Y-117879605D01*
X141874414Y-119405192D01*
X139939230Y-119405192D01*
X140060175Y-119284247D01*
X140178915Y-119106540D01*
X140223289Y-118999410D01*
X140417140Y-118919115D01*
X140594847Y-118800375D01*
X140745975Y-118649247D01*
X140864715Y-118471540D01*
X140946504Y-118274083D01*
X140988200Y-118064463D01*
X140988200Y-118043533D01*
X141006468Y-118207681D01*
X141151502Y-118664881D01*
X141348531Y-119033498D01*
X141694808Y-119225586D01*
X143220395Y-117700000D01*
X143579605Y-117700000D01*
X145105192Y-119225586D01*
X145451469Y-119033498D01*
X145672203Y-118607654D01*
X145805618Y-118146929D01*
X145846585Y-117669029D01*
X145793532Y-117192319D01*
X145648498Y-116735119D01*
X145451469Y-116366502D01*
X145105192Y-116174414D01*
X143579605Y-117700000D01*
X143220395Y-117700000D01*
X141694808Y-116174414D01*
X141348531Y-116366502D01*
X141127797Y-116792346D01*
X140994382Y-117253071D01*
X140956716Y-117692458D01*
X140946504Y-117641117D01*
X140864715Y-117443660D01*
X140745975Y-117265953D01*
X140594847Y-117114825D01*
X140417140Y-116996085D01*
X140219683Y-116914296D01*
X140010063Y-116872600D01*
X139796337Y-116872600D01*
X139586717Y-116914296D01*
X139389260Y-116996085D01*
X139211553Y-117114825D01*
X139060425Y-117265953D01*
X138941685Y-117443660D01*
X138897311Y-117550790D01*
X138703460Y-117631085D01*
X138690234Y-117639923D01*
X138594083Y-117600096D01*
X138384463Y-117558400D01*
X138170737Y-117558400D01*
X137961117Y-117600096D01*
X137763660Y-117681885D01*
X137585953Y-117800625D01*
X137434825Y-117951753D01*
X137316085Y-118129460D01*
X137234296Y-118326917D01*
X137192600Y-118536537D01*
X135227000Y-118536537D01*
X135227000Y-115994808D01*
X141874414Y-115994808D01*
X143400000Y-117520395D01*
X144925586Y-115994808D01*
X144733498Y-115648531D01*
X144307654Y-115427797D01*
X143846929Y-115294382D01*
X143369029Y-115253415D01*
X142892319Y-115306468D01*
X142435119Y-115451502D01*
X142066502Y-115648531D01*
X141874414Y-115994808D01*
X135227000Y-115994808D01*
X135227000Y-111036000D01*
X135411928Y-111036000D01*
X135424188Y-111160482D01*
X135460498Y-111280180D01*
X135519463Y-111390494D01*
X135598815Y-111487185D01*
X135695506Y-111566537D01*
X135805820Y-111625502D01*
X135925518Y-111661812D01*
X136050000Y-111674072D01*
X136564250Y-111671000D01*
X136723000Y-111512250D01*
X136723000Y-110363000D01*
X136977000Y-110363000D01*
X136977000Y-111512250D01*
X137135750Y-111671000D01*
X137650000Y-111674072D01*
X137774482Y-111661812D01*
X137894180Y-111625502D01*
X138004494Y-111566537D01*
X138101185Y-111487185D01*
X138180537Y-111390494D01*
X138239502Y-111280180D01*
X138275812Y-111160482D01*
X138288072Y-111036000D01*
X138285000Y-110521750D01*
X138126250Y-110363000D01*
X136977000Y-110363000D01*
X136723000Y-110363000D01*
X135573750Y-110363000D01*
X135415000Y-110521750D01*
X135411928Y-111036000D01*
X135227000Y-111036000D01*
X135227000Y-109436000D01*
X135411928Y-109436000D01*
X135415000Y-109950250D01*
X135573750Y-110109000D01*
X136723000Y-110109000D01*
X136723000Y-108959750D01*
X136977000Y-108959750D01*
X136977000Y-110109000D01*
X138126250Y-110109000D01*
X138178113Y-110057137D01*
X143867600Y-110057137D01*
X143867600Y-110270863D01*
X143909296Y-110480483D01*
X143991085Y-110677940D01*
X144109825Y-110855647D01*
X144260953Y-111006775D01*
X144438660Y-111125515D01*
X144636117Y-111207304D01*
X144845737Y-111249000D01*
X145059463Y-111249000D01*
X145269083Y-111207304D01*
X145466540Y-111125515D01*
X145644247Y-111006775D01*
X145795375Y-110855647D01*
X145914115Y-110677940D01*
X145995904Y-110480483D01*
X146037600Y-110270863D01*
X146037600Y-110057137D01*
X145995904Y-109847517D01*
X145914115Y-109650060D01*
X145795375Y-109472353D01*
X145644247Y-109321225D01*
X145466540Y-109202485D01*
X145269083Y-109120696D01*
X145059463Y-109079000D01*
X144845737Y-109079000D01*
X144636117Y-109120696D01*
X144438660Y-109202485D01*
X144260953Y-109321225D01*
X144109825Y-109472353D01*
X143991085Y-109650060D01*
X143909296Y-109847517D01*
X143867600Y-110057137D01*
X138178113Y-110057137D01*
X138285000Y-109950250D01*
X138288072Y-109436000D01*
X138275812Y-109311518D01*
X138239502Y-109191820D01*
X138180537Y-109081506D01*
X138101185Y-108984815D01*
X138004494Y-108905463D01*
X137894180Y-108846498D01*
X137774482Y-108810188D01*
X137650000Y-108797928D01*
X137135750Y-108801000D01*
X136977000Y-108959750D01*
X136723000Y-108959750D01*
X136564250Y-108801000D01*
X136050000Y-108797928D01*
X135925518Y-108810188D01*
X135805820Y-108846498D01*
X135695506Y-108905463D01*
X135598815Y-108984815D01*
X135519463Y-109081506D01*
X135460498Y-109191820D01*
X135424188Y-109311518D01*
X135411928Y-109436000D01*
X135227000Y-109436000D01*
X135227000Y-103793137D01*
X136615000Y-103793137D01*
X136615000Y-104006863D01*
X136656696Y-104216483D01*
X136738485Y-104413940D01*
X136857225Y-104591647D01*
X137008353Y-104742775D01*
X137186060Y-104861515D01*
X137383517Y-104943304D01*
X137593137Y-104985000D01*
X137806863Y-104985000D01*
X138016483Y-104943304D01*
X138213940Y-104861515D01*
X138391647Y-104742775D01*
X138542775Y-104591647D01*
X138661515Y-104413940D01*
X138743304Y-104216483D01*
X138785000Y-104006863D01*
X138785000Y-103793137D01*
X138743304Y-103583517D01*
X138661515Y-103386060D01*
X138542775Y-103208353D01*
X138391647Y-103057225D01*
X138213940Y-102938485D01*
X138016483Y-102856696D01*
X137806863Y-102815000D01*
X137593137Y-102815000D01*
X137383517Y-102856696D01*
X137186060Y-102938485D01*
X137008353Y-103057225D01*
X136857225Y-103208353D01*
X136738485Y-103386060D01*
X136656696Y-103583517D01*
X136615000Y-103793137D01*
X135227000Y-103793137D01*
X135227000Y-96383328D01*
X135240769Y-96278743D01*
X135277923Y-96189045D01*
X135337024Y-96112024D01*
X135414045Y-96052923D01*
X135503743Y-96015769D01*
X135608328Y-96002000D01*
X139216883Y-96002000D01*
X139116426Y-96069123D01*
%TD*%
M02*
