%TF.GenerationSoftware,KiCad,Pcbnew,5.1.6*%
%TF.CreationDate,2021-04-06T07:59:24+02:00*%
%TF.ProjectId,teriyaki,74657269-7961-46b6-992e-6b696361645f,rev?*%
%TF.SameCoordinates,Original*%
%TF.FileFunction,Soldermask,Bot*%
%TF.FilePolarity,Negative*%
%FSLAX46Y46*%
G04 Gerber Fmt 4.6, Leading zero omitted, Abs format (unit mm)*
G04 Created by KiCad (PCBNEW 5.1.6) date 2021-04-06 07:59:24*
%MOMM*%
%LPD*%
G01*
G04 APERTURE LIST*
%ADD10O,1.800000X1.800000*%
%ADD11R,1.800000X1.800000*%
%ADD12C,0.900000*%
%ADD13C,7.100000*%
%ADD14C,1.700000*%
%ADD15R,1.700000X1.700000*%
%ADD16O,1.350000X1.150000*%
%ADD17O,2.000000X1.100000*%
%ADD18C,3.700000*%
G04 APERTURE END LIST*
D10*
%TO.C,J3*%
X98830000Y-89680000D03*
X101370000Y-89680000D03*
X103910000Y-89680000D03*
X106450000Y-89680000D03*
X108990000Y-89680000D03*
X111530000Y-89680000D03*
X114070000Y-89680000D03*
X116610000Y-89680000D03*
X119150000Y-89680000D03*
D11*
X121690000Y-89680000D03*
%TD*%
D10*
%TO.C,J4*%
X93230000Y-95430000D03*
D11*
X93230000Y-97970000D03*
%TD*%
D12*
%TO.C,H3*%
X93856155Y-122843845D03*
X92000000Y-122075000D03*
X90143845Y-122843845D03*
X89375000Y-124700000D03*
X90143845Y-126556155D03*
X92000000Y-127325000D03*
X93856155Y-126556155D03*
X94625000Y-124700000D03*
D13*
X92000000Y-124700000D03*
%TD*%
D12*
%TO.C,H4*%
X143856155Y-87843845D03*
X142000000Y-87075000D03*
X140143845Y-87843845D03*
X139375000Y-89700000D03*
X140143845Y-91556155D03*
X142000000Y-92325000D03*
X143856155Y-91556155D03*
X144625000Y-89700000D03*
D13*
X142000000Y-89700000D03*
%TD*%
D12*
%TO.C,H2*%
X93856155Y-87843845D03*
X92000000Y-87075000D03*
X90143845Y-87843845D03*
X89375000Y-89700000D03*
X90143845Y-91556155D03*
X92000000Y-92325000D03*
X93856155Y-91556155D03*
X94625000Y-89700000D03*
D13*
X92000000Y-89700000D03*
%TD*%
D12*
%TO.C,H1*%
X143856155Y-122843845D03*
X142000000Y-122075000D03*
X140143845Y-122843845D03*
X139375000Y-124700000D03*
X140143845Y-126556155D03*
X142000000Y-127325000D03*
X143856155Y-126556155D03*
X144625000Y-124700000D03*
D13*
X142000000Y-124700000D03*
%TD*%
D14*
%TO.C,C2*%
X133350000Y-110236000D03*
D15*
X136850000Y-110236000D03*
%TD*%
D14*
%TO.C,C7*%
X114325400Y-122549800D03*
D15*
X114325400Y-119049800D03*
%TD*%
D16*
%TO.C,J1*%
X142550000Y-101975000D03*
X142550000Y-97525000D03*
D17*
X145550000Y-103925000D03*
X145550000Y-95575000D03*
%TD*%
D10*
%TO.C,J2*%
X121700000Y-105590000D03*
D11*
X121700000Y-103050000D03*
%TD*%
D10*
%TO.C,J_SWIM1*%
X93230000Y-110670000D03*
X93230000Y-108130000D03*
X93230000Y-105590000D03*
D11*
X93230000Y-103050000D03*
%TD*%
D18*
%TO.C,TP1*%
X120680000Y-124690000D03*
%TD*%
%TO.C,TP2*%
X143400000Y-117700000D03*
%TD*%
M02*
