%TF.GenerationSoftware,KiCad,Pcbnew,5.1.6*%
%TF.CreationDate,2021-04-04T19:37:59+02:00*%
%TF.ProjectId,teriyaki,74657269-7961-46b6-992e-6b696361645f,rev?*%
%TF.SameCoordinates,Original*%
%TF.FileFunction,Soldermask,Bot*%
%TF.FilePolarity,Negative*%
%FSLAX46Y46*%
G04 Gerber Fmt 4.6, Leading zero omitted, Abs format (unit mm)*
G04 Created by KiCad (PCBNEW 5.1.6) date 2021-04-04 19:37:59*
%MOMM*%
%LPD*%
G01*
G04 APERTURE LIST*
%ADD10O,1.800000X1.800000*%
%ADD11R,1.800000X1.800000*%
%ADD12C,0.900000*%
%ADD13C,7.100000*%
%ADD14C,1.700000*%
%ADD15R,1.700000X1.700000*%
%ADD16O,2.000000X1.100000*%
%ADD17O,1.350000X1.150000*%
%ADD18C,3.700000*%
G04 APERTURE END LIST*
D10*
%TO.C,J3*%
X92000000Y-118600000D03*
X92000000Y-116060000D03*
X92000000Y-113520000D03*
X92000000Y-110980000D03*
X92000000Y-108440000D03*
X92000000Y-105900000D03*
X92000000Y-103360000D03*
X92000000Y-100820000D03*
X92000000Y-98280000D03*
D11*
X92000000Y-95740000D03*
%TD*%
D10*
%TO.C,J4*%
X103300000Y-124700000D03*
D11*
X105840000Y-124700000D03*
%TD*%
D12*
%TO.C,H3*%
X93856155Y-122843845D03*
X92000000Y-122075000D03*
X90143845Y-122843845D03*
X89375000Y-124700000D03*
X90143845Y-126556155D03*
X92000000Y-127325000D03*
X93856155Y-126556155D03*
X94625000Y-124700000D03*
D13*
X92000000Y-124700000D03*
%TD*%
D12*
%TO.C,H4*%
X143856155Y-87843845D03*
X142000000Y-87075000D03*
X140143845Y-87843845D03*
X139375000Y-89700000D03*
X140143845Y-91556155D03*
X142000000Y-92325000D03*
X143856155Y-91556155D03*
X144625000Y-89700000D03*
D13*
X142000000Y-89700000D03*
%TD*%
D12*
%TO.C,H2*%
X93856155Y-87843845D03*
X92000000Y-87075000D03*
X90143845Y-87843845D03*
X89375000Y-89700000D03*
X90143845Y-91556155D03*
X92000000Y-92325000D03*
X93856155Y-91556155D03*
X94625000Y-89700000D03*
D13*
X92000000Y-89700000D03*
%TD*%
D12*
%TO.C,H1*%
X143856155Y-122843845D03*
X142000000Y-122075000D03*
X140143845Y-122843845D03*
X139375000Y-124700000D03*
X140143845Y-126556155D03*
X142000000Y-127325000D03*
X143856155Y-126556155D03*
X144625000Y-124700000D03*
D13*
X142000000Y-124700000D03*
%TD*%
D14*
%TO.C,C2*%
X133350000Y-110236000D03*
D15*
X136850000Y-110236000D03*
%TD*%
D14*
%TO.C,C7*%
X124700000Y-107200000D03*
D15*
X121200000Y-107200000D03*
%TD*%
D16*
%TO.C,J1*%
X145550000Y-95575000D03*
X145550000Y-103925000D03*
D17*
X142550000Y-97525000D03*
X142550000Y-101975000D03*
%TD*%
D10*
%TO.C,J2*%
X111120000Y-89680000D03*
D11*
X113660000Y-89680000D03*
%TD*%
D10*
%TO.C,J_SWIM1*%
X106035000Y-89700000D03*
X103495000Y-89700000D03*
X100955000Y-89700000D03*
D11*
X98415000Y-89700000D03*
%TD*%
D18*
%TO.C,TP1*%
X120680000Y-124690000D03*
%TD*%
%TO.C,TP2*%
X143400000Y-117700000D03*
%TD*%
M02*
