%TF.GenerationSoftware,KiCad,Pcbnew,5.1.6*%
%TF.CreationDate,2021-04-04T19:37:59+02:00*%
%TF.ProjectId,teriyaki,74657269-7961-46b6-992e-6b696361645f,rev?*%
%TF.SameCoordinates,Original*%
%TF.FileFunction,Soldermask,Top*%
%TF.FilePolarity,Negative*%
%FSLAX46Y46*%
G04 Gerber Fmt 4.6, Leading zero omitted, Abs format (unit mm)*
G04 Created by KiCad (PCBNEW 5.1.6) date 2021-04-04 19:37:59*
%MOMM*%
%LPD*%
G01*
G04 APERTURE LIST*
%ADD10O,1.800000X1.800000*%
%ADD11R,1.800000X1.800000*%
%ADD12C,0.900000*%
%ADD13C,7.100000*%
%ADD14C,1.700000*%
%ADD15R,1.700000X1.700000*%
%ADD16R,1.900000X2.600000*%
%ADD17R,2.000000X0.975000*%
%ADD18R,2.000000X3.000000*%
%ADD19R,1.450000X0.500000*%
%ADD20O,2.000000X1.100000*%
%ADD21O,1.350000X1.150000*%
%ADD22R,1.600000X2.300000*%
%ADD23C,3.700000*%
%ADD24R,3.200000X2.510000*%
%ADD25R,0.550000X1.850000*%
%ADD26R,1.160000X0.750000*%
%ADD27R,1.300000X1.500000*%
G04 APERTURE END LIST*
D10*
%TO.C,J3*%
X92000000Y-118600000D03*
X92000000Y-116060000D03*
X92000000Y-113520000D03*
X92000000Y-110980000D03*
X92000000Y-108440000D03*
X92000000Y-105900000D03*
X92000000Y-103360000D03*
X92000000Y-100820000D03*
X92000000Y-98280000D03*
D11*
X92000000Y-95740000D03*
%TD*%
D10*
%TO.C,J4*%
X103300000Y-124700000D03*
D11*
X105840000Y-124700000D03*
%TD*%
%TO.C,U2*%
G36*
G01*
X102162500Y-112175000D02*
X102162500Y-112425000D01*
G75*
G02*
X102037500Y-112550000I-125000J0D01*
G01*
X100712500Y-112550000D01*
G75*
G02*
X100587500Y-112425000I0J125000D01*
G01*
X100587500Y-112175000D01*
G75*
G02*
X100712500Y-112050000I125000J0D01*
G01*
X102037500Y-112050000D01*
G75*
G02*
X102162500Y-112175000I0J-125000D01*
G01*
G37*
G36*
G01*
X102162500Y-111525000D02*
X102162500Y-111775000D01*
G75*
G02*
X102037500Y-111900000I-125000J0D01*
G01*
X100712500Y-111900000D01*
G75*
G02*
X100587500Y-111775000I0J125000D01*
G01*
X100587500Y-111525000D01*
G75*
G02*
X100712500Y-111400000I125000J0D01*
G01*
X102037500Y-111400000D01*
G75*
G02*
X102162500Y-111525000I0J-125000D01*
G01*
G37*
G36*
G01*
X102162500Y-110875000D02*
X102162500Y-111125000D01*
G75*
G02*
X102037500Y-111250000I-125000J0D01*
G01*
X100712500Y-111250000D01*
G75*
G02*
X100587500Y-111125000I0J125000D01*
G01*
X100587500Y-110875000D01*
G75*
G02*
X100712500Y-110750000I125000J0D01*
G01*
X102037500Y-110750000D01*
G75*
G02*
X102162500Y-110875000I0J-125000D01*
G01*
G37*
G36*
G01*
X102162500Y-110225000D02*
X102162500Y-110475000D01*
G75*
G02*
X102037500Y-110600000I-125000J0D01*
G01*
X100712500Y-110600000D01*
G75*
G02*
X100587500Y-110475000I0J125000D01*
G01*
X100587500Y-110225000D01*
G75*
G02*
X100712500Y-110100000I125000J0D01*
G01*
X102037500Y-110100000D01*
G75*
G02*
X102162500Y-110225000I0J-125000D01*
G01*
G37*
G36*
G01*
X102162500Y-109575000D02*
X102162500Y-109825000D01*
G75*
G02*
X102037500Y-109950000I-125000J0D01*
G01*
X100712500Y-109950000D01*
G75*
G02*
X100587500Y-109825000I0J125000D01*
G01*
X100587500Y-109575000D01*
G75*
G02*
X100712500Y-109450000I125000J0D01*
G01*
X102037500Y-109450000D01*
G75*
G02*
X102162500Y-109575000I0J-125000D01*
G01*
G37*
G36*
G01*
X102162500Y-108925000D02*
X102162500Y-109175000D01*
G75*
G02*
X102037500Y-109300000I-125000J0D01*
G01*
X100712500Y-109300000D01*
G75*
G02*
X100587500Y-109175000I0J125000D01*
G01*
X100587500Y-108925000D01*
G75*
G02*
X100712500Y-108800000I125000J0D01*
G01*
X102037500Y-108800000D01*
G75*
G02*
X102162500Y-108925000I0J-125000D01*
G01*
G37*
G36*
G01*
X102162500Y-108275000D02*
X102162500Y-108525000D01*
G75*
G02*
X102037500Y-108650000I-125000J0D01*
G01*
X100712500Y-108650000D01*
G75*
G02*
X100587500Y-108525000I0J125000D01*
G01*
X100587500Y-108275000D01*
G75*
G02*
X100712500Y-108150000I125000J0D01*
G01*
X102037500Y-108150000D01*
G75*
G02*
X102162500Y-108275000I0J-125000D01*
G01*
G37*
G36*
G01*
X102162500Y-107625000D02*
X102162500Y-107875000D01*
G75*
G02*
X102037500Y-108000000I-125000J0D01*
G01*
X100712500Y-108000000D01*
G75*
G02*
X100587500Y-107875000I0J125000D01*
G01*
X100587500Y-107625000D01*
G75*
G02*
X100712500Y-107500000I125000J0D01*
G01*
X102037500Y-107500000D01*
G75*
G02*
X102162500Y-107625000I0J-125000D01*
G01*
G37*
G36*
G01*
X102162500Y-106975000D02*
X102162500Y-107225000D01*
G75*
G02*
X102037500Y-107350000I-125000J0D01*
G01*
X100712500Y-107350000D01*
G75*
G02*
X100587500Y-107225000I0J125000D01*
G01*
X100587500Y-106975000D01*
G75*
G02*
X100712500Y-106850000I125000J0D01*
G01*
X102037500Y-106850000D01*
G75*
G02*
X102162500Y-106975000I0J-125000D01*
G01*
G37*
G36*
G01*
X102162500Y-106325000D02*
X102162500Y-106575000D01*
G75*
G02*
X102037500Y-106700000I-125000J0D01*
G01*
X100712500Y-106700000D01*
G75*
G02*
X100587500Y-106575000I0J125000D01*
G01*
X100587500Y-106325000D01*
G75*
G02*
X100712500Y-106200000I125000J0D01*
G01*
X102037500Y-106200000D01*
G75*
G02*
X102162500Y-106325000I0J-125000D01*
G01*
G37*
G36*
G01*
X107887500Y-106325000D02*
X107887500Y-106575000D01*
G75*
G02*
X107762500Y-106700000I-125000J0D01*
G01*
X106437500Y-106700000D01*
G75*
G02*
X106312500Y-106575000I0J125000D01*
G01*
X106312500Y-106325000D01*
G75*
G02*
X106437500Y-106200000I125000J0D01*
G01*
X107762500Y-106200000D01*
G75*
G02*
X107887500Y-106325000I0J-125000D01*
G01*
G37*
G36*
G01*
X107887500Y-106975000D02*
X107887500Y-107225000D01*
G75*
G02*
X107762500Y-107350000I-125000J0D01*
G01*
X106437500Y-107350000D01*
G75*
G02*
X106312500Y-107225000I0J125000D01*
G01*
X106312500Y-106975000D01*
G75*
G02*
X106437500Y-106850000I125000J0D01*
G01*
X107762500Y-106850000D01*
G75*
G02*
X107887500Y-106975000I0J-125000D01*
G01*
G37*
G36*
G01*
X107887500Y-107625000D02*
X107887500Y-107875000D01*
G75*
G02*
X107762500Y-108000000I-125000J0D01*
G01*
X106437500Y-108000000D01*
G75*
G02*
X106312500Y-107875000I0J125000D01*
G01*
X106312500Y-107625000D01*
G75*
G02*
X106437500Y-107500000I125000J0D01*
G01*
X107762500Y-107500000D01*
G75*
G02*
X107887500Y-107625000I0J-125000D01*
G01*
G37*
G36*
G01*
X107887500Y-108275000D02*
X107887500Y-108525000D01*
G75*
G02*
X107762500Y-108650000I-125000J0D01*
G01*
X106437500Y-108650000D01*
G75*
G02*
X106312500Y-108525000I0J125000D01*
G01*
X106312500Y-108275000D01*
G75*
G02*
X106437500Y-108150000I125000J0D01*
G01*
X107762500Y-108150000D01*
G75*
G02*
X107887500Y-108275000I0J-125000D01*
G01*
G37*
G36*
G01*
X107887500Y-108925000D02*
X107887500Y-109175000D01*
G75*
G02*
X107762500Y-109300000I-125000J0D01*
G01*
X106437500Y-109300000D01*
G75*
G02*
X106312500Y-109175000I0J125000D01*
G01*
X106312500Y-108925000D01*
G75*
G02*
X106437500Y-108800000I125000J0D01*
G01*
X107762500Y-108800000D01*
G75*
G02*
X107887500Y-108925000I0J-125000D01*
G01*
G37*
G36*
G01*
X107887500Y-109575000D02*
X107887500Y-109825000D01*
G75*
G02*
X107762500Y-109950000I-125000J0D01*
G01*
X106437500Y-109950000D01*
G75*
G02*
X106312500Y-109825000I0J125000D01*
G01*
X106312500Y-109575000D01*
G75*
G02*
X106437500Y-109450000I125000J0D01*
G01*
X107762500Y-109450000D01*
G75*
G02*
X107887500Y-109575000I0J-125000D01*
G01*
G37*
G36*
G01*
X107887500Y-110225000D02*
X107887500Y-110475000D01*
G75*
G02*
X107762500Y-110600000I-125000J0D01*
G01*
X106437500Y-110600000D01*
G75*
G02*
X106312500Y-110475000I0J125000D01*
G01*
X106312500Y-110225000D01*
G75*
G02*
X106437500Y-110100000I125000J0D01*
G01*
X107762500Y-110100000D01*
G75*
G02*
X107887500Y-110225000I0J-125000D01*
G01*
G37*
G36*
G01*
X107887500Y-110875000D02*
X107887500Y-111125000D01*
G75*
G02*
X107762500Y-111250000I-125000J0D01*
G01*
X106437500Y-111250000D01*
G75*
G02*
X106312500Y-111125000I0J125000D01*
G01*
X106312500Y-110875000D01*
G75*
G02*
X106437500Y-110750000I125000J0D01*
G01*
X107762500Y-110750000D01*
G75*
G02*
X107887500Y-110875000I0J-125000D01*
G01*
G37*
G36*
G01*
X107887500Y-111525000D02*
X107887500Y-111775000D01*
G75*
G02*
X107762500Y-111900000I-125000J0D01*
G01*
X106437500Y-111900000D01*
G75*
G02*
X106312500Y-111775000I0J125000D01*
G01*
X106312500Y-111525000D01*
G75*
G02*
X106437500Y-111400000I125000J0D01*
G01*
X107762500Y-111400000D01*
G75*
G02*
X107887500Y-111525000I0J-125000D01*
G01*
G37*
G36*
G01*
X107887500Y-112175000D02*
X107887500Y-112425000D01*
G75*
G02*
X107762500Y-112550000I-125000J0D01*
G01*
X106437500Y-112550000D01*
G75*
G02*
X106312500Y-112425000I0J125000D01*
G01*
X106312500Y-112175000D01*
G75*
G02*
X106437500Y-112050000I125000J0D01*
G01*
X107762500Y-112050000D01*
G75*
G02*
X107887500Y-112175000I0J-125000D01*
G01*
G37*
%TD*%
D12*
%TO.C,H3*%
X93856155Y-122843845D03*
X92000000Y-122075000D03*
X90143845Y-122843845D03*
X89375000Y-124700000D03*
X90143845Y-126556155D03*
X92000000Y-127325000D03*
X93856155Y-126556155D03*
X94625000Y-124700000D03*
D13*
X92000000Y-124700000D03*
%TD*%
D12*
%TO.C,H4*%
X143856155Y-87843845D03*
X142000000Y-87075000D03*
X140143845Y-87843845D03*
X139375000Y-89700000D03*
X140143845Y-91556155D03*
X142000000Y-92325000D03*
X143856155Y-91556155D03*
X144625000Y-89700000D03*
D13*
X142000000Y-89700000D03*
%TD*%
D12*
%TO.C,H2*%
X93856155Y-87843845D03*
X92000000Y-87075000D03*
X90143845Y-87843845D03*
X89375000Y-89700000D03*
X90143845Y-91556155D03*
X92000000Y-92325000D03*
X93856155Y-91556155D03*
X94625000Y-89700000D03*
D13*
X92000000Y-89700000D03*
%TD*%
D12*
%TO.C,H1*%
X143856155Y-122843845D03*
X142000000Y-122075000D03*
X140143845Y-122843845D03*
X139375000Y-124700000D03*
X140143845Y-126556155D03*
X142000000Y-127325000D03*
X143856155Y-126556155D03*
X144625000Y-124700000D03*
D13*
X142000000Y-124700000D03*
%TD*%
%TO.C,C1*%
G36*
G01*
X131281250Y-89962500D02*
X130318750Y-89962500D01*
G75*
G02*
X130050000Y-89693750I0J268750D01*
G01*
X130050000Y-89156250D01*
G75*
G02*
X130318750Y-88887500I268750J0D01*
G01*
X131281250Y-88887500D01*
G75*
G02*
X131550000Y-89156250I0J-268750D01*
G01*
X131550000Y-89693750D01*
G75*
G02*
X131281250Y-89962500I-268750J0D01*
G01*
G37*
G36*
G01*
X131281250Y-91837500D02*
X130318750Y-91837500D01*
G75*
G02*
X130050000Y-91568750I0J268750D01*
G01*
X130050000Y-91031250D01*
G75*
G02*
X130318750Y-90762500I268750J0D01*
G01*
X131281250Y-90762500D01*
G75*
G02*
X131550000Y-91031250I0J-268750D01*
G01*
X131550000Y-91568750D01*
G75*
G02*
X131281250Y-91837500I-268750J0D01*
G01*
G37*
%TD*%
D14*
%TO.C,C2*%
X133350000Y-110236000D03*
D15*
X136850000Y-110236000D03*
%TD*%
%TO.C,C3*%
G36*
G01*
X129281250Y-89962500D02*
X128318750Y-89962500D01*
G75*
G02*
X128050000Y-89693750I0J268750D01*
G01*
X128050000Y-89156250D01*
G75*
G02*
X128318750Y-88887500I268750J0D01*
G01*
X129281250Y-88887500D01*
G75*
G02*
X129550000Y-89156250I0J-268750D01*
G01*
X129550000Y-89693750D01*
G75*
G02*
X129281250Y-89962500I-268750J0D01*
G01*
G37*
G36*
G01*
X129281250Y-91837500D02*
X128318750Y-91837500D01*
G75*
G02*
X128050000Y-91568750I0J268750D01*
G01*
X128050000Y-91031250D01*
G75*
G02*
X128318750Y-90762500I268750J0D01*
G01*
X129281250Y-90762500D01*
G75*
G02*
X129550000Y-91031250I0J-268750D01*
G01*
X129550000Y-91568750D01*
G75*
G02*
X129281250Y-91837500I-268750J0D01*
G01*
G37*
%TD*%
%TO.C,C4*%
G36*
G01*
X138139250Y-117034500D02*
X139101750Y-117034500D01*
G75*
G02*
X139370500Y-117303250I0J-268750D01*
G01*
X139370500Y-117840750D01*
G75*
G02*
X139101750Y-118109500I-268750J0D01*
G01*
X138139250Y-118109500D01*
G75*
G02*
X137870500Y-117840750I0J268750D01*
G01*
X137870500Y-117303250D01*
G75*
G02*
X138139250Y-117034500I268750J0D01*
G01*
G37*
G36*
G01*
X138139250Y-115159500D02*
X139101750Y-115159500D01*
G75*
G02*
X139370500Y-115428250I0J-268750D01*
G01*
X139370500Y-115965750D01*
G75*
G02*
X139101750Y-116234500I-268750J0D01*
G01*
X138139250Y-116234500D01*
G75*
G02*
X137870500Y-115965750I0J268750D01*
G01*
X137870500Y-115428250D01*
G75*
G02*
X138139250Y-115159500I268750J0D01*
G01*
G37*
%TD*%
%TO.C,C5*%
G36*
G01*
X127281250Y-90112500D02*
X126718750Y-90112500D01*
G75*
G02*
X126475000Y-89868750I0J243750D01*
G01*
X126475000Y-89381250D01*
G75*
G02*
X126718750Y-89137500I243750J0D01*
G01*
X127281250Y-89137500D01*
G75*
G02*
X127525000Y-89381250I0J-243750D01*
G01*
X127525000Y-89868750D01*
G75*
G02*
X127281250Y-90112500I-243750J0D01*
G01*
G37*
G36*
G01*
X127281250Y-91687500D02*
X126718750Y-91687500D01*
G75*
G02*
X126475000Y-91443750I0J243750D01*
G01*
X126475000Y-90956250D01*
G75*
G02*
X126718750Y-90712500I243750J0D01*
G01*
X127281250Y-90712500D01*
G75*
G02*
X127525000Y-90956250I0J-243750D01*
G01*
X127525000Y-91443750D01*
G75*
G02*
X127281250Y-91687500I-243750J0D01*
G01*
G37*
%TD*%
%TO.C,C6*%
G36*
G01*
X133281250Y-89962500D02*
X132318750Y-89962500D01*
G75*
G02*
X132050000Y-89693750I0J268750D01*
G01*
X132050000Y-89156250D01*
G75*
G02*
X132318750Y-88887500I268750J0D01*
G01*
X133281250Y-88887500D01*
G75*
G02*
X133550000Y-89156250I0J-268750D01*
G01*
X133550000Y-89693750D01*
G75*
G02*
X133281250Y-89962500I-268750J0D01*
G01*
G37*
G36*
G01*
X133281250Y-91837500D02*
X132318750Y-91837500D01*
G75*
G02*
X132050000Y-91568750I0J268750D01*
G01*
X132050000Y-91031250D01*
G75*
G02*
X132318750Y-90762500I268750J0D01*
G01*
X133281250Y-90762500D01*
G75*
G02*
X133550000Y-91031250I0J-268750D01*
G01*
X133550000Y-91568750D01*
G75*
G02*
X133281250Y-91837500I-268750J0D01*
G01*
G37*
%TD*%
D14*
%TO.C,C7*%
X124700000Y-107200000D03*
D15*
X121200000Y-107200000D03*
%TD*%
%TO.C,C8*%
G36*
G01*
X111110000Y-112252500D02*
X111110000Y-112647500D01*
G75*
G02*
X110937500Y-112820000I-172500J0D01*
G01*
X110592500Y-112820000D01*
G75*
G02*
X110420000Y-112647500I0J172500D01*
G01*
X110420000Y-112252500D01*
G75*
G02*
X110592500Y-112080000I172500J0D01*
G01*
X110937500Y-112080000D01*
G75*
G02*
X111110000Y-112252500I0J-172500D01*
G01*
G37*
G36*
G01*
X112080000Y-112252500D02*
X112080000Y-112647500D01*
G75*
G02*
X111907500Y-112820000I-172500J0D01*
G01*
X111562500Y-112820000D01*
G75*
G02*
X111390000Y-112647500I0J172500D01*
G01*
X111390000Y-112252500D01*
G75*
G02*
X111562500Y-112080000I172500J0D01*
G01*
X111907500Y-112080000D01*
G75*
G02*
X112080000Y-112252500I0J-172500D01*
G01*
G37*
%TD*%
%TO.C,C9*%
G36*
G01*
X111390000Y-107347500D02*
X111390000Y-106952500D01*
G75*
G02*
X111562500Y-106780000I172500J0D01*
G01*
X111907500Y-106780000D01*
G75*
G02*
X112080000Y-106952500I0J-172500D01*
G01*
X112080000Y-107347500D01*
G75*
G02*
X111907500Y-107520000I-172500J0D01*
G01*
X111562500Y-107520000D01*
G75*
G02*
X111390000Y-107347500I0J172500D01*
G01*
G37*
G36*
G01*
X110420000Y-107347500D02*
X110420000Y-106952500D01*
G75*
G02*
X110592500Y-106780000I172500J0D01*
G01*
X110937500Y-106780000D01*
G75*
G02*
X111110000Y-106952500I0J-172500D01*
G01*
X111110000Y-107347500D01*
G75*
G02*
X110937500Y-107520000I-172500J0D01*
G01*
X110592500Y-107520000D01*
G75*
G02*
X110420000Y-107347500I0J172500D01*
G01*
G37*
%TD*%
%TO.C,C10*%
G36*
G01*
X127660650Y-121716100D02*
X127098150Y-121716100D01*
G75*
G02*
X126854400Y-121472350I0J243750D01*
G01*
X126854400Y-120984850D01*
G75*
G02*
X127098150Y-120741100I243750J0D01*
G01*
X127660650Y-120741100D01*
G75*
G02*
X127904400Y-120984850I0J-243750D01*
G01*
X127904400Y-121472350D01*
G75*
G02*
X127660650Y-121716100I-243750J0D01*
G01*
G37*
G36*
G01*
X127660650Y-123291100D02*
X127098150Y-123291100D01*
G75*
G02*
X126854400Y-123047350I0J243750D01*
G01*
X126854400Y-122559850D01*
G75*
G02*
X127098150Y-122316100I243750J0D01*
G01*
X127660650Y-122316100D01*
G75*
G02*
X127904400Y-122559850I0J-243750D01*
G01*
X127904400Y-123047350D01*
G75*
G02*
X127660650Y-123291100I-243750J0D01*
G01*
G37*
%TD*%
%TO.C,C11*%
G36*
G01*
X103987500Y-104846750D02*
X103987500Y-105409250D01*
G75*
G02*
X103743750Y-105653000I-243750J0D01*
G01*
X103256250Y-105653000D01*
G75*
G02*
X103012500Y-105409250I0J243750D01*
G01*
X103012500Y-104846750D01*
G75*
G02*
X103256250Y-104603000I243750J0D01*
G01*
X103743750Y-104603000D01*
G75*
G02*
X103987500Y-104846750I0J-243750D01*
G01*
G37*
G36*
G01*
X105562500Y-104846750D02*
X105562500Y-105409250D01*
G75*
G02*
X105318750Y-105653000I-243750J0D01*
G01*
X104831250Y-105653000D01*
G75*
G02*
X104587500Y-105409250I0J243750D01*
G01*
X104587500Y-104846750D01*
G75*
G02*
X104831250Y-104603000I243750J0D01*
G01*
X105318750Y-104603000D01*
G75*
G02*
X105562500Y-104846750I0J-243750D01*
G01*
G37*
%TD*%
%TO.C,C12*%
G36*
G01*
X103987500Y-103318750D02*
X103987500Y-103881250D01*
G75*
G02*
X103743750Y-104125000I-243750J0D01*
G01*
X103256250Y-104125000D01*
G75*
G02*
X103012500Y-103881250I0J243750D01*
G01*
X103012500Y-103318750D01*
G75*
G02*
X103256250Y-103075000I243750J0D01*
G01*
X103743750Y-103075000D01*
G75*
G02*
X103987500Y-103318750I0J-243750D01*
G01*
G37*
G36*
G01*
X105562500Y-103318750D02*
X105562500Y-103881250D01*
G75*
G02*
X105318750Y-104125000I-243750J0D01*
G01*
X104831250Y-104125000D01*
G75*
G02*
X104587500Y-103881250I0J243750D01*
G01*
X104587500Y-103318750D01*
G75*
G02*
X104831250Y-103075000I243750J0D01*
G01*
X105318750Y-103075000D01*
G75*
G02*
X105562500Y-103318750I0J-243750D01*
G01*
G37*
%TD*%
D16*
%TO.C,D1*%
X129032000Y-111570000D03*
X129032000Y-115570000D03*
%TD*%
D17*
%TO.C,J1*%
X145550000Y-103487500D03*
X145550000Y-96012500D03*
D18*
X145550000Y-99750000D03*
D19*
X142875000Y-99100000D03*
D20*
X145550000Y-95575000D03*
X145550000Y-103925000D03*
D21*
X142550000Y-97525000D03*
D19*
X142875000Y-98450000D03*
X142875000Y-99750000D03*
X142875000Y-100400000D03*
X142875000Y-101050000D03*
D21*
X142550000Y-101975000D03*
%TD*%
D10*
%TO.C,J2*%
X111120000Y-89680000D03*
D11*
X113660000Y-89680000D03*
%TD*%
D10*
%TO.C,J_SWIM1*%
X106035000Y-89700000D03*
X103495000Y-89700000D03*
X100955000Y-89700000D03*
D11*
X98415000Y-89700000D03*
%TD*%
D22*
%TO.C,L1*%
X119711000Y-115570000D03*
X126111000Y-115570000D03*
%TD*%
%TO.C,LED1*%
G36*
G01*
X115321250Y-119302500D02*
X114358750Y-119302500D01*
G75*
G02*
X114090000Y-119033750I0J268750D01*
G01*
X114090000Y-118496250D01*
G75*
G02*
X114358750Y-118227500I268750J0D01*
G01*
X115321250Y-118227500D01*
G75*
G02*
X115590000Y-118496250I0J-268750D01*
G01*
X115590000Y-119033750D01*
G75*
G02*
X115321250Y-119302500I-268750J0D01*
G01*
G37*
G36*
G01*
X115321250Y-121177500D02*
X114358750Y-121177500D01*
G75*
G02*
X114090000Y-120908750I0J268750D01*
G01*
X114090000Y-120371250D01*
G75*
G02*
X114358750Y-120102500I268750J0D01*
G01*
X115321250Y-120102500D01*
G75*
G02*
X115590000Y-120371250I0J-268750D01*
G01*
X115590000Y-120908750D01*
G75*
G02*
X115321250Y-121177500I-268750J0D01*
G01*
G37*
%TD*%
%TO.C,LED2*%
G36*
G01*
X111031250Y-119272500D02*
X110068750Y-119272500D01*
G75*
G02*
X109800000Y-119003750I0J268750D01*
G01*
X109800000Y-118466250D01*
G75*
G02*
X110068750Y-118197500I268750J0D01*
G01*
X111031250Y-118197500D01*
G75*
G02*
X111300000Y-118466250I0J-268750D01*
G01*
X111300000Y-119003750D01*
G75*
G02*
X111031250Y-119272500I-268750J0D01*
G01*
G37*
G36*
G01*
X111031250Y-121147500D02*
X110068750Y-121147500D01*
G75*
G02*
X109800000Y-120878750I0J268750D01*
G01*
X109800000Y-120341250D01*
G75*
G02*
X110068750Y-120072500I268750J0D01*
G01*
X111031250Y-120072500D01*
G75*
G02*
X111300000Y-120341250I0J-268750D01*
G01*
X111300000Y-120878750D01*
G75*
G02*
X111031250Y-121147500I-268750J0D01*
G01*
G37*
%TD*%
%TO.C,LED3*%
G36*
G01*
X113171250Y-119272500D02*
X112208750Y-119272500D01*
G75*
G02*
X111940000Y-119003750I0J268750D01*
G01*
X111940000Y-118466250D01*
G75*
G02*
X112208750Y-118197500I268750J0D01*
G01*
X113171250Y-118197500D01*
G75*
G02*
X113440000Y-118466250I0J-268750D01*
G01*
X113440000Y-119003750D01*
G75*
G02*
X113171250Y-119272500I-268750J0D01*
G01*
G37*
G36*
G01*
X113171250Y-121147500D02*
X112208750Y-121147500D01*
G75*
G02*
X111940000Y-120878750I0J268750D01*
G01*
X111940000Y-120341250D01*
G75*
G02*
X112208750Y-120072500I268750J0D01*
G01*
X113171250Y-120072500D01*
G75*
G02*
X113440000Y-120341250I0J-268750D01*
G01*
X113440000Y-120878750D01*
G75*
G02*
X113171250Y-121147500I-268750J0D01*
G01*
G37*
%TD*%
%TO.C,LED_3V31*%
G36*
G01*
X129637500Y-104367250D02*
X129637500Y-103404750D01*
G75*
G02*
X129906250Y-103136000I268750J0D01*
G01*
X130443750Y-103136000D01*
G75*
G02*
X130712500Y-103404750I0J-268750D01*
G01*
X130712500Y-104367250D01*
G75*
G02*
X130443750Y-104636000I-268750J0D01*
G01*
X129906250Y-104636000D01*
G75*
G02*
X129637500Y-104367250I0J268750D01*
G01*
G37*
G36*
G01*
X127762500Y-104367250D02*
X127762500Y-103404750D01*
G75*
G02*
X128031250Y-103136000I268750J0D01*
G01*
X128568750Y-103136000D01*
G75*
G02*
X128837500Y-103404750I0J-268750D01*
G01*
X128837500Y-104367250D01*
G75*
G02*
X128568750Y-104636000I-268750J0D01*
G01*
X128031250Y-104636000D01*
G75*
G02*
X127762500Y-104367250I0J268750D01*
G01*
G37*
%TD*%
%TO.C,LED_5V1*%
G36*
G01*
X141436150Y-107924300D02*
X142398650Y-107924300D01*
G75*
G02*
X142667400Y-108193050I0J-268750D01*
G01*
X142667400Y-108730550D01*
G75*
G02*
X142398650Y-108999300I-268750J0D01*
G01*
X141436150Y-108999300D01*
G75*
G02*
X141167400Y-108730550I0J268750D01*
G01*
X141167400Y-108193050D01*
G75*
G02*
X141436150Y-107924300I268750J0D01*
G01*
G37*
G36*
G01*
X141436150Y-106049300D02*
X142398650Y-106049300D01*
G75*
G02*
X142667400Y-106318050I0J-268750D01*
G01*
X142667400Y-106855550D01*
G75*
G02*
X142398650Y-107124300I-268750J0D01*
G01*
X141436150Y-107124300D01*
G75*
G02*
X141167400Y-106855550I0J268750D01*
G01*
X141167400Y-106318050D01*
G75*
G02*
X141436150Y-106049300I268750J0D01*
G01*
G37*
%TD*%
%TO.C,LED_RX1*%
G36*
G01*
X118582700Y-96806850D02*
X118582700Y-95844350D01*
G75*
G02*
X118851450Y-95575600I268750J0D01*
G01*
X119388950Y-95575600D01*
G75*
G02*
X119657700Y-95844350I0J-268750D01*
G01*
X119657700Y-96806850D01*
G75*
G02*
X119388950Y-97075600I-268750J0D01*
G01*
X118851450Y-97075600D01*
G75*
G02*
X118582700Y-96806850I0J268750D01*
G01*
G37*
G36*
G01*
X116707700Y-96806850D02*
X116707700Y-95844350D01*
G75*
G02*
X116976450Y-95575600I268750J0D01*
G01*
X117513950Y-95575600D01*
G75*
G02*
X117782700Y-95844350I0J-268750D01*
G01*
X117782700Y-96806850D01*
G75*
G02*
X117513950Y-97075600I-268750J0D01*
G01*
X116976450Y-97075600D01*
G75*
G02*
X116707700Y-96806850I0J268750D01*
G01*
G37*
%TD*%
%TO.C,LED_TX1*%
G36*
G01*
X118607700Y-94406850D02*
X118607700Y-93444350D01*
G75*
G02*
X118876450Y-93175600I268750J0D01*
G01*
X119413950Y-93175600D01*
G75*
G02*
X119682700Y-93444350I0J-268750D01*
G01*
X119682700Y-94406850D01*
G75*
G02*
X119413950Y-94675600I-268750J0D01*
G01*
X118876450Y-94675600D01*
G75*
G02*
X118607700Y-94406850I0J268750D01*
G01*
G37*
G36*
G01*
X116732700Y-94406850D02*
X116732700Y-93444350D01*
G75*
G02*
X117001450Y-93175600I268750J0D01*
G01*
X117538950Y-93175600D01*
G75*
G02*
X117807700Y-93444350I0J-268750D01*
G01*
X117807700Y-94406850D01*
G75*
G02*
X117538950Y-94675600I-268750J0D01*
G01*
X117001450Y-94675600D01*
G75*
G02*
X116732700Y-94406850I0J268750D01*
G01*
G37*
%TD*%
%TO.C,R1*%
G36*
G01*
X137892300Y-100405400D02*
X137497300Y-100405400D01*
G75*
G02*
X137324800Y-100232900I0J172500D01*
G01*
X137324800Y-99887900D01*
G75*
G02*
X137497300Y-99715400I172500J0D01*
G01*
X137892300Y-99715400D01*
G75*
G02*
X138064800Y-99887900I0J-172500D01*
G01*
X138064800Y-100232900D01*
G75*
G02*
X137892300Y-100405400I-172500J0D01*
G01*
G37*
G36*
G01*
X137892300Y-101375400D02*
X137497300Y-101375400D01*
G75*
G02*
X137324800Y-101202900I0J172500D01*
G01*
X137324800Y-100857900D01*
G75*
G02*
X137497300Y-100685400I172500J0D01*
G01*
X137892300Y-100685400D01*
G75*
G02*
X138064800Y-100857900I0J-172500D01*
G01*
X138064800Y-101202900D01*
G75*
G02*
X137892300Y-101375400I-172500J0D01*
G01*
G37*
%TD*%
%TO.C,R2*%
G36*
G01*
X137892300Y-102390400D02*
X137497300Y-102390400D01*
G75*
G02*
X137324800Y-102217900I0J172500D01*
G01*
X137324800Y-101872900D01*
G75*
G02*
X137497300Y-101700400I172500J0D01*
G01*
X137892300Y-101700400D01*
G75*
G02*
X138064800Y-101872900I0J-172500D01*
G01*
X138064800Y-102217900D01*
G75*
G02*
X137892300Y-102390400I-172500J0D01*
G01*
G37*
G36*
G01*
X137892300Y-103360400D02*
X137497300Y-103360400D01*
G75*
G02*
X137324800Y-103187900I0J172500D01*
G01*
X137324800Y-102842900D01*
G75*
G02*
X137497300Y-102670400I172500J0D01*
G01*
X137892300Y-102670400D01*
G75*
G02*
X138064800Y-102842900I0J-172500D01*
G01*
X138064800Y-103187900D01*
G75*
G02*
X137892300Y-103360400I-172500J0D01*
G01*
G37*
%TD*%
%TO.C,R3*%
G36*
G01*
X120450000Y-100281250D02*
X120450000Y-99318750D01*
G75*
G02*
X120718750Y-99050000I268750J0D01*
G01*
X121256250Y-99050000D01*
G75*
G02*
X121525000Y-99318750I0J-268750D01*
G01*
X121525000Y-100281250D01*
G75*
G02*
X121256250Y-100550000I-268750J0D01*
G01*
X120718750Y-100550000D01*
G75*
G02*
X120450000Y-100281250I0J268750D01*
G01*
G37*
G36*
G01*
X118575000Y-100281250D02*
X118575000Y-99318750D01*
G75*
G02*
X118843750Y-99050000I268750J0D01*
G01*
X119381250Y-99050000D01*
G75*
G02*
X119650000Y-99318750I0J-268750D01*
G01*
X119650000Y-100281250D01*
G75*
G02*
X119381250Y-100550000I-268750J0D01*
G01*
X118843750Y-100550000D01*
G75*
G02*
X118575000Y-100281250I0J268750D01*
G01*
G37*
%TD*%
%TO.C,R4*%
G36*
G01*
X120437500Y-102331250D02*
X120437500Y-101368750D01*
G75*
G02*
X120706250Y-101100000I268750J0D01*
G01*
X121243750Y-101100000D01*
G75*
G02*
X121512500Y-101368750I0J-268750D01*
G01*
X121512500Y-102331250D01*
G75*
G02*
X121243750Y-102600000I-268750J0D01*
G01*
X120706250Y-102600000D01*
G75*
G02*
X120437500Y-102331250I0J268750D01*
G01*
G37*
G36*
G01*
X118562500Y-102331250D02*
X118562500Y-101368750D01*
G75*
G02*
X118831250Y-101100000I268750J0D01*
G01*
X119368750Y-101100000D01*
G75*
G02*
X119637500Y-101368750I0J-268750D01*
G01*
X119637500Y-102331250D01*
G75*
G02*
X119368750Y-102600000I-268750J0D01*
G01*
X118831250Y-102600000D01*
G75*
G02*
X118562500Y-102331250I0J268750D01*
G01*
G37*
%TD*%
%TO.C,R5*%
G36*
G01*
X121307700Y-93444350D02*
X121307700Y-94406850D01*
G75*
G02*
X121038950Y-94675600I-268750J0D01*
G01*
X120501450Y-94675600D01*
G75*
G02*
X120232700Y-94406850I0J268750D01*
G01*
X120232700Y-93444350D01*
G75*
G02*
X120501450Y-93175600I268750J0D01*
G01*
X121038950Y-93175600D01*
G75*
G02*
X121307700Y-93444350I0J-268750D01*
G01*
G37*
G36*
G01*
X123182700Y-93444350D02*
X123182700Y-94406850D01*
G75*
G02*
X122913950Y-94675600I-268750J0D01*
G01*
X122376450Y-94675600D01*
G75*
G02*
X122107700Y-94406850I0J268750D01*
G01*
X122107700Y-93444350D01*
G75*
G02*
X122376450Y-93175600I268750J0D01*
G01*
X122913950Y-93175600D01*
G75*
G02*
X123182700Y-93444350I0J-268750D01*
G01*
G37*
%TD*%
%TO.C,R6*%
G36*
G01*
X121282700Y-95844350D02*
X121282700Y-96806850D01*
G75*
G02*
X121013950Y-97075600I-268750J0D01*
G01*
X120476450Y-97075600D01*
G75*
G02*
X120207700Y-96806850I0J268750D01*
G01*
X120207700Y-95844350D01*
G75*
G02*
X120476450Y-95575600I268750J0D01*
G01*
X121013950Y-95575600D01*
G75*
G02*
X121282700Y-95844350I0J-268750D01*
G01*
G37*
G36*
G01*
X123157700Y-95844350D02*
X123157700Y-96806850D01*
G75*
G02*
X122888950Y-97075600I-268750J0D01*
G01*
X122351450Y-97075600D01*
G75*
G02*
X122082700Y-96806850I0J268750D01*
G01*
X122082700Y-95844350D01*
G75*
G02*
X122351450Y-95575600I268750J0D01*
G01*
X122888950Y-95575600D01*
G75*
G02*
X123157700Y-95844350I0J-268750D01*
G01*
G37*
%TD*%
%TO.C,R7*%
G36*
G01*
X114358750Y-123577500D02*
X115321250Y-123577500D01*
G75*
G02*
X115590000Y-123846250I0J-268750D01*
G01*
X115590000Y-124383750D01*
G75*
G02*
X115321250Y-124652500I-268750J0D01*
G01*
X114358750Y-124652500D01*
G75*
G02*
X114090000Y-124383750I0J268750D01*
G01*
X114090000Y-123846250D01*
G75*
G02*
X114358750Y-123577500I268750J0D01*
G01*
G37*
G36*
G01*
X114358750Y-121702500D02*
X115321250Y-121702500D01*
G75*
G02*
X115590000Y-121971250I0J-268750D01*
G01*
X115590000Y-122508750D01*
G75*
G02*
X115321250Y-122777500I-268750J0D01*
G01*
X114358750Y-122777500D01*
G75*
G02*
X114090000Y-122508750I0J268750D01*
G01*
X114090000Y-121971250D01*
G75*
G02*
X114358750Y-121702500I268750J0D01*
G01*
G37*
%TD*%
%TO.C,R8*%
G36*
G01*
X129401400Y-122747100D02*
X129401400Y-122352100D01*
G75*
G02*
X129573900Y-122179600I172500J0D01*
G01*
X129918900Y-122179600D01*
G75*
G02*
X130091400Y-122352100I0J-172500D01*
G01*
X130091400Y-122747100D01*
G75*
G02*
X129918900Y-122919600I-172500J0D01*
G01*
X129573900Y-122919600D01*
G75*
G02*
X129401400Y-122747100I0J172500D01*
G01*
G37*
G36*
G01*
X128431400Y-122747100D02*
X128431400Y-122352100D01*
G75*
G02*
X128603900Y-122179600I172500J0D01*
G01*
X128948900Y-122179600D01*
G75*
G02*
X129121400Y-122352100I0J-172500D01*
G01*
X129121400Y-122747100D01*
G75*
G02*
X128948900Y-122919600I-172500J0D01*
G01*
X128603900Y-122919600D01*
G75*
G02*
X128431400Y-122747100I0J172500D01*
G01*
G37*
%TD*%
%TO.C,R9*%
G36*
G01*
X129121400Y-121209100D02*
X129121400Y-121604100D01*
G75*
G02*
X128948900Y-121776600I-172500J0D01*
G01*
X128603900Y-121776600D01*
G75*
G02*
X128431400Y-121604100I0J172500D01*
G01*
X128431400Y-121209100D01*
G75*
G02*
X128603900Y-121036600I172500J0D01*
G01*
X128948900Y-121036600D01*
G75*
G02*
X129121400Y-121209100I0J-172500D01*
G01*
G37*
G36*
G01*
X130091400Y-121209100D02*
X130091400Y-121604100D01*
G75*
G02*
X129918900Y-121776600I-172500J0D01*
G01*
X129573900Y-121776600D01*
G75*
G02*
X129401400Y-121604100I0J172500D01*
G01*
X129401400Y-121209100D01*
G75*
G02*
X129573900Y-121036600I172500J0D01*
G01*
X129918900Y-121036600D01*
G75*
G02*
X130091400Y-121209100I0J-172500D01*
G01*
G37*
%TD*%
%TO.C,R10*%
G36*
G01*
X127999000Y-119735900D02*
X127999000Y-120130900D01*
G75*
G02*
X127826500Y-120303400I-172500J0D01*
G01*
X127481500Y-120303400D01*
G75*
G02*
X127309000Y-120130900I0J172500D01*
G01*
X127309000Y-119735900D01*
G75*
G02*
X127481500Y-119563400I172500J0D01*
G01*
X127826500Y-119563400D01*
G75*
G02*
X127999000Y-119735900I0J-172500D01*
G01*
G37*
G36*
G01*
X128969000Y-119735900D02*
X128969000Y-120130900D01*
G75*
G02*
X128796500Y-120303400I-172500J0D01*
G01*
X128451500Y-120303400D01*
G75*
G02*
X128279000Y-120130900I0J172500D01*
G01*
X128279000Y-119735900D01*
G75*
G02*
X128451500Y-119563400I172500J0D01*
G01*
X128796500Y-119563400D01*
G75*
G02*
X128969000Y-119735900I0J-172500D01*
G01*
G37*
%TD*%
%TO.C,R11*%
G36*
G01*
X110068750Y-123547500D02*
X111031250Y-123547500D01*
G75*
G02*
X111300000Y-123816250I0J-268750D01*
G01*
X111300000Y-124353750D01*
G75*
G02*
X111031250Y-124622500I-268750J0D01*
G01*
X110068750Y-124622500D01*
G75*
G02*
X109800000Y-124353750I0J268750D01*
G01*
X109800000Y-123816250D01*
G75*
G02*
X110068750Y-123547500I268750J0D01*
G01*
G37*
G36*
G01*
X110068750Y-121672500D02*
X111031250Y-121672500D01*
G75*
G02*
X111300000Y-121941250I0J-268750D01*
G01*
X111300000Y-122478750D01*
G75*
G02*
X111031250Y-122747500I-268750J0D01*
G01*
X110068750Y-122747500D01*
G75*
G02*
X109800000Y-122478750I0J268750D01*
G01*
X109800000Y-121941250D01*
G75*
G02*
X110068750Y-121672500I268750J0D01*
G01*
G37*
%TD*%
%TO.C,R12*%
G36*
G01*
X108997500Y-108375000D02*
X108602500Y-108375000D01*
G75*
G02*
X108430000Y-108202500I0J172500D01*
G01*
X108430000Y-107857500D01*
G75*
G02*
X108602500Y-107685000I172500J0D01*
G01*
X108997500Y-107685000D01*
G75*
G02*
X109170000Y-107857500I0J-172500D01*
G01*
X109170000Y-108202500D01*
G75*
G02*
X108997500Y-108375000I-172500J0D01*
G01*
G37*
G36*
G01*
X108997500Y-109345000D02*
X108602500Y-109345000D01*
G75*
G02*
X108430000Y-109172500I0J172500D01*
G01*
X108430000Y-108827500D01*
G75*
G02*
X108602500Y-108655000I172500J0D01*
G01*
X108997500Y-108655000D01*
G75*
G02*
X109170000Y-108827500I0J-172500D01*
G01*
X109170000Y-109172500D01*
G75*
G02*
X108997500Y-109345000I-172500J0D01*
G01*
G37*
%TD*%
%TO.C,R13*%
G36*
G01*
X112208750Y-123547500D02*
X113171250Y-123547500D01*
G75*
G02*
X113440000Y-123816250I0J-268750D01*
G01*
X113440000Y-124353750D01*
G75*
G02*
X113171250Y-124622500I-268750J0D01*
G01*
X112208750Y-124622500D01*
G75*
G02*
X111940000Y-124353750I0J268750D01*
G01*
X111940000Y-123816250D01*
G75*
G02*
X112208750Y-123547500I268750J0D01*
G01*
G37*
G36*
G01*
X112208750Y-121672500D02*
X113171250Y-121672500D01*
G75*
G02*
X113440000Y-121941250I0J-268750D01*
G01*
X113440000Y-122478750D01*
G75*
G02*
X113171250Y-122747500I-268750J0D01*
G01*
X112208750Y-122747500D01*
G75*
G02*
X111940000Y-122478750I0J268750D01*
G01*
X111940000Y-121941250D01*
G75*
G02*
X112208750Y-121672500I268750J0D01*
G01*
G37*
%TD*%
%TO.C,R14*%
G36*
G01*
X105887500Y-113618750D02*
X105887500Y-114181250D01*
G75*
G02*
X105643750Y-114425000I-243750J0D01*
G01*
X105156250Y-114425000D01*
G75*
G02*
X104912500Y-114181250I0J243750D01*
G01*
X104912500Y-113618750D01*
G75*
G02*
X105156250Y-113375000I243750J0D01*
G01*
X105643750Y-113375000D01*
G75*
G02*
X105887500Y-113618750I0J-243750D01*
G01*
G37*
G36*
G01*
X107462500Y-113618750D02*
X107462500Y-114181250D01*
G75*
G02*
X107218750Y-114425000I-243750J0D01*
G01*
X106731250Y-114425000D01*
G75*
G02*
X106487500Y-114181250I0J243750D01*
G01*
X106487500Y-113618750D01*
G75*
G02*
X106731250Y-113375000I243750J0D01*
G01*
X107218750Y-113375000D01*
G75*
G02*
X107462500Y-113618750I0J-243750D01*
G01*
G37*
%TD*%
%TO.C,R15*%
G36*
G01*
X103100000Y-114181250D02*
X103100000Y-113618750D01*
G75*
G02*
X103343750Y-113375000I243750J0D01*
G01*
X103831250Y-113375000D01*
G75*
G02*
X104075000Y-113618750I0J-243750D01*
G01*
X104075000Y-114181250D01*
G75*
G02*
X103831250Y-114425000I-243750J0D01*
G01*
X103343750Y-114425000D01*
G75*
G02*
X103100000Y-114181250I0J243750D01*
G01*
G37*
G36*
G01*
X101525000Y-114181250D02*
X101525000Y-113618750D01*
G75*
G02*
X101768750Y-113375000I243750J0D01*
G01*
X102256250Y-113375000D01*
G75*
G02*
X102500000Y-113618750I0J-243750D01*
G01*
X102500000Y-114181250D01*
G75*
G02*
X102256250Y-114425000I-243750J0D01*
G01*
X101768750Y-114425000D01*
G75*
G02*
X101525000Y-114181250I0J243750D01*
G01*
G37*
%TD*%
%TO.C,R16*%
G36*
G01*
X129663700Y-106398650D02*
X129663700Y-105436150D01*
G75*
G02*
X129932450Y-105167400I268750J0D01*
G01*
X130469950Y-105167400D01*
G75*
G02*
X130738700Y-105436150I0J-268750D01*
G01*
X130738700Y-106398650D01*
G75*
G02*
X130469950Y-106667400I-268750J0D01*
G01*
X129932450Y-106667400D01*
G75*
G02*
X129663700Y-106398650I0J268750D01*
G01*
G37*
G36*
G01*
X127788700Y-106398650D02*
X127788700Y-105436150D01*
G75*
G02*
X128057450Y-105167400I268750J0D01*
G01*
X128594950Y-105167400D01*
G75*
G02*
X128863700Y-105436150I0J-268750D01*
G01*
X128863700Y-106398650D01*
G75*
G02*
X128594950Y-106667400I-268750J0D01*
G01*
X128057450Y-106667400D01*
G75*
G02*
X127788700Y-106398650I0J268750D01*
G01*
G37*
%TD*%
%TO.C,R17*%
G36*
G01*
X143536150Y-107924300D02*
X144498650Y-107924300D01*
G75*
G02*
X144767400Y-108193050I0J-268750D01*
G01*
X144767400Y-108730550D01*
G75*
G02*
X144498650Y-108999300I-268750J0D01*
G01*
X143536150Y-108999300D01*
G75*
G02*
X143267400Y-108730550I0J268750D01*
G01*
X143267400Y-108193050D01*
G75*
G02*
X143536150Y-107924300I268750J0D01*
G01*
G37*
G36*
G01*
X143536150Y-106049300D02*
X144498650Y-106049300D01*
G75*
G02*
X144767400Y-106318050I0J-268750D01*
G01*
X144767400Y-106855550D01*
G75*
G02*
X144498650Y-107124300I-268750J0D01*
G01*
X143536150Y-107124300D01*
G75*
G02*
X143267400Y-106855550I0J268750D01*
G01*
X143267400Y-106318050D01*
G75*
G02*
X143536150Y-106049300I268750J0D01*
G01*
G37*
%TD*%
D23*
%TO.C,TP1*%
X120680000Y-124690000D03*
%TD*%
%TO.C,TP2*%
X143400000Y-117700000D03*
%TD*%
D24*
%TO.C,U1*%
X134874000Y-118364000D03*
G36*
G01*
X136604000Y-120164000D02*
X136954000Y-120164000D01*
G75*
G02*
X137129000Y-120339000I0J-175000D01*
G01*
X137129000Y-121689000D01*
G75*
G02*
X136954000Y-121864000I-175000J0D01*
G01*
X136604000Y-121864000D01*
G75*
G02*
X136429000Y-121689000I0J175000D01*
G01*
X136429000Y-120339000D01*
G75*
G02*
X136604000Y-120164000I175000J0D01*
G01*
G37*
G36*
G01*
X135334000Y-120164000D02*
X135684000Y-120164000D01*
G75*
G02*
X135859000Y-120339000I0J-175000D01*
G01*
X135859000Y-121689000D01*
G75*
G02*
X135684000Y-121864000I-175000J0D01*
G01*
X135334000Y-121864000D01*
G75*
G02*
X135159000Y-121689000I0J175000D01*
G01*
X135159000Y-120339000D01*
G75*
G02*
X135334000Y-120164000I175000J0D01*
G01*
G37*
G36*
G01*
X134064000Y-120164000D02*
X134414000Y-120164000D01*
G75*
G02*
X134589000Y-120339000I0J-175000D01*
G01*
X134589000Y-121689000D01*
G75*
G02*
X134414000Y-121864000I-175000J0D01*
G01*
X134064000Y-121864000D01*
G75*
G02*
X133889000Y-121689000I0J175000D01*
G01*
X133889000Y-120339000D01*
G75*
G02*
X134064000Y-120164000I175000J0D01*
G01*
G37*
G36*
G01*
X132794000Y-120164000D02*
X133144000Y-120164000D01*
G75*
G02*
X133319000Y-120339000I0J-175000D01*
G01*
X133319000Y-121689000D01*
G75*
G02*
X133144000Y-121864000I-175000J0D01*
G01*
X132794000Y-121864000D01*
G75*
G02*
X132619000Y-121689000I0J175000D01*
G01*
X132619000Y-120339000D01*
G75*
G02*
X132794000Y-120164000I175000J0D01*
G01*
G37*
G36*
G01*
X132794000Y-114864000D02*
X133144000Y-114864000D01*
G75*
G02*
X133319000Y-115039000I0J-175000D01*
G01*
X133319000Y-116389000D01*
G75*
G02*
X133144000Y-116564000I-175000J0D01*
G01*
X132794000Y-116564000D01*
G75*
G02*
X132619000Y-116389000I0J175000D01*
G01*
X132619000Y-115039000D01*
G75*
G02*
X132794000Y-114864000I175000J0D01*
G01*
G37*
G36*
G01*
X134064000Y-114864000D02*
X134414000Y-114864000D01*
G75*
G02*
X134589000Y-115039000I0J-175000D01*
G01*
X134589000Y-116389000D01*
G75*
G02*
X134414000Y-116564000I-175000J0D01*
G01*
X134064000Y-116564000D01*
G75*
G02*
X133889000Y-116389000I0J175000D01*
G01*
X133889000Y-115039000D01*
G75*
G02*
X134064000Y-114864000I175000J0D01*
G01*
G37*
G36*
G01*
X135334000Y-114864000D02*
X135684000Y-114864000D01*
G75*
G02*
X135859000Y-115039000I0J-175000D01*
G01*
X135859000Y-116389000D01*
G75*
G02*
X135684000Y-116564000I-175000J0D01*
G01*
X135334000Y-116564000D01*
G75*
G02*
X135159000Y-116389000I0J175000D01*
G01*
X135159000Y-115039000D01*
G75*
G02*
X135334000Y-114864000I175000J0D01*
G01*
G37*
G36*
G01*
X136604000Y-114864000D02*
X136954000Y-114864000D01*
G75*
G02*
X137129000Y-115039000I0J-175000D01*
G01*
X137129000Y-116389000D01*
G75*
G02*
X136954000Y-116564000I-175000J0D01*
G01*
X136604000Y-116564000D01*
G75*
G02*
X136429000Y-116389000I0J175000D01*
G01*
X136429000Y-115039000D01*
G75*
G02*
X136604000Y-114864000I175000J0D01*
G01*
G37*
%TD*%
D25*
%TO.C,U3*%
X125600000Y-93300000D03*
X126250000Y-93300000D03*
X126900000Y-93300000D03*
X127550000Y-93300000D03*
X128200000Y-93300000D03*
X128850000Y-93300000D03*
X129500000Y-93300000D03*
X130150000Y-93300000D03*
X130800000Y-93300000D03*
X131450000Y-93300000D03*
X132100000Y-93300000D03*
X132750000Y-93300000D03*
X133400000Y-93300000D03*
X134050000Y-93300000D03*
X134050000Y-100500000D03*
X133400000Y-100500000D03*
X132750000Y-100500000D03*
X132100000Y-100500000D03*
X131450000Y-100500000D03*
X130800000Y-100500000D03*
X130150000Y-100500000D03*
X129500000Y-100500000D03*
X128850000Y-100500000D03*
X128200000Y-100500000D03*
X127550000Y-100500000D03*
X126900000Y-100500000D03*
X126250000Y-100500000D03*
X125600000Y-100500000D03*
%TD*%
D26*
%TO.C,U4*%
X136567820Y-96857860D03*
X136567820Y-97807860D03*
X136567820Y-95907860D03*
X138767820Y-95907860D03*
X138767820Y-96857860D03*
X138767820Y-97807860D03*
%TD*%
D27*
%TO.C,Y1*%
X110400000Y-110900000D03*
X110400000Y-108700000D03*
X112100000Y-108700000D03*
X112100000Y-110900000D03*
%TD*%
M02*
