%TF.GenerationSoftware,KiCad,Pcbnew,5.1.6*%
%TF.CreationDate,2021-04-04T19:37:59+02:00*%
%TF.ProjectId,teriyaki,74657269-7961-46b6-992e-6b696361645f,rev?*%
%TF.SameCoordinates,Original*%
%TF.FileFunction,Copper,L1,Top*%
%TF.FilePolarity,Positive*%
%FSLAX46Y46*%
G04 Gerber Fmt 4.6, Leading zero omitted, Abs format (unit mm)*
G04 Created by KiCad (PCBNEW 5.1.6) date 2021-04-04 19:37:59*
%MOMM*%
%LPD*%
G01*
G04 APERTURE LIST*
%TA.AperFunction,ComponentPad*%
%ADD10O,1.700000X1.700000*%
%TD*%
%TA.AperFunction,ComponentPad*%
%ADD11R,1.700000X1.700000*%
%TD*%
%TA.AperFunction,ComponentPad*%
%ADD12C,0.800000*%
%TD*%
%TA.AperFunction,ComponentPad*%
%ADD13C,7.000000*%
%TD*%
%TA.AperFunction,ComponentPad*%
%ADD14C,1.600000*%
%TD*%
%TA.AperFunction,ComponentPad*%
%ADD15R,1.600000X1.600000*%
%TD*%
%TA.AperFunction,SMDPad,CuDef*%
%ADD16R,1.800000X2.500000*%
%TD*%
%TA.AperFunction,SMDPad,CuDef*%
%ADD17R,1.900000X0.875000*%
%TD*%
%TA.AperFunction,SMDPad,CuDef*%
%ADD18R,1.900000X2.900000*%
%TD*%
%TA.AperFunction,SMDPad,CuDef*%
%ADD19R,1.350000X0.400000*%
%TD*%
%TA.AperFunction,ComponentPad*%
%ADD20O,1.900000X1.000000*%
%TD*%
%TA.AperFunction,ComponentPad*%
%ADD21O,1.250000X1.050000*%
%TD*%
%TA.AperFunction,SMDPad,CuDef*%
%ADD22R,1.500000X2.200000*%
%TD*%
%TA.AperFunction,ComponentPad*%
%ADD23C,3.600000*%
%TD*%
%TA.AperFunction,SMDPad,CuDef*%
%ADD24R,3.100000X2.410000*%
%TD*%
%TA.AperFunction,SMDPad,CuDef*%
%ADD25R,0.450000X1.750000*%
%TD*%
%TA.AperFunction,SMDPad,CuDef*%
%ADD26R,1.060000X0.650000*%
%TD*%
%TA.AperFunction,SMDPad,CuDef*%
%ADD27R,1.200000X1.400000*%
%TD*%
%TA.AperFunction,ViaPad*%
%ADD28C,0.900000*%
%TD*%
%TA.AperFunction,ViaPad*%
%ADD29C,0.800000*%
%TD*%
%TA.AperFunction,ViaPad*%
%ADD30C,0.600000*%
%TD*%
%TA.AperFunction,Conductor*%
%ADD31C,1.000000*%
%TD*%
%TA.AperFunction,Conductor*%
%ADD32C,0.750000*%
%TD*%
%TA.AperFunction,Conductor*%
%ADD33C,0.400000*%
%TD*%
%TA.AperFunction,Conductor*%
%ADD34C,0.250000*%
%TD*%
%TA.AperFunction,Conductor*%
%ADD35C,0.508000*%
%TD*%
%TA.AperFunction,Conductor*%
%ADD36C,0.300000*%
%TD*%
%TA.AperFunction,Conductor*%
%ADD37C,0.500000*%
%TD*%
%TA.AperFunction,Conductor*%
%ADD38C,1.270000*%
%TD*%
%TA.AperFunction,Conductor*%
%ADD39C,0.261112*%
%TD*%
%TA.AperFunction,Conductor*%
%ADD40C,0.254000*%
%TD*%
G04 APERTURE END LIST*
D10*
%TO.P,J3,10*%
%TO.N,GPIO_PC4*%
X92000000Y-118600000D03*
%TO.P,J3,9*%
%TO.N,GPIO_PB7*%
X92000000Y-116060000D03*
%TO.P,J3,8*%
%TO.N,GPIO_PB6*%
X92000000Y-113520000D03*
%TO.P,J3,7*%
%TO.N,GPIO_PB5*%
X92000000Y-110980000D03*
%TO.P,J3,6*%
%TO.N,GPIO_PB4*%
X92000000Y-108440000D03*
%TO.P,J3,5*%
%TO.N,GPIO_PB3*%
X92000000Y-105900000D03*
%TO.P,J3,4*%
%TO.N,TIM2_CH2*%
X92000000Y-103360000D03*
%TO.P,J3,3*%
%TO.N,TIM3_CH1*%
X92000000Y-100820000D03*
%TO.P,J3,2*%
%TO.N,TIM2_CH1*%
X92000000Y-98280000D03*
D11*
%TO.P,J3,1*%
%TO.N,TIM3_CH2*%
X92000000Y-95740000D03*
%TD*%
D10*
%TO.P,J4,2*%
%TO.N,I2C_SCL*%
X103300000Y-124700000D03*
D11*
%TO.P,J4,1*%
%TO.N,I2C_SDA*%
X105840000Y-124700000D03*
%TD*%
%TO.P,U2,20*%
%TO.N,GPIO_PC4*%
%TA.AperFunction,SMDPad,CuDef*%
G36*
G01*
X102112500Y-112200000D02*
X102112500Y-112400000D01*
G75*
G02*
X102012500Y-112500000I-100000J0D01*
G01*
X100737500Y-112500000D01*
G75*
G02*
X100637500Y-112400000I0J100000D01*
G01*
X100637500Y-112200000D01*
G75*
G02*
X100737500Y-112100000I100000J0D01*
G01*
X102012500Y-112100000D01*
G75*
G02*
X102112500Y-112200000I0J-100000D01*
G01*
G37*
%TD.AperFunction*%
%TO.P,U2,19*%
%TO.N,I2C_SCL*%
%TA.AperFunction,SMDPad,CuDef*%
G36*
G01*
X102112500Y-111550000D02*
X102112500Y-111750000D01*
G75*
G02*
X102012500Y-111850000I-100000J0D01*
G01*
X100737500Y-111850000D01*
G75*
G02*
X100637500Y-111750000I0J100000D01*
G01*
X100637500Y-111550000D01*
G75*
G02*
X100737500Y-111450000I100000J0D01*
G01*
X102012500Y-111450000D01*
G75*
G02*
X102112500Y-111550000I0J-100000D01*
G01*
G37*
%TD.AperFunction*%
%TO.P,U2,18*%
%TO.N,I2C_SDA*%
%TA.AperFunction,SMDPad,CuDef*%
G36*
G01*
X102112500Y-110900000D02*
X102112500Y-111100000D01*
G75*
G02*
X102012500Y-111200000I-100000J0D01*
G01*
X100737500Y-111200000D01*
G75*
G02*
X100637500Y-111100000I0J100000D01*
G01*
X100637500Y-110900000D01*
G75*
G02*
X100737500Y-110800000I100000J0D01*
G01*
X102012500Y-110800000D01*
G75*
G02*
X102112500Y-110900000I0J-100000D01*
G01*
G37*
%TD.AperFunction*%
%TO.P,U2,17*%
%TO.N,GPIO_PB7*%
%TA.AperFunction,SMDPad,CuDef*%
G36*
G01*
X102112500Y-110250000D02*
X102112500Y-110450000D01*
G75*
G02*
X102012500Y-110550000I-100000J0D01*
G01*
X100737500Y-110550000D01*
G75*
G02*
X100637500Y-110450000I0J100000D01*
G01*
X100637500Y-110250000D01*
G75*
G02*
X100737500Y-110150000I100000J0D01*
G01*
X102012500Y-110150000D01*
G75*
G02*
X102112500Y-110250000I0J-100000D01*
G01*
G37*
%TD.AperFunction*%
%TO.P,U2,16*%
%TO.N,GPIO_PB6*%
%TA.AperFunction,SMDPad,CuDef*%
G36*
G01*
X102112500Y-109600000D02*
X102112500Y-109800000D01*
G75*
G02*
X102012500Y-109900000I-100000J0D01*
G01*
X100737500Y-109900000D01*
G75*
G02*
X100637500Y-109800000I0J100000D01*
G01*
X100637500Y-109600000D01*
G75*
G02*
X100737500Y-109500000I100000J0D01*
G01*
X102012500Y-109500000D01*
G75*
G02*
X102112500Y-109600000I0J-100000D01*
G01*
G37*
%TD.AperFunction*%
%TO.P,U2,15*%
%TO.N,GPIO_PB5*%
%TA.AperFunction,SMDPad,CuDef*%
G36*
G01*
X102112500Y-108950000D02*
X102112500Y-109150000D01*
G75*
G02*
X102012500Y-109250000I-100000J0D01*
G01*
X100737500Y-109250000D01*
G75*
G02*
X100637500Y-109150000I0J100000D01*
G01*
X100637500Y-108950000D01*
G75*
G02*
X100737500Y-108850000I100000J0D01*
G01*
X102012500Y-108850000D01*
G75*
G02*
X102112500Y-108950000I0J-100000D01*
G01*
G37*
%TD.AperFunction*%
%TO.P,U2,14*%
%TO.N,GPIO_PB4*%
%TA.AperFunction,SMDPad,CuDef*%
G36*
G01*
X102112500Y-108300000D02*
X102112500Y-108500000D01*
G75*
G02*
X102012500Y-108600000I-100000J0D01*
G01*
X100737500Y-108600000D01*
G75*
G02*
X100637500Y-108500000I0J100000D01*
G01*
X100637500Y-108300000D01*
G75*
G02*
X100737500Y-108200000I100000J0D01*
G01*
X102012500Y-108200000D01*
G75*
G02*
X102112500Y-108300000I0J-100000D01*
G01*
G37*
%TD.AperFunction*%
%TO.P,U2,13*%
%TO.N,GPIO_PB3*%
%TA.AperFunction,SMDPad,CuDef*%
G36*
G01*
X102112500Y-107650000D02*
X102112500Y-107850000D01*
G75*
G02*
X102012500Y-107950000I-100000J0D01*
G01*
X100737500Y-107950000D01*
G75*
G02*
X100637500Y-107850000I0J100000D01*
G01*
X100637500Y-107650000D01*
G75*
G02*
X100737500Y-107550000I100000J0D01*
G01*
X102012500Y-107550000D01*
G75*
G02*
X102112500Y-107650000I0J-100000D01*
G01*
G37*
%TD.AperFunction*%
%TO.P,U2,12*%
%TO.N,TIM2_CH2*%
%TA.AperFunction,SMDPad,CuDef*%
G36*
G01*
X102112500Y-107000000D02*
X102112500Y-107200000D01*
G75*
G02*
X102012500Y-107300000I-100000J0D01*
G01*
X100737500Y-107300000D01*
G75*
G02*
X100637500Y-107200000I0J100000D01*
G01*
X100637500Y-107000000D01*
G75*
G02*
X100737500Y-106900000I100000J0D01*
G01*
X102012500Y-106900000D01*
G75*
G02*
X102112500Y-107000000I0J-100000D01*
G01*
G37*
%TD.AperFunction*%
%TO.P,U2,11*%
%TO.N,TIM3_CH1*%
%TA.AperFunction,SMDPad,CuDef*%
G36*
G01*
X102112500Y-106350000D02*
X102112500Y-106550000D01*
G75*
G02*
X102012500Y-106650000I-100000J0D01*
G01*
X100737500Y-106650000D01*
G75*
G02*
X100637500Y-106550000I0J100000D01*
G01*
X100637500Y-106350000D01*
G75*
G02*
X100737500Y-106250000I100000J0D01*
G01*
X102012500Y-106250000D01*
G75*
G02*
X102112500Y-106350000I0J-100000D01*
G01*
G37*
%TD.AperFunction*%
%TO.P,U2,10*%
%TO.N,TIM2_CH1*%
%TA.AperFunction,SMDPad,CuDef*%
G36*
G01*
X107837500Y-106350000D02*
X107837500Y-106550000D01*
G75*
G02*
X107737500Y-106650000I-100000J0D01*
G01*
X106462500Y-106650000D01*
G75*
G02*
X106362500Y-106550000I0J100000D01*
G01*
X106362500Y-106350000D01*
G75*
G02*
X106462500Y-106250000I100000J0D01*
G01*
X107737500Y-106250000D01*
G75*
G02*
X107837500Y-106350000I0J-100000D01*
G01*
G37*
%TD.AperFunction*%
%TO.P,U2,9*%
%TO.N,TIM3_CH2*%
%TA.AperFunction,SMDPad,CuDef*%
G36*
G01*
X107837500Y-107000000D02*
X107837500Y-107200000D01*
G75*
G02*
X107737500Y-107300000I-100000J0D01*
G01*
X106462500Y-107300000D01*
G75*
G02*
X106362500Y-107200000I0J100000D01*
G01*
X106362500Y-107000000D01*
G75*
G02*
X106462500Y-106900000I100000J0D01*
G01*
X107737500Y-106900000D01*
G75*
G02*
X107837500Y-107000000I0J-100000D01*
G01*
G37*
%TD.AperFunction*%
%TO.P,U2,8*%
%TO.N,+3V3*%
%TA.AperFunction,SMDPad,CuDef*%
G36*
G01*
X107837500Y-107650000D02*
X107837500Y-107850000D01*
G75*
G02*
X107737500Y-107950000I-100000J0D01*
G01*
X106462500Y-107950000D01*
G75*
G02*
X106362500Y-107850000I0J100000D01*
G01*
X106362500Y-107650000D01*
G75*
G02*
X106462500Y-107550000I100000J0D01*
G01*
X107737500Y-107550000D01*
G75*
G02*
X107837500Y-107650000I0J-100000D01*
G01*
G37*
%TD.AperFunction*%
%TO.P,U2,7*%
%TO.N,GND*%
%TA.AperFunction,SMDPad,CuDef*%
G36*
G01*
X107837500Y-108300000D02*
X107837500Y-108500000D01*
G75*
G02*
X107737500Y-108600000I-100000J0D01*
G01*
X106462500Y-108600000D01*
G75*
G02*
X106362500Y-108500000I0J100000D01*
G01*
X106362500Y-108300000D01*
G75*
G02*
X106462500Y-108200000I100000J0D01*
G01*
X107737500Y-108200000D01*
G75*
G02*
X107837500Y-108300000I0J-100000D01*
G01*
G37*
%TD.AperFunction*%
%TO.P,U2,6*%
%TO.N,RCC_OSC_OUT*%
%TA.AperFunction,SMDPad,CuDef*%
G36*
G01*
X107837500Y-108950000D02*
X107837500Y-109150000D01*
G75*
G02*
X107737500Y-109250000I-100000J0D01*
G01*
X106462500Y-109250000D01*
G75*
G02*
X106362500Y-109150000I0J100000D01*
G01*
X106362500Y-108950000D01*
G75*
G02*
X106462500Y-108850000I100000J0D01*
G01*
X107737500Y-108850000D01*
G75*
G02*
X107837500Y-108950000I0J-100000D01*
G01*
G37*
%TD.AperFunction*%
%TO.P,U2,5*%
%TO.N,RCC_OSC_IN*%
%TA.AperFunction,SMDPad,CuDef*%
G36*
G01*
X107837500Y-109600000D02*
X107837500Y-109800000D01*
G75*
G02*
X107737500Y-109900000I-100000J0D01*
G01*
X106462500Y-109900000D01*
G75*
G02*
X106362500Y-109800000I0J100000D01*
G01*
X106362500Y-109600000D01*
G75*
G02*
X106462500Y-109500000I100000J0D01*
G01*
X107737500Y-109500000D01*
G75*
G02*
X107837500Y-109600000I0J-100000D01*
G01*
G37*
%TD.AperFunction*%
%TO.P,U2,4*%
%TO.N,STM8_NRST*%
%TA.AperFunction,SMDPad,CuDef*%
G36*
G01*
X107837500Y-110250000D02*
X107837500Y-110450000D01*
G75*
G02*
X107737500Y-110550000I-100000J0D01*
G01*
X106462500Y-110550000D01*
G75*
G02*
X106362500Y-110450000I0J100000D01*
G01*
X106362500Y-110250000D01*
G75*
G02*
X106462500Y-110150000I100000J0D01*
G01*
X107737500Y-110150000D01*
G75*
G02*
X107837500Y-110250000I0J-100000D01*
G01*
G37*
%TD.AperFunction*%
%TO.P,U2,3*%
%TO.N,STM8_SWIM*%
%TA.AperFunction,SMDPad,CuDef*%
G36*
G01*
X107837500Y-110900000D02*
X107837500Y-111100000D01*
G75*
G02*
X107737500Y-111200000I-100000J0D01*
G01*
X106462500Y-111200000D01*
G75*
G02*
X106362500Y-111100000I0J100000D01*
G01*
X106362500Y-110900000D01*
G75*
G02*
X106462500Y-110800000I100000J0D01*
G01*
X107737500Y-110800000D01*
G75*
G02*
X107837500Y-110900000I0J-100000D01*
G01*
G37*
%TD.AperFunction*%
%TO.P,U2,2*%
%TO.N,STM8_RX*%
%TA.AperFunction,SMDPad,CuDef*%
G36*
G01*
X107837500Y-111550000D02*
X107837500Y-111750000D01*
G75*
G02*
X107737500Y-111850000I-100000J0D01*
G01*
X106462500Y-111850000D01*
G75*
G02*
X106362500Y-111750000I0J100000D01*
G01*
X106362500Y-111550000D01*
G75*
G02*
X106462500Y-111450000I100000J0D01*
G01*
X107737500Y-111450000D01*
G75*
G02*
X107837500Y-111550000I0J-100000D01*
G01*
G37*
%TD.AperFunction*%
%TO.P,U2,1*%
%TO.N,STM8_TX*%
%TA.AperFunction,SMDPad,CuDef*%
G36*
G01*
X107837500Y-112200000D02*
X107837500Y-112400000D01*
G75*
G02*
X107737500Y-112500000I-100000J0D01*
G01*
X106462500Y-112500000D01*
G75*
G02*
X106362500Y-112400000I0J100000D01*
G01*
X106362500Y-112200000D01*
G75*
G02*
X106462500Y-112100000I100000J0D01*
G01*
X107737500Y-112100000D01*
G75*
G02*
X107837500Y-112200000I0J-100000D01*
G01*
G37*
%TD.AperFunction*%
%TD*%
D12*
%TO.P,H3,1*%
%TO.N,GND*%
X93856155Y-122843845D03*
X92000000Y-122075000D03*
X90143845Y-122843845D03*
X89375000Y-124700000D03*
X90143845Y-126556155D03*
X92000000Y-127325000D03*
X93856155Y-126556155D03*
X94625000Y-124700000D03*
D13*
X92000000Y-124700000D03*
%TD*%
D12*
%TO.P,H4,1*%
%TO.N,GND*%
X143856155Y-87843845D03*
X142000000Y-87075000D03*
X140143845Y-87843845D03*
X139375000Y-89700000D03*
X140143845Y-91556155D03*
X142000000Y-92325000D03*
X143856155Y-91556155D03*
X144625000Y-89700000D03*
D13*
X142000000Y-89700000D03*
%TD*%
D12*
%TO.P,H2,1*%
%TO.N,GND*%
X93856155Y-87843845D03*
X92000000Y-87075000D03*
X90143845Y-87843845D03*
X89375000Y-89700000D03*
X90143845Y-91556155D03*
X92000000Y-92325000D03*
X93856155Y-91556155D03*
X94625000Y-89700000D03*
D13*
X92000000Y-89700000D03*
%TD*%
D12*
%TO.P,H1,1*%
%TO.N,GND*%
X143856155Y-122843845D03*
X142000000Y-122075000D03*
X140143845Y-122843845D03*
X139375000Y-124700000D03*
X140143845Y-126556155D03*
X142000000Y-127325000D03*
X143856155Y-126556155D03*
X144625000Y-124700000D03*
D13*
X142000000Y-124700000D03*
%TD*%
%TO.P,C1,2*%
%TO.N,GND*%
%TA.AperFunction,SMDPad,CuDef*%
G36*
G01*
X131256250Y-89912500D02*
X130343750Y-89912500D01*
G75*
G02*
X130100000Y-89668750I0J243750D01*
G01*
X130100000Y-89181250D01*
G75*
G02*
X130343750Y-88937500I243750J0D01*
G01*
X131256250Y-88937500D01*
G75*
G02*
X131500000Y-89181250I0J-243750D01*
G01*
X131500000Y-89668750D01*
G75*
G02*
X131256250Y-89912500I-243750J0D01*
G01*
G37*
%TD.AperFunction*%
%TO.P,C1,1*%
%TO.N,+3V3*%
%TA.AperFunction,SMDPad,CuDef*%
G36*
G01*
X131256250Y-91787500D02*
X130343750Y-91787500D01*
G75*
G02*
X130100000Y-91543750I0J243750D01*
G01*
X130100000Y-91056250D01*
G75*
G02*
X130343750Y-90812500I243750J0D01*
G01*
X131256250Y-90812500D01*
G75*
G02*
X131500000Y-91056250I0J-243750D01*
G01*
X131500000Y-91543750D01*
G75*
G02*
X131256250Y-91787500I-243750J0D01*
G01*
G37*
%TD.AperFunction*%
%TD*%
D14*
%TO.P,C2,2*%
%TO.N,GND*%
X133350000Y-110236000D03*
D15*
%TO.P,C2,1*%
%TO.N,REG_VIN*%
X136850000Y-110236000D03*
%TD*%
%TO.P,C3,2*%
%TO.N,GND*%
%TA.AperFunction,SMDPad,CuDef*%
G36*
G01*
X129256250Y-89912500D02*
X128343750Y-89912500D01*
G75*
G02*
X128100000Y-89668750I0J243750D01*
G01*
X128100000Y-89181250D01*
G75*
G02*
X128343750Y-88937500I243750J0D01*
G01*
X129256250Y-88937500D01*
G75*
G02*
X129500000Y-89181250I0J-243750D01*
G01*
X129500000Y-89668750D01*
G75*
G02*
X129256250Y-89912500I-243750J0D01*
G01*
G37*
%TD.AperFunction*%
%TO.P,C3,1*%
%TO.N,+3V3*%
%TA.AperFunction,SMDPad,CuDef*%
G36*
G01*
X129256250Y-91787500D02*
X128343750Y-91787500D01*
G75*
G02*
X128100000Y-91543750I0J243750D01*
G01*
X128100000Y-91056250D01*
G75*
G02*
X128343750Y-90812500I243750J0D01*
G01*
X129256250Y-90812500D01*
G75*
G02*
X129500000Y-91056250I0J-243750D01*
G01*
X129500000Y-91543750D01*
G75*
G02*
X129256250Y-91787500I-243750J0D01*
G01*
G37*
%TD.AperFunction*%
%TD*%
%TO.P,C4,2*%
%TO.N,GND*%
%TA.AperFunction,SMDPad,CuDef*%
G36*
G01*
X138164250Y-117084500D02*
X139076750Y-117084500D01*
G75*
G02*
X139320500Y-117328250I0J-243750D01*
G01*
X139320500Y-117815750D01*
G75*
G02*
X139076750Y-118059500I-243750J0D01*
G01*
X138164250Y-118059500D01*
G75*
G02*
X137920500Y-117815750I0J243750D01*
G01*
X137920500Y-117328250D01*
G75*
G02*
X138164250Y-117084500I243750J0D01*
G01*
G37*
%TD.AperFunction*%
%TO.P,C4,1*%
%TO.N,REG_VIN*%
%TA.AperFunction,SMDPad,CuDef*%
G36*
G01*
X138164250Y-115209500D02*
X139076750Y-115209500D01*
G75*
G02*
X139320500Y-115453250I0J-243750D01*
G01*
X139320500Y-115940750D01*
G75*
G02*
X139076750Y-116184500I-243750J0D01*
G01*
X138164250Y-116184500D01*
G75*
G02*
X137920500Y-115940750I0J243750D01*
G01*
X137920500Y-115453250D01*
G75*
G02*
X138164250Y-115209500I243750J0D01*
G01*
G37*
%TD.AperFunction*%
%TD*%
%TO.P,C5,2*%
%TO.N,GND*%
%TA.AperFunction,SMDPad,CuDef*%
G36*
G01*
X127256250Y-90062500D02*
X126743750Y-90062500D01*
G75*
G02*
X126525000Y-89843750I0J218750D01*
G01*
X126525000Y-89406250D01*
G75*
G02*
X126743750Y-89187500I218750J0D01*
G01*
X127256250Y-89187500D01*
G75*
G02*
X127475000Y-89406250I0J-218750D01*
G01*
X127475000Y-89843750D01*
G75*
G02*
X127256250Y-90062500I-218750J0D01*
G01*
G37*
%TD.AperFunction*%
%TO.P,C5,1*%
%TO.N,+3V3*%
%TA.AperFunction,SMDPad,CuDef*%
G36*
G01*
X127256250Y-91637500D02*
X126743750Y-91637500D01*
G75*
G02*
X126525000Y-91418750I0J218750D01*
G01*
X126525000Y-90981250D01*
G75*
G02*
X126743750Y-90762500I218750J0D01*
G01*
X127256250Y-90762500D01*
G75*
G02*
X127475000Y-90981250I0J-218750D01*
G01*
X127475000Y-91418750D01*
G75*
G02*
X127256250Y-91637500I-218750J0D01*
G01*
G37*
%TD.AperFunction*%
%TD*%
%TO.P,C6,2*%
%TO.N,GND*%
%TA.AperFunction,SMDPad,CuDef*%
G36*
G01*
X133256250Y-89912500D02*
X132343750Y-89912500D01*
G75*
G02*
X132100000Y-89668750I0J243750D01*
G01*
X132100000Y-89181250D01*
G75*
G02*
X132343750Y-88937500I243750J0D01*
G01*
X133256250Y-88937500D01*
G75*
G02*
X133500000Y-89181250I0J-243750D01*
G01*
X133500000Y-89668750D01*
G75*
G02*
X133256250Y-89912500I-243750J0D01*
G01*
G37*
%TD.AperFunction*%
%TO.P,C6,1*%
%TO.N,Net-(C6-Pad1)*%
%TA.AperFunction,SMDPad,CuDef*%
G36*
G01*
X133256250Y-91787500D02*
X132343750Y-91787500D01*
G75*
G02*
X132100000Y-91543750I0J243750D01*
G01*
X132100000Y-91056250D01*
G75*
G02*
X132343750Y-90812500I243750J0D01*
G01*
X133256250Y-90812500D01*
G75*
G02*
X133500000Y-91056250I0J-243750D01*
G01*
X133500000Y-91543750D01*
G75*
G02*
X133256250Y-91787500I-243750J0D01*
G01*
G37*
%TD.AperFunction*%
%TD*%
D14*
%TO.P,C7,2*%
%TO.N,GND*%
X124700000Y-107200000D03*
D15*
%TO.P,C7,1*%
%TO.N,+3V3*%
X121200000Y-107200000D03*
%TD*%
%TO.P,C8,2*%
%TO.N,GND*%
%TA.AperFunction,SMDPad,CuDef*%
G36*
G01*
X111060000Y-112277500D02*
X111060000Y-112622500D01*
G75*
G02*
X110912500Y-112770000I-147500J0D01*
G01*
X110617500Y-112770000D01*
G75*
G02*
X110470000Y-112622500I0J147500D01*
G01*
X110470000Y-112277500D01*
G75*
G02*
X110617500Y-112130000I147500J0D01*
G01*
X110912500Y-112130000D01*
G75*
G02*
X111060000Y-112277500I0J-147500D01*
G01*
G37*
%TD.AperFunction*%
%TO.P,C8,1*%
%TO.N,RCC_OSC_IN*%
%TA.AperFunction,SMDPad,CuDef*%
G36*
G01*
X112030000Y-112277500D02*
X112030000Y-112622500D01*
G75*
G02*
X111882500Y-112770000I-147500J0D01*
G01*
X111587500Y-112770000D01*
G75*
G02*
X111440000Y-112622500I0J147500D01*
G01*
X111440000Y-112277500D01*
G75*
G02*
X111587500Y-112130000I147500J0D01*
G01*
X111882500Y-112130000D01*
G75*
G02*
X112030000Y-112277500I0J-147500D01*
G01*
G37*
%TD.AperFunction*%
%TD*%
%TO.P,C9,2*%
%TO.N,GND*%
%TA.AperFunction,SMDPad,CuDef*%
G36*
G01*
X111440000Y-107322500D02*
X111440000Y-106977500D01*
G75*
G02*
X111587500Y-106830000I147500J0D01*
G01*
X111882500Y-106830000D01*
G75*
G02*
X112030000Y-106977500I0J-147500D01*
G01*
X112030000Y-107322500D01*
G75*
G02*
X111882500Y-107470000I-147500J0D01*
G01*
X111587500Y-107470000D01*
G75*
G02*
X111440000Y-107322500I0J147500D01*
G01*
G37*
%TD.AperFunction*%
%TO.P,C9,1*%
%TO.N,Net-(C9-Pad1)*%
%TA.AperFunction,SMDPad,CuDef*%
G36*
G01*
X110470000Y-107322500D02*
X110470000Y-106977500D01*
G75*
G02*
X110617500Y-106830000I147500J0D01*
G01*
X110912500Y-106830000D01*
G75*
G02*
X111060000Y-106977500I0J-147500D01*
G01*
X111060000Y-107322500D01*
G75*
G02*
X110912500Y-107470000I-147500J0D01*
G01*
X110617500Y-107470000D01*
G75*
G02*
X110470000Y-107322500I0J147500D01*
G01*
G37*
%TD.AperFunction*%
%TD*%
%TO.P,C10,2*%
%TO.N,REG_FEEDBACK*%
%TA.AperFunction,SMDPad,CuDef*%
G36*
G01*
X127635650Y-121666100D02*
X127123150Y-121666100D01*
G75*
G02*
X126904400Y-121447350I0J218750D01*
G01*
X126904400Y-121009850D01*
G75*
G02*
X127123150Y-120791100I218750J0D01*
G01*
X127635650Y-120791100D01*
G75*
G02*
X127854400Y-121009850I0J-218750D01*
G01*
X127854400Y-121447350D01*
G75*
G02*
X127635650Y-121666100I-218750J0D01*
G01*
G37*
%TD.AperFunction*%
%TO.P,C10,1*%
%TO.N,+3V3*%
%TA.AperFunction,SMDPad,CuDef*%
G36*
G01*
X127635650Y-123241100D02*
X127123150Y-123241100D01*
G75*
G02*
X126904400Y-123022350I0J218750D01*
G01*
X126904400Y-122584850D01*
G75*
G02*
X127123150Y-122366100I218750J0D01*
G01*
X127635650Y-122366100D01*
G75*
G02*
X127854400Y-122584850I0J-218750D01*
G01*
X127854400Y-123022350D01*
G75*
G02*
X127635650Y-123241100I-218750J0D01*
G01*
G37*
%TD.AperFunction*%
%TD*%
%TO.P,C11,2*%
%TO.N,GND*%
%TA.AperFunction,SMDPad,CuDef*%
G36*
G01*
X103937500Y-104871750D02*
X103937500Y-105384250D01*
G75*
G02*
X103718750Y-105603000I-218750J0D01*
G01*
X103281250Y-105603000D01*
G75*
G02*
X103062500Y-105384250I0J218750D01*
G01*
X103062500Y-104871750D01*
G75*
G02*
X103281250Y-104653000I218750J0D01*
G01*
X103718750Y-104653000D01*
G75*
G02*
X103937500Y-104871750I0J-218750D01*
G01*
G37*
%TD.AperFunction*%
%TO.P,C11,1*%
%TO.N,+3V3*%
%TA.AperFunction,SMDPad,CuDef*%
G36*
G01*
X105512500Y-104871750D02*
X105512500Y-105384250D01*
G75*
G02*
X105293750Y-105603000I-218750J0D01*
G01*
X104856250Y-105603000D01*
G75*
G02*
X104637500Y-105384250I0J218750D01*
G01*
X104637500Y-104871750D01*
G75*
G02*
X104856250Y-104653000I218750J0D01*
G01*
X105293750Y-104653000D01*
G75*
G02*
X105512500Y-104871750I0J-218750D01*
G01*
G37*
%TD.AperFunction*%
%TD*%
%TO.P,C12,2*%
%TO.N,GND*%
%TA.AperFunction,SMDPad,CuDef*%
G36*
G01*
X103937500Y-103343750D02*
X103937500Y-103856250D01*
G75*
G02*
X103718750Y-104075000I-218750J0D01*
G01*
X103281250Y-104075000D01*
G75*
G02*
X103062500Y-103856250I0J218750D01*
G01*
X103062500Y-103343750D01*
G75*
G02*
X103281250Y-103125000I218750J0D01*
G01*
X103718750Y-103125000D01*
G75*
G02*
X103937500Y-103343750I0J-218750D01*
G01*
G37*
%TD.AperFunction*%
%TO.P,C12,1*%
%TO.N,+3V3*%
%TA.AperFunction,SMDPad,CuDef*%
G36*
G01*
X105512500Y-103343750D02*
X105512500Y-103856250D01*
G75*
G02*
X105293750Y-104075000I-218750J0D01*
G01*
X104856250Y-104075000D01*
G75*
G02*
X104637500Y-103856250I0J218750D01*
G01*
X104637500Y-103343750D01*
G75*
G02*
X104856250Y-103125000I218750J0D01*
G01*
X105293750Y-103125000D01*
G75*
G02*
X105512500Y-103343750I0J-218750D01*
G01*
G37*
%TD.AperFunction*%
%TD*%
D16*
%TO.P,D1,2*%
%TO.N,GND*%
X129032000Y-111570000D03*
%TO.P,D1,1*%
%TO.N,REG_OUT*%
X129032000Y-115570000D03*
%TD*%
D17*
%TO.P,J1,6*%
%TO.N,Net-(J1-Pad6)*%
X145550000Y-103487500D03*
X145550000Y-96012500D03*
D18*
X145550000Y-99750000D03*
D19*
%TO.P,J1,2*%
%TO.N,USB_CON_D+*%
X142875000Y-99100000D03*
D20*
%TO.P,J1,6*%
%TO.N,Net-(J1-Pad6)*%
X145550000Y-95575000D03*
X145550000Y-103925000D03*
D21*
X142550000Y-97525000D03*
D19*
%TO.P,J1,1*%
%TO.N,REG_VIN*%
X142875000Y-98450000D03*
%TO.P,J1,3*%
%TO.N,USB_CON_D-*%
X142875000Y-99750000D03*
%TO.P,J1,4*%
%TO.N,Net-(J1-Pad4)*%
X142875000Y-100400000D03*
%TO.P,J1,5*%
%TO.N,GND*%
X142875000Y-101050000D03*
D21*
%TO.P,J1,6*%
%TO.N,Net-(J1-Pad6)*%
X142550000Y-101975000D03*
%TD*%
D10*
%TO.P,J2,2*%
%TO.N,STM8_TX*%
X111120000Y-89680000D03*
D11*
%TO.P,J2,1*%
%TO.N,STM8_RX*%
X113660000Y-89680000D03*
%TD*%
D10*
%TO.P,J_SWIM1,4*%
%TO.N,STM8_NRST*%
X106035000Y-89700000D03*
%TO.P,J_SWIM1,3*%
%TO.N,GND*%
X103495000Y-89700000D03*
%TO.P,J_SWIM1,2*%
%TO.N,STM8_SWIM*%
X100955000Y-89700000D03*
D11*
%TO.P,J_SWIM1,1*%
%TO.N,+3V3*%
X98415000Y-89700000D03*
%TD*%
D22*
%TO.P,L1,2*%
%TO.N,+3V3*%
X119711000Y-115570000D03*
%TO.P,L1,1*%
%TO.N,REG_OUT*%
X126111000Y-115570000D03*
%TD*%
%TO.P,LED1,2*%
%TO.N,TIM3_CH1*%
%TA.AperFunction,SMDPad,CuDef*%
G36*
G01*
X115296250Y-119252500D02*
X114383750Y-119252500D01*
G75*
G02*
X114140000Y-119008750I0J243750D01*
G01*
X114140000Y-118521250D01*
G75*
G02*
X114383750Y-118277500I243750J0D01*
G01*
X115296250Y-118277500D01*
G75*
G02*
X115540000Y-118521250I0J-243750D01*
G01*
X115540000Y-119008750D01*
G75*
G02*
X115296250Y-119252500I-243750J0D01*
G01*
G37*
%TD.AperFunction*%
%TO.P,LED1,1*%
%TO.N,Net-(LED1-Pad1)*%
%TA.AperFunction,SMDPad,CuDef*%
G36*
G01*
X115296250Y-121127500D02*
X114383750Y-121127500D01*
G75*
G02*
X114140000Y-120883750I0J243750D01*
G01*
X114140000Y-120396250D01*
G75*
G02*
X114383750Y-120152500I243750J0D01*
G01*
X115296250Y-120152500D01*
G75*
G02*
X115540000Y-120396250I0J-243750D01*
G01*
X115540000Y-120883750D01*
G75*
G02*
X115296250Y-121127500I-243750J0D01*
G01*
G37*
%TD.AperFunction*%
%TD*%
%TO.P,LED2,2*%
%TO.N,GPIO_PB7*%
%TA.AperFunction,SMDPad,CuDef*%
G36*
G01*
X111006250Y-119222500D02*
X110093750Y-119222500D01*
G75*
G02*
X109850000Y-118978750I0J243750D01*
G01*
X109850000Y-118491250D01*
G75*
G02*
X110093750Y-118247500I243750J0D01*
G01*
X111006250Y-118247500D01*
G75*
G02*
X111250000Y-118491250I0J-243750D01*
G01*
X111250000Y-118978750D01*
G75*
G02*
X111006250Y-119222500I-243750J0D01*
G01*
G37*
%TD.AperFunction*%
%TO.P,LED2,1*%
%TO.N,Net-(LED2-Pad1)*%
%TA.AperFunction,SMDPad,CuDef*%
G36*
G01*
X111006250Y-121097500D02*
X110093750Y-121097500D01*
G75*
G02*
X109850000Y-120853750I0J243750D01*
G01*
X109850000Y-120366250D01*
G75*
G02*
X110093750Y-120122500I243750J0D01*
G01*
X111006250Y-120122500D01*
G75*
G02*
X111250000Y-120366250I0J-243750D01*
G01*
X111250000Y-120853750D01*
G75*
G02*
X111006250Y-121097500I-243750J0D01*
G01*
G37*
%TD.AperFunction*%
%TD*%
%TO.P,LED3,2*%
%TO.N,GPIO_PB6*%
%TA.AperFunction,SMDPad,CuDef*%
G36*
G01*
X113146250Y-119222500D02*
X112233750Y-119222500D01*
G75*
G02*
X111990000Y-118978750I0J243750D01*
G01*
X111990000Y-118491250D01*
G75*
G02*
X112233750Y-118247500I243750J0D01*
G01*
X113146250Y-118247500D01*
G75*
G02*
X113390000Y-118491250I0J-243750D01*
G01*
X113390000Y-118978750D01*
G75*
G02*
X113146250Y-119222500I-243750J0D01*
G01*
G37*
%TD.AperFunction*%
%TO.P,LED3,1*%
%TO.N,Net-(LED3-Pad1)*%
%TA.AperFunction,SMDPad,CuDef*%
G36*
G01*
X113146250Y-121097500D02*
X112233750Y-121097500D01*
G75*
G02*
X111990000Y-120853750I0J243750D01*
G01*
X111990000Y-120366250D01*
G75*
G02*
X112233750Y-120122500I243750J0D01*
G01*
X113146250Y-120122500D01*
G75*
G02*
X113390000Y-120366250I0J-243750D01*
G01*
X113390000Y-120853750D01*
G75*
G02*
X113146250Y-121097500I-243750J0D01*
G01*
G37*
%TD.AperFunction*%
%TD*%
%TO.P,LED_3V31,2*%
%TO.N,+3V3*%
%TA.AperFunction,SMDPad,CuDef*%
G36*
G01*
X129687500Y-104342250D02*
X129687500Y-103429750D01*
G75*
G02*
X129931250Y-103186000I243750J0D01*
G01*
X130418750Y-103186000D01*
G75*
G02*
X130662500Y-103429750I0J-243750D01*
G01*
X130662500Y-104342250D01*
G75*
G02*
X130418750Y-104586000I-243750J0D01*
G01*
X129931250Y-104586000D01*
G75*
G02*
X129687500Y-104342250I0J243750D01*
G01*
G37*
%TD.AperFunction*%
%TO.P,LED_3V31,1*%
%TO.N,Net-(LED_3V31-Pad1)*%
%TA.AperFunction,SMDPad,CuDef*%
G36*
G01*
X127812500Y-104342250D02*
X127812500Y-103429750D01*
G75*
G02*
X128056250Y-103186000I243750J0D01*
G01*
X128543750Y-103186000D01*
G75*
G02*
X128787500Y-103429750I0J-243750D01*
G01*
X128787500Y-104342250D01*
G75*
G02*
X128543750Y-104586000I-243750J0D01*
G01*
X128056250Y-104586000D01*
G75*
G02*
X127812500Y-104342250I0J243750D01*
G01*
G37*
%TD.AperFunction*%
%TD*%
%TO.P,LED_5V1,2*%
%TO.N,REG_VIN*%
%TA.AperFunction,SMDPad,CuDef*%
G36*
G01*
X141461150Y-107974300D02*
X142373650Y-107974300D01*
G75*
G02*
X142617400Y-108218050I0J-243750D01*
G01*
X142617400Y-108705550D01*
G75*
G02*
X142373650Y-108949300I-243750J0D01*
G01*
X141461150Y-108949300D01*
G75*
G02*
X141217400Y-108705550I0J243750D01*
G01*
X141217400Y-108218050D01*
G75*
G02*
X141461150Y-107974300I243750J0D01*
G01*
G37*
%TD.AperFunction*%
%TO.P,LED_5V1,1*%
%TO.N,Net-(LED_5V1-Pad1)*%
%TA.AperFunction,SMDPad,CuDef*%
G36*
G01*
X141461150Y-106099300D02*
X142373650Y-106099300D01*
G75*
G02*
X142617400Y-106343050I0J-243750D01*
G01*
X142617400Y-106830550D01*
G75*
G02*
X142373650Y-107074300I-243750J0D01*
G01*
X141461150Y-107074300D01*
G75*
G02*
X141217400Y-106830550I0J243750D01*
G01*
X141217400Y-106343050D01*
G75*
G02*
X141461150Y-106099300I243750J0D01*
G01*
G37*
%TD.AperFunction*%
%TD*%
%TO.P,LED_RX1,2*%
%TO.N,Net-(LED_RX1-Pad2)*%
%TA.AperFunction,SMDPad,CuDef*%
G36*
G01*
X118632700Y-96781850D02*
X118632700Y-95869350D01*
G75*
G02*
X118876450Y-95625600I243750J0D01*
G01*
X119363950Y-95625600D01*
G75*
G02*
X119607700Y-95869350I0J-243750D01*
G01*
X119607700Y-96781850D01*
G75*
G02*
X119363950Y-97025600I-243750J0D01*
G01*
X118876450Y-97025600D01*
G75*
G02*
X118632700Y-96781850I0J243750D01*
G01*
G37*
%TD.AperFunction*%
%TO.P,LED_RX1,1*%
%TO.N,GND*%
%TA.AperFunction,SMDPad,CuDef*%
G36*
G01*
X116757700Y-96781850D02*
X116757700Y-95869350D01*
G75*
G02*
X117001450Y-95625600I243750J0D01*
G01*
X117488950Y-95625600D01*
G75*
G02*
X117732700Y-95869350I0J-243750D01*
G01*
X117732700Y-96781850D01*
G75*
G02*
X117488950Y-97025600I-243750J0D01*
G01*
X117001450Y-97025600D01*
G75*
G02*
X116757700Y-96781850I0J243750D01*
G01*
G37*
%TD.AperFunction*%
%TD*%
%TO.P,LED_TX1,2*%
%TO.N,Net-(LED_TX1-Pad2)*%
%TA.AperFunction,SMDPad,CuDef*%
G36*
G01*
X118657700Y-94381850D02*
X118657700Y-93469350D01*
G75*
G02*
X118901450Y-93225600I243750J0D01*
G01*
X119388950Y-93225600D01*
G75*
G02*
X119632700Y-93469350I0J-243750D01*
G01*
X119632700Y-94381850D01*
G75*
G02*
X119388950Y-94625600I-243750J0D01*
G01*
X118901450Y-94625600D01*
G75*
G02*
X118657700Y-94381850I0J243750D01*
G01*
G37*
%TD.AperFunction*%
%TO.P,LED_TX1,1*%
%TO.N,GND*%
%TA.AperFunction,SMDPad,CuDef*%
G36*
G01*
X116782700Y-94381850D02*
X116782700Y-93469350D01*
G75*
G02*
X117026450Y-93225600I243750J0D01*
G01*
X117513950Y-93225600D01*
G75*
G02*
X117757700Y-93469350I0J-243750D01*
G01*
X117757700Y-94381850D01*
G75*
G02*
X117513950Y-94625600I-243750J0D01*
G01*
X117026450Y-94625600D01*
G75*
G02*
X116782700Y-94381850I0J243750D01*
G01*
G37*
%TD.AperFunction*%
%TD*%
%TO.P,R1,2*%
%TO.N,REG_VIN*%
%TA.AperFunction,SMDPad,CuDef*%
G36*
G01*
X137867300Y-100355400D02*
X137522300Y-100355400D01*
G75*
G02*
X137374800Y-100207900I0J147500D01*
G01*
X137374800Y-99912900D01*
G75*
G02*
X137522300Y-99765400I147500J0D01*
G01*
X137867300Y-99765400D01*
G75*
G02*
X138014800Y-99912900I0J-147500D01*
G01*
X138014800Y-100207900D01*
G75*
G02*
X137867300Y-100355400I-147500J0D01*
G01*
G37*
%TD.AperFunction*%
%TO.P,R1,1*%
%TO.N,FT232_nRESET*%
%TA.AperFunction,SMDPad,CuDef*%
G36*
G01*
X137867300Y-101325400D02*
X137522300Y-101325400D01*
G75*
G02*
X137374800Y-101177900I0J147500D01*
G01*
X137374800Y-100882900D01*
G75*
G02*
X137522300Y-100735400I147500J0D01*
G01*
X137867300Y-100735400D01*
G75*
G02*
X138014800Y-100882900I0J-147500D01*
G01*
X138014800Y-101177900D01*
G75*
G02*
X137867300Y-101325400I-147500J0D01*
G01*
G37*
%TD.AperFunction*%
%TD*%
%TO.P,R2,2*%
%TO.N,FT232_nRESET*%
%TA.AperFunction,SMDPad,CuDef*%
G36*
G01*
X137867300Y-102340400D02*
X137522300Y-102340400D01*
G75*
G02*
X137374800Y-102192900I0J147500D01*
G01*
X137374800Y-101897900D01*
G75*
G02*
X137522300Y-101750400I147500J0D01*
G01*
X137867300Y-101750400D01*
G75*
G02*
X138014800Y-101897900I0J-147500D01*
G01*
X138014800Y-102192900D01*
G75*
G02*
X137867300Y-102340400I-147500J0D01*
G01*
G37*
%TD.AperFunction*%
%TO.P,R2,1*%
%TO.N,GND*%
%TA.AperFunction,SMDPad,CuDef*%
G36*
G01*
X137867300Y-103310400D02*
X137522300Y-103310400D01*
G75*
G02*
X137374800Y-103162900I0J147500D01*
G01*
X137374800Y-102867900D01*
G75*
G02*
X137522300Y-102720400I147500J0D01*
G01*
X137867300Y-102720400D01*
G75*
G02*
X138014800Y-102867900I0J-147500D01*
G01*
X138014800Y-103162900D01*
G75*
G02*
X137867300Y-103310400I-147500J0D01*
G01*
G37*
%TD.AperFunction*%
%TD*%
%TO.P,R3,2*%
%TO.N,Net-(R3-Pad2)*%
%TA.AperFunction,SMDPad,CuDef*%
G36*
G01*
X120500000Y-100256250D02*
X120500000Y-99343750D01*
G75*
G02*
X120743750Y-99100000I243750J0D01*
G01*
X121231250Y-99100000D01*
G75*
G02*
X121475000Y-99343750I0J-243750D01*
G01*
X121475000Y-100256250D01*
G75*
G02*
X121231250Y-100500000I-243750J0D01*
G01*
X120743750Y-100500000D01*
G75*
G02*
X120500000Y-100256250I0J243750D01*
G01*
G37*
%TD.AperFunction*%
%TO.P,R3,1*%
%TO.N,STM8_RX*%
%TA.AperFunction,SMDPad,CuDef*%
G36*
G01*
X118625000Y-100256250D02*
X118625000Y-99343750D01*
G75*
G02*
X118868750Y-99100000I243750J0D01*
G01*
X119356250Y-99100000D01*
G75*
G02*
X119600000Y-99343750I0J-243750D01*
G01*
X119600000Y-100256250D01*
G75*
G02*
X119356250Y-100500000I-243750J0D01*
G01*
X118868750Y-100500000D01*
G75*
G02*
X118625000Y-100256250I0J243750D01*
G01*
G37*
%TD.AperFunction*%
%TD*%
%TO.P,R4,2*%
%TO.N,Net-(R4-Pad2)*%
%TA.AperFunction,SMDPad,CuDef*%
G36*
G01*
X120487500Y-102306250D02*
X120487500Y-101393750D01*
G75*
G02*
X120731250Y-101150000I243750J0D01*
G01*
X121218750Y-101150000D01*
G75*
G02*
X121462500Y-101393750I0J-243750D01*
G01*
X121462500Y-102306250D01*
G75*
G02*
X121218750Y-102550000I-243750J0D01*
G01*
X120731250Y-102550000D01*
G75*
G02*
X120487500Y-102306250I0J243750D01*
G01*
G37*
%TD.AperFunction*%
%TO.P,R4,1*%
%TO.N,STM8_TX*%
%TA.AperFunction,SMDPad,CuDef*%
G36*
G01*
X118612500Y-102306250D02*
X118612500Y-101393750D01*
G75*
G02*
X118856250Y-101150000I243750J0D01*
G01*
X119343750Y-101150000D01*
G75*
G02*
X119587500Y-101393750I0J-243750D01*
G01*
X119587500Y-102306250D01*
G75*
G02*
X119343750Y-102550000I-243750J0D01*
G01*
X118856250Y-102550000D01*
G75*
G02*
X118612500Y-102306250I0J243750D01*
G01*
G37*
%TD.AperFunction*%
%TD*%
%TO.P,R5,2*%
%TO.N,Net-(LED_TX1-Pad2)*%
%TA.AperFunction,SMDPad,CuDef*%
G36*
G01*
X121257700Y-93469350D02*
X121257700Y-94381850D01*
G75*
G02*
X121013950Y-94625600I-243750J0D01*
G01*
X120526450Y-94625600D01*
G75*
G02*
X120282700Y-94381850I0J243750D01*
G01*
X120282700Y-93469350D01*
G75*
G02*
X120526450Y-93225600I243750J0D01*
G01*
X121013950Y-93225600D01*
G75*
G02*
X121257700Y-93469350I0J-243750D01*
G01*
G37*
%TD.AperFunction*%
%TO.P,R5,1*%
%TO.N,CBUS0*%
%TA.AperFunction,SMDPad,CuDef*%
G36*
G01*
X123132700Y-93469350D02*
X123132700Y-94381850D01*
G75*
G02*
X122888950Y-94625600I-243750J0D01*
G01*
X122401450Y-94625600D01*
G75*
G02*
X122157700Y-94381850I0J243750D01*
G01*
X122157700Y-93469350D01*
G75*
G02*
X122401450Y-93225600I243750J0D01*
G01*
X122888950Y-93225600D01*
G75*
G02*
X123132700Y-93469350I0J-243750D01*
G01*
G37*
%TD.AperFunction*%
%TD*%
%TO.P,R6,2*%
%TO.N,Net-(LED_RX1-Pad2)*%
%TA.AperFunction,SMDPad,CuDef*%
G36*
G01*
X121232700Y-95869350D02*
X121232700Y-96781850D01*
G75*
G02*
X120988950Y-97025600I-243750J0D01*
G01*
X120501450Y-97025600D01*
G75*
G02*
X120257700Y-96781850I0J243750D01*
G01*
X120257700Y-95869350D01*
G75*
G02*
X120501450Y-95625600I243750J0D01*
G01*
X120988950Y-95625600D01*
G75*
G02*
X121232700Y-95869350I0J-243750D01*
G01*
G37*
%TD.AperFunction*%
%TO.P,R6,1*%
%TO.N,CBUS1*%
%TA.AperFunction,SMDPad,CuDef*%
G36*
G01*
X123107700Y-95869350D02*
X123107700Y-96781850D01*
G75*
G02*
X122863950Y-97025600I-243750J0D01*
G01*
X122376450Y-97025600D01*
G75*
G02*
X122132700Y-96781850I0J243750D01*
G01*
X122132700Y-95869350D01*
G75*
G02*
X122376450Y-95625600I243750J0D01*
G01*
X122863950Y-95625600D01*
G75*
G02*
X123107700Y-95869350I0J-243750D01*
G01*
G37*
%TD.AperFunction*%
%TD*%
%TO.P,R7,2*%
%TO.N,GND*%
%TA.AperFunction,SMDPad,CuDef*%
G36*
G01*
X114383750Y-123627500D02*
X115296250Y-123627500D01*
G75*
G02*
X115540000Y-123871250I0J-243750D01*
G01*
X115540000Y-124358750D01*
G75*
G02*
X115296250Y-124602500I-243750J0D01*
G01*
X114383750Y-124602500D01*
G75*
G02*
X114140000Y-124358750I0J243750D01*
G01*
X114140000Y-123871250D01*
G75*
G02*
X114383750Y-123627500I243750J0D01*
G01*
G37*
%TD.AperFunction*%
%TO.P,R7,1*%
%TO.N,Net-(LED1-Pad1)*%
%TA.AperFunction,SMDPad,CuDef*%
G36*
G01*
X114383750Y-121752500D02*
X115296250Y-121752500D01*
G75*
G02*
X115540000Y-121996250I0J-243750D01*
G01*
X115540000Y-122483750D01*
G75*
G02*
X115296250Y-122727500I-243750J0D01*
G01*
X114383750Y-122727500D01*
G75*
G02*
X114140000Y-122483750I0J243750D01*
G01*
X114140000Y-121996250D01*
G75*
G02*
X114383750Y-121752500I243750J0D01*
G01*
G37*
%TD.AperFunction*%
%TD*%
%TO.P,R8,2*%
%TO.N,Net-(R8-Pad2)*%
%TA.AperFunction,SMDPad,CuDef*%
G36*
G01*
X129451400Y-122722100D02*
X129451400Y-122377100D01*
G75*
G02*
X129598900Y-122229600I147500J0D01*
G01*
X129893900Y-122229600D01*
G75*
G02*
X130041400Y-122377100I0J-147500D01*
G01*
X130041400Y-122722100D01*
G75*
G02*
X129893900Y-122869600I-147500J0D01*
G01*
X129598900Y-122869600D01*
G75*
G02*
X129451400Y-122722100I0J147500D01*
G01*
G37*
%TD.AperFunction*%
%TO.P,R8,1*%
%TO.N,+3V3*%
%TA.AperFunction,SMDPad,CuDef*%
G36*
G01*
X128481400Y-122722100D02*
X128481400Y-122377100D01*
G75*
G02*
X128628900Y-122229600I147500J0D01*
G01*
X128923900Y-122229600D01*
G75*
G02*
X129071400Y-122377100I0J-147500D01*
G01*
X129071400Y-122722100D01*
G75*
G02*
X128923900Y-122869600I-147500J0D01*
G01*
X128628900Y-122869600D01*
G75*
G02*
X128481400Y-122722100I0J147500D01*
G01*
G37*
%TD.AperFunction*%
%TD*%
%TO.P,R9,2*%
%TO.N,REG_FEEDBACK*%
%TA.AperFunction,SMDPad,CuDef*%
G36*
G01*
X129071400Y-121234100D02*
X129071400Y-121579100D01*
G75*
G02*
X128923900Y-121726600I-147500J0D01*
G01*
X128628900Y-121726600D01*
G75*
G02*
X128481400Y-121579100I0J147500D01*
G01*
X128481400Y-121234100D01*
G75*
G02*
X128628900Y-121086600I147500J0D01*
G01*
X128923900Y-121086600D01*
G75*
G02*
X129071400Y-121234100I0J-147500D01*
G01*
G37*
%TD.AperFunction*%
%TO.P,R9,1*%
%TO.N,Net-(R8-Pad2)*%
%TA.AperFunction,SMDPad,CuDef*%
G36*
G01*
X130041400Y-121234100D02*
X130041400Y-121579100D01*
G75*
G02*
X129893900Y-121726600I-147500J0D01*
G01*
X129598900Y-121726600D01*
G75*
G02*
X129451400Y-121579100I0J147500D01*
G01*
X129451400Y-121234100D01*
G75*
G02*
X129598900Y-121086600I147500J0D01*
G01*
X129893900Y-121086600D01*
G75*
G02*
X130041400Y-121234100I0J-147500D01*
G01*
G37*
%TD.AperFunction*%
%TD*%
%TO.P,R10,2*%
%TO.N,GND*%
%TA.AperFunction,SMDPad,CuDef*%
G36*
G01*
X127949000Y-119760900D02*
X127949000Y-120105900D01*
G75*
G02*
X127801500Y-120253400I-147500J0D01*
G01*
X127506500Y-120253400D01*
G75*
G02*
X127359000Y-120105900I0J147500D01*
G01*
X127359000Y-119760900D01*
G75*
G02*
X127506500Y-119613400I147500J0D01*
G01*
X127801500Y-119613400D01*
G75*
G02*
X127949000Y-119760900I0J-147500D01*
G01*
G37*
%TD.AperFunction*%
%TO.P,R10,1*%
%TO.N,REG_FEEDBACK*%
%TA.AperFunction,SMDPad,CuDef*%
G36*
G01*
X128919000Y-119760900D02*
X128919000Y-120105900D01*
G75*
G02*
X128771500Y-120253400I-147500J0D01*
G01*
X128476500Y-120253400D01*
G75*
G02*
X128329000Y-120105900I0J147500D01*
G01*
X128329000Y-119760900D01*
G75*
G02*
X128476500Y-119613400I147500J0D01*
G01*
X128771500Y-119613400D01*
G75*
G02*
X128919000Y-119760900I0J-147500D01*
G01*
G37*
%TD.AperFunction*%
%TD*%
%TO.P,R11,2*%
%TO.N,GND*%
%TA.AperFunction,SMDPad,CuDef*%
G36*
G01*
X110093750Y-123597500D02*
X111006250Y-123597500D01*
G75*
G02*
X111250000Y-123841250I0J-243750D01*
G01*
X111250000Y-124328750D01*
G75*
G02*
X111006250Y-124572500I-243750J0D01*
G01*
X110093750Y-124572500D01*
G75*
G02*
X109850000Y-124328750I0J243750D01*
G01*
X109850000Y-123841250D01*
G75*
G02*
X110093750Y-123597500I243750J0D01*
G01*
G37*
%TD.AperFunction*%
%TO.P,R11,1*%
%TO.N,Net-(LED2-Pad1)*%
%TA.AperFunction,SMDPad,CuDef*%
G36*
G01*
X110093750Y-121722500D02*
X111006250Y-121722500D01*
G75*
G02*
X111250000Y-121966250I0J-243750D01*
G01*
X111250000Y-122453750D01*
G75*
G02*
X111006250Y-122697500I-243750J0D01*
G01*
X110093750Y-122697500D01*
G75*
G02*
X109850000Y-122453750I0J243750D01*
G01*
X109850000Y-121966250D01*
G75*
G02*
X110093750Y-121722500I243750J0D01*
G01*
G37*
%TD.AperFunction*%
%TD*%
%TO.P,R12,2*%
%TO.N,Net-(C9-Pad1)*%
%TA.AperFunction,SMDPad,CuDef*%
G36*
G01*
X108972500Y-108325000D02*
X108627500Y-108325000D01*
G75*
G02*
X108480000Y-108177500I0J147500D01*
G01*
X108480000Y-107882500D01*
G75*
G02*
X108627500Y-107735000I147500J0D01*
G01*
X108972500Y-107735000D01*
G75*
G02*
X109120000Y-107882500I0J-147500D01*
G01*
X109120000Y-108177500D01*
G75*
G02*
X108972500Y-108325000I-147500J0D01*
G01*
G37*
%TD.AperFunction*%
%TO.P,R12,1*%
%TO.N,RCC_OSC_OUT*%
%TA.AperFunction,SMDPad,CuDef*%
G36*
G01*
X108972500Y-109295000D02*
X108627500Y-109295000D01*
G75*
G02*
X108480000Y-109147500I0J147500D01*
G01*
X108480000Y-108852500D01*
G75*
G02*
X108627500Y-108705000I147500J0D01*
G01*
X108972500Y-108705000D01*
G75*
G02*
X109120000Y-108852500I0J-147500D01*
G01*
X109120000Y-109147500D01*
G75*
G02*
X108972500Y-109295000I-147500J0D01*
G01*
G37*
%TD.AperFunction*%
%TD*%
%TO.P,R13,2*%
%TO.N,GND*%
%TA.AperFunction,SMDPad,CuDef*%
G36*
G01*
X112233750Y-123597500D02*
X113146250Y-123597500D01*
G75*
G02*
X113390000Y-123841250I0J-243750D01*
G01*
X113390000Y-124328750D01*
G75*
G02*
X113146250Y-124572500I-243750J0D01*
G01*
X112233750Y-124572500D01*
G75*
G02*
X111990000Y-124328750I0J243750D01*
G01*
X111990000Y-123841250D01*
G75*
G02*
X112233750Y-123597500I243750J0D01*
G01*
G37*
%TD.AperFunction*%
%TO.P,R13,1*%
%TO.N,Net-(LED3-Pad1)*%
%TA.AperFunction,SMDPad,CuDef*%
G36*
G01*
X112233750Y-121722500D02*
X113146250Y-121722500D01*
G75*
G02*
X113390000Y-121966250I0J-243750D01*
G01*
X113390000Y-122453750D01*
G75*
G02*
X113146250Y-122697500I-243750J0D01*
G01*
X112233750Y-122697500D01*
G75*
G02*
X111990000Y-122453750I0J243750D01*
G01*
X111990000Y-121966250D01*
G75*
G02*
X112233750Y-121722500I243750J0D01*
G01*
G37*
%TD.AperFunction*%
%TD*%
%TO.P,R14,2*%
%TO.N,I2C_SDA*%
%TA.AperFunction,SMDPad,CuDef*%
G36*
G01*
X105837500Y-113643750D02*
X105837500Y-114156250D01*
G75*
G02*
X105618750Y-114375000I-218750J0D01*
G01*
X105181250Y-114375000D01*
G75*
G02*
X104962500Y-114156250I0J218750D01*
G01*
X104962500Y-113643750D01*
G75*
G02*
X105181250Y-113425000I218750J0D01*
G01*
X105618750Y-113425000D01*
G75*
G02*
X105837500Y-113643750I0J-218750D01*
G01*
G37*
%TD.AperFunction*%
%TO.P,R14,1*%
%TO.N,+3V3*%
%TA.AperFunction,SMDPad,CuDef*%
G36*
G01*
X107412500Y-113643750D02*
X107412500Y-114156250D01*
G75*
G02*
X107193750Y-114375000I-218750J0D01*
G01*
X106756250Y-114375000D01*
G75*
G02*
X106537500Y-114156250I0J218750D01*
G01*
X106537500Y-113643750D01*
G75*
G02*
X106756250Y-113425000I218750J0D01*
G01*
X107193750Y-113425000D01*
G75*
G02*
X107412500Y-113643750I0J-218750D01*
G01*
G37*
%TD.AperFunction*%
%TD*%
%TO.P,R15,2*%
%TO.N,I2C_SCL*%
%TA.AperFunction,SMDPad,CuDef*%
G36*
G01*
X103150000Y-114156250D02*
X103150000Y-113643750D01*
G75*
G02*
X103368750Y-113425000I218750J0D01*
G01*
X103806250Y-113425000D01*
G75*
G02*
X104025000Y-113643750I0J-218750D01*
G01*
X104025000Y-114156250D01*
G75*
G02*
X103806250Y-114375000I-218750J0D01*
G01*
X103368750Y-114375000D01*
G75*
G02*
X103150000Y-114156250I0J218750D01*
G01*
G37*
%TD.AperFunction*%
%TO.P,R15,1*%
%TO.N,+3V3*%
%TA.AperFunction,SMDPad,CuDef*%
G36*
G01*
X101575000Y-114156250D02*
X101575000Y-113643750D01*
G75*
G02*
X101793750Y-113425000I218750J0D01*
G01*
X102231250Y-113425000D01*
G75*
G02*
X102450000Y-113643750I0J-218750D01*
G01*
X102450000Y-114156250D01*
G75*
G02*
X102231250Y-114375000I-218750J0D01*
G01*
X101793750Y-114375000D01*
G75*
G02*
X101575000Y-114156250I0J218750D01*
G01*
G37*
%TD.AperFunction*%
%TD*%
%TO.P,R16,2*%
%TO.N,GND*%
%TA.AperFunction,SMDPad,CuDef*%
G36*
G01*
X129713700Y-106373650D02*
X129713700Y-105461150D01*
G75*
G02*
X129957450Y-105217400I243750J0D01*
G01*
X130444950Y-105217400D01*
G75*
G02*
X130688700Y-105461150I0J-243750D01*
G01*
X130688700Y-106373650D01*
G75*
G02*
X130444950Y-106617400I-243750J0D01*
G01*
X129957450Y-106617400D01*
G75*
G02*
X129713700Y-106373650I0J243750D01*
G01*
G37*
%TD.AperFunction*%
%TO.P,R16,1*%
%TO.N,Net-(LED_3V31-Pad1)*%
%TA.AperFunction,SMDPad,CuDef*%
G36*
G01*
X127838700Y-106373650D02*
X127838700Y-105461150D01*
G75*
G02*
X128082450Y-105217400I243750J0D01*
G01*
X128569950Y-105217400D01*
G75*
G02*
X128813700Y-105461150I0J-243750D01*
G01*
X128813700Y-106373650D01*
G75*
G02*
X128569950Y-106617400I-243750J0D01*
G01*
X128082450Y-106617400D01*
G75*
G02*
X127838700Y-106373650I0J243750D01*
G01*
G37*
%TD.AperFunction*%
%TD*%
%TO.P,R17,2*%
%TO.N,GND*%
%TA.AperFunction,SMDPad,CuDef*%
G36*
G01*
X143561150Y-107974300D02*
X144473650Y-107974300D01*
G75*
G02*
X144717400Y-108218050I0J-243750D01*
G01*
X144717400Y-108705550D01*
G75*
G02*
X144473650Y-108949300I-243750J0D01*
G01*
X143561150Y-108949300D01*
G75*
G02*
X143317400Y-108705550I0J243750D01*
G01*
X143317400Y-108218050D01*
G75*
G02*
X143561150Y-107974300I243750J0D01*
G01*
G37*
%TD.AperFunction*%
%TO.P,R17,1*%
%TO.N,Net-(LED_5V1-Pad1)*%
%TA.AperFunction,SMDPad,CuDef*%
G36*
G01*
X143561150Y-106099300D02*
X144473650Y-106099300D01*
G75*
G02*
X144717400Y-106343050I0J-243750D01*
G01*
X144717400Y-106830550D01*
G75*
G02*
X144473650Y-107074300I-243750J0D01*
G01*
X143561150Y-107074300D01*
G75*
G02*
X143317400Y-106830550I0J243750D01*
G01*
X143317400Y-106343050D01*
G75*
G02*
X143561150Y-106099300I243750J0D01*
G01*
G37*
%TD.AperFunction*%
%TD*%
D23*
%TO.P,TP1,1*%
%TO.N,+3V3*%
X120680000Y-124690000D03*
%TD*%
%TO.P,TP2,1*%
%TO.N,REG_VIN*%
X143400000Y-117700000D03*
%TD*%
D24*
%TO.P,U1,9*%
%TO.N,N/C*%
X134874000Y-118364000D03*
%TO.P,U1,8*%
%TO.N,GND*%
%TA.AperFunction,SMDPad,CuDef*%
G36*
G01*
X136629000Y-120214000D02*
X136929000Y-120214000D01*
G75*
G02*
X137079000Y-120364000I0J-150000D01*
G01*
X137079000Y-121664000D01*
G75*
G02*
X136929000Y-121814000I-150000J0D01*
G01*
X136629000Y-121814000D01*
G75*
G02*
X136479000Y-121664000I0J150000D01*
G01*
X136479000Y-120364000D01*
G75*
G02*
X136629000Y-120214000I150000J0D01*
G01*
G37*
%TD.AperFunction*%
%TO.P,U1,7*%
%TA.AperFunction,SMDPad,CuDef*%
G36*
G01*
X135359000Y-120214000D02*
X135659000Y-120214000D01*
G75*
G02*
X135809000Y-120364000I0J-150000D01*
G01*
X135809000Y-121664000D01*
G75*
G02*
X135659000Y-121814000I-150000J0D01*
G01*
X135359000Y-121814000D01*
G75*
G02*
X135209000Y-121664000I0J150000D01*
G01*
X135209000Y-120364000D01*
G75*
G02*
X135359000Y-120214000I150000J0D01*
G01*
G37*
%TD.AperFunction*%
%TO.P,U1,6*%
%TA.AperFunction,SMDPad,CuDef*%
G36*
G01*
X134089000Y-120214000D02*
X134389000Y-120214000D01*
G75*
G02*
X134539000Y-120364000I0J-150000D01*
G01*
X134539000Y-121664000D01*
G75*
G02*
X134389000Y-121814000I-150000J0D01*
G01*
X134089000Y-121814000D01*
G75*
G02*
X133939000Y-121664000I0J150000D01*
G01*
X133939000Y-120364000D01*
G75*
G02*
X134089000Y-120214000I150000J0D01*
G01*
G37*
%TD.AperFunction*%
%TO.P,U1,5*%
%TA.AperFunction,SMDPad,CuDef*%
G36*
G01*
X132819000Y-120214000D02*
X133119000Y-120214000D01*
G75*
G02*
X133269000Y-120364000I0J-150000D01*
G01*
X133269000Y-121664000D01*
G75*
G02*
X133119000Y-121814000I-150000J0D01*
G01*
X132819000Y-121814000D01*
G75*
G02*
X132669000Y-121664000I0J150000D01*
G01*
X132669000Y-120364000D01*
G75*
G02*
X132819000Y-120214000I150000J0D01*
G01*
G37*
%TD.AperFunction*%
%TO.P,U1,4*%
%TA.AperFunction,SMDPad,CuDef*%
G36*
G01*
X132819000Y-114914000D02*
X133119000Y-114914000D01*
G75*
G02*
X133269000Y-115064000I0J-150000D01*
G01*
X133269000Y-116364000D01*
G75*
G02*
X133119000Y-116514000I-150000J0D01*
G01*
X132819000Y-116514000D01*
G75*
G02*
X132669000Y-116364000I0J150000D01*
G01*
X132669000Y-115064000D01*
G75*
G02*
X132819000Y-114914000I150000J0D01*
G01*
G37*
%TD.AperFunction*%
%TO.P,U1,3*%
%TO.N,REG_FEEDBACK*%
%TA.AperFunction,SMDPad,CuDef*%
G36*
G01*
X134089000Y-114914000D02*
X134389000Y-114914000D01*
G75*
G02*
X134539000Y-115064000I0J-150000D01*
G01*
X134539000Y-116364000D01*
G75*
G02*
X134389000Y-116514000I-150000J0D01*
G01*
X134089000Y-116514000D01*
G75*
G02*
X133939000Y-116364000I0J150000D01*
G01*
X133939000Y-115064000D01*
G75*
G02*
X134089000Y-114914000I150000J0D01*
G01*
G37*
%TD.AperFunction*%
%TO.P,U1,2*%
%TO.N,REG_OUT*%
%TA.AperFunction,SMDPad,CuDef*%
G36*
G01*
X135359000Y-114914000D02*
X135659000Y-114914000D01*
G75*
G02*
X135809000Y-115064000I0J-150000D01*
G01*
X135809000Y-116364000D01*
G75*
G02*
X135659000Y-116514000I-150000J0D01*
G01*
X135359000Y-116514000D01*
G75*
G02*
X135209000Y-116364000I0J150000D01*
G01*
X135209000Y-115064000D01*
G75*
G02*
X135359000Y-114914000I150000J0D01*
G01*
G37*
%TD.AperFunction*%
%TO.P,U1,1*%
%TO.N,REG_VIN*%
%TA.AperFunction,SMDPad,CuDef*%
G36*
G01*
X136629000Y-114914000D02*
X136929000Y-114914000D01*
G75*
G02*
X137079000Y-115064000I0J-150000D01*
G01*
X137079000Y-116364000D01*
G75*
G02*
X136929000Y-116514000I-150000J0D01*
G01*
X136629000Y-116514000D01*
G75*
G02*
X136479000Y-116364000I0J150000D01*
G01*
X136479000Y-115064000D01*
G75*
G02*
X136629000Y-114914000I150000J0D01*
G01*
G37*
%TD.AperFunction*%
%TD*%
D25*
%TO.P,U3,28*%
%TO.N,Net-(U3-Pad28)*%
X125600000Y-93300000D03*
%TO.P,U3,27*%
%TO.N,Net-(U3-Pad27)*%
X126250000Y-93300000D03*
%TO.P,U3,26*%
%TO.N,GND*%
X126900000Y-93300000D03*
%TO.P,U3,25*%
X127550000Y-93300000D03*
%TO.P,U3,24*%
%TO.N,N/C*%
X128200000Y-93300000D03*
%TO.P,U3,23*%
%TO.N,CBUS0*%
X128850000Y-93300000D03*
%TO.P,U3,22*%
%TO.N,CBUS1*%
X129500000Y-93300000D03*
%TO.P,U3,21*%
%TO.N,GND*%
X130150000Y-93300000D03*
%TO.P,U3,20*%
%TO.N,+3V3*%
X130800000Y-93300000D03*
%TO.P,U3,19*%
%TO.N,FT232_nRESET*%
X131450000Y-93300000D03*
%TO.P,U3,18*%
%TO.N,GND*%
X132100000Y-93300000D03*
%TO.P,U3,17*%
%TO.N,Net-(C6-Pad1)*%
X132750000Y-93300000D03*
%TO.P,U3,16*%
%TO.N,USB_D-*%
X133400000Y-93300000D03*
%TO.P,U3,15*%
%TO.N,USB_D+*%
X134050000Y-93300000D03*
%TO.P,U3,14*%
%TO.N,Net-(U3-Pad14)*%
X134050000Y-100500000D03*
%TO.P,U3,13*%
%TO.N,Net-(U3-Pad13)*%
X133400000Y-100500000D03*
%TO.P,U3,12*%
%TO.N,Net-(U3-Pad12)*%
X132750000Y-100500000D03*
%TO.P,U3,11*%
%TO.N,Net-(U3-Pad11)*%
X132100000Y-100500000D03*
%TO.P,U3,10*%
%TO.N,Net-(U3-Pad10)*%
X131450000Y-100500000D03*
%TO.P,U3,9*%
%TO.N,Net-(U3-Pad9)*%
X130800000Y-100500000D03*
%TO.P,U3,8*%
%TO.N,N/C*%
X130150000Y-100500000D03*
%TO.P,U3,7*%
%TO.N,GND*%
X129500000Y-100500000D03*
%TO.P,U3,6*%
%TO.N,Net-(U3-Pad6)*%
X128850000Y-100500000D03*
%TO.P,U3,5*%
%TO.N,Net-(R4-Pad2)*%
X128200000Y-100500000D03*
%TO.P,U3,4*%
%TO.N,+3V3*%
X127550000Y-100500000D03*
%TO.P,U3,3*%
%TO.N,Net-(U3-Pad3)*%
X126900000Y-100500000D03*
%TO.P,U3,2*%
%TO.N,Net-(U3-Pad2)*%
X126250000Y-100500000D03*
%TO.P,U3,1*%
%TO.N,Net-(R3-Pad2)*%
X125600000Y-100500000D03*
%TD*%
D26*
%TO.P,U4,5*%
%TO.N,REG_VIN*%
X136567820Y-96857860D03*
%TO.P,U4,6*%
%TO.N,USB_D-*%
X136567820Y-97807860D03*
%TO.P,U4,4*%
%TO.N,USB_D+*%
X136567820Y-95907860D03*
%TO.P,U4,3*%
%TO.N,USB_CON_D+*%
X138767820Y-95907860D03*
%TO.P,U4,2*%
%TO.N,GND*%
X138767820Y-96857860D03*
%TO.P,U4,1*%
%TO.N,USB_CON_D-*%
X138767820Y-97807860D03*
%TD*%
D27*
%TO.P,Y1,4*%
%TO.N,GND*%
X110400000Y-110900000D03*
%TO.P,Y1,3*%
%TO.N,Net-(C9-Pad1)*%
X110400000Y-108700000D03*
%TO.P,Y1,2*%
%TO.N,GND*%
X112100000Y-108700000D03*
%TO.P,Y1,1*%
%TO.N,RCC_OSC_IN*%
X112100000Y-110900000D03*
%TD*%
D28*
%TO.N,GND*%
X143992600Y-109474000D03*
%TO.N,REG_VIN*%
X141935200Y-109474000D03*
%TO.N,+3V3*%
X107952400Y-113899200D03*
X101043600Y-113899200D03*
D29*
%TO.N,GND*%
X139776200Y-96873060D03*
X144068800Y-101600000D03*
D30*
X144050002Y-100482400D03*
X141681200Y-100533200D03*
X141483637Y-101633285D03*
D29*
X141097000Y-101015800D03*
D28*
X128295400Y-109753400D03*
X129260600Y-109753400D03*
X130200400Y-109753400D03*
X127584200Y-110439200D03*
X132969000Y-122504200D03*
X133908800Y-122529600D03*
X134848600Y-122529600D03*
X135788400Y-122529600D03*
X136728200Y-122529600D03*
X137668000Y-122504200D03*
X132054600Y-122504200D03*
X139903200Y-117957600D03*
X139217400Y-118592600D03*
X138277600Y-118643400D03*
X132130800Y-115671600D03*
X126769800Y-119958800D03*
X127658800Y-119019000D03*
X108816000Y-111740200D03*
X108816000Y-110775000D03*
X113794400Y-108692200D03*
X113769000Y-107752400D03*
X102600000Y-102900000D03*
X129489200Y-102057200D03*
X132334000Y-94843600D03*
X130632200Y-94869000D03*
X110540000Y-125287600D03*
X112673400Y-125287600D03*
X114841400Y-125343000D03*
X130200000Y-107200000D03*
X137700000Y-103900000D03*
X116100000Y-93900000D03*
X116100000Y-96300000D03*
X102500000Y-103850000D03*
X103500000Y-102550000D03*
X125900000Y-88950000D03*
X126700000Y-88410000D03*
X134170000Y-89450000D03*
X133800000Y-88400000D03*
X131770000Y-88280000D03*
X129750000Y-88280000D03*
X127800000Y-88260000D03*
D30*
X126900000Y-94700000D03*
X127580000Y-94720000D03*
D28*
%TO.N,+3V3*%
X130600000Y-102600000D03*
X118338600Y-115620800D03*
X118364000Y-116586000D03*
X121081800Y-115620800D03*
X121081800Y-116611400D03*
X117449600Y-115138200D03*
X117449600Y-116128800D03*
X121970800Y-116103400D03*
X121945400Y-115112800D03*
X121056400Y-114554000D03*
X118338600Y-114477800D03*
X126363400Y-122778200D03*
X105310800Y-102570800D03*
X106072800Y-103205800D03*
X106047400Y-104171000D03*
X127533400Y-98145600D03*
X127533400Y-99060000D03*
X128346200Y-98602800D03*
X126009400Y-90576400D03*
X126009400Y-91516200D03*
X125069600Y-90576400D03*
X125069600Y-91516200D03*
D29*
%TO.N,REG_VIN*%
X137693400Y-99110800D03*
X144100000Y-97500000D03*
X143865600Y-96723200D03*
X143865600Y-96723200D03*
X143865600Y-96723200D03*
X143865600Y-96723200D03*
X143865600Y-96723200D03*
X137637818Y-96850200D03*
D30*
X144068800Y-98831400D03*
X144068800Y-99441000D03*
%TO.N,REG_FEEDBACK*%
X129680000Y-119640000D03*
X134220000Y-114500000D03*
D28*
%TO.N,STM8_RX*%
X105206272Y-111798829D03*
X119040000Y-98330000D03*
%TO.N,STM8_TX*%
X117250000Y-103000000D03*
X108690000Y-112960000D03*
D30*
%TO.N,TIM3_CH1*%
X113770000Y-117520000D03*
%TO.N,GPIO_PB6*%
X111540000Y-117530000D03*
X102750000Y-109720000D03*
%TO.N,GPIO_PB7*%
X109220000Y-118710000D03*
X99180000Y-110350000D03*
D28*
%TO.N,STM8_SWIM*%
X104411370Y-110161825D03*
%TO.N,STM8_NRST*%
X105290000Y-109500000D03*
%TD*%
D31*
%TO.N,GND*%
X127200000Y-89425000D02*
X127000000Y-89625000D01*
D32*
X103500000Y-105128000D02*
X103500000Y-103600000D01*
D33*
X107100000Y-108400000D02*
X105300000Y-108400000D01*
D32*
X105300000Y-108400000D02*
X104975000Y-108400000D01*
X103500000Y-106925000D02*
X103500000Y-105128000D01*
X104975000Y-108400000D02*
X103500000Y-106925000D01*
D34*
X110765000Y-111265000D02*
X110400000Y-110900000D01*
X110765000Y-112450000D02*
X110765000Y-111265000D01*
X111735000Y-108335000D02*
X112100000Y-108700000D01*
X111735000Y-107150000D02*
X111735000Y-108335000D01*
D35*
X139761000Y-96857860D02*
X139776200Y-96873060D01*
X138767820Y-96857860D02*
X139761000Y-96857860D01*
D36*
X143518800Y-101050000D02*
X144068800Y-101600000D01*
X142875000Y-101050000D02*
X143518800Y-101050000D01*
D33*
X144050002Y-101581202D02*
X144068800Y-101600000D01*
X144050002Y-100482400D02*
X144050002Y-101581202D01*
D34*
X144050002Y-100501198D02*
X143875001Y-100676199D01*
X144050002Y-100482400D02*
X144050002Y-100501198D01*
X143875001Y-100860001D02*
X143810001Y-100925001D01*
X143875001Y-100676199D02*
X143875001Y-100860001D01*
D33*
X142875000Y-101050000D02*
X143950000Y-101050000D01*
X143950000Y-101050000D02*
X144050002Y-100949998D01*
X144050002Y-100949998D02*
X144050002Y-100482400D01*
X141681200Y-100931200D02*
X141681200Y-100533200D01*
X141800000Y-101050000D02*
X141681200Y-100931200D01*
X142875000Y-101050000D02*
X141800000Y-101050000D01*
X141681200Y-101435722D02*
X141483637Y-101633285D01*
X141681200Y-100931200D02*
X141681200Y-101435722D01*
X141131200Y-101050000D02*
X141097000Y-101015800D01*
X142875000Y-101050000D02*
X141131200Y-101050000D01*
D32*
X132054600Y-122504200D02*
X137668000Y-122504200D01*
X132054600Y-122504200D02*
X131800600Y-122504200D01*
D37*
X138328400Y-118592600D02*
X138277600Y-118643400D01*
X139217400Y-118592600D02*
X138328400Y-118592600D01*
X138277600Y-117914900D02*
X138620500Y-117572000D01*
X138277600Y-118643400D02*
X138277600Y-117914900D01*
X138620500Y-117995700D02*
X139217400Y-118592600D01*
X138620500Y-117572000D02*
X138620500Y-117995700D01*
X139268200Y-118592600D02*
X139903200Y-117957600D01*
X139217400Y-118592600D02*
X139268200Y-118592600D01*
X139006100Y-117957600D02*
X138620500Y-117572000D01*
X139903200Y-117957600D02*
X139006100Y-117957600D01*
D38*
X129260600Y-111341400D02*
X129032000Y-111570000D01*
X129260600Y-109753400D02*
X129260600Y-111341400D01*
X130200400Y-109753400D02*
X129260600Y-109753400D01*
X129260600Y-109753400D02*
X128295400Y-109753400D01*
X128270000Y-109753400D02*
X127584200Y-110439200D01*
X128295400Y-109753400D02*
X128270000Y-109753400D01*
X127901200Y-110439200D02*
X129032000Y-111570000D01*
X127584200Y-110439200D02*
X127901200Y-110439200D01*
X130200400Y-110401600D02*
X129032000Y-111570000D01*
X130200400Y-109753400D02*
X130200400Y-110401600D01*
D37*
X132926600Y-115671600D02*
X132969000Y-115714000D01*
X132130800Y-115671600D02*
X132926600Y-115671600D01*
D34*
X127658800Y-119928600D02*
X127654000Y-119933400D01*
X127658800Y-119019000D02*
X127658800Y-119928600D01*
X126795200Y-119933400D02*
X126769800Y-119958800D01*
X127654000Y-119933400D02*
X126795200Y-119933400D01*
X110275000Y-110775000D02*
X110400000Y-110900000D01*
X108816000Y-110775000D02*
X110275000Y-110775000D01*
X109559800Y-111740200D02*
X110400000Y-110900000D01*
X108816000Y-111740200D02*
X109559800Y-111740200D01*
X112107800Y-108692200D02*
X112100000Y-108700000D01*
X113794400Y-108692200D02*
X112107800Y-108692200D01*
X113047600Y-107752400D02*
X112100000Y-108700000D01*
X113769000Y-107752400D02*
X113047600Y-107752400D01*
D36*
X129489200Y-100510800D02*
X129500000Y-100500000D01*
X129489200Y-102057200D02*
X129489200Y-100510800D01*
X132100000Y-94609600D02*
X132100000Y-93300000D01*
X132334000Y-94843600D02*
X132100000Y-94609600D01*
X130150000Y-94386800D02*
X130150000Y-93300000D01*
X130632200Y-94869000D02*
X130150000Y-94386800D01*
D32*
X110550000Y-125277600D02*
X110540000Y-125287600D01*
X110550000Y-124085000D02*
X110550000Y-125277600D01*
X112690000Y-125271000D02*
X112673400Y-125287600D01*
X112690000Y-124085000D02*
X112690000Y-125271000D01*
X114840000Y-125341600D02*
X114841400Y-125343000D01*
X114840000Y-124115000D02*
X114840000Y-125341600D01*
X143992600Y-108486600D02*
X144017400Y-108461800D01*
X143992600Y-109474000D02*
X143992600Y-108486600D01*
D37*
X130200000Y-105918600D02*
X130201200Y-105917400D01*
X130200000Y-107200000D02*
X130200000Y-105918600D01*
X137694800Y-103894800D02*
X137700000Y-103900000D01*
X137694800Y-103015400D02*
X137694800Y-103894800D01*
D32*
X117244600Y-93900000D02*
X117270200Y-93925600D01*
X116100000Y-93900000D02*
X117244600Y-93900000D01*
X117219600Y-96300000D02*
X117245200Y-96325600D01*
X116100000Y-96300000D02*
X117219600Y-96300000D01*
X102800000Y-102900000D02*
X103500000Y-103600000D01*
X102600000Y-102900000D02*
X102800000Y-102900000D01*
X103250000Y-103850000D02*
X103500000Y-103600000D01*
X102500000Y-103850000D02*
X103250000Y-103850000D01*
X102600000Y-103750000D02*
X102500000Y-103850000D01*
X102600000Y-102900000D02*
X102600000Y-103750000D01*
X103500000Y-103600000D02*
X103500000Y-102550000D01*
X102950000Y-102550000D02*
X102600000Y-102900000D01*
X103500000Y-102550000D02*
X102950000Y-102550000D01*
D31*
X126325000Y-88950000D02*
X127000000Y-89625000D01*
X125900000Y-88950000D02*
X126325000Y-88950000D01*
X127200000Y-88910000D02*
X127200000Y-89425000D01*
X126700000Y-88410000D02*
X127200000Y-88910000D01*
X127800000Y-89290000D02*
X127935000Y-89425000D01*
X127800000Y-88260000D02*
X127800000Y-89290000D01*
X127935000Y-89425000D02*
X127200000Y-89425000D01*
X128800000Y-89425000D02*
X127935000Y-89425000D01*
X129750000Y-89310000D02*
X129635000Y-89425000D01*
X129750000Y-88280000D02*
X129750000Y-89310000D01*
X129635000Y-89425000D02*
X128800000Y-89425000D01*
X131770000Y-89380000D02*
X131815000Y-89425000D01*
X131815000Y-89425000D02*
X129635000Y-89425000D01*
X131770000Y-88280000D02*
X131770000Y-89380000D01*
X132800000Y-89425000D02*
X131815000Y-89425000D01*
X133800000Y-88425000D02*
X132800000Y-89425000D01*
X133800000Y-88400000D02*
X133800000Y-88425000D01*
X128825000Y-89450000D02*
X128800000Y-89425000D01*
X134170000Y-89450000D02*
X128825000Y-89450000D01*
X133790000Y-88410000D02*
X133800000Y-88400000D01*
X133800000Y-89080000D02*
X134170000Y-89450000D01*
X133800000Y-88400000D02*
X133800000Y-89080000D01*
X126160000Y-88950000D02*
X126700000Y-88410000D01*
X125900000Y-88950000D02*
X126160000Y-88950000D01*
D33*
X127550000Y-94690000D02*
X127550000Y-93300000D01*
X127580000Y-94720000D02*
X127550000Y-94690000D01*
X126900000Y-94700000D02*
X126900000Y-93300000D01*
X128800000Y-88650000D02*
X129040000Y-88410000D01*
X128800000Y-89425000D02*
X128800000Y-88650000D01*
D31*
X126700000Y-88410000D02*
X129040000Y-88410000D01*
D33*
X130800000Y-88600000D02*
X130990000Y-88410000D01*
X130800000Y-89425000D02*
X130800000Y-88600000D01*
D31*
X130990000Y-88410000D02*
X133790000Y-88410000D01*
X129040000Y-88410000D02*
X130990000Y-88410000D01*
D33*
X132800000Y-89310000D02*
X131770000Y-88280000D01*
X132800000Y-89425000D02*
X132800000Y-89310000D01*
X130800000Y-89330000D02*
X129750000Y-88280000D01*
X130800000Y-89425000D02*
X130800000Y-89330000D01*
X130800000Y-89250000D02*
X131770000Y-88280000D01*
X130800000Y-89425000D02*
X130800000Y-89250000D01*
X128800000Y-89260000D02*
X127800000Y-88260000D01*
X128800000Y-89425000D02*
X128800000Y-89260000D01*
X128800000Y-89230000D02*
X129750000Y-88280000D01*
X128800000Y-89425000D02*
X128800000Y-89230000D01*
D36*
%TO.N,+3V3*%
X130800000Y-91300000D02*
X130800000Y-91400000D01*
D31*
X130800000Y-91300000D02*
X129603800Y-91300000D01*
X127100000Y-91300000D02*
X127000000Y-91200000D01*
X128800000Y-91300000D02*
X128283000Y-91300000D01*
D33*
X130800000Y-91300000D02*
X130800000Y-93300000D01*
D32*
X105075000Y-105128000D02*
X105075000Y-103600000D01*
X105075000Y-105128000D02*
X105075000Y-105150000D01*
X105075000Y-105128000D02*
X105075000Y-105143400D01*
X105075000Y-106831483D02*
X105693507Y-107449990D01*
D33*
X105925000Y-107750000D02*
X107100000Y-107750000D01*
X105693507Y-107518507D02*
X105925000Y-107750000D01*
X105693507Y-107449990D02*
X105693507Y-107518507D01*
D36*
X128522400Y-122803600D02*
X128776400Y-122549600D01*
X127379400Y-122803600D02*
X127379400Y-122803600D01*
D38*
X119711000Y-108689000D02*
X121200000Y-107200000D01*
X119711000Y-115570000D02*
X119711000Y-115570000D01*
X119711000Y-115570000D02*
X119711000Y-115493000D01*
X119711000Y-115493000D02*
X119711000Y-115467600D01*
X119711000Y-114426200D02*
X119711000Y-113384800D01*
X119711000Y-113334000D02*
X119711000Y-113283200D01*
X119711000Y-112368800D02*
X119711000Y-112064000D01*
X119711000Y-111124200D02*
X119711000Y-108689000D01*
X119711000Y-115570000D02*
X119711000Y-115570000D01*
X119711000Y-114426200D02*
X119711000Y-114426200D01*
X119711000Y-113283200D02*
X119711000Y-112368800D01*
X119711000Y-112064000D02*
X119711000Y-111124200D01*
X119711000Y-115467600D02*
X119711000Y-114426200D01*
X119711000Y-113384800D02*
X119711000Y-113334000D01*
X119761800Y-115620800D02*
X119711000Y-115570000D01*
X121081800Y-115620800D02*
X119761800Y-115620800D01*
X121589800Y-115112800D02*
X121081800Y-115620800D01*
X121945400Y-115112800D02*
X121589800Y-115112800D01*
X121564400Y-116103400D02*
X121081800Y-115620800D01*
X121970800Y-116103400D02*
X121564400Y-116103400D01*
X120752400Y-116611400D02*
X119711000Y-115570000D01*
X121081800Y-116611400D02*
X120752400Y-116611400D01*
X120167400Y-116026400D02*
X119711000Y-115570000D01*
X120167400Y-117246400D02*
X120167400Y-116026400D01*
X119126000Y-116155000D02*
X119634400Y-115646600D01*
X119126000Y-117246400D02*
X119126000Y-116155000D01*
X118695000Y-116586000D02*
X119711000Y-115570000D01*
X118364000Y-116586000D02*
X118695000Y-116586000D01*
X119660200Y-115620800D02*
X119711000Y-115570000D01*
X118338600Y-115620800D02*
X119660200Y-115620800D01*
X119152200Y-116128800D02*
X119711000Y-115570000D01*
X117449600Y-116128800D02*
X119152200Y-116128800D01*
X119279200Y-115138200D02*
X119711000Y-115570000D01*
X117449600Y-115138200D02*
X119279200Y-115138200D01*
X117449600Y-115138200D02*
X117449600Y-116128800D01*
X121945400Y-116078000D02*
X121970800Y-116103400D01*
X121945400Y-115112800D02*
X121945400Y-116078000D01*
X120802400Y-116611400D02*
X120167400Y-117246400D01*
X121081800Y-116611400D02*
X120802400Y-116611400D01*
X121462800Y-116611400D02*
X121970800Y-116103400D01*
X121081800Y-116611400D02*
X121462800Y-116611400D01*
X120167400Y-117246400D02*
X119126000Y-117246400D01*
X119024400Y-117246400D02*
X118364000Y-116586000D01*
X119126000Y-117246400D02*
X119024400Y-117246400D01*
X117906800Y-116586000D02*
X117449600Y-116128800D01*
X118364000Y-116586000D02*
X117906800Y-116586000D01*
X120168200Y-115112800D02*
X119711000Y-115570000D01*
X121945400Y-115112800D02*
X120168200Y-115112800D01*
X117449600Y-115138200D02*
X118643400Y-113944400D01*
X119229200Y-113944400D02*
X119660200Y-114375400D01*
X118643400Y-113944400D02*
X119229200Y-113944400D01*
X120218200Y-113919000D02*
X119711000Y-114426200D01*
X120751600Y-113919000D02*
X120218200Y-113919000D01*
X121945400Y-115112800D02*
X120751600Y-113919000D01*
X119634400Y-115646600D02*
X119711000Y-115570000D01*
X119660200Y-114375400D02*
X119711000Y-114426200D01*
X119711000Y-113334000D02*
X119711000Y-113334000D01*
D36*
X127379400Y-122803600D02*
X128522400Y-122803600D01*
D34*
X126388800Y-122803600D02*
X126363400Y-122778200D01*
X127379400Y-122803600D02*
X126388800Y-122803600D01*
D32*
X105075000Y-103600000D02*
X105075000Y-103600000D01*
X105075000Y-103600000D02*
X105075000Y-103600000D01*
X105075000Y-105143400D02*
X105075000Y-106831483D01*
X105469200Y-103205800D02*
X105075000Y-103600000D01*
X106072800Y-103205800D02*
X105469200Y-103205800D01*
X106047400Y-103231200D02*
X106072800Y-103205800D01*
X106047400Y-104171000D02*
X106047400Y-103231200D01*
X106047400Y-103307400D02*
X105310800Y-102570800D01*
X106047400Y-104171000D02*
X106047400Y-103307400D01*
X105646000Y-104171000D02*
X105376800Y-103901800D01*
X106047400Y-104171000D02*
X105646000Y-104171000D01*
X105376800Y-103901800D02*
X105075000Y-103600000D01*
X105310800Y-103434400D02*
X105310800Y-103364200D01*
X106047400Y-104171000D02*
X105310800Y-103434400D01*
X105310800Y-103364200D02*
X105075000Y-103600000D01*
X105310800Y-102570800D02*
X105310800Y-103364200D01*
D33*
X101044400Y-113900000D02*
X101043600Y-113899200D01*
X102012500Y-113900000D02*
X101044400Y-113900000D01*
X106975800Y-113899200D02*
X106975000Y-113900000D01*
X107952400Y-113899200D02*
X106975800Y-113899200D01*
X127524600Y-98136800D02*
X127533400Y-98145600D01*
X127533400Y-98145600D02*
X127533400Y-99060000D01*
D31*
X127000000Y-91200000D02*
X127000000Y-91200000D01*
X127216200Y-91300000D02*
X127100000Y-91300000D01*
X128283000Y-91300000D02*
X127216200Y-91300000D01*
X129603800Y-91300000D02*
X128800000Y-91300000D01*
D38*
X125069600Y-90576400D02*
X125069600Y-91516200D01*
X126009400Y-91516200D02*
X125069600Y-91516200D01*
X126683800Y-91516200D02*
X127000000Y-91200000D01*
X126009400Y-91516200D02*
X126683800Y-91516200D01*
X126009400Y-90599644D02*
X126009400Y-91516200D01*
X125986156Y-90576400D02*
X126009400Y-90599644D01*
X125069600Y-90576400D02*
X125986156Y-90576400D01*
D36*
X127584200Y-100465800D02*
X127550000Y-100500000D01*
X127584200Y-99060000D02*
X127584200Y-100465800D01*
D31*
X127709804Y-98602800D02*
X128346200Y-98602800D01*
X127533400Y-98779204D02*
X127709804Y-98602800D01*
X127533400Y-98145600D02*
X127533400Y-98779204D01*
X127889000Y-98145600D02*
X128346200Y-98602800D01*
X127533400Y-98145600D02*
X127889000Y-98145600D01*
X127533400Y-98779204D02*
X127533400Y-98924999D01*
D37*
X130175000Y-103025000D02*
X130600000Y-102600000D01*
X130175000Y-103886000D02*
X130175000Y-103025000D01*
%TO.N,REG_VIN*%
X143865600Y-96723200D02*
X143865600Y-96723200D01*
X143865600Y-97265600D02*
X144100000Y-97500000D01*
X143865600Y-96723200D02*
X143865600Y-96723200D01*
X143865600Y-96723200D02*
X143865600Y-96723200D01*
X143865600Y-96723200D02*
X143865600Y-96723200D01*
X143865600Y-96723200D02*
X143865600Y-96799400D01*
X143865600Y-96723200D02*
X143865600Y-97265600D01*
X137630158Y-96857860D02*
X137637818Y-96850200D01*
X136567820Y-96857860D02*
X137630158Y-96857860D01*
D33*
X142875000Y-98450000D02*
X143150000Y-98450000D01*
X143866000Y-98450000D02*
X144094200Y-98221800D01*
X142875000Y-98450000D02*
X143866000Y-98450000D01*
X143687400Y-98450000D02*
X144068800Y-98831400D01*
X142875000Y-98450000D02*
X143687400Y-98450000D01*
X144068800Y-98831400D02*
X144068800Y-99441000D01*
D35*
X144094200Y-99415600D02*
X144068800Y-99441000D01*
X144094200Y-98221800D02*
X144094200Y-99415600D01*
X144094200Y-97505800D02*
X144100000Y-97500000D01*
X144094200Y-98221800D02*
X144094200Y-97505800D01*
D33*
X143150000Y-98450000D02*
X143558400Y-98041600D01*
X143558400Y-98041600D02*
X144100000Y-97500000D01*
X142875000Y-98450000D02*
X143459600Y-98450000D01*
X143459600Y-98450000D02*
X143764000Y-98145600D01*
X137693400Y-100059000D02*
X137694800Y-100060400D01*
X137693400Y-99110800D02*
X137693400Y-100059000D01*
D38*
X136850000Y-110236000D02*
X136850000Y-114752000D01*
D33*
X136850000Y-115643000D02*
X136779000Y-115714000D01*
X136850000Y-114752000D02*
X136850000Y-115643000D01*
D32*
X137795000Y-115697000D02*
X136850000Y-114752000D01*
X138620500Y-115697000D02*
X137795000Y-115697000D01*
X141935200Y-108479600D02*
X141917400Y-108461800D01*
X141935200Y-109474000D02*
X141935200Y-108479600D01*
D33*
%TO.N,Net-(C6-Pad1)*%
X132750000Y-91350000D02*
X132750000Y-93300000D01*
X132800000Y-91300000D02*
X132750000Y-91350000D01*
D34*
%TO.N,RCC_OSC_IN*%
X107125001Y-109725001D02*
X107100000Y-109700000D01*
X111875001Y-109725001D02*
X107125001Y-109725001D01*
X112100000Y-109950000D02*
X111875001Y-109725001D01*
X112100000Y-110900000D02*
X112100000Y-109950000D01*
X111735000Y-111265000D02*
X112100000Y-110900000D01*
X111735000Y-112450000D02*
X111735000Y-111265000D01*
%TO.N,Net-(C9-Pad1)*%
X109730000Y-108030000D02*
X110400000Y-108700000D01*
X108800000Y-108030000D02*
X109730000Y-108030000D01*
X110765000Y-108335000D02*
X110400000Y-108700000D01*
X110765000Y-107150000D02*
X110765000Y-108335000D01*
D36*
%TO.N,REG_FEEDBACK*%
X128598400Y-121228600D02*
X128776400Y-121406600D01*
X127379400Y-121228600D02*
X128598400Y-121228600D01*
X128624000Y-119933400D02*
X128624000Y-119933400D01*
D34*
X134239000Y-115714000D02*
X134239000Y-115798600D01*
D36*
X134239000Y-115798600D02*
X134239000Y-116078000D01*
X128624000Y-119933400D02*
X128624000Y-119908000D01*
D34*
X128776400Y-120085800D02*
X128624000Y-119933400D01*
X128776400Y-121406600D02*
X128776400Y-120085800D01*
D36*
X129386600Y-119933400D02*
X129680000Y-119640000D01*
X128624000Y-119933400D02*
X129386600Y-119933400D01*
X134220000Y-115695000D02*
X134239000Y-115714000D01*
X134220000Y-114500000D02*
X134220000Y-115695000D01*
D37*
%TO.N,REG_OUT*%
X129746598Y-115570000D02*
X129032000Y-115570000D01*
D38*
X126111000Y-115570000D02*
X129032000Y-115570000D01*
D31*
X129032000Y-115570000D02*
X129100000Y-115570000D01*
X135509000Y-115714000D02*
X135509000Y-113139000D01*
X135509000Y-113139000D02*
X134660000Y-112290000D01*
X132312000Y-112290000D02*
X129032000Y-115570000D01*
X134660000Y-112290000D02*
X132312000Y-112290000D01*
D39*
%TO.N,USB_CON_D+*%
X138767820Y-95907860D02*
X139062263Y-96202303D01*
X140506757Y-96522392D02*
X140506757Y-97646797D01*
X139062263Y-96202303D02*
X139365732Y-96202303D01*
X142400000Y-99100000D02*
X142875000Y-99100000D01*
X139365732Y-96202303D02*
X139425532Y-96142503D01*
X139425532Y-96142503D02*
X140126868Y-96142503D01*
X140126868Y-96142503D02*
X140506757Y-96522392D01*
X140506757Y-97646797D02*
X142052804Y-99192844D01*
X142052804Y-99192844D02*
X142307156Y-99192844D01*
X142307156Y-99192844D02*
X142400000Y-99100000D01*
%TO.N,USB_CON_D-*%
X142400000Y-99750000D02*
X142875000Y-99750000D01*
X142307156Y-99657156D02*
X142400000Y-99750000D01*
X140011183Y-97807860D02*
X141860479Y-99657156D01*
X141860479Y-99657156D02*
X142307156Y-99657156D01*
X138767820Y-97807860D02*
X140011183Y-97807860D01*
D33*
%TO.N,STM8_RX*%
X105355101Y-111650000D02*
X105206272Y-111798829D01*
X107100000Y-111650000D02*
X105355101Y-111650000D01*
X119040000Y-99727500D02*
X119112500Y-99800000D01*
X119040000Y-98330000D02*
X119040000Y-99727500D01*
X113660000Y-89680000D02*
X113660000Y-96270000D01*
X117190000Y-99800000D02*
X119112500Y-99800000D01*
X113660000Y-96270000D02*
X117190000Y-99800000D01*
%TO.N,STM8_TX*%
X111120000Y-98810000D02*
X111120000Y-89680000D01*
X115310000Y-103000000D02*
X111120000Y-98810000D01*
X119100000Y-101850000D02*
X118400000Y-101850000D01*
X118400000Y-101850000D02*
X117250000Y-103000000D01*
X117250000Y-103000000D02*
X115310000Y-103000000D01*
X107100000Y-112300000D02*
X108030000Y-112300000D01*
X108030000Y-112300000D02*
X108690000Y-112960000D01*
%TO.N,TIM2_CH1*%
X92000000Y-98280000D02*
X103670000Y-98280000D01*
X103670000Y-98280000D02*
X108440000Y-103050000D01*
X108440000Y-103050000D02*
X108440000Y-106190000D01*
X108180000Y-106450000D02*
X107100000Y-106450000D01*
X108440000Y-106190000D02*
X108180000Y-106450000D01*
D36*
%TO.N,TIM2_CH2*%
X95740000Y-107100000D02*
X101375000Y-107100000D01*
X92000000Y-103360000D02*
X95740000Y-107100000D01*
D34*
%TO.N,TIM3_CH1*%
X101375000Y-106450000D02*
X101400000Y-106450000D01*
D36*
X97630000Y-106450000D02*
X92000000Y-100820000D01*
X101375000Y-106450000D02*
X97630000Y-106450000D01*
D33*
X114840000Y-118590000D02*
X113770000Y-117520000D01*
X114840000Y-118765000D02*
X114840000Y-118590000D01*
%TO.N,TIM3_CH2*%
X108620000Y-107100000D02*
X107100000Y-107100000D01*
X109280000Y-106440000D02*
X108620000Y-107100000D01*
X109280000Y-101290000D02*
X109280000Y-106440000D01*
X103730000Y-95740000D02*
X109280000Y-101290000D01*
X92000000Y-95740000D02*
X103730000Y-95740000D01*
D36*
%TO.N,GPIO_PB3*%
X93850000Y-107750000D02*
X92000000Y-105900000D01*
X101375000Y-107750000D02*
X93850000Y-107750000D01*
%TO.N,GPIO_PB4*%
X101335000Y-108440000D02*
X101375000Y-108400000D01*
X92000000Y-108440000D02*
X101335000Y-108440000D01*
%TO.N,GPIO_PB5*%
X93930000Y-109050000D02*
X92000000Y-110980000D01*
X101375000Y-109050000D02*
X93930000Y-109050000D01*
D34*
%TO.N,GPIO_PB6*%
X101375000Y-109700000D02*
X101375000Y-109775000D01*
D36*
X95820000Y-109700000D02*
X92000000Y-113520000D01*
X101375000Y-109700000D02*
X95820000Y-109700000D01*
D33*
X112690000Y-118680000D02*
X111540000Y-117530000D01*
X112690000Y-118735000D02*
X112690000Y-118680000D01*
X101395000Y-109720000D02*
X101375000Y-109700000D01*
X102750000Y-109720000D02*
X101395000Y-109720000D01*
D36*
%TO.N,GPIO_PB7*%
X97710000Y-110350000D02*
X92000000Y-116060000D01*
D33*
X109245000Y-118735000D02*
X109220000Y-118710000D01*
X110550000Y-118735000D02*
X109245000Y-118735000D01*
D36*
X99180000Y-110350000D02*
X97710000Y-110350000D01*
X101375000Y-110350000D02*
X99180000Y-110350000D01*
%TO.N,GPIO_PC4*%
X98300000Y-112300000D02*
X92000000Y-118600000D01*
X101375000Y-112300000D02*
X98300000Y-112300000D01*
%TO.N,STM8_SWIM*%
X105249545Y-111000000D02*
X104411370Y-110161825D01*
X107100000Y-111000000D02*
X105249545Y-111000000D01*
%TO.N,STM8_NRST*%
X106140000Y-110350000D02*
X105290000Y-109500000D01*
X107100000Y-110350000D02*
X106140000Y-110350000D01*
D32*
%TO.N,Net-(LED1-Pad1)*%
X114840000Y-122240000D02*
X114840000Y-120640000D01*
%TO.N,Net-(LED2-Pad1)*%
X110550000Y-122210000D02*
X110550000Y-120610000D01*
%TO.N,Net-(LED3-Pad1)*%
X112690000Y-122210000D02*
X112690000Y-120610000D01*
D37*
%TO.N,Net-(LED_3V31-Pad1)*%
X128300000Y-105891200D02*
X128326200Y-105917400D01*
X128300000Y-103886000D02*
X128300000Y-105891200D01*
D32*
%TO.N,Net-(LED_5V1-Pad1)*%
X141917400Y-106586800D02*
X144017400Y-106586800D01*
D36*
%TO.N,CBUS1*%
X127901520Y-96325600D02*
X122620200Y-96325600D01*
X129500000Y-94727120D02*
X127901520Y-96325600D01*
X129500000Y-93300000D02*
X129500000Y-94727120D01*
%TO.N,CBUS0*%
X128850000Y-93300000D02*
X128850000Y-94580000D01*
X128850000Y-94580000D02*
X127640000Y-95790000D01*
X124509600Y-95790000D02*
X122645200Y-93925600D01*
X127640000Y-95790000D02*
X124509600Y-95790000D01*
D34*
%TO.N,FT232_nRESET*%
X137694800Y-102045400D02*
X137629800Y-101980400D01*
D33*
X137694800Y-101030400D02*
X137694800Y-102045400D01*
D36*
X137694800Y-101030400D02*
X136565000Y-101030400D01*
X131524999Y-93374999D02*
X131450000Y-93300000D01*
X131524999Y-95990399D02*
X131524999Y-93374999D01*
X136565000Y-101030400D02*
X131524999Y-95990399D01*
D33*
%TO.N,Net-(R3-Pad2)*%
X124900000Y-99800000D02*
X125600000Y-100500000D01*
X120987500Y-99800000D02*
X124900000Y-99800000D01*
%TO.N,Net-(R4-Pad2)*%
X128200000Y-100500000D02*
X128200000Y-101700000D01*
X128200000Y-101700000D02*
X127500000Y-102400000D01*
X121525000Y-102400000D02*
X120975000Y-101850000D01*
X127500000Y-102400000D02*
X121525000Y-102400000D01*
D36*
%TO.N,Net-(R8-Pad2)*%
X129746400Y-122549600D02*
X129746400Y-121406600D01*
D34*
%TO.N,RCC_OSC_OUT*%
X107150000Y-109000000D02*
X107100000Y-109050000D01*
X108800000Y-109000000D02*
X107150000Y-109000000D01*
D33*
%TO.N,I2C_SDA*%
X105400000Y-124260000D02*
X105840000Y-124700000D01*
X105400000Y-113900000D02*
X105400000Y-124260000D01*
X101375000Y-111000000D02*
X102380000Y-111000000D01*
X105280000Y-113900000D02*
X105400000Y-113900000D01*
X102380000Y-111000000D02*
X105280000Y-113900000D01*
%TO.N,I2C_SCL*%
X103587500Y-113067876D02*
X103587500Y-113900000D01*
X102169624Y-111650000D02*
X103587500Y-113067876D01*
X101375000Y-111650000D02*
X102169624Y-111650000D01*
X103587500Y-113900000D02*
X103587500Y-124412500D01*
X103587500Y-124412500D02*
X103300000Y-124700000D01*
D39*
%TO.N,USB_D+*%
X134050000Y-93950000D02*
X134050000Y-93300000D01*
X133957156Y-94042844D02*
X134050000Y-93950000D01*
X133957156Y-94540559D02*
X133957156Y-94042844D01*
X135324457Y-95907860D02*
X133957156Y-94540559D01*
X136567820Y-95907860D02*
X135324457Y-95907860D01*
%TO.N,USB_D-*%
X133492844Y-94732884D02*
X133492844Y-94042844D01*
X133492844Y-94042844D02*
X133400000Y-93950000D01*
X135707263Y-97447306D02*
X135707263Y-96947303D01*
X135773374Y-97513417D02*
X135707263Y-97447306D01*
X133400000Y-93950000D02*
X133400000Y-93300000D01*
X136567820Y-97807860D02*
X136273377Y-97513417D01*
X136273377Y-97513417D02*
X135773374Y-97513417D01*
X135707263Y-96947303D02*
X133492844Y-94732884D01*
D32*
%TO.N,Net-(LED_RX1-Pad2)*%
X119120200Y-96325600D02*
X120745200Y-96325600D01*
%TO.N,Net-(LED_TX1-Pad2)*%
X119145200Y-93925600D02*
X120770200Y-93925600D01*
%TD*%
D40*
%TO.N,GND*%
G36*
X132043188Y-120089518D02*
G01*
X132030928Y-120214000D01*
X132034000Y-120728250D01*
X132192750Y-120887000D01*
X132842000Y-120887000D01*
X132842000Y-120867000D01*
X133096000Y-120867000D01*
X133096000Y-120887000D01*
X134112000Y-120887000D01*
X134112000Y-120867000D01*
X134366000Y-120867000D01*
X134366000Y-120887000D01*
X135382000Y-120887000D01*
X135382000Y-120867000D01*
X135636000Y-120867000D01*
X135636000Y-120887000D01*
X136652000Y-120887000D01*
X136652000Y-120867000D01*
X136906000Y-120867000D01*
X136906000Y-120887000D01*
X137555250Y-120887000D01*
X137714000Y-120728250D01*
X137717072Y-120214000D01*
X137704812Y-120089518D01*
X137697617Y-120065800D01*
X138074400Y-120065800D01*
X138074400Y-123398954D01*
X138044412Y-123494800D01*
X131241800Y-123494800D01*
X131241800Y-121814000D01*
X132030928Y-121814000D01*
X132043188Y-121938482D01*
X132079498Y-122058180D01*
X132138463Y-122168494D01*
X132217815Y-122265185D01*
X132314506Y-122344537D01*
X132424820Y-122403502D01*
X132544518Y-122439812D01*
X132669000Y-122452072D01*
X132683250Y-122449000D01*
X132842000Y-122290250D01*
X132842000Y-121141000D01*
X133096000Y-121141000D01*
X133096000Y-122290250D01*
X133254750Y-122449000D01*
X133269000Y-122452072D01*
X133393482Y-122439812D01*
X133513180Y-122403502D01*
X133604000Y-122354957D01*
X133694820Y-122403502D01*
X133814518Y-122439812D01*
X133939000Y-122452072D01*
X133953250Y-122449000D01*
X134112000Y-122290250D01*
X134112000Y-121141000D01*
X134366000Y-121141000D01*
X134366000Y-122290250D01*
X134524750Y-122449000D01*
X134539000Y-122452072D01*
X134663482Y-122439812D01*
X134783180Y-122403502D01*
X134874000Y-122354957D01*
X134964820Y-122403502D01*
X135084518Y-122439812D01*
X135209000Y-122452072D01*
X135223250Y-122449000D01*
X135382000Y-122290250D01*
X135382000Y-121141000D01*
X135636000Y-121141000D01*
X135636000Y-122290250D01*
X135794750Y-122449000D01*
X135809000Y-122452072D01*
X135933482Y-122439812D01*
X136053180Y-122403502D01*
X136144000Y-122354957D01*
X136234820Y-122403502D01*
X136354518Y-122439812D01*
X136479000Y-122452072D01*
X136493250Y-122449000D01*
X136652000Y-122290250D01*
X136652000Y-121141000D01*
X136906000Y-121141000D01*
X136906000Y-122290250D01*
X137064750Y-122449000D01*
X137079000Y-122452072D01*
X137203482Y-122439812D01*
X137323180Y-122403502D01*
X137433494Y-122344537D01*
X137530185Y-122265185D01*
X137609537Y-122168494D01*
X137668502Y-122058180D01*
X137704812Y-121938482D01*
X137717072Y-121814000D01*
X137714000Y-121299750D01*
X137555250Y-121141000D01*
X136906000Y-121141000D01*
X136652000Y-121141000D01*
X135636000Y-121141000D01*
X135382000Y-121141000D01*
X134366000Y-121141000D01*
X134112000Y-121141000D01*
X133096000Y-121141000D01*
X132842000Y-121141000D01*
X132192750Y-121141000D01*
X132034000Y-121299750D01*
X132030928Y-121814000D01*
X131241800Y-121814000D01*
X131241800Y-120065800D01*
X132050383Y-120065800D01*
X132043188Y-120089518D01*
G37*
X132043188Y-120089518D02*
X132030928Y-120214000D01*
X132034000Y-120728250D01*
X132192750Y-120887000D01*
X132842000Y-120887000D01*
X132842000Y-120867000D01*
X133096000Y-120867000D01*
X133096000Y-120887000D01*
X134112000Y-120887000D01*
X134112000Y-120867000D01*
X134366000Y-120867000D01*
X134366000Y-120887000D01*
X135382000Y-120887000D01*
X135382000Y-120867000D01*
X135636000Y-120867000D01*
X135636000Y-120887000D01*
X136652000Y-120887000D01*
X136652000Y-120867000D01*
X136906000Y-120867000D01*
X136906000Y-120887000D01*
X137555250Y-120887000D01*
X137714000Y-120728250D01*
X137717072Y-120214000D01*
X137704812Y-120089518D01*
X137697617Y-120065800D01*
X138074400Y-120065800D01*
X138074400Y-123398954D01*
X138044412Y-123494800D01*
X131241800Y-123494800D01*
X131241800Y-121814000D01*
X132030928Y-121814000D01*
X132043188Y-121938482D01*
X132079498Y-122058180D01*
X132138463Y-122168494D01*
X132217815Y-122265185D01*
X132314506Y-122344537D01*
X132424820Y-122403502D01*
X132544518Y-122439812D01*
X132669000Y-122452072D01*
X132683250Y-122449000D01*
X132842000Y-122290250D01*
X132842000Y-121141000D01*
X133096000Y-121141000D01*
X133096000Y-122290250D01*
X133254750Y-122449000D01*
X133269000Y-122452072D01*
X133393482Y-122439812D01*
X133513180Y-122403502D01*
X133604000Y-122354957D01*
X133694820Y-122403502D01*
X133814518Y-122439812D01*
X133939000Y-122452072D01*
X133953250Y-122449000D01*
X134112000Y-122290250D01*
X134112000Y-121141000D01*
X134366000Y-121141000D01*
X134366000Y-122290250D01*
X134524750Y-122449000D01*
X134539000Y-122452072D01*
X134663482Y-122439812D01*
X134783180Y-122403502D01*
X134874000Y-122354957D01*
X134964820Y-122403502D01*
X135084518Y-122439812D01*
X135209000Y-122452072D01*
X135223250Y-122449000D01*
X135382000Y-122290250D01*
X135382000Y-121141000D01*
X135636000Y-121141000D01*
X135636000Y-122290250D01*
X135794750Y-122449000D01*
X135809000Y-122452072D01*
X135933482Y-122439812D01*
X136053180Y-122403502D01*
X136144000Y-122354957D01*
X136234820Y-122403502D01*
X136354518Y-122439812D01*
X136479000Y-122452072D01*
X136493250Y-122449000D01*
X136652000Y-122290250D01*
X136652000Y-121141000D01*
X136906000Y-121141000D01*
X136906000Y-122290250D01*
X137064750Y-122449000D01*
X137079000Y-122452072D01*
X137203482Y-122439812D01*
X137323180Y-122403502D01*
X137433494Y-122344537D01*
X137530185Y-122265185D01*
X137609537Y-122168494D01*
X137668502Y-122058180D01*
X137704812Y-121938482D01*
X137717072Y-121814000D01*
X137714000Y-121299750D01*
X137555250Y-121141000D01*
X136906000Y-121141000D01*
X136652000Y-121141000D01*
X135636000Y-121141000D01*
X135382000Y-121141000D01*
X134366000Y-121141000D01*
X134112000Y-121141000D01*
X133096000Y-121141000D01*
X132842000Y-121141000D01*
X132192750Y-121141000D01*
X132034000Y-121299750D01*
X132030928Y-121814000D01*
X131241800Y-121814000D01*
X131241800Y-120065800D01*
X132050383Y-120065800D01*
X132043188Y-120089518D01*
%TD*%
M02*
