%TF.GenerationSoftware,KiCad,Pcbnew,5.1.6*%
%TF.CreationDate,2021-04-04T19:37:59+02:00*%
%TF.ProjectId,teriyaki,74657269-7961-46b6-992e-6b696361645f,rev?*%
%TF.SameCoordinates,Original*%
%TF.FileFunction,Copper,L2,Inr*%
%TF.FilePolarity,Positive*%
%FSLAX46Y46*%
G04 Gerber Fmt 4.6, Leading zero omitted, Abs format (unit mm)*
G04 Created by KiCad (PCBNEW 5.1.6) date 2021-04-04 19:37:59*
%MOMM*%
%LPD*%
G01*
G04 APERTURE LIST*
%TA.AperFunction,ViaPad*%
%ADD10O,1.700000X1.700000*%
%TD*%
%TA.AperFunction,ViaPad*%
%ADD11R,1.700000X1.700000*%
%TD*%
%TA.AperFunction,ViaPad*%
%ADD12C,0.800000*%
%TD*%
%TA.AperFunction,ViaPad*%
%ADD13C,7.000000*%
%TD*%
%TA.AperFunction,ViaPad*%
%ADD14C,1.600000*%
%TD*%
%TA.AperFunction,ViaPad*%
%ADD15R,1.600000X1.600000*%
%TD*%
%TA.AperFunction,ViaPad*%
%ADD16O,1.900000X1.000000*%
%TD*%
%TA.AperFunction,ViaPad*%
%ADD17O,1.250000X1.050000*%
%TD*%
%TA.AperFunction,ViaPad*%
%ADD18C,3.600000*%
%TD*%
%TA.AperFunction,ViaPad*%
%ADD19C,0.900000*%
%TD*%
%TA.AperFunction,ViaPad*%
%ADD20C,0.600000*%
%TD*%
%TA.AperFunction,Conductor*%
%ADD21C,0.254000*%
%TD*%
G04 APERTURE END LIST*
D10*
%TO.N,GPIO_PC4*%
%TO.C,J3*%
X92000000Y-118600000D03*
%TO.N,GPIO_PB7*%
X92000000Y-116060000D03*
%TO.N,GPIO_PB6*%
X92000000Y-113520000D03*
%TO.N,GPIO_PB5*%
X92000000Y-110980000D03*
%TO.N,GPIO_PB4*%
X92000000Y-108440000D03*
%TO.N,GPIO_PB3*%
X92000000Y-105900000D03*
%TO.N,TIM2_CH2*%
X92000000Y-103360000D03*
%TO.N,TIM3_CH1*%
X92000000Y-100820000D03*
%TO.N,TIM2_CH1*%
X92000000Y-98280000D03*
D11*
%TO.N,TIM3_CH2*%
X92000000Y-95740000D03*
%TD*%
D10*
%TO.N,I2C_SCL*%
%TO.C,J4*%
X103300000Y-124700000D03*
D11*
%TO.N,I2C_SDA*%
X105840000Y-124700000D03*
%TD*%
D12*
%TO.N,GND*%
%TO.C,H3*%
X93856155Y-122843845D03*
X92000000Y-122075000D03*
X90143845Y-122843845D03*
X89375000Y-124700000D03*
X90143845Y-126556155D03*
X92000000Y-127325000D03*
X93856155Y-126556155D03*
X94625000Y-124700000D03*
D13*
X92000000Y-124700000D03*
%TD*%
D12*
%TO.N,GND*%
%TO.C,H4*%
X143856155Y-87843845D03*
X142000000Y-87075000D03*
X140143845Y-87843845D03*
X139375000Y-89700000D03*
X140143845Y-91556155D03*
X142000000Y-92325000D03*
X143856155Y-91556155D03*
X144625000Y-89700000D03*
D13*
X142000000Y-89700000D03*
%TD*%
D12*
%TO.N,GND*%
%TO.C,H2*%
X93856155Y-87843845D03*
X92000000Y-87075000D03*
X90143845Y-87843845D03*
X89375000Y-89700000D03*
X90143845Y-91556155D03*
X92000000Y-92325000D03*
X93856155Y-91556155D03*
X94625000Y-89700000D03*
D13*
X92000000Y-89700000D03*
%TD*%
D12*
%TO.N,GND*%
%TO.C,H1*%
X143856155Y-122843845D03*
X142000000Y-122075000D03*
X140143845Y-122843845D03*
X139375000Y-124700000D03*
X140143845Y-126556155D03*
X142000000Y-127325000D03*
X143856155Y-126556155D03*
X144625000Y-124700000D03*
D13*
X142000000Y-124700000D03*
%TD*%
D14*
%TO.N,GND*%
%TO.C,C2*%
X133350000Y-110236000D03*
D15*
%TO.N,REG_VIN*%
X136850000Y-110236000D03*
%TD*%
D14*
%TO.N,GND*%
%TO.C,C7*%
X124700000Y-107200000D03*
D15*
%TO.N,+3V3*%
X121200000Y-107200000D03*
%TD*%
D16*
%TO.N,Net-(J1-Pad6)*%
%TO.C,J1*%
X145550000Y-95575000D03*
X145550000Y-103925000D03*
D17*
X142550000Y-97525000D03*
X142550000Y-101975000D03*
%TD*%
D10*
%TO.N,STM8_TX*%
%TO.C,J2*%
X111120000Y-89680000D03*
D11*
%TO.N,STM8_RX*%
X113660000Y-89680000D03*
%TD*%
D10*
%TO.N,STM8_NRST*%
%TO.C,J_SWIM1*%
X106035000Y-89700000D03*
%TO.N,GND*%
X103495000Y-89700000D03*
%TO.N,STM8_SWIM*%
X100955000Y-89700000D03*
D11*
%TO.N,+3V3*%
X98415000Y-89700000D03*
%TD*%
D18*
%TO.N,+3V3*%
%TO.C,TP1*%
X120680000Y-124690000D03*
%TD*%
%TO.N,REG_VIN*%
%TO.C,TP2*%
X143400000Y-117700000D03*
%TD*%
D19*
%TO.N,GND*%
X143992600Y-109474000D03*
%TO.N,REG_VIN*%
X141935200Y-109474000D03*
%TO.N,+3V3*%
X107952400Y-113899200D03*
X101043600Y-113899200D03*
D12*
%TO.N,GND*%
X139776200Y-96873060D03*
X144068800Y-101600000D03*
D20*
X144050002Y-100482400D03*
X141681200Y-100533200D03*
X141483637Y-101633285D03*
D12*
X141097000Y-101015800D03*
D19*
X128295400Y-109753400D03*
X129260600Y-109753400D03*
X130200400Y-109753400D03*
X127584200Y-110439200D03*
X132969000Y-122504200D03*
X133908800Y-122529600D03*
X134848600Y-122529600D03*
X135788400Y-122529600D03*
X136728200Y-122529600D03*
X137668000Y-122504200D03*
X132054600Y-122504200D03*
X139903200Y-117957600D03*
X139217400Y-118592600D03*
X138277600Y-118643400D03*
X132130800Y-115671600D03*
X126769800Y-119958800D03*
X127658800Y-119019000D03*
X108816000Y-111740200D03*
X108816000Y-110775000D03*
X113794400Y-108692200D03*
X113769000Y-107752400D03*
X102600000Y-102900000D03*
X129489200Y-102057200D03*
X132334000Y-94843600D03*
X130632200Y-94869000D03*
X110540000Y-125287600D03*
X112673400Y-125287600D03*
X114841400Y-125343000D03*
X130200000Y-107200000D03*
X137700000Y-103900000D03*
X116100000Y-93900000D03*
X116100000Y-96300000D03*
X102500000Y-103850000D03*
X103500000Y-102550000D03*
X125900000Y-88950000D03*
X126700000Y-88410000D03*
X134170000Y-89450000D03*
X133800000Y-88400000D03*
X131770000Y-88280000D03*
X129750000Y-88280000D03*
X127800000Y-88260000D03*
D20*
X126900000Y-94700000D03*
X127580000Y-94720000D03*
D19*
%TO.N,+3V3*%
X130600000Y-102600000D03*
X118338600Y-115620800D03*
X118364000Y-116586000D03*
X121081800Y-115620800D03*
X121081800Y-116611400D03*
X117449600Y-115138200D03*
X117449600Y-116128800D03*
X121970800Y-116103400D03*
X121945400Y-115112800D03*
X121056400Y-114554000D03*
X118338600Y-114477800D03*
X126363400Y-122778200D03*
X105310800Y-102570800D03*
X106072800Y-103205800D03*
X106047400Y-104171000D03*
X127533400Y-98145600D03*
X127533400Y-99060000D03*
X128346200Y-98602800D03*
X126009400Y-90576400D03*
X126009400Y-91516200D03*
X125069600Y-90576400D03*
X125069600Y-91516200D03*
D12*
%TO.N,REG_VIN*%
X137693400Y-99110800D03*
X144100000Y-97500000D03*
X143865600Y-96723200D03*
X143865600Y-96723200D03*
X143865600Y-96723200D03*
X143865600Y-96723200D03*
X143865600Y-96723200D03*
X137637818Y-96850200D03*
D20*
X144068800Y-98831400D03*
X144068800Y-99441000D03*
%TO.N,REG_FEEDBACK*%
X129680000Y-119640000D03*
X134220000Y-114500000D03*
D19*
%TO.N,STM8_RX*%
X105206272Y-111798829D03*
X119040000Y-98330000D03*
%TO.N,STM8_TX*%
X117250000Y-103000000D03*
X108690000Y-112960000D03*
D20*
%TO.N,TIM3_CH1*%
X113770000Y-117520000D03*
%TO.N,GPIO_PB6*%
X111540000Y-117530000D03*
X102750000Y-109720000D03*
%TO.N,GPIO_PB7*%
X109220000Y-118710000D03*
X99180000Y-110350000D03*
D19*
%TO.N,STM8_SWIM*%
X104411370Y-110161825D03*
%TO.N,STM8_NRST*%
X105290000Y-109500000D03*
%TD*%
D21*
%TO.N,GND*%
G36*
X142768083Y-85431173D02*
G01*
X143511891Y-85634656D01*
X144207905Y-85966638D01*
X144834130Y-86416626D01*
X145370777Y-86970403D01*
X145800871Y-87610451D01*
X146110829Y-88316553D01*
X146292065Y-89071457D01*
X146340001Y-89724220D01*
X146340000Y-94492067D01*
X146222499Y-94456423D01*
X146055752Y-94440000D01*
X145044248Y-94440000D01*
X144877501Y-94456423D01*
X144663553Y-94521324D01*
X144466377Y-94626716D01*
X144293551Y-94768551D01*
X144151716Y-94941377D01*
X144046324Y-95138553D01*
X143981423Y-95352501D01*
X143959509Y-95575000D01*
X143970720Y-95688833D01*
X143967539Y-95688200D01*
X143763661Y-95688200D01*
X143563702Y-95727974D01*
X143375344Y-95805995D01*
X143205826Y-95919263D01*
X143061663Y-96063426D01*
X142948395Y-96232944D01*
X142885700Y-96384303D01*
X142877400Y-96381785D01*
X142706979Y-96365000D01*
X142393021Y-96365000D01*
X142222600Y-96381785D01*
X142003940Y-96448115D01*
X141802421Y-96555829D01*
X141625788Y-96700788D01*
X141480829Y-96877421D01*
X141373115Y-97078940D01*
X141306785Y-97297600D01*
X141284388Y-97525000D01*
X141306785Y-97752400D01*
X141373115Y-97971060D01*
X141480829Y-98172579D01*
X141625788Y-98349212D01*
X141802421Y-98494171D01*
X142003940Y-98601885D01*
X142222600Y-98668215D01*
X142393021Y-98685000D01*
X142706979Y-98685000D01*
X142877400Y-98668215D01*
X143096060Y-98601885D01*
X143168878Y-98562963D01*
X143133800Y-98739311D01*
X143133800Y-98923489D01*
X143169732Y-99104129D01*
X143183016Y-99136200D01*
X143169732Y-99168271D01*
X143133800Y-99348911D01*
X143133800Y-99533089D01*
X143169732Y-99713729D01*
X143240214Y-99883889D01*
X143342538Y-100037028D01*
X143472772Y-100167262D01*
X143625911Y-100269586D01*
X143796071Y-100340068D01*
X143976711Y-100376000D01*
X144160889Y-100376000D01*
X144341529Y-100340068D01*
X144511689Y-100269586D01*
X144664828Y-100167262D01*
X144795062Y-100037028D01*
X144897386Y-99883889D01*
X144967868Y-99713729D01*
X145003800Y-99533089D01*
X145003800Y-99348911D01*
X144967868Y-99168271D01*
X144954584Y-99136200D01*
X144967868Y-99104129D01*
X145003800Y-98923489D01*
X145003800Y-98739311D01*
X144967868Y-98558671D01*
X144897386Y-98388511D01*
X144856101Y-98326723D01*
X144859810Y-98329263D01*
X144868223Y-98333812D01*
X144941459Y-98372752D01*
X144998866Y-98396413D01*
X145055920Y-98420867D01*
X145065054Y-98423694D01*
X145065061Y-98423697D01*
X145065069Y-98423699D01*
X145144461Y-98447669D01*
X145205337Y-98459723D01*
X145266095Y-98472637D01*
X145275607Y-98473637D01*
X145358157Y-98481731D01*
X145358163Y-98481731D01*
X145391353Y-98485000D01*
X146315001Y-98485000D01*
X146315000Y-101015000D01*
X145391353Y-101015000D01*
X145357737Y-101018311D01*
X145352220Y-101018311D01*
X145342708Y-101019310D01*
X145307523Y-101023257D01*
X145290717Y-101024912D01*
X145289515Y-101025277D01*
X145260280Y-101028556D01*
X145199514Y-101041472D01*
X145138654Y-101053523D01*
X145129518Y-101056351D01*
X145129512Y-101056352D01*
X145129507Y-101056354D01*
X145050454Y-101081431D01*
X144993382Y-101105892D01*
X144935984Y-101129550D01*
X144927578Y-101134095D01*
X144927575Y-101134096D01*
X144927573Y-101134097D01*
X144927570Y-101134099D01*
X144854884Y-101174059D01*
X144803653Y-101209138D01*
X144751951Y-101243489D01*
X144744581Y-101249585D01*
X144681041Y-101302901D01*
X144637602Y-101347259D01*
X144593546Y-101391009D01*
X144587501Y-101398421D01*
X144535527Y-101463064D01*
X144501542Y-101514999D01*
X144466816Y-101566483D01*
X144462326Y-101574928D01*
X144423898Y-101648434D01*
X144400640Y-101705999D01*
X144376582Y-101763232D01*
X144373817Y-101772388D01*
X144350398Y-101851959D01*
X144338760Y-101912969D01*
X144326281Y-101973758D01*
X144325347Y-101983276D01*
X144317830Y-102065880D01*
X144318263Y-102127968D01*
X144317830Y-102190057D01*
X144318763Y-102199576D01*
X144327434Y-102282066D01*
X144339920Y-102342891D01*
X144351550Y-102403857D01*
X144354314Y-102413013D01*
X144378841Y-102492249D01*
X144402894Y-102549469D01*
X144426159Y-102607052D01*
X144430649Y-102615497D01*
X144470100Y-102688460D01*
X144504821Y-102739936D01*
X144538810Y-102791877D01*
X144544854Y-102799289D01*
X144597726Y-102863200D01*
X144626078Y-102891355D01*
X144466377Y-102976716D01*
X144293551Y-103118551D01*
X144151716Y-103291377D01*
X144046324Y-103488553D01*
X143981423Y-103702501D01*
X143959509Y-103925000D01*
X143981423Y-104147499D01*
X144046324Y-104361447D01*
X144151716Y-104558623D01*
X144293551Y-104731449D01*
X144466377Y-104873284D01*
X144663553Y-104978676D01*
X144877501Y-105043577D01*
X145044248Y-105060000D01*
X146055752Y-105060000D01*
X146222499Y-105043577D01*
X146340001Y-105007933D01*
X146340000Y-124670608D01*
X146268827Y-125468083D01*
X146065344Y-126211890D01*
X145733363Y-126907904D01*
X145283374Y-127534130D01*
X144729597Y-128070777D01*
X144089549Y-128500871D01*
X143383447Y-128810829D01*
X142628543Y-128992065D01*
X141975793Y-129040000D01*
X92029392Y-129040000D01*
X91231917Y-128968827D01*
X90488110Y-128765344D01*
X89792096Y-128433363D01*
X89165870Y-127983374D01*
X88808073Y-127614155D01*
X89265450Y-127614155D01*
X89661634Y-128134550D01*
X90376612Y-128524748D01*
X91153976Y-128767964D01*
X91963853Y-128854851D01*
X92775118Y-128782069D01*
X93556597Y-128552415D01*
X94278256Y-128174715D01*
X94338366Y-128134550D01*
X94734550Y-127614155D01*
X139265450Y-127614155D01*
X139661634Y-128134550D01*
X140376612Y-128524748D01*
X141153976Y-128767964D01*
X141963853Y-128854851D01*
X142775118Y-128782069D01*
X143556597Y-128552415D01*
X144278256Y-128174715D01*
X144338366Y-128134550D01*
X144734550Y-127614155D01*
X142000000Y-124879605D01*
X139265450Y-127614155D01*
X94734550Y-127614155D01*
X92000000Y-124879605D01*
X89265450Y-127614155D01*
X88808073Y-127614155D01*
X88629223Y-127429597D01*
X88199129Y-126789549D01*
X87889171Y-126083447D01*
X87707935Y-125328543D01*
X87660000Y-124675793D01*
X87660000Y-124663853D01*
X87845149Y-124663853D01*
X87917931Y-125475118D01*
X88147585Y-126256597D01*
X88525285Y-126978256D01*
X88565450Y-127038366D01*
X89085845Y-127434550D01*
X91820395Y-124700000D01*
X92179605Y-124700000D01*
X94914155Y-127434550D01*
X95434550Y-127038366D01*
X95824748Y-126323388D01*
X96067964Y-125546024D01*
X96154851Y-124736147D01*
X96138487Y-124553740D01*
X101815000Y-124553740D01*
X101815000Y-124846260D01*
X101872068Y-125133158D01*
X101984010Y-125403411D01*
X102146525Y-125646632D01*
X102353368Y-125853475D01*
X102596589Y-126015990D01*
X102866842Y-126127932D01*
X103153740Y-126185000D01*
X103446260Y-126185000D01*
X103733158Y-126127932D01*
X104003411Y-126015990D01*
X104246632Y-125853475D01*
X104378487Y-125721620D01*
X104400498Y-125794180D01*
X104459463Y-125904494D01*
X104538815Y-126001185D01*
X104635506Y-126080537D01*
X104745820Y-126139502D01*
X104865518Y-126175812D01*
X104990000Y-126188072D01*
X106690000Y-126188072D01*
X106814482Y-126175812D01*
X106934180Y-126139502D01*
X107044494Y-126080537D01*
X107141185Y-126001185D01*
X107220537Y-125904494D01*
X107279502Y-125794180D01*
X107315812Y-125674482D01*
X107328072Y-125550000D01*
X107328072Y-124450173D01*
X118245000Y-124450173D01*
X118245000Y-124929827D01*
X118338576Y-125400263D01*
X118522131Y-125843405D01*
X118788612Y-126242222D01*
X119127778Y-126581388D01*
X119526595Y-126847869D01*
X119969737Y-127031424D01*
X120440173Y-127125000D01*
X120919827Y-127125000D01*
X121390263Y-127031424D01*
X121833405Y-126847869D01*
X122232222Y-126581388D01*
X122571388Y-126242222D01*
X122837869Y-125843405D01*
X123021424Y-125400263D01*
X123115000Y-124929827D01*
X123115000Y-124663853D01*
X137845149Y-124663853D01*
X137917931Y-125475118D01*
X138147585Y-126256597D01*
X138525285Y-126978256D01*
X138565450Y-127038366D01*
X139085845Y-127434550D01*
X141820395Y-124700000D01*
X142179605Y-124700000D01*
X144914155Y-127434550D01*
X145434550Y-127038366D01*
X145824748Y-126323388D01*
X146067964Y-125546024D01*
X146154851Y-124736147D01*
X146082069Y-123924882D01*
X145852415Y-123143403D01*
X145474715Y-122421744D01*
X145434550Y-122361634D01*
X144914155Y-121965450D01*
X142179605Y-124700000D01*
X141820395Y-124700000D01*
X139085845Y-121965450D01*
X138565450Y-122361634D01*
X138175252Y-123076612D01*
X137932036Y-123853976D01*
X137845149Y-124663853D01*
X123115000Y-124663853D01*
X123115000Y-124450173D01*
X123021424Y-123979737D01*
X122837869Y-123536595D01*
X122571388Y-123137778D01*
X122232222Y-122798612D01*
X122041742Y-122671337D01*
X125278400Y-122671337D01*
X125278400Y-122885063D01*
X125320096Y-123094683D01*
X125401885Y-123292140D01*
X125520625Y-123469847D01*
X125671753Y-123620975D01*
X125849460Y-123739715D01*
X126046917Y-123821504D01*
X126256537Y-123863200D01*
X126470263Y-123863200D01*
X126679883Y-123821504D01*
X126877340Y-123739715D01*
X127055047Y-123620975D01*
X127206175Y-123469847D01*
X127324915Y-123292140D01*
X127406704Y-123094683D01*
X127448400Y-122885063D01*
X127448400Y-122671337D01*
X127406704Y-122461717D01*
X127324915Y-122264260D01*
X127206175Y-122086553D01*
X127055047Y-121935425D01*
X126877340Y-121816685D01*
X126802886Y-121785845D01*
X139265450Y-121785845D01*
X142000000Y-124520395D01*
X144734550Y-121785845D01*
X144338366Y-121265450D01*
X143623388Y-120875252D01*
X142846024Y-120632036D01*
X142036147Y-120545149D01*
X141224882Y-120617931D01*
X140443403Y-120847585D01*
X139721744Y-121225285D01*
X139661634Y-121265450D01*
X139265450Y-121785845D01*
X126802886Y-121785845D01*
X126679883Y-121734896D01*
X126470263Y-121693200D01*
X126256537Y-121693200D01*
X126046917Y-121734896D01*
X125849460Y-121816685D01*
X125671753Y-121935425D01*
X125520625Y-122086553D01*
X125401885Y-122264260D01*
X125320096Y-122461717D01*
X125278400Y-122671337D01*
X122041742Y-122671337D01*
X121833405Y-122532131D01*
X121390263Y-122348576D01*
X120919827Y-122255000D01*
X120440173Y-122255000D01*
X119969737Y-122348576D01*
X119526595Y-122532131D01*
X119127778Y-122798612D01*
X118788612Y-123137778D01*
X118522131Y-123536595D01*
X118338576Y-123979737D01*
X118245000Y-124450173D01*
X107328072Y-124450173D01*
X107328072Y-123850000D01*
X107315812Y-123725518D01*
X107279502Y-123605820D01*
X107220537Y-123495506D01*
X107141185Y-123398815D01*
X107044494Y-123319463D01*
X106934180Y-123260498D01*
X106814482Y-123224188D01*
X106690000Y-123211928D01*
X104990000Y-123211928D01*
X104865518Y-123224188D01*
X104745820Y-123260498D01*
X104635506Y-123319463D01*
X104538815Y-123398815D01*
X104459463Y-123495506D01*
X104400498Y-123605820D01*
X104378487Y-123678380D01*
X104246632Y-123546525D01*
X104003411Y-123384010D01*
X103733158Y-123272068D01*
X103446260Y-123215000D01*
X103153740Y-123215000D01*
X102866842Y-123272068D01*
X102596589Y-123384010D01*
X102353368Y-123546525D01*
X102146525Y-123753368D01*
X101984010Y-123996589D01*
X101872068Y-124266842D01*
X101815000Y-124553740D01*
X96138487Y-124553740D01*
X96082069Y-123924882D01*
X95852415Y-123143403D01*
X95474715Y-122421744D01*
X95434550Y-122361634D01*
X94914155Y-121965450D01*
X92179605Y-124700000D01*
X91820395Y-124700000D01*
X89085845Y-121965450D01*
X88565450Y-122361634D01*
X88175252Y-123076612D01*
X87932036Y-123853976D01*
X87845149Y-124663853D01*
X87660000Y-124663853D01*
X87660000Y-121785845D01*
X89265450Y-121785845D01*
X92000000Y-124520395D01*
X94734550Y-121785845D01*
X94338366Y-121265450D01*
X93623388Y-120875252D01*
X92846024Y-120632036D01*
X92036147Y-120545149D01*
X91224882Y-120617931D01*
X90443403Y-120847585D01*
X89721744Y-121225285D01*
X89661634Y-121265450D01*
X89265450Y-121785845D01*
X87660000Y-121785845D01*
X87660000Y-94890000D01*
X90511928Y-94890000D01*
X90511928Y-96590000D01*
X90524188Y-96714482D01*
X90560498Y-96834180D01*
X90619463Y-96944494D01*
X90698815Y-97041185D01*
X90795506Y-97120537D01*
X90905820Y-97179502D01*
X90978380Y-97201513D01*
X90846525Y-97333368D01*
X90684010Y-97576589D01*
X90572068Y-97846842D01*
X90515000Y-98133740D01*
X90515000Y-98426260D01*
X90572068Y-98713158D01*
X90684010Y-98983411D01*
X90846525Y-99226632D01*
X91053368Y-99433475D01*
X91227760Y-99550000D01*
X91053368Y-99666525D01*
X90846525Y-99873368D01*
X90684010Y-100116589D01*
X90572068Y-100386842D01*
X90515000Y-100673740D01*
X90515000Y-100966260D01*
X90572068Y-101253158D01*
X90684010Y-101523411D01*
X90846525Y-101766632D01*
X91053368Y-101973475D01*
X91227760Y-102090000D01*
X91053368Y-102206525D01*
X90846525Y-102413368D01*
X90684010Y-102656589D01*
X90572068Y-102926842D01*
X90515000Y-103213740D01*
X90515000Y-103506260D01*
X90572068Y-103793158D01*
X90684010Y-104063411D01*
X90846525Y-104306632D01*
X91053368Y-104513475D01*
X91227760Y-104630000D01*
X91053368Y-104746525D01*
X90846525Y-104953368D01*
X90684010Y-105196589D01*
X90572068Y-105466842D01*
X90515000Y-105753740D01*
X90515000Y-106046260D01*
X90572068Y-106333158D01*
X90684010Y-106603411D01*
X90846525Y-106846632D01*
X91053368Y-107053475D01*
X91227760Y-107170000D01*
X91053368Y-107286525D01*
X90846525Y-107493368D01*
X90684010Y-107736589D01*
X90572068Y-108006842D01*
X90515000Y-108293740D01*
X90515000Y-108586260D01*
X90572068Y-108873158D01*
X90684010Y-109143411D01*
X90846525Y-109386632D01*
X91053368Y-109593475D01*
X91227760Y-109710000D01*
X91053368Y-109826525D01*
X90846525Y-110033368D01*
X90684010Y-110276589D01*
X90572068Y-110546842D01*
X90515000Y-110833740D01*
X90515000Y-111126260D01*
X90572068Y-111413158D01*
X90684010Y-111683411D01*
X90846525Y-111926632D01*
X91053368Y-112133475D01*
X91227760Y-112250000D01*
X91053368Y-112366525D01*
X90846525Y-112573368D01*
X90684010Y-112816589D01*
X90572068Y-113086842D01*
X90515000Y-113373740D01*
X90515000Y-113666260D01*
X90572068Y-113953158D01*
X90684010Y-114223411D01*
X90846525Y-114466632D01*
X91053368Y-114673475D01*
X91227760Y-114790000D01*
X91053368Y-114906525D01*
X90846525Y-115113368D01*
X90684010Y-115356589D01*
X90572068Y-115626842D01*
X90515000Y-115913740D01*
X90515000Y-116206260D01*
X90572068Y-116493158D01*
X90684010Y-116763411D01*
X90846525Y-117006632D01*
X91053368Y-117213475D01*
X91227760Y-117330000D01*
X91053368Y-117446525D01*
X90846525Y-117653368D01*
X90684010Y-117896589D01*
X90572068Y-118166842D01*
X90515000Y-118453740D01*
X90515000Y-118746260D01*
X90572068Y-119033158D01*
X90684010Y-119303411D01*
X90846525Y-119546632D01*
X91053368Y-119753475D01*
X91296589Y-119915990D01*
X91566842Y-120027932D01*
X91853740Y-120085000D01*
X92146260Y-120085000D01*
X92433158Y-120027932D01*
X92703411Y-119915990D01*
X92946632Y-119753475D01*
X93153475Y-119546632D01*
X93315990Y-119303411D01*
X93427932Y-119033158D01*
X93485000Y-118746260D01*
X93485000Y-118617911D01*
X108285000Y-118617911D01*
X108285000Y-118802089D01*
X108320932Y-118982729D01*
X108391414Y-119152889D01*
X108493738Y-119306028D01*
X108623972Y-119436262D01*
X108777111Y-119538586D01*
X108947271Y-119609068D01*
X109127911Y-119645000D01*
X109312089Y-119645000D01*
X109492729Y-119609068D01*
X109640376Y-119547911D01*
X128745000Y-119547911D01*
X128745000Y-119732089D01*
X128780932Y-119912729D01*
X128851414Y-120082889D01*
X128953738Y-120236028D01*
X129083972Y-120366262D01*
X129237111Y-120468586D01*
X129407271Y-120539068D01*
X129587911Y-120575000D01*
X129772089Y-120575000D01*
X129952729Y-120539068D01*
X130122889Y-120468586D01*
X130276028Y-120366262D01*
X130406262Y-120236028D01*
X130508586Y-120082889D01*
X130579068Y-119912729D01*
X130615000Y-119732089D01*
X130615000Y-119547911D01*
X130579068Y-119367271D01*
X130508586Y-119197111D01*
X130406262Y-119043972D01*
X130276028Y-118913738D01*
X130122889Y-118811414D01*
X129952729Y-118740932D01*
X129772089Y-118705000D01*
X129587911Y-118705000D01*
X129407271Y-118740932D01*
X129237111Y-118811414D01*
X129083972Y-118913738D01*
X128953738Y-119043972D01*
X128851414Y-119197111D01*
X128780932Y-119367271D01*
X128745000Y-119547911D01*
X109640376Y-119547911D01*
X109662889Y-119538586D01*
X109816028Y-119436262D01*
X109946262Y-119306028D01*
X110048586Y-119152889D01*
X110119068Y-118982729D01*
X110155000Y-118802089D01*
X110155000Y-118617911D01*
X110119068Y-118437271D01*
X110048586Y-118267111D01*
X109946262Y-118113972D01*
X109816028Y-117983738D01*
X109662889Y-117881414D01*
X109492729Y-117810932D01*
X109312089Y-117775000D01*
X109127911Y-117775000D01*
X108947271Y-117810932D01*
X108777111Y-117881414D01*
X108623972Y-117983738D01*
X108493738Y-118113972D01*
X108391414Y-118267111D01*
X108320932Y-118437271D01*
X108285000Y-118617911D01*
X93485000Y-118617911D01*
X93485000Y-118453740D01*
X93427932Y-118166842D01*
X93315990Y-117896589D01*
X93153475Y-117653368D01*
X92946632Y-117446525D01*
X92933741Y-117437911D01*
X110605000Y-117437911D01*
X110605000Y-117622089D01*
X110640932Y-117802729D01*
X110711414Y-117972889D01*
X110813738Y-118126028D01*
X110943972Y-118256262D01*
X111097111Y-118358586D01*
X111267271Y-118429068D01*
X111447911Y-118465000D01*
X111632089Y-118465000D01*
X111812729Y-118429068D01*
X111982889Y-118358586D01*
X112136028Y-118256262D01*
X112266262Y-118126028D01*
X112368586Y-117972889D01*
X112439068Y-117802729D01*
X112475000Y-117622089D01*
X112475000Y-117437911D01*
X112473011Y-117427911D01*
X112835000Y-117427911D01*
X112835000Y-117612089D01*
X112870932Y-117792729D01*
X112941414Y-117962889D01*
X113043738Y-118116028D01*
X113173972Y-118246262D01*
X113327111Y-118348586D01*
X113497271Y-118419068D01*
X113677911Y-118455000D01*
X113862089Y-118455000D01*
X114042729Y-118419068D01*
X114212889Y-118348586D01*
X114366028Y-118246262D01*
X114496262Y-118116028D01*
X114598586Y-117962889D01*
X114669068Y-117792729D01*
X114705000Y-117612089D01*
X114705000Y-117427911D01*
X114669068Y-117247271D01*
X114598586Y-117077111D01*
X114496262Y-116923972D01*
X114366028Y-116793738D01*
X114212889Y-116691414D01*
X114042729Y-116620932D01*
X113862089Y-116585000D01*
X113677911Y-116585000D01*
X113497271Y-116620932D01*
X113327111Y-116691414D01*
X113173972Y-116793738D01*
X113043738Y-116923972D01*
X112941414Y-117077111D01*
X112870932Y-117247271D01*
X112835000Y-117427911D01*
X112473011Y-117427911D01*
X112439068Y-117257271D01*
X112368586Y-117087111D01*
X112266262Y-116933972D01*
X112136028Y-116803738D01*
X111982889Y-116701414D01*
X111812729Y-116630932D01*
X111632089Y-116595000D01*
X111447911Y-116595000D01*
X111267271Y-116630932D01*
X111097111Y-116701414D01*
X110943972Y-116803738D01*
X110813738Y-116933972D01*
X110711414Y-117087111D01*
X110640932Y-117257271D01*
X110605000Y-117437911D01*
X92933741Y-117437911D01*
X92772240Y-117330000D01*
X92946632Y-117213475D01*
X93153475Y-117006632D01*
X93315990Y-116763411D01*
X93427932Y-116493158D01*
X93485000Y-116206260D01*
X93485000Y-115913740D01*
X93427932Y-115626842D01*
X93315990Y-115356589D01*
X93153475Y-115113368D01*
X93071444Y-115031337D01*
X116364600Y-115031337D01*
X116364600Y-115245063D01*
X116406296Y-115454683D01*
X116480364Y-115633500D01*
X116406296Y-115812317D01*
X116364600Y-116021937D01*
X116364600Y-116235663D01*
X116406296Y-116445283D01*
X116488085Y-116642740D01*
X116606825Y-116820447D01*
X116757953Y-116971575D01*
X116935660Y-117090315D01*
X117133117Y-117172104D01*
X117342737Y-117213800D01*
X117478564Y-117213800D01*
X117521225Y-117277647D01*
X117672353Y-117428775D01*
X117850060Y-117547515D01*
X118047517Y-117629304D01*
X118257137Y-117671000D01*
X118470863Y-117671000D01*
X118680483Y-117629304D01*
X118877940Y-117547515D01*
X119055647Y-117428775D01*
X119206775Y-117277647D01*
X119325515Y-117099940D01*
X119407304Y-116902483D01*
X119449000Y-116692863D01*
X119449000Y-116479137D01*
X119407304Y-116269517D01*
X119325796Y-116072739D01*
X119381904Y-115937283D01*
X119423600Y-115727663D01*
X119423600Y-115513937D01*
X119381904Y-115304317D01*
X119300115Y-115106860D01*
X119261655Y-115049300D01*
X119300115Y-114991740D01*
X119381904Y-114794283D01*
X119423600Y-114584663D01*
X119423600Y-114447137D01*
X119971400Y-114447137D01*
X119971400Y-114660863D01*
X120013096Y-114870483D01*
X120094885Y-115067940D01*
X120120588Y-115106407D01*
X120120285Y-115106860D01*
X120038496Y-115304317D01*
X119996800Y-115513937D01*
X119996800Y-115727663D01*
X120038496Y-115937283D01*
X120112564Y-116116100D01*
X120038496Y-116294917D01*
X119996800Y-116504537D01*
X119996800Y-116718263D01*
X120038496Y-116927883D01*
X120120285Y-117125340D01*
X120239025Y-117303047D01*
X120390153Y-117454175D01*
X120567860Y-117572915D01*
X120765317Y-117654704D01*
X120974937Y-117696400D01*
X121188663Y-117696400D01*
X121398283Y-117654704D01*
X121595740Y-117572915D01*
X121764470Y-117460173D01*
X140965000Y-117460173D01*
X140965000Y-117939827D01*
X141058576Y-118410263D01*
X141242131Y-118853405D01*
X141508612Y-119252222D01*
X141847778Y-119591388D01*
X142246595Y-119857869D01*
X142689737Y-120041424D01*
X143160173Y-120135000D01*
X143639827Y-120135000D01*
X144110263Y-120041424D01*
X144553405Y-119857869D01*
X144952222Y-119591388D01*
X145291388Y-119252222D01*
X145557869Y-118853405D01*
X145741424Y-118410263D01*
X145835000Y-117939827D01*
X145835000Y-117460173D01*
X145741424Y-116989737D01*
X145557869Y-116546595D01*
X145291388Y-116147778D01*
X144952222Y-115808612D01*
X144553405Y-115542131D01*
X144110263Y-115358576D01*
X143639827Y-115265000D01*
X143160173Y-115265000D01*
X142689737Y-115358576D01*
X142246595Y-115542131D01*
X141847778Y-115808612D01*
X141508612Y-116147778D01*
X141242131Y-116546595D01*
X141058576Y-116989737D01*
X140965000Y-117460173D01*
X121764470Y-117460173D01*
X121773447Y-117454175D01*
X121924575Y-117303047D01*
X122001180Y-117188400D01*
X122077663Y-117188400D01*
X122287283Y-117146704D01*
X122484740Y-117064915D01*
X122662447Y-116946175D01*
X122813575Y-116795047D01*
X122932315Y-116617340D01*
X123014104Y-116419883D01*
X123055800Y-116210263D01*
X123055800Y-115996537D01*
X123014104Y-115786917D01*
X122932315Y-115589460D01*
X122926168Y-115580260D01*
X122988704Y-115429283D01*
X123030400Y-115219663D01*
X123030400Y-115005937D01*
X122988704Y-114796317D01*
X122906915Y-114598860D01*
X122788175Y-114421153D01*
X122774933Y-114407911D01*
X133285000Y-114407911D01*
X133285000Y-114592089D01*
X133320932Y-114772729D01*
X133391414Y-114942889D01*
X133493738Y-115096028D01*
X133623972Y-115226262D01*
X133777111Y-115328586D01*
X133947271Y-115399068D01*
X134127911Y-115435000D01*
X134312089Y-115435000D01*
X134492729Y-115399068D01*
X134662889Y-115328586D01*
X134816028Y-115226262D01*
X134946262Y-115096028D01*
X135048586Y-114942889D01*
X135119068Y-114772729D01*
X135155000Y-114592089D01*
X135155000Y-114407911D01*
X135119068Y-114227271D01*
X135048586Y-114057111D01*
X134946262Y-113903972D01*
X134816028Y-113773738D01*
X134662889Y-113671414D01*
X134492729Y-113600932D01*
X134312089Y-113565000D01*
X134127911Y-113565000D01*
X133947271Y-113600932D01*
X133777111Y-113671414D01*
X133623972Y-113773738D01*
X133493738Y-113903972D01*
X133391414Y-114057111D01*
X133320932Y-114227271D01*
X133285000Y-114407911D01*
X122774933Y-114407911D01*
X122637047Y-114270025D01*
X122459340Y-114151285D01*
X122261883Y-114069496D01*
X122052263Y-114027800D01*
X122009723Y-114027800D01*
X121899175Y-113862353D01*
X121748047Y-113711225D01*
X121570340Y-113592485D01*
X121372883Y-113510696D01*
X121163263Y-113469000D01*
X120949537Y-113469000D01*
X120739917Y-113510696D01*
X120542460Y-113592485D01*
X120364753Y-113711225D01*
X120213625Y-113862353D01*
X120094885Y-114040060D01*
X120013096Y-114237517D01*
X119971400Y-114447137D01*
X119423600Y-114447137D01*
X119423600Y-114370937D01*
X119381904Y-114161317D01*
X119300115Y-113963860D01*
X119181375Y-113786153D01*
X119030247Y-113635025D01*
X118852540Y-113516285D01*
X118655083Y-113434496D01*
X118445463Y-113392800D01*
X118231737Y-113392800D01*
X118022117Y-113434496D01*
X117824660Y-113516285D01*
X117646953Y-113635025D01*
X117495825Y-113786153D01*
X117377085Y-113963860D01*
X117339841Y-114053776D01*
X117133117Y-114094896D01*
X116935660Y-114176685D01*
X116757953Y-114295425D01*
X116606825Y-114446553D01*
X116488085Y-114624260D01*
X116406296Y-114821717D01*
X116364600Y-115031337D01*
X93071444Y-115031337D01*
X92946632Y-114906525D01*
X92772240Y-114790000D01*
X92946632Y-114673475D01*
X93153475Y-114466632D01*
X93315990Y-114223411D01*
X93427932Y-113953158D01*
X93459921Y-113792337D01*
X99958600Y-113792337D01*
X99958600Y-114006063D01*
X100000296Y-114215683D01*
X100082085Y-114413140D01*
X100200825Y-114590847D01*
X100351953Y-114741975D01*
X100529660Y-114860715D01*
X100727117Y-114942504D01*
X100936737Y-114984200D01*
X101150463Y-114984200D01*
X101360083Y-114942504D01*
X101557540Y-114860715D01*
X101735247Y-114741975D01*
X101886375Y-114590847D01*
X102005115Y-114413140D01*
X102086904Y-114215683D01*
X102128600Y-114006063D01*
X102128600Y-113792337D01*
X106867400Y-113792337D01*
X106867400Y-114006063D01*
X106909096Y-114215683D01*
X106990885Y-114413140D01*
X107109625Y-114590847D01*
X107260753Y-114741975D01*
X107438460Y-114860715D01*
X107635917Y-114942504D01*
X107845537Y-114984200D01*
X108059263Y-114984200D01*
X108268883Y-114942504D01*
X108466340Y-114860715D01*
X108644047Y-114741975D01*
X108795175Y-114590847D01*
X108913915Y-114413140D01*
X108995704Y-114215683D01*
X109037400Y-114006063D01*
X109037400Y-113990498D01*
X109203940Y-113921515D01*
X109381647Y-113802775D01*
X109532775Y-113651647D01*
X109651515Y-113473940D01*
X109733304Y-113276483D01*
X109768011Y-113102000D01*
X113325000Y-113102000D01*
X113349776Y-113099560D01*
X113373601Y-113092333D01*
X113395557Y-113080597D01*
X113414803Y-113064803D01*
X113430597Y-113045557D01*
X113442333Y-113023601D01*
X113449560Y-112999776D01*
X113452000Y-112975000D01*
X113452000Y-111228702D01*
X132536903Y-111228702D01*
X132608486Y-111472671D01*
X132863996Y-111593571D01*
X133138184Y-111662300D01*
X133420512Y-111676217D01*
X133700130Y-111634787D01*
X133966292Y-111539603D01*
X134091514Y-111472671D01*
X134163097Y-111228702D01*
X133350000Y-110415605D01*
X132536903Y-111228702D01*
X113452000Y-111228702D01*
X113452000Y-110306512D01*
X131909783Y-110306512D01*
X131951213Y-110586130D01*
X132046397Y-110852292D01*
X132113329Y-110977514D01*
X132357298Y-111049097D01*
X133170395Y-110236000D01*
X133529605Y-110236000D01*
X134342702Y-111049097D01*
X134586671Y-110977514D01*
X134707571Y-110722004D01*
X134776300Y-110447816D01*
X134790217Y-110165488D01*
X134748787Y-109885870D01*
X134653603Y-109619708D01*
X134586671Y-109494486D01*
X134387340Y-109436000D01*
X135411928Y-109436000D01*
X135411928Y-111036000D01*
X135424188Y-111160482D01*
X135460498Y-111280180D01*
X135519463Y-111390494D01*
X135598815Y-111487185D01*
X135695506Y-111566537D01*
X135805820Y-111625502D01*
X135925518Y-111661812D01*
X136050000Y-111674072D01*
X137650000Y-111674072D01*
X137774482Y-111661812D01*
X137894180Y-111625502D01*
X138004494Y-111566537D01*
X138101185Y-111487185D01*
X138180537Y-111390494D01*
X138239502Y-111280180D01*
X138275812Y-111160482D01*
X138288072Y-111036000D01*
X138288072Y-109436000D01*
X138281290Y-109367137D01*
X140850200Y-109367137D01*
X140850200Y-109580863D01*
X140891896Y-109790483D01*
X140973685Y-109987940D01*
X141092425Y-110165647D01*
X141243553Y-110316775D01*
X141421260Y-110435515D01*
X141618717Y-110517304D01*
X141828337Y-110559000D01*
X142042063Y-110559000D01*
X142251683Y-110517304D01*
X142449140Y-110435515D01*
X142626847Y-110316775D01*
X142777975Y-110165647D01*
X142896715Y-109987940D01*
X142978504Y-109790483D01*
X143020200Y-109580863D01*
X143020200Y-109367137D01*
X142978504Y-109157517D01*
X142896715Y-108960060D01*
X142777975Y-108782353D01*
X142626847Y-108631225D01*
X142449140Y-108512485D01*
X142251683Y-108430696D01*
X142042063Y-108389000D01*
X141828337Y-108389000D01*
X141618717Y-108430696D01*
X141421260Y-108512485D01*
X141243553Y-108631225D01*
X141092425Y-108782353D01*
X140973685Y-108960060D01*
X140891896Y-109157517D01*
X140850200Y-109367137D01*
X138281290Y-109367137D01*
X138275812Y-109311518D01*
X138239502Y-109191820D01*
X138180537Y-109081506D01*
X138101185Y-108984815D01*
X138004494Y-108905463D01*
X137894180Y-108846498D01*
X137774482Y-108810188D01*
X137650000Y-108797928D01*
X136050000Y-108797928D01*
X135925518Y-108810188D01*
X135805820Y-108846498D01*
X135695506Y-108905463D01*
X135598815Y-108984815D01*
X135519463Y-109081506D01*
X135460498Y-109191820D01*
X135424188Y-109311518D01*
X135411928Y-109436000D01*
X134387340Y-109436000D01*
X134342702Y-109422903D01*
X133529605Y-110236000D01*
X133170395Y-110236000D01*
X132357298Y-109422903D01*
X132113329Y-109494486D01*
X131992429Y-109749996D01*
X131923700Y-110024184D01*
X131909783Y-110306512D01*
X113452000Y-110306512D01*
X113452000Y-109243298D01*
X132536903Y-109243298D01*
X133350000Y-110056395D01*
X134163097Y-109243298D01*
X134091514Y-108999329D01*
X133836004Y-108878429D01*
X133561816Y-108809700D01*
X133279488Y-108795783D01*
X132999870Y-108837213D01*
X132733708Y-108932397D01*
X132608486Y-108999329D01*
X132536903Y-109243298D01*
X113452000Y-109243298D01*
X113452000Y-106675000D01*
X113449560Y-106650224D01*
X113442333Y-106626399D01*
X113430597Y-106604443D01*
X113414803Y-106585197D01*
X113395557Y-106569403D01*
X113373601Y-106557667D01*
X113349776Y-106550440D01*
X113325000Y-106548000D01*
X109275000Y-106548000D01*
X109250224Y-106550440D01*
X109226399Y-106557667D01*
X109204443Y-106569403D01*
X109185197Y-106585197D01*
X109169403Y-106604443D01*
X109157667Y-106626399D01*
X109150440Y-106650224D01*
X109148000Y-106675000D01*
X109148000Y-111975314D01*
X109006483Y-111916696D01*
X108796863Y-111875000D01*
X108583137Y-111875000D01*
X108373517Y-111916696D01*
X108176060Y-111998485D01*
X107998353Y-112117225D01*
X107847225Y-112268353D01*
X107728485Y-112446060D01*
X107646696Y-112643517D01*
X107605000Y-112853137D01*
X107605000Y-112868702D01*
X107438460Y-112937685D01*
X107260753Y-113056425D01*
X107109625Y-113207553D01*
X106990885Y-113385260D01*
X106909096Y-113582717D01*
X106867400Y-113792337D01*
X102128600Y-113792337D01*
X102086904Y-113582717D01*
X102005115Y-113385260D01*
X101886375Y-113207553D01*
X101735247Y-113056425D01*
X101557540Y-112937685D01*
X101360083Y-112855896D01*
X101150463Y-112814200D01*
X100936737Y-112814200D01*
X100727117Y-112855896D01*
X100529660Y-112937685D01*
X100351953Y-113056425D01*
X100200825Y-113207553D01*
X100082085Y-113385260D01*
X100000296Y-113582717D01*
X99958600Y-113792337D01*
X93459921Y-113792337D01*
X93485000Y-113666260D01*
X93485000Y-113373740D01*
X93427932Y-113086842D01*
X93315990Y-112816589D01*
X93153475Y-112573368D01*
X92946632Y-112366525D01*
X92772240Y-112250000D01*
X92946632Y-112133475D01*
X93153475Y-111926632D01*
X93315990Y-111683411D01*
X93427932Y-111413158D01*
X93485000Y-111126260D01*
X93485000Y-110833740D01*
X93427932Y-110546842D01*
X93315990Y-110276589D01*
X93303510Y-110257911D01*
X98245000Y-110257911D01*
X98245000Y-110442089D01*
X98280932Y-110622729D01*
X98351414Y-110792889D01*
X98453738Y-110946028D01*
X98583972Y-111076262D01*
X98737111Y-111178586D01*
X98907271Y-111249068D01*
X99087911Y-111285000D01*
X99272089Y-111285000D01*
X99452729Y-111249068D01*
X99622889Y-111178586D01*
X99776028Y-111076262D01*
X99906262Y-110946028D01*
X100008586Y-110792889D01*
X100079068Y-110622729D01*
X100115000Y-110442089D01*
X100115000Y-110257911D01*
X100079068Y-110077271D01*
X100008586Y-109907111D01*
X99906262Y-109753972D01*
X99780201Y-109627911D01*
X101815000Y-109627911D01*
X101815000Y-109812089D01*
X101850932Y-109992729D01*
X101921414Y-110162889D01*
X102023738Y-110316028D01*
X102153972Y-110446262D01*
X102307111Y-110548586D01*
X102477271Y-110619068D01*
X102657911Y-110655000D01*
X102842089Y-110655000D01*
X103022729Y-110619068D01*
X103192889Y-110548586D01*
X103346028Y-110446262D01*
X103359093Y-110433197D01*
X103368066Y-110478308D01*
X103449855Y-110675765D01*
X103568595Y-110853472D01*
X103719723Y-111004600D01*
X103897430Y-111123340D01*
X104094887Y-111205129D01*
X104274216Y-111240800D01*
X104244757Y-111284889D01*
X104162968Y-111482346D01*
X104121272Y-111691966D01*
X104121272Y-111905692D01*
X104162968Y-112115312D01*
X104244757Y-112312769D01*
X104363497Y-112490476D01*
X104514625Y-112641604D01*
X104692332Y-112760344D01*
X104889789Y-112842133D01*
X105099409Y-112883829D01*
X105313135Y-112883829D01*
X105522755Y-112842133D01*
X105720212Y-112760344D01*
X105897919Y-112641604D01*
X106049047Y-112490476D01*
X106167787Y-112312769D01*
X106249576Y-112115312D01*
X106291272Y-111905692D01*
X106291272Y-111691966D01*
X106249576Y-111482346D01*
X106167787Y-111284889D01*
X106049047Y-111107182D01*
X105897919Y-110956054D01*
X105720212Y-110837314D01*
X105522755Y-110755525D01*
X105343426Y-110719854D01*
X105372885Y-110675765D01*
X105411704Y-110582048D01*
X105606483Y-110543304D01*
X105803940Y-110461515D01*
X105981647Y-110342775D01*
X106132775Y-110191647D01*
X106251515Y-110013940D01*
X106333304Y-109816483D01*
X106375000Y-109606863D01*
X106375000Y-109393137D01*
X106333304Y-109183517D01*
X106251515Y-108986060D01*
X106132775Y-108808353D01*
X105981647Y-108657225D01*
X105803940Y-108538485D01*
X105606483Y-108456696D01*
X105396863Y-108415000D01*
X105183137Y-108415000D01*
X104973517Y-108456696D01*
X104776060Y-108538485D01*
X104598353Y-108657225D01*
X104447225Y-108808353D01*
X104328485Y-108986060D01*
X104289666Y-109079777D01*
X104094887Y-109118521D01*
X103897430Y-109200310D01*
X103719723Y-109319050D01*
X103632207Y-109406566D01*
X103578586Y-109277111D01*
X103476262Y-109123972D01*
X103346028Y-108993738D01*
X103192889Y-108891414D01*
X103022729Y-108820932D01*
X102842089Y-108785000D01*
X102657911Y-108785000D01*
X102477271Y-108820932D01*
X102307111Y-108891414D01*
X102153972Y-108993738D01*
X102023738Y-109123972D01*
X101921414Y-109277111D01*
X101850932Y-109447271D01*
X101815000Y-109627911D01*
X99780201Y-109627911D01*
X99776028Y-109623738D01*
X99622889Y-109521414D01*
X99452729Y-109450932D01*
X99272089Y-109415000D01*
X99087911Y-109415000D01*
X98907271Y-109450932D01*
X98737111Y-109521414D01*
X98583972Y-109623738D01*
X98453738Y-109753972D01*
X98351414Y-109907111D01*
X98280932Y-110077271D01*
X98245000Y-110257911D01*
X93303510Y-110257911D01*
X93153475Y-110033368D01*
X92946632Y-109826525D01*
X92772240Y-109710000D01*
X92946632Y-109593475D01*
X93153475Y-109386632D01*
X93315990Y-109143411D01*
X93427932Y-108873158D01*
X93485000Y-108586260D01*
X93485000Y-108293740D01*
X93427932Y-108006842D01*
X93315990Y-107736589D01*
X93153475Y-107493368D01*
X92946632Y-107286525D01*
X92772240Y-107170000D01*
X92946632Y-107053475D01*
X93153475Y-106846632D01*
X93315990Y-106603411D01*
X93400245Y-106400000D01*
X119761928Y-106400000D01*
X119761928Y-108000000D01*
X119774188Y-108124482D01*
X119810498Y-108244180D01*
X119869463Y-108354494D01*
X119948815Y-108451185D01*
X120045506Y-108530537D01*
X120155820Y-108589502D01*
X120275518Y-108625812D01*
X120400000Y-108638072D01*
X122000000Y-108638072D01*
X122124482Y-108625812D01*
X122244180Y-108589502D01*
X122354494Y-108530537D01*
X122451185Y-108451185D01*
X122530537Y-108354494D01*
X122589502Y-108244180D01*
X122605117Y-108192702D01*
X123886903Y-108192702D01*
X123958486Y-108436671D01*
X124213996Y-108557571D01*
X124488184Y-108626300D01*
X124770512Y-108640217D01*
X125050130Y-108598787D01*
X125316292Y-108503603D01*
X125441514Y-108436671D01*
X125513097Y-108192702D01*
X124700000Y-107379605D01*
X123886903Y-108192702D01*
X122605117Y-108192702D01*
X122625812Y-108124482D01*
X122638072Y-108000000D01*
X122638072Y-107270512D01*
X123259783Y-107270512D01*
X123301213Y-107550130D01*
X123396397Y-107816292D01*
X123463329Y-107941514D01*
X123707298Y-108013097D01*
X124520395Y-107200000D01*
X124879605Y-107200000D01*
X125692702Y-108013097D01*
X125936671Y-107941514D01*
X126057571Y-107686004D01*
X126126300Y-107411816D01*
X126140217Y-107129488D01*
X126098787Y-106849870D01*
X126003603Y-106583708D01*
X125936671Y-106458486D01*
X125692702Y-106386903D01*
X124879605Y-107200000D01*
X124520395Y-107200000D01*
X123707298Y-106386903D01*
X123463329Y-106458486D01*
X123342429Y-106713996D01*
X123273700Y-106988184D01*
X123259783Y-107270512D01*
X122638072Y-107270512D01*
X122638072Y-106400000D01*
X122625812Y-106275518D01*
X122605118Y-106207298D01*
X123886903Y-106207298D01*
X124700000Y-107020395D01*
X125513097Y-106207298D01*
X125441514Y-105963329D01*
X125186004Y-105842429D01*
X124911816Y-105773700D01*
X124629488Y-105759783D01*
X124349870Y-105801213D01*
X124083708Y-105896397D01*
X123958486Y-105963329D01*
X123886903Y-106207298D01*
X122605118Y-106207298D01*
X122589502Y-106155820D01*
X122530537Y-106045506D01*
X122451185Y-105948815D01*
X122354494Y-105869463D01*
X122244180Y-105810498D01*
X122124482Y-105774188D01*
X122000000Y-105761928D01*
X120400000Y-105761928D01*
X120275518Y-105774188D01*
X120155820Y-105810498D01*
X120045506Y-105869463D01*
X119948815Y-105948815D01*
X119869463Y-106045506D01*
X119810498Y-106155820D01*
X119774188Y-106275518D01*
X119761928Y-106400000D01*
X93400245Y-106400000D01*
X93427932Y-106333158D01*
X93485000Y-106046260D01*
X93485000Y-105753740D01*
X93427932Y-105466842D01*
X93315990Y-105196589D01*
X93153475Y-104953368D01*
X92946632Y-104746525D01*
X92772240Y-104630000D01*
X92946632Y-104513475D01*
X93153475Y-104306632D01*
X93315990Y-104063411D01*
X93427932Y-103793158D01*
X93485000Y-103506260D01*
X93485000Y-103213740D01*
X93427932Y-102926842D01*
X93315990Y-102656589D01*
X93187265Y-102463937D01*
X104225800Y-102463937D01*
X104225800Y-102677663D01*
X104267496Y-102887283D01*
X104349285Y-103084740D01*
X104468025Y-103262447D01*
X104619153Y-103413575D01*
X104796860Y-103532315D01*
X104994317Y-103614104D01*
X105074103Y-103629974D01*
X105085604Y-103657739D01*
X105004096Y-103854517D01*
X104962400Y-104064137D01*
X104962400Y-104277863D01*
X105004096Y-104487483D01*
X105085885Y-104684940D01*
X105204625Y-104862647D01*
X105355753Y-105013775D01*
X105533460Y-105132515D01*
X105730917Y-105214304D01*
X105940537Y-105256000D01*
X106154263Y-105256000D01*
X106363883Y-105214304D01*
X106561340Y-105132515D01*
X106739047Y-105013775D01*
X106890175Y-104862647D01*
X107008915Y-104684940D01*
X107090704Y-104487483D01*
X107132400Y-104277863D01*
X107132400Y-104064137D01*
X107090704Y-103854517D01*
X107034596Y-103719061D01*
X107116104Y-103522283D01*
X107157800Y-103312663D01*
X107157800Y-103098937D01*
X107116864Y-102893137D01*
X116165000Y-102893137D01*
X116165000Y-103106863D01*
X116206696Y-103316483D01*
X116288485Y-103513940D01*
X116407225Y-103691647D01*
X116558353Y-103842775D01*
X116736060Y-103961515D01*
X116933517Y-104043304D01*
X117143137Y-104085000D01*
X117356863Y-104085000D01*
X117566483Y-104043304D01*
X117763940Y-103961515D01*
X117941647Y-103842775D01*
X118092775Y-103691647D01*
X118211515Y-103513940D01*
X118293304Y-103316483D01*
X118335000Y-103106863D01*
X118335000Y-102893137D01*
X118293304Y-102683517D01*
X118214447Y-102493137D01*
X129515000Y-102493137D01*
X129515000Y-102706863D01*
X129556696Y-102916483D01*
X129638485Y-103113940D01*
X129757225Y-103291647D01*
X129908353Y-103442775D01*
X130086060Y-103561515D01*
X130283517Y-103643304D01*
X130493137Y-103685000D01*
X130706863Y-103685000D01*
X130916483Y-103643304D01*
X131113940Y-103561515D01*
X131291647Y-103442775D01*
X131442775Y-103291647D01*
X131561515Y-103113940D01*
X131643304Y-102916483D01*
X131685000Y-102706863D01*
X131685000Y-102493137D01*
X131643304Y-102283517D01*
X131561515Y-102086060D01*
X131487308Y-101975000D01*
X141284388Y-101975000D01*
X141306785Y-102202400D01*
X141373115Y-102421060D01*
X141480829Y-102622579D01*
X141625788Y-102799212D01*
X141802421Y-102944171D01*
X142003940Y-103051885D01*
X142222600Y-103118215D01*
X142393021Y-103135000D01*
X142706979Y-103135000D01*
X142877400Y-103118215D01*
X143096060Y-103051885D01*
X143297579Y-102944171D01*
X143474212Y-102799212D01*
X143619171Y-102622579D01*
X143726885Y-102421060D01*
X143793215Y-102202400D01*
X143815612Y-101975000D01*
X143793215Y-101747600D01*
X143726885Y-101528940D01*
X143619171Y-101327421D01*
X143474212Y-101150788D01*
X143297579Y-101005829D01*
X143096060Y-100898115D01*
X142877400Y-100831785D01*
X142706979Y-100815000D01*
X142393021Y-100815000D01*
X142222600Y-100831785D01*
X142003940Y-100898115D01*
X141802421Y-101005829D01*
X141625788Y-101150788D01*
X141480829Y-101327421D01*
X141373115Y-101528940D01*
X141306785Y-101747600D01*
X141284388Y-101975000D01*
X131487308Y-101975000D01*
X131442775Y-101908353D01*
X131291647Y-101757225D01*
X131113940Y-101638485D01*
X130916483Y-101556696D01*
X130706863Y-101515000D01*
X130493137Y-101515000D01*
X130283517Y-101556696D01*
X130086060Y-101638485D01*
X129908353Y-101757225D01*
X129757225Y-101908353D01*
X129638485Y-102086060D01*
X129556696Y-102283517D01*
X129515000Y-102493137D01*
X118214447Y-102493137D01*
X118211515Y-102486060D01*
X118092775Y-102308353D01*
X117941647Y-102157225D01*
X117763940Y-102038485D01*
X117566483Y-101956696D01*
X117356863Y-101915000D01*
X117143137Y-101915000D01*
X116933517Y-101956696D01*
X116736060Y-102038485D01*
X116558353Y-102157225D01*
X116407225Y-102308353D01*
X116288485Y-102486060D01*
X116206696Y-102683517D01*
X116165000Y-102893137D01*
X107116864Y-102893137D01*
X107116104Y-102889317D01*
X107034315Y-102691860D01*
X106915575Y-102514153D01*
X106764447Y-102363025D01*
X106586740Y-102244285D01*
X106389283Y-102162496D01*
X106309497Y-102146626D01*
X106272315Y-102056860D01*
X106153575Y-101879153D01*
X106002447Y-101728025D01*
X105824740Y-101609285D01*
X105627283Y-101527496D01*
X105417663Y-101485800D01*
X105203937Y-101485800D01*
X104994317Y-101527496D01*
X104796860Y-101609285D01*
X104619153Y-101728025D01*
X104468025Y-101879153D01*
X104349285Y-102056860D01*
X104267496Y-102254317D01*
X104225800Y-102463937D01*
X93187265Y-102463937D01*
X93153475Y-102413368D01*
X92946632Y-102206525D01*
X92772240Y-102090000D01*
X92946632Y-101973475D01*
X93153475Y-101766632D01*
X93315990Y-101523411D01*
X93427932Y-101253158D01*
X93485000Y-100966260D01*
X93485000Y-100673740D01*
X93427932Y-100386842D01*
X93315990Y-100116589D01*
X93153475Y-99873368D01*
X92946632Y-99666525D01*
X92772240Y-99550000D01*
X92946632Y-99433475D01*
X93153475Y-99226632D01*
X93315990Y-98983411D01*
X93427932Y-98713158D01*
X93485000Y-98426260D01*
X93485000Y-98223137D01*
X117955000Y-98223137D01*
X117955000Y-98436863D01*
X117996696Y-98646483D01*
X118078485Y-98843940D01*
X118197225Y-99021647D01*
X118348353Y-99172775D01*
X118526060Y-99291515D01*
X118723517Y-99373304D01*
X118933137Y-99415000D01*
X119146863Y-99415000D01*
X119356483Y-99373304D01*
X119553940Y-99291515D01*
X119731647Y-99172775D01*
X119882775Y-99021647D01*
X120001515Y-98843940D01*
X120083304Y-98646483D01*
X120125000Y-98436863D01*
X120125000Y-98223137D01*
X120088321Y-98038737D01*
X126448400Y-98038737D01*
X126448400Y-98252463D01*
X126490096Y-98462083D01*
X126548383Y-98602800D01*
X126490096Y-98743517D01*
X126448400Y-98953137D01*
X126448400Y-99166863D01*
X126490096Y-99376483D01*
X126571885Y-99573940D01*
X126690625Y-99751647D01*
X126841753Y-99902775D01*
X127019460Y-100021515D01*
X127216917Y-100103304D01*
X127426537Y-100145000D01*
X127640263Y-100145000D01*
X127849883Y-100103304D01*
X128047340Y-100021515D01*
X128225047Y-99902775D01*
X128376175Y-99751647D01*
X128418836Y-99687800D01*
X128453063Y-99687800D01*
X128662683Y-99646104D01*
X128860140Y-99564315D01*
X129037847Y-99445575D01*
X129188975Y-99294447D01*
X129307715Y-99116740D01*
X129352399Y-99008861D01*
X136658400Y-99008861D01*
X136658400Y-99212739D01*
X136698174Y-99412698D01*
X136776195Y-99601056D01*
X136889463Y-99770574D01*
X137033626Y-99914737D01*
X137203144Y-100028005D01*
X137391502Y-100106026D01*
X137591461Y-100145800D01*
X137795339Y-100145800D01*
X137995298Y-100106026D01*
X138183656Y-100028005D01*
X138353174Y-99914737D01*
X138497337Y-99770574D01*
X138610605Y-99601056D01*
X138688626Y-99412698D01*
X138728400Y-99212739D01*
X138728400Y-99008861D01*
X138688626Y-98808902D01*
X138610605Y-98620544D01*
X138497337Y-98451026D01*
X138353174Y-98306863D01*
X138183656Y-98193595D01*
X137995298Y-98115574D01*
X137795339Y-98075800D01*
X137591461Y-98075800D01*
X137391502Y-98115574D01*
X137203144Y-98193595D01*
X137033626Y-98306863D01*
X136889463Y-98451026D01*
X136776195Y-98620544D01*
X136698174Y-98808902D01*
X136658400Y-99008861D01*
X129352399Y-99008861D01*
X129389504Y-98919283D01*
X129431200Y-98709663D01*
X129431200Y-98495937D01*
X129389504Y-98286317D01*
X129307715Y-98088860D01*
X129188975Y-97911153D01*
X129037847Y-97760025D01*
X128860140Y-97641285D01*
X128662683Y-97559496D01*
X128453063Y-97517800D01*
X128418836Y-97517800D01*
X128376175Y-97453953D01*
X128225047Y-97302825D01*
X128047340Y-97184085D01*
X127849883Y-97102296D01*
X127640263Y-97060600D01*
X127426537Y-97060600D01*
X127216917Y-97102296D01*
X127019460Y-97184085D01*
X126841753Y-97302825D01*
X126690625Y-97453953D01*
X126571885Y-97631660D01*
X126490096Y-97829117D01*
X126448400Y-98038737D01*
X120088321Y-98038737D01*
X120083304Y-98013517D01*
X120001515Y-97816060D01*
X119882775Y-97638353D01*
X119731647Y-97487225D01*
X119553940Y-97368485D01*
X119356483Y-97286696D01*
X119146863Y-97245000D01*
X118933137Y-97245000D01*
X118723517Y-97286696D01*
X118526060Y-97368485D01*
X118348353Y-97487225D01*
X118197225Y-97638353D01*
X118078485Y-97816060D01*
X117996696Y-98013517D01*
X117955000Y-98223137D01*
X93485000Y-98223137D01*
X93485000Y-98133740D01*
X93427932Y-97846842D01*
X93315990Y-97576589D01*
X93153475Y-97333368D01*
X93021620Y-97201513D01*
X93094180Y-97179502D01*
X93204494Y-97120537D01*
X93301185Y-97041185D01*
X93380537Y-96944494D01*
X93439502Y-96834180D01*
X93465565Y-96748261D01*
X136602818Y-96748261D01*
X136602818Y-96952139D01*
X136642592Y-97152098D01*
X136720613Y-97340456D01*
X136833881Y-97509974D01*
X136978044Y-97654137D01*
X137147562Y-97767405D01*
X137335920Y-97845426D01*
X137535879Y-97885200D01*
X137739757Y-97885200D01*
X137939716Y-97845426D01*
X138128074Y-97767405D01*
X138297592Y-97654137D01*
X138441755Y-97509974D01*
X138555023Y-97340456D01*
X138633044Y-97152098D01*
X138672818Y-96952139D01*
X138672818Y-96748261D01*
X138633044Y-96548302D01*
X138555023Y-96359944D01*
X138441755Y-96190426D01*
X138297592Y-96046263D01*
X138128074Y-95932995D01*
X137939716Y-95854974D01*
X137739757Y-95815200D01*
X137535879Y-95815200D01*
X137335920Y-95854974D01*
X137147562Y-95932995D01*
X136978044Y-96046263D01*
X136833881Y-96190426D01*
X136720613Y-96359944D01*
X136642592Y-96548302D01*
X136602818Y-96748261D01*
X93465565Y-96748261D01*
X93475812Y-96714482D01*
X93488072Y-96590000D01*
X93488072Y-94890000D01*
X93475812Y-94765518D01*
X93439502Y-94645820D01*
X93380537Y-94535506D01*
X93301185Y-94438815D01*
X93204494Y-94359463D01*
X93094180Y-94300498D01*
X92974482Y-94264188D01*
X92850000Y-94251928D01*
X91150000Y-94251928D01*
X91025518Y-94264188D01*
X90905820Y-94300498D01*
X90795506Y-94359463D01*
X90698815Y-94438815D01*
X90619463Y-94535506D01*
X90560498Y-94645820D01*
X90524188Y-94765518D01*
X90511928Y-94890000D01*
X87660000Y-94890000D01*
X87660000Y-92614155D01*
X89265450Y-92614155D01*
X89661634Y-93134550D01*
X90376612Y-93524748D01*
X91153976Y-93767964D01*
X91963853Y-93854851D01*
X92775118Y-93782069D01*
X93556597Y-93552415D01*
X94278256Y-93174715D01*
X94338366Y-93134550D01*
X94734550Y-92614155D01*
X139265450Y-92614155D01*
X139661634Y-93134550D01*
X140376612Y-93524748D01*
X141153976Y-93767964D01*
X141963853Y-93854851D01*
X142775118Y-93782069D01*
X143556597Y-93552415D01*
X144278256Y-93174715D01*
X144338366Y-93134550D01*
X144734550Y-92614155D01*
X142000000Y-89879605D01*
X139265450Y-92614155D01*
X94734550Y-92614155D01*
X92000000Y-89879605D01*
X89265450Y-92614155D01*
X87660000Y-92614155D01*
X87660000Y-89729392D01*
X87665849Y-89663853D01*
X87845149Y-89663853D01*
X87917931Y-90475118D01*
X88147585Y-91256597D01*
X88525285Y-91978256D01*
X88565450Y-92038366D01*
X89085845Y-92434550D01*
X91820395Y-89700000D01*
X92179605Y-89700000D01*
X94914155Y-92434550D01*
X95434550Y-92038366D01*
X95824748Y-91323388D01*
X96067964Y-90546024D01*
X96154851Y-89736147D01*
X96082069Y-88924882D01*
X96060064Y-88850000D01*
X96926928Y-88850000D01*
X96926928Y-90550000D01*
X96939188Y-90674482D01*
X96975498Y-90794180D01*
X97034463Y-90904494D01*
X97113815Y-91001185D01*
X97210506Y-91080537D01*
X97320820Y-91139502D01*
X97440518Y-91175812D01*
X97565000Y-91188072D01*
X99265000Y-91188072D01*
X99389482Y-91175812D01*
X99509180Y-91139502D01*
X99619494Y-91080537D01*
X99716185Y-91001185D01*
X99795537Y-90904494D01*
X99854502Y-90794180D01*
X99876513Y-90721620D01*
X100008368Y-90853475D01*
X100251589Y-91015990D01*
X100521842Y-91127932D01*
X100808740Y-91185000D01*
X101101260Y-91185000D01*
X101388158Y-91127932D01*
X101658411Y-91015990D01*
X101901632Y-90853475D01*
X102108475Y-90646632D01*
X102230195Y-90464466D01*
X102299822Y-90581355D01*
X102494731Y-90797588D01*
X102728080Y-90971641D01*
X102990901Y-91096825D01*
X103138110Y-91141476D01*
X103368000Y-91020155D01*
X103368000Y-89827000D01*
X103348000Y-89827000D01*
X103348000Y-89573000D01*
X103368000Y-89573000D01*
X103368000Y-88379845D01*
X103622000Y-88379845D01*
X103622000Y-89573000D01*
X103642000Y-89573000D01*
X103642000Y-89827000D01*
X103622000Y-89827000D01*
X103622000Y-91020155D01*
X103851890Y-91141476D01*
X103999099Y-91096825D01*
X104261920Y-90971641D01*
X104495269Y-90797588D01*
X104690178Y-90581355D01*
X104759805Y-90464466D01*
X104881525Y-90646632D01*
X105088368Y-90853475D01*
X105331589Y-91015990D01*
X105601842Y-91127932D01*
X105888740Y-91185000D01*
X106181260Y-91185000D01*
X106468158Y-91127932D01*
X106738411Y-91015990D01*
X106981632Y-90853475D01*
X107188475Y-90646632D01*
X107350990Y-90403411D01*
X107462932Y-90133158D01*
X107520000Y-89846260D01*
X107520000Y-89553740D01*
X107516022Y-89533740D01*
X109635000Y-89533740D01*
X109635000Y-89826260D01*
X109692068Y-90113158D01*
X109804010Y-90383411D01*
X109966525Y-90626632D01*
X110173368Y-90833475D01*
X110416589Y-90995990D01*
X110686842Y-91107932D01*
X110973740Y-91165000D01*
X111266260Y-91165000D01*
X111553158Y-91107932D01*
X111823411Y-90995990D01*
X112066632Y-90833475D01*
X112198487Y-90701620D01*
X112220498Y-90774180D01*
X112279463Y-90884494D01*
X112358815Y-90981185D01*
X112455506Y-91060537D01*
X112565820Y-91119502D01*
X112685518Y-91155812D01*
X112810000Y-91168072D01*
X114510000Y-91168072D01*
X114634482Y-91155812D01*
X114754180Y-91119502D01*
X114864494Y-91060537D01*
X114961185Y-90981185D01*
X115040537Y-90884494D01*
X115099502Y-90774180D01*
X115135812Y-90654482D01*
X115148072Y-90530000D01*
X115148072Y-90469537D01*
X123984600Y-90469537D01*
X123984600Y-90683263D01*
X124026296Y-90892883D01*
X124089843Y-91046300D01*
X124026296Y-91199717D01*
X123984600Y-91409337D01*
X123984600Y-91623063D01*
X124026296Y-91832683D01*
X124108085Y-92030140D01*
X124226825Y-92207847D01*
X124377953Y-92358975D01*
X124555660Y-92477715D01*
X124753117Y-92559504D01*
X124962737Y-92601200D01*
X125176463Y-92601200D01*
X125386083Y-92559504D01*
X125539500Y-92495957D01*
X125692917Y-92559504D01*
X125902537Y-92601200D01*
X126116263Y-92601200D01*
X126325883Y-92559504D01*
X126523340Y-92477715D01*
X126701047Y-92358975D01*
X126852175Y-92207847D01*
X126970915Y-92030140D01*
X127052704Y-91832683D01*
X127094400Y-91623063D01*
X127094400Y-91409337D01*
X127052704Y-91199717D01*
X126989157Y-91046300D01*
X127052704Y-90892883D01*
X127094400Y-90683263D01*
X127094400Y-90469537D01*
X127052704Y-90259917D01*
X126970915Y-90062460D01*
X126852175Y-89884753D01*
X126701047Y-89733625D01*
X126596626Y-89663853D01*
X137845149Y-89663853D01*
X137917931Y-90475118D01*
X138147585Y-91256597D01*
X138525285Y-91978256D01*
X138565450Y-92038366D01*
X139085845Y-92434550D01*
X141820395Y-89700000D01*
X142179605Y-89700000D01*
X144914155Y-92434550D01*
X145434550Y-92038366D01*
X145824748Y-91323388D01*
X146067964Y-90546024D01*
X146154851Y-89736147D01*
X146082069Y-88924882D01*
X145852415Y-88143403D01*
X145474715Y-87421744D01*
X145434550Y-87361634D01*
X144914155Y-86965450D01*
X142179605Y-89700000D01*
X141820395Y-89700000D01*
X139085845Y-86965450D01*
X138565450Y-87361634D01*
X138175252Y-88076612D01*
X137932036Y-88853976D01*
X137845149Y-89663853D01*
X126596626Y-89663853D01*
X126523340Y-89614885D01*
X126325883Y-89533096D01*
X126116263Y-89491400D01*
X125902537Y-89491400D01*
X125692917Y-89533096D01*
X125539500Y-89596643D01*
X125386083Y-89533096D01*
X125176463Y-89491400D01*
X124962737Y-89491400D01*
X124753117Y-89533096D01*
X124555660Y-89614885D01*
X124377953Y-89733625D01*
X124226825Y-89884753D01*
X124108085Y-90062460D01*
X124026296Y-90259917D01*
X123984600Y-90469537D01*
X115148072Y-90469537D01*
X115148072Y-88830000D01*
X115135812Y-88705518D01*
X115099502Y-88585820D01*
X115040537Y-88475506D01*
X114961185Y-88378815D01*
X114864494Y-88299463D01*
X114754180Y-88240498D01*
X114634482Y-88204188D01*
X114510000Y-88191928D01*
X112810000Y-88191928D01*
X112685518Y-88204188D01*
X112565820Y-88240498D01*
X112455506Y-88299463D01*
X112358815Y-88378815D01*
X112279463Y-88475506D01*
X112220498Y-88585820D01*
X112198487Y-88658380D01*
X112066632Y-88526525D01*
X111823411Y-88364010D01*
X111553158Y-88252068D01*
X111266260Y-88195000D01*
X110973740Y-88195000D01*
X110686842Y-88252068D01*
X110416589Y-88364010D01*
X110173368Y-88526525D01*
X109966525Y-88733368D01*
X109804010Y-88976589D01*
X109692068Y-89246842D01*
X109635000Y-89533740D01*
X107516022Y-89533740D01*
X107462932Y-89266842D01*
X107350990Y-88996589D01*
X107188475Y-88753368D01*
X106981632Y-88546525D01*
X106738411Y-88384010D01*
X106468158Y-88272068D01*
X106181260Y-88215000D01*
X105888740Y-88215000D01*
X105601842Y-88272068D01*
X105331589Y-88384010D01*
X105088368Y-88546525D01*
X104881525Y-88753368D01*
X104759805Y-88935534D01*
X104690178Y-88818645D01*
X104495269Y-88602412D01*
X104261920Y-88428359D01*
X103999099Y-88303175D01*
X103851890Y-88258524D01*
X103622000Y-88379845D01*
X103368000Y-88379845D01*
X103138110Y-88258524D01*
X102990901Y-88303175D01*
X102728080Y-88428359D01*
X102494731Y-88602412D01*
X102299822Y-88818645D01*
X102230195Y-88935534D01*
X102108475Y-88753368D01*
X101901632Y-88546525D01*
X101658411Y-88384010D01*
X101388158Y-88272068D01*
X101101260Y-88215000D01*
X100808740Y-88215000D01*
X100521842Y-88272068D01*
X100251589Y-88384010D01*
X100008368Y-88546525D01*
X99876513Y-88678380D01*
X99854502Y-88605820D01*
X99795537Y-88495506D01*
X99716185Y-88398815D01*
X99619494Y-88319463D01*
X99509180Y-88260498D01*
X99389482Y-88224188D01*
X99265000Y-88211928D01*
X97565000Y-88211928D01*
X97440518Y-88224188D01*
X97320820Y-88260498D01*
X97210506Y-88319463D01*
X97113815Y-88398815D01*
X97034463Y-88495506D01*
X96975498Y-88605820D01*
X96939188Y-88725518D01*
X96926928Y-88850000D01*
X96060064Y-88850000D01*
X95852415Y-88143403D01*
X95474715Y-87421744D01*
X95434550Y-87361634D01*
X94914155Y-86965450D01*
X92179605Y-89700000D01*
X91820395Y-89700000D01*
X89085845Y-86965450D01*
X88565450Y-87361634D01*
X88175252Y-88076612D01*
X87932036Y-88853976D01*
X87845149Y-89663853D01*
X87665849Y-89663853D01*
X87731173Y-88931917D01*
X87934656Y-88188109D01*
X88266638Y-87492095D01*
X88716626Y-86865870D01*
X88799205Y-86785845D01*
X89265450Y-86785845D01*
X92000000Y-89520395D01*
X94734550Y-86785845D01*
X139265450Y-86785845D01*
X142000000Y-89520395D01*
X144734550Y-86785845D01*
X144338366Y-86265450D01*
X143623388Y-85875252D01*
X142846024Y-85632036D01*
X142036147Y-85545149D01*
X141224882Y-85617931D01*
X140443403Y-85847585D01*
X139721744Y-86225285D01*
X139661634Y-86265450D01*
X139265450Y-86785845D01*
X94734550Y-86785845D01*
X94338366Y-86265450D01*
X93623388Y-85875252D01*
X92846024Y-85632036D01*
X92036147Y-85545149D01*
X91224882Y-85617931D01*
X90443403Y-85847585D01*
X89721744Y-86225285D01*
X89661634Y-86265450D01*
X89265450Y-86785845D01*
X88799205Y-86785845D01*
X89270403Y-86329223D01*
X89910451Y-85899129D01*
X90616553Y-85589171D01*
X91371457Y-85407935D01*
X92024207Y-85360000D01*
X141970608Y-85360000D01*
X142768083Y-85431173D01*
G37*
X142768083Y-85431173D02*
X143511891Y-85634656D01*
X144207905Y-85966638D01*
X144834130Y-86416626D01*
X145370777Y-86970403D01*
X145800871Y-87610451D01*
X146110829Y-88316553D01*
X146292065Y-89071457D01*
X146340001Y-89724220D01*
X146340000Y-94492067D01*
X146222499Y-94456423D01*
X146055752Y-94440000D01*
X145044248Y-94440000D01*
X144877501Y-94456423D01*
X144663553Y-94521324D01*
X144466377Y-94626716D01*
X144293551Y-94768551D01*
X144151716Y-94941377D01*
X144046324Y-95138553D01*
X143981423Y-95352501D01*
X143959509Y-95575000D01*
X143970720Y-95688833D01*
X143967539Y-95688200D01*
X143763661Y-95688200D01*
X143563702Y-95727974D01*
X143375344Y-95805995D01*
X143205826Y-95919263D01*
X143061663Y-96063426D01*
X142948395Y-96232944D01*
X142885700Y-96384303D01*
X142877400Y-96381785D01*
X142706979Y-96365000D01*
X142393021Y-96365000D01*
X142222600Y-96381785D01*
X142003940Y-96448115D01*
X141802421Y-96555829D01*
X141625788Y-96700788D01*
X141480829Y-96877421D01*
X141373115Y-97078940D01*
X141306785Y-97297600D01*
X141284388Y-97525000D01*
X141306785Y-97752400D01*
X141373115Y-97971060D01*
X141480829Y-98172579D01*
X141625788Y-98349212D01*
X141802421Y-98494171D01*
X142003940Y-98601885D01*
X142222600Y-98668215D01*
X142393021Y-98685000D01*
X142706979Y-98685000D01*
X142877400Y-98668215D01*
X143096060Y-98601885D01*
X143168878Y-98562963D01*
X143133800Y-98739311D01*
X143133800Y-98923489D01*
X143169732Y-99104129D01*
X143183016Y-99136200D01*
X143169732Y-99168271D01*
X143133800Y-99348911D01*
X143133800Y-99533089D01*
X143169732Y-99713729D01*
X143240214Y-99883889D01*
X143342538Y-100037028D01*
X143472772Y-100167262D01*
X143625911Y-100269586D01*
X143796071Y-100340068D01*
X143976711Y-100376000D01*
X144160889Y-100376000D01*
X144341529Y-100340068D01*
X144511689Y-100269586D01*
X144664828Y-100167262D01*
X144795062Y-100037028D01*
X144897386Y-99883889D01*
X144967868Y-99713729D01*
X145003800Y-99533089D01*
X145003800Y-99348911D01*
X144967868Y-99168271D01*
X144954584Y-99136200D01*
X144967868Y-99104129D01*
X145003800Y-98923489D01*
X145003800Y-98739311D01*
X144967868Y-98558671D01*
X144897386Y-98388511D01*
X144856101Y-98326723D01*
X144859810Y-98329263D01*
X144868223Y-98333812D01*
X144941459Y-98372752D01*
X144998866Y-98396413D01*
X145055920Y-98420867D01*
X145065054Y-98423694D01*
X145065061Y-98423697D01*
X145065069Y-98423699D01*
X145144461Y-98447669D01*
X145205337Y-98459723D01*
X145266095Y-98472637D01*
X145275607Y-98473637D01*
X145358157Y-98481731D01*
X145358163Y-98481731D01*
X145391353Y-98485000D01*
X146315001Y-98485000D01*
X146315000Y-101015000D01*
X145391353Y-101015000D01*
X145357737Y-101018311D01*
X145352220Y-101018311D01*
X145342708Y-101019310D01*
X145307523Y-101023257D01*
X145290717Y-101024912D01*
X145289515Y-101025277D01*
X145260280Y-101028556D01*
X145199514Y-101041472D01*
X145138654Y-101053523D01*
X145129518Y-101056351D01*
X145129512Y-101056352D01*
X145129507Y-101056354D01*
X145050454Y-101081431D01*
X144993382Y-101105892D01*
X144935984Y-101129550D01*
X144927578Y-101134095D01*
X144927575Y-101134096D01*
X144927573Y-101134097D01*
X144927570Y-101134099D01*
X144854884Y-101174059D01*
X144803653Y-101209138D01*
X144751951Y-101243489D01*
X144744581Y-101249585D01*
X144681041Y-101302901D01*
X144637602Y-101347259D01*
X144593546Y-101391009D01*
X144587501Y-101398421D01*
X144535527Y-101463064D01*
X144501542Y-101514999D01*
X144466816Y-101566483D01*
X144462326Y-101574928D01*
X144423898Y-101648434D01*
X144400640Y-101705999D01*
X144376582Y-101763232D01*
X144373817Y-101772388D01*
X144350398Y-101851959D01*
X144338760Y-101912969D01*
X144326281Y-101973758D01*
X144325347Y-101983276D01*
X144317830Y-102065880D01*
X144318263Y-102127968D01*
X144317830Y-102190057D01*
X144318763Y-102199576D01*
X144327434Y-102282066D01*
X144339920Y-102342891D01*
X144351550Y-102403857D01*
X144354314Y-102413013D01*
X144378841Y-102492249D01*
X144402894Y-102549469D01*
X144426159Y-102607052D01*
X144430649Y-102615497D01*
X144470100Y-102688460D01*
X144504821Y-102739936D01*
X144538810Y-102791877D01*
X144544854Y-102799289D01*
X144597726Y-102863200D01*
X144626078Y-102891355D01*
X144466377Y-102976716D01*
X144293551Y-103118551D01*
X144151716Y-103291377D01*
X144046324Y-103488553D01*
X143981423Y-103702501D01*
X143959509Y-103925000D01*
X143981423Y-104147499D01*
X144046324Y-104361447D01*
X144151716Y-104558623D01*
X144293551Y-104731449D01*
X144466377Y-104873284D01*
X144663553Y-104978676D01*
X144877501Y-105043577D01*
X145044248Y-105060000D01*
X146055752Y-105060000D01*
X146222499Y-105043577D01*
X146340001Y-105007933D01*
X146340000Y-124670608D01*
X146268827Y-125468083D01*
X146065344Y-126211890D01*
X145733363Y-126907904D01*
X145283374Y-127534130D01*
X144729597Y-128070777D01*
X144089549Y-128500871D01*
X143383447Y-128810829D01*
X142628543Y-128992065D01*
X141975793Y-129040000D01*
X92029392Y-129040000D01*
X91231917Y-128968827D01*
X90488110Y-128765344D01*
X89792096Y-128433363D01*
X89165870Y-127983374D01*
X88808073Y-127614155D01*
X89265450Y-127614155D01*
X89661634Y-128134550D01*
X90376612Y-128524748D01*
X91153976Y-128767964D01*
X91963853Y-128854851D01*
X92775118Y-128782069D01*
X93556597Y-128552415D01*
X94278256Y-128174715D01*
X94338366Y-128134550D01*
X94734550Y-127614155D01*
X139265450Y-127614155D01*
X139661634Y-128134550D01*
X140376612Y-128524748D01*
X141153976Y-128767964D01*
X141963853Y-128854851D01*
X142775118Y-128782069D01*
X143556597Y-128552415D01*
X144278256Y-128174715D01*
X144338366Y-128134550D01*
X144734550Y-127614155D01*
X142000000Y-124879605D01*
X139265450Y-127614155D01*
X94734550Y-127614155D01*
X92000000Y-124879605D01*
X89265450Y-127614155D01*
X88808073Y-127614155D01*
X88629223Y-127429597D01*
X88199129Y-126789549D01*
X87889171Y-126083447D01*
X87707935Y-125328543D01*
X87660000Y-124675793D01*
X87660000Y-124663853D01*
X87845149Y-124663853D01*
X87917931Y-125475118D01*
X88147585Y-126256597D01*
X88525285Y-126978256D01*
X88565450Y-127038366D01*
X89085845Y-127434550D01*
X91820395Y-124700000D01*
X92179605Y-124700000D01*
X94914155Y-127434550D01*
X95434550Y-127038366D01*
X95824748Y-126323388D01*
X96067964Y-125546024D01*
X96154851Y-124736147D01*
X96138487Y-124553740D01*
X101815000Y-124553740D01*
X101815000Y-124846260D01*
X101872068Y-125133158D01*
X101984010Y-125403411D01*
X102146525Y-125646632D01*
X102353368Y-125853475D01*
X102596589Y-126015990D01*
X102866842Y-126127932D01*
X103153740Y-126185000D01*
X103446260Y-126185000D01*
X103733158Y-126127932D01*
X104003411Y-126015990D01*
X104246632Y-125853475D01*
X104378487Y-125721620D01*
X104400498Y-125794180D01*
X104459463Y-125904494D01*
X104538815Y-126001185D01*
X104635506Y-126080537D01*
X104745820Y-126139502D01*
X104865518Y-126175812D01*
X104990000Y-126188072D01*
X106690000Y-126188072D01*
X106814482Y-126175812D01*
X106934180Y-126139502D01*
X107044494Y-126080537D01*
X107141185Y-126001185D01*
X107220537Y-125904494D01*
X107279502Y-125794180D01*
X107315812Y-125674482D01*
X107328072Y-125550000D01*
X107328072Y-124450173D01*
X118245000Y-124450173D01*
X118245000Y-124929827D01*
X118338576Y-125400263D01*
X118522131Y-125843405D01*
X118788612Y-126242222D01*
X119127778Y-126581388D01*
X119526595Y-126847869D01*
X119969737Y-127031424D01*
X120440173Y-127125000D01*
X120919827Y-127125000D01*
X121390263Y-127031424D01*
X121833405Y-126847869D01*
X122232222Y-126581388D01*
X122571388Y-126242222D01*
X122837869Y-125843405D01*
X123021424Y-125400263D01*
X123115000Y-124929827D01*
X123115000Y-124663853D01*
X137845149Y-124663853D01*
X137917931Y-125475118D01*
X138147585Y-126256597D01*
X138525285Y-126978256D01*
X138565450Y-127038366D01*
X139085845Y-127434550D01*
X141820395Y-124700000D01*
X142179605Y-124700000D01*
X144914155Y-127434550D01*
X145434550Y-127038366D01*
X145824748Y-126323388D01*
X146067964Y-125546024D01*
X146154851Y-124736147D01*
X146082069Y-123924882D01*
X145852415Y-123143403D01*
X145474715Y-122421744D01*
X145434550Y-122361634D01*
X144914155Y-121965450D01*
X142179605Y-124700000D01*
X141820395Y-124700000D01*
X139085845Y-121965450D01*
X138565450Y-122361634D01*
X138175252Y-123076612D01*
X137932036Y-123853976D01*
X137845149Y-124663853D01*
X123115000Y-124663853D01*
X123115000Y-124450173D01*
X123021424Y-123979737D01*
X122837869Y-123536595D01*
X122571388Y-123137778D01*
X122232222Y-122798612D01*
X122041742Y-122671337D01*
X125278400Y-122671337D01*
X125278400Y-122885063D01*
X125320096Y-123094683D01*
X125401885Y-123292140D01*
X125520625Y-123469847D01*
X125671753Y-123620975D01*
X125849460Y-123739715D01*
X126046917Y-123821504D01*
X126256537Y-123863200D01*
X126470263Y-123863200D01*
X126679883Y-123821504D01*
X126877340Y-123739715D01*
X127055047Y-123620975D01*
X127206175Y-123469847D01*
X127324915Y-123292140D01*
X127406704Y-123094683D01*
X127448400Y-122885063D01*
X127448400Y-122671337D01*
X127406704Y-122461717D01*
X127324915Y-122264260D01*
X127206175Y-122086553D01*
X127055047Y-121935425D01*
X126877340Y-121816685D01*
X126802886Y-121785845D01*
X139265450Y-121785845D01*
X142000000Y-124520395D01*
X144734550Y-121785845D01*
X144338366Y-121265450D01*
X143623388Y-120875252D01*
X142846024Y-120632036D01*
X142036147Y-120545149D01*
X141224882Y-120617931D01*
X140443403Y-120847585D01*
X139721744Y-121225285D01*
X139661634Y-121265450D01*
X139265450Y-121785845D01*
X126802886Y-121785845D01*
X126679883Y-121734896D01*
X126470263Y-121693200D01*
X126256537Y-121693200D01*
X126046917Y-121734896D01*
X125849460Y-121816685D01*
X125671753Y-121935425D01*
X125520625Y-122086553D01*
X125401885Y-122264260D01*
X125320096Y-122461717D01*
X125278400Y-122671337D01*
X122041742Y-122671337D01*
X121833405Y-122532131D01*
X121390263Y-122348576D01*
X120919827Y-122255000D01*
X120440173Y-122255000D01*
X119969737Y-122348576D01*
X119526595Y-122532131D01*
X119127778Y-122798612D01*
X118788612Y-123137778D01*
X118522131Y-123536595D01*
X118338576Y-123979737D01*
X118245000Y-124450173D01*
X107328072Y-124450173D01*
X107328072Y-123850000D01*
X107315812Y-123725518D01*
X107279502Y-123605820D01*
X107220537Y-123495506D01*
X107141185Y-123398815D01*
X107044494Y-123319463D01*
X106934180Y-123260498D01*
X106814482Y-123224188D01*
X106690000Y-123211928D01*
X104990000Y-123211928D01*
X104865518Y-123224188D01*
X104745820Y-123260498D01*
X104635506Y-123319463D01*
X104538815Y-123398815D01*
X104459463Y-123495506D01*
X104400498Y-123605820D01*
X104378487Y-123678380D01*
X104246632Y-123546525D01*
X104003411Y-123384010D01*
X103733158Y-123272068D01*
X103446260Y-123215000D01*
X103153740Y-123215000D01*
X102866842Y-123272068D01*
X102596589Y-123384010D01*
X102353368Y-123546525D01*
X102146525Y-123753368D01*
X101984010Y-123996589D01*
X101872068Y-124266842D01*
X101815000Y-124553740D01*
X96138487Y-124553740D01*
X96082069Y-123924882D01*
X95852415Y-123143403D01*
X95474715Y-122421744D01*
X95434550Y-122361634D01*
X94914155Y-121965450D01*
X92179605Y-124700000D01*
X91820395Y-124700000D01*
X89085845Y-121965450D01*
X88565450Y-122361634D01*
X88175252Y-123076612D01*
X87932036Y-123853976D01*
X87845149Y-124663853D01*
X87660000Y-124663853D01*
X87660000Y-121785845D01*
X89265450Y-121785845D01*
X92000000Y-124520395D01*
X94734550Y-121785845D01*
X94338366Y-121265450D01*
X93623388Y-120875252D01*
X92846024Y-120632036D01*
X92036147Y-120545149D01*
X91224882Y-120617931D01*
X90443403Y-120847585D01*
X89721744Y-121225285D01*
X89661634Y-121265450D01*
X89265450Y-121785845D01*
X87660000Y-121785845D01*
X87660000Y-94890000D01*
X90511928Y-94890000D01*
X90511928Y-96590000D01*
X90524188Y-96714482D01*
X90560498Y-96834180D01*
X90619463Y-96944494D01*
X90698815Y-97041185D01*
X90795506Y-97120537D01*
X90905820Y-97179502D01*
X90978380Y-97201513D01*
X90846525Y-97333368D01*
X90684010Y-97576589D01*
X90572068Y-97846842D01*
X90515000Y-98133740D01*
X90515000Y-98426260D01*
X90572068Y-98713158D01*
X90684010Y-98983411D01*
X90846525Y-99226632D01*
X91053368Y-99433475D01*
X91227760Y-99550000D01*
X91053368Y-99666525D01*
X90846525Y-99873368D01*
X90684010Y-100116589D01*
X90572068Y-100386842D01*
X90515000Y-100673740D01*
X90515000Y-100966260D01*
X90572068Y-101253158D01*
X90684010Y-101523411D01*
X90846525Y-101766632D01*
X91053368Y-101973475D01*
X91227760Y-102090000D01*
X91053368Y-102206525D01*
X90846525Y-102413368D01*
X90684010Y-102656589D01*
X90572068Y-102926842D01*
X90515000Y-103213740D01*
X90515000Y-103506260D01*
X90572068Y-103793158D01*
X90684010Y-104063411D01*
X90846525Y-104306632D01*
X91053368Y-104513475D01*
X91227760Y-104630000D01*
X91053368Y-104746525D01*
X90846525Y-104953368D01*
X90684010Y-105196589D01*
X90572068Y-105466842D01*
X90515000Y-105753740D01*
X90515000Y-106046260D01*
X90572068Y-106333158D01*
X90684010Y-106603411D01*
X90846525Y-106846632D01*
X91053368Y-107053475D01*
X91227760Y-107170000D01*
X91053368Y-107286525D01*
X90846525Y-107493368D01*
X90684010Y-107736589D01*
X90572068Y-108006842D01*
X90515000Y-108293740D01*
X90515000Y-108586260D01*
X90572068Y-108873158D01*
X90684010Y-109143411D01*
X90846525Y-109386632D01*
X91053368Y-109593475D01*
X91227760Y-109710000D01*
X91053368Y-109826525D01*
X90846525Y-110033368D01*
X90684010Y-110276589D01*
X90572068Y-110546842D01*
X90515000Y-110833740D01*
X90515000Y-111126260D01*
X90572068Y-111413158D01*
X90684010Y-111683411D01*
X90846525Y-111926632D01*
X91053368Y-112133475D01*
X91227760Y-112250000D01*
X91053368Y-112366525D01*
X90846525Y-112573368D01*
X90684010Y-112816589D01*
X90572068Y-113086842D01*
X90515000Y-113373740D01*
X90515000Y-113666260D01*
X90572068Y-113953158D01*
X90684010Y-114223411D01*
X90846525Y-114466632D01*
X91053368Y-114673475D01*
X91227760Y-114790000D01*
X91053368Y-114906525D01*
X90846525Y-115113368D01*
X90684010Y-115356589D01*
X90572068Y-115626842D01*
X90515000Y-115913740D01*
X90515000Y-116206260D01*
X90572068Y-116493158D01*
X90684010Y-116763411D01*
X90846525Y-117006632D01*
X91053368Y-117213475D01*
X91227760Y-117330000D01*
X91053368Y-117446525D01*
X90846525Y-117653368D01*
X90684010Y-117896589D01*
X90572068Y-118166842D01*
X90515000Y-118453740D01*
X90515000Y-118746260D01*
X90572068Y-119033158D01*
X90684010Y-119303411D01*
X90846525Y-119546632D01*
X91053368Y-119753475D01*
X91296589Y-119915990D01*
X91566842Y-120027932D01*
X91853740Y-120085000D01*
X92146260Y-120085000D01*
X92433158Y-120027932D01*
X92703411Y-119915990D01*
X92946632Y-119753475D01*
X93153475Y-119546632D01*
X93315990Y-119303411D01*
X93427932Y-119033158D01*
X93485000Y-118746260D01*
X93485000Y-118617911D01*
X108285000Y-118617911D01*
X108285000Y-118802089D01*
X108320932Y-118982729D01*
X108391414Y-119152889D01*
X108493738Y-119306028D01*
X108623972Y-119436262D01*
X108777111Y-119538586D01*
X108947271Y-119609068D01*
X109127911Y-119645000D01*
X109312089Y-119645000D01*
X109492729Y-119609068D01*
X109640376Y-119547911D01*
X128745000Y-119547911D01*
X128745000Y-119732089D01*
X128780932Y-119912729D01*
X128851414Y-120082889D01*
X128953738Y-120236028D01*
X129083972Y-120366262D01*
X129237111Y-120468586D01*
X129407271Y-120539068D01*
X129587911Y-120575000D01*
X129772089Y-120575000D01*
X129952729Y-120539068D01*
X130122889Y-120468586D01*
X130276028Y-120366262D01*
X130406262Y-120236028D01*
X130508586Y-120082889D01*
X130579068Y-119912729D01*
X130615000Y-119732089D01*
X130615000Y-119547911D01*
X130579068Y-119367271D01*
X130508586Y-119197111D01*
X130406262Y-119043972D01*
X130276028Y-118913738D01*
X130122889Y-118811414D01*
X129952729Y-118740932D01*
X129772089Y-118705000D01*
X129587911Y-118705000D01*
X129407271Y-118740932D01*
X129237111Y-118811414D01*
X129083972Y-118913738D01*
X128953738Y-119043972D01*
X128851414Y-119197111D01*
X128780932Y-119367271D01*
X128745000Y-119547911D01*
X109640376Y-119547911D01*
X109662889Y-119538586D01*
X109816028Y-119436262D01*
X109946262Y-119306028D01*
X110048586Y-119152889D01*
X110119068Y-118982729D01*
X110155000Y-118802089D01*
X110155000Y-118617911D01*
X110119068Y-118437271D01*
X110048586Y-118267111D01*
X109946262Y-118113972D01*
X109816028Y-117983738D01*
X109662889Y-117881414D01*
X109492729Y-117810932D01*
X109312089Y-117775000D01*
X109127911Y-117775000D01*
X108947271Y-117810932D01*
X108777111Y-117881414D01*
X108623972Y-117983738D01*
X108493738Y-118113972D01*
X108391414Y-118267111D01*
X108320932Y-118437271D01*
X108285000Y-118617911D01*
X93485000Y-118617911D01*
X93485000Y-118453740D01*
X93427932Y-118166842D01*
X93315990Y-117896589D01*
X93153475Y-117653368D01*
X92946632Y-117446525D01*
X92933741Y-117437911D01*
X110605000Y-117437911D01*
X110605000Y-117622089D01*
X110640932Y-117802729D01*
X110711414Y-117972889D01*
X110813738Y-118126028D01*
X110943972Y-118256262D01*
X111097111Y-118358586D01*
X111267271Y-118429068D01*
X111447911Y-118465000D01*
X111632089Y-118465000D01*
X111812729Y-118429068D01*
X111982889Y-118358586D01*
X112136028Y-118256262D01*
X112266262Y-118126028D01*
X112368586Y-117972889D01*
X112439068Y-117802729D01*
X112475000Y-117622089D01*
X112475000Y-117437911D01*
X112473011Y-117427911D01*
X112835000Y-117427911D01*
X112835000Y-117612089D01*
X112870932Y-117792729D01*
X112941414Y-117962889D01*
X113043738Y-118116028D01*
X113173972Y-118246262D01*
X113327111Y-118348586D01*
X113497271Y-118419068D01*
X113677911Y-118455000D01*
X113862089Y-118455000D01*
X114042729Y-118419068D01*
X114212889Y-118348586D01*
X114366028Y-118246262D01*
X114496262Y-118116028D01*
X114598586Y-117962889D01*
X114669068Y-117792729D01*
X114705000Y-117612089D01*
X114705000Y-117427911D01*
X114669068Y-117247271D01*
X114598586Y-117077111D01*
X114496262Y-116923972D01*
X114366028Y-116793738D01*
X114212889Y-116691414D01*
X114042729Y-116620932D01*
X113862089Y-116585000D01*
X113677911Y-116585000D01*
X113497271Y-116620932D01*
X113327111Y-116691414D01*
X113173972Y-116793738D01*
X113043738Y-116923972D01*
X112941414Y-117077111D01*
X112870932Y-117247271D01*
X112835000Y-117427911D01*
X112473011Y-117427911D01*
X112439068Y-117257271D01*
X112368586Y-117087111D01*
X112266262Y-116933972D01*
X112136028Y-116803738D01*
X111982889Y-116701414D01*
X111812729Y-116630932D01*
X111632089Y-116595000D01*
X111447911Y-116595000D01*
X111267271Y-116630932D01*
X111097111Y-116701414D01*
X110943972Y-116803738D01*
X110813738Y-116933972D01*
X110711414Y-117087111D01*
X110640932Y-117257271D01*
X110605000Y-117437911D01*
X92933741Y-117437911D01*
X92772240Y-117330000D01*
X92946632Y-117213475D01*
X93153475Y-117006632D01*
X93315990Y-116763411D01*
X93427932Y-116493158D01*
X93485000Y-116206260D01*
X93485000Y-115913740D01*
X93427932Y-115626842D01*
X93315990Y-115356589D01*
X93153475Y-115113368D01*
X93071444Y-115031337D01*
X116364600Y-115031337D01*
X116364600Y-115245063D01*
X116406296Y-115454683D01*
X116480364Y-115633500D01*
X116406296Y-115812317D01*
X116364600Y-116021937D01*
X116364600Y-116235663D01*
X116406296Y-116445283D01*
X116488085Y-116642740D01*
X116606825Y-116820447D01*
X116757953Y-116971575D01*
X116935660Y-117090315D01*
X117133117Y-117172104D01*
X117342737Y-117213800D01*
X117478564Y-117213800D01*
X117521225Y-117277647D01*
X117672353Y-117428775D01*
X117850060Y-117547515D01*
X118047517Y-117629304D01*
X118257137Y-117671000D01*
X118470863Y-117671000D01*
X118680483Y-117629304D01*
X118877940Y-117547515D01*
X119055647Y-117428775D01*
X119206775Y-117277647D01*
X119325515Y-117099940D01*
X119407304Y-116902483D01*
X119449000Y-116692863D01*
X119449000Y-116479137D01*
X119407304Y-116269517D01*
X119325796Y-116072739D01*
X119381904Y-115937283D01*
X119423600Y-115727663D01*
X119423600Y-115513937D01*
X119381904Y-115304317D01*
X119300115Y-115106860D01*
X119261655Y-115049300D01*
X119300115Y-114991740D01*
X119381904Y-114794283D01*
X119423600Y-114584663D01*
X119423600Y-114447137D01*
X119971400Y-114447137D01*
X119971400Y-114660863D01*
X120013096Y-114870483D01*
X120094885Y-115067940D01*
X120120588Y-115106407D01*
X120120285Y-115106860D01*
X120038496Y-115304317D01*
X119996800Y-115513937D01*
X119996800Y-115727663D01*
X120038496Y-115937283D01*
X120112564Y-116116100D01*
X120038496Y-116294917D01*
X119996800Y-116504537D01*
X119996800Y-116718263D01*
X120038496Y-116927883D01*
X120120285Y-117125340D01*
X120239025Y-117303047D01*
X120390153Y-117454175D01*
X120567860Y-117572915D01*
X120765317Y-117654704D01*
X120974937Y-117696400D01*
X121188663Y-117696400D01*
X121398283Y-117654704D01*
X121595740Y-117572915D01*
X121764470Y-117460173D01*
X140965000Y-117460173D01*
X140965000Y-117939827D01*
X141058576Y-118410263D01*
X141242131Y-118853405D01*
X141508612Y-119252222D01*
X141847778Y-119591388D01*
X142246595Y-119857869D01*
X142689737Y-120041424D01*
X143160173Y-120135000D01*
X143639827Y-120135000D01*
X144110263Y-120041424D01*
X144553405Y-119857869D01*
X144952222Y-119591388D01*
X145291388Y-119252222D01*
X145557869Y-118853405D01*
X145741424Y-118410263D01*
X145835000Y-117939827D01*
X145835000Y-117460173D01*
X145741424Y-116989737D01*
X145557869Y-116546595D01*
X145291388Y-116147778D01*
X144952222Y-115808612D01*
X144553405Y-115542131D01*
X144110263Y-115358576D01*
X143639827Y-115265000D01*
X143160173Y-115265000D01*
X142689737Y-115358576D01*
X142246595Y-115542131D01*
X141847778Y-115808612D01*
X141508612Y-116147778D01*
X141242131Y-116546595D01*
X141058576Y-116989737D01*
X140965000Y-117460173D01*
X121764470Y-117460173D01*
X121773447Y-117454175D01*
X121924575Y-117303047D01*
X122001180Y-117188400D01*
X122077663Y-117188400D01*
X122287283Y-117146704D01*
X122484740Y-117064915D01*
X122662447Y-116946175D01*
X122813575Y-116795047D01*
X122932315Y-116617340D01*
X123014104Y-116419883D01*
X123055800Y-116210263D01*
X123055800Y-115996537D01*
X123014104Y-115786917D01*
X122932315Y-115589460D01*
X122926168Y-115580260D01*
X122988704Y-115429283D01*
X123030400Y-115219663D01*
X123030400Y-115005937D01*
X122988704Y-114796317D01*
X122906915Y-114598860D01*
X122788175Y-114421153D01*
X122774933Y-114407911D01*
X133285000Y-114407911D01*
X133285000Y-114592089D01*
X133320932Y-114772729D01*
X133391414Y-114942889D01*
X133493738Y-115096028D01*
X133623972Y-115226262D01*
X133777111Y-115328586D01*
X133947271Y-115399068D01*
X134127911Y-115435000D01*
X134312089Y-115435000D01*
X134492729Y-115399068D01*
X134662889Y-115328586D01*
X134816028Y-115226262D01*
X134946262Y-115096028D01*
X135048586Y-114942889D01*
X135119068Y-114772729D01*
X135155000Y-114592089D01*
X135155000Y-114407911D01*
X135119068Y-114227271D01*
X135048586Y-114057111D01*
X134946262Y-113903972D01*
X134816028Y-113773738D01*
X134662889Y-113671414D01*
X134492729Y-113600932D01*
X134312089Y-113565000D01*
X134127911Y-113565000D01*
X133947271Y-113600932D01*
X133777111Y-113671414D01*
X133623972Y-113773738D01*
X133493738Y-113903972D01*
X133391414Y-114057111D01*
X133320932Y-114227271D01*
X133285000Y-114407911D01*
X122774933Y-114407911D01*
X122637047Y-114270025D01*
X122459340Y-114151285D01*
X122261883Y-114069496D01*
X122052263Y-114027800D01*
X122009723Y-114027800D01*
X121899175Y-113862353D01*
X121748047Y-113711225D01*
X121570340Y-113592485D01*
X121372883Y-113510696D01*
X121163263Y-113469000D01*
X120949537Y-113469000D01*
X120739917Y-113510696D01*
X120542460Y-113592485D01*
X120364753Y-113711225D01*
X120213625Y-113862353D01*
X120094885Y-114040060D01*
X120013096Y-114237517D01*
X119971400Y-114447137D01*
X119423600Y-114447137D01*
X119423600Y-114370937D01*
X119381904Y-114161317D01*
X119300115Y-113963860D01*
X119181375Y-113786153D01*
X119030247Y-113635025D01*
X118852540Y-113516285D01*
X118655083Y-113434496D01*
X118445463Y-113392800D01*
X118231737Y-113392800D01*
X118022117Y-113434496D01*
X117824660Y-113516285D01*
X117646953Y-113635025D01*
X117495825Y-113786153D01*
X117377085Y-113963860D01*
X117339841Y-114053776D01*
X117133117Y-114094896D01*
X116935660Y-114176685D01*
X116757953Y-114295425D01*
X116606825Y-114446553D01*
X116488085Y-114624260D01*
X116406296Y-114821717D01*
X116364600Y-115031337D01*
X93071444Y-115031337D01*
X92946632Y-114906525D01*
X92772240Y-114790000D01*
X92946632Y-114673475D01*
X93153475Y-114466632D01*
X93315990Y-114223411D01*
X93427932Y-113953158D01*
X93459921Y-113792337D01*
X99958600Y-113792337D01*
X99958600Y-114006063D01*
X100000296Y-114215683D01*
X100082085Y-114413140D01*
X100200825Y-114590847D01*
X100351953Y-114741975D01*
X100529660Y-114860715D01*
X100727117Y-114942504D01*
X100936737Y-114984200D01*
X101150463Y-114984200D01*
X101360083Y-114942504D01*
X101557540Y-114860715D01*
X101735247Y-114741975D01*
X101886375Y-114590847D01*
X102005115Y-114413140D01*
X102086904Y-114215683D01*
X102128600Y-114006063D01*
X102128600Y-113792337D01*
X106867400Y-113792337D01*
X106867400Y-114006063D01*
X106909096Y-114215683D01*
X106990885Y-114413140D01*
X107109625Y-114590847D01*
X107260753Y-114741975D01*
X107438460Y-114860715D01*
X107635917Y-114942504D01*
X107845537Y-114984200D01*
X108059263Y-114984200D01*
X108268883Y-114942504D01*
X108466340Y-114860715D01*
X108644047Y-114741975D01*
X108795175Y-114590847D01*
X108913915Y-114413140D01*
X108995704Y-114215683D01*
X109037400Y-114006063D01*
X109037400Y-113990498D01*
X109203940Y-113921515D01*
X109381647Y-113802775D01*
X109532775Y-113651647D01*
X109651515Y-113473940D01*
X109733304Y-113276483D01*
X109768011Y-113102000D01*
X113325000Y-113102000D01*
X113349776Y-113099560D01*
X113373601Y-113092333D01*
X113395557Y-113080597D01*
X113414803Y-113064803D01*
X113430597Y-113045557D01*
X113442333Y-113023601D01*
X113449560Y-112999776D01*
X113452000Y-112975000D01*
X113452000Y-111228702D01*
X132536903Y-111228702D01*
X132608486Y-111472671D01*
X132863996Y-111593571D01*
X133138184Y-111662300D01*
X133420512Y-111676217D01*
X133700130Y-111634787D01*
X133966292Y-111539603D01*
X134091514Y-111472671D01*
X134163097Y-111228702D01*
X133350000Y-110415605D01*
X132536903Y-111228702D01*
X113452000Y-111228702D01*
X113452000Y-110306512D01*
X131909783Y-110306512D01*
X131951213Y-110586130D01*
X132046397Y-110852292D01*
X132113329Y-110977514D01*
X132357298Y-111049097D01*
X133170395Y-110236000D01*
X133529605Y-110236000D01*
X134342702Y-111049097D01*
X134586671Y-110977514D01*
X134707571Y-110722004D01*
X134776300Y-110447816D01*
X134790217Y-110165488D01*
X134748787Y-109885870D01*
X134653603Y-109619708D01*
X134586671Y-109494486D01*
X134387340Y-109436000D01*
X135411928Y-109436000D01*
X135411928Y-111036000D01*
X135424188Y-111160482D01*
X135460498Y-111280180D01*
X135519463Y-111390494D01*
X135598815Y-111487185D01*
X135695506Y-111566537D01*
X135805820Y-111625502D01*
X135925518Y-111661812D01*
X136050000Y-111674072D01*
X137650000Y-111674072D01*
X137774482Y-111661812D01*
X137894180Y-111625502D01*
X138004494Y-111566537D01*
X138101185Y-111487185D01*
X138180537Y-111390494D01*
X138239502Y-111280180D01*
X138275812Y-111160482D01*
X138288072Y-111036000D01*
X138288072Y-109436000D01*
X138281290Y-109367137D01*
X140850200Y-109367137D01*
X140850200Y-109580863D01*
X140891896Y-109790483D01*
X140973685Y-109987940D01*
X141092425Y-110165647D01*
X141243553Y-110316775D01*
X141421260Y-110435515D01*
X141618717Y-110517304D01*
X141828337Y-110559000D01*
X142042063Y-110559000D01*
X142251683Y-110517304D01*
X142449140Y-110435515D01*
X142626847Y-110316775D01*
X142777975Y-110165647D01*
X142896715Y-109987940D01*
X142978504Y-109790483D01*
X143020200Y-109580863D01*
X143020200Y-109367137D01*
X142978504Y-109157517D01*
X142896715Y-108960060D01*
X142777975Y-108782353D01*
X142626847Y-108631225D01*
X142449140Y-108512485D01*
X142251683Y-108430696D01*
X142042063Y-108389000D01*
X141828337Y-108389000D01*
X141618717Y-108430696D01*
X141421260Y-108512485D01*
X141243553Y-108631225D01*
X141092425Y-108782353D01*
X140973685Y-108960060D01*
X140891896Y-109157517D01*
X140850200Y-109367137D01*
X138281290Y-109367137D01*
X138275812Y-109311518D01*
X138239502Y-109191820D01*
X138180537Y-109081506D01*
X138101185Y-108984815D01*
X138004494Y-108905463D01*
X137894180Y-108846498D01*
X137774482Y-108810188D01*
X137650000Y-108797928D01*
X136050000Y-108797928D01*
X135925518Y-108810188D01*
X135805820Y-108846498D01*
X135695506Y-108905463D01*
X135598815Y-108984815D01*
X135519463Y-109081506D01*
X135460498Y-109191820D01*
X135424188Y-109311518D01*
X135411928Y-109436000D01*
X134387340Y-109436000D01*
X134342702Y-109422903D01*
X133529605Y-110236000D01*
X133170395Y-110236000D01*
X132357298Y-109422903D01*
X132113329Y-109494486D01*
X131992429Y-109749996D01*
X131923700Y-110024184D01*
X131909783Y-110306512D01*
X113452000Y-110306512D01*
X113452000Y-109243298D01*
X132536903Y-109243298D01*
X133350000Y-110056395D01*
X134163097Y-109243298D01*
X134091514Y-108999329D01*
X133836004Y-108878429D01*
X133561816Y-108809700D01*
X133279488Y-108795783D01*
X132999870Y-108837213D01*
X132733708Y-108932397D01*
X132608486Y-108999329D01*
X132536903Y-109243298D01*
X113452000Y-109243298D01*
X113452000Y-106675000D01*
X113449560Y-106650224D01*
X113442333Y-106626399D01*
X113430597Y-106604443D01*
X113414803Y-106585197D01*
X113395557Y-106569403D01*
X113373601Y-106557667D01*
X113349776Y-106550440D01*
X113325000Y-106548000D01*
X109275000Y-106548000D01*
X109250224Y-106550440D01*
X109226399Y-106557667D01*
X109204443Y-106569403D01*
X109185197Y-106585197D01*
X109169403Y-106604443D01*
X109157667Y-106626399D01*
X109150440Y-106650224D01*
X109148000Y-106675000D01*
X109148000Y-111975314D01*
X109006483Y-111916696D01*
X108796863Y-111875000D01*
X108583137Y-111875000D01*
X108373517Y-111916696D01*
X108176060Y-111998485D01*
X107998353Y-112117225D01*
X107847225Y-112268353D01*
X107728485Y-112446060D01*
X107646696Y-112643517D01*
X107605000Y-112853137D01*
X107605000Y-112868702D01*
X107438460Y-112937685D01*
X107260753Y-113056425D01*
X107109625Y-113207553D01*
X106990885Y-113385260D01*
X106909096Y-113582717D01*
X106867400Y-113792337D01*
X102128600Y-113792337D01*
X102086904Y-113582717D01*
X102005115Y-113385260D01*
X101886375Y-113207553D01*
X101735247Y-113056425D01*
X101557540Y-112937685D01*
X101360083Y-112855896D01*
X101150463Y-112814200D01*
X100936737Y-112814200D01*
X100727117Y-112855896D01*
X100529660Y-112937685D01*
X100351953Y-113056425D01*
X100200825Y-113207553D01*
X100082085Y-113385260D01*
X100000296Y-113582717D01*
X99958600Y-113792337D01*
X93459921Y-113792337D01*
X93485000Y-113666260D01*
X93485000Y-113373740D01*
X93427932Y-113086842D01*
X93315990Y-112816589D01*
X93153475Y-112573368D01*
X92946632Y-112366525D01*
X92772240Y-112250000D01*
X92946632Y-112133475D01*
X93153475Y-111926632D01*
X93315990Y-111683411D01*
X93427932Y-111413158D01*
X93485000Y-111126260D01*
X93485000Y-110833740D01*
X93427932Y-110546842D01*
X93315990Y-110276589D01*
X93303510Y-110257911D01*
X98245000Y-110257911D01*
X98245000Y-110442089D01*
X98280932Y-110622729D01*
X98351414Y-110792889D01*
X98453738Y-110946028D01*
X98583972Y-111076262D01*
X98737111Y-111178586D01*
X98907271Y-111249068D01*
X99087911Y-111285000D01*
X99272089Y-111285000D01*
X99452729Y-111249068D01*
X99622889Y-111178586D01*
X99776028Y-111076262D01*
X99906262Y-110946028D01*
X100008586Y-110792889D01*
X100079068Y-110622729D01*
X100115000Y-110442089D01*
X100115000Y-110257911D01*
X100079068Y-110077271D01*
X100008586Y-109907111D01*
X99906262Y-109753972D01*
X99780201Y-109627911D01*
X101815000Y-109627911D01*
X101815000Y-109812089D01*
X101850932Y-109992729D01*
X101921414Y-110162889D01*
X102023738Y-110316028D01*
X102153972Y-110446262D01*
X102307111Y-110548586D01*
X102477271Y-110619068D01*
X102657911Y-110655000D01*
X102842089Y-110655000D01*
X103022729Y-110619068D01*
X103192889Y-110548586D01*
X103346028Y-110446262D01*
X103359093Y-110433197D01*
X103368066Y-110478308D01*
X103449855Y-110675765D01*
X103568595Y-110853472D01*
X103719723Y-111004600D01*
X103897430Y-111123340D01*
X104094887Y-111205129D01*
X104274216Y-111240800D01*
X104244757Y-111284889D01*
X104162968Y-111482346D01*
X104121272Y-111691966D01*
X104121272Y-111905692D01*
X104162968Y-112115312D01*
X104244757Y-112312769D01*
X104363497Y-112490476D01*
X104514625Y-112641604D01*
X104692332Y-112760344D01*
X104889789Y-112842133D01*
X105099409Y-112883829D01*
X105313135Y-112883829D01*
X105522755Y-112842133D01*
X105720212Y-112760344D01*
X105897919Y-112641604D01*
X106049047Y-112490476D01*
X106167787Y-112312769D01*
X106249576Y-112115312D01*
X106291272Y-111905692D01*
X106291272Y-111691966D01*
X106249576Y-111482346D01*
X106167787Y-111284889D01*
X106049047Y-111107182D01*
X105897919Y-110956054D01*
X105720212Y-110837314D01*
X105522755Y-110755525D01*
X105343426Y-110719854D01*
X105372885Y-110675765D01*
X105411704Y-110582048D01*
X105606483Y-110543304D01*
X105803940Y-110461515D01*
X105981647Y-110342775D01*
X106132775Y-110191647D01*
X106251515Y-110013940D01*
X106333304Y-109816483D01*
X106375000Y-109606863D01*
X106375000Y-109393137D01*
X106333304Y-109183517D01*
X106251515Y-108986060D01*
X106132775Y-108808353D01*
X105981647Y-108657225D01*
X105803940Y-108538485D01*
X105606483Y-108456696D01*
X105396863Y-108415000D01*
X105183137Y-108415000D01*
X104973517Y-108456696D01*
X104776060Y-108538485D01*
X104598353Y-108657225D01*
X104447225Y-108808353D01*
X104328485Y-108986060D01*
X104289666Y-109079777D01*
X104094887Y-109118521D01*
X103897430Y-109200310D01*
X103719723Y-109319050D01*
X103632207Y-109406566D01*
X103578586Y-109277111D01*
X103476262Y-109123972D01*
X103346028Y-108993738D01*
X103192889Y-108891414D01*
X103022729Y-108820932D01*
X102842089Y-108785000D01*
X102657911Y-108785000D01*
X102477271Y-108820932D01*
X102307111Y-108891414D01*
X102153972Y-108993738D01*
X102023738Y-109123972D01*
X101921414Y-109277111D01*
X101850932Y-109447271D01*
X101815000Y-109627911D01*
X99780201Y-109627911D01*
X99776028Y-109623738D01*
X99622889Y-109521414D01*
X99452729Y-109450932D01*
X99272089Y-109415000D01*
X99087911Y-109415000D01*
X98907271Y-109450932D01*
X98737111Y-109521414D01*
X98583972Y-109623738D01*
X98453738Y-109753972D01*
X98351414Y-109907111D01*
X98280932Y-110077271D01*
X98245000Y-110257911D01*
X93303510Y-110257911D01*
X93153475Y-110033368D01*
X92946632Y-109826525D01*
X92772240Y-109710000D01*
X92946632Y-109593475D01*
X93153475Y-109386632D01*
X93315990Y-109143411D01*
X93427932Y-108873158D01*
X93485000Y-108586260D01*
X93485000Y-108293740D01*
X93427932Y-108006842D01*
X93315990Y-107736589D01*
X93153475Y-107493368D01*
X92946632Y-107286525D01*
X92772240Y-107170000D01*
X92946632Y-107053475D01*
X93153475Y-106846632D01*
X93315990Y-106603411D01*
X93400245Y-106400000D01*
X119761928Y-106400000D01*
X119761928Y-108000000D01*
X119774188Y-108124482D01*
X119810498Y-108244180D01*
X119869463Y-108354494D01*
X119948815Y-108451185D01*
X120045506Y-108530537D01*
X120155820Y-108589502D01*
X120275518Y-108625812D01*
X120400000Y-108638072D01*
X122000000Y-108638072D01*
X122124482Y-108625812D01*
X122244180Y-108589502D01*
X122354494Y-108530537D01*
X122451185Y-108451185D01*
X122530537Y-108354494D01*
X122589502Y-108244180D01*
X122605117Y-108192702D01*
X123886903Y-108192702D01*
X123958486Y-108436671D01*
X124213996Y-108557571D01*
X124488184Y-108626300D01*
X124770512Y-108640217D01*
X125050130Y-108598787D01*
X125316292Y-108503603D01*
X125441514Y-108436671D01*
X125513097Y-108192702D01*
X124700000Y-107379605D01*
X123886903Y-108192702D01*
X122605117Y-108192702D01*
X122625812Y-108124482D01*
X122638072Y-108000000D01*
X122638072Y-107270512D01*
X123259783Y-107270512D01*
X123301213Y-107550130D01*
X123396397Y-107816292D01*
X123463329Y-107941514D01*
X123707298Y-108013097D01*
X124520395Y-107200000D01*
X124879605Y-107200000D01*
X125692702Y-108013097D01*
X125936671Y-107941514D01*
X126057571Y-107686004D01*
X126126300Y-107411816D01*
X126140217Y-107129488D01*
X126098787Y-106849870D01*
X126003603Y-106583708D01*
X125936671Y-106458486D01*
X125692702Y-106386903D01*
X124879605Y-107200000D01*
X124520395Y-107200000D01*
X123707298Y-106386903D01*
X123463329Y-106458486D01*
X123342429Y-106713996D01*
X123273700Y-106988184D01*
X123259783Y-107270512D01*
X122638072Y-107270512D01*
X122638072Y-106400000D01*
X122625812Y-106275518D01*
X122605118Y-106207298D01*
X123886903Y-106207298D01*
X124700000Y-107020395D01*
X125513097Y-106207298D01*
X125441514Y-105963329D01*
X125186004Y-105842429D01*
X124911816Y-105773700D01*
X124629488Y-105759783D01*
X124349870Y-105801213D01*
X124083708Y-105896397D01*
X123958486Y-105963329D01*
X123886903Y-106207298D01*
X122605118Y-106207298D01*
X122589502Y-106155820D01*
X122530537Y-106045506D01*
X122451185Y-105948815D01*
X122354494Y-105869463D01*
X122244180Y-105810498D01*
X122124482Y-105774188D01*
X122000000Y-105761928D01*
X120400000Y-105761928D01*
X120275518Y-105774188D01*
X120155820Y-105810498D01*
X120045506Y-105869463D01*
X119948815Y-105948815D01*
X119869463Y-106045506D01*
X119810498Y-106155820D01*
X119774188Y-106275518D01*
X119761928Y-106400000D01*
X93400245Y-106400000D01*
X93427932Y-106333158D01*
X93485000Y-106046260D01*
X93485000Y-105753740D01*
X93427932Y-105466842D01*
X93315990Y-105196589D01*
X93153475Y-104953368D01*
X92946632Y-104746525D01*
X92772240Y-104630000D01*
X92946632Y-104513475D01*
X93153475Y-104306632D01*
X93315990Y-104063411D01*
X93427932Y-103793158D01*
X93485000Y-103506260D01*
X93485000Y-103213740D01*
X93427932Y-102926842D01*
X93315990Y-102656589D01*
X93187265Y-102463937D01*
X104225800Y-102463937D01*
X104225800Y-102677663D01*
X104267496Y-102887283D01*
X104349285Y-103084740D01*
X104468025Y-103262447D01*
X104619153Y-103413575D01*
X104796860Y-103532315D01*
X104994317Y-103614104D01*
X105074103Y-103629974D01*
X105085604Y-103657739D01*
X105004096Y-103854517D01*
X104962400Y-104064137D01*
X104962400Y-104277863D01*
X105004096Y-104487483D01*
X105085885Y-104684940D01*
X105204625Y-104862647D01*
X105355753Y-105013775D01*
X105533460Y-105132515D01*
X105730917Y-105214304D01*
X105940537Y-105256000D01*
X106154263Y-105256000D01*
X106363883Y-105214304D01*
X106561340Y-105132515D01*
X106739047Y-105013775D01*
X106890175Y-104862647D01*
X107008915Y-104684940D01*
X107090704Y-104487483D01*
X107132400Y-104277863D01*
X107132400Y-104064137D01*
X107090704Y-103854517D01*
X107034596Y-103719061D01*
X107116104Y-103522283D01*
X107157800Y-103312663D01*
X107157800Y-103098937D01*
X107116864Y-102893137D01*
X116165000Y-102893137D01*
X116165000Y-103106863D01*
X116206696Y-103316483D01*
X116288485Y-103513940D01*
X116407225Y-103691647D01*
X116558353Y-103842775D01*
X116736060Y-103961515D01*
X116933517Y-104043304D01*
X117143137Y-104085000D01*
X117356863Y-104085000D01*
X117566483Y-104043304D01*
X117763940Y-103961515D01*
X117941647Y-103842775D01*
X118092775Y-103691647D01*
X118211515Y-103513940D01*
X118293304Y-103316483D01*
X118335000Y-103106863D01*
X118335000Y-102893137D01*
X118293304Y-102683517D01*
X118214447Y-102493137D01*
X129515000Y-102493137D01*
X129515000Y-102706863D01*
X129556696Y-102916483D01*
X129638485Y-103113940D01*
X129757225Y-103291647D01*
X129908353Y-103442775D01*
X130086060Y-103561515D01*
X130283517Y-103643304D01*
X130493137Y-103685000D01*
X130706863Y-103685000D01*
X130916483Y-103643304D01*
X131113940Y-103561515D01*
X131291647Y-103442775D01*
X131442775Y-103291647D01*
X131561515Y-103113940D01*
X131643304Y-102916483D01*
X131685000Y-102706863D01*
X131685000Y-102493137D01*
X131643304Y-102283517D01*
X131561515Y-102086060D01*
X131487308Y-101975000D01*
X141284388Y-101975000D01*
X141306785Y-102202400D01*
X141373115Y-102421060D01*
X141480829Y-102622579D01*
X141625788Y-102799212D01*
X141802421Y-102944171D01*
X142003940Y-103051885D01*
X142222600Y-103118215D01*
X142393021Y-103135000D01*
X142706979Y-103135000D01*
X142877400Y-103118215D01*
X143096060Y-103051885D01*
X143297579Y-102944171D01*
X143474212Y-102799212D01*
X143619171Y-102622579D01*
X143726885Y-102421060D01*
X143793215Y-102202400D01*
X143815612Y-101975000D01*
X143793215Y-101747600D01*
X143726885Y-101528940D01*
X143619171Y-101327421D01*
X143474212Y-101150788D01*
X143297579Y-101005829D01*
X143096060Y-100898115D01*
X142877400Y-100831785D01*
X142706979Y-100815000D01*
X142393021Y-100815000D01*
X142222600Y-100831785D01*
X142003940Y-100898115D01*
X141802421Y-101005829D01*
X141625788Y-101150788D01*
X141480829Y-101327421D01*
X141373115Y-101528940D01*
X141306785Y-101747600D01*
X141284388Y-101975000D01*
X131487308Y-101975000D01*
X131442775Y-101908353D01*
X131291647Y-101757225D01*
X131113940Y-101638485D01*
X130916483Y-101556696D01*
X130706863Y-101515000D01*
X130493137Y-101515000D01*
X130283517Y-101556696D01*
X130086060Y-101638485D01*
X129908353Y-101757225D01*
X129757225Y-101908353D01*
X129638485Y-102086060D01*
X129556696Y-102283517D01*
X129515000Y-102493137D01*
X118214447Y-102493137D01*
X118211515Y-102486060D01*
X118092775Y-102308353D01*
X117941647Y-102157225D01*
X117763940Y-102038485D01*
X117566483Y-101956696D01*
X117356863Y-101915000D01*
X117143137Y-101915000D01*
X116933517Y-101956696D01*
X116736060Y-102038485D01*
X116558353Y-102157225D01*
X116407225Y-102308353D01*
X116288485Y-102486060D01*
X116206696Y-102683517D01*
X116165000Y-102893137D01*
X107116864Y-102893137D01*
X107116104Y-102889317D01*
X107034315Y-102691860D01*
X106915575Y-102514153D01*
X106764447Y-102363025D01*
X106586740Y-102244285D01*
X106389283Y-102162496D01*
X106309497Y-102146626D01*
X106272315Y-102056860D01*
X106153575Y-101879153D01*
X106002447Y-101728025D01*
X105824740Y-101609285D01*
X105627283Y-101527496D01*
X105417663Y-101485800D01*
X105203937Y-101485800D01*
X104994317Y-101527496D01*
X104796860Y-101609285D01*
X104619153Y-101728025D01*
X104468025Y-101879153D01*
X104349285Y-102056860D01*
X104267496Y-102254317D01*
X104225800Y-102463937D01*
X93187265Y-102463937D01*
X93153475Y-102413368D01*
X92946632Y-102206525D01*
X92772240Y-102090000D01*
X92946632Y-101973475D01*
X93153475Y-101766632D01*
X93315990Y-101523411D01*
X93427932Y-101253158D01*
X93485000Y-100966260D01*
X93485000Y-100673740D01*
X93427932Y-100386842D01*
X93315990Y-100116589D01*
X93153475Y-99873368D01*
X92946632Y-99666525D01*
X92772240Y-99550000D01*
X92946632Y-99433475D01*
X93153475Y-99226632D01*
X93315990Y-98983411D01*
X93427932Y-98713158D01*
X93485000Y-98426260D01*
X93485000Y-98223137D01*
X117955000Y-98223137D01*
X117955000Y-98436863D01*
X117996696Y-98646483D01*
X118078485Y-98843940D01*
X118197225Y-99021647D01*
X118348353Y-99172775D01*
X118526060Y-99291515D01*
X118723517Y-99373304D01*
X118933137Y-99415000D01*
X119146863Y-99415000D01*
X119356483Y-99373304D01*
X119553940Y-99291515D01*
X119731647Y-99172775D01*
X119882775Y-99021647D01*
X120001515Y-98843940D01*
X120083304Y-98646483D01*
X120125000Y-98436863D01*
X120125000Y-98223137D01*
X120088321Y-98038737D01*
X126448400Y-98038737D01*
X126448400Y-98252463D01*
X126490096Y-98462083D01*
X126548383Y-98602800D01*
X126490096Y-98743517D01*
X126448400Y-98953137D01*
X126448400Y-99166863D01*
X126490096Y-99376483D01*
X126571885Y-99573940D01*
X126690625Y-99751647D01*
X126841753Y-99902775D01*
X127019460Y-100021515D01*
X127216917Y-100103304D01*
X127426537Y-100145000D01*
X127640263Y-100145000D01*
X127849883Y-100103304D01*
X128047340Y-100021515D01*
X128225047Y-99902775D01*
X128376175Y-99751647D01*
X128418836Y-99687800D01*
X128453063Y-99687800D01*
X128662683Y-99646104D01*
X128860140Y-99564315D01*
X129037847Y-99445575D01*
X129188975Y-99294447D01*
X129307715Y-99116740D01*
X129352399Y-99008861D01*
X136658400Y-99008861D01*
X136658400Y-99212739D01*
X136698174Y-99412698D01*
X136776195Y-99601056D01*
X136889463Y-99770574D01*
X137033626Y-99914737D01*
X137203144Y-100028005D01*
X137391502Y-100106026D01*
X137591461Y-100145800D01*
X137795339Y-100145800D01*
X137995298Y-100106026D01*
X138183656Y-100028005D01*
X138353174Y-99914737D01*
X138497337Y-99770574D01*
X138610605Y-99601056D01*
X138688626Y-99412698D01*
X138728400Y-99212739D01*
X138728400Y-99008861D01*
X138688626Y-98808902D01*
X138610605Y-98620544D01*
X138497337Y-98451026D01*
X138353174Y-98306863D01*
X138183656Y-98193595D01*
X137995298Y-98115574D01*
X137795339Y-98075800D01*
X137591461Y-98075800D01*
X137391502Y-98115574D01*
X137203144Y-98193595D01*
X137033626Y-98306863D01*
X136889463Y-98451026D01*
X136776195Y-98620544D01*
X136698174Y-98808902D01*
X136658400Y-99008861D01*
X129352399Y-99008861D01*
X129389504Y-98919283D01*
X129431200Y-98709663D01*
X129431200Y-98495937D01*
X129389504Y-98286317D01*
X129307715Y-98088860D01*
X129188975Y-97911153D01*
X129037847Y-97760025D01*
X128860140Y-97641285D01*
X128662683Y-97559496D01*
X128453063Y-97517800D01*
X128418836Y-97517800D01*
X128376175Y-97453953D01*
X128225047Y-97302825D01*
X128047340Y-97184085D01*
X127849883Y-97102296D01*
X127640263Y-97060600D01*
X127426537Y-97060600D01*
X127216917Y-97102296D01*
X127019460Y-97184085D01*
X126841753Y-97302825D01*
X126690625Y-97453953D01*
X126571885Y-97631660D01*
X126490096Y-97829117D01*
X126448400Y-98038737D01*
X120088321Y-98038737D01*
X120083304Y-98013517D01*
X120001515Y-97816060D01*
X119882775Y-97638353D01*
X119731647Y-97487225D01*
X119553940Y-97368485D01*
X119356483Y-97286696D01*
X119146863Y-97245000D01*
X118933137Y-97245000D01*
X118723517Y-97286696D01*
X118526060Y-97368485D01*
X118348353Y-97487225D01*
X118197225Y-97638353D01*
X118078485Y-97816060D01*
X117996696Y-98013517D01*
X117955000Y-98223137D01*
X93485000Y-98223137D01*
X93485000Y-98133740D01*
X93427932Y-97846842D01*
X93315990Y-97576589D01*
X93153475Y-97333368D01*
X93021620Y-97201513D01*
X93094180Y-97179502D01*
X93204494Y-97120537D01*
X93301185Y-97041185D01*
X93380537Y-96944494D01*
X93439502Y-96834180D01*
X93465565Y-96748261D01*
X136602818Y-96748261D01*
X136602818Y-96952139D01*
X136642592Y-97152098D01*
X136720613Y-97340456D01*
X136833881Y-97509974D01*
X136978044Y-97654137D01*
X137147562Y-97767405D01*
X137335920Y-97845426D01*
X137535879Y-97885200D01*
X137739757Y-97885200D01*
X137939716Y-97845426D01*
X138128074Y-97767405D01*
X138297592Y-97654137D01*
X138441755Y-97509974D01*
X138555023Y-97340456D01*
X138633044Y-97152098D01*
X138672818Y-96952139D01*
X138672818Y-96748261D01*
X138633044Y-96548302D01*
X138555023Y-96359944D01*
X138441755Y-96190426D01*
X138297592Y-96046263D01*
X138128074Y-95932995D01*
X137939716Y-95854974D01*
X137739757Y-95815200D01*
X137535879Y-95815200D01*
X137335920Y-95854974D01*
X137147562Y-95932995D01*
X136978044Y-96046263D01*
X136833881Y-96190426D01*
X136720613Y-96359944D01*
X136642592Y-96548302D01*
X136602818Y-96748261D01*
X93465565Y-96748261D01*
X93475812Y-96714482D01*
X93488072Y-96590000D01*
X93488072Y-94890000D01*
X93475812Y-94765518D01*
X93439502Y-94645820D01*
X93380537Y-94535506D01*
X93301185Y-94438815D01*
X93204494Y-94359463D01*
X93094180Y-94300498D01*
X92974482Y-94264188D01*
X92850000Y-94251928D01*
X91150000Y-94251928D01*
X91025518Y-94264188D01*
X90905820Y-94300498D01*
X90795506Y-94359463D01*
X90698815Y-94438815D01*
X90619463Y-94535506D01*
X90560498Y-94645820D01*
X90524188Y-94765518D01*
X90511928Y-94890000D01*
X87660000Y-94890000D01*
X87660000Y-92614155D01*
X89265450Y-92614155D01*
X89661634Y-93134550D01*
X90376612Y-93524748D01*
X91153976Y-93767964D01*
X91963853Y-93854851D01*
X92775118Y-93782069D01*
X93556597Y-93552415D01*
X94278256Y-93174715D01*
X94338366Y-93134550D01*
X94734550Y-92614155D01*
X139265450Y-92614155D01*
X139661634Y-93134550D01*
X140376612Y-93524748D01*
X141153976Y-93767964D01*
X141963853Y-93854851D01*
X142775118Y-93782069D01*
X143556597Y-93552415D01*
X144278256Y-93174715D01*
X144338366Y-93134550D01*
X144734550Y-92614155D01*
X142000000Y-89879605D01*
X139265450Y-92614155D01*
X94734550Y-92614155D01*
X92000000Y-89879605D01*
X89265450Y-92614155D01*
X87660000Y-92614155D01*
X87660000Y-89729392D01*
X87665849Y-89663853D01*
X87845149Y-89663853D01*
X87917931Y-90475118D01*
X88147585Y-91256597D01*
X88525285Y-91978256D01*
X88565450Y-92038366D01*
X89085845Y-92434550D01*
X91820395Y-89700000D01*
X92179605Y-89700000D01*
X94914155Y-92434550D01*
X95434550Y-92038366D01*
X95824748Y-91323388D01*
X96067964Y-90546024D01*
X96154851Y-89736147D01*
X96082069Y-88924882D01*
X96060064Y-88850000D01*
X96926928Y-88850000D01*
X96926928Y-90550000D01*
X96939188Y-90674482D01*
X96975498Y-90794180D01*
X97034463Y-90904494D01*
X97113815Y-91001185D01*
X97210506Y-91080537D01*
X97320820Y-91139502D01*
X97440518Y-91175812D01*
X97565000Y-91188072D01*
X99265000Y-91188072D01*
X99389482Y-91175812D01*
X99509180Y-91139502D01*
X99619494Y-91080537D01*
X99716185Y-91001185D01*
X99795537Y-90904494D01*
X99854502Y-90794180D01*
X99876513Y-90721620D01*
X100008368Y-90853475D01*
X100251589Y-91015990D01*
X100521842Y-91127932D01*
X100808740Y-91185000D01*
X101101260Y-91185000D01*
X101388158Y-91127932D01*
X101658411Y-91015990D01*
X101901632Y-90853475D01*
X102108475Y-90646632D01*
X102230195Y-90464466D01*
X102299822Y-90581355D01*
X102494731Y-90797588D01*
X102728080Y-90971641D01*
X102990901Y-91096825D01*
X103138110Y-91141476D01*
X103368000Y-91020155D01*
X103368000Y-89827000D01*
X103348000Y-89827000D01*
X103348000Y-89573000D01*
X103368000Y-89573000D01*
X103368000Y-88379845D01*
X103622000Y-88379845D01*
X103622000Y-89573000D01*
X103642000Y-89573000D01*
X103642000Y-89827000D01*
X103622000Y-89827000D01*
X103622000Y-91020155D01*
X103851890Y-91141476D01*
X103999099Y-91096825D01*
X104261920Y-90971641D01*
X104495269Y-90797588D01*
X104690178Y-90581355D01*
X104759805Y-90464466D01*
X104881525Y-90646632D01*
X105088368Y-90853475D01*
X105331589Y-91015990D01*
X105601842Y-91127932D01*
X105888740Y-91185000D01*
X106181260Y-91185000D01*
X106468158Y-91127932D01*
X106738411Y-91015990D01*
X106981632Y-90853475D01*
X107188475Y-90646632D01*
X107350990Y-90403411D01*
X107462932Y-90133158D01*
X107520000Y-89846260D01*
X107520000Y-89553740D01*
X107516022Y-89533740D01*
X109635000Y-89533740D01*
X109635000Y-89826260D01*
X109692068Y-90113158D01*
X109804010Y-90383411D01*
X109966525Y-90626632D01*
X110173368Y-90833475D01*
X110416589Y-90995990D01*
X110686842Y-91107932D01*
X110973740Y-91165000D01*
X111266260Y-91165000D01*
X111553158Y-91107932D01*
X111823411Y-90995990D01*
X112066632Y-90833475D01*
X112198487Y-90701620D01*
X112220498Y-90774180D01*
X112279463Y-90884494D01*
X112358815Y-90981185D01*
X112455506Y-91060537D01*
X112565820Y-91119502D01*
X112685518Y-91155812D01*
X112810000Y-91168072D01*
X114510000Y-91168072D01*
X114634482Y-91155812D01*
X114754180Y-91119502D01*
X114864494Y-91060537D01*
X114961185Y-90981185D01*
X115040537Y-90884494D01*
X115099502Y-90774180D01*
X115135812Y-90654482D01*
X115148072Y-90530000D01*
X115148072Y-90469537D01*
X123984600Y-90469537D01*
X123984600Y-90683263D01*
X124026296Y-90892883D01*
X124089843Y-91046300D01*
X124026296Y-91199717D01*
X123984600Y-91409337D01*
X123984600Y-91623063D01*
X124026296Y-91832683D01*
X124108085Y-92030140D01*
X124226825Y-92207847D01*
X124377953Y-92358975D01*
X124555660Y-92477715D01*
X124753117Y-92559504D01*
X124962737Y-92601200D01*
X125176463Y-92601200D01*
X125386083Y-92559504D01*
X125539500Y-92495957D01*
X125692917Y-92559504D01*
X125902537Y-92601200D01*
X126116263Y-92601200D01*
X126325883Y-92559504D01*
X126523340Y-92477715D01*
X126701047Y-92358975D01*
X126852175Y-92207847D01*
X126970915Y-92030140D01*
X127052704Y-91832683D01*
X127094400Y-91623063D01*
X127094400Y-91409337D01*
X127052704Y-91199717D01*
X126989157Y-91046300D01*
X127052704Y-90892883D01*
X127094400Y-90683263D01*
X127094400Y-90469537D01*
X127052704Y-90259917D01*
X126970915Y-90062460D01*
X126852175Y-89884753D01*
X126701047Y-89733625D01*
X126596626Y-89663853D01*
X137845149Y-89663853D01*
X137917931Y-90475118D01*
X138147585Y-91256597D01*
X138525285Y-91978256D01*
X138565450Y-92038366D01*
X139085845Y-92434550D01*
X141820395Y-89700000D01*
X142179605Y-89700000D01*
X144914155Y-92434550D01*
X145434550Y-92038366D01*
X145824748Y-91323388D01*
X146067964Y-90546024D01*
X146154851Y-89736147D01*
X146082069Y-88924882D01*
X145852415Y-88143403D01*
X145474715Y-87421744D01*
X145434550Y-87361634D01*
X144914155Y-86965450D01*
X142179605Y-89700000D01*
X141820395Y-89700000D01*
X139085845Y-86965450D01*
X138565450Y-87361634D01*
X138175252Y-88076612D01*
X137932036Y-88853976D01*
X137845149Y-89663853D01*
X126596626Y-89663853D01*
X126523340Y-89614885D01*
X126325883Y-89533096D01*
X126116263Y-89491400D01*
X125902537Y-89491400D01*
X125692917Y-89533096D01*
X125539500Y-89596643D01*
X125386083Y-89533096D01*
X125176463Y-89491400D01*
X124962737Y-89491400D01*
X124753117Y-89533096D01*
X124555660Y-89614885D01*
X124377953Y-89733625D01*
X124226825Y-89884753D01*
X124108085Y-90062460D01*
X124026296Y-90259917D01*
X123984600Y-90469537D01*
X115148072Y-90469537D01*
X115148072Y-88830000D01*
X115135812Y-88705518D01*
X115099502Y-88585820D01*
X115040537Y-88475506D01*
X114961185Y-88378815D01*
X114864494Y-88299463D01*
X114754180Y-88240498D01*
X114634482Y-88204188D01*
X114510000Y-88191928D01*
X112810000Y-88191928D01*
X112685518Y-88204188D01*
X112565820Y-88240498D01*
X112455506Y-88299463D01*
X112358815Y-88378815D01*
X112279463Y-88475506D01*
X112220498Y-88585820D01*
X112198487Y-88658380D01*
X112066632Y-88526525D01*
X111823411Y-88364010D01*
X111553158Y-88252068D01*
X111266260Y-88195000D01*
X110973740Y-88195000D01*
X110686842Y-88252068D01*
X110416589Y-88364010D01*
X110173368Y-88526525D01*
X109966525Y-88733368D01*
X109804010Y-88976589D01*
X109692068Y-89246842D01*
X109635000Y-89533740D01*
X107516022Y-89533740D01*
X107462932Y-89266842D01*
X107350990Y-88996589D01*
X107188475Y-88753368D01*
X106981632Y-88546525D01*
X106738411Y-88384010D01*
X106468158Y-88272068D01*
X106181260Y-88215000D01*
X105888740Y-88215000D01*
X105601842Y-88272068D01*
X105331589Y-88384010D01*
X105088368Y-88546525D01*
X104881525Y-88753368D01*
X104759805Y-88935534D01*
X104690178Y-88818645D01*
X104495269Y-88602412D01*
X104261920Y-88428359D01*
X103999099Y-88303175D01*
X103851890Y-88258524D01*
X103622000Y-88379845D01*
X103368000Y-88379845D01*
X103138110Y-88258524D01*
X102990901Y-88303175D01*
X102728080Y-88428359D01*
X102494731Y-88602412D01*
X102299822Y-88818645D01*
X102230195Y-88935534D01*
X102108475Y-88753368D01*
X101901632Y-88546525D01*
X101658411Y-88384010D01*
X101388158Y-88272068D01*
X101101260Y-88215000D01*
X100808740Y-88215000D01*
X100521842Y-88272068D01*
X100251589Y-88384010D01*
X100008368Y-88546525D01*
X99876513Y-88678380D01*
X99854502Y-88605820D01*
X99795537Y-88495506D01*
X99716185Y-88398815D01*
X99619494Y-88319463D01*
X99509180Y-88260498D01*
X99389482Y-88224188D01*
X99265000Y-88211928D01*
X97565000Y-88211928D01*
X97440518Y-88224188D01*
X97320820Y-88260498D01*
X97210506Y-88319463D01*
X97113815Y-88398815D01*
X97034463Y-88495506D01*
X96975498Y-88605820D01*
X96939188Y-88725518D01*
X96926928Y-88850000D01*
X96060064Y-88850000D01*
X95852415Y-88143403D01*
X95474715Y-87421744D01*
X95434550Y-87361634D01*
X94914155Y-86965450D01*
X92179605Y-89700000D01*
X91820395Y-89700000D01*
X89085845Y-86965450D01*
X88565450Y-87361634D01*
X88175252Y-88076612D01*
X87932036Y-88853976D01*
X87845149Y-89663853D01*
X87665849Y-89663853D01*
X87731173Y-88931917D01*
X87934656Y-88188109D01*
X88266638Y-87492095D01*
X88716626Y-86865870D01*
X88799205Y-86785845D01*
X89265450Y-86785845D01*
X92000000Y-89520395D01*
X94734550Y-86785845D01*
X139265450Y-86785845D01*
X142000000Y-89520395D01*
X144734550Y-86785845D01*
X144338366Y-86265450D01*
X143623388Y-85875252D01*
X142846024Y-85632036D01*
X142036147Y-85545149D01*
X141224882Y-85617931D01*
X140443403Y-85847585D01*
X139721744Y-86225285D01*
X139661634Y-86265450D01*
X139265450Y-86785845D01*
X94734550Y-86785845D01*
X94338366Y-86265450D01*
X93623388Y-85875252D01*
X92846024Y-85632036D01*
X92036147Y-85545149D01*
X91224882Y-85617931D01*
X90443403Y-85847585D01*
X89721744Y-86225285D01*
X89661634Y-86265450D01*
X89265450Y-86785845D01*
X88799205Y-86785845D01*
X89270403Y-86329223D01*
X89910451Y-85899129D01*
X90616553Y-85589171D01*
X91371457Y-85407935D01*
X92024207Y-85360000D01*
X141970608Y-85360000D01*
X142768083Y-85431173D01*
%TD*%
M02*
